<svg xmlns="http://www.w3.org/2000/svg" width="279.6572" height="56" viewBox="0 0 279.6572 56"><g id="Layer_2" data-name="Layer 2"><g id="Layer_1-2" data-name="Layer 1"><path d="M.1846,16.1055v-.0879C.1846,7.041,6.835,0,15.8149,0A14.3535,14.3535,0,0,1,28.3955,6.4248l-6.1846,4.9727c-1.6943-2.2-3.6425-3.6084-6.48-3.6084-4.1514,0-7.0743,3.6523-7.0743,8.1406v.0879c0,4.6211,2.9229,8.2295,7.0743,8.2295,3.0918,0,4.9135-1.4961,6.6924-3.74l6.1845,4.5762c-2.7959,4.0049-6.5654,6.9531-13.1313,6.9531C7.0044,32.0361.1846,25.3037.1846,16.1055Z" fill="#173244"/><path d="M30.2549,16.1055v-.0879A15.9693,15.9693,0,1,1,62.1934,15.93v.0879a15.9693,15.9693,0,1,1-31.9385.0879Zm23.5517,0v-.0879c0-4.4444-3.0922-8.3164-7.625-8.3164-4.49,0-7.497,3.7842-7.497,8.2285v.0879c0,4.4453,3.0918,8.3174,7.582,8.3174C50.7988,24.335,53.8066,20.5508,53.8066,16.1055Z" fill="#173244"/><path d="M62.1885.6152H71.38L78.1152,20.11,84.8506.6152H93.873l-12.03,31.0254h-7.624Z" fill="#173244"/><path d="M96.918.6152h8.26V31.42h-8.26Z" fill="#173244"/><path d="M110.5977.6152h11.437c10.5893,0,16.7314,6.3369,16.7314,15.2266V15.93c0,8.89-6.2265,15.49-16.9009,15.49H110.5977Zm11.5639,23.2354c4.9136,0,8.1753-2.8164,8.1753-7.7891v-.0879c0-4.9287-3.2617-7.789-8.1753-7.789h-3.3462v15.666Z" fill="#173244"/><path d="M170.5264,22.9717h-.1695l-10.8-16.4551V31.42h-3.2612V.62h3.3882l10.8,16.8076L181.2842.62h3.3882v30.8h-3.3462V6.4717Z" fill="#173244"/><path d="M220.6714,31.42h-3.6l-3.4732-8.14H197.4624l-3.5151,8.14h-3.4307L204.0269.4h3.1342Zm-15.12-26.9277L198.7754,20.2h13.51Z" fill="#173244"/><path d="M247.7773,14.832a9.2446,9.2446,0,0,1-2.52,3.168,10.8172,10.8172,0,0,1-3.706,1.9141,15.4716,15.4716,0,0,1-4.4893.6377h-7.2V31.42h-3.3457V.62h11.0962a14.4076,14.4076,0,0,1,4.5532.6817,10.329,10.329,0,0,1,3.5152,1.9365,8.326,8.326,0,0,1,2.2446,3.08,10.3361,10.3361,0,0,1,.7837,4.1142A9.8467,9.8467,0,0,1,247.7773,14.832Zm-4.6015-9.3056a9.2166,9.2166,0,0,0-5.7969-1.6944h-7.5171V17.3838h7.3472a10.8523,10.8523,0,0,0,3.334-.4834,7.64,7.64,0,0,0,2.59-1.3858,6.0613,6.0613,0,0,0,1.6568-2.1562,6.6413,6.6413,0,0,0,.5737-2.7939A5.9787,5.9787,0,0,0,243.1758,5.5264Z" fill="#173244"/><path d="M257.73,10.2676a3.9114,3.9114,0,0,0,1.228,1.6084,8.8722,8.8722,0,0,0,2.4566,1.3222,28.4349,28.4349,0,0,0,4.0234,1.1231,17.14,17.14,0,0,1,7.3061,3.1728,7,7,0,0,1,2.3506,5.5967,8.5211,8.5211,0,0,1-.7534,3.6143,8.1346,8.1346,0,0,1-2.0752,2.7754,9.2284,9.2284,0,0,1-3.1855,1.7627,12.8782,12.8782,0,0,1-4.066.6172,17.1618,17.1618,0,0,1-6.5009-1.1934,18.2731,18.2731,0,0,1-5.6118-3.69l2.0752-2.5528a17.4244,17.4244,0,0,0,4.7011,3.2783,13.0747,13.0747,0,0,0,5.4634,1.0782,7.4229,7.4229,0,0,0,4.8071-1.4541,4.6877,4.6877,0,0,0,1.8-3.834,5.3036,5.3036,0,0,0-.3393-1.961,3.92,3.92,0,0,0-1.189-1.5644,8.3467,8.3467,0,0,0-2.3559-1.2773,29.1088,29.1088,0,0,0-3.8423-1.1026,29.86,29.86,0,0,1-4.4366-1.3223,10.9158,10.9158,0,0,1-3.1206-1.8066,6.5962,6.5962,0,0,1-1.8252-2.4668,8.5969,8.5969,0,0,1-.5942-3.35,7.7706,7.7706,0,0,1,2.7529-6.06A9.8015,9.8015,0,0,1,259.89.8193a11.4523,11.4523,0,0,1,3.8965-.64,15.883,15.883,0,0,1,5.6963.9336A17.1117,17.1117,0,0,1,274.2051,3.92l-1.9483,2.6846a14.3831,14.3831,0,0,0-4.1714-2.5527,12.315,12.315,0,0,0-4.3837-.792,8.0376,8.0376,0,0,0-2.6045.3974,6.5235,6.5235,0,0,0-1.9908,1.0576,4.5077,4.5077,0,0,0-1.7153,3.5694A5.49,5.49,0,0,0,257.73,10.2676Z" fill="#173244"/><path d="M11.146,51.42V42.0205l-3.523,7H6.1792l-3.523-7V51.42H0V37.22H2.8491L6.8916,45.3l4.0815-8.08h2.83v14.2Z" fill="#173244"/><path d="M20.9258,51.62a5.3491,5.3491,0,0,1-2.2139-.44,4.9627,4.9627,0,0,1-1.665-1.1895,5.2649,5.2649,0,0,1-1.0493-1.73,5.83,5.83,0,0,1-.3658-2.06,5.8918,5.8918,0,0,1,.3658-2.08,5.2711,5.2711,0,0,1,1.0493-1.73,4.9649,4.9649,0,0,1,1.665-1.19,5.3636,5.3636,0,0,1,2.2139-.44,5.2986,5.2986,0,0,1,2.2046.44,4.9985,4.9985,0,0,1,1.6552,1.19,5.29,5.29,0,0,1,1.0494,1.73,5.9052,5.9052,0,0,1,.3657,2.08,5.8436,5.8436,0,0,1-.3657,2.06,5.37,5.37,0,0,1-1.04,1.73A4.8623,4.8623,0,0,1,23.14,51.18,5.3467,5.3467,0,0,1,20.9258,51.62ZM18.2886,46.2a3.7773,3.7773,0,0,0,.2021,1.27,3.12,3.12,0,0,0,.5581.99,2.5041,2.5041,0,0,0,.8374.65,2.47,2.47,0,0,0,2.0791,0,2.5041,2.5041,0,0,0,.8374-.65,3.1158,3.1158,0,0,0,.5586-1,3.8643,3.8643,0,0,0,.2022-1.28,3.8029,3.8029,0,0,0-.2022-1.26,3.1158,3.1158,0,0,0-.5586-1,2.5113,2.5113,0,0,0-.8374-.6494,2.38,2.38,0,0,0-1.04-.23,2.2951,2.2951,0,0,0-1.04.24,2.6229,2.6229,0,0,0-.8374.66,3.0967,3.0967,0,0,0-.5581,1A3.8055,3.8055,0,0,0,18.2886,46.2Z" fill="#173244"/><path d="M32.1108,51.62a4.43,4.43,0,0,1-1.9253-.42,4.5639,4.5639,0,0,1-1.5209-1.16,5.4712,5.4712,0,0,1-.9913-1.73,6.2394,6.2394,0,0,1-.3564-2.1308,6.4758,6.4758,0,0,1,.3369-2.1192,5.6286,5.6286,0,0,1,.9341-1.7207,4.3351,4.3351,0,0,1,1.4243-1.16,3.9508,3.9508,0,0,1,1.81-.42,3.7185,3.7185,0,0,1,2.0117.5605,3.9836,3.9836,0,0,1,1.396,1.46V36.82h2.58V48.34a1.0251,1.0251,0,0,0,.1347.6006.5886.5886,0,0,0,.462.2V51.42a5.6121,5.6121,0,0,1-1.0972.1406,1.74,1.74,0,0,1-1.1357-.36,1.3333,1.3333,0,0,1-.501-.94l-.0576-.6592a3.7276,3.7276,0,0,1-1.5113,1.51A4.1675,4.1675,0,0,1,32.1108,51.62Zm.6734-2.28a2.3364,2.3364,0,0,0,.751-.13,2.5859,2.5859,0,0,0,.7124-.37,3.1676,3.1676,0,0,0,.5869-.5595,2.3479,2.3479,0,0,0,.395-.7v-2.5a2.98,2.98,0,0,0-.4331-.81A3.2935,3.2935,0,0,0,33.41,43.2a2.07,2.07,0,0,0-.78-.16,2.2539,2.2539,0,0,0-1.0684.26,2.5684,2.5684,0,0,0-.8374.71,3.4623,3.4623,0,0,0-.5391,1.03,3.7856,3.7856,0,0,0-.1923,1.2,3.4236,3.4236,0,0,0,.2114,1.22,3.2,3.2,0,0,0,.5776.98,2.5956,2.5956,0,0,0,2.002.8994Z" fill="#173244"/><path d="M45.0283,51.62a5.4238,5.4238,0,0,1-2.1948-.43,5.0352,5.0352,0,0,1-1.6748-1.17A5.22,5.22,0,0,1,40.09,48.3a5.699,5.699,0,0,1-.3755-2.06,6.0322,6.0322,0,0,1,.3658-2.11,5.1713,5.1713,0,0,1,1.0586-1.7393,5.0506,5.0506,0,0,1,1.6845-1.19,5.4317,5.4317,0,0,1,2.2237-.44,5.2946,5.2946,0,0,1,2.2041.44,4.9867,4.9867,0,0,1,2.6953,2.9,5.9279,5.9279,0,0,1,.3559,2.04c0,.1729-.0029.34-.0092.5a2.126,2.126,0,0,1-.0484.3994H42.4482a3.2064,3.2064,0,0,0,.2891,1.1006,2.7135,2.7135,0,0,0,.5967.8194,2.5726,2.5726,0,0,0,.8276.52,2.6272,2.6272,0,0,0,.9629.18,2.8874,2.8874,0,0,0,1.4531-.39,2.04,2.04,0,0,0,.9341-1.03l2.2139.64a4.6169,4.6169,0,0,1-1.7808,1.9707A5.3664,5.3664,0,0,1,45.0283,51.62Zm2.6182-6.32a2.8372,2.8372,0,0,0-.8374-1.89,2.5108,2.5108,0,0,0-1.8-.71,2.4811,2.4811,0,0,0-.9722.19,2.5149,2.5149,0,0,0-.7988.5293,2.7542,2.7542,0,0,0-.5679.82,2.97,2.97,0,0,0-.26,1.06Z" fill="#173244"/><path d="M51.8623,36.82h2.58v11.24a1.3521,1.3521,0,0,0,.27.9.9484.9484,0,0,0,.77.32,1.8558,1.8558,0,0,0,.51-.08,3.3236,3.3236,0,0,0,.5293-.2l.3462,2.04a4.8422,4.8422,0,0,1-1.2124.4,6.4225,6.4225,0,0,1-1.2515.14,2.523,2.523,0,0,1-1.8769-.67A2.5962,2.5962,0,0,1,51.8623,49Z" fill="#173244"/><path d="M57.9839,39.4805V36.82h2.58v2.66Zm0,11.9394V40.94h2.58V51.42Z" fill="#173244"/><path d="M72.2681,51.42h-2.58V45.54a3.1558,3.1558,0,0,0-.4239-1.84,1.3726,1.3726,0,0,0-1.1743-.58,2.1386,2.1386,0,0,0-.789.16,2.8691,2.8691,0,0,0-.7608.45,3.5974,3.5974,0,0,0-.6445.6894,2.7786,2.7786,0,0,0-.4238.88v6.12h-2.58V40.94h2.33v1.94a3.8843,3.8843,0,0,1,1.6167-1.56,5.032,5.032,0,0,1,2.3872-.5605,2.9457,2.9457,0,0,1,1.54.36,2.5534,2.5534,0,0,1,.9243.94,4.029,4.029,0,0,1,.4522,1.3194,8.9862,8.9862,0,0,1,.1255,1.5Z" fill="#173244"/><path d="M78.4663,51.4805a4.0339,4.0339,0,0,1-1.8481-.42,4.4857,4.4857,0,0,1-1.4341-1.15,5.2791,5.2791,0,0,1-.9336-1.69,6.5918,6.5918,0,0,1,.019-4.1592,5.57,5.57,0,0,1,.9629-1.7207,4.418,4.418,0,0,1,1.4824-1.16,4.3175,4.3175,0,0,1,1.9058-.42,3.8194,3.8194,0,0,1,2.06.5507,4.5468,4.5468,0,0,1,1.4634,1.47V40.94H84.396v9.98A4.921,4.921,0,0,1,83.9722,53a4.5527,4.5527,0,0,1-1.1646,1.56,5.15,5.15,0,0,1-1.771.98,7.1191,7.1191,0,0,1-2.2427.34,6.1183,6.1183,0,0,1-2.7817-.5694,5.6909,5.6909,0,0,1-1.9351-1.61l1.4053-1.42a4.0258,4.0258,0,0,0,1.4536,1.16,4.253,4.253,0,0,0,1.8579.42,3.8543,3.8543,0,0,0,1.1456-.17,2.7321,2.7321,0,0,0,.9721-.53,2.471,2.471,0,0,0,.6641-.92,3.3308,3.3308,0,0,0,.2407-1.32V49.6006a3.4652,3.4652,0,0,1-1.4053,1.39A4.0161,4.0161,0,0,1,78.4663,51.4805ZM79.333,49.34a2.3441,2.3441,0,0,0,.8086-.14,2.8186,2.8186,0,0,0,.7119-.38,2.922,2.922,0,0,0,.5777-.5605,2.5656,2.5656,0,0,0,.3852-.68v-2.5a3.2377,3.2377,0,0,0-1.0879-1.48,2.5323,2.5323,0,0,0-1.55-.5606,2.159,2.159,0,0,0-1.0781.27,2.71,2.71,0,0,0-.8277.72,3.2879,3.2879,0,0,0-.5292,1.03,3.9587,3.9587,0,0,0-.1832,1.1993,3.3513,3.3513,0,0,0,.212,1.2,3.099,3.099,0,0,0,.5869.98,2.7919,2.7919,0,0,0,.876.66A2.5173,2.5173,0,0,0,79.333,49.34Z" fill="#173244"/><path d="M94.0981,51.62a3.6911,3.6911,0,0,1-1.3667-.25,3.234,3.234,0,0,1-2.0791-3.07,3.0076,3.0076,0,0,1,.3174-1.37,3.1051,3.1051,0,0,1,.8858-1.0693,4.3343,4.3343,0,0,1,1.3569-.6905,5.7378,5.7378,0,0,1,1.7329-.25,7.1884,7.1884,0,0,1,1.3184.12,5.2278,5.2278,0,0,1,1.1455.34v-.6a2.15,2.15,0,0,0-.5679-1.6006,2.3054,2.3054,0,0,0-1.6846-.56,4.3107,4.3107,0,0,0-1.5786.3A7.2841,7.2841,0,0,0,92,43.8l-.79-1.6992A7.2523,7.2523,0,0,1,95.4072,40.76a4.7966,4.7966,0,0,1,3.3784,1.11,4.15,4.15,0,0,1,1.2032,3.21v3.26a.9714.9714,0,0,0,.1445.6006.622.622,0,0,0,.4717.2V51.42a5.5124,5.5124,0,0,1-1.1358.1406,1.6741,1.6741,0,0,1-1.1259-.3408,1.4705,1.4705,0,0,1-.4912-.8994l-.0577-.58a4.5107,4.5107,0,0,1-1.6362,1.4A4.5627,4.5627,0,0,1,94.0981,51.62Zm.7315-1.96a3.2483,3.2483,0,0,0,1.2417-.24,2.2527,2.2527,0,0,0,.9145-.64.9722.9722,0,0,0,.4234-.76v-1.2a6.0954,6.0954,0,0,0-1.001-.29,5.203,5.203,0,0,0-1.0395-.11,2.6791,2.6791,0,0,0-1.6363.4707,1.4246,1.4246,0,0,0-.6352,1.19,1.4542,1.4542,0,0,0,.5005,1.13A1.7758,1.7758,0,0,0,94.83,49.66Z" fill="#173244"/><path d="M111.7705,51.42h-2.58V45.54a3.1567,3.1567,0,0,0-.4238-1.84,1.3726,1.3726,0,0,0-1.1743-.58,2.1387,2.1387,0,0,0-.7891.16,2.87,2.87,0,0,0-.7607.45,3.5979,3.5979,0,0,0-.6446.6894,2.7829,2.7829,0,0,0-.4238.88v6.12h-2.58V40.94h2.33v1.94a3.8849,3.8849,0,0,1,1.6167-1.56,5.0325,5.0325,0,0,1,2.3872-.5605,2.9463,2.9463,0,0,1,1.54.36,2.555,2.555,0,0,1,.9243.94,4.0312,4.0312,0,0,1,.4521,1.3194,8.9862,8.9862,0,0,1,.1255,1.5Z" fill="#173244"/><path d="M118.2,51.62a4.43,4.43,0,0,1-1.9253-.42,4.5643,4.5643,0,0,1-1.521-1.16,5.4729,5.4729,0,0,1-.9912-1.73,6.2394,6.2394,0,0,1-.3565-2.1308,6.4758,6.4758,0,0,1,.337-2.1192,5.6284,5.6284,0,0,1,.934-1.7207,4.3354,4.3354,0,0,1,1.4244-1.16,3.95,3.95,0,0,1,1.81-.42,3.7186,3.7186,0,0,1,2.0118.5605,3.9833,3.9833,0,0,1,1.3959,1.46V36.82h2.58V48.34a1.025,1.025,0,0,0,.1348.6006.5886.5886,0,0,0,.4619.2V51.42a5.61,5.61,0,0,1-1.0972.1406,1.74,1.74,0,0,1-1.1357-.36,1.334,1.334,0,0,1-.501-.94l-.0576-.6592a3.728,3.728,0,0,1-1.5112,1.51A4.1678,4.1678,0,0,1,118.2,51.62Zm.6733-2.28a2.3355,2.3355,0,0,0,.751-.13,2.5845,2.5845,0,0,0,.7124-.37,3.1614,3.1614,0,0,0,.5869-.5595,2.3458,2.3458,0,0,0,.395-.7v-2.5a2.9772,2.9772,0,0,0-.4331-.81A3.2919,3.2919,0,0,0,119.5,43.2a2.07,2.07,0,0,0-.78-.16,2.2535,2.2535,0,0,0-1.0683.26,2.5664,2.5664,0,0,0-.8374.71,3.4577,3.4577,0,0,0-.5391,1.03,3.7856,3.7856,0,0,0-.1924,1.2,3.4236,3.4236,0,0,0,.2114,1.22,3.2,3.2,0,0,0,.5777.98,2.5956,2.5956,0,0,0,2.0019.8994Z" fill="#173244"/><path d="M131.31,51.42V37.22h5.7944a3.7716,3.7716,0,0,1,1.7422.41,4.542,4.542,0,0,1,1.3764,1.08,5.14,5.14,0,0,1,.9048,1.52,4.7234,4.7234,0,0,1,.3272,1.71,5.0955,5.0955,0,0,1-.3081,1.75,4.9062,4.9062,0,0,1-.8662,1.51,4.2662,4.2662,0,0,1-1.3477,1.06,3.7667,3.7667,0,0,1-1.7324.4h-3.2344v4.76Zm2.6562-7.18h3.0806a1.5019,1.5019,0,0,0,1.2221-.62,2.6325,2.6325,0,0,0,.4913-1.68,2.8728,2.8728,0,0,0-.1543-.9707,2.3816,2.3816,0,0,0-.4043-.73,1.6233,1.6233,0,0,0-.587-.45,1.6721,1.6721,0,0,0-.6835-.1494h-2.9649Z" fill="#173244"/><path d="M147.5386,51.62a5.3491,5.3491,0,0,1-2.2139-.44A4.9617,4.9617,0,0,1,143.66,49.99a5.2649,5.2649,0,0,1-1.0493-1.73,5.83,5.83,0,0,1-.3658-2.06,5.8918,5.8918,0,0,1,.3658-2.08,5.2711,5.2711,0,0,1,1.0493-1.73,4.9639,4.9639,0,0,1,1.665-1.19,5.3636,5.3636,0,0,1,2.2139-.44,5.2986,5.2986,0,0,1,2.2046.44,4.9985,4.9985,0,0,1,1.6552,1.19,5.29,5.29,0,0,1,1.0494,1.73,5.9052,5.9052,0,0,1,.3657,2.08,5.8436,5.8436,0,0,1-.3657,2.06,5.37,5.37,0,0,1-1.04,1.73,4.8623,4.8623,0,0,1-1.6558,1.1895A5.347,5.347,0,0,1,147.5386,51.62Zm-2.6372-5.42a3.7773,3.7773,0,0,0,.2021,1.27,3.12,3.12,0,0,0,.5581.99,2.5041,2.5041,0,0,0,.8374.65,2.47,2.47,0,0,0,2.0791,0,2.5041,2.5041,0,0,0,.8374-.65,3.1158,3.1158,0,0,0,.5586-1,3.8643,3.8643,0,0,0,.2022-1.28,3.8029,3.8029,0,0,0-.2022-1.26,3.1158,3.1158,0,0,0-.5586-1,2.5113,2.5113,0,0,0-.8374-.6494,2.3807,2.3807,0,0,0-1.04-.23,2.2951,2.2951,0,0,0-1.04.24,2.6229,2.6229,0,0,0-.8374.66,3.0967,3.0967,0,0,0-.5581,1A3.8055,3.8055,0,0,0,144.9014,46.2Z" fill="#173244"/><path d="M154.5269,36.82h2.5795v11.24a1.3521,1.3521,0,0,0,.27.9.9483.9483,0,0,0,.77.32,1.8557,1.8557,0,0,0,.51-.08,3.3163,3.3163,0,0,0,.5293-.2l.3462,2.04a4.8422,4.8422,0,0,1-1.2124.4,6.4223,6.4223,0,0,1-1.2514.14,2.5234,2.5234,0,0,1-1.877-.67,2.5961,2.5961,0,0,1-.664-1.91Z" fill="#173244"/><path d="M160.6484,39.4805V36.82h2.58v2.66Zm0,11.9394V40.94h2.58V51.42Z" fill="#173244"/><path d="M164.9219,46.18a5.8924,5.8924,0,0,1,.3657-2.0791,5.0491,5.0491,0,0,1,2.7339-2.9,5.36,5.36,0,0,1,2.2139-.44,5.1544,5.1544,0,0,1,2.82.74,4.6648,4.6648,0,0,1,1.7422,1.94l-2.522.8a2.3076,2.3076,0,0,0-.8662-.89,2.3517,2.3517,0,0,0-1.1939-.3106,2.3807,2.3807,0,0,0-1.04.23,2.5591,2.5591,0,0,0-.8374.64,2.9853,2.9853,0,0,0-.5581.99,3.8663,3.8663,0,0,0-.2022,1.2793,3.7074,3.7074,0,0,0,.2114,1.28,3.2525,3.2525,0,0,0,.5684,1,2.4991,2.4991,0,0,0,.8374.65,2.3335,2.3335,0,0,0,1.02.2294,2.4111,2.4111,0,0,0,1.28-.3593,1.9959,1.9959,0,0,0,.8184-.88l2.5219.8a4.3547,4.3547,0,0,1-1.7134,1.96,5.2284,5.2284,0,0,1-2.8686.76,5.3491,5.3491,0,0,1-2.2139-.44,5.0722,5.0722,0,0,1-1.6748-1.1895,5.3058,5.3058,0,0,1-1.0683-1.74A5.784,5.784,0,0,1,164.9219,46.18Z" fill="#173244"/><path d="M176.4922,53.46a4.8382,4.8382,0,0,0,.6352.15,3.3449,3.3449,0,0,0,.52.05,1.0729,1.0729,0,0,0,.4624-.1,1.01,1.01,0,0,0,.3847-.35,3.471,3.471,0,0,0,.3467-.69q.1729-.4408.3657-1.1006l-3.9848-10.48h2.6562l2.7339,8.16,2.4258-8.16h2.4253L181.228,53.5a3.7517,3.7517,0,0,1-1.2514,1.8,3.4293,3.4293,0,0,1-2.1949.7,4.0389,4.0389,0,0,1-.6255-.05,3.8484,3.8484,0,0,1-.664-.17Z" fill="#173244"/><path d="M199.3618,40.94a3.2221,3.2221,0,0,0-.4907-.38,5.9007,5.9007,0,0,0-.8667-.4707,7.341,7.341,0,0,0-1.1069-.39,4.6772,4.6772,0,0,0-1.2129-.16,2.64,2.64,0,0,0-1.6363.42,1.4114,1.4114,0,0,0-.539,1.1806,1.2462,1.2462,0,0,0,.2021.73,1.7632,1.7632,0,0,0,.5874.51,4.785,4.785,0,0,0,.9722.4q.5867.18,1.3569.38,1.0012.28,1.8194.6a4.8916,4.8916,0,0,1,1.3862.8007,3.2882,3.2882,0,0,1,.876,1.15,3.9479,3.9479,0,0,1,.3081,1.65,4.2436,4.2436,0,0,1-.4141,1.95,3.5732,3.5732,0,0,1-1.1167,1.31,4.774,4.774,0,0,1-1.6172.73,7.8727,7.8727,0,0,1-1.9155.23,9.9526,9.9526,0,0,1-3.0415-.48,9.2555,9.2555,0,0,1-2.6953-1.36l1.1743-2.38a3.7271,3.7271,0,0,0,.626.47,9.385,9.385,0,0,0,1.0683.58,8.1477,8.1477,0,0,0,1.3667.49,5.9794,5.9794,0,0,0,1.54.2q2.1951,0,2.1948-1.46a1.2264,1.2264,0,0,0-.25-.78,2.1472,2.1472,0,0,0-.7119-.5606,6.7054,6.7054,0,0,0-1.1167-.4394q-.6548-.2007-1.4634-.4405a12.1536,12.1536,0,0,1-1.7036-.6094,4.4829,4.4829,0,0,1-1.2031-.78,2.9157,2.9157,0,0,1-.7217-1.04,3.7238,3.7238,0,0,1-.2407-1.41,4.5574,4.5574,0,0,1,.3847-1.92,3.8728,3.8728,0,0,1,1.0684-1.4,4.7788,4.7788,0,0,1,1.5884-.85,6.3326,6.3326,0,0,1,1.9443-.29,7.3094,7.3094,0,0,1,2.6568.47,9.7644,9.7644,0,0,1,2.1176,1.11Z" fill="#173244"/><path d="M202.1338,46.18a5.8924,5.8924,0,0,1,.3657-2.0791,5.0491,5.0491,0,0,1,2.7339-2.9,5.36,5.36,0,0,1,2.2139-.44,5.1544,5.1544,0,0,1,2.82.74,4.6648,4.6648,0,0,1,1.7422,1.94l-2.522.8a2.3076,2.3076,0,0,0-.8662-.89,2.3517,2.3517,0,0,0-1.1939-.3106,2.3807,2.3807,0,0,0-1.0395.23,2.5591,2.5591,0,0,0-.8374.64,2.9853,2.9853,0,0,0-.5581.99,3.8663,3.8663,0,0,0-.2022,1.2793,3.705,3.705,0,0,0,.2115,1.28,3.25,3.25,0,0,0,.5683,1,2.4991,2.4991,0,0,0,.8374.65,2.3338,2.3338,0,0,0,1.02.2294,2.4111,2.4111,0,0,0,1.28-.3593,1.9959,1.9959,0,0,0,.8184-.88l2.5219.8a4.3545,4.3545,0,0,1-1.7133,1.96,5.2287,5.2287,0,0,1-2.8687.76,5.3491,5.3491,0,0,1-2.2139-.44,5.0732,5.0732,0,0,1-1.6748-1.1895,5.3058,5.3058,0,0,1-1.0683-1.74A5.784,5.784,0,0,1,202.1338,46.18Z" fill="#173244"/><path d="M218.209,51.62a5.4235,5.4235,0,0,1-2.1948-.43,5.0352,5.0352,0,0,1-1.6748-1.17A5.2179,5.2179,0,0,1,213.271,48.3a5.699,5.699,0,0,1-.3755-2.06,6.0344,6.0344,0,0,1,.3657-2.11,5.1745,5.1745,0,0,1,1.0586-1.7393,5.051,5.051,0,0,1,1.6846-1.19,5.4309,5.4309,0,0,1,2.2236-.44,5.2943,5.2943,0,0,1,2.2041.44,4.9859,4.9859,0,0,1,2.6953,2.9,5.928,5.928,0,0,1,.356,2.04c0,.1729-.0029.34-.0093.5a2.1186,2.1186,0,0,1-.0483.3994h-7.7969a3.2064,3.2064,0,0,0,.2891,1.1006,2.715,2.715,0,0,0,.5966.8194,2.5741,2.5741,0,0,0,.8277.52,2.6272,2.6272,0,0,0,.9629.18,2.8876,2.8876,0,0,0,1.4531-.39,2.04,2.04,0,0,0,.9341-1.03l2.2138.64a4.6167,4.6167,0,0,1-1.7807,1.9707A5.3664,5.3664,0,0,1,218.209,51.62Zm2.6181-6.32a2.8362,2.8362,0,0,0-.8374-1.89,2.5107,2.5107,0,0,0-1.8-.71,2.4811,2.4811,0,0,0-.9722.19,2.5127,2.5127,0,0,0-.7988.5293,2.7524,2.7524,0,0,0-.5679.82,2.97,2.97,0,0,0-.26,1.06Z" fill="#173244"/><path d="M234.4375,51.42h-2.58V45.54a3.1567,3.1567,0,0,0-.4238-1.84,1.3726,1.3726,0,0,0-1.1743-.58,2.1387,2.1387,0,0,0-.7891.16,2.87,2.87,0,0,0-.7607.45,3.5979,3.5979,0,0,0-.6446.6894,2.7808,2.7808,0,0,0-.4238.88v6.12h-2.58V40.94h2.33v1.94a3.8849,3.8849,0,0,1,1.6167-1.56,5.0325,5.0325,0,0,1,2.3872-.5605,2.9457,2.9457,0,0,1,1.54.36,2.5545,2.5545,0,0,1,.9244.94,4.0312,4.0312,0,0,1,.4521,1.3194,8.9862,8.9862,0,0,1,.1255,1.5Z" fill="#173244"/><path d="M239.4424,51.62a3.69,3.69,0,0,1-1.3667-.25,3.2335,3.2335,0,0,1-2.0791-3.07,3.0063,3.0063,0,0,1,.3174-1.37A3.1048,3.1048,0,0,1,237.2,45.86a4.3354,4.3354,0,0,1,1.3569-.6905,5.738,5.738,0,0,1,1.733-.25,7.1873,7.1873,0,0,1,1.3183.12,5.2262,5.2262,0,0,1,1.1455.34v-.6a2.15,2.15,0,0,0-.5679-1.6006,2.3053,2.3053,0,0,0-1.6845-.56,4.31,4.31,0,0,0-1.5786.3,7.2847,7.2847,0,0,0-1.5782.88l-.79-1.6992a7.2521,7.2521,0,0,1,4.1968-1.3408,4.7968,4.7968,0,0,1,3.3784,1.11,4.15,4.15,0,0,1,1.2031,3.21v3.26a.9714.9714,0,0,0,.1445.6006.6222.6222,0,0,0,.4717.2V51.42a5.5115,5.5115,0,0,1-1.1357.1406,1.6743,1.6743,0,0,1-1.126-.3408,1.471,1.471,0,0,1-.4912-.8994l-.0576-.58a4.511,4.511,0,0,1-1.6363,1.4A4.5623,4.5623,0,0,1,239.4424,51.62Zm.7314-1.96a3.248,3.248,0,0,0,1.2417-.24,2.2537,2.2537,0,0,0,.9146-.64.9724.9724,0,0,0,.4233-.76v-1.2a6.0954,6.0954,0,0,0-1.001-.29,5.2015,5.2015,0,0,0-1.04-.11,2.6786,2.6786,0,0,0-1.6362.4707,1.4244,1.4244,0,0,0-.6353,1.19,1.4542,1.4542,0,0,0,.5005,1.13A1.7758,1.7758,0,0,0,240.1738,49.66Z" fill="#173244"/><path d="M253.7456,43.26a4.9186,4.9186,0,0,0-2.0981.4707,2.6994,2.6994,0,0,0-1.3287,1.35v6.34h-2.58V40.94h2.3676V43.18a4.8055,4.8055,0,0,1,.6358-.97,5.0094,5.0094,0,0,1,.789-.75,3.6655,3.6655,0,0,1,.857-.49,2.3065,2.3065,0,0,1,.8374-.17h.3174a.9693.9693,0,0,1,.2021.0205Z" fill="#173244"/><path d="M255.19,39.4805V36.82h2.5795v2.66Zm0,11.9394V40.94h2.5795V51.42Z" fill="#173244"/><path d="M264.7568,51.62a5.3487,5.3487,0,0,1-2.2138-.44,4.9631,4.9631,0,0,1-1.6651-1.1895,5.2682,5.2682,0,0,1-1.0493-1.73,5.8324,5.8324,0,0,1-.3657-2.06,5.8939,5.8939,0,0,1,.3657-2.08,5.2745,5.2745,0,0,1,1.0493-1.73,4.9654,4.9654,0,0,1,1.6651-1.19,5.3631,5.3631,0,0,1,2.2138-.44,5.2983,5.2983,0,0,1,2.2046.44,4.9989,4.9989,0,0,1,1.6553,1.19,5.288,5.288,0,0,1,1.0493,1.73,5.9029,5.9029,0,0,1,.3657,2.08,5.8413,5.8413,0,0,1-.3657,2.06,5.3683,5.3683,0,0,1-1.0395,1.73,4.8633,4.8633,0,0,1-1.6558,1.1895A5.3475,5.3475,0,0,1,264.7568,51.62ZM262.12,46.2a3.7748,3.7748,0,0,0,.2022,1.27,3.1183,3.1183,0,0,0,.5581.99,2.5041,2.5041,0,0,0,.8374.65,2.47,2.47,0,0,0,2.0791,0,2.5041,2.5041,0,0,0,.8374-.65,3.1176,3.1176,0,0,0,.5586-1,3.8669,3.8669,0,0,0,.2021-1.28,3.8055,3.8055,0,0,0-.2021-1.26,3.1176,3.1176,0,0,0-.5586-1,2.5113,2.5113,0,0,0-.8374-.6494,2.3808,2.3808,0,0,0-1.04-.23,2.2949,2.2949,0,0,0-1.0395.24,2.6229,2.6229,0,0,0-.8374.66,3.0949,3.0949,0,0,0-.5581,1A3.8029,3.8029,0,0,0,262.12,46.2Z" fill="#173244"/><path d="M275.5757,51.62a7.532,7.532,0,0,1-2.4834-.42,6,6,0,0,1-2.0791-1.2l.9629-1.68a8.2087,8.2087,0,0,0,1.8,1.03,4.6648,4.6648,0,0,0,1.7422.35,2.1372,2.1372,0,0,0,1.2129-.3.9771.9771,0,0,0,.4428-.86.862.862,0,0,0-.52-.82,10.9892,10.9892,0,0,0-1.6938-.6q-.9822-.28-1.6748-.54a4.2274,4.2274,0,0,1-1.1167-.59,2.0059,2.0059,0,0,1-.6163-.76,2.5087,2.5087,0,0,1-.1923-1.03,3.3693,3.3693,0,0,1,.2983-1.44,3.1221,3.1221,0,0,1,.8374-1.09,3.8349,3.8349,0,0,1,1.2612-.6894,4.937,4.937,0,0,1,1.5689-.24,6.5214,6.5214,0,0,1,2.1274.34,5.1506,5.1506,0,0,1,1.8189,1.1l-1.04,1.62a6.028,6.028,0,0,0-1.4917-.88,3.9475,3.9475,0,0,0-1.4345-.2793,2.0168,2.0168,0,0,0-1.0972.2793.9865.9865,0,0,0-.4429.9.8959.8959,0,0,0,.106.46.9505.9505,0,0,0,.3369.32,3.2944,3.2944,0,0,0,.6064.27q.3757.13.9336.27,1.04.28,1.7808.56a4.8054,4.8054,0,0,1,1.2129.64,2.2634,2.2634,0,0,1,.6928.83,2.6372,2.6372,0,0,1,.2217,1.13,2.9622,2.9622,0,0,1-1.0971,2.4307A4.6082,4.6082,0,0,1,275.5757,51.62Z" fill="#173244"/></g></g></svg>