<svg xmlns="http://www.w3.org/2000/svg" width="342.1758" height="53.3473" viewBox="0 0 342.1758 53.3473"><g id="Layer_2" data-name="Layer 2"><g id="Layer_1-2" data-name="Layer 1"><path d="M42.5549,0a5.0438,5.0438,0,0,1,2.4915.6578L82.78,22.0681a5.0486,5.0486,0,0,1,.05,8.7534L45.3431,52.6607a5.0488,5.0488,0,0,1-7.59-4.3334l-.2468-43.25A5.049,5.049,0,0,1,42.5549,0Z" fill="#173244"/><path d="M42.7824,53.3473a5.0438,5.0438,0,0,1-2.4915-.6578L2.5572,31.2792a5.0487,5.0487,0,0,1-.05-8.7535L39.9942.6866a5.0486,5.0486,0,0,1,7.59,4.3334l.2468,43.25a5.0491,5.0491,0,0,1-5.0488,5.0774Z" fill="#173244"/><g opacity="0.5"><path d="M42.3141.0057Q42.4344,0,42.5549,0a5.0438,5.0438,0,0,1,2.4915.6578L82.78,22.0681a5.0486,5.0486,0,0,1,.05,8.7534L45.3431,52.6607a5.0446,5.0446,0,0,1-3.0332.6626" fill="#66c8ff"/></g><path d="M40.5343,18.6136c-.0106.0446.0533.03.0593.0581s-.1263.0346-.1421-.0362c-.0055-.0248.008-.0241.0129-.0331s.0277.0211.0333.0179-.0019-.0394.0048-.0374S40.5448,18.569,40.5343,18.6136Zm-12.7276-.628c-.0191-.0235-.04.0858-.0611.0311s-.1616-.0479-.1862-.0437.1528-.14.1548-.1583-.0467-.0144-.0507-.0319.0968-.0583.0739-.0788a.1693.1693,0,0,0-.1638.0016.2253.2253,0,0,1-.1754.0507.3118.3118,0,0,0-.1812.0365c-.0448.02-.0983.0981-.0921.1262s.1512-.01.1625.056-.014.1643-.0848.1652-.0992-.0906-.151-.066-.1314.079-.0527.1287a2.4047,2.4047,0,0,1,.3394.17c.0707.068.0624.1007.1568.1129s.0684-.0913.13-.1244.2628-.1892.1773-.2376.07-.0266.0471-.0552S27.8258,18.0091,27.8067,17.9856Zm12.5537.6591c0,.0134.0055.0985.0184.0911s.0109-.1057.02-.1168-.0446-.0063-.0506.0036S40.3605,18.6313,40.36,18.6447Zm-9.8267.1545c.106.0965.2012.058.2344-.014s.0847-.1481.0236-.2384S30.4277,18.7028,30.5337,18.7992Zm.78-1.2937c-.0234-.0853-.1983-.0356-.2812.0082s-.1763-.124-.2446-.1691a.4043.4043,0,0,0-.2862-.034.539.539,0,0,0-.1681.073c-.0451.0363-.0518.141-.1218.1277a.1184.1184,0,0,0-.1511.059c-.0421.0676-.0946.0579-.0635-.01a.1884.1884,0,0,0,.0092-.1824c-.0324-.0563-.0607-.0518-.0923-.09s-.0213-.1151-.0821-.11a.3154.3154,0,0,0-.1593.033c-.0662.035-.23.1717-.295.177s.0793-.1135-.0031-.1176a.8131.8131,0,0,0-.37.139.7024.7024,0,0,0-.2219.3169.7124.7124,0,0,0-.0686.2386c.0092.0651-.0107.1728.0486.1834s.3129-.0322.3249.0351-.2812.0084-.2851.0648.1286.1273.1939.1435.0745-.0229.144-.0517.0433.0223.0913.0552.091.02.16.0063a1.6482,1.6482,0,0,1,.3241-.0612c.0666.0091.0684.013.11.016s.0207-.0527.055-.0553.0885.0519.1123.0279-.1514-.0751-.0995-.0883.3456.0151.3995-.0635-.1011-.0576-.0843-.1128.0944.0256.1272.0483.07-.034.0894-.0135.0014.12.0329.09.264.0334.2541.0853-.16.1341-.1107.18.1011-.0777.1564-.0919.0607-.0562.1089.0119.1779.0464.2214.1132a1.41,1.41,0,0,1,.1144.183c.0252.0582-.0118.0368-.0434.0984a3.9635,3.9635,0,0,0-.23.3256c-.0125.0576.1417.038.1025.1122s-.1238.0615-.1888.1149-.26.0243-.3058.0672a1.1778,1.1778,0,0,0-.1173.1807c-.0356.0507.0344.13.0957.1117a.3966.3966,0,0,0,.2063-.1008c.0461-.0617.1329-.0293.178-.0458s-.0217-.0355.0219-.0717.0338.0615.0783.0356a.1233.1233,0,0,1,.1708.0733c.0334.09.1487.0223.1708.0559s-.1091.0581-.09.09.1334.0269.1637.0266-.0442.036-.0075.0405.1508-.002.2042.0027.0143.0687.0911.0653A2.6391,2.6391,0,0,0,32.1,19.85c.0615-.0233.0218-.1043-.0131-.1231s-.1151-.0573-.1546-.0733-.107.0112-.13-.0209-.0859-.1088-.0815-.1266.1183.0285.1375.0223-.0459-.0675-.0111-.0618a2.53,2.53,0,0,1,.2451.0937c.0471.02.1277.1027.1548.0866s-.0363-.0624-.0251-.0786.0366.0214.0494-.0076-.0558-.1278-.0377-.1539.0622.0869.0693.06a.3542.3542,0,0,0-.0267-.18c-.0268-.0409-.086-.0108-.101-.0734s-.0129-.0812-.0791-.1161-.0952.0344-.1132.0418-.042-.1034-.06-.1518-.0687,0-.09.0041-.0417-.0866-.04-.1039.1011.0088.1053-.0234-.072-.0792-.0388-.13.0638-.0661.1185-.0444.0807.0786.14.0922.0959-.1092.1427-.0788-.0983.1091-.09.1459.1933.1606.2536.139-.0362-.2233.0089-.2308.2128-.0607.2286-.1214-.0993.0112-.0916-.0384.1091-.01.14-.0483.0307-.1786-.0451-.19-.1816.0626-.2231.063.0793-.099.0374-.1034-.1392.0189-.1929-.0323a.2462.2462,0,0,0-.1635-.0783,3.8048,3.8048,0,0,1-.4272-.0677c-.0477-.0256.1009-.0251.1016-.0538s-.03-.0845-.014-.1155.1508.0283.1631-.0237-.0659-.0715-.1082-.0437-.1305.03-.1344-.0032.1508-.0815.1823-.112-.0975-.12-.1179-.1007-.1163.17-.1333.14a.1274.1274,0,0,0-.0879-.0468c-.0154.0009.2155-.094.1685-.1513s-.3284-.1189-.3714-.0514-.111.1816-.1591.1S31.3374,17.5909,31.3141,17.5055Zm-4.3864-.3078a.1225.1225,0,0,0-.0839.0611c-.0086.0246.1326-.0665.0959-.0095s.0408.0848.1253.0451a1.2433,1.2433,0,0,1,.2649-.0971c.0463-.0033-.0524.0649-.0579.0559-.0031-.0049.0289.0153.0166.013s-.0894.0449-.082.06.0934-.0108.0986.0083-.0615-.0023-.06.0319.06.05.1021.0464.0212-.045.0712-.0488.1974-.0317.2177-.0717-.064-.0216-.0526-.0438a.3088.3088,0,0,0,.0293-.0849c.0015-.02.0387.0344.0449.0112s-.0225-.0724-.0289-.1069.019-.0887.01-.1222-.0254-.0848-.0658-.0939-.062-.0433-.1208-.0059-.1643.0321-.25.0747.0736.0636.0857.08-.05.0148-.0526.0193.1049.12.0748.0894-.3036-.1541-.3017-.0508.0931-.0445.0695.0113-.017.0585.0163.0793S26.9575,17.1956,26.9277,17.1977Zm.0813,1.901c.0078-.0482.0763-.1091.1271-.0586s-.0057-.1013.0414-.0322.1041-.0991.0453-.125-.2208-.0083-.2873-.0585-.16-.0157-.1933-.086.0238-.085-.0066-.1767a.8116.8116,0,0,0-.2173-.357c-.0857-.0423-.1028-.0717-.1444-.0237s-.1256-.0368-.1361-.0184a.2711.2711,0,0,0-.0175.1014c0,.0351.0327.06.0421.107s.094.1774.0871.2209-.0789.0843-.1009.0205-.0577-.1333-.0872-.2143-.235-.07-.2666-.0371.1233.089.11.1078-.1146-.0337-.132.0135-.0732.0924-.1063.0825.0683-.0644.0351-.0873a.44.44,0,0,0-.2326-.0656c-.0471.02-.0476.1014-.0795.1106s-.1158.0481-.11.03.1232-.1584.02-.1838-.0931.0079-.1871.0564a2.004,2.004,0,0,0-.3722.2961c-.0488.0609.0712,0,.04.0361s-.1342.1629-.1074.2055.1049-.03.1279-.015-.0354.046-.0046.0551.2492-.081.2583-.0567-.2608.1465-.2557.19.074.0807.15.0639.1973-.0466.3009-.0668a1.4588,1.4588,0,0,1,.4087-.0129c.1009.0182-.0465.058-.0962.079s-.1548-.018-.2339.0224-.34.0272-.3648.1824.3895.1053.4616.1161.0106.2052.1515.15.2941-.08.4035-.119.1491-.1094.22-.1412a.2828.2828,0,0,0,.1273-.0857c.0339-.0407.0552-.0956.09-.0887s-.0313.0521.0009.0608.151.0016.184.0073-.0619.0371-.016.0364a1.8375,1.8375,0,0,0,.3048-.0064c.0562-.0178.1405-.0548.1358-.1028a.4381.4381,0,0,0-.0339-.1022c-.013-.0452-.152.0974-.151.0967a.5558.5558,0,0,0-.0287-.13c-.0126-.0127.0411.0025.0474-.0069S27.0011,19.1468,27.009,19.0987Zm.4335.0649c-.0044.03.0431.0343.0518.04s.0231-.05.0308-.0341a.0794.0794,0,0,0,.0581.041c.0244,0-.0087-.0593.0185-.027a.2884.2884,0,0,0,.2257.043c.0634-.0251.1974-.1012.1878-.1627s-.1908-.1143-.247-.1534-.0945-.0591-.1456-.0161a.12.12,0,0,0-.0388.1421c.0207.0311-.02-.0049-.0265.0257S27.4468,19.1337,27.4425,19.1636Zm12.98-.6274c.0111.0094-.0271.014-.0214.0192.0029.0028.0062.0318.0161.0215a.6948.6948,0,0,1,.08-.0772c.0159-.0079-.0248-.018-.0136-.0246s.0736-.1034.02-.0812S40.3617,18.485,40.4221,18.5362ZM30.1153,19.9269c.0128-.0686-.1977.0188-.1851-.0336s-.1248-.201-.2144-.2125-.0839.0224-.1383-.0224a.0676.0676,0,0,0-.1091.02c-.0173.0252-.0537-.0291-.0247-.0486s.0778-.1778-.0254-.1176-.0867.18-.1067.2512a.7143.7143,0,0,0-.0219.1438c-.0068.0494.0242.0643.0141.1093s-.13.1562-.12.176.1533-.0936.1855-.0774.0286.1781.0756.1482.09-.1548.14-.1754.1155-.1955.1411-.1555.2007.1616.275.1118S30.1025,19.9955,30.1153,19.9269ZM28.41,17.1925c.0482.0822.1287-.0672.1634-.0541s.04.0638.1067.0544a.1433.1433,0,0,0,.1215-.0826c.0143-.0375.0289.04.0429.0268s-.0133-.0839.019-.0846.0165.1141.08.1024.1962-.0479.2439-.0488-.0333-.0942.0123-.0511.1507-.0315.1783-.0431.1723.0078.2075-.0485-.0489-.0747-.0055-.1058.05.0836.0984.0923a.2559.2559,0,0,0,.1539-.0054c.05-.023.1792-.0312.195-.0985s.0922-.0935.1111-.13-.0925.0008-.1051-.0266.1289-.0426.0738-.1077a.5063.5063,0,0,0-.4393-.0348c-.093.0664-.15.031-.2177.0762s-.17.0966-.2137.1192.0692.0228.0269.0282a1.4236,1.4236,0,0,0-.253.0115c-.05.0209-.0517.0656-.0963.0586a.66.66,0,0,1-.1191-.0431.616.616,0,0,1-.18-.065c-.0145-.0111.1571-.0715.1439-.0924s-.0846-.0009-.128-.01-.0256-.0381-.0858-.0593-.1627.0576-.2384.0655-.1227-.0553-.2087-.0465a.6547.6547,0,0,0-.2731.0408c-.0972.05-.09.1217.0029.1853s.1609.0294.2463-.0055.13-.0755.2054-.0218.1261.0944.093.1872A.2122.2122,0,0,0,28.41,17.1925Zm2.4657,1.3813c-.0421.0748.1715.0591.1709.0049S30.9175,18.4989,30.8754,18.5738ZM28.7411,14.799c.0224.0248-.2017.1606-.1581.21s.2649-.0556.3429-.08.3231-.1683.3366-.165a1.283,1.283,0,0,1-.28.1744c-.057.0147-.2819.0948-.2658.1273a.3459.3459,0,0,0,.3111-.0472.9252.9252,0,0,1,.3148-.1928c.0244.0007-.29.1955-.2577.2305s.2061-.0308.2742-.0337a.0892.0892,0,0,0,.0961-.0917c.0062-.0531.0915-.0715.1092-.08s-.0479.06-.0273.0536.1514-.096.1675-.094-.1374.1406-.1114.1388a2.05,2.05,0,0,0,.2167-.0973c.0585-.0262.1485-.0321.201-.0973a1.94,1.94,0,0,1,.3293-.2884c.0328-.0048-.1344.1582-.1515.1926s.1672-.0233.0838.04-.5685.2536-.6792.3369c-.0491.037.2588.1449.2153.1587s-.24-.15-.3429-.1079-.2484-.0009-.35.0968.116.1851.2018.1894.2993.1976.2331.2181-.4263.0167-.5175.1937.003.1263.1136.1462.1911-.2149.2027-.1855-.1387.248.005.3156.29-.2455.3021-.2181-.2264.322-.3412.2924-.0959-.1043-.1758-.1014-.1947.0094-.2264.0805.1409.0683.1483.0915-.1583.116-.1981.1463-.1191.0454-.1291.0971-.0117.0176.0035.0965.1058-.1008.1216-.0561.1315.0457.164.0137.0762.0346.1382-.0069.1243-.0177.1854-.0368.0728-.1062.1437-.084.0792-.0644.1107-.051.1325.0256.1664-.0288.0682-.0219.1253-.0346.0052.1287.0279.1276a2.4144,2.4144,0,0,0,.2255-.1261c.0365-.0193.0423-.0719.06-.0792.0339-.014.036.0237.0655.0071s.08-.03.0816-.0657.0052-.089-.0283-.1111a.0747.0747,0,0,0-.0972.0026c-.0313.0256-.0614.0774-.0846.0119s.0867-.1591.1373-.22-.0509-.0968-.0114-.1382.1314.0091.19-.0232a.4329.4329,0,0,0,.1686-.1792c.0117-.0518-.1411-.01-.1207-.0533s.1906-.0233.2236-.1014-.26-.0412-.252-.0562.2162-.0032.2565-.077-.3244-.0065-.2893-.0058a3.7158,3.7158,0,0,0,.47-.1858c.0578-.0329-.052-.0695-.0089-.0838s.1437.0158.1964-.0289a.9024.9024,0,0,0,.173-.19c.014-.0383-.1914.0531-.1586.0246s.2007-.0939.2824-.1376a2.7246,2.7246,0,0,0,.2595-.2311c.0787-.061.4649-.31.4-.36s-.6342.3179-.6889.3067c-.0341-.007.3844-.2069.4048-.238s-.2817.0465-.2249.0119.45-.1465.5632-.1992.424-.2694.408-.3365-.3816.0014-.4913-.0083-.3784.1543-.4316.1623.2618-.1786.2-.1871a2.2236,2.2236,0,0,0-.4656.0566,3.3017,3.3017,0,0,0-.4445.1883c-.0725.0376.0891.0964.0388.1007s-.1691-.1047-.2516-.0772-.3109.0551-.35.0835.2211.11.1929.1231a1.648,1.648,0,0,1-.2506-.0382.5251.5251,0,0,0-.2359.0149c-.0522.03-.0376.0638-.0877.0842s-.1185.03-.17.0536-.1708.1317-.1578.1777.4178.1062.3968.1293a3.4444,3.4444,0,0,1-.452.0005c-.0848.0037-.1615-.0649-.2232-.0847a.2627.2627,0,0,0-.1789.028c-.0341.0191.0565.0674.0266.0856a1.0458,1.0458,0,0,1-.172.0537c-.0333.0084.1818.0355.0971.0291a1.334,1.334,0,0,0-.4427.2012c-.073.0536-.3359.0758-.3408.1588s.1681.0419.2117.061S28.7186,14.7741,28.7411,14.799Zm-1.6066,1.74c.0007-.0229-.11-.0294-.161.004s-.0166.08.0262.06S27.1338,16.5622,27.1345,16.5393Zm3.059,3.9591c.0475-.0091.1333-.219.0461-.223s-.097.078-.1077.1219S30.146,20.5075,30.1935,20.4984Zm9.8741-.4944c.0225.017-.0872.0139-.0183.0541s.3307-.166.3919-.2213.0708.0083.0941-.0539.0152-.0987.0419-.16-.0523-.1354-.0472-.1782.1362-.1524.0984-.1938a.7925.7925,0,0,1-.09-.1051c-.0295-.0445-.0991.0472-.1252.0385s.0578-.0153.003-.0421-.2156.1271-.2168.1834.0865-.005.0819.0273a.1235.1235,0,0,1-.0992.0763c-.0389.0017-.0692-.02-.1081.0095s-.0355.0615-.0169.1051-.0552.0719-.0481.0993.1412.0064.1445.022-.1147.1487-.11.1608.1454-.066.1468-.0469-.1146.0333-.1238.0729-.0734.07-.0836.0832.0581-.001.058.01-.0669.04-.06.0516S40.0451,19.987,40.0676,20.004Zm-10.439.4081c.0221.032-.029.0683.0455.0678s.2557-.2016.2369-.264-.0434.0081-.0847.0021-.132.069-.1631.1006S29.6065,20.38,29.6286,20.4121ZM28.2,17.1646c-.0283-.1009-.0995-.1531-.1889-.1241s-.273.1476-.2329.2345.1641.0756.2528.0782S28.2285,17.2655,28.2,17.1646ZM26.5812,16.3c.02.0042.1148-.1034.14-.0676s-.0421.016-.0231.0489.0742-.066.1015.0141-.1971.0253-.2039.1331.2011-.0276.2774-.0233a.8675.8675,0,0,0,.2051.0039c.0826-.0119.038.0277.12.0894s.2344-.0736.1667-.15-.0639-.0287-.0714-.0924.0208-.0172-.0225-.0789-.1187.0675-.1473-.0141-.1539-.0009-.2185.0024-.096-.1345-.2-.0916-.2035.0962-.21.16.0966-.0345.1056-.0133S26.5611,16.2959,26.5812,16.3Zm.05.5694c.0394.03.0595-.0457.0342-.0737a.611.611,0,0,0-.0812-.0636c-.0287-.0233-.1111-.0567-.1251-.0236a.1368.1368,0,0,0,.032.1127C26.5125,16.8512,26.5916,16.84,26.631,16.87Zm.78-1.178c-.0621-.1133-.2305.0178-.1608.0811S27.4729,15.805,27.4109,15.6916Zm.2735.5993c.031.0225-.1152.0409-.0987.0568a.2138.2138,0,0,0,.106.0583c.0363,0,.083-.0361.1212-.0537s.1315-.0469.1408-.09a.2563.2563,0,0,0,.0072-.1192c-.01-.03-.1039.013-.15-.0059a.8154.8154,0,0,0-.1281-.0555c-.075-.0232-.2229.0217-.1688.0938s-.0457-.0261-.0245.0387S27.6533,16.2684,27.6844,16.2909Zm-2.0583.5162c-.0874.019-.1887.1117-.1419.1743s.0953.0537.1538.0483a1.3169,1.3169,0,0,0,.22-.1059c.0547-.02.0291-.05.0392-.0842s-.0986-.0007-.0969-.0215.19-.07.1407-.1107S25.7136,16.7882,25.6261,16.8071Zm.27.4968c-.02.0413.1307.04.1317.066s-.0926.0455-.0844.065.1525-.0089.1478.0569-.0948.0716-.146.0713-.1552.072-.1812.0067-.0677-.0587-.11-.0514.0572-.0133.0207-.03-.1137-.1091-.187-.0777-.1137-.018-.1771-.0292a.1863.1863,0,0,0-.1717.0781c-.02.044.1652.0345.1376.03s-.23.0093-.2458.07-.0158.0148.0038.0649.2344-.0485.225-.0409-.2986.0516-.2881.1376.2717-.08.2593-.062-.3179.1347-.3086.1891.155-.0087.1778-.0116-.0154.0436.0013.0368.08.0453.0946-.0021.018-.0261.0782-.0059.0743-.1522.1212-.1709.0128.0737.0357.11.1431-.09.1606-.064.1822-.064.1819-.0381-.4025.2-.382.2488.3-.0008.3806-.0779a2.317,2.317,0,0,1,.2924-.18c.0688-.05.1011.0137.1517-.0078s.03-.0547.0808-.0726a1.4968,1.4968,0,0,0,.148-.0364c.0608-.0256.0873-.0933.0987-.1765s-.0035-.1513-.1058-.131-.0437.1249-.07.1327-.053-.0689-.1062-.0672-.0491-.0561-.0865-.0979-.0773-.19-.1434-.1222A.8047.8047,0,0,0,25.8964,17.3039Zm1.8048-1.6791c-.0242.0993.2442.0767.2741.0521s-.09.0788-.1228.0781-.0313.0665.0126.0554.0506.052.085.0162.063-.0682.0961-.0611-.0278.0225.0065.037.0626-.0476.1016-.0566.0293-.0017.0518-.0341a.4137.4137,0,0,1,.2421-.0352c.0114.019-.1731.05-.1653.0758s.2838-.0664.2536-.0519a2.703,2.703,0,0,0-.4752.2117c-.0329.0522.1369.0118.1419.0323s-.0927-.005-.0758.0381.2375-.0122.259-.0033-.1722.02-.1452.071.293.0494.345.0024-.0647-.0307-.0406-.0535.1416.0272.16.0285-.1-.1365-.0747-.1377.1193.111.1718.11-.0236-.1631.011-.1493c.1236.0491.0623-.1465.1066-.1819s-.0087.1238.049.1126.0616-.1166.0865-.1415.2455-.1044.2583-.1612-.0947-.0651-.1076-.097-.0337.1266-.0321.0491-.208.0567-.18.02-.0081-.1445-.05-.18-.0674-.1417-.1437-.0673.0742.0562.0368.0912-.0946.0081-.12-.0239.0214-.1069-.051-.0772a.1657.1657,0,0,1-.201-.0249.5559.5559,0,0,0-.2493-.1471c-.0878-.0154-.2067.0152-.2235.0638s.1824-.0469.1623.0076-.2856.11-.298.1733.1682-.0111.145.02-.2328.0866-.2061.1449-.107.0457-.0891.0738.1276-.0084.15-.0008-.04.0178-.0161.0237.1439-.0544.16-.04-.0448.0314-.0452.045.0429.0176.0333.0319-.0329-.0281-.0679.0028S27.7254,15.5255,27.7012,15.6248Zm-.994,1.5576c.0151.0572.2633-.0332.2224-.0874S26.6921,17.1251,26.7072,17.1824Zm-1.8089.4157c-.0375-.0163-.2361.137-.212.1946s.1168-.0007.1393-.03S24.9358,17.6144,24.8983,17.5981ZM40.516,18.7238c-.0064-.003-.0171.01-.0175.0137-.0006.0067.0065.02.016.0151S40.5228,18.727,40.516,18.7238Zm-14.13-.6341c.0107.0509.0921.0244.1233.0677s.0837.071.1287.039a.1906.1906,0,0,0,.0711-.1578c-.0056-.0547-.04-.0791-.1008-.0839S26.375,18.0388,26.3858,18.09Zm.4188-.6177c.0112-.0618-.0845-.102-.1486-.01S26.7933,17.5338,26.8046,17.472Zm-.144-.4307a.1012.1012,0,0,0,.042.0746c.023.017.173-.0354.173-.0659s-.0619-.0268-.0864-.0438S26.6634,17.019,26.6606,17.0413ZM28.14,16.416c.0249-.03.0928-.0893.051-.1063s-.3721.03-.3862.1266S28.1149,16.4463,28.14,16.416Zm1.9181.9451c.0379.0312.046.0291.102.0376a.4849.4849,0,0,0,.2385-.1116c.0469-.0408.2065-.0144.2064-.0606s-.2074-.14-.2705-.1517-.0923.0265-.15.0276-.096-.0321-.1635-.0163-.0936.1569-.0189.1805S30.02,17.33,30.0578,17.3611Zm-1.5624-1.078c-.0444.0718.0392.0805.0789.0818s.1226.0056.13-.0642S28.54,16.2112,28.4954,16.2831Zm.1009.2284c-.0446.0511.083.091.1076.0657s-.0355-.0149-.011-.0527S28.641,16.46,28.5963,16.5115ZM61.6118,19.22a.7677.7677,0,0,0,.4.0746c.0694-.0087.0408-.0627.041-.0926s-.0645-.03-.0979-.06-.15-.0348-.1844-.0481.0262-.0178-.0026-.058-.168-.0013-.192-.0484-.1577-.12-.1569-.0007S61.5364,19.1533,61.6118,19.22ZM48.0327,15.5753a.9381.9381,0,0,0,.3.2615c.0893.0422.3976.217.4059.1342s-.2638-.31-.22-.4786a.548.548,0,0,1,.3029-.3146c.1117-.065.1159-.0944.2051-.1475s.1428-.0349.2556-.0618a1.331,1.331,0,0,1,.3869-.0859c.1446.0065.3879.0251.53.0289s.4255.0821.4693-.0764-.247-.2177-.3831-.1835a1.2107,1.2107,0,0,1-.4907.0049,1.7752,1.7752,0,0,0-.42-.0727,1.3233,1.3233,0,0,0-.4084.02,2.4307,2.4307,0,0,0-.3441.1624c-.0959.0537-.1559.0951-.234.141s-.0171.1009-.0364.16-.1212.0476-.1815.0718-.0307.0771-.0663.1312-.1239-.0092-.1391.08A.2766.2766,0,0,0,48.0327,15.5753Zm.7141-2.6409c-.0192-.0442-.25-.0728-.2731-.0338s.149.0765.1663.0789S48.7659,12.9786,48.7468,12.9344Zm.6752-.1407c.0205-.013-.09-.0955-.076-.1134s.2228.0349.21.0094a.3749.3749,0,0,0-.2638-.0574c-.0616.0318-.2564.0526-.2669.0756s.1688.0838.2076.0938A.5033.5033,0,0,0,49.422,12.7937Zm-.5008,3.3772c-.0008.0367.1637.2642.24.222s-.1342-.2382-.1606-.2451S48.9219,16.1342,48.9212,16.1709Zm.6229-2.8586c.0071-.0291-.1175-.0652-.1328-.0516s.0394.0654.0515.0664S49.537,13.3413,49.5441,13.3123Zm-.2432-.3855c.0054-.0409-.1944-.1156-.2553-.1459s-.2718-.0491-.2788.0007.1932.1167.2437.1461S49.2955,12.9678,49.3009,12.9268Zm-1.4184-.3521c.0139.019-.2173.0271-.198.06a.8242.8242,0,0,0,.3.1376c.0493-.0025-.04-.0836.0113-.0976s.3647.0575.3881.0285-.1117-.1131-.1806-.1175a.5355.5355,0,0,1-.2609-.0473,1.1933,1.1933,0,0,0-.4635-.0825c-.0475.0175.1247.0744.1552.0943S47.8686,12.5558,47.8825,12.5747Zm-.4134,3.5161a.1669.1669,0,0,0,.2159-.03c.0036-.0358-.0815-.1229-.166-.135S47.41,16.0271,47.4691,16.0908ZM43.926,15.0191c.0164.0034.2482-.1.2419-.1409s-.0689.049-.0865.0648-.1361-.0045-.1306.0122S43.91,15.0157,43.926,15.0191ZM25.6391,16.6854c.0521.0222.056-.0357.1124-.0452s.2756.009.2412-.0949-.1879-.0275-.2584-.0047a.7693.7693,0,0,0-.2707.1748c-.0188.0434.0082.0193.0293.0219S25.5871,16.6632,25.6391,16.6854Zm23.7284-3.5977c-.04-.0223-.3809-.1321-.377-.0175s.3051.1326.3539.1329-.03-.0463-.0094-.0517.1268.0326.1265.0207A.2728.2728,0,0,0,49.3675,13.0877Zm10.89,5.6377c.0354.0656.0708.0812.1407.1315s.1043-.0749.1486-.0441a.4427.4427,0,0,0,.2769.0515c.0774-.0251.04.1052.09.1055s.1274.0216.155.015-.0453-.1013-.0261-.0957.1044.0816.1386.0536.1593-.0086.1264-.069a3.32,3.32,0,0,0-.3634-.2785c-.0677-.06-.0625-.0695-.1417-.0895s-.02.1467-.0589.1265-.2441-.3-.3495-.2582-.1685.0683-.2046.1533S60.2219,18.66,60.2573,18.7254Zm-19.7258.3317c.0178.005.0331-.0668.017-.0758s-.0527.036-.0416.0378S40.5137,19.052,40.5315,19.0571Zm20.1868.2834c.0424.0653.1968.1556.2435.1239s-.0375-.1362-.0784-.1825-.1159-.0666-.1514-.1442c-.0157-.0345-.0327-.1625-.1368-.1214s.0126.1379.0246.1745-.1847.0441-.1577.0644S60.676,19.2751,60.7183,19.3405ZM50.3418,13.2937c.0723.02.0958-.0732.075-.1132s-.0984-.0422-.1348-.0431-.0328.0741-.0768.07-.1817-.0774-.1976-.0339.0048.0547.05.0792S50.27,13.2738,50.3418,13.2937Zm-.8058-.1417c.04.0174.07.01.1132.0685a.2193.2193,0,0,0,.2656-.0019c.07-.06-.0459-.1732-.1174-.1816a.8359.8359,0,0,0-.3039.0018C49.45,13.0671,49.4961,13.1346,49.536,13.152Zm5.574,2.7888c.0156.0811.2761.0713.3515.0609s.06.0716.126.0784.1818.0343.2444.04a.1958.1958,0,0,0,.1474-.0239c.0419-.0307-.0052-.12-.0538-.1468a.3843.3843,0,0,1-.1288-.154c-.0267-.0554-.13-.0351-.1565-.0578s.097-.0035.0576-.0444-.19-.1013-.2676-.0382a1.3171,1.3171,0,0,0-.2414.2181C55.15,15.9375,55.0944,15.86,55.11,15.9408Zm-.9939-.9153c.0609.03.2381.0241.2861.1217s.0838.2364.1983.2708a1.0152,1.0152,0,0,1,.3227.1478.3668.3668,0,0,0,.2781.0794c.0543-.0234-.04-.1165-.0016-.1627s.0829-.07.0376-.14-.2231-.0533-.2664-.0629.1375-.0435.1039-.0768-.144-.0286-.1724-.1342.0841-.0851.1009-.1245-.1772-.26-.255-.2939-.0488.0338-.1159.0347-.15-.0074-.2258-.0124-.0863.0462-.1214.097-.1307-.0114-.1717-.0014a.1821.1821,0,0,0-.1031.1258A.1751.1751,0,0,0,54.1161,15.0255ZM65.675,21.2911c.0414.0047.0489.0223.1038.0283s.26.0021.2786-.0533-.0626-.1067-.1143-.1273a1.9031,1.9031,0,0,0-.2308-.0576.3493.3493,0,0,0-.1987.0434c-.0376.0242-.02.1546.002.1749S65.6337,21.2864,65.675,21.2911ZM43.24,15.24c-.021-.0026-.0886.0675-.0673.0861s.0552-.05.0615-.0556S43.2606,15.2426,43.24,15.24Zm-.2757.3107c.0121.0107.0653-.0164.0575-.0433s-.0556-.01-.0593.0059S42.9518,15.54,42.9639,15.5508Zm.1528-.2367c-.03-.0007-.0673.0822-.0652.09a.0905.0905,0,0,0,.0774.0122C43.162,15.407,43.1465,15.3147,43.1167,15.3141Zm-2.1773,2.8891c.0161.0024.0621-.0164.0626-.0277s-.0486.0047-.0555.0011c-.0048-.0025.0267-.0107.0178-.0181-.031-.0259-.0566.0227-.0539.0426a.0363.0363,0,0,0,.02.0281C40.9367,18.2341,40.93,18.2019,40.9394,18.2032Zm3.1284-3.2758c.0358-.0161.0648-.0733.0573-.08s-.0494.0381-.076.0265-.0847-.0407-.0973-.0052S44.032,14.9435,44.0678,14.9274Zm-3.5016,4.0669c.0124.0049.0457-.0548.0283-.066S40.5537,18.9894,40.5662,18.9943Zm2.5617-3.55c-.0162-.0115-.0988.0409-.0818.0646S43.144,15.4563,43.1279,15.4447Zm-2.4643,3.5609c-.0182.01.0081.0606.0225.0537S40.6818,18.9956,40.6636,19.0056Zm-.0516-.3773c.0091.0011-.0206.01-.0177.0157.002.004.0312-.0077.0273.0079s-.0508.0777-.0411.1068-.0936.0566-.0537.0748.0008.0214.0084.0549.0753-.0466.049-.058.1045-.04.091-.08c-.0042-.0125.024.0089.0131.017a.3.3,0,0,0-.0726.1743c-.0056.0477.0032.0692-.0041.1031s-.0358.0421-.0056.0686.05-.0763.0328-.1.0567-.1623.0454-.1248.0094.0532.0419.0053.0262.0385.0186.037-.0311.03-.0157.0632a.1024.1024,0,0,1,.0013.1029c-.0212.0426-.0476.11-.01.13s-.0209-.0551.0074-.0376a.0639.0639,0,0,0,.0715-.01c.0019-.0072.1976-.0887.1672-.063s-.0466.2014.0214.1818-.0075.15.037.17c.0113.0053-.0125.0119-.0156.01a.2507.2507,0,0,0-.037-.0176c-.0087-.0018.0212.0359.0029.03a.4234.4234,0,0,0-.12.0258c-.0076.0035-.0853-.0476-.0684-.0114a.1409.1409,0,0,1-.02.1241c-.021.0231.0787-.0538.0813-.0251a.2815.2815,0,0,1-.01.143c-.0229.0432-.1269.0726-.1423.0977s-.003.031.0041.04c.0305.0408.1031-.0265.1492-.0212.013.0016-.0311.0219-.0157.022.02,0,.0683.0255.0969.0188a1.1936,1.1936,0,0,0,.1227-.0671c-.0063.0026-.0234.1092-.067.1155s-.1876.0143-.189.1044-.1583.1746-.1392.2055.18-.0508.2367-.0838a.6661.6661,0,0,1,.1888-.1024c.0772-.0176.0764-.092.1418-.098s.0362.0618.1138.0286a.9.9,0,0,0,.2433-.11c.1023-.073-.09-.0541-.08-.1038s.1479-.1532.1543-.2906-.1984.0041-.2-.0451a.2161.2161,0,0,0-.1129-.1516c-.0543-.0227.0987.046.0755-.0021s-.17-.1553-.2068-.2738-.193-.1447-.2671-.162.09-.0242.0722-.0711.1639-.2547.1048-.3238-.2476.0646-.309.0889c-.0147.0058-.0123.0028-.0156-.0092-.0055-.02.04-.0577.0428-.07s-.0587-.001-.0585-.0108.0356.0179.0435-.0157.1507-.1481.1274-.1914-.1537.0685-.1834.0632-.0139.0264-.0434.0045-.0433.0258-.0444.0595-.0333.0063-.0381.0224a.1372.1372,0,0,0-.0107.04c.0013.0129.0512.046.0454.0459s-.0814-.0088-.0881.0147.0266.0561.0233.0727-.0275-.0141-.0357.0057S40.5966,18.6263,40.612,18.6283Zm.1867.6468c-.0214-.0064-.0521.0646-.048.0805.002.0077.0161,0,.0253-.0033C40.7945,19.3458,40.82,19.2815,40.7987,19.2751Zm2.5331-3.8944c.021.0013.1142-.1411.1164-.1469s-.0584.0765-.0866.0774S43.3108,15.3793,43.3318,15.3807Zm.2319-.3087c-.0308.0035-.0734.0677-.0754.073a.1082.1082,0,0,0,.0792.007C43.5911,15.14,43.5946,15.0685,43.5637,15.072Zm-.1722.0884c-.0419.0224-.06.0177-.0547.09s.1421-.0229.1435-.0663S43.4335,15.1379,43.3915,15.16Zm.2773-.12c-.0138-.0314-.0964-.0138-.0926.0165s.0262.0205.0411.0278S43.6826,15.0715,43.6688,15.04Zm-.4.29c-.0286.0239-.02.0818-.0438.0832s.0251-.0824-.0036-.09-.0436.0571-.0341.0777-.0345-.0078-.0275.01-.0261.0485-.0153.0617.078.02.09-.0226.052-.0307.0755-.0442S43.2969,15.3057,43.2683,15.33Zm-.0873.2163c-.0037-.0012-.0392.0787-.063.0755s.025.0253.0282.0287-.0349.05-.0133.0428S43.1846,15.5473,43.181,15.546Zm.0462-.0439c-.0015.0142-.0381-.0074-.0413.0008s.0043.0694.0142.0608.0991-.1066.09-.125S43.2287,15.488,43.2272,15.5021Zm.5269-.4381c-.0132-.03-.1632.0464-.1617.0708s.0557-.01.0689-.018S43.7673,15.0943,43.7541,15.064Zm.0583-.0668c-.012-.0211-.05-.01-.0526-.0024s-.004.0191.0152.0431S43.8244,15.0183,43.8124,14.9972Zm6.9213.8573c-.0655-.0164-.112.0694-.0886.1028s.2072.07.2276.0421S50.7991,15.871,50.7337,15.8545Zm7.1949,12.1524c-.0569.02-.0234.0969-.0037.1251s.0339-.0953.0757-.0679.0405.1123-.0026.1636-.0786.2762.0281.2319.1536-.2026.1915-.2715-.0277-.1048-.0258-.1476-.1046-.0655-.0758-.0871.146-.014.1669-.04.0575.0666.0995.0224.0823.0129.1107-.0274.209.01.1819.0473-.0333.2284.0218.2373.1272-.1428.1589-.1139-.0459-.1886.022-.1183a.1852.1852,0,0,0,.2421.0328c.0605-.0538.0079.0954.04.0736s.0946-.1145.1205-.1206-.0443.0869-.0209.0845a.3694.3694,0,0,0,.1326-.0924c.0358-.0574.01-.1243.0286-.1879s.066-.0981.0637-.1746.0314-.1179.0745-.12-.0055-.1071.055-.13.0517-.1077.0549-.167a.4137.4137,0,0,0-.0454-.1788c-.0267-.0646.0506-.0593.0147-.1444s-.0916.1053-.0968.0569-.1427.0128-.1584.1123.0379.0577.02.13-.0588.1328-.0865.21a.3744.3744,0,0,1-.184.2011.2252.2252,0,0,1-.1526.0231c-.0657-.0133.0493-.0929.0242-.101a.0882.0882,0,0,0-.0992.0762c-.0032.0609-.0714.0832-.1037.12s.0052.085-.0549.0986-.0268-.0421-.0889-.0544-.2446-.103-.296-.0028-.2032.0739-.24.1256A.6227.6227,0,0,1,57.9286,28.0069ZM57.06,32.8512a.32.32,0,0,0-.1332.0679.1487.1487,0,0,0-.0272.1239.4037.4037,0,0,1-.019.1423c-.0132.0292.0674.1323.0669.105s.04-.1533.0871-.1211-.1129-.11-.0318-.1024.043-.0737.0248-.0962.0394-.0307.0354-.0454S57.084,32.8518,57.06,32.8512Zm2.1042,4.1643c-.0351-.0879.0077-.1661-.0464-.2029s-.0785.069-.0974.0063A.9569.9569,0,0,1,59,36.646a.3147.3147,0,0,0-.0727-.2145c-.0637-.0568-.216-.1054-.2256-.1981s.0639-.1749.0085-.276a.4229.4229,0,0,1-.0358-.2956c.0148-.1213-.0962-.0834-.1466-.1365s.0033-.4759-.0822-.5214-.14.1624-.1714.2438a1.002,1.002,0,0,0-.0555.3031c-.0056.1155-.1545.4353-.2833.3844s-.0631-.1163-.1527-.1835a2.8105,2.8105,0,0,1-.271-.2406c-.0828-.082-.0164-.1221.0074-.2065s.1579-.1185.1607-.1873-.1425-.1284-.2117-.1614a1.4206,1.4206,0,0,0-.279-.1112c-.0589-.0061.025.1365-.0342.1195s-.1815-.1157-.272-.0564-.11.2316-.18.253-.16-.1919-.25-.2123-.1033.0378-.22.0971a1.6251,1.6251,0,0,0-.5053.366c-.0737.1277-.0684.1914-.1916.2089a4.03,4.03,0,0,1-.4049-.0024.73.73,0,0,0-.2485.0659c-.0922.03-.16.13-.2048.1743s.0213-.1653-.0381-.1051a.7307.7307,0,0,0-.1312.4442c.0274.12-.0159.1373-.0473.2313s-.0133.1056.0135.2253a2.6771,2.6771,0,0,1,.0436.54c-.01.1263.0222.2538-.0246.33s-.1579.0663-.1149.1521a.3623.3623,0,0,0,.1708.19c.0781.0323.15.0662.2275.0246a.383.383,0,0,1,.2359-.0721c.0861.0128.1653.0253.2351.0366a1.087,1.087,0,0,0,.1773.0373c.0563-.0019.0384-.054.084-.0933a.4467.4467,0,0,1,.2266-.0671c.0766-.0045.1371.0487.2184.0369s.1063-.0912.2205-.0546a4.8224,4.8224,0,0,1,.4892.2079c.1153.0582.1119.1265.1572.2056s.027.19.1017.2195.2471-.2936.3125-.2526-.1671.2539-.16.3176.1716-.1017.17-.1038-.0611.205.0161.24.0853.0989.0888.2239a.42.42,0,0,0,.2951.323c.1359.027.1237.0526.2344-.0074s.1054.0067.166.0775.1079.0442.1959.0017a.3569.3569,0,0,1,.2514-.0638c.1572.0053.24-.248.2916-.403s.2279-.2142.3012-.3676a2.7386,2.7386,0,0,0,.2442-.5259,1.7072,1.7072,0,0,0,.0206-.53C59.3276,37.147,59.1991,37.1035,59.1641,37.0155Zm-2.5648-3.4987c-.0483.0733.109.1276.1427.0935S56.6475,33.4434,56.5993,33.5168Zm.425,1.2578c-.0565-.009-.1473-.0355-.14.0155s.0955.056.1348.052S57.0808,34.7834,57.0243,34.7746Zm2.9013-.4233c.0171.0029.0465-.0968.0249-.12s-.0262,0-.0407-.0189-.0022-.0384-.0267-.0581-.1471-.1651-.1647-.1409.1977.2066.1882.2673S59.9084,34.3483,59.9256,34.3513Zm-1.6613,5.2106c-.093-.0556-.1437.0532-.2117.0241s-.14-.1374-.1853-.1065-.0559.2228-.0257.3145.0539.1719.1977.2S58.3573,39.6175,58.2643,39.5619Zm1.1963-5.1695c-.0178-.0032-.1357-.0594-.1382-.01s.1536.1437.2321.1359a.4135.4135,0,0,0,.176-.0685c.0632-.0333.0573-.0214.08-.0721s.0821-.073.008-.1384-.0659.0909-.0739.0986c-.0668.065-.2056.0723-.19.0213S59.4784,34.3956,59.4606,34.3924ZM59.0053,34.3c-.0587-.0511.0054-.1171-.0525-.1646s-.081-.0756-.1512-.1288a1.8387,1.8387,0,0,0-.2627-.1406c-.1-.051-.29-.1557-.39-.2061s-.19.0188-.247.0559-.0862.1331-.1441.1213-.0815-.0468-.0986-.1076a.86.86,0,0,1-.0165-.2088c-.001-.0734-.0209-.0628-.0939-.0985s-.2611-.0321-.2859.0269.0822.0288.0972.0641-.0138.0459.0134.091.1762.059.2055.0636.0051.0538-.014.0519-.1983-.0715-.2144-.0406.05.1817.0681.2107.1035-.1059.1177-.071.0032.1024.08.1339.2012.12.2665.1537.1334.0462.1491.1047.0705.2043.0446.2379-.1875.0657-.1456.1306.1911-.01.2583.0186.0421.1224.1142.15a.4326.4326,0,0,0,.2595.0136c.0686-.026.0722-.1548.1447-.1457a.3527.3527,0,0,1,.2313.0759c.0554.0644.125.1874.1719.2564s.1452.08.1928.102.1585.0957.1579.083-.0542-.131-.0612-.1524-.057-.0494-.0726-.09-.127-.098-.1211-.1728-.0611-.0485-.0748-.0886-.0369-.0715-.02-.112.0823.0629.11-.0163S59.064,34.3513,59.0053,34.3Zm.9674-9.4148c-.0389.0819-.0205.1925-.0761.2723a.3519.3519,0,0,0-.02.2476.1945.1945,0,0,1-.04.1454c-.0289.0493-.0016.083-.01.1326s-.0286.2385-.0065.247.0159-.1464.1025-.1442.0579.1635.087.1567.0177-.1979-.0263-.2672a.2687.2687,0,0,1-.0244-.2279.2016.2016,0,0,1,.1615-.1729c.0827-.0062.0979.1907.119.1522s-.0648-.2936-.0562-.3731a2.05,2.05,0,0,0-.0153-.2056c.0024-.0683-.0553-.0634-.0416-.1471a3.3314,3.3314,0,0,0,.0668-.3291c.0045-.0957-.0266-.25-.0722-.206s.05.1482-.0154.18-.027-.03-.0746-.0006-.0328.0326-.0281.0981-.0547.1585-.0634.2349S60.0116,24.8035,59.9727,24.8854Zm-3.2772,6.8759c.0569.0283.0845-.058.0367-.0679S56.6386,31.733,56.6955,31.7613Zm-.0883-.0267c.003.0129.0635-.0841.0971-.0913s.0336-.094.0416-.1127c.0033-.0075-.0136-.0011-.02.0042A.7018.7018,0,0,0,56.6072,31.7346Zm.241-.1727c-.0163-.0129-.07-.0355-.0725-.0474s-.0215.0893.0053.0846.0308.12.039.1328.0031-.0513.01-.05.0026.0576.0168.049A.3167.3167,0,0,0,56.8482,31.5619Zm-.1535-.1711c.0036.01.0372.0815.05.0814s.0244-.0561.0152-.066-.0757-.0846-.082-.0769-.0184.0782-.0337.08S56.6911,31.3806,56.6947,31.3908Zm.1085-.0081c-.0341.0164.0253.07.0467.1057s-.0234.0079.0135.08.078-.018.0723-.0929A.1117.1117,0,0,0,56.8032,31.3827Zm-.3227.0143c-.0514.0555.0389.2049.0793.1972s-.1194.1026-.0539.1339.0056.0649.0553.0678.0258-.0475.0375-.0853.0829-.1051.071-.1564-.0722-.1433-.1178-.1512S56.5318,31.3415,56.4805,31.397Zm-.635,1.5961c-.0444.0461-.0208.0861-.0619.13s-.0654.0874-.0363.1409.0816.0363.0615.1-.0758.137-.0659.1905a.0947.0947,0,0,0,.1225.0538c.0253-.02-.0069-.0568.0014-.0835s.0287-.023.0384-.0591a1.3513,1.3513,0,0,0,.0288-.1493c.0062-.0481-.0171-.1019.0511-.0807s-.0041.0821.0016.1232.072.0821.047.1267.0234.0939.0535.08.0788-.0246.107-.0394-.0424-.0827-.0535-.1106.0382-.0277.0336-.0573-.03-.067-.0269-.0983-.0877-.0833-.0527-.0967.2-.0421.248-.0577-.0336-.0619-.0788-.053-.0425-.0033-.0939.0047.02-.0555-.0763-.0082-.1748-.1638-.09-.2214.0785.0244.1493.0421.1247-.0111.1991.0713.2685-.0261.2663-.0979-.1249.0591-.1583.055a.3361.3361,0,0,1-.1018-.05c-.0318-.0178-.04.0107-.0792-.0192s-.135-.1261-.1972-.1065-.1411.0567-.1518.1224A.2569.2569,0,0,1,55.8455,32.9931Zm.5-1.9359c.0017.0138.0248.22.0784.2242s.0494-.1644.0053-.1894S56.344,31.0434,56.3457,31.0572Zm-1.2232,2.664c-.0283.0292.0185.1338.08.0845S55.1507,33.692,55.1225,33.7212Zm4.4306-7.3237c-.0232.0139-.0065.0917-.0459.1069s-.0653.0269-.0746.0747a.3844.3844,0,0,0,.0341.2068c.0269.03.0462-.0564.0764-.0378s.062.015.0452-.024-.1072-.0912-.0795-.1286.0726.0506.1022.0374.0875-.0394.1058-.0023.136.1672.1571.1554c.0464-.026.0313-.0938.0614-.1161s.0752-.0581.1067-.0378.2249-.009.1765-.0378.0023-.196-.0252-.2034-.1465.0489-.2141-.0614a2.4423,2.4423,0,0,1-.1652-.2955c-.0528-.116-.06.1387-.0537.182s-.06.0841-.065.1236-.0023.0976-.0305.1131S59.5762,26.3837,59.5531,26.3975ZM42.7341,18.69c-.0167.0356.0432.1245.0885.1062s.03-.0712.0014-.105S42.7507,18.6539,42.7341,18.69Zm3.0991,4.4057a.3553.3553,0,0,1-.1288.0451c-.0349-.0053-.0952-.0739-.1391.0073s.1831.1214.2051.0743S45.8168,23.101,45.8332,23.0953Zm-1.0239-.0086c.0375-.0333-.0786-.0865-.1236-.0628s-.1535-.0408-.1747-.05-.0563.055-.0232.073S44.7718,23.12,44.8093,23.0867Zm-1.9025-4.445c-.0188.0243-.0085.1272.0426.11s.0561.1131.0534.1007.0158-.13.0568-.1484-.0661.0018-.0156-.0578-.0314-.1423-.0465-.0471-.0344-.0571-.0256-.045-.0386-.0215-.0341.0037A.1229.1229,0,0,1,42.9068,18.6417Zm1.418-.6576c.0006-.0222-.1632-.0306-.1673-.01s.0388.1332.0289.1262S44.3242,18.0063,44.3248,17.9841Zm-1.7776,4.1285c.0092.0387-.0313.0682-.0336.1s.0328.01.0291.0479-.0561.0943-.0092.1351.0771.0222.0868-.036.0557-.019.0656-.0977.017-.1369.026-.25-.1318-.0551-.173-.0086-.0244-.0392-.0475.0043S42.538,22.0739,42.5472,22.1126Zm24.039,1.1842c-.0479-.0245-.1237-.0584-.1608-.0373s-.0329.0649.0027.1084.1719-.003.2034.0718.1666.0881.1656.0143S66.6342,23.3213,66.5862,23.2968Zm-22.8769-4.979c.024.0215.0991-.0661.0873-.0895s.0544-.0855.01-.13S43.6854,18.2964,43.7093,18.3178Zm.2226-.7481c.0313.0253-.0059-.0376,0-.0413s.0254.016.0188-.0011C43.9093,17.4194,43.9007,17.5444,43.9319,17.57Zm-1.39,4.1592c-.0347.0323.0339.1612.0793.1218a.4968.4968,0,0,0,.0338-.295c-.0163-.0321-.01.0531-.026.0748A.8066.8066,0,0,1,42.5419,21.7289Zm17.65,12.8358c-.0251-.0266-.0384-.099-.0621-.0941s-.0086.0719.005.0985-.0079.0429.0127.0825.1187.0642.1061.0036S60.2169,34.5913,60.1918,34.5647Zm-1.7418-6.44c.0329-.0175.0322.0876.0612.05s.0608-.0119.0741-.1-.148-.135-.2206-.0972a.1789.1789,0,0,0-.0705.2223C58.3284,28.2821,58.4171,28.1427,58.45,28.1252Zm-1.6177,5.4575c-.0635.0453.0314.0908.0684.0925s.0159-.04.0475-.0312.0309.0606.0825.046.1064.1131.1422.0852-.0767-.1888-.1544-.1956S56.8958,33.5375,56.8323,33.5827Zm4.6193,6.5632c-.0125-.0164.0173-.1231-.0209-.1332s-.0923.0333-.1133.0786-.0573.0475-.0937.0815-.0407.0942-.0771.1318a.6632.6632,0,0,1-.1345.0824.7623.7623,0,0,1-.1346.0711c-.0538.0214-.0838-.0109-.1464.0467a3.24,3.24,0,0,0-.2612.2435c-.07.0824.0968.0836.1482.1306s.1613.13.2338.06a.9352.9352,0,0,0,.2137-.2377.468.468,0,0,1,.2141-.1823c.0462-.0188.036.0842.0521.0435s-.0165-.0993.0446-.1434a1.0356,1.0356,0,0,0,.19-.1721c.0295-.044-.0047-.1263-.0111-.1484S61.464,40.1623,61.4516,40.1459Zm-.839.7961c-.0551-.0363-.0826.0811-.0609.0817S60.6677,40.9782,60.6126,40.942Zm1.5859-1.2905a.5065.5065,0,0,1-.2383-.0172c-.072-.0366-.0261-.1926-.06-.1822s-.07.096-.0962.0178.0217-.0551.0067-.1024-.0359-.031-.0354-.0851-.0026-.1068-.0544-.1288-.09-.1087-.1106-.0976.04.1348.04.1629.0361-.05.0321-.0031a.7442.7442,0,0,0,.0927.273c.0326.0373-.02.1364-.0277.1951s-.127.116-.1433.1492.0438.0621.0653.0929.062-.0022.09.0574-.1127.1312-.1082.1776.1294.0774.1774.0043a1.1231,1.1231,0,0,0,.1653-.2476c.0189-.0773.0653-.0505.11-.0367s0-.0254.0365-.0447S62.291,39.6516,62.1985,39.6515ZM41.7279,22.3678c-.0105.0393.0621.0686.072.0628s.0709-.0255.0651-.0826S41.7385,22.3285,41.7279,22.3678Zm24.7173.46c-.0333.0247-.01.1185-.09.1256s.0034.1369-.0355.15-.1433-.0713-.1831-.1106-.1505.001-.16-.0658.0183-.1594-.0641-.1876-.2-.0409-.2683-.0732.05-.1729-.0548-.1607-.0626.1349-.0932.2279-.3711.0506-.3977.0737.1439.1173.1083.1985.0523.2092.0594.2642-.0355.0639-.0712.0773-.0551-.0285-.1131-.0415-.0749-.0851-.193-.056-.3994.1892-.5463.2162-.3006.2039-.3837.2087-.1316-.1652-.2648-.1589a.4225.4225,0,0,0-.2658.1118c-.0531.0443.041-.14,0-.1316s-.1275.0592-.1873.045-.103-.0874-.1667-.0082a4.05,4.05,0,0,0-.2993.3789c-.033.0713.2247.0623.1514.1539s.0417.2095-.0223.2678-.2369.15-.2083.2739-.1.0531-.14.08-.1253-.0008-.1372.0756-.0077.1857-.0987.1887a.1559.1559,0,0,0-.1511.1167c-.0215.0589-.2478.3721-.2716.2667-.089-.3942-.1956-1.26.3145-1.5016.1463-.0692.25-.076.3421-.1937a.9237.9237,0,0,1,.3272-.2433c.111-.056.2078-.0848.252-.1756s.0778-.1833.1017-.245.1458.0062.1324-.0158a.3583.3583,0,0,0-.1941-.06c-.0646.0023-.0982.0836-.1568.1389s-.2565.2078-.3341.1948.0517-.2714.0182-.289-.15.0431-.2276.0137a.2255.2255,0,0,0-.2224.0179,1.834,1.834,0,0,0-.3785.2917c-.0409.0651.1123.1059.0557.1527s-.09.0069-.1606.0039a2.5031,2.5031,0,0,1-.3423-.0324c-.0473-.0167.1532-.0445.1089-.0739a2.81,2.81,0,0,0-.3107-.1431c-.0695-.0257-.0991.0422-.1565.0523s-.0551-.0094-.1277-.0341a1.1793,1.1793,0,0,0-.2967-.0809c-.1034-.0053-.1823-.1212-.3208-.0421a5.7331,5.7331,0,0,0-.5823.4008c-.1441.1184-.4676.2319-.5551.3068s.0539.0825.0878.1051.0717.0337.0863.0926-.0363.0991.0432.15.1341.0275.2266-.0479.3507.2.3083.3624-.16.4559-.2246.6422a1.9291,1.9291,0,0,1-.289.5027,2.7586,2.7586,0,0,1-.3728.4337c-.12.099-.2141.1786-.305.2405s-.1525.0109-.2226.0095-.0315-.1149-.0828-.1245-.0675.006-.1317.0438-.1419.06-.1614.1982-.3613.24-.3595.3681.2133.4517.1556.6175-.0414.23-.1519.2736a.2378.2378,0,0,1-.2636-.0253c-.0475-.0559.054-.2107.048-.2888s-.0277-.1568.0175-.216.0517-.1407-.0286-.1561-.157-.0312-.172-.1112.094-.2.09-.2268a.2451.2451,0,0,0-.1385-.1677c-.06-.0354-.14.0666-.2013.0627s-.1417.1139-.2.0518.13-.22.1576-.2733-.0855-.1162-.1414-.0936a.7921.7921,0,0,0-.1673.079.5327.5327,0,0,1-.19.0732c-.0545.0094-.1473.0011-.1232.0767s.09.1621.1177.253.0454.1091.1386.083.3343.0517.3351.1457-.4192.2369-.4432.3236.1342.1838.1388.2864.1059.3409.0945.4-.2-.153-.203-.1088.1984.2294.1977.29-.1651.0268-.172.0894.2184.0674.1852.1782a2.0145,2.0145,0,0,1-.3357.5.8846.8846,0,0,1-.4543.3232c-.1783.023-.4694.0266-.6007.0332a1.3534,1.3534,0,0,1-.2063-.01c-.0766-.0009-.04.0208-.0393.0752s-.0219.1121-.0661.062-.0275-.1193-.0363-.1576.0768.034.055-.0148-.165-.1892-.2557-.1613-.2317.0376-.2711.1125-.0787.0826-.0651.1653a2.225,2.225,0,0,0,.0941.2675c.0334.1033.1095.2575.1583.3684a.7483.7483,0,0,1,.0943.3516c-.0125.1138.0506.2824-.061.3524a1.575,1.575,0,0,1-.5438.22c-.102-.0128.0445-.1382-.01-.2121a2.1583,2.1583,0,0,1-.1547-.2965,1.2952,1.2952,0,0,0-.2805-.3543c-.0824-.06.0722-.061-.0078-.117s-.1212.03-.1231.132-.0753.1756-.0992.2468a.2965.2965,0,0,0-.0129.1369c-.0022.0694.0057.05.0637.1056s.0416.229.0579.322a.9876.9876,0,0,0,.1564.2739.72.72,0,0,1,.11.2545,1.2251,1.2251,0,0,1-.0259.2949c-.0107.0749.0859.2665.0408.2745s-.1807-.2046-.2271-.2924a.7741.7741,0,0,1-.0855-.307,1.45,1.45,0,0,0-.0485-.3946c-.0473-.1276-.1533-.283-.1976-.41s.0323-.2213.048-.3505a3.25,3.25,0,0,0,.0131-.4125,3.3853,3.3853,0,0,0-.0839-.7306c-.0471-.0913-.0891.08-.1438.0877s-.0715.0435-.1344-.0209-.0695-.0677-.0535-.1576.06-.0974.0386-.2142a1.2879,1.2879,0,0,0-.1659-.4735c-.089-.1117-.1068-.3712-.16-.4393s-.1151.0667-.1885.0254a2.31,2.31,0,0,0-.3019-.0984c-.0608-.0218-.0572-.0466-.0977-.0283s.03.0812-.0212.116-.0793.0506-.1649.1079-.3253.2217-.418.2808-.13.0056-.2108.0275-.0537.1034-.0554.1829a1.15,1.15,0,0,1-.0117.2806c-.0251.0881-.0769.1344-.0647.243a1.21,1.21,0,0,0,.0935.3206,1.1083,1.1083,0,0,1,.1086.3386c.029.1863-.2.1231-.2159-.03a1.2906,1.2906,0,0,1,.0046-.3149.3616.3616,0,0,0-.0751-.2262c-.0227-.0269-.0086.1576-.0593.1378s-.1405.0782-.1634.023c-.1137-.2745-.2772-.8845-.3619-1.1122a1.9323,1.9323,0,0,1-.1165-.3605c-.0309-.1387.0038-.13-.0062-.264s.0235-.5737,0-.65-.086.1058-.1266.1191-.0558.0427-.12,0a.93.93,0,0,1-.1951-.3152c-.0035-.0381.1889.0417.1634-.0268s-.0424.0146-.102-.0469-.1636-.1691-.2351-.2574-.0418-.1825-.1161-.2945-.3643-.1111-.5089-.1383a1.6626,1.6626,0,0,1-.4531-.24c-.1057-.0665-.14-.0563-.1829-.1547s-.0493-.1913-.164-.1847a.4841.4841,0,0,1-.2715-.0721c-.0892-.0441-.0961-.1227-.1747-.1866a.5589.5589,0,0,1-.17-.2523c-.0339-.098-.0409-.2021-.1338-.2554s-.1807-.0461-.226.0519.0564.1884.1058.2959.1831.4837.2289.5523-.0038-.227.0457-.182.0059.2933.0577.3612.2584.0642.3444.0544.2032-.242.2379-.2281-.0033.2652.0593.3146.08.11.1314.1478.0844.0373.1111.0923.0279.131.0805.1723.0381.0825.029.15-.13.1638-.1657.1906-.0038-.09-.0292-.0564a.4977.4977,0,0,0-.0525.21c-.0013.0667-.0287.0718-.0889.0854a1.759,1.759,0,0,0-.1885.0476c-.054.0194-.0285.1165-.076.1314s-.0609-.0475-.109-.0391a1.2275,1.2275,0,0,0-.1411.0265c-.0568.0158-.0463.1021-.1168.1236s-.2378.05-.302.0683-.03.0254-.066.0591-.041.0291-.106.03-.1878.0192-.2622.0287-.071.0906-.1592.0749-.1246-.0066-.1423-.134-.0449-.2641-.0687-.42a2.6025,2.6025,0,0,0-.2142-.5531.4886.4886,0,0,0-.1671-.2111c-.0841-.0778-.0522-.2109-.0705-.3151a1.7646,1.7646,0,0,0-.1116-.3244c-.0376-.0921-.0732-.082-.1137-.1834s-.1506-.3281-.1808-.4313a.345.345,0,0,0-.1241-.1977c-.05-.0345.0421-.2279.0113-.2312s-.03.2591-.0855.26-.1566-.391-.2019-.3663.0343.2517.0948.3718.1741.4619.2257.5972a2.9863,2.9863,0,0,0,.1006.3555c.0547.0911.0925.0971.1123.1842s.0244.1931.0394.2751-.0057.1324.0415.2025a1.5316,1.5316,0,0,1,.1441.189c.0506.0948.0962.3335.1352.43s.0993.0479.1561.1146.0514.1221.1371.197a.485.485,0,0,1,.1216.3292.273.273,0,0,0,.2042.2319c.1055.0156.4765-.0629.584-.0608s.1511-.054.1862.04-.03.1774-.0622.31a1.7232,1.7232,0,0,1-.2312.4572c-.0952.144-.0523.18-.2351.353a3.3785,3.3785,0,0,0-.709.7621c-.0368.0689-.31.3969-.2592.5229a.6423.6423,0,0,1,.0634.31.3621.3621,0,0,0,.0761.2731,1.558,1.558,0,0,1,.0815.6108.422.422,0,0,1-.2108.3637c-.109.06-.1732.0424-.2441.1122s-.1246.1451-.1845.2084-.1111.09-.0839.1748.107.1586.1031.2511.0212.212-.029.2915-.159.0673-.2384.11-.0666.0967-.0761.1873.0336.1606-.0286.2662a3.51,3.51,0,0,1-.306.4345,1.4459,1.4459,0,0,1-.2183.1862c-.0785.0613-.0633.1135-.1819.1429s-.4163.0779-.538.0975a2.3023,2.3023,0,0,1-.2669.0461c-.0922.0039-.0929-.0742-.1682-.1271a.2341.2341,0,0,1-.085-.2282c.006-.0951-.0466-.1259-.08-.2136s-.0973-.23-.1341-.3186-.1065-.0968-.1572-.1668-.0277-.1315-.0449-.2333-.0405-.2422-.0622-.3719a1.7376,1.7376,0,0,0-.1924-.4244,2.5728,2.5728,0,0,1-.1544-.2827c-.0369-.098-.0021-.05.0073-.1846a1.8407,1.8407,0,0,1,.1231-.5717.6878.6878,0,0,0-.0138-.5082c-.05-.1746-.1113-.4689-.15-.6111s-.0815-.1154-.1389-.2094-.1559-.2-.2056-.2879-.0147-.101-.0086-.2021.0292-.2936.0389-.4015a.2694.2694,0,0,0-.047-.2208c-.0528-.0847-.09-.1147-.1832-.0913s-.1724.0881-.2615.0363-.1127-.1707-.2253-.2117-.3942.0932-.5.1561-.2143.1578-.3033.2153a.2616.2616,0,0,1-.2078.04.4273.4273,0,0,0-.24.0287c-.0937.0444-.2356.1512-.3259.1895s-.08-.0094-.17-.0474-.2131-.092-.33-.1505a.5838.5838,0,0,1-.2957-.2492c-.09-.1506-.3225-.521-.4009-.6589a1.8088,1.8088,0,0,1-.14-.2378c-.0386-.0976.0429-.1613.0634-.2545s.0946-.1911.0778-.3032-.0571-.2527-.0762-.3682-.0836-.1991-.0632-.32.0251-.057.0985-.233.3041-.6867.393-.8973a1.42,1.42,0,0,1,.3676-.4631c.1174-.1134.11-.0745.1437-.2114s.0259-.2872.063-.4414.3091-.2813.3624-.41.0694-.2941.1609-.33.1027.1245.1795.0918.1008-.0553.159-.0544.051.0852.12.0406.1429-.1306.2436-.2a2.6237,2.6237,0,0,1,.4825-.2471c.1039-.0294.1039-.0482.1672-.045s.0742.0381.1281.0272.0729-.0684.1233-.083a.3267.3267,0,0,1,.1221-.01.5568.5568,0,0,0,.2728-.0764c.0606-.0491.2-.0414.2165.0316s-.0639.2.0062.295-.1339.1741-.11.2414a.3548.3548,0,0,0,.2169.1843,3.4335,3.4335,0,0,1,.3912.1061c.1048.0462.0878.16.1783.2181s.1626.0121.256.1044a.1351.1351,0,0,0,.2377-.0507c.0363-.1025-.0408-.09-.0139-.1539s.01-.102.0767-.1443a.4608.4608,0,0,1,.3007-.0306c.0673.026-.0056.0713.05.0893s.1193.0284.1761.0434.0468.0583.0773.0962.0265-.0417.087-.0235.1915.0675.2771.0955a.2454.2454,0,0,0,.2139.0026c.0975-.0371.108-.0657.2263.0154a.2347.2347,0,0,0,.3666-.0928,1.2681,1.2681,0,0,0,.1391-.5908c-.041-.1426.0483-.1989.02-.2752s-.05.01-.08.0181-.0485-.0448-.0874-.0454-.053.085-.0953.0988a.2442.2442,0,0,1-.1306-.0115c-.0573-.0113-.1262-.1138-.18-.1417s-.08-.0489-.11.0023,0,.0852-.0891.0743-.1119-.0832-.217-.161a.718.718,0,0,1-.1588-.5132c.0348-.0953-.0819.0565-.0837-.018a.1707.1707,0,0,1,.1809-.1585.3613.3613,0,0,0,.2558-.0278c.0423-.0388-.0961-.0379-.0724-.0836s.1175-.0215.1789.0083.1156-.01.1664-.0474.112-.0876.1713-.0662.1734.0237.2083.0362.0052.08.06.0967.0372-.01.0865.0483a.6792.6792,0,0,0,.2077.1166c.0677.0366.1273.0118.204.0267a.2454.2454,0,0,0,.2188-.0527c.0646-.0573.0268-.1665-.0172-.2366s-.1378-.1266-.1854-.2008a.79.79,0,0,0-.199-.2246c-.0635-.034-.0605-.0522-.0957-.0864a.6261.6261,0,0,1-.0994-.1129c-.0163-.03.0146-.0221.0223-.0482s.101.0758.0856.0285.0515-.1428.0951-.14-.1024-.1048-.0852-.1309.0832.047.0872-.0006.0651-.0108.0844-.0565-.0308-.0422-.0836-.0482a.3587.3587,0,0,0-.2057.0624c-.0241.0309.005-.022-.0084-.0226-.07-.0028-.1406.0605-.1806.0831s.0538-.0348-.0037-.0312-.0307.1157.0046.1864.1593.0277.1788.0776-.1149.0158-.1517.0318-.2231.1484-.2253.0566-.0881-.1589-.1023-.1936.1741-.0892.0842-.1407-.0774-.0218-.1281-.0312-.0817-.0863-.0889-.0851.1454.0253.1157-.0043-.1612-.0782-.2082-.0445a.425.425,0,0,0-.135.1907c-.0122.06.0046.1128-.0187.1622s-.0747-.0045-.0885.0669-.0086.1972-.0859.2611-.0436.1849-.0161.2591.1456.1142.1371.1844-.1175-.0316-.1655.0014-.1336.1883-.1735.1862.06-.1073.0607-.1189-.0771-.0313-.11-.0456a.8506.8506,0,0,0-.1563-.0324.11.11,0,0,0-.0949.0337c-.0332.0262.0222.04-.01.09s-.0971-.0393-.1259-.0266-.0171.1344.0353.1838-.0171.1195-.0009.1584.16.1891.13.2183-.1167-.0711-.1164-.0095.0755.0619.01.1108.0122.1129-.014.134-.0857.0011-.1105-.0609-.0284.0179-.0858-.0147.0181-.2416.0178-.2734-.1228-.0525-.1381-.141a.5478.5478,0,0,0-.1024-.227.4013.4013,0,0,1-.0371-.28c.0117-.1059-.0272-.1218-.0965-.2043a.9855.9855,0,0,0-.3154-.2507c-.0916-.03-.0919-.1162-.1189-.167s-.053-.229-.1073-.2042-.0682.062-.0913-.0421-.0057-.0566-.0857-.0333a.1064.1064,0,0,0-.0812.1528c.0274.0736-.0405.1284.0153.1806s.123.0619.1614.1254.0239.1518.075.206.0636.1076.1523.1127.0363.0194.0719.0728.3367.2785.2819.3472-.1087-.1763-.1608-.1128a.1717.1717,0,0,0-.06.1283c-.0091.0672.0056.0264.0536.0954s-.0342.0823-.0618.1668-.0731.1454-.1228.1113-.06.1475-.0435.2007-.0573.1109-.1125.0371-.286-.1663-.2138-.2332.1648.0373.226,0,.118-.0074.1579-.05.0169-.0567.05-.1024-.0216-.2238-.0594-.2539-.0826.0013-.0787-.0625-.0382-.0543-.0709-.0718-.0457-.1335-.1273-.1223-.0969-.048-.1639-.1089-.211-.1512-.2316-.2541-.0423-.15-.12-.1823-.0927-.0433-.1542.0218-.2129.2667-.31.2807-.1781-.0571-.2572-.0511-.1094.0893-.1461.15.0424.1494-.0057.2223-.1081.0838-.2.1517a1.1968,1.1968,0,0,0-.2528.4058c-.0355.1.0714.1056.0233.1775a.805.805,0,0,0-.0971.2037c-.0161.0534-.0893.02-.1131.071s-.0164.1082-.0821.137a1.5771,1.5771,0,0,1-.2616.0416c-.0889.0175-.0979.1153-.1924.1566s-.0887-.1371-.096-.1571a.2449.2449,0,0,0-.1714-.025.6253.6253,0,0,1-.1751.0466c-.0214-.0078.025-.1322.0129-.1694s.0019-.0612-.0088-.103-.0158.0361-.0457-.0138a.3149.3149,0,0,1,.0107-.22c.0238-.084.0864-.2735.0482-.3581s.0125-.2487-.01-.2779-.0766-.0339-.05-.1047.0981-.0514.1349-.0794-.0437.0075,0-.04.1119.0073.1876-.0139a.5174.5174,0,0,1,.2393-.032c.0834.0163.1351-.0237.2179-.0168s.0959.0416.205-.0119.1213-.3684.1125-.4812.0106-.1658-.08-.1928-.04-.1392-.0629-.1632-.0261-.0073-.05-.0342-.0648.0066-.0936-.0165-.0678-.0554-.1078-.0428a.0683.0683,0,0,1-.083-.0341c-.0081-.0221.0417-.0124.0353-.0268s-.0863-.0535-.0441-.0867.1066-.0015.1729-.0692.05.0439.1041.0357.1391-.0439.15-.0944-.0491-.1524-.0408-.1832.0743-.0178.0833.01.0017.0543.0491.0541a.3366.3366,0,0,0,.1756-.056c.0256-.029-.06.0173-.0372-.024a.7028.7028,0,0,1,.1675-.1439c.0595-.0427.0133-.134.0429-.1948s.1358-.0827.1783-.12a.3431.3431,0,0,1,.1631-.0518c.0187,0-.0893-.0193-.079-.0376.0229-.0406.0425-.006.0722-.043.007-.0087-.0052-.0385.0174-.0753a.9577.9577,0,0,0,.0707-.2018c.0125-.0563.0521-.0227.0869-.0792s.1656-.0734.2129-.092-.0009-.0461.0288-.06.0476-.0036.0708-.0222.0986.0294.1025-.005.0681-.0624.0846-.0693-.0977-.0621-.0481-.1075.0036-.0633-.0107-.1182.0088-.1152-.0358-.1621-.0245-.07-.0368-.1409.0319-.25.11-.2529.2123-.1818.2019-.1521a.6541.6541,0,0,0,.0257.3029c.04.0673-.1755.2122-.1428.3387a.19.19,0,0,0,.1972.1631c.0746-.007-.0717.0677-.0109.0943s.1682-.0962.2246-.114.0914.0525.1076.0868.0685.0991.0959.1014.0023-.0407.01-.0538-.0884.0128-.0548-.0164.1985-.0218.2512-.102.222-.1483.2949-.0658c.0275.0312-.0483-.0644-.0428-.0142s.1074.111.148.054.012-.0719.0357-.1.0192-.0023.0454-.0166.0532-.0809.08-.0774-.0954.06-.0291.09.05-.239.025-.3126.0039-.1024.0328-.1632-.0191-.0947.0558-.16.1609.1368.2256.1633.0754-.0847.0706-.1266a1.1333,1.1333,0,0,0,.0027-.1776c-.0141-.0342-.03.0284-.0453.0061a.2733.2733,0,0,1-.0534-.0778c-.0088-.0321-.07-.1134-.0229-.154a.3783.3783,0,0,1,.2577-.0713c.0748.0191.1347.0412.2064.0628s.0273-.0273.0636-.06.0922.0051.1246-.0267.1162.0567.12.0248-.1455-.1361-.1906-.1515.0652-.0547-.0118-.058-.4371.0562-.5235.0634-.0785.0437-.1226.002-.0529-.0981-.12-.13-.0685-.0718-.0657-.1414a.5348.5348,0,0,0-.02-.1791c-.0172-.0649-.0687-.143-.0616-.21s.0537-.0875.0918-.1463.136-.143.1752-.201.0551-.1267.1065-.1573.0983.0275.071-.0667a.2506.2506,0,0,0-.2058-.19c-.1114-.0168-.1616-.0126-.2333.0856s-.0407.1165-.0241.2457-.2045.2282-.3055.3454a.5857.5857,0,0,0-.0811.523c.0672.131.1657.1089.1991.2122s-.0522.1191-.1072.1921a.441.441,0,0,0-.1348.2444,2.2275,2.2275,0,0,1-.0334.3562c-.0262.1094-.1227.13-.1942.1544s-.0275.068-.0476.1118-.0247.0385-.0787.0408-.0712.0012-.0767-.066a.4986.4986,0,0,1-.0143-.1727c.0138-.0789-.0819-.2127-.12-.27s-.0078-.084-.0278-.1309a1.0328,1.0328,0,0,1-.0561-.1475c-.0093-.0419.023-.1314-.0213-.1414s-.04-.15-.0562-.1233-.0539.1586-.1256.2065-.086.1344-.1765.1922-.3207.0919-.3468-.08-.083-.4207-.0891-.5788a.3842.3842,0,0,1,.1121-.3041.8968.8968,0,0,1,.1929-.1695.8263.8263,0,0,0,.2087-.194c.0564-.0905.0712-.1121.1483-.2256a3.7828,3.7828,0,0,0,.2149-.4948,3.2738,3.2738,0,0,1,.2838-.4475,1.0339,1.0339,0,0,1,.3374-.3683,4.1091,4.1091,0,0,1,.4978-.1877c.1184-.0439.1086-.1367.174-.1764s.19-.0525.2081-.0223-.1761.2122-.1267.2532.1574-.1767.1846-.1872.006.1206.0311.1138.0751-.11.1064-.1293a.129.129,0,0,1,.13.0216c.0226.0281-.0919.06-.0479.1123s.04-.0917.1064-.0647a1.5551,1.5551,0,0,1,.24.1353c.0638.0444-.0451.083-.0851.0944s-.1748-.0551-.1861-.04.0913.08.1105.1158.0779-.0074.1207.0134a.2425.2425,0,0,0,.18.0082c.0407-.0255.1251.0225.1354.0844s-.11-.053-.1138.0033.161.128.2769.1286.2182.1033.3167.1785a3.1753,3.1753,0,0,0,.3355.2492.5377.5377,0,0,1,.245.2642.1645.1645,0,0,1-.0255.1981c-.0494.064-.0156.0813-.1146.0957a.5233.5233,0,0,1-.3142-.0608c-.1392-.06-.5323-.3032-.6238-.3542-.0339-.0189.2508.2474.2315.3449a.5024.5024,0,0,0,.0836.3826c.0843.0748.226.2154.327.2s.0059-.1129-.0276-.1352-.14-.0781-.1119-.1441.1375-.0215.201.0214a1.3344,1.3344,0,0,0,.2712.1658c.0379-.0021-.1-.1934-.0564-.2323a1.5245,1.5245,0,0,1,.2021-.103c.0534-.0311.0912-.0688.152-.0512s.177.1335.223.1266.0364-.1125.0394-.1533-.0689-.1177-.0733-.1546a.8505.8505,0,0,1,.0536-.1972c.0147-.0444-.1024-.1428-.0751-.1465a2.0833,2.0833,0,0,1,.2667.1145.379.379,0,0,1,.1438.2174c-.0085.0339-.1665-.0825-.1986-.0135s.0272.14.0742.204.1144.0641.1936.0707.0374-.084.0806-.1213.0731-.0167.1412-.0252a1.7577,1.7577,0,0,1,.2663-.0368c.0926.0018.3316-.0806.4036-.0341s.0541.1616.1569.1909.1137-.0716.2-.0472a.6247.6247,0,0,0,.2535.0662.3424.3424,0,0,1,.24.0627c.0516.0409-.0957.0292-.0349.0762s.095.0734.2023.0012-.0808-.1656-.0038-.2143.46.1289.5647.22.2545.2064.3455.2714.1837.248.2282.26.0767-.1416.0356-.2-.1855-.2048-.2361-.2844.0349-.1387.08-.2025-.1556-.1417-.1253-.1807.1985-.0683.2779-.1094.0852-.1728.1589-.2389.49.1344.521.2129-.1133.1665-.13.2574.0459.1548.0677.2642-.153.3949-.09.4936.1642.1356.12.2288-.0653.1541-.1427.194-.2248.0348-.2883.0694-.2116-.13-.198-.0816.2507.2784.3815.2585a.748.748,0,0,0,.394-.1789c.0878-.0939-.0517-.2958.0872-.304s.1551-.01.2193.0343.114.2427.1458.236.006-.1706-.0395-.224a.392.392,0,0,0-.2006-.1252c-.0752-.0146-.2173-.0068-.2556-.0649a.2583.2583,0,0,1-.0224-.2318c.0357-.0622.1274-.1265.0944-.2065s-.1441-.1967-.0864-.2705.1523-.0464.2375-.0547.0078-.1923.0267-.2016.1446.1317.0814.2-.0543.1444-.0118.2407a.9458.9458,0,0,0,.4381.2472c.0156-.0217-.2562-.1827-.3216-.2744s.0691-.13.1944-.119a.8878.8878,0,0,1,.3878.1959,1.718,1.718,0,0,1,.1432.1477c.0446.0434.1323.0727.1579.0478s-.012-.1472-.0368-.1954-.1492-.07-.1885-.1081-.1041-.3006-.0157-.3243a3.4608,3.4608,0,0,1,.5532.1324c.1231.0165.2344.0746.3328.0831s.0513-.0607.0741-.1368.0182-.1444.1349-.1549.1238-.0535.2824-.047a4.3279,4.3279,0,0,1,.5925.1021,6.5174,6.5174,0,0,0,1,.1321c.1984-.01.0454-.1169.1665-.1407s.1957-.0137.3212-.045a.4277.4277,0,0,1,.3776.1916c.0137.0784-.2681-.0355-.2455.0119s.3524.1571.3816.2021-.186.0681-.1684.0969a.6837.6837,0,0,0,.2175.0924c.0329.0056-.0128-.15.0494-.1326s.1088.0431.1883.07a.686.686,0,0,1,.27.1343,2.0371,2.0371,0,0,1,.2446.2811c.04.0713.077.1133.0686.16a.1761.1761,0,0,1-.08.1161c-.4281.1159-.8582.19-1.2822.2986.26.0082.5991.0569.8285.0563.0576,0-.2231-.0765-.1658-.1006a.27.27,0,0,1,.306.0541.57.57,0,0,0,.3477.21,3.7235,3.7235,0,0,1,.6482.2768c.0906.0594-.142.0031-.1024.0476a.5443.5443,0,0,0,.19.1652c.0761.0241.1971.0556.2668.0718s.1778.1033.2194.019.05-.126.151-.0892a1.5958,1.5958,0,0,0,.2616.0769c.0907.0174.1853-.0182.2607.0377a.6246.6246,0,0,1,.1475.262c.0331.0805-.0616.1577-.068.2313s-.0591.1954-.0072.2622a1.0316,1.0316,0,0,0,.2211.2187c.07.0406.1462-.0993.2059-.1452s.0962-.0713.1575.0094a.27.27,0,0,0,.2124.1318c.09.0027.1644-.0166.2286.0327s.1211.1557.1972.1545a.8693.8693,0,0,0,.26-.0253c.0393-.0237-.0942-.1564-.028-.19s.0665-.1529.1785-.1188.3341.1527.4651.21a3.3751,3.3751,0,0,1,.356.2109,2.5326,2.5326,0,0,1,.3913.224c.1043.0922.1114.3138.2532.3513a4.04,4.04,0,0,0,.4787.04,1.0822,1.0822,0,0,1,.3618.1635c.0987.0529.09.0481.1281.13s-.0639.1239-.0213.1936a.576.576,0,0,0,.3428.1581,1.6944,1.6944,0,0,1,.4058.09c.0926.04.1125.0765.1931.0533s.0872-.0266.1346.0432.0846.1807.1486.218a.2114.2114,0,0,0,.1891.02c.0624-.0233-.0719-.2911.0417-.2947a4.5485,4.5485,0,0,1,.6309.1728,1.5055,1.5055,0,0,1,.4612.3126c.1416.1078.36.2889.4719.3891s.1263.1259.1415.2381.05.2118.1288.2092-.0569-.1522.0107-.1592a.7378.7378,0,0,1,.3143.1043c.0707.0467.1944.1742.1984.2337s-.1306.0854-.1763.11S66.4785,22.8028,66.4452,22.8276ZM48.23,22.5363c-.0362-.0524.0184-.0593-.0593-.1422s-.0871.137-.1136.1385-.0349-.23-.0328-.28-.1359-.0994-.1563-.148a1.8971,1.8971,0,0,1-.0341-.2186c-.0237-.0476-.1208-.1128-.0829-.1236s.1163.0881.1289.052-.08-.0881-.04-.131.056-.0322.1022-.0213a1.1141,1.1141,0,0,1,.2306.1136c.0025.0113-.0933.1329-.0673.1213a.5762.5762,0,0,0,.127-.0933c.0364-.037-.1256-.0971-.1468-.1291s.0416-.1384.0128-.18-.0368-.1617-.0987-.1342-.102-.04-.1539-.0766-.0745.0315-.1475.0154-.0962-.0115-.1156.0688-.0978.034-.149.0531a.1006.1006,0,0,0-.0734.1149c.0069.06-.0981.0644-.0746.1057s.1312.1011.1209.1975a.9249.9249,0,0,0,.06.3126c.0255.0874.1079.1282.1274.2056s.1425.2028.1461.2351-.0957.0088-.0913.0822-.0342.0965-.0478.1593a.5485.5485,0,0,0-.0072.1861c.0074.0666.0367.0825.0891.1134s.0573.0814.1065.1134a1.5124,1.5124,0,0,0,.1639.1107c.0547.0252.212.08.25.0358s-.0342-.2142-.0024-.2934-.0656-.17-.0807-.21.0451.03.0412.0063a.2264.2264,0,0,0-.0256-.0985c-.02-.0243-.0464-.0153-.0739-.04s-.0058-.1379.0047-.1381c.0464-.001.1971.1163.2337.0738S48.2659,22.5887,48.23,22.5363ZM25.278,17.2884c.0127.0258.1588-.0043.1661-.0266s-.0222-.0264-.0414-.0314S25.2654,17.2626,25.278,17.2884Zm5.2439,12.3128c.0022.0609.1114.0573.1428.0615s.1054-.0539.118-.0622.0019-.0274-.034-.0509S30.52,29.54,30.5219,29.6012ZM29.97,24.31c.01-.0111-.0215.0215-.0145.0236.0052.0015.0031.0125.0142.006a.07.07,0,0,0,.0216-.0856c-.0062-.0136-.01.0361-.0157.0218-.0152-.0377-.0566-.0357-.0862-.013s-.0971.0147-.1041.0354.0135-.0083.0363.0084S29.9454,24.3368,29.97,24.31Zm-.2694-.0675c-.0051-.0088-.0351-.009-.0359.0059,0,.0091.0231.0277.025.0274S29.7055,24.2515,29.7005,24.2427Zm.0647.0641c.0049-.0034.002-.0172-.0013-.02a.0887.0887,0,0,0-.0374-.0161c-.0057.0023-.028.025-.0239.0324A.1012.1012,0,0,0,29.7652,24.3068Zm3.8094-2.2616c.01-.0418.1036-.1328.0406-.1463s-.2436.1877-.2629.3208a2.1423,2.1423,0,0,1-.2408.4856.2.2,0,0,0-.0188.21c.03.0558.1094.014.1708-.0195a.7834.7834,0,0,1,.3624-.0539c.043.0276-.0946.1012-.0409.1166s.2041-.2053.242-.1805-.0274.1148.0618.1081.08.0006.12-.078a.53.53,0,0,0-.0232-.3056c-.0194-.0712-.0846-.0254-.0887-.0862s.0041-.0921-.0562-.1366-.2132.0984-.2437.1014.0093-.0954-.03-.1042-.0547.0164-.0729-.0372S33.5643,22.087,33.5746,22.0452Zm-1.5227,7.1332c.0415.1041.1908-.0728.1947-.098s.0006-.0235-.0217-.0237C32.1587,29.0558,32.01,29.0744,32.0519,29.1784Zm-1.1584.0235c.0511-.0193.1508-.0727.1585-.1009s-.0815-.0589-.12-.0584-.0289-.0637-.085-.0531a.2388.2388,0,0,1-.2162-.07c-.0076-.0115-.0027.03-.0137.023a.9764.9764,0,0,0-.513-.1252.751.751,0,0,0-.3095.13c-.0749.0437-.1895.1958-.1608.22s.3321-.3025.3894-.238-.0653.0193-.0464.0475a.0735.0735,0,0,0,.098.0154c.04-.02.0431.0072.0992,0s.1574.0226.2258.0207.1063.1081.1614.1182.0892-.0227.1059.0278-.1.1069-.0663.1218A1.069,1.069,0,0,0,30.8935,29.2019Zm1.5408-5.9184c-.0386.0558.0423.1447.1339.15s.165-.0953.1552-.1249-.2028.0391-.24.0423S32.473,23.2278,32.4343,23.2835Zm-.0278-.619c-.0081.0588.3418.1458.346.0455S32.4145,22.6056,32.4065,22.6645Zm4.1231,9.43a.5025.5025,0,0,1-.0569.3985c-.0855.1723-.26.5171-.3388.6935s-.1106.1439-.1293.3516-.0179.641-.0332.8684a1.8447,1.8447,0,0,1-.25.6184c-.0689.1448-.0392.1609-.1386.2257s-.1727-.0045-.2769.109-.3621.3613-.4551.486-.0044.2394-.0289.3527.0465.0861-.0295.2274-.2579.481-.3625.6447a5.1706,5.1706,0,0,1-.3146.494c-.1057.1245-.4012-.1073-.4677-.0422s.1936.13.2162.199.0775.1255.0686.2032-.0519.0962-.0949.188-.2046.1483-.2947.1979-.254.0285-.2979.0595.0548.1232.0176.1869.0393.0781-.02.1636-.2562.0338-.312.04,0,.1634.0033.2133.1007.0971.0783.171-.0643.1962-.0908.2751-.0616.0807-.1287.1092a.2062.2062,0,0,0-.1074.159c-.0149.0639.0761.115.1157.1495s.1423-.0013.1352.0692a.35.35,0,0,1-.0663.17.5607.5607,0,0,0-.1077.182c-.02.0841-.0541.0994-.13.1706s.046.3077.0782.38.0049.0894.06.1417.16.0772.22.1439.3264.0286.3239.0507a2.364,2.364,0,0,1-.3556.2034.2467.2467,0,0,1-.2519-.0079c-.1192-.0492-.3686-.1018-.4951-.1664s-.088-.0593-.1781-.21a1.1593,1.1593,0,0,1-.2833-.5945c-.008-.2726-.0083-.6679-.0145-.9942s-.0171-.7084.01-1.0586.07-.9265.0929-1.2327.0427-.565.0577-.7651a2.5349,2.5349,0,0,0,.0257-.3565,1.1452,1.1452,0,0,0-.07-.2838c-.0246-.0979-.0083-.18-.0644-.2564s-.13-.0575-.2213-.1065-.2143-.0848-.3236-.15a.5716.5716,0,0,1-.2284-.2374c-.0989-.1465-.3129-.4481-.4287-.6227s-.2635-.3644-.3594-.5276.0146-.375.0353-.5155a.8612.8612,0,0,1,.0576-.32,2.7566,2.7566,0,0,1,.1807-.3348,1.2741,1.2741,0,0,0,.1937-.63c-.0321-.1387-.02-.1025-.0109-.1625.0135-.0884-.0117-.0627-.01-.1412s-.1392-.1307-.1316-.2148.0077-.1038-.0581-.13-.0634-.0117-.109.0276a.59.59,0,0,0-.1045.1308c-.0373.0544.0708.0432.0352.1178s-.1117.0061-.1361-.0176-.14-.0081-.18-.04-.0354.0553-.0736.0273-.0443-.03-.1019-.0674-.1852-.0786-.2355-.1582-.0038-.1442-.0824-.2372-.2174-.264-.3708-.2719-.3464.0227-.46-.0719-.1782-.2161-.28-.2884-.108.0115-.2247.0595a.729.729,0,0,1-.46-.0929c-.12-.0584-.2738-.0921-.3663-.1337s-.0853.0045-.1557-.0624-.1657-.1729-.2429-.2549-.0213-.1682-.01-.27-.0968-.22-.1411-.3018a1.1446,1.1446,0,0,0-.1284-.197c-.0593-.0755-.1923-.2241-.241-.2912s.008-.073-.0018-.1273-.02-.0519-.0592-.1139a1.6524,1.6524,0,0,0-.18-.2535.4807.4807,0,0,1-.1535-.2071c-.0232-.0871-.035-.2991-.0922-.3443s-.1961-.1639-.2168-.1276a.8746.8746,0,0,0,.0957.389,2.3867,2.3867,0,0,1,.203.3772.4879.4879,0,0,0,.1063.1862.5377.5377,0,0,1,.0772.1916.9433.9433,0,0,1,.0536.2179c.0074.0863.0256.0326.0721.0636a.22.22,0,0,1,.0883.162c-.0025.0543-.0488.1195-.0888.03a1.5212,1.5212,0,0,0-.236-.2878c-.0619-.0686-.0167-.1481-.03-.215s-.0752-.1084-.1112-.1468-.0833-.0311-.1042-.0679-.14-.1143-.1129-.1425.1432-.0431.0831-.1441a.7745.7745,0,0,0-.1752-.2277c-.0815-.07-.068-.1389-.1052-.2457s-.0842-.2537-.1357-.3751a.5579.5579,0,0,0-.3119-.2636c-.1119-.0376-.1185-.0152-.1749-.1191s-.0881-.1944-.1531-.3248a2.8166,2.8166,0,0,1-.2581-.4261,2.1191,2.1191,0,0,1-.0768-.61c.0024-.19-.0163-.4315-.0035-.6011s-.1054-.392-.0964-.487.24.12.2674.0509a.3239.3239,0,0,0-.0895-.2785,1.4646,1.4646,0,0,0-.23-.2,1.3455,1.3455,0,0,0-.2395-.0913.3806.3806,0,0,1-.2177-.2135c-.064-.1261-.3021-.2884-.2995-.4385s-.05-.2141-.1348-.2444-.0754.1693-.15.0755-.0947-.2135-.1867-.2716a.4585.4585,0,0,1-.1778-.1676,1.7023,1.7023,0,0,0-.1948-.282,1.369,1.369,0,0,0-.2289-.1539,2.3085,2.3085,0,0,0-.4829-.2191c-.12-.0334-.144.045-.2405.0266s-.1583-.0943-.2421-.1386a.29.29,0,0,0-.23-.059c-.1039.02-.11.0605-.0967.1747s-.3221.2681-.4018.26.0394-.0642.0148-.09a.25.25,0,0,1,.02-.2375.7123.7123,0,0,1,.2305-.079c.0327-.0106-.0579-.0474-.0641-.0587s.1164-.0735.0575-.0636a1.0254,1.0254,0,0,0-.3478.2092,1.15,1.15,0,0,0-.214.3577c-.0223.0876.132-.04.0935.053a1.65,1.65,0,0,1-.3455.3934c-.1075.0876-.2782.1324-.3123.2742s-.3047.1946-.3865.2254a.5613.5613,0,0,1-.12.03c-.0485.0135-.0284.0357-.0587.0634s-.1777.1072-.1872.0515.1659-.0884.21-.1711.2409-.1538.2918-.171.193-.2082.2507-.2087.0949-.1779.1282-.22.0178-.1235.0546-.145.0665-.1039.0179-.0882-.2234.1521-.2972.0928-.1023-.0789-.1633-.0784-.1086.0992-.155.0724-.0467-.2729-.09-.2984-.1127.1378-.1767.1027a.5414.5414,0,0,1-.2-.1374.8.8,0,0,1-.0813-.2621c-.0182-.08.0228-.1041.0531-.1792s.0592-.1348.1519-.1363.11-.0835.1829-.1166.1462-.0062.1788-.0894-.05-.1069-.0742-.15.0824-.0056.0533-.0617-.1112-.0109-.1709.0477-.0763-.02-.1723.0255-.3493.0153-.3925-.0656.0617-.0189.032-.051-.22-.0234-.21-.0913.2271-.125.27-.1412-.0434-.0191-.01-.0348.1869-.1332.2287-.0789a.245.245,0,0,0,.1957.0988.2.2,0,0,0,.1666-.0814c.0184-.0351-.08-.0216-.0888-.0382s.056-.0068.0269-.0222-.006-.0679-.0238-.0855-.1751-.0039-.2331-.0306-.0843-.12-.1471-.1482-.2264-.0417-.2571-.0958.0113-.1045.0245-.1416.018-.0091.0672-.0228.1693.0074.217-.0737a1.2714,1.2714,0,0,1,.1546-.2406.998.998,0,0,1,.39-.231.52.52,0,0,0,.2552-.1092c.0907-.0759.093-.0852.223-.0475s.347-.0517.457.0664.3073.0562.461.0608.2981.01.4777.0218.5054.0471.6812.0541.3265.12.45.1278.1339-.17.2021-.2205.1132.0823.1828.0374.4209-.2893.459-.2235-.36.22-.3283.2491.39-.1942.4342-.16.0789-.128.1133-.1411-.0492-.1.0136-.089.269.2721.3285.2632.07-.2407.1316-.2427-.0147.096.0417.1075-.038.1016-.0128.1024a.4131.4131,0,0,0,.1571-.0739c.0256-.0265-.03-.06.01-.076a.2654.2654,0,0,1,.0874-.0312.8057.8057,0,0,1,.3049.0554,3.4786,3.4786,0,0,0,.541.0412c.0939.0005-.0576-.0317.0181-.0382a.46.46,0,0,1,.2737.0876c.0838.06-.1722.1668-.15.1854a.3847.3847,0,0,0,.234.0173c.0826-.0242.2979-.0839.3865-.1122s.1616-.0514.22.0036.1574.2293.1856.2488-.025-.0887-.0229-.1123a.251.251,0,0,0,.0123-.0838c-.0045-.0428-.05-.1216-.0046-.1712s.2865-.1772.2327-.2141-.2931.2092-.34.1414.098-.1436.166-.1862a.2416.2416,0,0,1,.2255-.0349c.0663.0347.04.0762.0755.117s.0339.0294.101.0327.1577.02.25.0344.4084.01.4563-.0914.0651-.1951.158-.2145a.415.415,0,0,1,.2364.0074c.0381.0236-.0495.1671-.0283.1967s.1485.1061.1419.0573-.0491-.2451.0622-.279.1076-.1123.1516-.1612a.0961.0961,0,0,0-.0016-.1275c-.02-.033-.08.1284-.1127.066s.1031-.1436.141-.1936-.0949-.0135-.1455-.01-.1856.0239-.2293-.051a.7125.7125,0,0,1-.0507-.2937c-.0064-.1062.0589-.1113.1276-.1417s-.067-.0436-.0471-.0561a.2072.2072,0,0,0,.0763-.1727.5552.5552,0,0,0-.0585-.2062c-.0459-.07,0-.14-.0178-.2233s.1576-.0007.1125-.0764.1154-.1707.2349-.1663.3182-.0956.3724-.03-.1589.3076-.1813.3711-.36.0989-.3086.0929c.1672-.02-.0592.2514-.0191.2831s.212.0556.2107.18.1708.1391.184.2046-.1717.1354-.1563.1758.12.0286.1572-.0093a.1439.1439,0,0,1,.16.0015c.0254.0267-.0932.0588-.0679.0862s.0923.0608.067.12-.01.1432.0391.133.0629-.1387.0715-.183.0158-.1536.0754-.14.1279.0125.161.0741a.1505.1505,0,0,1-.0141.1856c-.0518.0461.0413-.1232-.03-.0219s.1936.3515.2412.21.0048-.0787.04-.1515.0847-.0268.0725-.1177.0723-.1586.1-.2184-.0949-.1072-.0633-.1907.0667-.0909.1428-.0913.1734-.0586.2282-.0047.1438.0468.179.0773.0059.1283-.0013.1788-.1438.0285-.1453.0711a.3248.3248,0,0,0,.1183.1775.134.134,0,0,1,.0259.1954,1.5686,1.5686,0,0,1-.2089.1927c-.061.0625-.1258-.0449-.1458-.0436s.076.13.0634.1419-.0881-.0313-.1052-.0267.0272.0374.007.0418a.4939.4939,0,0,1-.1106,0c-.0316-.0038.0064-.069-.0376-.0657s-.1515.036-.1562.0846.1036.0027.0943.0529a.454.454,0,0,1-.1189.2019A.1781.1781,0,0,1,29,19.7058a.7019.7019,0,0,0-.3788.0278c-.0141.0325.2369.0551.292.0911s.2476-.0588.2721-.0212-.08.2362-.12.2779a.2918.2918,0,0,1-.1134.083c-.049.02-.0774-.0168-.1279.0466a.312.312,0,0,1-.2439.1112,1.8706,1.8706,0,0,0-.2421-.0091c-.0232.0008.1347.032.1475.0369s-.0475.052-.0183.0413.1171-.0462.173-.0148.0951.0624.04.1184-.1243.0517-.1871.0867-.0433.0661-.0874.1528a1.4517,1.4517,0,0,0-.18.4118,2.8153,2.8153,0,0,0-.07.4833c.0237.0842.16-.0485.2149.0325a1.109,1.109,0,0,1,.1039.2888c.0342.1066.0948.051.1755.016s.09-.002.1908.0109a1.5181,1.5181,0,0,1,.4186.1462c.0878.0543.12.1042.2009.1118s.1826-.03.2446-.0222.1647-.0858.1883.0076-.0194.2529-.0017.3911a.5655.5655,0,0,0,.2572.3746c.135.0846.2694-.1894.2672-.2979s-.0567-.2325-.0524-.3293-.1387-.0839-.0985-.1736.2909-.2467.35-.3754a.5231.5231,0,0,0-.0028-.46c-.0824-.0882-.1081-.075-.17-.1507s-.0722-.0907-.0055-.1737a.2175.2175,0,0,0,.0612-.2261c-.0247-.0942-.0626-.1307-.0406-.2258a.6546.6546,0,0,0,.0006-.2841c-.02-.0922.0092-.1171.104-.1548s.3033-.0059.394-.0761.1253-.0255.1941.0067.1376.0218.1642.095.0831.1146.1486.09.15-.0255.1734.0089-.0617.1213-.0322.1739a.5072.5072,0,0,1,.0139.2016c.0008.0261.0479.0006.05-.0077s-.16.2537-.06.16.3737.1058.4686-.1485c.0056-.015.0379.0391.0592.0018a.6243.6243,0,0,0,.0719-.2709c-.0133-.0722.0656-.205.1235-.2052s-.0806.0892.0092.0968.2472.2469.29.3452.148.1648.1553.2463-.065.116-.0523.168.0548.0326.087.0559.0874.0333.1138.0662-.0244.101.0478.0882a.43.43,0,0,1,.2381.0055c.0848.0321.1333.0683.0559.1172s-.1891.0968-.21.1366.1394-.09.1271-.0617a.73.73,0,0,1-.1837.1387c-.0458.0232-.0392.1481-.0136.1061a.3209.3209,0,0,1,.0855-.0873c.0313-.0255.0185-.0341.0457-.065a.7648.7648,0,0,1,.1589-.0993c.0228-.01-.0692.0013-.0468-.0231a.1208.1208,0,0,1,.1354.0146c.017.0313-.0385.1331-.0045.1126s.1028-.0988.1781-.06.0175.1293.0057.192.0359.1168.001.1836a.4988.4988,0,0,1-.1639.1646c-.0617.0422-.116.0343-.1825.0845a.6141.6141,0,0,0-.1455.1773.49.49,0,0,1-.3255.2158,4.3235,4.3235,0,0,0-.44.1168.372.372,0,0,0-.2991.2354c-.0353.1234-.1194.09-.1727.1591a1.5553,1.5553,0,0,0-.1525.2327c-.0324.0673-.2362.3822-.2063.353s.3145-.3784.4123-.5051.4438-.3187.522-.2114-.0726-.0325-.0172.0224-.04.1363-.0819.1815-.15.0293-.16.0562.0669.0437.0869.06c.009.0072.0975-.0675.1129-.0339s-.0582.1256-.0674.1521.0621-.0554.0574-.0052.0458.1656.1368.156c.0249-.0027-.03.017-.0149.0251a.3112.3112,0,0,0,.28-.0454c.0435-.037.0031.0544.02.0372s.062.0055.0539-.0458.03-.2633.1132-.2986.0084.1585.023.1563.142-.0163.0863.0542a.5566.5566,0,0,1-.1931.1263c-.045.0254.0617.0159.02.0518s-.1854.1412-.2372.18a.6227.6227,0,0,0-.0983.083c-.0389.04-.0324-.0357-.0794.009s-.1131.213-.1633.2537-.05.0647-.1119-.0073.1173-.3065.1893-.3583.02-.0164.0588.0122.1247-.07.1076-.0926-.1373.0495-.1622.051.0642-.0987.03-.1006-.1593.125-.188.1686-.0573-.0053-.0752.0491-.0859-.0143-.0918.055-.1649.1711-.2162.2078-.007-.0486-.0386-.0059a.5624.5624,0,0,1-.1358.1586c-.0641.0411-.0235.0681-.0739.143s-.0867.3589.0029.3353-.0161-.035.0069-.0352.0458.0106.0326.04-.1156.04-.1633.0425-.0073.09-.0685.1084a.94.94,0,0,0-.28.1881c-.0063.03.1834-.1242.2007-.1237s-.0217.021-.0167.0271.0667-.0284.0579-.0107a.5875.5875,0,0,1-.1453.1122c-.0313.0108-.2024.0564-.1484.093s-.08.3359-.1088.3573-.0631-.1493-.0843-.1132.09.1622.0551.2417-.0444.2149-.11.2795c-.0107.0106-.0067.0108-.0138,0-.0308-.05.0375-.1189.0357-.1675s-.0462-.0551-.0689-.0637.0255-.15.0232-.1615c-.0051-.0265.0653-.1325-.0044-.0806s-.0581.2369-.0448.2871-.0915-.0489-.0848-.0146.0839.0278.103.0729-.0278.1153-.0074.1647.0655.04.0658.1062-.1005.1139-.1017.1194.1328-.0365.1136.0373-.1115.0619-.1322.0856.0411.0089.0336.0309-.05.0154-.0565.0484.0891-.0049.09.0055-.057.0546-.0792.0751-.0408-.0248-.0739.0072a1.1137,1.1137,0,0,0-.0909.18c-.0287.05-.0755.0418-.1126.0992a.5654.5654,0,0,1-.1021.1594,1.0257,1.0257,0,0,0-.2214.3736.4632.4632,0,0,0,.0248.3214c.0472.1148.1069.2816.14.3975a.6133.6133,0,0,1-.0047.3542c-.0353.0819-.0685.1117-.1137.0721a.4085.4085,0,0,1-.1014-.0982c-.02-.029-.0353-.1129-.064-.155a.3346.3346,0,0,1-.0387-.1594c0-.0373-.0216.0663-.0265.0185s.0328-.234-.0318-.2829-.1291-.1281-.1943-.0911-.0836.0692-.1416.0642-.0744-.0926-.1376-.0568a.3944.3944,0,0,1-.2171.0283c-.012-.0111-.3112.1487-.3.1358s.1515.0354.091.0883.0807.013.0746.0477-.0294.088-.0459.0639-.0579-.0821-.0925-.08.0116.0987-.0182.077-.0558.011-.1068-.0083-.0837-.0751-.1489-.04-.0534-.0147-.1366-.0131-.1348.0779-.2426.1482a.9644.9644,0,0,0-.329.4852c0,.1274.0611.0912.0641.1734s-.0116.0569-.0284.1515a1.6445,1.6445,0,0,0-.0492.3192,1.7321,1.7321,0,0,0,.157.6188c.0728.1324.1322.21.213.242s.0427.0731.0952.0637.0962-.0629.1406-.0827a.65.65,0,0,1,.126-.0532c.039-.0071.0541.0422.08.0289a.1324.1324,0,0,0,.06-.0448c.0176-.0249-.0226-.0287.0026-.069a.3013.3013,0,0,0,.0725-.145c.0114-.0777.0261-.2474.107-.3013a.7821.7821,0,0,1,.2209-.1c.0882-.03.1841-.0376.1692.0643a.7831.7831,0,0,1-.1055.2578c-.0278.0463.0384.0144.0346.0279s-.0361.0375-.0371.0564c-.0006.0113.005.0076.0077.0115.0044.0063.0256-.03.02-.0183-.0173.0362-.0241.1775-.0418.201s-.04-.0979-.03-.0945-.0645.0625-.0253.0808-.0055.1747.0155.236-.0957.1793-.0718.2124.2445-.0385.305-.0432.0679-.0564.129-.06.0871-.031.172-.01a.2105.2105,0,0,1,.1455.2268c-.0163.104-.0135.1749-.0291.2719s-.0227.0356-.0448.177.2189.5459.3916.4321a.6812.6812,0,0,1,.3041-.1459c.1309-.0326.1954.1944.2464.1367s.1461-.4591.2306-.5535a.6179.6179,0,0,1,.1991-.1506c.0963-.0607.18-.1469.2937-.2127s.1932-.0353.358-.0431.5157-.0445.69-.05.2186-.066.3767.03.3845.3035.5516.4086.352.0027.52.0083.2473.2137.34.3117.1875.2282.2674.2988-.0005.0979.1252.1223.3882.0246.5553.0406.4026.027.5652.0428a1.5267,1.5267,0,0,1,.45.2162c.1.0462.16-.1007.2116-.0191S36.4971,31.9633,36.53,32.0942Zm-6.1755-7.3336c-.0162.0278-.1645.166-.24.1691a.21.21,0,0,0-.1551.1064c-.0344.0467-.0859.1158-.1244.0907s.0645-.0972.0642-.1056-.0226-.0541-.0349-.04a.9.9,0,0,0-.102.2172c.0051.0276.063.0029.0843.0126s-.0595.0376-.0037.0339a1.009,1.009,0,0,0,.27-.1735,2.3209,2.3209,0,0,0,.2555-.2451C30.4034,24.7818,30.37,24.7328,30.3541,24.7606Zm.1664-.1056c.128-.0007.2631-.1573.2165-.2137s.1027-.12.064-.1128-.1326.1586-.2245.1814-.1614-.0168-.2573.1378S30.3924,24.6557,30.5205,24.655Zm-1.9124-.2912c.0048.0444.1263-.0528.1505-.0586s-.0572.039.0061.0393.3365-.2553.3807-.2393-.107.13-.0725.14.0815-.0524.12-.0018.0608.0173.1123.0318.2052-.13.2286-.114.0428.054.08.0484.0783.09.06.0842-.0727.0338-.1111.04a.4179.4179,0,0,0-.2349.1209c-.0073.0116-.0119-.0084-.0146-.0113s.0223-.0415.0181-.0381-.0388.0323-.0489.0425.0094-.0628-.0116-.03-.1448.24-.1211.2912.1008-.1787.11-.1462a1.0037,1.0037,0,0,1-.0529.219,1.1666,1.1666,0,0,0-.0466.2776c-.0043.1262.083.3856.1654.1868a.6085.6085,0,0,0,.024-.4037.56.56,0,0,1,.1038-.3018c.0257-.0629-.0009.1081.0058.0646s.07-.1038.079-.158.0454-.0912.1108-.0512.1015.0464.12.0908-.0337-.0226-.0145.0153a.2019.2019,0,0,1-.0071.1671c-.0293.0384-.0755.084-.0567.1225s.0925-.0814.14-.0945.0539.1933.0669.1926a1.1053,1.1053,0,0,0,.0894-.1374c.0276-.0374-.0183-.0836.0164-.1409a.2754.2754,0,0,0,.0044-.2157c-.0241-.0377.0676.03.0758.0322s-.0172.0469-.0133.0468.0147.0343.0226.0183.1184-.0042.121-.0269c.0046-.04.04-.0285.0373-.055s-.0778-.2053-.1564-.2036-.2159.0241-.2823.0247-.1917-.0171-.2043-.0588.0076-.0463-.0224-.0734.0382-.049.0021-.0758-.01-.1055-.0557-.114-.159-.0336-.1869-.1213-.0858.0236-.115.008-.1325-.0368-.1277-.0161-.0117.1054-.04.1118.0355-.0785.0123-.0733-.0463.1033-.0677.1117.0371-.0621.006-.0487-.0452.092-.084.1328-.1375.0858-.1743.1368S28.6034,24.3193,28.6081,24.3638Zm-3.5671-3.969c-.0025-.0178-.04-.0045-.0491-.0134s.0579-.0487.0292-.05-.1079.0976-.1559.1154-.1481.0611-.1865.015.1723-.1231.1439-.15a.2881.2881,0,0,0-.236.0387,1.3475,1.3475,0,0,1-.2081.1254,1.404,1.404,0,0,1-.224.1018c-.0787.023-.1445.0819-.0895.114s.0123-.0275.042-.0228c.01.0017-.0225-.0132-.009-.023a.5621.5621,0,0,1,.2141-.0431c.04-.0026-.0339-.0144.0016-.026s.2-.04.22.0134-.1677.0417-.1767.0578.0608.034.0592.0606-.0978.0247-.0712.069-.065.0768-.0669.0919.1163.01.1639.0078.0785-.0917.1239-.136.1329-.0223.0863.0295a.1935.1935,0,0,0-.055.084c-.0131.03-.0819.0166-.052.0413s.1959-.13.2375-.1638-.0815-.0353-.0555-.0637.26-.0584.2717-.1-.0391.0311-.0406,0,.0424-.0473.0526-.075A.3769.3769,0,0,0,25.041,20.3948Zm1.168.7138c-.04,0-.252-.0054-.2964.0673s-.0469.0782-.0824.1349a.2233.2233,0,0,1-.1271.0986.1693.1693,0,0,1-.18-.04c-.0381-.0412-.102.0018-.1329-.0293s-.09-.0543-.1117-.0259.0931.03.1071.0556.099.1369.0495.155-.0648,0-.0867.0354-.0194.0581-.0506.0769c-.0127.0078.0266.005.0163.0168-.0245.0283-.0817.013-.1113.0194-.011.0023.0045.0142.0014.0219-.0089.0217-.1281-.0343-.105.0077s.1947.0662.275.06.2167-.06.2339-.1347.1248-.0739.1665-.1129a.8487.8487,0,0,0,.112-.1355c.0182-.0294-.0387.0239-.0219-.0016a.3529.3529,0,0,1,.1185-.1111.3377.3377,0,0,0,.1109-.0581c.009-.0134-.0623.0237-.0614.0088s.0875-.0388.0852-.044-.0689.0172-.0787-.0049.0891.0159.0553-.0182-.2107.1573-.221.1205.2765-.1966.2976-.1164S26.2487,21.1091,26.209,21.1086Zm1.5789,2.31c.0188-.0078.0121-.057.0348-.0554s-.0156.0435-.0009.0454-.0086-.0257.0188-.0274.0288.1107.0249.1158.0343-.0691.059-.0492-.0151.09-.0189.105.0572-.0565.04-.0293a.2458.2458,0,0,0-.0311.1906c.0308.06.0472-.0378.05-.0578s.0357.0279.0306-.0028.02-.1081-.0175-.1543a.4288.4288,0,0,1-.08-.1648,2.7093,2.7093,0,0,1-.1074-.4195c-.0024-.0214-.0093-.0061-.0155-.0065-.0132-.0011-.036.0464-.0486.0346s.0463-.0751.0466-.0782-.0046-.0344-.0274-.0186c-.06.0414.0175.1375.0062.1511s-.1115-.05-.147.0578.0549.108.0628.1334.0193.1893.0752.2128S27.7691,23.4263,27.7879,23.4185Zm-8.8751-.9545a.368.368,0,0,0-.1979.042c-.0112.0211.1232.0823.147.067a.1884.1884,0,0,1,.0791-.031c.01-.0007.0041-.0123-.0045-.0228S18.9323,22.48,18.9128,22.464Zm5.0333-3.41c.0529.0262.1527.0243.2154.1058a.1281.1281,0,0,0,.2053.0008.3317.3317,0,0,1,.0665-.057c.0325-.0273-.0021.035.0316.0175s.0936-.0371.1194-.0857-.0186-.1519.03-.1941.11-.0428.1342-.1089.02-.0548.0967-.1046a2.0373,2.0373,0,0,0,.3456-.2361c.0643-.0762.0471-.089-.0135-.131a.6837.6837,0,0,0-.1571-.0735.3321.3321,0,0,0-.2915.0688c-.0482.0524.0511-.0673-.014-.037s-.238-.0575-.3335-.0265a2.3851,2.3851,0,0,0-.3818.1393c-.0557.0411.1553.1287.0864.1828s-.0761.1777-.0911.2285-.0444.0727-.0539.1362-.101.1418-.068.187S23.8933,19.0283,23.9461,19.0544Zm.4573-1.2918c.0645.0031.0107-.03.0531-.0793s.0711.0479.0852.0661.09-.04.1073-.0655-.0464-.0973-.0042-.1143.0548.0662.1014.0144-.0188-.0657-.0172-.0838.0933-.0418.0722-.0816.0915-.0748.0636-.0243-.0046.1646.1025.1222.1694-.17.1125-.2141.1227-.0212.04-.0372.0278-.0891.041-.1289-.1806-.0406-.1993-.0089.049.001.03.031-.0763.0253-.1251.0177-.062.015-.1256.0367a.5811.5811,0,0,0-.1933.1612c-.0567.0638-.109.1938-.2035.22s-.16.12-.0913.1672S24.3389,17.76,24.4034,17.7626Zm1.0058-.8573c-.0157-.0383-.1653-.041-.18-.0029s.0973.059.1082.0592S25.4249,16.9435,25.4092,16.9053Zm-4.8329,5.8922c.02.031.0953-.0235.1057-.0478.006-.014.018.0213.0214.014.0021-.0047.0251-.0249.0154-.03s-.0607-.0351-.0808-.029S20.5565,22.7665,20.5763,22.7975Zm2.77.754c-.0011-.0664-.1352-.0937-.1667-.0238s.2064.4305.2557.3764-.0416-.012-.0474-.0707S23.3475,23.6179,23.3464,23.5515ZM20.4649,22.89a.1026.1026,0,0,0,.0044.19c.0925.0254.0487-.0743.11-.07s.0535-.06.0691-.0774.0655.004.0559-.04-.0055.0537-.0356-.0243S20.5432,22.8513,20.4649,22.89Zm3.9441,1.6245c-.0355-.0562-.0567-.0286-.0981-.0561a.1388.1388,0,0,1-.0748-.0944c-.0256-.0658-.1461-.1184-.2-.1322s-.2309-.0945-.2049-.0339a1.4106,1.4106,0,0,0,.5221.4306C24.511,24.7122,24.4445,24.5705,24.409,24.5143Zm23.32,6.6654c-.0309-.0689-.1234-.189-.1371-.0808s-.0468.1207-.1082.1824a.77.77,0,0,1-.1626.146,2.2275,2.2275,0,0,1-.2408.0809c-.0679.031-.0711.1341-.062.2075s.0738.1855.0619.2748-.0944.1541-.1215.24a.4257.4257,0,0,0,.02.26c.027.0813.032.1981.0568.264a.176.176,0,0,0,.1867.0878c.0587-.0166.1247.0049.1826-.0646a1.6086,1.6086,0,0,0,.0621-.208c.0412-.1173.1459-.55.1985-.6919a1.3829,1.3829,0,0,0,.04-.3812c.0109-.0785.0285.0961.0644.0361a.6.6,0,0,0-.03-.3343C47.7122,31.15,47.7333,31.1891,47.7291,31.18Zm8.6067-.6005c-.0317.0275-.0014.16-.01.2132s.1084.0939.0835.1212a.107.107,0,0,0,.0318.1515c.0649.0281.0669.0158.1071.05s.0294.0844.0517.0972.0028-.0949.0378-.0847.0661.0809.0627.1227a.1117.1117,0,0,0,.0828.1012c.0357.0007-.04-.1321-.0129-.1268s.0884.0147.0542-.0434-.023.0221-.0533,0a.4125.4125,0,0,1-.0676-.0787.2918.2918,0,0,0-.0688-.0628c-.0325-.0225-.027.038-.069.0139s-.0342-.09-.0436-.15a.32.32,0,0,1,.0326-.148c.0131-.05.0373.0251.0595.0025s.0163-.0379.035-.0793a.2932.2932,0,0,0-.0058-.1637c-.0127-.0467.0651-.1088.0231-.1333a.5568.5568,0,0,1-.1237-.0877c-.033-.035-.0733-.0361-.0934.0072s-.05.18-.0656.2272.0275.0979.0068.12S56.3674,30.5517,56.3358,30.5792Zm.37-1.1744c.0345-.0626.1-.256-.0161-.2473s-.1564.1214-.187.1989.0152.2993.0631.3089S56.6711,29.4673,56.7057,29.4048Zm-.5394,1.8929c-.0116.0276-.08.1634-.1358.1845s-.2011.1158-.1813.1478.2138-.0451.2207-.1072.1071-.0439.116-.0554c.0243-.0316.0078-.1061.0112-.1232S56.1778,31.27,56.1663,31.2977Zm.7619.5766c-.02-.0152-.03-.0893-.0579-.0872s.012.1025-.0106.096-.0227.01-.0545-.0056-.0444.0309-.0591.0318a1.3,1.3,0,0,0-.1271.0322c-.0042.0027.0475-.0817-.0193-.0977s-.0261.0681-.0893.0565-.1633.1-.1257.1164.1041-.1041.1126-.0349.03-.04.0392-.01-.0023.0415.0257.0511-.04-.058.0221-.0455.0364.1148.0275.1854.0745.1054.1249.1014c.007-.0006.01-.004.0124.0041.022.0856.0588.0595.05-.0042s0-.1316.0427-.1336.0021.133.0208.1362.0081-.0615.023-.0715c.0084-.0056.0047.025.0186.0136a.2042.2042,0,0,0,.0413-.1706c-.021-.0249.0129-.0307.0033-.0452s-.028-.0108-.0275-.0239.0172,0,.029-.0216A.066.066,0,0,0,56.9282,31.8743ZM55.79,34.1814c-.0155-.0887-.1794-.1647-.1841-.1024S55.805,34.27,55.79,34.1814Zm-.3536-.3066c-.0412-.03-.0723-.07-.1053-.0815s-.1243.0036-.0775.0566a.55.55,0,0,0,.31.11c.1381.016-.024-.13-.0667-.1187S55.4773,33.9045,55.436,33.8748Zm.4943.2187c.0292.0144.026-.0218.06-.0038s.0792-.0194.1212-.0043.2368.0984.2465.06-.1663-.06-.2081-.0823-.0675-.0084-.1089.0028-.03-.0331-.0841-.0332-.1525-.112-.2162-.0768.0766.1074.1116.1121A.2061.2061,0,0,1,55.93,34.0935Zm.1731-.4586a.0961.0961,0,0,0,.0555.0839c.0212.006.0645-.0337.0428-.0793s.0243-.0045.0326-.0463-.0528-.0055-.0584-.0086S56.0985,33.5872,56.1034,33.6349Zm-1.467-1.3175c-.01.0329.0227.0781.0244.1053s-.029.016-.0252.041a.2673.2673,0,0,0,.0091.0734c.0107.0268-.002.0292.01.0584s.0229-.0411.0494-.0076a.6179.6179,0,0,1,.0106.2553c-.0071.0724.1339.0578.17.0592s-.0378.0966.0139.0875a.2527.2527,0,0,1,.2084.052c.04.0537.0511.01.0839.0369s.0026.0866.0237.1031.1568-.0258.1691-.0192-.0156.0943.0217.0609.0287-.1648.054-.2229.0331-.0767.1032-.0988.0851-.0827.098-.14.0285-.1284.1007-.0977.1007.0162.061-.0489-.0513-.0549-.0655-.1.03-.016.02-.069a.5342.5342,0,0,1-.0247-.2106c.0171-.065.1268-.008.1479-.0178s-.0431-.0658-.027-.0806.1114.0207.1232-.0009-.0313-.0441-.0589-.0621-.0328-.0587-.0547-.0969-.0669-.1479-.1274-.1556-.13.08-.1773.1117-.0333.0917-.1011.0885a.2122.2122,0,0,0-.17.0492c-.0522.0457-.0738.0919-.1473.0935s-.1094-.0182-.1837.026-.0176.11-.04.1389-.1708-.1389-.175-.1677-.07-.005-.0836.0109A.9019.9019,0,0,0,54.6364,32.3174Zm1.6281,2.0353c.0274-.0208.0521-.054.0994-.0525s.2427-.0171.2435-.0589-.1287-.0287-.1568-.0417a.1658.1658,0,0,0-.0814-.01c-.0252.0014-.0106.0273-.0425.0323a.4533.4533,0,0,0-.1517.0295.1586.1586,0,0,0-.0421.1C56.1329,34.37,56.2371,34.3736,56.2645,34.3527Zm-25.0029-4.929c.0484-.0013.08-.0489.1141-.0327s.0193.1153.0707.0776.0142-.108.0535-.1508.02-.0009.07-.0128.1462-.0837.204-.0952.0738.0078.0906-.05-.03-.0646-.0763-.0649a.0992.0992,0,0,1-.1052-.0612c-.023-.0509-.0364-.0106-.0756-.0155s-.0876-.0185-.1213.0065a.2883.2883,0,0,1-.0957.059c-.0437.0137-.2056.0443-.2061.0815s.1484.1006.1269.1573-.3058.0466-.2653.1192S31.2132,29.4249,31.2616,29.4237Zm7.9465-12.1493c.089.0024.0976-.1109.12-.1477s.1346-.0534.1183-.1152a.3881.3881,0,0,0-.0409-.1227c-.0317-.0628-.1206.0474-.1491-.0326s-.2215-.1647-.2513-.0515-.1866.052-.2228.08.0343.1089.01.1049-.0622-.0884-.1244-.0715-.0584.1026-.058.12-.1175-.106-.12-.0489a.1218.1218,0,0,1-.0458.11c-.04.0373-.0308.1255-.0524.136s-.0837-.09-.0815-.1005.0653-.0321.0479-.0681-.0476-.0194-.0848-.0382-.1392-.0842-.1688-.03.0724-.02.0847.0369-.1091.0262-.159.07.0373.0464.0269.0819-.0673.0163-.0821.0167.0018.0353-.0043.0415-.0794.0212-.0488.0406.153-.0349.1926-.0673a.2342.2342,0,0,1,.1707-.0089c.0182.0114-.1.0612-.0913.0806s.09-.0094.0963-.0133c.0033-.002.0306.0067-.0029.0312s-.2624.068-.2882.1284.2326-.03.2324-.0251.0049.0591.0361.0464-.0083.0288.0019.032.0334-.018.0308.0008-.1617.1435-.11.1629.1936-.0845.2482-.09.033.0417.0729.0542.0684-.0036.1212-.0042a.3811.3811,0,0,0,.191-.0607c.0412-.0344.0263-.05.069-.0717a1.0522,1.0522,0,0,0,.1214-.0512C39.0646,17.4,39.119,17.2719,39.2081,17.2744Zm-1.0029-1.52c-.0159-.1156-.0939-.1446-.07-.2817a1.8462,1.8462,0,0,1,.1689-.52c.0752-.12.1623-.21.21-.3045s-.0369-.1629-.0416-.2435a.3237.3237,0,0,0-.0748-.2169c-.0545-.0537-.2053-.0411-.2175-.1168s.2944-.2991.2726-.3794-.2093-.0748-.2359-.1975.0687-.2438.13-.3457a1.1656,1.1656,0,0,1,.2477-.2495,1.7161,1.7161,0,0,0,.2382-.2692c.0387-.0614-.1093-.025-.0643-.0646s.2365-.0659.2948-.1332.3256-.1928.3114-.2469-.2846-.0649-.38-.0771a.52.52,0,0,0-.3524.104c-.0591.07-.0586.129-.1406.1421a2.3036,2.3036,0,0,1-.2438.0174c-.0874.0047-.3044.1956-.3312.2055s.1466-.2969.0377-.2824-.2424.06-.2833.0088.4421-.1949.3613-.2359a2.1364,2.1364,0,0,0-.81-.0971,5.6439,5.6439,0,0,0-.9683.1495c-.2016.06-.2632.0837-.376.12s-.1035.0119-.1731.06-.0419.1619-.1383.1774-.1844.0153-.2939.0258a.7511.7511,0,0,0-.3671.0664,4.7466,4.7466,0,0,0-.4452.3219c-.0372.05.4562.1641.3712.2033-.13.06-.6088-.0437-.78-.0023a1.4584,1.4584,0,0,0-.3238.1174c-.1509.063-.4262.1683-.5737.2322s-.191.0371-.3142.1329a3.9092,3.9092,0,0,0-.3423.2747,5.9773,5.9773,0,0,0-.76.6318c-.06.0908.32-.0063.3249.0243A1.1375,1.1375,0,0,1,32,14.7523c-.0265.0709-.0367.0816-.1358.1116a1.8732,1.8732,0,0,0-.3514.1625c-.1134.0658-.3705.1987-.46.2592s-.0414.1076-.05.1676.0483.0614.089.1122.1021.16.1851.1918.1984.07.2859.0975.1411.1025.2449.0752.1936-.0782.3231-.1229a2.3932,2.3932,0,0,1,.5363-.0935,2.0565,2.0565,0,0,1,.3048-.0264c.1087.0141.1066.0984.2013.1851a2.4854,2.4854,0,0,1,.305.4776.2509.2509,0,0,1,.04.2325c-.02.0977-.0875.1862-.0063.2565s.17.097.1547.2114-.0684.1918.0134.282.1417.0511.2258.0111.2366-.1644.28-.157-.01.1724-.0108.2187-.0711.0551-.1111.0928a1.5666,1.5666,0,0,0-.1913.1442c-.0384.0519-.0114.0544-.0207.142a.8682.8682,0,0,0-.02.3827c.0459.1239.1008.247.163.3969a2.6679,2.6679,0,0,0,.3567.5144c.1.1181.16.2271.2379.3067s.1184.0368.2115.0426a1.5722,1.5722,0,0,0,.3527.0285c.0883-.0213.1484.0542.2095-.0851s.1472-.5722.2028-.7626.1208-.4612.1692-.6073.0288-.11.1266-.1848.2509-.1545.35-.221a1.51,1.51,0,0,0,.2539-.1626,1.9069,1.9069,0,0,0,.1917-.3067c.06-.0883.05-.1148.15-.1756s.2016-.1107.3371-.1859a2.38,2.38,0,0,0,.489-.2824c.1384-.1287.3986-.3471.5113-.4694S38.2211,15.87,38.2052,15.7543ZM55.1,29.6487c.0275-.0023.0912.0254.1-.025a.1122.1122,0,0,1,.0715-.0906c.0346-.0147-.0032-.0885-.0269-.1041s.0193.0583-.0216.0161-.1915-.072-.2459-.0079-.0016.128.0234.1707.0392.0415.0711.0625S55.0722,29.651,55.1,29.6487Zm-1.0124,3.3919c.0359-.024.0286-.2027.0915-.29s-.101-.2043-.1309-.1918.0193-.0713-.0082-.1063.0189-.1123-.0165-.1457-.0825-.0573-.0876-.1049.0464-.054.0431-.1031-.0713-.08-.07-.1327-.0244-.0641-.0517-.1063-.01-.0573-.0535-.094-.0628-.0308-.092-.101-.109-.1753-.1523-.256a1.8767,1.8767,0,0,1-.141-.2659.3982.3982,0,0,0-.1155-.2185c-.062-.0389-.151-.1868-.1992-.1464s.0487.2279.0864.2964.1269.1536.124.25.0968.181.11.2643.0058.1387.0175.208.0285.0239.0622.103a2.5813,2.5813,0,0,1,.0738.3644,1.26,1.26,0,0,0,.1054.2722,3.23,3.23,0,0,0,.25.4722c.0545.06-.0015-.0555.0353-.0416S54.0514,33.0645,54.0873,33.0406Zm.3524-.3325c-.0469-.057-.087.048-.0454.0889S54.4865,32.7651,54.44,32.7081Zm.5579.9028c-.0955.0048-.092-.106-.116-.142s-.14-.031-.1639-.0925-.0444-.0278-.0739-.0006-.02,0-.0735-.0119a.3726.3726,0,0,1-.184-.1325.2532.2532,0,0,0-.1434-.1052.1972.1972,0,0,1-.0908-.0282c-.04-.0227-.0186-.0183-.0764.0187s.0221.11.0669.1283-.0384.0134.0016.0375.1449.11.1927.1356.0824.0068.1229.0248a.601.601,0,0,1,.1048.076.6607.6607,0,0,0,.09.063c.03.0146.05.0236.0767.0353s.0106-.02.0446-.0048a1.0732,1.0732,0,0,0,.1739.0756c.0411.0055.1126.1176.1241.0916S55.093,33.606,54.9976,33.6109Zm-.8868-1.12c-.01.0371.0355.03.0508.0458a.1752.1752,0,0,1,.0289.07c.0057.0217.0166.0544.0213.0723s.0629.0657.0577.0516.0309-.0392.0177-.0635a1.7339,1.7339,0,0,0-.0923-.21c-.0243-.0243.0036.0582-.0082.0264A.041.041,0,0,0,54.1108,32.4911Z" fill="#fff"/><path d="M99.7549,40.7528,98.66,44.1981H97.2524L100.834,33.245h1.642l3.5972,10.9531h-1.4541l-1.1264-3.4453Zm3.4565-1.105-1.0322-3.1523c-.2349-.7154-.3911-1.3653-.5474-1.9991h-.0312c-.1568.65-.3287,1.3164-.5323,1.9825l-1.0322,3.1689Z" fill="#173244"/><path d="M107.6191,44.1981V33.245h1.4859l3.3784,5.5415a31.4136,31.4136,0,0,1,1.8926,3.5591l.0312-.0162c-.125-1.4628-.1562-2.7954-.1562-4.5014V33.245h1.2822V44.1981h-1.376L110.81,38.6405a35.1592,35.1592,0,0,1-1.9707-3.6563L108.7925,35c.0781,1.3814.1093,2.6978.1093,4.5176v4.68Z" fill="#173244"/><path d="M119.6123,40.7528l-1.0947,3.4453H117.11l3.5816-10.9531h1.6421l3.5971,10.9531h-1.4546l-1.1259-3.4453Zm3.4565-1.105-1.0322-3.1523c-.2344-.7154-.3906-1.3653-.5474-1.9991h-.0312c-.1563.65-.3281,1.3164-.5318,1.9825l-1.0322,3.1689Z" fill="#173244"/><path d="M127.477,33.245h1.3609v9.7666h4.5044v1.1865H127.477Z" fill="#173244"/><path d="M135.89,44.1981V39.5506l-3.331-6.3056h1.5483l1.4858,3.0229c.4063.8286.7193,1.4951,1.0479,2.2588h.0312c.2969-.7153.6568-1.43,1.0635-2.2588l1.5171-3.0229h1.5484l-3.5347,6.289v4.6641Z" fill="#173244"/><path d="M141.6118,42.4754a4.6871,4.6871,0,0,0,2.44.7154c1.3921,0,2.2051-.7642,2.2051-1.8692,0-1.0239-.563-1.6089-1.9863-2.1772-1.72-.6338-2.7837-1.56-2.7837-3.104,0-1.7066,1.3608-2.9741,3.41-2.9741a4.6407,4.6407,0,0,1,2.33.5366l-.375,1.1538a4.074,4.074,0,0,0-2.0019-.52c-1.439,0-1.9863.8935-1.9863,1.6411,0,1.0239.6411,1.5273,2.0957,2.1128,1.7827.7148,2.69,1.6084,2.69,3.2173,0,1.69-1.2041,3.1528-3.6909,3.1528a5.2946,5.2946,0,0,1-2.69-.6987Z" fill="#173244"/><path d="M150.8686,33.245V44.1981h-1.36V33.245Z" fill="#173244"/><path d="M153.0576,42.4754a4.6866,4.6866,0,0,0,2.4394.7154c1.3921,0,2.2056-.7642,2.2056-1.8692,0-1.0239-.563-1.6089-1.9863-2.1772-1.72-.6338-2.7842-1.56-2.7842-3.104,0-1.7066,1.3608-2.9741,3.41-2.9741a4.6429,4.6429,0,0,1,2.3305.5366l-.3755,1.1538a4.074,4.074,0,0,0-2.0019-.52c-1.439,0-1.9863.8935-1.9863,1.6411,0,1.0239.6411,1.5273,2.0957,2.1128,1.7832.7148,2.69,1.6084,2.69,3.2173,0,1.69-1.2046,3.1528-3.6914,3.1528a5.2911,5.2911,0,0,1-2.69-.6987Z" fill="#173244"/><path d="M165.9731,40.7528l-1.0947,3.4453h-1.4077l3.5815-10.9531h1.6421l3.5977,10.9531h-1.4546l-1.126-3.4453Zm3.4566-1.105-1.0323-3.1523c-.2343-.7154-.3911-1.3653-.5473-1.9991h-.0313c-.1567.65-.3286,1.3164-.5317,1.9825l-1.0322,3.1689Z" fill="#173244"/><path d="M173.8379,44.1981V33.245h1.4858l3.3779,5.5415a31.3975,31.3975,0,0,1,1.8926,3.5591l.0313-.0162c-.125-1.4628-.1563-2.7954-.1563-4.5014V33.245h1.2822V44.1981h-1.3759l-3.3472-5.5576a35.1214,35.1214,0,0,1-1.9707-3.6563L175.0107,35c.0781,1.3814.1094,2.6978.1094,4.5176v4.68Z" fill="#173244"/><path d="M184.126,33.3915a18.7891,18.7891,0,0,1,2.8935-.2276,5.8886,5.8886,0,0,1,4.27,1.3653,5.1478,5.1478,0,0,1,1.4859,3.9326,5.9228,5.9228,0,0,1-1.5171,4.2573,6.3426,6.3426,0,0,1-4.6612,1.5767,21.0843,21.0843,0,0,1-2.4711-.13Zm1.3608,9.6855a8.29,8.29,0,0,0,1.3765.0811c2.9091,0,4.4887-1.69,4.4887-4.6475.0157-2.584-1.3921-4.2256-4.27-4.2256a7.4589,7.4589,0,0,0-1.5952.1465Z" fill="#173244"/><path d="M206.7378,39.388c-.0782-1.5278-.1719-3.3637-.1563-4.729h-.0469c-.36,1.2837-.7978,2.649-1.33,4.16l-1.8614,5.314h-1.0322l-1.7046-5.2163c-.5-1.544-.9228-2.9581-1.22-4.2579h-.0313c-.0317,1.3653-.11,3.2012-.2036,4.8428l-.2812,4.6963h-1.2984l.7349-10.9531h1.7363l1.7988,5.2978c.4375,1.3487.7974,2.5513,1.0635,3.689h.0469c.2656-1.105.6411-2.3076,1.11-3.689L205.94,33.245h1.7358l.6568,10.9531h-1.3291Z" fill="#173244"/><path d="M211.9741,40.7528l-1.0947,3.4453h-1.4077l3.5815-10.9531h1.6421l3.5972,10.9531h-1.4546l-1.126-3.4453Zm3.4565-1.105-1.0322-3.1523c-.2349-.7154-.3911-1.3653-.5478-1.9991h-.0313c-.1562.65-.3281,1.3164-.5317,1.9825l-1.0323,3.1689Z" fill="#173244"/><path d="M219.8384,33.3753a15.1991,15.1991,0,0,1,2.6123-.2114,4.22,4.22,0,0,1,2.9555.91,2.9985,2.9985,0,0,1,.9229,2.291,3.2982,3.2982,0,0,1-.813,2.34,4.2744,4.2744,0,0,1-3.2222,1.2027,4.5222,4.5222,0,0,1-1.0947-.0977v4.3877h-1.3608Zm1.3608,5.2813a4.3874,4.3874,0,0,0,1.126.1138c1.6425,0,2.6435-.8286,2.6435-2.34,0-1.4463-.9853-2.1455-2.4868-2.1455a5.5069,5.5069,0,0,0-1.2827.1138Z" fill="#173244"/><path d="M228.1567,33.3753a15.2,15.2,0,0,1,2.6123-.2114,4.2206,4.2206,0,0,1,2.9556.91,2.9984,2.9984,0,0,1,.9228,2.291,3.2977,3.2977,0,0,1-.813,2.34,4.2742,4.2742,0,0,1-3.2221,1.2027,4.5212,4.5212,0,0,1-1.0947-.0977v4.3877h-1.3609Zm1.3609,5.2813a4.386,4.386,0,0,0,1.1259.1138c1.6426,0,2.6436-.8286,2.6436-2.34,0-1.4463-.9854-2.1455-2.4868-2.1455a5.5056,5.5056,0,0,0-1.2827.1138Z" fill="#173244"/><path d="M237.8359,33.245V44.1981h-1.36V33.245Z" fill="#173244"/><path d="M240.2124,44.1981V33.245h1.4858l3.3784,5.5415a31.4689,31.4689,0,0,1,1.8921,3.5591L247,42.3294c-.125-1.4628-.1563-2.7954-.1563-4.5014V33.245h1.2827V44.1981H246.75l-3.3472-5.5576a35.216,35.216,0,0,1-1.9707-3.6563L241.3852,35c.0782,1.3814.1094,2.6978.1094,4.5176v4.68Z" fill="#173244"/><path d="M258.5244,43.7108a9.5006,9.5006,0,0,1-3.2378.6011,5.2982,5.2982,0,0,1-3.9414-1.4463,5.7587,5.7587,0,0,1-1.47-4.0791,5.3856,5.3856,0,0,1,5.709-5.6553,6.3056,6.3056,0,0,1,2.6274.5039l-.3286,1.1538a5.2919,5.2919,0,0,0-2.33-.4712c-2.5654,0-4.2388,1.6577-4.2388,4.4038,0,2.7788,1.6109,4.42,4.0664,4.42a4.2974,4.2974,0,0,0,1.8145-.2924V39.5829h-2.1426V38.4452h3.4722Z" fill="#173244"/><path d="M272.9253,38.6078c0,3.77-2.2056,5.769-4.8955,5.769-2.7842,0-4.7388-2.2427-4.7388-5.5576,0-3.4775,2.08-5.7529,4.895-5.7529C271.0639,33.0663,272.9253,35.3578,272.9253,38.6078Zm-8.18.1787c0,2.34,1.22,4.4365,3.3628,4.4365,2.1587,0,3.3784-2.064,3.3784-4.55,0-2.1772-1.0947-4.4526-3.3628-4.4526C265.8716,34.22,264.7451,36.3817,264.7451,38.7865Z" fill="#173244"/><path d="M274.6894,33.245h5.6778v1.1865H276.05v3.64h3.9882v1.17H276.05v4.9565h-1.3609Z" fill="#173244"/><path d="M285.6191,33.3753a15.1944,15.1944,0,0,1,2.6118-.2114,4.2211,4.2211,0,0,1,2.9561.91,3,3,0,0,1,.9228,2.291,3.2984,3.2984,0,0,1-.8134,2.34,4.2726,4.2726,0,0,1-3.2217,1.2027A4.5168,4.5168,0,0,1,286.98,39.81v4.3877h-1.3609Zm1.3609,5.2813a4.3835,4.3835,0,0,0,1.1259.1138c1.6421,0,2.6431-.8286,2.6431-2.34,0-1.4463-.9854-2.1455-2.4868-2.1455a5.4973,5.4973,0,0,0-1.2822.1138Z" fill="#173244"/><path d="M302.9463,38.6078c0,3.77-2.2051,5.769-4.8955,5.769-2.7837,0-4.7388-2.2427-4.7388-5.5576,0-3.4775,2.08-5.7529,4.895-5.7529C301.0849,33.0663,302.9463,35.3578,302.9463,38.6078Zm-8.18.1787c0,2.34,1.22,4.4365,3.3623,4.4365,2.1587,0,3.3784-2.064,3.3784-4.55,0-2.1772-1.0947-4.4526-3.3628-4.4526C295.8926,34.22,294.7666,36.3817,294.7666,38.7865Z" fill="#173244"/><path d="M304.7109,33.245h1.36v9.7666h4.5044v1.1865h-5.8648Z" fill="#173244"/><path d="M313.4516,33.245V44.1981h-1.3608V33.245Z" fill="#173244"/><path d="M323.1943,43.8407a6.54,6.54,0,0,1-2.7842.52c-2.9716,0-5.208-1.95-5.208-5.5415,0-3.4287,2.2364-5.7529,5.5054-5.7529a5.4633,5.4633,0,0,1,2.5024.4878l-.3286,1.1538a4.7941,4.7941,0,0,0-2.1269-.4551c-2.4712,0-4.1133,1.6411-4.1133,4.5176,0,2.6811,1.4858,4.4038,4.0508,4.4038a5.2671,5.2671,0,0,0,2.2207-.4551Z" fill="#173244"/><path d="M326.2573,33.245V44.1981h-1.3608V33.245Z" fill="#173244"/><path d="M334.0918,39.0628h-4.0977v3.9488h4.5669v1.1865h-5.9277V33.245h5.6933v1.1865h-4.3325v3.4614h4.0977Z" fill="#173244"/><path d="M336.1386,42.4754a4.6871,4.6871,0,0,0,2.44.7154c1.3921,0,2.2051-.7642,2.2051-1.8692,0-1.0239-.563-1.6089-1.9864-2.1772-1.72-.6338-2.7837-1.56-2.7837-3.104,0-1.7066,1.36-2.9741,3.4092-2.9741a4.6418,4.6418,0,0,1,2.3306.5366l-.3755,1.1538a4.0723,4.0723,0,0,0-2.0019-.52c-1.4385,0-1.9864.8935-1.9864,1.6411,0,1.0239.6416,1.5273,2.0962,2.1128,1.7827.7148,2.69,1.6084,2.69,3.2173,0,1.69-1.2041,3.1528-3.691,3.1528a5.2934,5.2934,0,0,1-2.69-.6987Z" fill="#173244"/><path d="M116.167,24.1083a10.4788,10.4788,0,0,1-1.9077,1.2021,10.6219,10.6219,0,0,1-2.1939.78,11.24,11.24,0,0,1-2.6138.2807,10.0474,10.0474,0,0,1-4.2065-.874,10.38,10.38,0,0,1-3.3355-2.3882,10.9663,10.9663,0,0,1-2.2085-3.5742,12.1906,12.1906,0,0,1-.7963-4.4326,12.1066,12.1066,0,0,1,.7963-4.4014A11.3428,11.3428,0,0,1,101.91,7.0956a10.1915,10.1915,0,0,1,7.6319-3.3243,12.3555,12.3555,0,0,1,2.5991.25,10.5444,10.5444,0,0,1,2.1484.7021,9.6426,9.6426,0,0,1,1.833,1.0928,16.1154,16.1154,0,0,1,1.6226,1.42l-1.6226,1.81a13.3,13.3,0,0,0-2.8994-2.1538,8.273,8.273,0,0,0-6.9409-.1562,7.9074,7.9074,0,0,0-2.5845,1.9043,8.8792,8.8792,0,0,0-1.7124,2.8559,9.9934,9.9934,0,0,0-.6162,3.543,10.1148,10.1148,0,0,0,.6162,3.5586,8.8385,8.8385,0,0,0,1.7124,2.8721,8.1037,8.1037,0,0,0,2.5845,1.92,7.466,7.466,0,0,0,3.23.7021,7.8575,7.8575,0,0,0,3.7256-.8271,13.0083,13.0083,0,0,0,3.0649-2.3257l1.5625,1.5923A15.19,15.19,0,0,1,116.167,24.1083Z" fill="#173244"/><path d="M141.1513,19.3636a11.3643,11.3643,0,0,1-2.1933,3.6055,10.46,10.46,0,0,1-3.3955,2.4814,10.9595,10.9595,0,0,1-8.7588.0157,10.4177,10.4177,0,0,1-3.38-2.45,10.9575,10.9575,0,0,1-2.1787-3.59,12.2176,12.2176,0,0,1-.7661-4.3237,12.0066,12.0066,0,0,1,.7812-4.3232,11.3576,11.3576,0,0,1,2.1934-3.6055,10.47,10.47,0,0,1,3.3955-2.4819,10.9611,10.9611,0,0,1,8.7588-.0152,10.4343,10.4343,0,0,1,3.38,2.45,10.9716,10.9716,0,0,1,2.1782,3.59,12.2223,12.2223,0,0,1,.7661,4.3232A12.0042,12.0042,0,0,1,141.1513,19.3636Zm-2.2983-7.7885a8.7181,8.7181,0,0,0-1.728-2.8716,8.3758,8.3758,0,0,0-2.6289-1.9356,7.6662,7.6662,0,0,0-3.32-.7182,7.8048,7.8048,0,0,0-5.92,2.6225,9.0279,9.0279,0,0,0-1.6972,2.856,9.8884,9.8884,0,0,0-.6163,3.5117,10.016,10.016,0,0,0,.6163,3.5278,8.7035,8.7035,0,0,0,1.7275,2.8716,8.366,8.366,0,0,0,2.6289,1.9356,7.6584,7.6584,0,0,0,3.32.7177,7.8021,7.8021,0,0,0,5.9194-2.622,9.0365,9.0365,0,0,0,1.6978-2.8565,9.9063,9.9063,0,0,0,.6157-3.5117A10.04,10.04,0,0,0,138.853,11.5751Z" fill="#173244"/><path d="M161.5537,4.1459h2.5542l-9.0444,22.0073H152.96L143.916,4.1459h2.644l7.482,18.8232Z" fill="#173244"/><path d="M170.8384,4.1459v21.851h-2.3736V4.1459Z" fill="#173244"/><path d="M194.6655,19.3636a10.1609,10.1609,0,0,1-2.2988,3.48,10.8222,10.8222,0,0,1-3.5454,2.31,11.8233,11.8233,0,0,1-4.522.8427h-7.3018V4.1459h7.3018a12.0255,12.0255,0,0,1,4.522.8271,10.6305,10.6305,0,0,1,3.5454,2.2944,10.2048,10.2048,0,0,1,2.2988,3.4649,11.3378,11.3378,0,0,1,.811,4.3076A11.4552,11.4552,0,0,1,194.6655,19.3636ZM192.3969,11.7a8.2013,8.2013,0,0,0-1.7426-2.7627,8.02,8.02,0,0,0-2.75-1.8418,9.35,9.35,0,0,0-3.6055-.6709h-4.9277V23.7181h4.9277a9.5425,9.5425,0,0,0,3.6055-.6553,7.8369,7.8369,0,0,0,2.75-1.8261,8.2817,8.2817,0,0,0,1.7426-2.7315,9.1956,9.1956,0,0,0,.6158-3.4028A9.3573,9.3573,0,0,0,192.3969,11.7Z" fill="#173244"/><path d="M215.667,3.9872h5.6186l8.9531,22.01H223.99l-1.5322-3.9023h-8.1123l-1.502,3.9023h-6.1294Zm5.1079,13.393-2.3438-6.2124L216.0576,17.38Z" fill="#173244"/><path d="M232.2842,4.1434h6.1591l5.0171,8.4605,5.0176-8.46h6.1592V25.9969h-5.7988v-12.55l-5.378,8.5542h-.12l-5.3481-8.4917V25.9969h-5.708Z" fill="#173244"/><path d="M258.3647,4.1434h9.0137c5.3179,0,8.7427,2.8408,8.7427,7.68v.0625c0,5.1514-3.8155,7.8672-9.0435,7.8672h-2.8843v6.2441h-5.8286Zm8.5928,10.8643c2.0732,0,3.335-1.1241,3.335-2.8408v-.0625c0-1.8731-1.2618-2.8721-3.3648-2.8721h-2.7344v5.7754Z" fill="#173244"/></g></g></svg>