<svg xmlns="http://www.w3.org/2000/svg" width="377.9394" height="48.8482" viewBox="0 0 377.9394 48.8482"><g id="Layer_2" data-name="Layer 2"><g id="Layer_1-2" data-name="Layer 1"><path d="M39.1744,48.8482a4.62,4.62,0,0,1-2.2815-.6022L2.3416,28.6413a4.6229,4.6229,0,0,1-.0457-8.0153L36.6213.6287a4.6229,4.6229,0,0,1,6.95,3.9679l.226,39.6024a4.623,4.623,0,0,1-4.623,4.6492Z" fill="#173244"/><path d="M38.966,0a4.6182,4.6182,0,0,1,2.2814.6023L75.7988,20.207a4.6228,4.6228,0,0,1,.0457,8.0152L41.5191,48.22a4.623,4.623,0,0,1-6.95-3.968L34.343,4.6492A4.6231,4.6231,0,0,1,38.966,0Z" fill="#409385"/><path d="M39.3948,48.843q-.11.0052-.22.0052a4.62,4.62,0,0,1-2.2815-.6022L2.3416,28.6413a4.6229,4.6229,0,0,1-.0457-8.0153L36.6213.6287A4.6184,4.6184,0,0,1,39.3987.022" fill="#409385"/><path d="M37.1158,17.0438c-.01.0409.0489.0275.0543.0532s-.1156.0317-.13-.0331c-.005-.0227.0073-.0221.0119-.03s.0253.0193.03.0164-.0017-.036.0044-.0341S37.1255,17.003,37.1158,17.0438Zm-11.6542-.575c-.0175-.0216-.0369.0785-.0559.0284s-.148-.0438-.1705-.04.14-.128.1417-.1449-.0428-.0131-.0464-.0292.0887-.0534.0677-.0722a.1553.1553,0,0,0-.15.0015.2064.2064,0,0,1-.1606.0464.2862.2862,0,0,0-.1659.0334c-.0411.018-.09.09-.0844.1156s.1385-.0089.1488.0513-.0128.15-.0776.1513-.0908-.083-.1383-.06-.12.0723-.0483.1179a2.2033,2.2033,0,0,1,.3108.1553c.0647.0623.0571.0923.1436.1034s.0627-.0836.119-.1139.2407-.1732.1624-.2176.0643-.0243.0431-.05S25.4791,16.49,25.4616,16.4688Zm11.495.6035c0,.0123.005.09.0168.0834s.01-.0968.0179-.1069-.0408-.0058-.0463.0032S36.9567,17.06,36.9566,17.0723Zm-8.998.1415c.0971.0883.1843.0531.2147-.0128s.0775-.1356.0216-.2183S27.8615,17.1255,27.9586,17.2138Zm.7146-1.1846c-.0214-.0781-.1816-.0327-.2574.0075s-.1615-.1136-.224-.1549a.371.371,0,0,0-.2621-.0311.4908.4908,0,0,0-.1539.0669c-.0413.0332-.0475.1291-.1116.1169a.1083.1083,0,0,0-.1383.054c-.0385.0619-.0866.053-.0582-.0092a.1722.1722,0,0,0,.0085-.1669c-.03-.0516-.0556-.0475-.0846-.0828s-.0194-.1054-.0751-.1009a.2885.2885,0,0,0-.1459.03c-.0606.032-.2107.1572-.27.162s.0726-.1039-.0028-.1077a.745.745,0,0,0-.339.1274.6429.6429,0,0,0-.2032.29.6556.6556,0,0,0-.0629.2185c.0085.06-.01.1582.0446.1679s.2865-.0295.2975.0321-.2575.0078-.261.0594.1177.1166.1775.1314.0682-.021.1318-.0474.04.02.0836.0506.0834.0182.1462.0058a1.51,1.51,0,0,1,.2968-.0561c.061.0084.0627.0119.1.0147s.0189-.0483.05-.0507.0811.0475.1029.0256-.1387-.0688-.0911-.0809.3165.0139.3657-.0581-.0925-.0528-.0771-.1033.0865.0235.1164.0442.0642-.0311.0819-.0123.0013.11.03.0827.2417.0306.2326.0781-.146.1228-.1014.1651.0926-.0712.1432-.0841.0557-.0514.1.0109.1629.0424.2028.1036a1.2993,1.2993,0,0,1,.1048.1676c.0231.0533-.0108.0337-.04.09a3.6308,3.6308,0,0,0-.21.2981c-.0114.0528.13.0349.0938.1028s-.1133.0563-.1728.1052-.238.0222-.28.0615a1.1,1.1,0,0,0-.1074.1654c-.0326.0465.0315.12.0877.1023a.3629.3629,0,0,0,.1889-.0922c.0422-.0565.1217-.0268.163-.042s-.02-.0325.02-.0656.031.0563.0717.0326a.1129.1129,0,0,1,.1565.0671c.03.0824.1361.02.1563.0512s-.1.0532-.0824.0822.1222.0247.15.0244-.04.0329-.0069.037.1381-.0017.187.0025.0131.0629.0835.06a2.4069,2.4069,0,0,0,.3635-.0029c.0563-.0213.02-.0954-.0121-.1126s-.1053-.0525-.1415-.0672-.098.01-.1195-.0191-.0786-.1-.0746-.1159.1084.0261.1259.02-.042-.0618-.01-.0566a2.3171,2.3171,0,0,1,.2245.0858c.0431.0184.1169.0941.1416.0793s-.0331-.0571-.0229-.072.0335.02.0453-.007-.0512-.1169-.0346-.1408.0569.0795.0634.055a.3235.3235,0,0,0-.0244-.1643c-.0245-.0375-.0787-.01-.0925-.0673s-.0118-.0743-.0724-.1063-.0872.0315-.1037.0383-.0384-.0947-.0547-.1391-.0629,0-.0827.0038-.0382-.0792-.0362-.0951.0925.0081.0963-.0214-.0659-.0726-.0355-.1192.0585-.0606.1085-.0407.074.0719.1278.0845.0878-.1.1307-.0722-.09.1-.0829.1335.177.1471.2322.1274-.0331-.2046.0082-.2114.1948-.0556.2092-.1111-.0909.01-.0838-.0352.1-.009.1278-.0443.0281-.1634-.0413-.1737-.1663.0574-.2043.0578.0727-.0907.0343-.0947-.1275.0172-.1767-.03a.2254.2254,0,0,0-.15-.0717,3.51,3.51,0,0,1-.3912-.062c-.0436-.0235.0924-.023.0931-.0493s-.0274-.0773-.0128-.1057.138.0258.1494-.0217-.0605-.0655-.0992-.04-.12.0275-.123-.0029.138-.0747.1669-.1027-.0893-.11-.1079-.0921-.1065.1554-.1221.1279a.1167.1167,0,0,0-.08-.0429c-.0141.0009.1974-.086.1543-.1385s-.3007-.1089-.34-.0471-.1016.1663-.1457.0918S28.6946,16.1074,28.6732,16.0292Zm-4.0164-.2819a.1124.1124,0,0,0-.0769.056c-.0078.0225.1215-.0609.0878-.0087s.0374.0776.1148.0412a1.1428,1.1428,0,0,1,.2426-.0888c.0423-.003-.048.0594-.0531.0511-.0028-.0045.0265.0141.0152.012s-.0818.041-.075.0547.0854-.01.09.0075-.0563-.0021-.0547.0293.055.0461.0935.0424.0194-.0411.0652-.0447.1808-.029.1994-.0657-.0586-.02-.0482-.04a.2771.2771,0,0,0,.0268-.0778c.0014-.0186.0355.0316.0412.01s-.0206-.0663-.0265-.0979.0174-.0812.0089-.1119-.0232-.0777-.06-.086-.0568-.04-.1106-.0054-.15.0294-.2285.0685.0674.0582.0785.0733-.0462.0136-.0482.0176.0961.11.0685.0819-.278-.1411-.2763-.0465.0852-.0407.0636.01-.0155.0535.0149.0725S24.684,15.7454,24.6568,15.7473Zm.0744,1.7407c.0072-.0441.07-.1.1163-.0537s-.0051-.0927.038-.0295.0953-.0907.0414-.1144-.2021-.0076-.263-.0536-.1461-.0143-.177-.0787.0218-.0778-.006-.1618a.7429.7429,0,0,0-.199-.3269c-.0785-.0387-.0941-.0656-.1323-.0217s-.1149-.0337-.1245-.0168a.2484.2484,0,0,0-.0161.0928c0,.0321.03.0547.0385.0979s.0861.1625.08.2023-.0723.0772-.0924.0188-.0529-.122-.08-.1962-.2152-.0646-.2441-.034.1128.0815.101.0987-.105-.0309-.1209.0124-.067.0846-.0974.0756.0626-.059.0322-.08-.17-.0784-.213-.06-.0436.0929-.0728.1013-.106.044-.1009.0272.1129-.145.0183-.1683-.0852.0072-.1713.0517a1.8291,1.8291,0,0,0-.3408.2711c-.0447.0557.0651,0,.0369.033s-.1229.1492-.0984.1882.0961-.0279.1171-.0137-.0323.0421-.0042.05.2283-.0742.2366-.0519-.2388.1341-.2342.174.0678.074.1372.0586.1807-.0427.2755-.0612a1.3382,1.3382,0,0,1,.3743-.0118c.0924.0167-.0426.0531-.0882.0724s-.1417-.0165-.2141.02-.3115.0249-.334.1669.3566.0965.4227.1064.01.1879.1386.1372.2694-.0731.37-.109.1366-.1.2014-.1294a.2585.2585,0,0,0,.1166-.0784c.031-.0373.05-.0876.0827-.0812s-.0286.0477.0008.0557.1384.0015.1685.0067-.0567.0339-.0147.0333a1.6793,1.6793,0,0,0,.2792-.0059c.0515-.0163.1286-.05.1243-.0941a.405.405,0,0,0-.031-.0936c-.012-.0414-.1392.0892-.1383.0886a.5066.5066,0,0,0-.0263-.1191c-.0115-.0116.0377.0023.0435-.0063S24.724,17.532,24.7312,17.488Zm.3969.0595c-.004.0274.04.0313.0474.0368s.0213-.0458.0283-.0313a.0725.0725,0,0,0,.0532.0376c.0223,0-.008-.0544.0169-.0247a.2645.2645,0,0,0,.2067.0393c.0581-.0229.1807-.0926.1719-.1489s-.1747-.1047-.2261-.1406-.0865-.054-.1333-.0147a.11.11,0,0,0-.0356.13c.0189.0284-.0182-.0045-.0242.0235S25.1321,17.52,25.1281,17.5475Zm11.885-.5746c.01.0087-.0248.0129-.02.0177.0027.0025.0057.0291.0147.02a.6525.6525,0,0,1,.0736-.0707c.0145-.0072-.0227-.0164-.0125-.0225s.0674-.0946.0183-.0743S36.9578,16.926,37.0131,16.9729Zm-9.4375,1.2735c.0117-.0628-.1811.0172-.17-.0308s-.1144-.184-.1964-.1946-.0768.02-.1266-.0205a.0619.0619,0,0,0-.1.0185c-.0158.023-.0492-.0266-.0226-.0445s.0712-.1628-.0233-.1077-.0793.1646-.0977.23a.6541.6541,0,0,0-.02.1317c-.0063.0452.0221.0589.0129.1s-.1186.143-.11.1612.14-.0858.17-.0709.0262.1631.0692.1357.0821-.1417.1286-.1606.1058-.1791.1292-.1424.1838.148.2519.1024S27.5638,18.3092,27.5756,18.2464Zm-1.5618-2.5039c.0441.0753.1178-.0614.15-.05s.0362.0584.0977.05a.1313.1313,0,0,0,.1112-.0757c.0131-.0343.0265.0369.0394.0245s-.0122-.0768.0173-.0774.0151.1045.073.0938.18-.0439.2234-.0447-.0306-.0863.0112-.0469.138-.0287.1633-.0394.1577.0071.19-.0444-.0447-.0684-.005-.0969.0462.0766.09.0846a.2348.2348,0,0,0,.141-.005c.0457-.0211.164-.0286.1785-.09s.0844-.0856.1017-.1194-.0846.0008-.0962-.0243.118-.0391.0676-.0987a.4644.4644,0,0,0-.4023-.0319c-.0851.0609-.1377.0285-.1993.07a2.2217,2.2217,0,0,1-.1957.1091c-.04.0207.0633.021.0247.0259a1.2962,1.2962,0,0,0-.2318.0106c-.0456.0191-.0473.06-.0881.0536a.6038.6038,0,0,1-.1091-.0394.5675.5675,0,0,1-.1646-.06c-.0133-.01.1438-.0655.1318-.0846s-.0775-.0008-.1173-.0087-.0233-.0349-.0785-.0543-.149.0528-.2183.06-.1123-.0507-.1911-.0426a.5994.5994,0,0,0-.25.0374c-.089.046-.0822.1114.0026.17s.1473.0269.2255-.005.1186-.0691.1881-.02.1155.0864.0852.1715A.1939.1939,0,0,0,26.0138,15.7425Zm2.2577,1.2648c-.0386.0686.1571.0542.1565.0046S28.31,16.9388,28.2715,17.0073Zm-1.9543-3.4564c.0205.0228-.1846.1471-.1448.1927s.2426-.0509.314-.0736.2959-.1542.3082-.1511a1.1755,1.1755,0,0,1-.2561.16c-.0521.0134-.2581.0868-.2433.1165a.3165.3165,0,0,0,.2848-.0432.8471.8471,0,0,1,.2882-.1765c.0224.0007-.2657.179-.2359.211s.1887-.0281.251-.0308a.0816.0816,0,0,0,.0881-.084c.0056-.0486.0838-.0655.1-.0731s-.0439.0548-.025.0491.1386-.0879.1533-.086-.1258.1287-.1019.1271a1.8882,1.8882,0,0,0,.1983-.0891c.0536-.0241.136-.0294.1841-.0892a1.7907,1.7907,0,0,1,.3015-.2641c.03-.0043-.1231.1449-.1387.1764s.1531-.0213.0768.0364-.5206.2322-.622.3085c-.045.0338.237.1326.1972.1453s-.22-.1375-.314-.0988-.2274-.0008-.32.0887.1062.1694.1847.1733.2741.181.2135.2-.39.0153-.4739.1774.0028.1156.104.1339.175-.1968.1857-.17-.1271.227.0045.2889.2655-.2247.2766-.2-.2073.2949-.3124.2677-.0878-.0954-.1609-.0928-.1783.0086-.2074.0737.1291.0626.1359.0838-.145.1063-.1814.134-.1091.0416-.1183.0888-.0106.0162.0033.0884.0968-.0923.1113-.0514.12.0419.15.0126.07.0317.1265-.0063.1139-.0162.17-.0337.0667-.0973.1316-.0769.0724-.059.1013-.0467.1213.0234.1524-.0264.0624-.02.1147-.0317.0048.1178.0256.1169a2.1978,2.1978,0,0,0,.2064-.1155c.0335-.0177.0388-.0659.0549-.0725.0311-.0129.033.0217.06.0065s.0733-.0277.0747-.06.0048-.0815-.0259-.1017a.0686.0686,0,0,0-.0891.0023c-.0286.0236-.0561.0709-.0774.011s.0794-.1457.1257-.2016-.0465-.0886-.01-.1265.12.0084.1739-.0212a.3961.3961,0,0,0,.1544-.1642c.0108-.0474-.1291-.0094-.11-.0487s.1744-.0214.2047-.0929-.2379-.0378-.2308-.0514.198-.003.2349-.0706-.2971-.0059-.2649-.0053a3.3856,3.3856,0,0,0,.43-.17c.053-.03-.0476-.0636-.0081-.0767s.1316.0145.18-.0265a.8257.8257,0,0,0,.1584-.1738c.0128-.035-.1753.0486-.1452.0225s.1837-.086.2585-.1259a2.4972,2.4972,0,0,0,.2376-.2117c.0721-.0558.4258-.284.3661-.33s-.5807.2912-.6308.2809c-.0312-.0064.352-.19.3707-.2179s-.2579.0426-.2059.0108.4123-.134.5156-.1823.3883-.2467.3737-.3081-.3495.0012-.45-.0076-.3465.1412-.3952.1486.24-.1636.1828-.1714a2.041,2.041,0,0,0-.4263.0519,3.018,3.018,0,0,0-.407.1724c-.0664.0345.0816.0882.0355.0922s-.1548-.0959-.23-.0707-.2847.05-.32.0765.2025.1008.1767.1127a1.5,1.5,0,0,1-.2294-.035.4815.4815,0,0,0-.2161.0137c-.0477.0272-.0344.0584-.08.0771s-.1085.0275-.1553.0491-.1564.12-.1445.1627.3826.0972.3633.1184a3.1639,3.1639,0,0,1-.4138,0c-.0777.0034-.1479-.0594-.2044-.0775a.2406.2406,0,0,0-.1638.0256c-.0313.0175.0517.0617.0244.0784a.968.968,0,0,1-.1575.0491c-.03.0077.1664.0325.0888.0267a1.2219,1.2219,0,0,0-.4053.1842c-.0669.0491-.3076.0694-.312.1454s.1538.0384.1938.0559S26.2966,13.5281,26.3172,13.5509Zm-1.4711,1.5936c.0007-.021-.1008-.027-.1474.0037s-.0152.073.0239.055S24.8455,15.1654,24.8461,15.1445Zm2.801,3.6252c.0435-.0084.1221-.2006.0422-.2042s-.0887.0714-.0985.1116S27.6037,18.778,27.6471,18.77Zm9.0414-.4527c.0206.0155-.08.0127-.0167.0495s.3027-.152.3588-.2026.0648.0076.0861-.0494.0139-.09.0384-.1464-.0479-.124-.0431-.1632.1246-.1395.09-.1775a.7172.7172,0,0,1-.0828-.0962c-.027-.0407-.0907.0433-.1146.0353s.0529-.014.0028-.0385-.1975.1163-.1986.1679.0792-.0046.0751.0249a.1135.1135,0,0,1-.0909.07c-.0357.0015-.0634-.0183-.099.0086s-.0325.0564-.0155.0963-.0506.0658-.0441.0909.1294.0059.1324.02-.105.1362-.1.1473.1331-.0605.1345-.043-.1049.03-.1134.0668-.0672.0641-.0766.0762.0532-.001.0532.0093-.0613.0369-.0546.0473S36.6679,18.3014,36.6885,18.317Zm-9.5586.3736c.02.0294-.0266.0626.0416.0622s.2342-.1847.2169-.2418-.04.0074-.0775.002-.1209.0631-.1493.092S27.11,18.6613,27.13,18.6906ZM25.822,15.717c-.0259-.0924-.0912-.14-.173-.1136s-.25.1352-.2133.2148.15.0691.2315.0715S25.8479,15.8094,25.822,15.717Zm-1.4826-.7915c.0184.0039.1052-.0946.1283-.0619s-.0385.0147-.0211.0448.068-.0605.093.0129-.18.0232-.1867.1219.1841-.0253.2539-.0213a.7914.7914,0,0,0,.1878.0035c.0757-.0108.0349.0254.11.0819s.2146-.0674.1527-.1375-.0585-.0263-.0654-.0847.019-.0157-.0206-.0722-.1087.0618-.1349-.0129-.1409-.0009-.2.0022-.0879-.1231-.1827-.0839-.1863.0881-.1922.1468.0885-.0316.0967-.0122S24.3211,14.9216,24.3394,14.9255Zm.0457.5214c.0361.0277.0545-.0419.0313-.0675a.5534.5534,0,0,0-.0743-.0582c-.0264-.0214-.1018-.0519-.1146-.0216a.1253.1253,0,0,0,.0293.1032C24.2766,15.43,24.349,15.4194,24.3851,15.4469Zm.7141-1.0786c-.0568-.1038-.211.0162-.1472.0742S25.156,14.4721,25.0992,14.3683Zm.25.5487c.0285.0206-.1054.0375-.09.052a.1956.1956,0,0,0,.097.0534c.0333,0,.076-.033.111-.0492s.12-.0429.1289-.0828a.2344.2344,0,0,0,.0066-.1092c-.0093-.0275-.0951.0119-.1369-.0054a.7458.7458,0,0,0-.1174-.0508c-.0686-.0212-.204.02-.1545.0859s-.0418-.0239-.0224.0355S25.3211,14.8964,25.35,14.917ZM23.465,15.39c-.08.0173-.1729.1022-.13.16s.0873.0491.1408.0442a1.2,1.2,0,0,0,.2014-.097c.05-.0187.0267-.0458.036-.0771s-.09-.0006-.0888-.02.1744-.064.1289-.1013S23.545,15.3724,23.465,15.39Zm.2474.4548c-.0184.0379.12.0366.1206.06s-.0847.0417-.0773.0595.14-.0081.1354.0521-.0869.0655-.1337.0654-.1422.0658-.1659.006-.062-.0537-.1006-.047.0524-.0122.019-.0274-.1041-.1-.1712-.0711-.1041-.0165-.1622-.0267a.1706.1706,0,0,0-.1572.0714c-.0185.04.1513.0316.1259.0278s-.21.0085-.225.0643-.0144.0135.0034.0594.2148-.0444.2061-.0375-.2734.0473-.2638.126.2488-.0728.2375-.0567-.2912.1233-.2827.1731.142-.0079.1629-.0106-.0141.04.0012.0337.0734.0415.0866-.0019.0165-.0239.0715-.0054.0681-.1394.111-.1565.0118.0675.0327.1.1311-.0821.1471-.0586.1668-.0587.1665-.035-.3685.1827-.35.2278.2747-.0006.3484-.0713a2.1415,2.1415,0,0,1,.2678-.1644c.063-.0459.0926.0125.1389-.0072s.0271-.05.074-.0664a1.3528,1.3528,0,0,0,.1355-.0334c.0557-.0234.08-.0854.09-.1615s-.0032-.1386-.0968-.12-.04.1144-.0642.1216-.0485-.0631-.0972-.0616-.045-.0513-.0793-.09-.0707-.1738-.1312-.1119A.7352.7352,0,0,0,23.7124,15.8445ZM25.365,14.307c-.0221.091.2236.07.251.0478s-.0825.0722-.1125.0715-.0286.0609.0116.0507.0463.0476.0778.0149.0577-.0625.0881-.056-.0255.0206.0059.0339.0573-.0436.093-.0519.0269-.0015.0475-.0311a.3783.3783,0,0,1,.2216-.0323c.01.0174-.1585.0459-.1513.0695s.26-.0609.2322-.0476a2.48,2.48,0,0,0-.4351.1938c-.03.0478.1253.0108.13.03s-.0849-.0046-.0694.0349.2175-.0112.2371-.003-.1576.0179-.1329.065.2682.0452.3159.0022-.0593-.0281-.0372-.049.13.0249.1468.0261-.0918-.125-.0685-.1261.1093.1016.1574.1006-.0216-.1493.01-.1367c.1132.045.0571-.1341.0976-.1665s-.008.1133.0449.1031.0564-.1068.0792-.13.2248-.0956.2364-.1476-.0866-.06-.0985-.0888-.0308.1159-.0293.0449-.1905.052-.1645.0187-.0074-.1324-.0458-.1649-.0618-.13-.1316-.0617.0679.0515.0336.0835-.0866.0074-.1095-.0219.02-.0979-.0467-.0707a.1514.1514,0,0,1-.184-.0228.5085.5085,0,0,0-.2283-.1346c-.08-.0141-.1893.0138-.2046.0584s.167-.0429.1485.007-.2615.1-.2728.1587.154-.01.1328.0181-.2132.0793-.1887.1327-.098.0419-.0816.0676.1168-.0077.137-.0008-.0364.0163-.0147.0218.1318-.05.147-.0365-.041.0287-.0414.0412.0393.0162.03.0292-.03-.0257-.0622.0026S25.3872,14.2161,25.365,14.307Zm-.91,1.4263c.0138.0524.241-.03.2036-.08S24.4411,15.6809,24.4549,15.7333Zm-1.6564.3807c-.0343-.015-.2162.1254-.1941.1782s.1069-.0007.1275-.0279S22.8329,16.1289,22.7985,16.114Zm14.3006,1.0308c-.0059-.0028-.0157.0087-.0161.0125,0,.0061.006.0182.0148.0138S37.1053,17.1477,37.0991,17.1448Zm-12.9386-.5807c.01.0466.0844.0224.113.062s.0766.065.1178.0357a.1746.1746,0,0,0,.0651-.1444c-.0052-.05-.0361-.0725-.0923-.0769S24.1507,16.5175,24.1605,16.5641Zm.3835-.5656c.01-.0566-.0773-.0934-.136-.0094S24.5336,16.0551,24.544,15.9985Zm-.1318-.3944a.0925.0925,0,0,0,.0384.0683c.0211.0156.1584-.0324.1584-.06s-.0567-.0245-.079-.04S24.4148,15.5837,24.4122,15.6041Zm1.3544-.5725c.0228-.0277.0849-.0818.0466-.0973s-.3407.0274-.3536.1159S25.7438,15.0593,25.7666,15.0316Zm1.7563.8654c.0347.0285.0421.0266.0934.0344a.4446.4446,0,0,0,.2184-.1022c.0429-.0373.189-.0132.1889-.0555s-.19-.1284-.2477-.1389-.0845.0242-.1377.0253-.0879-.0294-.15-.015-.0858.1437-.0173.1653S27.4881,15.8684,27.5229,15.897ZM26.0922,14.91c-.0406.0658.036.0738.0723.075s.1123.0051.1191-.0588S26.1328,14.8441,26.0922,14.91Zm.0925.2092c-.0409.0468.076.0834.0984.06s-.0325-.0136-.01-.0482S26.2255,15.0722,26.1847,15.119Zm30.2311,2.48a.7022.7022,0,0,0,.3663.0684c.0636-.008.0374-.0574.0376-.0848s-.0591-.027-.09-.0552-.1372-.0319-.1688-.0441.024-.0163-.0024-.053-.1538-.0013-.1758-.0444-.1444-.11-.1437-.0006S56.3467,17.538,56.4158,17.5991ZM43.9819,14.2618a.8576.8576,0,0,0,.2744.2394c.0817.0387.364.1987.3716.1229s-.2415-.2835-.201-.4383a.5014.5014,0,0,1,.2773-.288c.1023-.0595.1061-.0865.1878-.135s.1308-.032.2341-.0567a1.2172,1.2172,0,0,1,.3543-.0786c.1323.0059.3551.0229.4854.0264s.39.0752.43-.07-.2262-.1994-.3509-.168a1.11,1.11,0,0,1-.4493.0044,1.6247,1.6247,0,0,0-.3845-.0665,1.2115,1.2115,0,0,0-.3739.0185,2.2356,2.2356,0,0,0-.3151.1487c-.0878.0493-.1427.0872-.2142.1291s-.0157.0925-.0334.1467-.111.0436-.1662.0657-.0281.0706-.0607.12-.1134-.0085-.1273.0732A.2534.2534,0,0,0,43.9819,14.2618Zm.6538-2.4182c-.0175-.04-.2289-.0667-.25-.031s.1364.07.1523.0723S44.6533,11.884,44.6357,11.8436Zm.6183-.1289c.0188-.0119-.0824-.0874-.07-.1038s.2041.032.1925.0086a.343.343,0,0,0-.2415-.0526c-.0564.0292-.2348.0482-.2444.0692s.1546.0768.19.0859A.46.46,0,0,0,45.254,11.7147Zm-.4586,3.0925c-.0007.0336.15.2418.22.2032s-.1229-.2181-.1471-.2244S44.7961,14.7735,44.7954,14.8072Zm.57-2.6176c.0065-.0266-.1076-.06-.1216-.0473s.0361.06.0472.0608S45.3593,12.2162,45.3658,12.19Zm-.2227-.353c.005-.0374-.178-.1058-.2337-.1336s-.249-.045-.2554.0007.177.1068.2232.1338S45.1381,11.8741,45.1431,11.8366Zm-1.2988-.3224c.0127.0174-.1989.0248-.1813.0547a.7542.7542,0,0,0,.2748.126c.0452-.0023-.037-.0766.01-.0894s.3339.0527.3554.0261-.1024-.1036-.1654-.1076a.49.49,0,0,1-.239-.0433,1.09,1.09,0,0,0-.4243-.0755c-.0435.016.1141.0681.142.0863S43.8316,11.4969,43.8443,11.5142Zm-.3785,3.22a.1529.1529,0,0,0,.1977-.0272c.0033-.0328-.0746-.1125-.152-.1236S43.4118,14.6754,43.4658,14.7338Zm-3.2443-.9813c.015.0031.2272-.0914.2215-.129s-.0631.0448-.0792.0593-.1246-.0041-.12.0111S40.2064,13.7494,40.2215,13.7525ZM23.4769,15.2782c.0476.02.0512-.0327.1028-.0414s.2524.0083.2209-.0868-.1721-.0252-.2366-.0043a.7022.7022,0,0,0-.2479.16c-.0172.04.0075.0177.0269.02S23.4292,15.2579,23.4769,15.2782ZM45.2041,11.984c-.0369-.0205-.3488-.121-.3452-.0161s.2794.1214.3241.1217-.0272-.0424-.0086-.0473.1161.03.1158.019A.2482.2482,0,0,0,45.2041,11.984Zm9.9714,5.1622c.0325.06.0648.0743.1288.12s.0956-.0686.1361-.04a.4059.4059,0,0,0,.2536.0472c.0708-.023.0366.0963.0825.0966s.1167.02.142.0137-.0415-.0927-.0239-.0876.0956.0747.1269.0491.1459-.0079.1158-.0632a3.0365,3.0365,0,0,0-.3328-.255c-.062-.0553-.0573-.0637-.13-.082s-.0181.1344-.0539.1158-.2236-.2748-.32-.2364-.1542.0625-.1872.14S55.1431,17.0861,55.1755,17.1462ZM37.1133,17.45c.0163.0046.03-.0611.0156-.0694s-.0483.033-.0381.0346S37.097,17.4453,37.1133,17.45Zm18.4844.2595c.0387.06.18.1425.2229.1135s-.0344-.1247-.0718-.1671-.1061-.061-.1386-.1321c-.0144-.0316-.03-.1488-.1253-.1112s.0116.1263.0225.16-.1691.04-.1444.0589S55.5589,17.65,55.5977,17.7094Zm-9.5014-5.5368c.0661.0182.0877-.0671.0686-.1037s-.09-.0386-.1234-.0394-.03.0678-.07.0639-.1664-.0708-.181-.0309.0044.05.0456.0725S46.03,12.1544,46.0963,12.1726Zm-.7379-.13c.0366.0159.0639.0088.1036.0628a.201.201,0,0,0,.2433-.0018c.0638-.0549-.0421-.1585-.1075-.1662a.7655.7655,0,0,0-.2783.0016C45.28,11.9651,45.3218,12.0269,45.3584,12.0428Zm5.1039,2.5536c.0143.0743.2528.0653.3219.0558s.0547.0656.1153.0718.1665.0314.2238.0366a.18.18,0,0,0,.135-.0219c.0383-.0281-.0048-.11-.0493-.1344a.3524.3524,0,0,1-.1179-.141c-.0245-.0508-.1191-.0321-.1433-.0529s.0888-.0032.0527-.0407-.1741-.0927-.245-.035a1.2007,1.2007,0,0,0-.221.2C50.4988,14.5934,50.448,14.5222,50.4623,14.5964Zm-.91-.8381c.0558.0273.2181.0221.262.1114s.0767.2165.1815.248a.9313.9313,0,0,1,.2955.1353.3358.3358,0,0,0,.2547.0728c.05-.0215-.0366-.1067-.0014-.149s.0759-.064.0344-.1282-.2043-.0488-.244-.0576.126-.04.0952-.07-.1319-.0262-.1579-.1229.077-.0779.0924-.114-.1623-.2385-.2335-.2691-.0446.031-.1061.0318-.1376-.0068-.2068-.0114-.079.0423-.1111.0888-.12-.01-.1573-.0013a.1666.1666,0,0,0-.0943.1152A.16.16,0,0,0,49.5522,13.7583Zm10.5841,5.7372c.0379.0043.0448.02.095.0259s.238.0019.2552-.0488-.0573-.0977-.1048-.1165a1.7215,1.7215,0,0,0-.2113-.0527.3184.3184,0,0,0-.1819.04c-.0345.0221-.0187.1415.0018.16S60.0985,19.4912,60.1363,19.4955ZM39.593,13.9548c-.0192-.0023-.0811.0619-.0616.0789s.05-.0463.0563-.051S39.6122,13.9571,39.593,13.9548Zm-.2525.2845c.0111.01.06-.015.0527-.04s-.0509-.0094-.0543.0054S39.33,14.23,39.3405,14.2393Zm.14-.2167c-.0273-.0006-.0616.0752-.06.0827a.0825.0825,0,0,0,.0708.0111C39.5219,14.1077,39.5078,14.0232,39.48,14.0226Zm-1.9936,2.6455c.0148.0022.0568-.0151.0573-.0254s-.0445.0043-.0509.001c-.0043-.0023.0245-.01.0164-.0166-.0284-.0237-.0519.0207-.0494.039a.0332.0332,0,0,0,.0183.0257C37.4843,16.6964,37.4786,16.6669,37.4868,16.6681Zm2.8646-3c.0328-.0148.0592-.0671.0524-.0732s-.0452.0349-.07.0243-.0775-.0373-.089-.0047S40.3186,13.6832,40.3514,13.6685ZM37.145,17.3924c.0114.0045.0419-.05.0259-.06S37.1336,17.3879,37.145,17.3924Zm2.3457-3.25c-.0148-.0106-.09.0374-.0749.0592S39.5055,14.1528,39.4907,14.1422Zm-2.2565,3.2606c-.0166.0092.0074.0554.0207.0492S37.2509,17.3936,37.2342,17.4028Zm-.0473-.3455c.0084.001-.0188.0091-.0161.0144.0018.0037.0286-.0071.025.0072s-.0466.0711-.0376.0978-.0858.0518-.0492.0685.0007.02.0077.05.0689-.0428.0448-.0531.0957-.0367.0834-.0732c-.0039-.0114.0219.0082.012.0156a.2745.2745,0,0,0-.0665.16c-.0052.0437.0029.0634-.0038.0944s-.0327.0386-.0051.0628.0458-.07.03-.0916.0519-.1486.0416-.1143.0087.0488.0384.0048.024.0353.017.034-.0285.0278-.0144.0578a.0937.0937,0,0,1,.0012.0942c-.0194.0391-.0436.1005-.0092.1187s-.0191-.05.0068-.0345a.0587.0587,0,0,0,.0655-.0091c.0017-.0067.1809-.0813.1531-.0577s-.0427.1843.02.1664-.0069.137.0339.1558c.01.0048-.0115.0109-.0143.0095a.2288.2288,0,0,0-.0339-.0161c-.0079-.0016.0195.0328.0026.0271a.3861.3861,0,0,0-.1095.0236c-.007.0032-.0781-.0436-.0627-.01a.129.129,0,0,1-.0185.1136c-.0193.0212.072-.0493.0744-.023a.26.26,0,0,1-.0089.131c-.021.04-.1162.0665-.13.09s-.0027.0283.0038.037c.0279.0374.0943-.0243.1365-.0194.0119.0014-.0284.02-.0143.02.0183,0,.0625.0234.0888.0172a1.0878,1.0878,0,0,0,.1123-.0614c-.0058.0024-.0215.1-.0614.1058s-.1717.013-.1731.0955-.1448.16-.1274.1882.1645-.0465.2167-.0767a.6131.6131,0,0,1,.173-.0938c.0706-.016.07-.0842.13-.09s.0331.0566.1041.0262a.8255.8255,0,0,0,.2229-.1c.0937-.0668-.0829-.0495-.0735-.095s.1355-.14.1413-.2661-.1817.0038-.1833-.0413a.1977.1977,0,0,0-.1034-.1388c-.05-.0208.09.0421.0691-.002s-.1559-.1421-.1893-.2507-.1767-.1325-.2446-.1482.0819-.0222.0661-.0652.15-.2332.096-.2965-.2268.0592-.283.0814c-.0134.0053-.0113.0026-.0143-.0084-.005-.0179.0368-.0528.0392-.0638s-.0537-.0009-.0535-.01.0326.0164.04-.0144.138-.1357.1167-.1753-.1408.0627-.168.0579-.0127.0241-.04.0042-.04.0236-.0407.0544-.03.0058-.0348.0206a.1251.1251,0,0,0-.01.0367c.0012.0118.047.0422.0416.0421s-.0745-.0081-.0806.0134.0243.0514.0213.0666-.0252-.0129-.0327.0052S37.1729,17.0555,37.1869,17.0573Zm.171.5922c-.02-.0058-.0476.0592-.0439.0737.0018.0071.0148,0,.0231-.003C37.3541,17.7143,37.3775,17.6554,37.3579,17.65Zm2.3195-3.566c.0192.0013.1046-.1291.1066-.1345s-.0535.07-.0793.071S39.6581,14.0823,39.6774,14.0835Zm.2124-.2826c-.0283.0032-.0672.062-.0691.0669a.0991.0991,0,0,0,.0725.0063C39.9148,13.8634,39.9181,13.7977,39.89,13.8009Zm-.1577.0809c-.0384.0206-.0547.0162-.05.0827s.13-.021.1314-.0608S39.7705,13.8612,39.7321,13.8818Zm.2539-.11c-.0127-.0288-.0883-.0126-.0848.0151s.024.0188.0376.0254S39.9986,13.8,39.986,13.7717Zm-.3667.2652c-.0262.0219-.0185.0749-.04.0762s.023-.0755-.0034-.0828-.04.0522-.0312.0711-.0316-.0071-.0251.0093-.0239.0444-.014.0565.0714.0183.082-.0207.0476-.0281.0692-.04S39.6455,14.0149,39.6193,14.0369Zm-.08.198c-.0033-.0011-.0359.0721-.0577.0691s.023.0232.0259.0264-.032.0452-.0122.0391S39.5426,14.2361,39.5393,14.2349Zm.0423-.04c-.0014.0129-.0348-.0068-.0378.0007s.004.0635.0131.0556.0907-.0976.0828-.1144S39.583,14.1818,39.5816,14.1948Zm.4825-.4013c-.0121-.0277-.1494.0426-.148.0649s.051-.0094.0631-.0165S40.0762,13.8213,40.0641,13.7935Zm.0534-.0611c-.011-.0193-.0462-.0092-.0482-.0022s-.0036.0175.0139.04S40.1285,13.7517,40.1175,13.7324Zm6.3375.785c-.06-.015-.1025.0636-.081.0941s.19.0642.2084.0386S46.515,14.5325,46.455,14.5174ZM53.0432,25.645c-.0521.0184-.0214.0886-.0034.1145s.0311-.0873.0693-.0621.0371.1028-.0024.15-.0719.2529.0258.2124.1406-.1855.1754-.2486-.0254-.096-.0237-.1351-.0958-.06-.0694-.08.1337-.0128.1528-.0365.0526.061.0911.02.0753.0118.1014-.0251.1914.0093.1666.0434-.0306.2091.02.2172.1165-.1307.1455-.1043-.042-.1727.02-.1083a.17.17,0,0,0,.2218.03c.0553-.0493.0072.0873.0367.0674s.0867-.1049.11-.11-.0406.08-.0192.0774a.3393.3393,0,0,0,.1215-.0846c.0327-.0526.0089-.1138.0262-.1721s.06-.09.0583-.16.0287-.108.0682-.11-.005-.0981.05-.1188.0474-.0986.05-.153a.3775.3775,0,0,0-.0416-.1637c-.0244-.0591.0464-.0542.0136-.1322s-.084.0965-.0887.0521-.1307.0117-.1451.1028.0348.0529.0185.1191-.0538.1217-.0792.1924a.3431.3431,0,0,1-.1684.1842.2067.2067,0,0,1-.14.0211c-.06-.0121.0451-.085.0222-.0925a.0808.0808,0,0,0-.0908.07c-.003.0557-.0654.0762-.095.11s.0048.0778-.05.09-.0245-.0386-.0813-.05-.2241-.0943-.2712-.0025-.186.0676-.22.1149A.5691.5691,0,0,1,53.0432,25.645Zm-.7954,4.4357a.2925.2925,0,0,0-.122.0622.1359.1359,0,0,0-.0249.1134.37.37,0,0,1-.0174.13c-.0121.0266.0617.1211.0613.096s.0368-.14.08-.1108-.1034-.1008-.0291-.0938.0393-.0675.0227-.0881.0361-.0281.0324-.0415S52.27,30.0813,52.2478,30.0807Zm1.9267,3.8131c-.0321-.0805.007-.1521-.0425-.1858s-.0719.0632-.0892.0057a.8928.8928,0,0,1-.0189-.1582.2882.2882,0,0,0-.0665-.1965c-.0583-.052-.1978-.0964-.2066-.1813s.0585-.16.0078-.2527a.3873.3873,0,0,1-.0328-.2707c.0136-.1111-.0881-.0764-.1343-.125s.0031-.4358-.0751-.4775-.1282.1488-.157.2233a.9179.9179,0,0,0-.0509.2776c-.0051.1057-.1414.3985-.2594.3519s-.0578-.1065-.14-.1681a2.57,2.57,0,0,1-.2481-.22c-.0759-.0751-.0151-.1118.0068-.1891s.1445-.1085.1471-.1715-.13-.1176-.1939-.1478a1.3013,1.3013,0,0,0-.2554-.1018c-.0539-.0056.0229.1249-.0313.1094s-.1662-.106-.2491-.0516-.1009.212-.1648.2316-.147-.1757-.2293-.1944-.0946.0346-.2016.0889a1.4885,1.4885,0,0,0-.4627.3352c-.0675.1169-.0627.1753-.1755.1912a3.6787,3.6787,0,0,1-.3707-.0021.6652.6652,0,0,0-.2275.06c-.0845.0275-.1464.1191-.1876.16s.02-.1514-.0348-.0963a.6688.6688,0,0,0-.12.4068c.0251.11-.0146.1257-.0433.2117s-.0122.0968.0123.2064a2.4471,2.4471,0,0,1,.04.4949c-.0088.1156.02.2324-.0226.3022s-.1445.0607-.1051.1392a.3313.3313,0,0,0,.1563.1739c.0715.03.1375.0606.2083.0226a.35.35,0,0,1,.2161-.066c.0788.0116.1514.0231.2153.0334a.9853.9853,0,0,0,.1623.0342c.0516-.0017.0351-.0494.0769-.0855a.41.41,0,0,1,.2075-.0613c.07-.0042.1255.0446.2.0338s.0974-.0836.202-.05a4.4068,4.4068,0,0,1,.4479.19c.1055.0533.1025.1158.144.1882s.0247.174.0931.201.2263-.2688.2861-.2312-.153.2324-.1462.2907.1571-.0931.1558-.095-.056.1877.0147.2195.0781.09.0813.205a.3847.3847,0,0,0,.27.2958c.1245.0247.1133.0482.2146-.0068s.0966.0061.1521.0709.0987.0405.1793.0016a.3272.3272,0,0,1,.23-.0584c.144.0049.22-.2271.2671-.369s.2086-.1962.2757-.3367a2.5061,2.5061,0,0,0,.2236-.4814,1.5648,1.5648,0,0,0,.0189-.4856C54.3242,34.0142,54.2066,33.9743,54.1745,33.8938ZM51.826,30.69c-.0442.0672.1.1169.1307.0856S51.87,30.623,51.826,30.69Zm.3892,1.1517c-.0517-.0081-.1349-.0324-.1286.0142s.0875.0514.1235.0477S52.2669,31.85,52.2152,31.8418Zm2.6565-.3875c.0157.0027.0426-.0887.0229-.11s-.024,0-.0373-.0173-.002-.0352-.0245-.0532-.1346-.1512-.1507-.129.181.1891.1722.2448S54.8561,31.4515,54.8717,31.4543Zm-1.5211,4.7711c-.0852-.0509-.1316.0487-.1939.0221s-.128-.1258-.17-.0975-.0512.204-.0235.288.0493.1574.181.1828S53.4357,36.2764,53.3506,36.2254Zm1.0954-4.7335c-.0163-.0029-.1243-.0544-.1265-.0091s.1406.1317.2125.1245a.3772.3772,0,0,0,.1612-.0628c.0578-.03.0524-.02.0729-.0659s.0752-.0669.0073-.1268-.06.0832-.0676.09c-.0612.0595-.1883.0662-.174.02S54.4623,31.4948,54.446,31.4919Zm-.4169-.0844c-.0538-.0468.0049-.1073-.0481-.1508s-.0741-.0692-.1384-.1179a1.6848,1.6848,0,0,0-.2406-.1287c-.0919-.0467-.2658-.1425-.357-.1888s-.1742.0173-.2261.0513-.079.1219-.132.111-.0746-.0428-.09-.0985a.79.79,0,0,1-.0151-.1912c-.0009-.0672-.0192-.0575-.086-.09s-.239-.0293-.2618.0247.0753.0263.089.0586-.0126.0421.0123.0833.1613.0541.1882.0583.0047.0493-.0129.0475-.1815-.0654-.1963-.0372.0458.1664.0624.193.0948-.097.1078-.0651.0029.0939.0736.1226.1842.11.244.1408.1221.0424.1365.0959.0646.187.0408.2178-.1716.06-.1332.12.175-.0095.2365.0171.0385.112.1045.1372a.396.396,0,0,0,.2376.0124c.0628-.0237.0662-.1417.1325-.1333a.3228.3228,0,0,1,.2119.0694c.0507.059.1144.1717.1574.2349s.1329.0729.1765.0933.1451.0877.1446.076-.05-.12-.0561-.1395-.0522-.0453-.0665-.0821-.1163-.09-.1109-.1583-.0559-.0444-.0684-.0811-.0338-.0655-.0181-.1026.0754.0577.1008-.0149S54.0829,31.4543,54.0291,31.4075Zm.8858-8.6208c-.0357.075-.0188.1762-.07.2493a.3223.3223,0,0,0-.0187.2268.1777.1777,0,0,1-.0364.1331c-.0265.0451-.0015.076-.0087.1214s-.0262.2184-.0059.2262.0145-.1341.0938-.132.053.15.08.1434.0162-.1812-.0241-.2447a.2462.2462,0,0,1-.0223-.2086.1849.1849,0,0,1,.148-.1584c.0757-.0057.09.1747.1089.1394s-.0594-.2688-.0515-.3416a1.8373,1.8373,0,0,0-.014-.1882c.0023-.0626-.0506-.0582-.0381-.1348a3.03,3.03,0,0,0,.0611-.3013c.0042-.0876-.0243-.2287-.066-.1887s.0454.1357-.0141.1644-.0247-.0272-.0683-.0005-.03.03-.0258.09-.05.1452-.058.2151S54.9505,22.7117,54.9149,22.7867Zm-3.0009,6.296c.0521.0259.0774-.0531.0337-.0621S51.862,29.0568,51.914,29.0827Zm-.0807-.0244c.0027.0118.0581-.077.0888-.0836s.0308-.0861.0381-.1032c.003-.0069-.0124-.001-.0185.0038A.6391.6391,0,0,0,51.8333,29.0583Zm.2206-.1581c-.0149-.0119-.0637-.0326-.0664-.0434s-.02.0817.0048.0774.0283.11.0358.1216.0029-.0469.0088-.0457.0024.0527.0154.0448A.29.29,0,0,0,52.0539,28.9Zm-.14-.1567c.0033.0093.034.0746.0456.0745s.0224-.0514.014-.06-.0693-.0775-.0751-.07-.0168.0717-.0309.0733S51.91,28.7341,51.9134,28.7435Zm.0993-.0075c-.0313.015.0232.0642.0428.0968s-.0215.0073.0123.0733.0715-.0165.0662-.0851A.1023.1023,0,0,0,52.0127,28.736Zm-.2955.0132c-.047.0508.0356.1876.0726.1805s-.1093.0939-.0493.1226.0051.0594.0506.0621.0236-.0435.0344-.0781.0758-.0962.0649-.1432-.066-.1312-.1078-.1385S51.7642,28.6983,51.7172,28.7492Zm-.5814,1.4614c-.0407.0423-.0191.0788-.0567.1188s-.06.08-.0333.129.0748.0333.0563.0918-.0693.1255-.06.1745a.0868.0868,0,0,0,.1122.0493c.0231-.0182-.0064-.0521.0013-.0765s.0262-.021.0351-.0541a1.2424,1.2424,0,0,0,.0264-.1367c.0057-.044-.0157-.0933.0468-.0739s-.0038.0751.0014.1128.066.0751.0431.116.0214.0859.049.0733.0722-.0225.098-.036-.0389-.0757-.049-.1013.035-.0254.0308-.0525-.0273-.0613-.0247-.09-.08-.0762-.0483-.0886.183-.0384.2271-.0528-.0307-.0566-.0721-.0485-.039-.0031-.086.0043.0183-.0509-.07-.0075-.16-.15-.0822-.2027.0719.0223.1367.0386.1142-.01.1824.0652.2458-.0239.2437-.09-.1143.0542-.1449.05a.3053.3053,0,0,1-.0932-.0457c-.0292-.0163-.0363.01-.0725-.0176s-.1237-.1154-.1806-.0975-.1292.052-.139.1121A.2354.2354,0,0,1,51.1358,30.2106Zm.458-1.7726c.0015.0126.0227.2012.0718.2053s.0452-.1505.0048-.1735S51.5923,28.4253,51.5938,28.438Zm-1.12,2.4393c-.0258.0268.017.1225.0734.0774S50.5,30.8506,50.4737,30.8773Zm4.057-6.706c-.0212.0127-.006.0839-.042.0978s-.06.0247-.0683.0684a.3524.3524,0,0,0,.0311.1894c.0247.0271.0424-.0516.07-.0346s.0567.0138.0414-.0219-.0982-.0836-.0729-.1178.0665.0463.0936.0343.08-.0362.0969-.0022.1245.1531.1438.1423c.0425-.0238.0287-.0859.0563-.1063s.0688-.0532.0977-.0346.2059-.0083.1615-.0346.0022-.18-.023-.1863-.1341.0448-.196-.0562a2.2322,2.2322,0,0,1-.1513-.2706c-.0484-.1062-.0546.1271-.0492.1666s-.0547.0771-.0595.1132-.0021.0894-.0279.1036S54.5519,24.1587,54.5307,24.1713ZM39.13,17.1134c-.0153.0326.04.114.0811.0973s.027-.0653.0012-.0962S39.1454,17.0807,39.13,17.1134Zm2.8378,4.0342a.324.324,0,0,1-.118.0412c-.0319-.0048-.0872-.0676-.1273.0068s.1677.1111.1877.068S41.9529,21.1528,41.9679,21.1476ZM41.03,21.14c.0343-.03-.072-.0792-.1132-.0576s-.14-.0373-.16-.0462-.0515.05-.0212.0669S40.9959,21.17,41.03,21.14Zm-1.742-4.07c-.0173.0222-.0078.1164.0389.1009s.0515.1035.0489.0922.0145-.1194.052-.1359-.06.0016-.0142-.0529-.0288-.13-.0426-.0432-.0315-.0522-.0234-.0411-.0354-.02-.0313.0033A.1127.1127,0,0,1,39.2883,17.07Zm1.2984-.6022c.0005-.02-.15-.028-.1532-.0087s.0355.122.0264.1156S40.5861,16.4877,40.5867,16.4674Zm-1.6277,3.78c.0084.0354-.0287.0625-.0308.0912s.03.01.0267.0439-.0514.0863-.0084.1237.0705.02.0794-.033.0511-.0173.06-.0894.0156-.1253.0238-.2291-.1207-.05-.1584-.0079-.0224-.0359-.0435.004S38.9505,20.2123,38.959,20.2477Zm22.0117,1.0844c-.0439-.0225-.1133-.0535-.1473-.0342s-.03.0594.0025.0993.1574-.0028.1862.0657.1526.0807.1517.0131S61.0146,21.3545,60.9707,21.3321ZM40.0231,16.773c.022.02.0907-.0605.08-.082s.05-.0783.01-.119S40.0012,16.7533,40.0231,16.773Zm.2038-.685c.0286.0231-.0054-.0345,0-.0379s.0233.0147.0172-.001C40.2062,15.95,40.1983,16.0648,40.2269,16.088Zm-1.2728,3.8084c-.0317.03.031.1476.0726.1116a.4551.4551,0,0,0,.031-.27c-.0149-.0294-.0093.0486-.0238.0685A.748.748,0,0,1,38.9541,19.8964ZM55.1155,31.65c-.0229-.0244-.0351-.0907-.0569-.0862s-.0078.0658.0047.09-.0073.0393.0115.0755.1088.0588.0972.0033S55.1385,31.674,55.1155,31.65Zm-1.5949-5.8964c.03-.0161.0295.08.056.0454s.0557-.0109.0679-.0916-.1355-.1236-.202-.089a.1638.1638,0,0,0-.0645.2036C53.4093,25.897,53.4905,25.7693,53.5206,25.7533Zm-1.4812,4.9972c-.0582.0415.0287.0831.0625.0847s.0147-.0363.0436-.0285.0282.0554.0755.0421.0974.1036.13.0779-.07-.1728-.1413-.179S52.0975,30.7091,52.0394,30.7505Zm4.23,6.01c-.0113-.015.0159-.1127-.019-.122s-.0846.0305-.1038.072-.0525.0435-.0858.0746-.0373.0863-.0706.1207a.609.609,0,0,1-.1232.0755.7007.7007,0,0,1-.1232.0651c-.0492.02-.0767-.01-.1341.0427a2.9731,2.9731,0,0,0-.2391.223c-.0642.0754.0886.0765.1357.12s.1477.1187.214.0549a.8556.8556,0,0,0,.1957-.2176.4284.4284,0,0,1,.1961-.167c.0423-.0171.0329.0772.0477.04s-.0152-.0909.0408-.1314a.9462.9462,0,0,0,.1736-.1575c.027-.04-.0042-.1156-.01-.1359S56.28,36.7752,56.269,36.76Zm-.7682.7289c-.05-.0332-.0756.0743-.0557.0749S55.5513,37.5223,55.5008,37.4891Zm1.4522-1.1816a.4645.4645,0,0,1-.2183-.0158c-.0659-.0335-.0238-.1763-.0549-.1668s-.0639.0879-.088.0163.02-.05.0061-.0938-.0328-.0283-.0324-.0779-.0024-.0977-.05-.1179-.0821-.0995-.1013-.0894.0368.1234.0363.1491.0331-.0457.03-.0028a.68.68,0,0,0,.0849.25c.03.0342-.0188.1249-.0255.1787s-.1162.1061-.1312.1366.04.0568.06.085.0568-.0019.0823.0526-.1031.12-.099.1626.1185.0709.1624.004a1.03,1.03,0,0,0,.1514-.2268c.0173-.0708.06-.0462.1007-.0336s0-.0232.0334-.0409S57.0377,36.3076,56.953,36.3075ZM38.2088,20.4814c-.01.036.0569.0628.0659.0575s.0649-.0233.06-.0756S38.2185,20.4455,38.2088,20.4814Zm22.6328.421c-.03.0227-.0091.1086-.0825.115s.0032.1254-.0324.137-.1313-.0653-.1677-.1012-.1378.0009-.1466-.06.0167-.1459-.0587-.1718-.1831-.0374-.2457-.067.0455-.1584-.05-.1471-.0573.1235-.0854.2086-.34.0464-.3641.0675.1317.1074.0991.1818.0479.1916.0544.2419-.0325.0585-.0652.0708-.05-.0261-.1036-.038-.0686-.0779-.1767-.0513-.3657.1732-.5.198-.2753.1866-.3514.191-.12-.1512-.2424-.1454a.3862.3862,0,0,0-.2434.1024c-.0486.0405.0375-.1286,0-.1206s-.1167.0542-.1715.0412-.0943-.08-.1526-.0075a3.6907,3.6907,0,0,0-.2741.347c-.03.0653.2057.057.1386.1409s.0382.1918-.02.2453-.2169.1372-.1907.2507-.0915.0486-.1282.0732-.1148-.0008-.1257.0692-.007.17-.09.1728a.1425.1425,0,0,0-.1383.1069c-.02.0538-.227.3406-.2488.2442-.0815-.361-.1791-1.1542.288-1.375.134-.0634.2288-.07.3132-.1773a.8446.8446,0,0,1,.3-.2229c.1016-.0513.19-.0776.2307-.1607s.0712-.1679.0932-.2244.1335.0057.1212-.0144a.3279.3279,0,0,0-.1778-.0548c-.0591.0021-.09.0765-.1435.1272s-.2349.19-.306.1784.0474-.2486.0167-.2647-.1376.04-.2084.0126A.2063.2063,0,0,0,57,21.0379a1.6848,1.6848,0,0,0-.3467.2671c-.0374.06.1029.097.0511.14s-.0826.0064-.1471.0036a2.2689,2.2689,0,0,1-.3134-.03c-.0433-.0152.14-.0407.1-.0676a2.57,2.57,0,0,0-.2845-.131c-.0636-.0235-.0908.0386-.1433.0478s-.05-.0085-.1169-.0311a1.0788,1.0788,0,0,0-.2717-.0741c-.0947-.0049-.1669-.1111-.2938-.0386a5.2619,5.2619,0,0,0-.5331.367c-.132.1084-.4282.2123-.5083.281s.0493.0755.08.0961.0657.0309.079.0849-.0331.0907.04.1374.1228.0252.2075-.0439.3212.183.2823.3319-.1466.4174-.2056.588a1.761,1.761,0,0,1-.2647.46,2.5218,2.5218,0,0,1-.3413.3972c-.11.0906-.196.1635-.2793.22s-.14.01-.2038.0086-.0289-.1051-.0758-.1139-.0619.0055-.1207.04-.13.055-.1478.1815-.3308.22-.3291.3371.1954.4136.1425.5653-.0379.2106-.1391.2505a.2176.2176,0,0,1-.2414-.0231c-.0435-.0512.0494-.1929.044-.2645s-.0254-.1435.016-.1977.0473-.1289-.0262-.143-.1437-.0285-.1575-.1018.0861-.183.082-.2077a.2245.2245,0,0,0-.1269-.1535c-.0548-.0324-.1277.061-.1843.0574s-.13.1043-.1831.0474.1195-.2016.1443-.25-.0783-.1063-.13-.0857a.7246.7246,0,0,0-.1531.0724.4873.4873,0,0,1-.1741.067c-.05.0087-.1348.001-.1128.07s.0826.1484.1078.2316.0416.1.1269.076.3061.0474.3068.1334-.3838.217-.4057.2963.1228.1683.127.2623.097.3122.0866.3664-.183-.14-.1859-.1.1816.21.181.2656-.1512.0246-.1575.0819.2.0618.17.1632a1.8435,1.8435,0,0,1-.3074.4582.81.81,0,0,1-.416.2959c-.1632.0211-.43.0244-.55.03a1.2362,1.2362,0,0,1-.1889-.009c-.07-.0009-.0369.019-.036.0689s-.02.1026-.0606.0567-.0251-.1093-.0332-.1443.07.0311.05-.0135-.1511-.1733-.2341-.1477-.2122.0344-.2483.1029-.072.0757-.06.1514a2.0437,2.0437,0,0,0,.0862.245c.0306.0945.1.2357.1449.3373a.6857.6857,0,0,1,.0864.3219c-.0114.1042.0463.2586-.0559.3227a1.4413,1.4413,0,0,1-.4979.2018c-.0934-.0117.0408-.1266-.01-.1942a1.9618,1.9618,0,0,1-.1417-.2715,1.1868,1.1868,0,0,0-.2568-.3244c-.0755-.0546.0661-.0559-.0072-.1071s-.111.0279-.1127.1208-.0689.1608-.0909.226a.2723.2723,0,0,0-.0117.1254c-.0021.0635.0052.0456.0583.0966s.0381.21.053.295a.9089.9089,0,0,0,.1432.2507.6589.6589,0,0,1,.1009.2331,1.1161,1.1161,0,0,1-.0237.27c-.01.0686.0787.244.0373.2513s-.1654-.1873-.2079-.2677a.71.71,0,0,1-.0783-.2811,1.3239,1.3239,0,0,0-.0444-.3613c-.0433-.1169-.14-.2592-.1809-.3757s.03-.2026.044-.3209a2.976,2.976,0,0,0,.0119-.3777,3.1009,3.1009,0,0,0-.0768-.669c-.0431-.0836-.0816.0732-.1317.08s-.0655.04-.123-.0192-.0637-.0619-.049-.1443.0547-.0891.0353-.196a1.1793,1.1793,0,0,0-.1519-.4337c-.0815-.1022-.0978-.34-.1465-.4021s-.1054.061-.1726.0232a2.1123,2.1123,0,0,0-.2764-.09c-.0557-.02-.0524-.0427-.09-.026s.0276.0744-.0194.1063-.0726.0463-.151.0987-.2978.2031-.3828.2572-.1188.0052-.1929.0252-.0492.0946-.0508.1675a1.05,1.05,0,0,1-.0107.2569c-.023.0807-.07.123-.0593.2225a1.1128,1.1128,0,0,0,.0856.2935,1.012,1.012,0,0,1,.0995.31c.0266.1706-.1828.1128-.1977-.0272a1.1772,1.1772,0,0,1,.0043-.2883.3326.3326,0,0,0-.0688-.2072c-.0208-.0246-.0079.1443-.0543.1262s-.1287.0716-.15.021c-.1042-.2513-.2539-.81-.3314-1.0183a1.7773,1.7773,0,0,1-.1068-.33c-.0282-.127.0035-.1194-.0056-.2418s.0216-.5253,0-.5953-.0787.0969-.1159.1091-.0511.0391-.11,0a.8515.8515,0,0,1-.1786-.2886c-.0032-.0349.173.0382.15-.0245s-.0389.0133-.0935-.043-.15-.1548-.2153-.2357-.0382-.1671-.1063-.27-.3335-.1018-.4659-.1266a1.5248,1.5248,0,0,1-.4149-.22c-.0968-.0609-.1286-.0516-.1675-.1417s-.0452-.1752-.15-.1692a.4428.4428,0,0,1-.2486-.066c-.0817-.04-.088-.1124-.16-.1709a.5109.5109,0,0,1-.1557-.2309c-.031-.09-.0374-.1851-.1226-.2339s-.1654-.0422-.2069.0475.0517.1725.0969.2709.1677.443.21.5058-.0034-.2079.0419-.1667.0053.2685.0528.3307.2366.0589.3153.05.1861-.2216.2179-.2088-.0031.2429.0543.2881.0735.1008.12.1353.0773.0342.1017.0845.0256.12.0738.1578.0349.0756.0265.1373-.1188.15-.1517.1746-.0035-.0823-.0268-.0517a.4553.4553,0,0,0-.048.1924c-.0012.0611-.0263.0658-.0815.0782a1.6154,1.6154,0,0,0-.1725.0436c-.05.0178-.0261.1067-.07.12s-.0558-.0435-.1-.0358a1.1,1.1,0,0,0-.1291.0243c-.052.0145-.0425.0935-.107.1131s-.2177.0462-.2765.0626-.0279.0233-.0605.0541-.0375.0267-.097.0273-.172.0177-.24.0264-.065.0829-.1457.0686-.1142-.0061-.13-.1228-.0411-.2418-.0629-.3843a2.3892,2.3892,0,0,0-.1961-.5064.4479.4479,0,0,0-.153-.1933c-.077-.0712-.0478-.1931-.0646-.2886a1.6184,1.6184,0,0,0-.1021-.2969c-.0345-.0844-.0671-.0751-.1042-.168s-.1379-.3-.1656-.3949a.3149.3149,0,0,0-.1136-.181c-.0456-.0317.0385-.2088.01-.2118s-.0271.2373-.0783.2384-.1434-.3581-.1849-.3355.0314.2306.0869.34.1594.4229.2066.5468a2.7457,2.7457,0,0,0,.0921.3256c.05.0834.0847.0889.1028.1687s.0224.1768.0361.2518-.0052.1213.038.1855a1.4017,1.4017,0,0,1,.1319.173c.0464.0868.0881.3054.1238.3937s.091.0438.143.1049.0471.1118.1255.18a.4442.4442,0,0,1,.1114.3014.25.25,0,0,0,.187.2124c.0966.0143.4363-.0576.5347-.0558s.1383-.0494.17.0367-.0275.1623-.057.2836a1.5791,1.5791,0,0,1-.2117.4187c-.0872.1318-.0478.1652-.2152.3232a3.0921,3.0921,0,0,0-.6492.6978c-.0337.0631-.2835.3635-.2374.4788a.5873.5873,0,0,1,.0581.2837.3315.3315,0,0,0,.07.25,1.4258,1.4258,0,0,1,.0747.5593.3866.3866,0,0,1-.193.3331c-.1.0552-.1586.0388-.2236.1027s-.114.1329-.1689.1908-.1017.0828-.0769.16.0981.1452.0945.23.0194.1941-.0266.2669-.1455.0616-.2183.1005-.061.0886-.07.1715.0307.1471-.0262.2438a3.2143,3.2143,0,0,1-.28.3978,1.3294,1.3294,0,0,1-.2.1706c-.0719.0561-.058.1038-.1666.1308s-.3811.0713-.4926.0893a2.1257,2.1257,0,0,1-.2444.0422c-.0844.0036-.085-.0679-.154-.1164a.2143.2143,0,0,1-.0778-.209c.0054-.087-.0427-.1153-.0732-.1955s-.0891-.2105-.1228-.2917-.0975-.0887-.1439-.1528-.0254-.12-.0411-.2136-.0372-.2218-.057-.3406a1.5906,1.5906,0,0,0-.1762-.3885,2.3845,2.3845,0,0,1-.1414-.2589c-.0337-.09-.0019-.0455.0068-.169a1.6857,1.6857,0,0,1,.1126-.5236.63.63,0,0,0-.0125-.4653c-.0462-.16-.102-.4293-.1374-.5595s-.0745-.1057-.1271-.1918-.1428-.1831-.1883-.2636-.0135-.0925-.0079-.1851.0268-.2688.0357-.3676a.2469.2469,0,0,0-.043-.2021c-.0485-.0777-.0822-.1051-.1678-.0837s-.1579.0807-.2395.0332-.1032-.1562-.2062-.1938-.361.0854-.4582.1429-.1962.1446-.2777.1972a.24.24,0,0,1-.19.037.3918.3918,0,0,0-.22.0262c-.0858.0407-.2157.1385-.2984.1736s-.0731-.0086-.1554-.0434-.1952-.0843-.302-.1378a.5342.5342,0,0,1-.2708-.2282c-.0826-.1379-.2953-.477-.367-.6033a1.6511,1.6511,0,0,1-.1287-.2178c-.0353-.0894.0393-.1477.058-.233s.0867-.175.0713-.2777-.0523-.2313-.07-.3371-.0766-.1823-.0579-.2927.023-.0523.09-.2134.2784-.6288.36-.8216a1.2993,1.2993,0,0,1,.3366-.4241c.1074-.1038.1009-.0682.1315-.1935s.0237-.263.0578-.4042.283-.2576.3318-.375.0635-.2693.1473-.3026.094.114.1644.0841.0923-.0507.1456-.05.0467.0781.11.0372.1308-.12.223-.1835a2.4025,2.4025,0,0,1,.4418-.2262c.0952-.027.0952-.0441.1531-.0412s.068.0349.1173.0249.0668-.0626.113-.076a.2994.2994,0,0,1,.1118-.0094.51.51,0,0,0,.25-.07c.0555-.045.183-.038.1982.0289s-.0585.1835.0057.27-.1225.1594-.1007.2211a.3248.3248,0,0,0,.1986.1687,3.1175,3.1175,0,0,1,.3582.0972c.096.0423.08.1465.1633.2s.1488.0112.2344.0957a.1238.1238,0,0,0,.2177-.0465c.0332-.0938-.0375-.0825-.0128-.1409s.0095-.0934.07-.1321a.4218.4218,0,0,1,.2754-.028c.0616.0238-.0051.0653.0461.0817s.1093.0261.1613.04.0428.0534.0708.0881.0242-.0382.08-.0216.1753.0618.2537.0875a.2249.2249,0,0,0,.1958.0024c.0893-.034.0989-.06.2072.0141a.215.215,0,0,0,.3357-.085,1.161,1.161,0,0,0,.1274-.541c-.0376-.1306.0442-.1821.0182-.252s-.0456.01-.0733.0166-.0444-.041-.08-.0416-.0486.0779-.0873.0905a.2244.2244,0,0,1-.12-.0105c-.0525-.01-.1156-.1042-.1647-.13s-.0729-.0448-.1006.0021,0,.0781-.0817.0681-.1024-.0762-.1986-.1474a.657.657,0,0,1-.1454-.47c.0318-.0874-.0751.0517-.0767-.0165a.1564.1564,0,0,1,.1656-.1452.3307.3307,0,0,0,.2342-.0254c.0388-.0356-.088-.0348-.0662-.0766s.1076-.02.1638.0077.1058-.01.1524-.0435.1025-.08.1568-.0606.1588.0217.1908.0331.0047.0729.0552.0886.0341-.0095.0793.0442a.6221.6221,0,0,0,.19.1068c.062.0335.1166.0108.1869.0244a.2244.2244,0,0,0,.2-.0482c.0591-.0524.0245-.1525-.0157-.2167s-.1263-.1159-.17-.1838a.7237.7237,0,0,0-.1822-.2057c-.0582-.0311-.0554-.0478-.0877-.0791a.5721.5721,0,0,1-.091-.1034c-.0149-.0273.0133-.02.02-.0441s.0925.0694.0784.0261.0471-.1307.0871-.1284-.0938-.0959-.078-.12.0762.0431.08-.0005.06-.01.0772-.0517-.0283-.0387-.0765-.0442a.3291.3291,0,0,0-.1884.0571c-.022.0284.0046-.02-.0077-.0206-.0644-.0026-.1288.0553-.1653.0761s.0492-.0319-.0035-.0287-.0281.106.0043.1708.1458.0253.1637.071-.1053.0145-.1389.0291-.2043.1359-.2063.0519-.0807-.1455-.0937-.1773.1594-.0817.0771-.1288-.0708-.02-.1173-.0286-.0748-.079-.0814-.0779.1331.0232.1059-.0039-.1476-.0717-.1906-.0409a.39.39,0,0,0-.1236.1747c-.0112.055.0042.1033-.0171.1485s-.0685-.0041-.0811.0613-.0078.1806-.0786.2391-.04.1693-.0148.2372.1334.1046.1255.1689-.1076-.029-.1514.0013-.1224.1723-.159.17.0552-.0982.0557-.1089-.0707-.0286-.1012-.0417a.7931.7931,0,0,0-.143-.03.1009.1009,0,0,0-.087.0309c-.03.024.02.0366-.0088.0826s-.089-.036-.1153-.0244-.0157.1231.0323.1683-.0156.11-.0009.1451.147.1732.1192.2-.1069-.065-.1066-.0087.0691.0567.009.1015.0112.1034-.0128.1227-.0785.0011-.1013-.0557-.0259.0164-.0785-.0135.0166-.2212.0163-.25-.1124-.048-.1265-.129a.5.5,0,0,0-.0937-.2079.3664.3664,0,0,1-.0339-.2563c.0106-.097-.0249-.1116-.0885-.1872a.9024.9024,0,0,0-.2887-.23c-.0839-.027-.0842-.1065-.1089-.153s-.0485-.21-.0983-.1869-.0624.0567-.0836-.0385-.0051-.0519-.0785-.03a.0974.0974,0,0,0-.0743.14c.0251.0673-.0371.1176.014.1653s.1127.0567.1478.1149.0219.1389.0687.1886.0582.0985.1394.1032.0333.0178.0659.0666.3083.255.2581.318-.0995-.1615-.1473-.1034a.1577.1577,0,0,0-.0547.1176c-.0083.0614.0051.0241.0491.0873s-.0313.0753-.0566.1527-.0669.1331-.1125.1019-.0552.1351-.04.1839-.0524.1015-.103.0339-.2618-.1523-.1957-.2135.1508.0341.2069,0,.108-.0068.1446-.0456.0154-.0519.0454-.0937-.02-.205-.0544-.2325-.0757.0012-.072-.0573-.0351-.05-.065-.0657-.0419-.1222-.1165-.112-.0888-.044-.15-.1-.1931-.1384-.212-.2327-.0387-.137-.11-.1669-.085-.04-.1413.02-.1949.2442-.2838.2571-.1631-.0523-.2355-.0468-.1.0817-.1338.1372.0388.1369-.0052.2036-.099.0768-.1828.1389a1.0959,1.0959,0,0,0-.2315.3716c-.0325.0914.0654.0966.0213.1625a.74.74,0,0,0-.0889.1865c-.0147.0489-.0817.0183-.1035.0651s-.0151.0991-.0752.1254a1.4387,1.4387,0,0,1-.2395.0381c-.0814.016-.09.1056-.1762.1433s-.0812-.1255-.0879-.1438a.2244.2244,0,0,0-.1569-.0228.5752.5752,0,0,1-.16.0426c-.02-.0072.0229-.1211.0119-.1551s.0017-.0561-.0081-.0943-.0145.0331-.0419-.0126a.2885.2885,0,0,1,.01-.2013.6586.6586,0,0,0,.0442-.3278c-.035-.0774.0114-.2278-.0088-.2545s-.07-.031-.0462-.0959.09-.0471.1235-.0727-.04.0069,0-.0365.1025.0066.1718-.0127a.4729.4729,0,0,1,.2191-.0293c.0764.0149.1237-.0217.2-.0155s.0877.0381.1877-.0108.111-.3373.1029-.4407.01-.1518-.0728-.1765-.0364-.1274-.0577-.1494-.0239-.0067-.0452-.0313-.0594.006-.0857-.0152-.0622-.0506-.0988-.0392a.0625.0625,0,0,1-.076-.0311c-.0073-.02.0382-.0114.0323-.0246s-.079-.049-.04-.0794.0976-.0014.1583-.0633.0459.04.0953.0327.1273-.04.1376-.0865-.0451-.14-.0374-.1677.068-.0164.0763.0093.0015.05.045.05a.3089.3089,0,0,0,.1607-.0513c.0234-.0266-.0548.0158-.034-.022a.6473.6473,0,0,1,.1533-.1318c.0545-.0391.0122-.1227.0393-.1784s.1243-.0757.1633-.11a.3143.3143,0,0,1,.1493-.0473c.0172,0-.0817-.0178-.0723-.0345.021-.0371.0389-.0054.0661-.0394.0064-.008-.0048-.0353.0159-.0689a.8681.8681,0,0,0,.0647-.1848c.0115-.0515.0477-.0208.08-.0725s.1516-.0672.1949-.0843-.0009-.0422.0263-.0548.0436-.0034.0649-.02.09.0269.0938-.0046.0624-.0571.0775-.0635-.0895-.0569-.044-.0984.0032-.058-.01-.1083.0081-.1054-.0327-.1483-.0225-.0646-.0338-.129.0293-.229.1-.2316.1943-.1665.1848-.1393a.6.6,0,0,0,.0235.2774c.0368.0616-.1607.1942-.1307.31a.1737.1737,0,0,0,.1806.1494c.0682-.0065-.0657.0619-.01.0862s.154-.088.2057-.1043.0836.0481.0985.0795.0627.0907.0878.0928.002-.0373.0094-.0492-.0809.0117-.05-.0151.1818-.02.23-.0934.2032-.1358.27-.06c.0253.0286-.0442-.0589-.0391-.0129s.0983.1016.1354.0494.0111-.0658.0328-.0913.0175-.0021.0415-.0152.0488-.0741.0733-.0709-.0874.0549-.0267.0822.046-.2188.0229-.2862.0036-.0938.03-.1494-.0175-.0868.0511-.1466.1473.1253.2065.15.0691-.0776.0647-.1159a1.0271,1.0271,0,0,0,.0024-.1627c-.0129-.0313-.0273.026-.0414.0056a.25.25,0,0,1-.0489-.0713c-.0081-.0294-.0639-.1038-.021-.1409a.3462.3462,0,0,1,.2359-.0653c.0686.0175.1235.0377.1891.0574s.025-.0249.0582-.0547.0844.0048.1141-.0244.1064.052.11.0228-.1333-.1247-.1745-.1388.06-.05-.0108-.0531-.4.0515-.4794.0581-.0718.04-.1123.0018-.0483-.09-.11-.1188-.0627-.0657-.06-.1294a.4873.4873,0,0,0-.0184-.164c-.0157-.0595-.0629-.1309-.0564-.1926s.0492-.08.084-.1339.1246-.131.1605-.1841.05-.1161.0975-.144.09.0252.065-.0611a.2294.2294,0,0,0-.1884-.1738c-.102-.0154-.148-.0115-.2136.0784s-.0374.1066-.0221.225-.1873.2089-.28.3162a.5364.5364,0,0,0-.0742.4789c.0615.12.1517.1.1823.1943s-.0478.1091-.0981.1759a.4033.4033,0,0,0-.1235.2238,2.0384,2.0384,0,0,1-.0306.3262c-.024.1-.1123.1187-.1778.1413s-.0252.0623-.0435.1024-.0227.0352-.0721.0374-.0652.0011-.07-.06a.4564.4564,0,0,1-.013-.1582c.0126-.0722-.0751-.1948-.1095-.2475s-.0072-.0769-.0254-.12a.9372.9372,0,0,1-.0514-.1351c-.0086-.0384.021-.12-.02-.13s-.037-.137-.0515-.1129-.0494.1453-.115.1891-.0787.1231-.1616.176-.2936.0842-.3176-.073-.076-.3852-.0815-.53a.3509.3509,0,0,1,.1026-.2784.819.819,0,0,1,.1767-.1553.7539.7539,0,0,0,.191-.1776c.0517-.0828.0652-.1027.1358-.2065a3.46,3.46,0,0,0,.1968-.4531,3.0055,3.0055,0,0,1,.26-.41.9457.9457,0,0,1,.3089-.3372,3.7573,3.7573,0,0,1,.4558-.1719c.1084-.04.0995-.1251.1593-.1615s.1737-.0481.1906-.0205-.1612.1944-.116.2319.1441-.1618.169-.1714.0055.11.0285.1042.0688-.1009.0974-.1184a.1181.1181,0,0,1,.1188.02c.0207.0257-.0841.0545-.0439.1028s.0368-.084.0975-.0592a1.4181,1.4181,0,0,1,.22.1239c.0584.0406-.0413.076-.0779.0864s-.16-.05-.17-.0369.0836.0736.1011.106.0714-.0067.1106.0123a.2214.2214,0,0,0,.1644.0075c.0373-.0233.1146.0206.1241.0773s-.1008-.0485-.1043.003.1475.1172.2536.1177.2.0947.29.1635a2.8856,2.8856,0,0,0,.3072.2282.4924.4924,0,0,1,.2243.2419.1507.1507,0,0,1-.0233.1814c-.0453.0586-.0144.0744-.105.0876a.4791.4791,0,0,1-.2877-.0556c-.1274-.0554-.4874-.2777-.5712-.3244-.031-.0173.23.2265.212.3159a.46.46,0,0,0,.0766.35c.0771.0686.2069.1973.2993.1831s.0055-.1034-.0252-.1239-.1286-.0715-.1024-.1319.1258-.02.184.02a1.2207,1.2207,0,0,0,.2483.1518c.0348-.002-.0917-.1771-.0516-.2127a1.3894,1.3894,0,0,1,.1851-.0943c.0488-.0285.0834-.063.1391-.0469s.1621.1222.2042.1159.0334-.103.0361-.14-.0631-.1078-.0672-.1416a.78.78,0,0,1,.0492-.1806c.0134-.0406-.0938-.1307-.0688-.1342a1.9235,1.9235,0,0,1,.2442.1049.3478.3478,0,0,1,.1317.199c-.0078.0311-.1525-.0755-.1819-.0123s.0249.1282.0679.1868.1048.0587.1774.0647.0342-.0769.0738-.111.0669-.0153.1292-.0231a1.625,1.625,0,0,1,.2438-.0337c.0849.0017.3037-.0738.37-.0313s.05.1481.1437.1749.1041-.0656.1828-.0433a.5721.5721,0,0,0,.2322.0607.3131.3131,0,0,1,.22.0574c.0473.0375-.0876.0267-.0319.07s.0869.0671.1851.0011-.0739-.1516-.0034-.1963.4213.1181.5171.2018.233.1889.3163.2485.1682.227.209.2385.07-.13.0326-.1833-.17-.1875-.2162-.26.032-.127.0736-.1854-.1424-.13-.1147-.1655.1818-.0625.2544-.1.0781-.1582.1456-.2187.4483.1231.477.195-.1037.1524-.1188.2356.042.1418.0619.2419-.14.3616-.082.452.15.1241.11.21-.06.1411-.1307.1777-.2058.0318-.264.0635-.1937-.119-.1812-.0747.23.2549.3493.2367a.6856.6856,0,0,0,.3608-.1638c.08-.0861-.0474-.2709.08-.2784s.142-.0089.2008.0314.1044.2222.1335.2161.0055-.1562-.0362-.2052a.3593.3593,0,0,0-.1837-.1146c-.0688-.0134-.199-.0062-.234-.0593a.2365.2365,0,0,1-.0205-.2123c.0327-.057.1167-.1159.0864-.1892s-.1319-.18-.0791-.2476.1395-.0425.2175-.05.0072-.1761.0244-.1846.1324.1206.0745.1833-.05.1322-.0107.22a.8651.8651,0,0,0,.4011.2263c.0143-.02-.2345-.1672-.2944-.2511s.0632-.1189.178-.109a.812.812,0,0,1,.3551.1793,1.59,1.59,0,0,1,.1311.1353c.0408.04.1211.0665.1446.0438s-.011-.1348-.0337-.1789-.1367-.0642-.1726-.099-.0954-.2753-.0144-.297a3.1664,3.1664,0,0,1,.5065.1212c.1128.0152.2146.0683.3048.0761s.0469-.0555.0678-.1252.0167-.1323.1236-.1419.1132-.049.2585-.043a3.9426,3.9426,0,0,1,.5425.0935,5.9814,5.9814,0,0,0,.9159.121c.1817-.0092.0416-.1071.1525-.1289s.1792-.0126.2941-.0412a.3917.3917,0,0,1,.3457.1754c.0126.0719-.2455-.0325-.2248.0109s.3227.1438.3495.1851-.17.0623-.1543.0887a.6271.6271,0,0,0,.1992.0846c.03.0051-.0117-.1375.0453-.1214s.0995.04.1723.0644a.6288.6288,0,0,1,.2472.1229,1.8764,1.8764,0,0,1,.224.2574c.0363.0653.07.1038.0628.1466a.161.161,0,0,1-.0736.1063c-.3919.1062-.7857.1739-1.174.2735.2384.0075.5486.052.7586.0515.0528,0-.2042-.07-.1518-.0921a.2468.2468,0,0,1,.28.0495.5221.5221,0,0,0,.3184.1927,3.4127,3.4127,0,0,1,.5935.2534c.083.0544-.13.0029-.0938.0436a.4986.4986,0,0,0,.1742.1513c.07.0221.1805.0509.2443.0657s.1628.0947.2009.0174.0461-.1153.1382-.0817a1.445,1.445,0,0,0,.24.07c.083.016.17-.0166.2387.0346a.5722.5722,0,0,1,.135.24c.03.0737-.0563.1444-.0622.2118s-.0541.1789-.0066.24a.9481.9481,0,0,0,.2025.2c.0641.0372.1338-.0909.1885-.1329s.0881-.0653.1442.0086a.2476.2476,0,0,0,.1945.1207c.0829.0025.1506-.0152.2094.03s.1108.1426.1805.1415a.8.8,0,0,0,.2382-.0231c.0359-.0218-.0863-.1433-.0257-.174s.0609-.14.1634-.1088.306.14.4259.1919a3.1127,3.1127,0,0,1,.3261.1932,2.327,2.327,0,0,1,.3582.2051c.0955.0844.1021.2873.2319.3217a3.6945,3.6945,0,0,0,.4383.0362.99.99,0,0,1,.3312.15c.09.0484.0823.044.1173.1186s-.0584.1135-.02.1773a.527.527,0,0,0,.3139.1447,1.56,1.56,0,0,1,.3717.0825c.0848.0365.1029.07.1767.0488s.08-.0243.1233.04.0774.1654.136.2a.1939.1939,0,0,0,.1732.0186c.0572-.0214-.0659-.2666.0382-.27a4.1686,4.1686,0,0,1,.5777.1582,1.3769,1.3769,0,0,1,.4223.2863c.13.0986.33.2645.4321.3562s.1157.1153.13.218.0459.194.118.1916-.0521-.1394.01-.1458a.6763.6763,0,0,1,.2878.0955c.0647.0428.178.16.1817.214s-.12.0782-.1615.1006S60.872,20.88,60.8416,20.9024Zm-16.6794-.2667c-.0332-.048.0168-.0543-.0543-.13s-.08.1254-.104.1268-.032-.2111-.03-.2564-.1245-.091-.1431-.1355a1.7393,1.7393,0,0,1-.0313-.2c-.0216-.0435-.1106-.1032-.0759-.1131s.1066.0806.1181.0476-.0733-.0807-.0368-.12.0512-.03.0935-.02a1.0169,1.0169,0,0,1,.2112.1041c.0023.01-.0854.1216-.0617.111a.5269.5269,0,0,0,.1164-.0854c.0333-.0339-.115-.089-.1345-.1182s.0382-.1267.0118-.1652-.0337-.148-.09-.1228-.0934-.037-.1409-.07-.0682.0288-.1351.014-.088-.01-.1058.0631-.09.0311-.1365.0486a.092.092,0,0,0-.0672.1051c.0063.055-.09.0591-.0683.0969s.12.0925.1107.1808a.8424.8424,0,0,0,.0552.2863c.0233.08.0988.1174.1166.1882s.13.1857.1338.2153-.0877.0081-.0836.0753-.0313.0883-.0438.1458a.5.5,0,0,0-.0066.17c.0068.061.0336.0755.0816.1038s.0525.0746.0975.1039a1.3843,1.3843,0,0,0,.15.1014c.05.023.1942.0728.2288.0328s-.0313-.1962-.0022-.2687-.06-.1556-.0739-.1925.0413.0274.0377.0057a.2066.2066,0,0,0-.0234-.09c-.0183-.0222-.0425-.014-.0677-.037s-.0053-.1263.0044-.1265c.0424-.0008.18.1066.2139.0676S44.1954,20.6837,44.1622,20.6357ZM23.1462,15.83c.0116.0236.1454-.004.1521-.0244s-.02-.0241-.038-.0287S23.1347,15.8067,23.1462,15.83Zm4.8017,11.2744c.002.0558.102.0525.1307.0563s.0965-.0494.108-.057.0017-.025-.0311-.0466S27.9459,27.049,27.9479,27.1048ZM27.4424,22.26c.0094-.01-.02.02-.0133.0216.0048.0014.0029.0114.013.0055a.0643.0643,0,0,0,.02-.0784c-.0057-.0124-.0091.0331-.0144.02-.0139-.0344-.0518-.0326-.0789-.0118s-.0889.0134-.0953.0324.0123-.0076.0332.0077S27.42,22.2844,27.4424,22.26Zm-.2467-.0618c-.0046-.0081-.0321-.0082-.0328.0054,0,.0083.0211.0253.0229.0251S27.2,22.2062,27.1957,22.1982Zm.0592.0587c.0045-.0032.0019-.0158-.0011-.0188a.0807.0807,0,0,0-.0343-.0147c-.0052.0021-.0256.0229-.0219.03A.0919.0919,0,0,0,27.2549,22.2569Zm3.4882-2.0709c.0094-.0382.0948-.1216.0371-.1339s-.223.1718-.2407.2937a1.9608,1.9608,0,0,1-.2205.4447.183.183,0,0,0-.0172.1921c.0273.0512.1.0129.1564-.0178a.7184.7184,0,0,1,.3319-.0494c.0394.0254-.0867.0927-.0375.1068s.1869-.188.2216-.1653-.0251.1051.0566.099.073,0,.11-.0714a.4853.4853,0,0,0-.0212-.28c-.0178-.0652-.0774-.0233-.0812-.079s.0038-.0843-.0515-.125-.1952.09-.2232.0928.0085-.0874-.0273-.0954-.05.015-.0667-.034S30.7337,20.2243,30.7431,20.186Zm-1.3943,6.5317c.038.0952.1748-.0668.1782-.09s.0006-.0215-.02-.0217C29.4466,26.6054,29.3108,26.6224,29.3488,26.7177Zm-1.0607.0215c.0468-.0177.1381-.0666.1451-.0925s-.0746-.0539-.11-.0534-.0265-.0583-.0778-.0487a.2185.2185,0,0,1-.198-.0642c-.007-.0105-.0025.0272-.0126.0211a.8931.8931,0,0,0-.47-.1147.6869.6869,0,0,0-.2834.1191c-.0685.04-.1735.1793-.1473.2017s.3041-.277.3567-.218-.06.0177-.0426.0435a.0674.0674,0,0,0,.09.0142c.0362-.0184.0394.0066.0908-.0006s.1441.0208.2068.019.0973.099.1478.1082.0817-.0207.0969.0255-.0915.0979-.0607.1116A.9822.9822,0,0,0,28.2881,26.7392ZM29.699,21.32c-.0354.0511.0387.1325.1226.1376s.151-.0872.1421-.1144-.1857.0358-.22.0388S29.7344,21.2688,29.699,21.32Zm-.0255-.5668c-.0074.0538.313.1335.3168.0416S29.6808,20.6991,29.6735,20.7531Zm3.7754,8.6344a.46.46,0,0,1-.0522.3649c-.0782.1578-.2378.4735-.31.635s-.1013.1318-.1183.322-.0164.5869-.03.7952a1.6906,1.6906,0,0,1-.2292.5662c-.0632.1326-.036.1473-.1269.2067s-.1582-.0042-.2536.1-.3316.3308-.4167.445-.0041.2192-.0265.3229.0426.0789-.027.2083-.2361.44-.3319.59a4.7322,4.7322,0,0,1-.2881.4523c-.0967.114-.3673-.0982-.4283-.0386s.1774.1193.198.1822.071.115.0628.1861-.0475.088-.0868.1721-.1874.1358-.27.1813-.2326.026-.2728.0544.05.1128.0161.1711.036.0715-.0185.15-.2346.0309-.2857.0368,0,.15.003.1953.0922.0889.0717.1566-.0589.18-.0832.2518-.0564.0739-.1178.1a.1887.1887,0,0,0-.0983.1456c-.0137.0585.07.1054.1059.1369s.13-.0012.1238.0634a.3213.3213,0,0,1-.0607.1554.5129.5129,0,0,0-.0986.1667c-.0186.0771-.05.091-.1186.1563s.0421.2817.0715.3483.0046.0819.0547.13.1465.0707.201.1318.2988.0261.2965.0464a2.1557,2.1557,0,0,1-.3256.1862.2258.2258,0,0,1-.2306-.0072c-.1092-.0451-.3376-.0932-.4533-.1524s-.0807-.0542-.1632-.1926a1.0617,1.0617,0,0,1-.2594-.5443c-.0073-.25-.0076-.6115-.0132-.91s-.0157-.6486.0089-.9693.0644-.8484.0851-1.1287.0391-.5173.0528-.7006a2.32,2.32,0,0,0,.0236-.3264,1.0514,1.0514,0,0,0-.0644-.26c-.0226-.09-.0076-.1649-.059-.2348s-.1187-.0527-.2026-.0975-.1962-.0777-.2963-.1374a.5221.5221,0,0,1-.2091-.2174c-.0906-.134-.2866-.41-.3926-.57s-.2413-.3337-.3291-.4831.0134-.3434.0323-.472a.7909.7909,0,0,1,.0527-.2928,2.5632,2.5632,0,0,1,.1655-.3066,1.1655,1.1655,0,0,0,.1773-.5773c-.0293-.127-.0182-.0938-.01-.1487.0123-.081-.0107-.0574-.0088-.1294s-.1275-.12-.12-.1967.0071-.095-.0532-.1195-.058-.0106-.1.0253a.5437.5437,0,0,0-.0957.12c-.0341.05.0648.04.0322.1079s-.1023.0055-.1245-.0161-.1279-.0074-.1651-.0364-.0324.0506-.0674.025-.0406-.0271-.0933-.0617-.17-.072-.2156-.1449-.0034-.132-.0754-.2172-.1991-.2417-.34-.2489-.3171.0208-.4211-.0658-.1632-.1979-.2562-.2641-.0989.0105-.2057.0545a.6684.6684,0,0,1-.4217-.0852c-.11-.0534-.2507-.0843-.3355-.1223s-.0781.0041-.1425-.0572-.1517-.1583-.2224-.2334-.02-.154-.0093-.2468-.0886-.2015-.1291-.2764a1.0543,1.0543,0,0,0-.1176-.18c-.0543-.0691-.1761-.2052-.2207-.2666s.0073-.0668-.0017-.1166-.0185-.0476-.0542-.1043a1.5125,1.5125,0,0,0-.165-.2321.4387.4387,0,0,1-.1406-.19c-.0213-.08-.0321-.2738-.0844-.3152s-.18-.15-.1985-.1169a.8008.8008,0,0,0,.0876.3563,2.1865,2.1865,0,0,1,.1859.3454.4461.4461,0,0,0,.0973.17.4918.4918,0,0,1,.0707.1755.8633.8633,0,0,1,.049.2c.0068.079.0235.03.0661.0583a.2008.2008,0,0,1,.0809.1483c-.0023.05-.0448.1094-.0813.0272a1.3986,1.3986,0,0,0-.2161-.2635c-.0567-.0627-.0154-.1355-.0278-.1968s-.0688-.0993-.1017-.1345-.0763-.0284-.0955-.0622-.1279-.1046-.1034-.13.1312-.04.0762-.132a.7088.7088,0,0,0-.16-.2084c-.0746-.0642-.0622-.1272-.0963-.2251s-.0771-.2322-.1242-.3434a.5117.5117,0,0,0-.2856-.2414c-.1025-.0344-.1085-.0139-.16-.109s-.0806-.178-.14-.2975a2.5753,2.5753,0,0,1-.2363-.39,1.9343,1.9343,0,0,1-.07-.5586c.0022-.174-.0149-.3952-.0032-.55s-.0966-.359-.0883-.446.22.11.2448.0466a.2966.2966,0,0,0-.0819-.255,1.3448,1.3448,0,0,0-.21-.1833,1.2286,1.2286,0,0,0-.2194-.0836.3479.3479,0,0,1-.1992-.1955c-.0587-.1155-.2767-.2641-.2744-.4015s-.0454-.1961-.1234-.2238-.069.155-.1371.0692-.0868-.1956-.171-.2488a.4193.4193,0,0,1-.1628-.1535,1.5525,1.5525,0,0,0-.1784-.2582,1.25,1.25,0,0,0-.2095-.1408,2.116,2.116,0,0,0-.4423-.2007c-.11-.0306-.1318.0412-.22.0243s-.1449-.0863-.2216-.1269a.2652.2652,0,0,0-.21-.0539c-.0951.0186-.1005.0554-.0885.16s-.2949.2455-.3679.2384.0361-.0587.0136-.0821a.2285.2285,0,0,1,.0181-.2174.65.65,0,0,1,.211-.0724c.03-.01-.053-.0434-.0587-.0537s.1066-.0673.0527-.0583a.9369.9369,0,0,0-.3185.1916,1.0531,1.0531,0,0,0-.1959.3275c-.02.08.1208-.0365.0855.0486a1.514,1.514,0,0,1-.3163.36c-.0985.08-.2547.1212-.2859.251s-.2791.1782-.3539.2064a.5127.5127,0,0,1-.11.0271c-.0444.0124-.026.0327-.0538.0581s-.1627.0981-.1714.0471.152-.0809.192-.1566.2205-.1408.2671-.1566.1768-.1907.23-.1911.0869-.1629.1174-.2014.0163-.1131.05-.1327.061-.0952.0164-.0808-.2045.1393-.2721.0849-.0936-.0721-.1495-.0717-.0994.0908-.1419.0663-.0428-.25-.0822-.2733-.1031.1262-.1617.094a.4944.4944,0,0,1-.1833-.1258.7338.7338,0,0,1-.0745-.24c-.0166-.073.021-.0953.0487-.1642s.0542-.1234.1391-.1247.1009-.0764.1675-.1068.1338-.0057.1637-.0819-.0453-.0978-.068-.1374.0755-.0051.0488-.0565-.1018-.01-.1564.0437-.07-.0179-.1578.0234-.32.014-.3594-.06.0565-.0172.0293-.0466-.2017-.0215-.1921-.0836.208-.1145.2473-.1293-.04-.0175-.0089-.0319.1712-.1219.21-.0723a.2238.2238,0,0,0,.1791.09.1836.1836,0,0,0,.1526-.0745c.0169-.0322-.0735-.02-.0813-.035s.0512-.0062.0246-.02-.0055-.0622-.0218-.0783-.16-.0036-.2135-.028-.0771-.11-.1347-.1357-.2072-.0382-.2353-.0878.01-.0956.0224-.13.0165-.0084.0615-.0209.155.0068.1987-.0675a1.1646,1.1646,0,0,1,.1416-.22.9131.9131,0,0,1,.3575-.2115.4755.4755,0,0,0,.2336-.1c.083-.0694.0852-.078.2042-.0434s.3178-.0475.4184.0608.2814.0514.4222.0556.273.0089.4375.02.4627.0432.6237.05.2989.11.4117.117.1225-.1555.185-.2018.1037.0753.1674.0341.3854-.2648.42-.2045-.33.2009-.3006.228.3569-.1778.3976-.1465.0722-.1172.1037-.1292-.045-.0915.0125-.0815.2463.2492.3007.241.0642-.22.1206-.2223-.0135.088.0381.0985-.0348.093-.0117.0938a.3783.3783,0,0,0,.1438-.0677c.0235-.0242-.0273-.0545.01-.07a.2428.2428,0,0,1,.08-.0285.7352.7352,0,0,1,.2792.0507,3.1957,3.1957,0,0,0,.4954.0377c.0859,0-.0528-.029.0166-.035a.4221.4221,0,0,1,.2506.08c.0767.055-.1577.1528-.137.17a.3525.3525,0,0,0,.2142.0159c.0757-.0223.2728-.0768.3539-.1028s.148-.047.2013.0033.144.21.17.2278-.0229-.0812-.021-.1028a.2287.2287,0,0,0,.0113-.0767c-.0041-.0392-.0457-.1114-.0042-.1568s.2623-.1623.213-.1961-.2683.1916-.3115.13.09-.1314.152-.1705a.2215.2215,0,0,1,.2065-.032c.0607.0318.0363.07.0691.1072s.031.0269.0925.03.1444.0182.2286.0315.3739.0093.4178-.0836.06-.1787.1446-.1964a.38.38,0,0,1,.2165.0067c.0349.0217-.0453.153-.0259.18s.136.0971.13.0525-.0449-.2245.057-.2555.0985-.1028.1388-.1476a.0878.0878,0,0,0-.0015-.1167c-.0182-.03-.0728.1175-.1032.06s.0945-.1315.1292-.1773-.0869-.0124-.1333-.0091-.17.0218-.21-.0467a.6505.6505,0,0,1-.0464-.269c-.006-.0972.0539-.1018.1168-.13s-.0613-.04-.0431-.0513a.19.19,0,0,0,.07-.1582.5089.5089,0,0,0-.0537-.1888c-.0419-.0641,0-.1285-.0163-.2045s.1444-.0007.103-.07.1057-.1563.2152-.1523.2914-.0875.3409-.0273-.1455.2817-.1659.34-.33.0906-.2826.085c.153-.0179-.0542.23-.0175.2593s.1941.0509.1929.1651.1564.1273.1685.1873-.1572.124-.1431.161.11.0262.1439-.0085a.1319.1319,0,0,1,.1466.0013c.0232.0245-.0854.0539-.0623.0789s.0846.0557.0614.11-.0092.1311.0358.1217.0576-.127.0655-.1676.0145-.1406.069-.1283.1171.0115.1474.0678a.1378.1378,0,0,1-.0129.17c-.0474.0422.0378-.1128-.0276-.02s.1772.3218.2208.1919.0044-.0721.0364-.1388.0776-.0245.0665-.1077.0662-.1453.0917-.2-.0869-.0981-.058-.1747.061-.0832.1307-.0836.1588-.0536.209-.0042.1317.0428.1639.0707.0054.1176-.0012.1638-.1317.026-.133.0651a.2964.2964,0,0,0,.1083.1625.1227.1227,0,0,1,.0236.1789,1.4155,1.4155,0,0,1-.1913.1764c-.0557.0573-.1151-.041-.1335-.04s.07.1192.0581.13-.0806-.0287-.0963-.0245.0249.0343.0064.0383a.4529.4529,0,0,1-.1013,0c-.0289-.0035.0059-.0632-.0344-.06s-.1387.0329-.143.0775.0949.0024.0863.0484a.4155.4155,0,0,1-.1088.1849.1634.1634,0,0,1-.1867.0085.6417.6417,0,0,0-.3469.0254c-.0129.03.2169.05.2674.0834s.2267-.0539.2491-.02-.0736.2164-.11.2546a.2668.2668,0,0,1-.1038.0759c-.0449.0186-.0709-.0154-.1171.0427a.2855.2855,0,0,1-.2233.1019,1.6913,1.6913,0,0,0-.2217-.0084c-.0213.0007.1233.0293.135.0338s-.0434.0476-.0167.0378.1072-.0423.1584-.0136.0871.0572.037.1085-.1138.0473-.1714.0794-.04.0605-.08.14a1.33,1.33,0,0,0-.1646.377,2.5678,2.5678,0,0,0-.0643.4426c.0218.0771.1463-.0444.1968.03a1.0189,1.0189,0,0,1,.0951.2645c.0314.0976.0868.0467.1608.0147s.0824-.0019.1746.01a1.3893,1.3893,0,0,1,.3833.1339c.0805.05.11.0954.184.1024s.1672-.028.2239-.02.1509-.0785.1724.007-.0177.2316-.0015.3581a.5176.5176,0,0,0,.2356.343c.1235.0775.2466-.1734.2446-.2728s-.0519-.2128-.048-.3015-.1269-.0768-.09-.159.2664-.2258.32-.3437a.4789.4789,0,0,0-.0026-.4214c-.0754-.0807-.0989-.0687-.1553-.138s-.0661-.083-.0051-.1591a.199.199,0,0,0,.0561-.207c-.0226-.0862-.0573-.12-.0372-.2067a.6011.6011,0,0,0,.0006-.26c-.0179-.0844.0083-.1072.0952-.1417s.2777-.0054.3608-.07.1147-.0233.1777.0061.126.02.15.087.076.105.136.0828.1371-.0233.1588.0082-.0565.1111-.03.1592a.464.464,0,0,1,.0127.1846c.0007.0239.0439.0005.0455-.007s-.1464.2323-.0549.1466.3422.0969.4291-.1359c.0051-.0137.0347.0358.0542.0016a.5734.5734,0,0,0,.0658-.2481c-.0122-.0661.06-.1877.1131-.1878s-.0738.0816.0085.0886.2262.226.2652.316.1355.151.1422.2256-.0595.1062-.0479.1538.05.03.08.0512.08.03.1043.0606-.0224.0925.0437.0808a.3946.3946,0,0,1,.2181.005c.0776.0295.122.0626.0511.1074s-.1731.0886-.1925.125.1277-.0824.1163-.0564a.67.67,0,0,1-.1682.1269c-.0419.0213-.0358.1357-.0124.0972a.2927.2927,0,0,1,.0783-.08c.0286-.0234.017-.0312.0418-.0595a.6937.6937,0,0,1,.1455-.091c.0209-.0092-.0633.0013-.0428-.0211a.1108.1108,0,0,1,.124.0133c.0155.0287-.0353.1219-.0041.1031s.0941-.0905.163-.0549.0161.1184.0052.1758.0329.1069.001.1682a.4568.4568,0,0,1-.15.1506c-.0565.0387-.1063.0314-.1671.0774a.56.56,0,0,0-.1332.1624.45.45,0,0,1-.2981.1976,3.981,3.981,0,0,0-.4025.1069.3406.3406,0,0,0-.2738.2156c-.0324.113-.1094.0827-.1581.1456a1.4252,1.4252,0,0,0-.14.2132c-.03.0615-.2163.35-.1889.3231s.2879-.3465.3776-.4624.4063-.2918.4779-.1937-.0665-.03-.0157.0206-.0367.1248-.075.1662-.1371.0268-.147.0514.0612.04.08.0549c.0082.0066.0892-.0619.1034-.031s-.0533.115-.0618.1392.0569-.0507.0526-.0047.042.1515.1252.1428c.0229-.0024-.0273.0156-.0136.023a.2851.2851,0,0,0,.2562-.0416c.04-.0339.0028.05.0183.0341s.0568.005.0494-.042.0271-.2411.1037-.2734.0077.1452.021.1431.13-.0149.079.05a.5084.5084,0,0,1-.1768.1157c-.0412.0233.0565.0146.0185.0475s-.17.1293-.2172.1652a.5673.5673,0,0,0-.09.0759c-.0356.0366-.03-.0326-.0727.0083s-.1036.195-.1495.2323-.0454.0592-.1025-.0067.1074-.2807.1734-.3281.0185-.015.0538.0112.1142-.0639.0985-.0848-.1257.0453-.1485.0467.0588-.09.0274-.0921-.1458.1144-.1721.1543-.0525-.0048-.0688.045-.0787-.0131-.0841.05-.151.1566-.198.19-.0064-.0445-.0353-.0053a.515.515,0,0,1-.1244.1452c-.0587.0376-.0215.0623-.0676.1309s-.0794.3286.0026.307-.0147-.0321.0063-.0322.042.01.03.0369-.1059.0369-.1495.0389-.0067.0827-.0628.0993a.8585.8585,0,0,0-.2561.1722c-.0058.0273.1678-.1137.1837-.1133s-.02.0193-.0153.0249.0611-.026.0531-.01a.5385.5385,0,0,1-.1331.1028c-.0287.01-.1854.0516-.1358.0852s-.0734.3076-.1.3272-.0578-.1368-.0772-.1037.0825.1485.05.2213-.0406.1968-.1.2559c-.01.01-.0061.01-.0126,0-.0283-.0452.0342-.1088.0326-.1533s-.0423-.05-.063-.0583.0233-.1371.0212-.1479c-.0047-.0243.06-.1213-.004-.0738s-.0532.2169-.0411.2628-.0837-.0447-.0776-.0133.0768.0255.0943.0668-.0255.1055-.0067.1508.06.0362.06.0972-.092.1043-.0931.1093.1216-.0334.104.0342-.1021.0566-.1211.0784.0377.0081.0308.0282-.0463.0142-.0518.0444.0817-.0045.0827.005-.0521.05-.0724.0687-.0374-.0226-.0677.0067a1.023,1.023,0,0,0-.0833.1648c-.0262.0459-.0692.0384-.1031.0909a.5167.5167,0,0,1-.0935.146.94.94,0,0,0-.2027.342.4242.4242,0,0,0,.0227.2943c.0432.1052.0979.2579.1287.3641a.562.562,0,0,1-.0043.3242c-.0323.0751-.0628.1023-.1042.0661a.3764.3764,0,0,1-.0928-.09c-.0178-.0266-.0324-.1034-.0586-.1419a.3058.3058,0,0,1-.0354-.146c0-.0342-.02.0607-.0243.017s.03-.2143-.0291-.2591-.1182-.1173-.178-.0834-.0765.0634-.13.0587-.0681-.0847-.126-.052a.361.361,0,0,1-.1988.026c-.011-.01-.2849.1362-.2746.1243s.1386.0324.0832.0808.0739.0119.0684.0437-.027.0806-.0421.0586-.053-.0752-.0847-.0737.0106.09-.0166.0706-.0512.01-.0978-.0076-.0767-.0688-.1364-.0367-.0489-.0134-.1251-.012-.1234.0713-.2221.1357a.8832.8832,0,0,0-.3013.4443c0,.1166.056.0835.0588.1587s-.0107.0522-.026.1388a1.4922,1.4922,0,0,0-.0451.2923,1.5844,1.5844,0,0,0,.1438.5666c.0666.1212.121.1922.195.2216s.039.0669.0872.0583.088-.0576.1287-.0757a.5892.5892,0,0,1,.1154-.0487c.0357-.0066.0495.0386.0735.0264a.1211.1211,0,0,0,.055-.041c.0161-.0228-.0207-.0263.0024-.0632a.276.276,0,0,0,.0664-.1328c.01-.0711.0238-.2264.0979-.2759a.7184.7184,0,0,1,.2023-.0913c.0808-.0272.1686-.0345.1549.0588a.716.716,0,0,1-.0966.2361c-.0254.0424.0352.0132.0318.0255s-.0331.0344-.034.0517c-.0006.01.0045.007.007.0105.0041.0058.0234-.0278.0181-.0167-.0157.0332-.0221.1626-.0382.184s-.0363-.09-.0275-.0865-.059.0573-.0231.074-.0051.16.0142.2161-.0877.1641-.0658.1944.2239-.0352.2792-.04.0623-.0517.1181-.0551.08-.0284.1575-.009a.1926.1926,0,0,1,.1333.2076c-.0149.0953-.0123.16-.0266.2489s-.0208.0327-.0411.1621.2005.5.3587.3957a.6223.6223,0,0,1,.2784-.1336c.12-.03.1789.178.2256.1251s.1338-.42.2112-.5067a.5639.5639,0,0,1,.1822-.1379c.0882-.0556.1647-.1346.269-.1948s.1769-.0324.3278-.04.4722-.0407.6317-.0457.2-.06.3449.0273.352.2779.505.3742.3223.0024.4762.0076.2265.1956.3109.2854.1717.2089.2449.2736,0,.09.1147.112.3554.0225.5084.0372.3687.0247.5175.0392a1.3968,1.3968,0,0,1,.4119.1979c.0914.0423.1465-.0922.1938-.0175S33.4191,29.2677,33.4489,29.3875Zm-5.6547-6.7151c-.0148.0254-.1507.1521-.22.1548a.1925.1925,0,0,0-.1421.0974c-.0315.0428-.0787.1061-.1139.0831s.059-.089.0588-.0967-.0207-.05-.032-.0364a.8254.8254,0,0,0-.0934.1989c.0047.0252.0577.0026.0772.0115s-.0544.0344-.0034.0311a.9249.9249,0,0,0,.2472-.1589,2.1334,2.1334,0,0,0,.234-.2244C27.8394,22.6918,27.8091,22.647,27.7942,22.6724Zm.1523-.0967c.1173-.0006.241-.144.1983-.1957s.094-.11.0586-.1032-.1214.1452-.2056.1661-.1477-.0154-.2356.1261S27.8293,22.5763,27.9465,22.5757Zm-1.751-.2667c.0043.0407.1156-.0483.1377-.0535s-.0523.0356.0056.0359.3081-.2338.3486-.2191-.0979.1187-.0663.1283.0746-.048.11-.0017.0557.0158.1028.0292.188-.1189.2094-.1044.0392.0494.0733.0443.0717.0826.0553.0771-.0665.0309-.1017.0362a.3819.3819,0,0,0-.2151.1107c-.0067.0106-.0109-.0077-.0134-.01l.0166-.0349c-.0038.0031-.0355.03-.0447.039s.0086-.0576-.0107-.0275-.1326.22-.1109.2667.0924-.1637.1008-.1339a.9163.9163,0,0,1-.0484.2005,1.0752,1.0752,0,0,0-.0427.2543c-.0039.1155.076.3531.1515.171a.5578.5578,0,0,0,.022-.37.5126.5126,0,0,1,.095-.2764c.0235-.0576-.0008.0989.0053.0591s.0643-.095.0724-.1446.0415-.0836.1014-.047.0929.0425.11.0832-.0308-.0206-.0132.014a.1848.1848,0,0,1-.0065.1531c-.0268.0351-.0691.0768-.0519.1121s.0847-.0746.1281-.0865.0494.177.0612.1763a1.0158,1.0158,0,0,0,.082-.1258c.0252-.0342-.0169-.0766.015-.129a.2518.2518,0,0,0,.0039-.1975c-.022-.0345.0619.0276.07.0295s-.0158.0429-.0122.0429.0134.0313.0206.0167.1085-.0038.1109-.0246c.0042-.0362.0369-.0261.0341-.05s-.0712-.188-.1432-.1864-.1977.022-.2585.0225-.1755-.0156-.187-.0538.0069-.0424-.0206-.0672.0351-.0449.0019-.0694-.0087-.0966-.0509-.1044-.1456-.0308-.1712-.111-.0785.0215-.1053.0073-.1213-.0337-.1169-.0147-.0107.0964-.0368.1023.0325-.0718.0114-.0671-.0425.0946-.0621.1023.0341-.0569.0056-.0446-.0415.0842-.077.1216-.1258.0786-.16.1253S26.1911,22.2684,26.1955,22.309Zm-3.2663-3.6342c-.0023-.0163-.0367-.0041-.045-.0123s.053-.0445.0267-.046-.0987.0894-.1427.1057-.1356.056-.1708.0137.1578-.1127.1318-.1376a.2635.2635,0,0,0-.2161.0354,1.23,1.23,0,0,1-.1906.1148,1.2674,1.2674,0,0,1-.2051.0932c-.0721.0211-.1323.075-.0819.1044s.0112-.0252.0384-.0208c.0093.0015-.02-.0122-.0082-.0212a.5161.5161,0,0,1,.1961-.0394c.0367-.0024-.0311-.0132.0014-.0238s.1835-.0364.2019.0123-.1536.0382-.1618.0529.0557.0312.0542.0555-.09.0226-.0652.0632-.0595.07-.0613.0841.1066.0088.15.0071.072-.0839.1135-.1245.1217-.02.079.027a.1792.1792,0,0,0-.05.077c-.0119.0278-.0749.0152-.0475.0378s.1793-.1187.2174-.15-.0746-.0323-.0508-.0583.2378-.0535.2488-.0917-.0358.0285-.0372,0,.0388-.0433.0481-.0687A.34.34,0,0,0,22.9292,18.6748Zm1.0695.6536c-.0363,0-.2308-.005-.2714.0616s-.043.0716-.0755.1235a.2044.2044,0,0,1-.1164.09.1554.1554,0,0,1-.1647-.0368c-.0349-.0378-.0934.0016-.1217-.0269s-.0823-.05-.1023-.0238.0853.0275.0981.051.0907.1253.0453.1419-.0593,0-.0793.0324-.0178.0532-.0464.07c-.0117.0071.0243.0045.0149.0154-.0224.0259-.0748.0119-.1019.0177-.01.0021.0041.013.0013.02-.0082.02-.1173-.0313-.0961.0071s.1783.0606.2518.0546.1983-.0551.2142-.1234.1142-.0676.1524-.1034a.7676.7676,0,0,0,.1025-.124c.0167-.027-.0354.0219-.02-.0015a.3236.3236,0,0,1,.1085-.1017.311.311,0,0,0,.1016-.0532c.0082-.0123-.0571.0216-.0563.008s.08-.0355.078-.04-.0631.0158-.0721-.0044.0817.0145.0507-.0167-.1929.1441-.2024.11.2532-.18.2725-.1065S24.035,19.3288,23.9987,19.3284Zm1.4457,2.1151c.0172-.0072.0111-.0522.0319-.0507s-.0143.04-.0008.0415-.008-.0234.0172-.0251.0263.1014.0228.1061.0314-.0633.054-.045-.0139.0828-.0173.0961.0524-.0517.0369-.0268a.2249.2249,0,0,0-.0285.1745c.0282.0547.0432-.0346.0457-.0529s.0327.0255.0281-.0026.0185-.099-.0161-.1413a.3916.3916,0,0,1-.0729-.1509,2.496,2.496,0,0,1-.0984-.3842c-.0021-.0195-.0085-.0055-.0141-.0059-.0121-.0009-.033.0425-.0445.0317s.0423-.0688.0426-.0716-.0042-.0315-.0251-.0171c-.0546.0379.0161.1259.0057.1385s-.1021-.0455-.1346.0529.05.0989.0575.1221.0177.1733.0689.1949S25.4272,21.4506,25.4444,21.4435Zm-8.1266-.874a.3358.3358,0,0,0-.1812.0385c-.01.0193.1128.0754.1346.0613a.1718.1718,0,0,1,.0724-.0283c.01-.0007.0038-.0113-.0041-.0209S17.3357,20.584,17.3178,20.57Zm4.6089-3.122c.0483.0239.14.0222.1971.0968a.1174.1174,0,0,0,.1881.0008.3024.3024,0,0,1,.0608-.0523c.03-.025-.0019.0322.0289.0161a.2247.2247,0,0,0,.1094-.0785c.0236-.0446-.017-.139.0273-.1777s.1008-.0392.1229-.1.0183-.05.0885-.0958a1.8661,1.8661,0,0,0,.3164-.2162c.0589-.07.0432-.0814-.0123-.12a.6265.6265,0,0,0-.1438-.0673.3041.3041,0,0,0-.267.063c-.0441.0479.0468-.0617-.0128-.0339s-.2179-.0527-.3054-.0243a2.1811,2.1811,0,0,0-.35.1276c-.051.0376.1423.1178.0792.1674s-.07.1626-.0835.2091-.0406.0667-.0493.1248-.0925.13-.0623.1712S21.8783,17.4235,21.9267,17.4475Zm.4186-1.1829c.0591.0029.01-.0271.0487-.0726s.065.0438.078.0605.0822-.0367.0983-.06-.0426-.089-.004-.1046.05.0606.0929.0131-.0172-.06-.0157-.0767.0854-.0383.066-.0747.0838-.0685.0584-.0223-.0043.1508.0938.1119.1551-.1553.103-.196.1123-.0194.0366-.034.0254-.0816.0374-.1181-.1653-.0372-.1824-.0082.0449.001.0277.0285-.07.0231-.1145.0161-.0568.0138-.115.0336a.5314.5314,0,0,0-.177.1477c-.052.0584-.1.1774-.1864.2011s-.1464.11-.0836.153S22.2863,16.2617,22.3453,16.2646Zm.921-.785c-.0143-.0351-.1513-.0376-.1648-.0026s.0891.054.0991.0541S23.2807,15.5146,23.2663,15.48ZM18.841,20.8748c.0181.0284.0873-.0214.0968-.0437.0055-.0128.0165.02.02.0128.002-.0043.023-.0228.0142-.0278s-.0556-.0322-.074-.0265S18.8229,20.8465,18.841,20.8748Zm2.5365.6905c-.001-.0608-.1238-.0858-.1526-.0218s.1889.3941.2341.3446-.0381-.011-.0434-.0646S21.3785,21.6261,21.3775,21.5653Zm-2.6385-.6059a.0939.0939,0,0,0,.004.1741c.0847.0233.0447-.068.1008-.0638s.049-.0553.0633-.0709.06.0036.0512-.0367-.0051.0491-.0326-.0223S18.8106,20.9242,18.739,20.9594ZM22.35,22.4469c-.0325-.0515-.0518-.0262-.09-.0514a.1271.1271,0,0,1-.0685-.0865c-.0235-.06-.1338-.1083-.1834-.121s-.2114-.0865-.1877-.031a1.2907,1.2907,0,0,0,.4781.3942C22.4439,22.6281,22.3829,22.4983,22.35,22.4469ZM43.7039,28.55c-.0283-.0631-.113-.1731-.1255-.074s-.0429.1105-.0992.167a.7044.7044,0,0,1-.1489.1337,2.0258,2.0258,0,0,1-.2205.074c-.0621.0284-.065.1228-.0567.19s.0676.17.0567.2517-.0864.141-.1113.22a.3893.3893,0,0,0,.0183.2377c.0247.0745.0292.1814.052.2418a.1611.1611,0,0,0,.1709.08c.0538-.0152.1142.0045.1672-.0591a1.4655,1.4655,0,0,0,.0569-.1905c.0377-.1074.1336-.5035.1817-.6336a1.2653,1.2653,0,0,0,.0365-.349c.01-.0719.0261.088.059.0331a.551.551,0,0,0-.0279-.3062C43.6884,28.5226,43.7077,28.5587,43.7039,28.55ZM51.5847,28c-.029.0252-.0012.146-.0088.1952s.0992.086.0765.111a.0979.0979,0,0,0,.0291.1387c.0594.0258.0613.0145.0981.0456s.0269.0773.0473.089.0026-.0869.0346-.0775.0606.074.0575.1124a.102.102,0,0,0,.0758.0926c.0326.0006-.0366-.121-.0118-.1162s.0809.0136.05-.04-.0211.02-.0488,0a.37.37,0,0,1-.0619-.0721.2713.2713,0,0,0-.063-.0575c-.03-.02-.0247.0349-.0632.0128s-.0313-.0822-.04-.1376a.2926.2926,0,0,1,.03-.1355c.012-.0458.0341.0229.0545.0023s.0149-.0348.0321-.0727a.2682.2682,0,0,0-.0054-.15c-.0116-.0428.06-.1.0212-.1221a.5085.5085,0,0,1-.1133-.08c-.03-.0321-.0671-.0331-.0855.0065s-.0455.1648-.06.2081.0253.09.0063.11S51.6137,27.9751,51.5847,28Zm.3387-1.0754c.0316-.0572.0918-.2344-.0147-.2264s-.1432.1111-.1712.1821.0139.2741.0577.2829S51.8917,26.9821,51.9234,26.9249ZM51.43,28.6582c-.0106.0253-.0732.15-.1243.169s-.1842.106-.166.1353.1958-.0413.2021-.0981.098-.04.1062-.0508c.0222-.0289.0071-.0971.01-.1128S51.44,28.6329,51.43,28.6582Zm.6976.528c-.0184-.0139-.0278-.0818-.0529-.08s.0109.0938-.01.088-.0208.0094-.05-.0052-.0406.0284-.0541.0291-.1124.0271-.1163.0295.0435-.0748-.0178-.0895-.0238.0624-.0817.0518-.15.0911-.1151.1066.0953-.0953.1031-.032.0275-.0362.0359-.0091-.0021.038.0236.0468-.0368-.0531.02-.0416.0333.1051.0251.17.0682.0965.1144.0929c.0064,0,.0094-.0036.0114.0038.02.0784.0538.0544.0454-.0039s0-.12.0392-.1224.0019.1218.019.1247.0074-.0562.0211-.0654c.0077-.0051.0043.0229.017.0125a.187.187,0,0,0,.0378-.1563c-.0192-.0228.0118-.028.0031-.0414s-.0257-.01-.0253-.0218.0159,0,.0266-.02A.06.06,0,0,0,52.1271,29.1862Zm-1.0426,2.1126c-.0141-.0813-.1642-.1509-.1685-.0938S51.0987,31.38,51.0845,31.2988Zm-.3237-.2809c-.0377-.0272-.0662-.0639-.0964-.0745s-.1138.0032-.071.0518a.504.504,0,0,0,.2843.1009c.1265.0146-.0219-.1194-.061-.1087S50.7986,31.0452,50.7608,31.0179Zm.4526.2c.0268.0131.0238-.02.0553-.0036s.0724-.0177.1109-.0039.2169.09.2257.0548-.1523-.0549-.1905-.0754-.0619-.0077-.1.0026-.027-.03-.077-.03-.14-.1026-.1979-.07.07.0983.1022.1026A.1885.1885,0,0,1,51.2134,31.2183Zm.1586-.42a.0877.0877,0,0,0,.0507.0768c.0194.0056.0591-.0308.0392-.0726s.0223-.0041.03-.0424-.0484-.005-.0535-.0078S51.3675,30.7546,51.372,30.7983Zm-1.3434-1.2064c-.0088.03.0208.0716.0224.0964s-.0266.0147-.0231.0376a.2488.2488,0,0,0,.0083.0672c.01.0245-.0018.0267.01.0534s.0209-.0376.0452-.0069a.5653.5653,0,0,1,.01.2338c-.0065.0662.1226.0529.1559.0542s-.0345.0885.0128.08a.2314.2314,0,0,1,.1908.0476c.0367.0492.0468.0093.0768.0338s.0024.0793.0217.0944.1436-.0236.1549-.0176-.0143.0863.02.0558.0263-.1509.0495-.2041.03-.07.0945-.0905.0779-.0757.09-.1282.0261-.1177.0922-.09.0922.0149.0559-.0447-.047-.05-.06-.0919.0271-.0147.0179-.0632a.4894.4894,0,0,1-.0227-.1928c.0157-.0595.1161-.0074.1355-.0163s-.0395-.06-.0248-.0739.102.019.1128-.0007-.0286-.04-.0539-.057-.03-.0537-.05-.0887-.0612-.1354-.1167-.1425-.1189.0734-.1623.1023-.0305.084-.0926.081a.1948.1948,0,0,0-.1555.0451c-.0478.0418-.0675.0841-.1348.0856s-.1-.0167-.1682.0238-.0161.1007-.0364.1273-.1564-.1273-.16-.1536-.0643-.0046-.0766.01A.8361.8361,0,0,0,50.0286,29.5919Zm1.4908,1.8637c.0251-.0191.0477-.05.0911-.0481s.2222-.0157.223-.054-.1179-.0263-.1437-.0381a.1516.1516,0,0,0-.0745-.0094c-.023.0012-.01.025-.0389.0295a.4185.4185,0,0,0-.1389.027.1456.1456,0,0,0-.0386.0913C51.3989,31.4714,51.4943,31.4747,51.5194,31.4556ZM28.6251,26.9422c.0444-.0011.0732-.0447.1045-.03s.0177.1055.0647.071.0131-.0989.049-.138.0184-.0009.0646-.0117.1339-.0767.1868-.0872.0676.0071.083-.0454-.0273-.059-.07-.0594a.0906.0906,0,0,1-.0963-.056c-.0211-.0466-.0334-.01-.0693-.0142s-.08-.0169-.111.0059a.2623.2623,0,0,1-.0876.0541c-.04.0126-.1883.0406-.1888.0746s.1359.0921.1162.1441-.28.0426-.2429.1091S28.5808,26.9434,28.6251,26.9422Zm7.2763-11.1247c.0816.0023.0894-.1015.11-.1352s.1232-.0489.1083-.1055a.3553.3553,0,0,0-.0374-.1123c-.0291-.0575-.11.0434-.1366-.03s-.2027-.1508-.23-.0471-.1708.0476-.2039.0734.0314.1.0087.0961-.057-.081-.114-.0655-.0534.0939-.0531.11-.1076-.0971-.11-.0448a.1111.1111,0,0,1-.0419.101c-.0363.0342-.0282.1149-.0479.1246s-.0767-.082-.0747-.0921.06-.0293.0439-.0623-.0437-.0177-.0777-.035-.1275-.0771-.1546-.0274.0663-.0184.0776.0338-.1.0239-.1456.0645.0342.0425.0247.075-.0617.0149-.0752.0153.0016.0323-.0039.038-.0727.0194-.0447.0372.14-.032.1763-.0617a.2144.2144,0,0,1,.1563-.0081c.0166.01-.0914.056-.0836.0738s.0825-.0087.0882-.0122c.003-.0018.028.0062-.0027.0286s-.24.0622-.2638.1176.2129-.0275.2128-.0231.0044.0542.033.0426-.0076.0263.0018.0293.03-.0165.0281.0007-.148.1314-.1006.1492.1773-.0774.2272-.0825.03.0383.0668.05.0626-.0033.111-.0039a.35.35,0,0,0,.1749-.0555c.0377-.0316.0241-.0454.0631-.0658a.9381.9381,0,0,0,.1112-.0468C35.77,15.9323,35.82,15.8153,35.9014,15.8175Zm-.9182-1.3918c-.0146-.1059-.086-.1324-.0644-.258a1.6885,1.6885,0,0,1,.1547-.4764c.0688-.11.1486-.1921.1925-.2788s-.0338-.1492-.0381-.223a.2964.2964,0,0,0-.0685-.1986c-.05-.0492-.1879-.0376-.1991-.1069s.27-.2739.25-.3474-.1917-.0685-.216-.1808.0629-.2233.1186-.3166a1.0665,1.0665,0,0,1,.2268-.2285,1.5719,1.5719,0,0,0,.2181-.2465c.0354-.0562-.1-.0229-.0589-.0592s.2165-.06.27-.1219.2981-.1766.2852-.2261-.2607-.0594-.3478-.0706a.4763.4763,0,0,0-.3227.0952c-.0541.0645-.0536.1181-.1287.13a2.11,2.11,0,0,1-.2233.0159c-.08.0043-.2787.1791-.3033.1882s.1343-.2719.0346-.2586-.2219.0549-.2594.008.4048-.1785.3308-.216a1.9585,1.9585,0,0,0-.7418-.0889,5.1672,5.1672,0,0,0-.8866.137c-.1845.0551-.241.0765-.3443.1094s-.0948.011-.1585.0546-.0384.1482-.1267.1624-.1687.014-.2691.0236a.69.69,0,0,0-.3361.0608,4.3488,4.3488,0,0,0-.4076.2949c-.0341.0461.4177.15.34.1861-.1188.0547-.5575-.04-.7143-.0021a1.3325,1.3325,0,0,0-.2965.1075c-.1382.0577-.39.1541-.5254.2126s-.1749.034-.2877.1217a3.5737,3.5737,0,0,0-.3134.2515,5.471,5.471,0,0,0-.6962.5785c-.0548.0832.2927-.0057.2975.0223a1.0342,1.0342,0,0,1-.0656.227c-.0242.0649-.0335.0747-.1243.1022a1.7155,1.7155,0,0,0-.3218.1487c-.1037.06-.3392.182-.4211.2374s-.0379.0985-.0456.1534.0442.0562.0815.1027.0934.1466.17.1757.1816.0643.2617.0893.1293.0938.2243.0689.1772-.0717.2958-.1125a2.1875,2.1875,0,0,1,.4911-.0857,1.8737,1.8737,0,0,1,.2791-.0241c.0995.0128.0976.09.1843.1694a2.277,2.277,0,0,1,.2793.4374.23.23,0,0,1,.0362.2128c-.0185.09-.08.1705-.0057.2349s.1559.0888.1417.1936-.0627.1756.0122.2582.13.0468.2068.01.2166-.15.2562-.1438-.0089.1578-.01.2-.0651.0505-.1018.085a1.433,1.433,0,0,0-.1751.1321c-.0352.0475-.0105.05-.019.13a.7948.7948,0,0,0-.0186.3505c.042.1134.0922.2261.1492.3633a2.441,2.441,0,0,0,.3266.471c.0916.1082.1463.208.2178.2809s.1085.0337.1937.039a1.44,1.44,0,0,0,.3229.0261c.0809-.02.1359.05.1919-.0779s.1348-.524.1857-.6983.1106-.4223.1549-.5561.0264-.1008.116-.1692.23-.1415.32-.2024a1.3868,1.3868,0,0,0,.2324-.1488,1.7415,1.7415,0,0,0,.1756-.2809c.0548-.0808.0457-.1051.1377-.1608s.1846-.1013.3087-.17a2.1761,2.1761,0,0,0,.4477-.2586c.1268-.1179.365-.3178.4683-.43S34.9977,14.5315,34.9832,14.4257Zm15.47,12.7226c.0252-.0021.0835.0232.0914-.0229a.1029.1029,0,0,1,.0656-.083c.0316-.0134-.003-.081-.0247-.0953s.0177.0534-.02.0148-.1754-.066-.2252-.0073-.0014.1172.0215.1563.0359.038.065.0573S50.4277,27.15,50.4529,27.1483Zm-.9271,3.1058c.0329-.0219.0263-.1856.0838-.266s-.0924-.187-.12-.1756.0176-.0653-.0076-.0974.0173-.1028-.0151-.1334-.0755-.0524-.08-.096.0425-.05.04-.0944-.0653-.0737-.0638-.1215-.0223-.0587-.0474-.0973-.0092-.0526-.049-.0861-.0575-.0283-.0841-.0925-.1-.16-.1395-.2344a1.716,1.716,0,0,1-.1291-.2435.3643.3643,0,0,0-.1058-.2c-.0568-.0357-.1382-.1711-.1824-.1341s.0445.2087.0791.2714.1162.1406.1136.2292.0886.1658.1006.2421.0053.127.016.19.0261.0219.0569.0944a2.3581,2.3581,0,0,1,.0676.3336,1.15,1.15,0,0,0,.0966.2493,2.9529,2.9529,0,0,0,.2285.4323c.05.055-.0014-.0508.0323-.038S49.493,30.276,49.5258,30.2541Zm.3227-.3044c-.0429-.0522-.08.0439-.0415.0814S49.8914,30.0019,49.8485,29.95Zm.5109.8266c-.0874.0044-.0842-.097-.1063-.13s-.128-.0284-.15-.0847-.0407-.0255-.0677,0-.0188,0-.0672-.0109a.3415.3415,0,0,1-.1686-.1214.2316.2316,0,0,0-.1313-.0963.18.18,0,0,1-.0831-.0258c-.0366-.0208-.017-.0168-.07.0171s.02.1007.0612.1175-.0352.0122.0015.0343.1326.1.1764.1242.0755.0062.1125.0227a.5424.5424,0,0,1,.096.07.598.598,0,0,0,.0821.0576c.0277.0134.0461.0217.07.0324s.01-.018.0409-.0044a.9737.9737,0,0,0,.1593.0692c.0376.0051.1031.1077.1135.0839S50.4468,30.7718,50.3594,30.7763Zm-.812-1.0254c-.0093.034.0325.0274.0465.042a.1627.1627,0,0,1,.0265.0643c.0052.02.0152.05.0194.0663s.0577.06.0529.0472.0283-.0358.0162-.0581a1.5747,1.5747,0,0,0-.0846-.1921c-.0222-.0223.0033.0533-.0075.0241A.0375.0375,0,0,0,49.5474,29.7509Z" fill="#fff"/><path d="M93.6611,34.1029H94.61l4.7432,11.8614H98.1641l-1.48-3.709h-5.13l-1.4629,3.709H88.8857Zm2.7656,7.2334L94.1279,35.473l-2.332,5.8633Z" fill="#173244"/><path d="M102.1191,36.2748v9.69h-1.1259V34.1029h.8691L109.42,43.976V34.12h1.125V45.9643h-.98Z" fill="#173244"/><path d="M116.9453,34.1029h.9492l4.7432,11.8614h-1.1895l-1.48-3.709h-5.13l-1.4629,3.709H112.17Zm2.7656,7.2334-2.2988-5.8633-2.332,5.8633Z" fill="#173244"/><path d="M124.2773,45.9643V34.1029h1.126V44.9281h6.5928v1.0362Z" fill="#173244"/><path d="M131.7705,34.1029l3.7314,6.3819,3.7627-6.3819h1.2217l-4.4219,7.4512v4.41h-1.1259V41.5209l-4.4063-7.418Z" fill="#173244"/><path d="M148.543,36.3246a3.48,3.48,0,0,0-1.2862-.918,4.5369,4.5369,0,0,0-1.833-.3515,3.3481,3.3481,0,0,0-2.2031.5937,2.0131,2.0131,0,0,0-.6914,1.6114,1.84,1.84,0,0,0,.1846.8779,1.6474,1.6474,0,0,0,.5712.5928,3.9458,3.9458,0,0,0,.9883.4345q.6036.1832,1.4229.3672a15.0108,15.0108,0,0,1,1.6484.4512,4.662,4.662,0,0,1,1.2461.626,2.5687,2.5687,0,0,1,.7881.9111,2.9134,2.9134,0,0,1,.2734,1.3359,3.0911,3.0911,0,0,1-.3056,1.42,2.7956,2.7956,0,0,1-.8516,1.0029,3.7487,3.7487,0,0,1-1.3027.5928,6.7289,6.7289,0,0,1-1.6563.1923,6.658,6.658,0,0,1-4.583-1.7207l.5625-.9521a4.561,4.561,0,0,0,.7315.6348,5.1922,5.1922,0,0,0,.9492.5253,5.8965,5.8965,0,0,0,1.1172.3516,6.11,6.11,0,0,0,1.2549.125,3.8068,3.8068,0,0,0,2.13-.51,1.7289,1.7289,0,0,0,.7647-1.5449,1.8242,1.8242,0,0,0-.2178-.9277,1.92,1.92,0,0,0-.6514-.6514,4.5291,4.5291,0,0,0-1.0771-.4756q-.6431-.2007-1.4951-.4013-.9009-.2169-1.5762-.4512a4.13,4.13,0,0,1-1.1416-.584,2.2653,2.2653,0,0,1-.6992-.8437,2.8247,2.8247,0,0,1-.2334-1.211,3.4306,3.4306,0,0,1,.2978-1.4619,2.8546,2.8546,0,0,1,.8438-1.0693,3.931,3.931,0,0,1,1.2861-.6514,5.61,5.61,0,0,1,1.6406-.2256,5.2088,5.2088,0,0,1,3.65,1.3692Z" fill="#173244"/><path d="M151.63,45.9643V34.1029h1.126V45.9643Z" fill="#173244"/><path d="M162.291,36.3246a3.4808,3.4808,0,0,0-1.2861-.918,4.5376,4.5376,0,0,0-1.833-.3515,3.3486,3.3486,0,0,0-2.2032.5937,2.0131,2.0131,0,0,0-.6914,1.6114,1.8412,1.8412,0,0,0,.1846.8779,1.6485,1.6485,0,0,0,.5713.5928,3.9425,3.9425,0,0,0,.9883.4345q.6035.1832,1.4228.3672a15.0067,15.0067,0,0,1,1.6485.4512,4.6635,4.6635,0,0,1,1.2461.626,2.5694,2.5694,0,0,1,.788.9111,2.912,2.912,0,0,1,.2735,1.3359,3.0911,3.0911,0,0,1-.3057,1.42,2.7953,2.7953,0,0,1-.8515,1.0029,3.75,3.75,0,0,1-1.3028.5928,6.728,6.728,0,0,1-1.6562.1923,6.6578,6.6578,0,0,1-4.583-1.7207l.5625-.9521a4.56,4.56,0,0,0,.7314.6348,5.1988,5.1988,0,0,0,.9492.5253,5.8988,5.8988,0,0,0,1.1172.3516,6.1111,6.1111,0,0,0,1.2549.125,3.8071,3.8071,0,0,0,2.13-.51,1.729,1.729,0,0,0,.7646-1.5449,1.8242,1.8242,0,0,0-.2177-.9277,1.9218,1.9218,0,0,0-.6514-.6514,4.53,4.53,0,0,0-1.0772-.4756q-.643-.2007-1.4951-.4013-.9009-.2169-1.5761-.4512a4.1324,4.1324,0,0,1-1.1417-.584,2.2653,2.2653,0,0,1-.6992-.8437,2.8262,2.8262,0,0,1-.2334-1.211,3.4306,3.4306,0,0,1,.2979-1.4619,2.8543,2.8543,0,0,1,.8437-1.0693,3.9315,3.9315,0,0,1,1.2862-.6514,5.6086,5.6086,0,0,1,1.6406-.2256,5.2088,5.2088,0,0,1,3.65,1.3692Z" fill="#173244"/><path d="M172.5176,34.1029h.9492L178.21,45.9643h-1.19l-1.48-3.709h-5.13l-1.4629,3.709h-1.206Zm2.7656,7.2334-2.2988-5.8633-2.3321,5.8633Z" fill="#173244"/><path d="M180.9756,36.2748v9.69H179.85V34.1029h.8691l7.5577,9.8731V34.12h1.125V45.9643h-.9805Z" fill="#173244"/><path d="M192.2637,45.9643V34.1029H196.14a5.6888,5.6888,0,0,1,2.3877.4678,4.8732,4.8732,0,0,1,1.7041,1.27,5.4038,5.4038,0,0,1,1.0293,1.88,7.4733,7.4733,0,0,1,.3457,2.2969,7.3084,7.3084,0,0,1-.3857,2.4473,5.33,5.33,0,0,1-1.1016,1.871,4.92,4.92,0,0,1-1.7207,1.2032,5.7311,5.7311,0,0,1-2.2588.4258Zm8.2177-5.9473a6.328,6.328,0,0,0-.29-1.9629,4.46,4.46,0,0,0-.8438-1.5449,3.7873,3.7873,0,0,0-1.3593-1.0108,4.4966,4.4966,0,0,0-1.8487-.3593h-2.75v9.789h2.75a4.4079,4.4079,0,0,0,1.8731-.376,3.8209,3.8209,0,0,0,1.3594-1.0351,4.57,4.57,0,0,0,.8281-1.5537A6.4835,6.4835,0,0,0,200.4814,40.017Z" fill="#173244"/><path d="M217.9766,45.9643V36.225l-4.1651,7.5342h-.6592l-4.165-7.5342v9.7393h-1.126V34.1029H209.02l4.4541,8.1192,4.4864-8.1192h1.1416V45.9643Z" fill="#173244"/><path d="M225.5019,34.1029h.9493l4.7431,11.8614h-1.1894l-1.48-3.709h-5.13l-1.4629,3.709h-1.206Zm2.7657,7.2334-2.2989-5.8633-2.332,5.8633Z" fill="#173244"/><path d="M232.834,45.9643V34.1029h4.7285a2.8681,2.8681,0,0,1,1.3584.3262,3.6123,3.6123,0,0,1,1.0693.8516,4.0755,4.0755,0,0,1,.7071,1.1943,3.7412,3.7412,0,0,1,.2578,1.3535,4.1671,4.1671,0,0,1-.2412,1.4121,3.8679,3.8679,0,0,1-.6758,1.1944,3.4052,3.4052,0,0,1-1.0371.8349,2.8329,2.8329,0,0,1-1.3428.3174H233.96v4.377Zm1.126-5.4131h3.65a1.8629,1.8629,0,0,0,.9082-.2246,2.2465,2.2465,0,0,0,.7-.6016,2.886,2.886,0,0,0,.45-.8691,3.309,3.309,0,0,0,.16-1.0274,2.95,2.95,0,0,0-.1846-1.0439,2.84,2.84,0,0,0-.499-.86,2.2745,2.2745,0,0,0-.7393-.5762,2,2,0,0,0-.8925-.2089H233.96Z" fill="#173244"/><path d="M242.8359,45.9643V34.1029h4.7285a2.8678,2.8678,0,0,1,1.3584.3262,3.6115,3.6115,0,0,1,1.0694.8516,4.0752,4.0752,0,0,1,.707,1.1943,3.739,3.739,0,0,1,.2578,1.3535,4.1671,4.1671,0,0,1-.2412,1.4121,3.8639,3.8639,0,0,1-.6758,1.1944,3.4028,3.4028,0,0,1-1.0371.8349,2.8326,2.8326,0,0,1-1.3428.3174h-3.6982v4.377Zm1.126-5.4131h3.65a1.8631,1.8631,0,0,0,.9082-.2246,2.2487,2.2487,0,0,0,.7-.6016,2.886,2.886,0,0,0,.45-.8691,3.3119,3.3119,0,0,0,.16-1.0274,2.9517,2.9517,0,0,0-.1845-1.0439,2.8445,2.8445,0,0,0-.499-.86,2.2745,2.2745,0,0,0-.7393-.5762,2,2,0,0,0-.8926-.2089h-3.5537Z" fill="#173244"/><path d="M252.8369,45.9643V34.1029h1.126V45.9643Z" fill="#173244"/><path d="M257.9512,36.2748v9.69h-1.126V34.1029h.8691l7.5576,9.8731V34.12h1.125V45.9643h-.98Z" fill="#173244"/><path d="M277.4883,44.227a4.7649,4.7649,0,0,1-3.667,1.8212,4.4561,4.4561,0,0,1-2.13-.5185,5.6318,5.6318,0,0,1-1.6885-1.37,6.4925,6.4925,0,0,1-1.1181-1.9287,6.2945,6.2945,0,0,1-.4014-2.2139,6.6031,6.6031,0,0,1,.3935-2.2715,6.1138,6.1138,0,0,1,1.1016-1.9131,5.4437,5.4437,0,0,1,1.6719-1.32,4.57,4.57,0,0,1,2.1064-.4922,5.75,5.75,0,0,1,1.5283.1914,4.552,4.552,0,0,1,1.2295.5352,3.9559,3.9559,0,0,1,.9327.8183,5.1348,5.1348,0,0,1,.6679,1.044l-.8681.6015a3.7815,3.7815,0,0,0-1.4639-1.62,4.0189,4.0189,0,0,0-2.042-.5185,3.514,3.514,0,0,0-1.7129.4179,4.1612,4.1612,0,0,0-1.3017,1.1114,5.1249,5.1249,0,0,0-.8282,1.5869,5.9425,5.9425,0,0,0-.29,1.8457,5.5052,5.5052,0,0,0,.33,1.9043,5.0907,5.0907,0,0,0,.9082,1.5791,4.44,4.44,0,0,0,1.3584,1.0771,3.6563,3.6563,0,0,0,1.6972.4014,3.9264,3.9264,0,0,0,1.8731-.4766,5.6182,5.6182,0,0,0,1.7129-1.5117V41.0365h-2.541v-.9023h3.4892v5.83h-.9482Z" fill="#173244"/><path d="M289.4521,46.0482a4.6821,4.6821,0,0,1-2.1787-.51,5.4525,5.4525,0,0,1-1.6972-1.3535,6.1918,6.1918,0,0,1-1.0928-1.93,6.5718,6.5718,0,0,1-.3858-2.2217,6.3974,6.3974,0,0,1,.4092-2.2715,6.317,6.317,0,0,1,1.1338-1.9219,5.5147,5.5147,0,0,1,1.7051-1.3281,4.6637,4.6637,0,0,1,2.1221-.4922,4.5536,4.5536,0,0,1,2.1787.5264,5.4868,5.4868,0,0,1,1.6885,1.3779,6.5137,6.5137,0,0,1,1.0615,6.3985,6.2955,6.2955,0,0,1-1.125,1.9121,5.462,5.462,0,0,1-1.6973,1.32A4.6644,4.6644,0,0,1,289.4521,46.0482Zm-4.2295-6.0146a5.7083,5.7083,0,0,0,.3057,1.8633,5.1116,5.1116,0,0,0,.8682,1.5869,4.3094,4.3094,0,0,0,1.3349,1.1025,3.619,3.619,0,0,0,1.7207.4092,3.5669,3.5669,0,0,0,1.753-.4346,4.3093,4.3093,0,0,0,1.334-1.1357,5.324,5.324,0,0,0,.8447-1.5869,5.6611,5.6611,0,0,0-.0166-3.667,5.1549,5.1549,0,0,0-.876-1.5791,4.35,4.35,0,0,0-1.335-1.0938,3.5752,3.5752,0,0,0-1.7041-.4091,3.6241,3.6241,0,0,0-1.7529.4257,4.2249,4.2249,0,0,0-1.335,1.127,5.3127,5.3127,0,0,0-.8437,1.5879A5.6293,5.6293,0,0,0,285.2226,40.0336Z" fill="#173244"/><path d="M296.9287,45.9643V34.1029h7.4941v1.0362h-6.3681v4.36h5.3711v.9688h-5.3711v5.4961Z" fill="#173244"/><path d="M310.1465,45.9643V34.1029h4.7285a2.8681,2.8681,0,0,1,1.3584.3262,3.6123,3.6123,0,0,1,1.0693.8516,4.0755,4.0755,0,0,1,.7071,1.1943,3.7412,3.7412,0,0,1,.2578,1.3535,4.1671,4.1671,0,0,1-.2412,1.4121,3.8679,3.8679,0,0,1-.6758,1.1944,3.4052,3.4052,0,0,1-1.0371.8349,2.8329,2.8329,0,0,1-1.3428.3174h-3.6982v4.377Zm1.126-5.4131h3.65a1.8629,1.8629,0,0,0,.9082-.2246,2.2465,2.2465,0,0,0,.7-.6016,2.886,2.886,0,0,0,.45-.8691,3.309,3.309,0,0,0,.16-1.0274,2.95,2.95,0,0,0-.1846-1.0439,2.84,2.84,0,0,0-.499-.86,2.2745,2.2745,0,0,0-.7393-.5762,2,2,0,0,0-.8925-.2089h-3.5537Z" fill="#173244"/><path d="M324.748,46.0482a4.6821,4.6821,0,0,1-2.1787-.51,5.4525,5.4525,0,0,1-1.6972-1.3535,6.1918,6.1918,0,0,1-1.0928-1.93,6.5718,6.5718,0,0,1-.3858-2.2217,6.3974,6.3974,0,0,1,.4092-2.2715,6.317,6.317,0,0,1,1.1338-1.9219,5.5147,5.5147,0,0,1,1.7051-1.3281,4.6637,4.6637,0,0,1,2.1221-.4922,4.5536,4.5536,0,0,1,2.1787.5264,5.4868,5.4868,0,0,1,1.6885,1.3779,6.5137,6.5137,0,0,1,1.0615,6.3985,6.2955,6.2955,0,0,1-1.125,1.9121,5.462,5.462,0,0,1-1.6973,1.32A4.6644,4.6644,0,0,1,324.748,46.0482Zm-4.2295-6.0146a5.7083,5.7083,0,0,0,.3057,1.8633,5.1116,5.1116,0,0,0,.8682,1.5869,4.3094,4.3094,0,0,0,1.3349,1.1025,3.619,3.619,0,0,0,1.7207.4092,3.5669,3.5669,0,0,0,1.753-.4346,4.3093,4.3093,0,0,0,1.334-1.1357,5.324,5.324,0,0,0,.8447-1.5869,5.6611,5.6611,0,0,0-.0166-3.667,5.1549,5.1549,0,0,0-.876-1.5791,4.35,4.35,0,0,0-1.335-1.0938,3.5752,3.5752,0,0,0-1.7041-.4091,3.6241,3.6241,0,0,0-1.7529.4257,4.2249,4.2249,0,0,0-1.335,1.127,5.3127,5.3127,0,0,0-.8437,1.5879A5.6293,5.6293,0,0,0,320.5185,40.0336Z" fill="#173244"/><path d="M332.2246,45.9643V34.1029h1.126V44.9281h6.5928v1.0362Z" fill="#173244"/><path d="M341.5986,45.9643V34.1029h1.126V45.9643Z" fill="#173244"/><path d="M344.832,39.9506a6.5561,6.5561,0,0,1,.3614-2.13,5.9371,5.9371,0,0,1,1.0537-1.8965,5.4169,5.4169,0,0,1,1.7041-1.3613,4.9052,4.9052,0,0,1,2.3-.5264,4.63,4.63,0,0,1,2.6123.7178,4.33,4.33,0,0,1,1.6006,1.8711l-.8848.5683a3.5092,3.5092,0,0,0-.667-.9853,3.7024,3.7024,0,0,0-.8447-.6514,3.4378,3.4378,0,0,0-.9326-.3593,4.3126,4.3126,0,0,0-.9483-.1084,3.7087,3.7087,0,0,0-1.8174.4335A4.22,4.22,0,0,0,347.043,36.66a5.019,5.019,0,0,0-.8125,1.5781,5.9339,5.9339,0,0,0-.2735,1.7793,5.4588,5.4588,0,0,0,.33,1.8877,5.3917,5.3917,0,0,0,.9,1.5957,4.3567,4.3567,0,0,0,1.3506,1.1025,3.5965,3.5965,0,0,0,1.6963.4092,4.1363,4.1363,0,0,0,.9892-.125,3.7479,3.7479,0,0,0,.9805-.4014,4.165,4.165,0,0,0,.8769-.6845,3.5528,3.5528,0,0,0,.6749-.9942l.9326.501a3.6344,3.6344,0,0,1-.7715,1.1777,5.0689,5.0689,0,0,1-1.1094.86,5.3821,5.3821,0,0,1-1.2949.5342,5.1355,5.1355,0,0,1-1.3428.1845,4.427,4.427,0,0,1-2.1543-.5351,5.6945,5.6945,0,0,1-1.6885-1.3945,6.694,6.694,0,0,1-1.4951-4.1846Z" fill="#173244"/><path d="M356.6172,45.9643V34.1029h1.126V45.9643Z" fill="#173244"/><path d="M368.2764,44.9281v1.0362h-7.6709V34.1029h7.5263v1.0362h-6.4v4.2763h5.58v.9854h-5.58v4.5273Z" fill="#173244"/><path d="M376.83,36.3246a3.48,3.48,0,0,0-1.2862-.918,4.5369,4.5369,0,0,0-1.833-.3515,3.3481,3.3481,0,0,0-2.2031.5937,2.0131,2.0131,0,0,0-.6914,1.6114,1.84,1.84,0,0,0,.1846.8779,1.6469,1.6469,0,0,0,.5713.5928,3.9433,3.9433,0,0,0,.9882.4345q.6036.1832,1.4229.3672a15.0108,15.0108,0,0,1,1.6484.4512,4.662,4.662,0,0,1,1.2461.626,2.5687,2.5687,0,0,1,.7881.9111,2.9134,2.9134,0,0,1,.2734,1.3359,3.0911,3.0911,0,0,1-.3056,1.42,2.7946,2.7946,0,0,1-.8516,1.0029,3.7487,3.7487,0,0,1-1.3027.5928,6.7289,6.7289,0,0,1-1.6563.1923,6.6582,6.6582,0,0,1-4.583-1.7207l.5625-.9521a4.561,4.561,0,0,0,.7315.6348,5.1988,5.1988,0,0,0,.9492.5253,5.8965,5.8965,0,0,0,1.1172.3516,6.11,6.11,0,0,0,1.2549.125,3.8066,3.8066,0,0,0,2.13-.51,1.7289,1.7289,0,0,0,.7647-1.5449,1.8242,1.8242,0,0,0-.2178-.9277,1.9206,1.9206,0,0,0-.6513-.6514,4.5318,4.5318,0,0,0-1.0772-.4756q-.643-.2007-1.4951-.4013-.9009-.2169-1.5762-.4512a4.1317,4.1317,0,0,1-1.1416-.584,2.2653,2.2653,0,0,1-.6992-.8437,2.8247,2.8247,0,0,1-.2334-1.211,3.4306,3.4306,0,0,1,.2978-1.4619,2.8546,2.8546,0,0,1,.8438-1.0693,3.932,3.932,0,0,1,1.2861-.6514,5.61,5.61,0,0,1,1.6407-.2256,5.2088,5.2088,0,0,1,3.65,1.3692Z" fill="#173244"/><path d="M101.4248.06a11.4727,11.4727,0,0,1,5.7168,1.3964,9.0176,9.0176,0,0,1,3.7031,3.752l-4.19,2.9238a5.4036,5.4036,0,0,0-1.0068-1.5517,4.5,4.5,0,0,0-1.3555-1.0069,6.6326,6.6326,0,0,0-1.4785-.5029,7.365,7.365,0,0,0-1.5186-.1543,6.0307,6.0307,0,0,0-2.2412.4053,5.2806,5.2806,0,0,0-1.7373,1.0967,6.5219,6.5219,0,0,0-1.21,1.6074,7.8042,7.8042,0,0,0-.7314,1.917,8.9615,8.9615,0,0,0-.2354,2.0547,8.2114,8.2114,0,0,0,.7559,3.5078,6.4875,6.4875,0,0,0,2.1924,2.6308A5.5591,5.5591,0,0,0,101.36,19.143a6.7562,6.7562,0,0,0,2.0381-.3086,5.5822,5.5822,0,0,0,1.8916-1.0635,4.6866,4.6866,0,0,0,1.3643-1.876l4.45,2.6143a7.1286,7.1286,0,0,1-2.29,2.956,11.2075,11.2075,0,0,1-3.5966,1.9082,13.1339,13.1339,0,0,1-3.9873.626,10.75,10.75,0,0,1-4.6934-1.0557,11.41,11.41,0,0,1-3.7119-2.77,13.2863,13.2863,0,0,1-2.3711-3.914,12.05,12.05,0,0,1-.8682-4.4581,11.8666,11.8666,0,0,1,.503-3.41,11.4718,11.4718,0,0,1,1.5263-3.1914,12.5369,12.5369,0,0,1,2.42-2.6475A10.8877,10.8877,0,0,1,97.3408.7338,12.1722,12.1722,0,0,1,101.4248.06Z" fill="#29334b"/><path d="M112.1445,11.9643a11.91,11.91,0,0,1,5.7569-10.2315A11.7611,11.7611,0,0,1,127.8486.726a10.5965,10.5965,0,0,1,3.2481,1.8349,13.05,13.05,0,0,1,2.4287,2.6885,12.1034,12.1034,0,0,1,.6084,12.6426,11.7906,11.7906,0,0,1-4.2227,4.418,11.68,11.68,0,0,1-10.832.666,11.1526,11.1526,0,0,1-3.7275-2.7119,12.8073,12.8073,0,0,1-2.3545-3.8575A12.0377,12.0377,0,0,1,112.1445,11.9643Zm11.7422,7.1787a5.862,5.862,0,0,0,2.7041-.6172,5.4125,5.4125,0,0,0,1.957-1.6485,7.81,7.81,0,0,0,1.1368-2.2978,8.8458,8.8458,0,0,0,.39-2.6152,8.407,8.407,0,0,0-.4141-2.6387,7.4884,7.4884,0,0,0-1.1777-2.249A5.4572,5.4572,0,0,0,126.5254,5.5a6.2662,6.2662,0,0,0-5.335.0244,5.4181,5.4181,0,0,0-1.9492,1.624,7.755,7.755,0,0,0-1.1445,2.2657,8.8045,8.8045,0,0,0,.0078,5.2626,7.44,7.44,0,0,0,1.1689,2.2657,5.5883,5.5883,0,0,0,1.9571,1.6A5.827,5.827,0,0,0,123.8867,19.143Z" fill="#29334b"/><path d="M141.28.19l5.5537,17.2315L152.3232.19h5.75L149.498,23.8041h-5.3593L135.498.19Z" fill="#29334b"/><path d="M160.2656,23.8041V.19h5.4561V23.8041Z" fill="#29334b"/><path d="M170.2373,23.8041V.19h8.8184a13.5083,13.5083,0,0,1,5.1074.918A9.831,9.831,0,0,1,187.874,3.641a11.1687,11.1687,0,0,1,2.2012,3.7354,13.588,13.588,0,0,1,.7549,4.5879,11.6552,11.6552,0,0,1-3.2237,8.6,11.5269,11.5269,0,0,1-8.5507,3.24Zm8.8184-18.8232h-3.3623V19.0131h3.3623a5.6557,5.6557,0,0,0,4.5722-1.957,7.6367,7.6367,0,0,0,1.6485-5.0918,7.469,7.469,0,0,0-1.6573-5.0752A5.7273,5.7273,0,0,0,179.0557,4.9809Z" fill="#29334b"/><path d="M209.5234.19h1.9649l9.8095,23.6143h-2.4687l-3.0527-7.39H205.1709l-3.0371,7.39h-2.4844ZM215.24,14.5951,210.4814,2.9184l-4.8232,11.6767Z" fill="#29334b"/><path d="M245.5947,23.8041V4.5746l-8.543,14.9424H235.59L227.0156,4.5746V23.8041h-2.3389V.19H227.08l9.209,16.16L245.5625.19h2.3711V23.8041Z" fill="#29334b"/><path d="M253.8447,23.8041V.19h9.7764a6.36,6.36,0,0,1,3.5976,1.0967,7.6344,7.6344,0,0,1,3.4346,6.3252,8.0767,8.0767,0,0,1-.8437,3.6465,7.0677,7.0677,0,0,1-2.4287,2.7607,6.2212,6.2212,0,0,1-3.5479,1.0635h-7.6494v8.7217ZM256.1836,13.02h7.5517a4.039,4.039,0,0,0,3.3047-1.5908,5.92,5.92,0,0,0,1.2754-3.8174,5.4575,5.4575,0,0,0-1.4219-3.7842,4.3957,4.3957,0,0,0-3.3691-1.5752h-7.3408Z" fill="#29334b"/></g></g></svg>