<?xml version="1.0" encoding="UTF-8" standalone="no"?>
<!DOCTYPE svg PUBLIC "-//W3C//DTD SVG 1.1//EN"
 "http://www.w3.org/Graphics/SVG/1.1/DTD/svg11.dtd">
<!-- Generated by graphviz version 2.40.1 (20161225.0304)
 -->
<!-- Title: day_date Pages: 1 -->
<svg width="153pt" height="84pt"
 viewBox="0.00 0.00 153.00 84.00" xmlns="http://www.w3.org/2000/svg" xmlns:xlink="http://www.w3.org/1999/xlink">
<g id="graph0" class="graph" transform="scale(1 1) rotate(0) translate(4 80)">
<title>day_date</title>
<polygon fill="#ffffff" stroke="transparent" points="-4,4 -4,-80 149,-80 149,4 -4,4"/>
<!-- day_date -->
<g id="node1" class="node">
<title>day_date</title>
<g id="a_node1"><a xlink:href="../../tables/day_date.html" xlink:title="day_date" target="_top">
<polygon fill="#ffffff" stroke="transparent" points="8,-4 8,-72 137,-72 137,-4 8,-4"/>
<polygon fill="#f5f5f5" stroke="transparent" points="10.5,-47 10.5,-70 135.5,-70 135.5,-47 10.5,-47"/>
<polygon fill="none" stroke="#000000" points="10.5,-47 10.5,-70 135.5,-70 135.5,-47 10.5,-47"/>
<text text-anchor="start" x="15.5" y="-56.1" font-family="Helvetica,sans-Serif" font-weight="bold" font-size="11.00" fill="#000000">day_date</text>
<text text-anchor="start" x="100.5437" y="-55.1" font-family="Helvetica,sans-Serif" font-size="11.00" fill="#000000">[table]</text>
<polygon fill="none" stroke="#000000" points="10.5,-25 10.5,-47 90.5,-47 90.5,-25 10.5,-25"/>
<image xlink:href="../../images/primaryKeys.png" width="11px" height="12px" preserveAspectRatio="xMinYMin meet" x="15.5" y="-42"/>
<text text-anchor="start" x="34.5" y="-32.1" font-family="Helvetica,sans-Serif" font-size="11.00" fill="#000000">day_date</text>
<polygon fill="none" stroke="#000000" points="90.5,-25 90.5,-47 135.5,-47 135.5,-25 90.5,-25"/>
<text text-anchor="start" x="93.1274" y="-32.7" font-family="Helvetica,sans-Serif" font-size="11.00" fill="#000000">date[13]</text>
<polygon fill="#ffffff" stroke="transparent" points="10.5,-6 10.5,-25 31.5,-25 31.5,-6 10.5,-6"/>
<polygon fill="none" stroke="#000000" points="10.5,-6 10.5,-25 31.5,-25 31.5,-6 10.5,-6"/>
<text text-anchor="start" x="13.2027" y="-12.1" font-family="Helvetica,sans-Serif" font-size="11.00" fill="#000000">&lt; 0</text>
<polygon fill="#ffffff" stroke="transparent" points="31.5,-6 31.5,-25 90.5,-25 90.5,-6 31.5,-6"/>
<polygon fill="none" stroke="#000000" points="31.5,-6 31.5,-25 90.5,-25 90.5,-6 31.5,-6"/>
<text text-anchor="start" x="34.1045" y="-12.1" font-family="Helvetica,sans-Serif" font-size="11.00" fill="#000000">2,193 rows</text>
<polygon fill="#ffffff" stroke="transparent" points="90.5,-6 90.5,-25 135.5,-25 135.5,-6 90.5,-6"/>
<polygon fill="none" stroke="#000000" points="90.5,-6 90.5,-25 135.5,-25 135.5,-6 90.5,-6"/>
<text text-anchor="start" x="116.9053" y="-12.1" font-family="Helvetica,sans-Serif" font-size="11.00" fill="#000000">0 &gt;</text>
<polygon fill="none" stroke="#000000" stroke-width="2" points="9,-5 9,-71 136,-71 136,-5 9,-5"/>
</a>
</g>
</g>
</g>
</svg>
