<?xml version="1.0" encoding="UTF-8" standalone="no"?>
<!DOCTYPE svg PUBLIC "-//W3C//DTD SVG 1.1//EN"
 "http://www.w3.org/Graphics/SVG/1.1/DTD/svg11.dtd">
<!-- Generated by graphviz version 2.40.1 (20161225.0304)
 -->
<!-- Title: glossary Pages: 1 -->
<svg width="209pt" height="216pt"
 viewBox="0.00 0.00 209.00 216.00" xmlns="http://www.w3.org/2000/svg" xmlns:xlink="http://www.w3.org/1999/xlink">
<g id="graph0" class="graph" transform="scale(1 1) rotate(0) translate(4 212)">
<title>glossary</title>
<polygon fill="#ffffff" stroke="transparent" points="-4,4 -4,-212 205,-212 205,4 -4,4"/>
<!-- glossary -->
<g id="node1" class="node">
<title>glossary</title>
<g id="a_node1"><a xlink:href="../../tables/glossary.html" xlink:title="glossary" target="_top">
<polygon fill="#ffffff" stroke="transparent" points="8,-4 8,-204 193,-204 193,-4 8,-4"/>
<polygon fill="#f5f5f5" stroke="transparent" points="10.5,-179 10.5,-202 191.5,-202 191.5,-179 10.5,-179"/>
<polygon fill="none" stroke="#000000" points="10.5,-179 10.5,-202 191.5,-202 191.5,-179 10.5,-179"/>
<text text-anchor="start" x="15.5" y="-188.1" font-family="Helvetica,sans-Serif" font-weight="bold" font-size="11.00" fill="#000000">glossary</text>
<text text-anchor="start" x="156.5437" y="-187.1" font-family="Helvetica,sans-Serif" font-size="11.00" fill="#000000">[table]</text>
<polygon fill="none" stroke="#000000" points="10.5,-157 10.5,-179 101.5,-179 101.5,-157 10.5,-157"/>
<image xlink:href="../../images/primaryKeys.png" width="11px" height="12px" preserveAspectRatio="xMinYMin meet" x="15.5" y="-174"/>
<text text-anchor="start" x="30.5" y="-164.1" font-family="Helvetica,sans-Serif" font-size="11.00" fill="#000000">id</text>
<polygon fill="none" stroke="#000000" points="101.5,-157 101.5,-179 191.5,-179 191.5,-157 101.5,-157"/>
<text text-anchor="start" x="104.5" y="-164.7" font-family="Helvetica,sans-Serif" font-size="11.00" fill="#000000">serial[10]</text>
<polygon fill="none" stroke="#000000" points="10.5,-135 10.5,-157 101.5,-157 101.5,-135 10.5,-135"/>
<text text-anchor="start" x="30.5" y="-142.1" font-family="Helvetica,sans-Serif" font-size="11.00" fill="#000000">term</text>
<polygon fill="none" stroke="#000000" points="101.5,-135 101.5,-157 191.5,-157 191.5,-135 101.5,-135"/>
<text text-anchor="start" x="104.0042" y="-142.7" font-family="Helvetica,sans-Serif" font-size="11.00" fill="#000000">text[2147483647]</text>
<polygon fill="none" stroke="#000000" points="10.5,-113 10.5,-135 101.5,-135 101.5,-113 10.5,-113"/>
<text text-anchor="start" x="30.5" y="-120.1" font-family="Helvetica,sans-Serif" font-size="11.00" fill="#000000">subterm</text>
<polygon fill="none" stroke="#000000" points="101.5,-113 101.5,-135 191.5,-135 191.5,-113 101.5,-113"/>
<text text-anchor="start" x="104.0042" y="-120.7" font-family="Helvetica,sans-Serif" font-size="11.00" fill="#000000">text[2147483647]</text>
<polygon fill="none" stroke="#000000" points="10.5,-91 10.5,-113 101.5,-113 101.5,-91 10.5,-91"/>
<text text-anchor="start" x="30.5" y="-98.1" font-family="Helvetica,sans-Serif" font-size="11.00" fill="#000000">definition</text>
<polygon fill="none" stroke="#000000" points="101.5,-91 101.5,-113 191.5,-113 191.5,-91 101.5,-91"/>
<text text-anchor="start" x="104.0042" y="-98.7" font-family="Helvetica,sans-Serif" font-size="11.00" fill="#000000">text[2147483647]</text>
<polygon fill="none" stroke="#000000" points="10.5,-69 10.5,-91 101.5,-91 101.5,-69 10.5,-69"/>
<text text-anchor="start" x="30.5" y="-76.1" font-family="Helvetica,sans-Serif" font-size="11.00" fill="#000000">reference</text>
<polygon fill="none" stroke="#000000" points="101.5,-69 101.5,-91 191.5,-91 191.5,-69 101.5,-69"/>
<text text-anchor="start" x="104.0042" y="-76.7" font-family="Helvetica,sans-Serif" font-size="11.00" fill="#000000">text[2147483647]</text>
<polygon fill="none" stroke="#000000" points="10.5,-47 10.5,-69 101.5,-69 101.5,-47 10.5,-47"/>
<text text-anchor="start" x="30.5" y="-54.1" font-family="Helvetica,sans-Serif" font-size="11.00" fill="#000000">entity_name</text>
<polygon fill="none" stroke="#000000" points="101.5,-47 101.5,-69 191.5,-69 191.5,-47 101.5,-47"/>
<text text-anchor="start" x="104.0042" y="-54.7" font-family="Helvetica,sans-Serif" font-size="11.00" fill="#000000">text[2147483647]</text>
<polygon fill="none" stroke="#000000" points="10.5,-25 10.5,-47 101.5,-47 101.5,-25 10.5,-25"/>
<text text-anchor="start" x="30.5" y="-32.1" font-family="Helvetica,sans-Serif" font-size="11.00" fill="#000000">field</text>
<polygon fill="none" stroke="#000000" points="101.5,-25 101.5,-47 191.5,-47 191.5,-25 101.5,-25"/>
<text text-anchor="start" x="104.0042" y="-32.7" font-family="Helvetica,sans-Serif" font-size="11.00" fill="#000000">text[2147483647]</text>
<polygon fill="#ffffff" stroke="transparent" points="10.5,-6 10.5,-25 41.5,-25 41.5,-6 10.5,-6"/>
<polygon fill="none" stroke="#000000" points="10.5,-6 10.5,-25 41.5,-25 41.5,-6 10.5,-6"/>
<text text-anchor="start" x="13.5" y="-12.1" font-family="Helvetica,sans-Serif" font-size="11.00" fill="#000000">&lt; 0</text>
<polygon fill="#ffffff" stroke="transparent" points="41.5,-6 41.5,-25 101.5,-25 101.5,-6 41.5,-6"/>
<polygon fill="none" stroke="#000000" points="41.5,-6 41.5,-25 101.5,-25 101.5,-6 41.5,-6"/>
<text text-anchor="start" x="53.8807" y="-12.1" font-family="Helvetica,sans-Serif" font-size="11.00" fill="#000000">321 rows</text>
<polygon fill="#ffffff" stroke="transparent" points="101.5,-6 101.5,-25 191.5,-25 191.5,-6 101.5,-6"/>
<polygon fill="none" stroke="#000000" points="101.5,-6 101.5,-25 191.5,-25 191.5,-6 101.5,-6"/>
<text text-anchor="start" x="172.9053" y="-12.1" font-family="Helvetica,sans-Serif" font-size="11.00" fill="#000000">0 &gt;</text>
<polygon fill="none" stroke="#000000" stroke-width="2" points="9,-5 9,-203 192,-203 192,-5 9,-5"/>
</a>
</g>
</g>
</g>
</svg>
