<?xml version="1.0" encoding="UTF-8" standalone="no"?>
<!DOCTYPE svg PUBLIC "-//W3C//DTD SVG 1.1//EN"
 "http://www.w3.org/Graphics/SVG/1.1/DTD/svg11.dtd">
<!-- Generated by graphviz version 2.40.1 (20161225.0304)
 -->
<!-- Title: metadata Pages: 1 -->
<svg width="231pt" height="326pt"
 viewBox="0.00 0.00 231.00 326.00" xmlns="http://www.w3.org/2000/svg" xmlns:xlink="http://www.w3.org/1999/xlink">
<g id="graph0" class="graph" transform="scale(1 1) rotate(0) translate(4 322)">
<title>metadata</title>
<polygon fill="#ffffff" stroke="transparent" points="-4,4 -4,-322 227,-322 227,4 -4,4"/>
<!-- metadata -->
<g id="node1" class="node">
<title>metadata</title>
<g id="a_node1"><a xlink:href="../../tables/metadata.html" xlink:title="metadata" target="_top">
<polygon fill="#ffffff" stroke="transparent" points="8,-4 8,-314 215,-314 215,-4 8,-4"/>
<polygon fill="#f5f5f5" stroke="transparent" points="10.5,-289 10.5,-312 213.5,-312 213.5,-289 10.5,-289"/>
<polygon fill="none" stroke="#000000" points="10.5,-289 10.5,-312 213.5,-312 213.5,-289 10.5,-289"/>
<text text-anchor="start" x="15.5" y="-298.1" font-family="Helvetica,sans-Serif" font-weight="bold" font-size="11.00" fill="#000000">metadata</text>
<text text-anchor="start" x="178.5437" y="-297.1" font-family="Helvetica,sans-Serif" font-size="11.00" fill="#000000">[table]</text>
<polygon fill="none" stroke="#000000" points="10.5,-267 10.5,-289 123.5,-289 123.5,-267 10.5,-267"/>
<image xlink:href="../../images/primaryKeys.png" width="11px" height="12px" preserveAspectRatio="xMinYMin meet" x="15.5" y="-284"/>
<text text-anchor="start" x="30.5" y="-274.1" font-family="Helvetica,sans-Serif" font-size="11.00" fill="#000000">field</text>
<polygon fill="none" stroke="#000000" points="123.5,-267 123.5,-289 213.5,-289 213.5,-267 123.5,-267"/>
<text text-anchor="start" x="126.0042" y="-274.7" font-family="Helvetica,sans-Serif" font-size="11.00" fill="#000000">text[2147483647]</text>
<polygon fill="none" stroke="#000000" points="10.5,-245 10.5,-267 123.5,-267 123.5,-245 10.5,-245"/>
<text text-anchor="start" x="30.5" y="-252.1" font-family="Helvetica,sans-Serif" font-size="11.00" fill="#000000">ingest_field</text>
<polygon fill="none" stroke="#000000" points="123.5,-245 123.5,-267 213.5,-267 213.5,-245 123.5,-245"/>
<text text-anchor="start" x="126.0042" y="-252.7" font-family="Helvetica,sans-Serif" font-size="11.00" fill="#000000">text[2147483647]</text>
<polygon fill="none" stroke="#000000" points="10.5,-223 10.5,-245 123.5,-245 123.5,-223 10.5,-223"/>
<text text-anchor="start" x="30.5" y="-230.1" font-family="Helvetica,sans-Serif" font-size="11.00" fill="#000000">order</text>
<polygon fill="none" stroke="#000000" points="123.5,-223 123.5,-245 213.5,-245 213.5,-223 123.5,-223"/>
<text text-anchor="start" x="126.5" y="-230.7" font-family="Helvetica,sans-Serif" font-size="11.00" fill="#000000">float8[17,17]</text>
<polygon fill="none" stroke="#000000" points="10.5,-201 10.5,-223 123.5,-223 123.5,-201 10.5,-201"/>
<text text-anchor="start" x="30.5" y="-208.1" font-family="Helvetica,sans-Serif" font-size="11.00" fill="#000000">display_name</text>
<polygon fill="none" stroke="#000000" points="123.5,-201 123.5,-223 213.5,-223 213.5,-201 123.5,-201"/>
<text text-anchor="start" x="126.0042" y="-208.7" font-family="Helvetica,sans-Serif" font-size="11.00" fill="#000000">text[2147483647]</text>
<polygon fill="none" stroke="#000000" points="10.5,-179 10.5,-201 123.5,-201 123.5,-179 10.5,-179"/>
<text text-anchor="start" x="30.5" y="-186.1" font-family="Helvetica,sans-Serif" font-size="11.00" fill="#000000">colgroup</text>
<polygon fill="none" stroke="#000000" points="123.5,-179 123.5,-201 213.5,-201 213.5,-179 123.5,-179"/>
<text text-anchor="start" x="126.0042" y="-186.7" font-family="Helvetica,sans-Serif" font-size="11.00" fill="#000000">text[2147483647]</text>
<polygon fill="none" stroke="#000000" points="10.5,-157 10.5,-179 123.5,-179 123.5,-157 10.5,-157"/>
<text text-anchor="start" x="30.5" y="-164.1" font-family="Helvetica,sans-Serif" font-size="11.00" fill="#000000">definition</text>
<polygon fill="none" stroke="#000000" points="123.5,-157 123.5,-179 213.5,-179 213.5,-157 123.5,-157"/>
<text text-anchor="start" x="126.0042" y="-164.7" font-family="Helvetica,sans-Serif" font-size="11.00" fill="#000000">text[2147483647]</text>
<polygon fill="none" stroke="#000000" points="10.5,-135 10.5,-157 123.5,-157 123.5,-135 10.5,-135"/>
<text text-anchor="start" x="30.5" y="-142.1" font-family="Helvetica,sans-Serif" font-size="11.00" fill="#000000">possible_values</text>
<polygon fill="none" stroke="#000000" points="123.5,-135 123.5,-157 213.5,-157 213.5,-135 123.5,-135"/>
<text text-anchor="start" x="126.0042" y="-142.7" font-family="Helvetica,sans-Serif" font-size="11.00" fill="#000000">text[2147483647]</text>
<polygon fill="none" stroke="#000000" points="10.5,-113 10.5,-135 123.5,-135 123.5,-113 10.5,-113"/>
<image xlink:href="../../images/primaryKeys.png" width="11px" height="12px" preserveAspectRatio="xMinYMin meet" x="15.5" y="-130"/>
<text text-anchor="start" x="30.5" y="-120.1" font-family="Helvetica,sans-Serif" font-size="11.00" fill="#000000">entity_name</text>
<polygon fill="none" stroke="#000000" points="123.5,-113 123.5,-135 213.5,-135 213.5,-113 123.5,-113"/>
<text text-anchor="start" x="126.0042" y="-120.7" font-family="Helvetica,sans-Serif" font-size="11.00" fill="#000000">text[2147483647]</text>
<polygon fill="none" stroke="#000000" points="10.5,-91 10.5,-113 123.5,-113 123.5,-91 10.5,-91"/>
<text text-anchor="start" x="30.5" y="-98.1" font-family="Helvetica,sans-Serif" font-size="11.00" fill="#000000">export</text>
<polygon fill="none" stroke="#000000" points="123.5,-91 123.5,-113 213.5,-113 213.5,-91 123.5,-91"/>
<text text-anchor="start" x="126.5" y="-98.7" font-family="Helvetica,sans-Serif" font-size="11.00" fill="#000000">bool[1]</text>
<polygon fill="none" stroke="#000000" points="10.5,-69 10.5,-91 123.5,-91 123.5,-69 10.5,-69"/>
<image xlink:href="../../images/primaryKeys.png" width="11px" height="12px" preserveAspectRatio="xMinYMin meet" x="15.5" y="-86"/>
<text text-anchor="start" x="30.5" y="-76.1" font-family="Helvetica,sans-Serif" font-size="11.00" fill="#000000">class_name</text>
<polygon fill="none" stroke="#000000" points="123.5,-69 123.5,-91 213.5,-91 213.5,-69 123.5,-69"/>
<text text-anchor="start" x="126.0042" y="-76.7" font-family="Helvetica,sans-Serif" font-size="11.00" fill="#000000">text[2147483647]</text>
<polygon fill="none" stroke="#000000" points="10.5,-47 10.5,-69 123.5,-69 123.5,-47 10.5,-47"/>
<text text-anchor="start" x="30.5" y="-54.1" font-family="Helvetica,sans-Serif" font-size="11.00" fill="#000000">table_name</text>
<polygon fill="none" stroke="#000000" points="123.5,-47 123.5,-69 213.5,-69 213.5,-47 123.5,-47"/>
<text text-anchor="start" x="126.0042" y="-54.7" font-family="Helvetica,sans-Serif" font-size="11.00" fill="#000000">text[2147483647]</text>
<polygon fill="none" stroke="#000000" points="10.5,-25 10.5,-47 123.5,-47 123.5,-25 10.5,-25"/>
<text text-anchor="start" x="30.5" y="-32.1" font-family="Helvetica,sans-Serif" font-size="11.00" fill="#000000">tooltip</text>
<polygon fill="none" stroke="#000000" points="123.5,-25 123.5,-47 213.5,-47 213.5,-25 123.5,-25"/>
<text text-anchor="start" x="126.0042" y="-32.7" font-family="Helvetica,sans-Serif" font-size="11.00" fill="#000000">text[2147483647]</text>
<polygon fill="#ffffff" stroke="transparent" points="10.5,-6 10.5,-25 52.5,-25 52.5,-6 10.5,-6"/>
<polygon fill="none" stroke="#000000" points="10.5,-6 10.5,-25 52.5,-25 52.5,-6 10.5,-6"/>
<text text-anchor="start" x="13.5" y="-12.1" font-family="Helvetica,sans-Serif" font-size="11.00" fill="#000000">&lt; 0</text>
<polygon fill="#ffffff" stroke="transparent" points="52.5,-6 52.5,-25 123.5,-25 123.5,-6 52.5,-6"/>
<polygon fill="none" stroke="#000000" points="52.5,-6 52.5,-25 123.5,-25 123.5,-6 52.5,-6"/>
<text text-anchor="start" x="75.8807" y="-12.1" font-family="Helvetica,sans-Serif" font-size="11.00" fill="#000000">101 rows</text>
<polygon fill="#ffffff" stroke="transparent" points="123.5,-6 123.5,-25 213.5,-25 213.5,-6 123.5,-6"/>
<polygon fill="none" stroke="#000000" points="123.5,-6 123.5,-25 213.5,-25 213.5,-6 123.5,-6"/>
<text text-anchor="start" x="194.9053" y="-12.1" font-family="Helvetica,sans-Serif" font-size="11.00" fill="#000000">0 &gt;</text>
<polygon fill="none" stroke="#000000" stroke-width="2" points="9,-5 9,-313 214,-313 214,-5 9,-5"/>
</a>
</g>
</g>
</g>
</svg>
