<?xml version="1.0" encoding="UTF-8" standalone="no"?>
<!DOCTYPE svg PUBLIC "-//W3C//DTD SVG 1.1//EN"
 "http://www.w3.org/Graphics/SVG/1.1/DTD/svg11.dtd">
<!-- Generated by graphviz version 2.40.1 (20161225.0304)
 -->
<!-- Title: policydate Pages: 1 -->
<svg width="163pt" height="128pt"
 viewBox="0.00 0.00 163.00 128.00" xmlns="http://www.w3.org/2000/svg" xmlns:xlink="http://www.w3.org/1999/xlink">
<g id="graph0" class="graph" transform="scale(1 1) rotate(0) translate(4 124)">
<title>policydate</title>
<polygon fill="#ffffff" stroke="transparent" points="-4,4 -4,-124 159,-124 159,4 -4,4"/>
<!-- policydate -->
<g id="node1" class="node">
<title>policydate</title>
<g id="a_node1"><a xlink:href="../../tables/policydate.html" xlink:title="policydate" target="_top">
<polygon fill="#ffffff" stroke="transparent" points="8,-4 8,-116 147,-116 147,-4 8,-4"/>
<polygon fill="#f5f5f5" stroke="transparent" points="10.5,-91 10.5,-114 145.5,-114 145.5,-91 10.5,-91"/>
<polygon fill="none" stroke="#000000" points="10.5,-91 10.5,-114 145.5,-114 145.5,-91 10.5,-91"/>
<text text-anchor="start" x="15.5" y="-100.1" font-family="Helvetica,sans-Serif" font-weight="bold" font-size="11.00" fill="#000000">policydate</text>
<text text-anchor="start" x="110.5437" y="-99.1" font-family="Helvetica,sans-Serif" font-size="11.00" fill="#000000">[table]</text>
<polygon fill="none" stroke="#000000" points="10.5,-69 10.5,-91 100.5,-91 100.5,-69 10.5,-69"/>
<image xlink:href="../../images/primaryKeys.png" width="11px" height="12px" preserveAspectRatio="xMinYMin meet" x="15.5" y="-86"/>
<text text-anchor="start" x="30.5" y="-76.1" font-family="Helvetica,sans-Serif" font-size="11.00" fill="#000000">fk_policy_id</text>
<polygon fill="none" stroke="#000000" points="100.5,-69 100.5,-91 145.5,-91 145.5,-69 100.5,-69"/>
<text text-anchor="start" x="103.5" y="-76.7" font-family="Helvetica,sans-Serif" font-size="11.00" fill="#000000">int4[10]</text>
<polygon fill="#ffffff" stroke="transparent" points="10.5,-47 10.5,-69 100.5,-69 100.5,-47 10.5,-47"/>
<polygon fill="none" stroke="#000000" points="10.5,-47 10.5,-69 100.5,-69 100.5,-47 10.5,-47"/>
<text text-anchor="start" x="30.5" y="-54.1" font-family="Helvetica,sans-Serif" font-size="11.00" fill="#000000">start_date</text>
<polygon fill="none" stroke="#000000" points="100.5,-47 100.5,-69 145.5,-69 145.5,-47 100.5,-47"/>
<text text-anchor="start" x="103.1274" y="-54.7" font-family="Helvetica,sans-Serif" font-size="11.00" fill="#000000">date[13]</text>
<polygon fill="#ffffff" stroke="transparent" points="10.5,-25 10.5,-47 100.5,-47 100.5,-25 10.5,-25"/>
<polygon fill="none" stroke="#000000" points="10.5,-25 10.5,-47 100.5,-47 100.5,-25 10.5,-25"/>
<text text-anchor="start" x="30.5" y="-32.1" font-family="Helvetica,sans-Serif" font-size="11.00" fill="#000000">end_date</text>
<polygon fill="none" stroke="#000000" points="100.5,-25 100.5,-47 145.5,-47 145.5,-25 100.5,-25"/>
<text text-anchor="start" x="103.1274" y="-32.7" font-family="Helvetica,sans-Serif" font-size="11.00" fill="#000000">date[13]</text>
<polygon fill="#ffffff" stroke="transparent" points="10.5,-6 10.5,-25 46.5,-25 46.5,-6 10.5,-6"/>
<polygon fill="none" stroke="#000000" points="10.5,-6 10.5,-25 46.5,-25 46.5,-6 10.5,-6"/>
<text text-anchor="start" x="13.5" y="-12.1" font-family="Helvetica,sans-Serif" font-size="11.00" fill="#000000">&lt; 0</text>
<polygon fill="#ffffff" stroke="transparent" points="46.5,-6 46.5,-25 100.5,-25 100.5,-6 46.5,-6"/>
<polygon fill="none" stroke="#000000" points="46.5,-6 46.5,-25 100.5,-25 100.5,-6 46.5,-6"/>
<text text-anchor="start" x="65.1105" y="-12.1" font-family="Helvetica,sans-Serif" font-size="11.00" fill="#000000">0 rows</text>
<polygon fill="#ffffff" stroke="transparent" points="100.5,-6 100.5,-25 145.5,-25 145.5,-6 100.5,-6"/>
<polygon fill="none" stroke="#000000" points="100.5,-6 100.5,-25 145.5,-25 145.5,-6 100.5,-6"/>
<text text-anchor="start" x="126.9053" y="-12.1" font-family="Helvetica,sans-Serif" font-size="11.00" fill="#000000">0 &gt;</text>
<polygon fill="none" stroke="#000000" stroke-width="2" points="9,-5 9,-115 146,-115 146,-5 9,-5"/>
</a>
</g>
</g>
</g>
</svg>
