<?xml version="1.0" encoding="UTF-8" standalone="no"?>
<!DOCTYPE svg PUBLIC "-//W3C//DTD SVG 1.1//EN"
 "http://www.w3.org/Graphics/SVG/1.1/DTD/svg11.dtd">
<!-- Generated by graphviz version 2.40.1 (20161225.0304)
 -->
<!-- Title: version Pages: 1 -->
<svg width="270pt" height="172pt"
 viewBox="0.00 0.00 270.00 172.00" xmlns="http://www.w3.org/2000/svg" xmlns:xlink="http://www.w3.org/1999/xlink">
<g id="graph0" class="graph" transform="scale(1 1) rotate(0) translate(4 168)">
<title>version</title>
<polygon fill="#ffffff" stroke="transparent" points="-4,4 -4,-168 266,-168 266,4 -4,4"/>
<!-- version -->
<g id="node1" class="node">
<title>version</title>
<g id="a_node1"><a xlink:href="../../tables/version.html" xlink:title="version" target="_top">
<polygon fill="#ffffff" stroke="transparent" points="8,-4 8,-160 254,-160 254,-4 8,-4"/>
<polygon fill="#f5f5f5" stroke="transparent" points="10,-135 10,-158 252,-158 252,-135 10,-135"/>
<polygon fill="none" stroke="#000000" points="10,-135 10,-158 252,-158 252,-135 10,-135"/>
<text text-anchor="start" x="15" y="-144.1" font-family="Helvetica,sans-Serif" font-weight="bold" font-size="11.00" fill="#000000">version</text>
<text text-anchor="start" x="217.0437" y="-143.1" font-family="Helvetica,sans-Serif" font-size="11.00" fill="#000000">[table]</text>
<polygon fill="none" stroke="#000000" points="10,-113 10,-135 125,-135 125,-113 10,-113"/>
<image xlink:href="../../images/primaryKeys.png" width="11px" height="12px" preserveAspectRatio="xMinYMin meet" x="15" y="-130"/>
<text text-anchor="start" x="30" y="-120.1" font-family="Helvetica,sans-Serif" font-size="11.00" fill="#000000">id</text>
<polygon fill="none" stroke="#000000" points="125,-113 125,-135 252,-135 252,-113 125,-113"/>
<text text-anchor="start" x="128" y="-120.7" font-family="Helvetica,sans-Serif" font-size="11.00" fill="#000000">serial[10]</text>
<polygon fill="none" stroke="#000000" points="10,-91 10,-113 125,-113 125,-91 10,-91"/>
<text text-anchor="start" x="30" y="-98.1" font-family="Helvetica,sans-Serif" font-size="11.00" fill="#000000">name</text>
<polygon fill="none" stroke="#000000" points="125,-91 125,-113 252,-113 252,-91 125,-91"/>
<text text-anchor="start" x="128" y="-98.7" font-family="Helvetica,sans-Serif" font-size="11.00" fill="#000000">text[2147483647]</text>
<polygon fill="none" stroke="#000000" points="10,-69 10,-91 125,-91 125,-69 10,-69"/>
<text text-anchor="start" x="30" y="-76.1" font-family="Helvetica,sans-Serif" font-size="11.00" fill="#000000">date</text>
<polygon fill="none" stroke="#000000" points="125,-69 125,-91 252,-91 252,-69 125,-69"/>
<text text-anchor="start" x="128" y="-76.7" font-family="Helvetica,sans-Serif" font-size="11.00" fill="#000000">date[13]</text>
<polygon fill="none" stroke="#000000" points="10,-47 10,-69 125,-69 125,-47 10,-47"/>
<text text-anchor="start" x="30" y="-54.1" font-family="Helvetica,sans-Serif" font-size="11.00" fill="#000000">last_datum_date</text>
<polygon fill="none" stroke="#000000" points="125,-47 125,-69 252,-69 252,-47 125,-47"/>
<text text-anchor="start" x="128" y="-54.7" font-family="Helvetica,sans-Serif" font-size="11.00" fill="#000000">date[13]</text>
<polygon fill="none" stroke="#000000" points="10,-25 10,-47 125,-47 125,-25 10,-25"/>
<text text-anchor="start" x="30" y="-32.1" font-family="Helvetica,sans-Serif" font-size="11.00" fill="#000000">map_types</text>
<polygon fill="none" stroke="#000000" points="125,-25 125,-47 252,-47 252,-25 125,-25"/>
<text text-anchor="start" x="127.6645" y="-32.7" font-family="Helvetica,sans-Serif" font-size="11.00" fill="#000000">_map_type[2147483647]</text>
<polygon fill="#ffffff" stroke="transparent" points="10,-6 10,-25 59,-25 59,-6 10,-6"/>
<polygon fill="none" stroke="#000000" points="10,-6 10,-25 59,-25 59,-6 10,-6"/>
<text text-anchor="start" x="13" y="-12.1" font-family="Helvetica,sans-Serif" font-size="11.00" fill="#000000">&lt; 0</text>
<polygon fill="#ffffff" stroke="transparent" points="59,-6 59,-25 125,-25 125,-6 59,-6"/>
<polygon fill="none" stroke="#000000" points="59,-6 59,-25 125,-25 125,-6 59,-6"/>
<text text-anchor="start" x="89.6105" y="-12.1" font-family="Helvetica,sans-Serif" font-size="11.00" fill="#000000">5 rows</text>
<polygon fill="#ffffff" stroke="transparent" points="125,-6 125,-25 252,-25 252,-6 125,-6"/>
<polygon fill="none" stroke="#000000" points="125,-6 125,-25 252,-25 252,-6 125,-6"/>
<text text-anchor="start" x="233.4053" y="-12.1" font-family="Helvetica,sans-Serif" font-size="11.00" fill="#000000">0 &gt;</text>
<polygon fill="none" stroke="#000000" stroke-width="2" points="9,-5 9,-159 253,-159 253,-5 9,-5"/>
</a>
</g>
</g>
</g>
</svg>
