<?xml version="1.0" encoding="UTF-8" standalone="no"?>
<!DOCTYPE svg PUBLIC "-//W3C//DTD SVG 1.1//EN"
 "http://www.w3.org/Graphics/SVG/1.1/DTD/svg11.dtd">
<!-- Generated by graphviz version 2.40.1 (20161225.0304)
 -->
<!-- Title: twoDegreesRelationshipsDiagram Pages: 1 -->
<svg width="619pt" height="469pt"
 viewBox="0.00 0.00 619.00 469.20" xmlns="http://www.w3.org/2000/svg" xmlns:xlink="http://www.w3.org/1999/xlink">
<g id="graph0" class="graph" transform="scale(1 1) rotate(0) translate(4 465.2)">
<title>twoDegreesRelationshipsDiagram</title>
<polygon fill="#ffffff" stroke="transparent" points="-4,4 -4,-465.2 615,-465.2 615,4 -4,4"/>
<text text-anchor="middle" x="72.4936" y="-7.3" font-family="Helvetica,sans-Serif" font-size="11.00" fill="#000000">Generated by SchemaSpy</text>
<!-- auth_entity -->
<g id="node1" class="node">
<title>auth_entity</title>
<g id="a_node1"><a xlink:href="../../tables/auth_entity.html" xlink:title="auth_entity" target="_top">
<polygon fill="#ffffff" stroke="transparent" points="189.5,-237.2 189.5,-342.2 290.5,-342.2 290.5,-237.2 189.5,-237.2"/>
<polygon fill="#f5f5f5" stroke="transparent" points="190,-318.7 190,-341.7 291,-341.7 291,-318.7 190,-318.7"/>
<polygon fill="none" stroke="#000000" points="190,-318.7 190,-341.7 291,-341.7 291,-318.7 190,-318.7"/>
<text text-anchor="start" x="195" y="-327.8" font-family="Helvetica,sans-Serif" font-weight="bold" font-size="11.00" fill="#000000">auth_entity</text>
<text text-anchor="start" x="256.0437" y="-326.8" font-family="Helvetica,sans-Serif" font-size="11.00" fill="#000000">[table]</text>
<polygon fill="none" stroke="#000000" points="190,-296.7 190,-318.7 291,-318.7 291,-296.7 190,-296.7"/>
<image xlink:href="../../images/primaryKeys.png" width="11px" height="12px" preserveAspectRatio="xMinYMin meet" x="195" y="-313.7"/>
<text text-anchor="start" x="218" y="-303.8" font-family="Helvetica,sans-Serif" font-size="11.00" fill="#000000">id</text>
<polygon fill="#ffffff" stroke="transparent" points="190,-274.7 190,-296.7 291,-296.7 291,-274.7 190,-274.7"/>
<polygon fill="none" stroke="#000000" points="190,-274.7 190,-296.7 291,-296.7 291,-274.7 190,-274.7"/>
<image xlink:href="../../images/foreignKeys.png" width="11px" height="12px" preserveAspectRatio="xMinYMin meet" x="195" y="-291.7"/>
<text text-anchor="start" x="218" y="-281.8" font-family="Helvetica,sans-Serif" font-size="11.00" fill="#000000">place</text>
<polygon fill="none" stroke="#000000" points="190,-255.7 190,-274.7 291,-274.7 291,-255.7 190,-255.7"/>
<text text-anchor="start" x="193" y="-261.8" font-family="Helvetica,sans-Serif" font-size="11.00" fill="#000000">...</text>
<polygon fill="#ffffff" stroke="transparent" points="190,-236.7 190,-255.7 211,-255.7 211,-236.7 190,-236.7"/>
<polygon fill="none" stroke="#000000" points="190,-236.7 190,-255.7 211,-255.7 211,-236.7 190,-236.7"/>
<text text-anchor="start" x="192.7027" y="-242.8" font-family="Helvetica,sans-Serif" font-size="11.00" fill="#000000">&lt; 1</text>
<polygon fill="#ffffff" stroke="transparent" points="211,-236.7 211,-255.7 270,-255.7 270,-236.7 211,-236.7"/>
<polygon fill="none" stroke="#000000" points="211,-236.7 211,-255.7 270,-255.7 270,-236.7 211,-236.7"/>
<text text-anchor="start" x="213.6045" y="-242.8" font-family="Helvetica,sans-Serif" font-size="11.00" fill="#000000">2,895 rows</text>
<polygon fill="#ffffff" stroke="transparent" points="270,-236.7 270,-255.7 291,-255.7 291,-236.7 270,-236.7"/>
<polygon fill="none" stroke="#000000" points="270,-236.7 270,-255.7 291,-255.7 291,-236.7 270,-236.7"/>
<text text-anchor="start" x="272.7027" y="-242.8" font-family="Helvetica,sans-Serif" font-size="11.00" fill="#000000">3 &gt;</text>
</a>
</g>
</g>
<!-- place -->
<g id="node2" class="node">
<title>place</title>
<g id="a_node2"><a xlink:href="../../tables/place.html" xlink:title="place" target="_top">
<polygon fill="#ffffff" stroke="transparent" points="8,-131.2 8,-192.2 100,-192.2 100,-131.2 8,-131.2"/>
<polygon fill="#f5f5f5" stroke="transparent" points="8,-168.7 8,-191.7 100,-191.7 100,-168.7 8,-168.7"/>
<polygon fill="none" stroke="#000000" points="8,-168.7 8,-191.7 100,-191.7 100,-168.7 8,-168.7"/>
<text text-anchor="start" x="13" y="-177.8" font-family="Helvetica,sans-Serif" font-weight="bold" font-size="11.00" fill="#000000">place</text>
<text text-anchor="start" x="65.0437" y="-176.8" font-family="Helvetica,sans-Serif" font-size="11.00" fill="#000000">[table]</text>
<polygon fill="none" stroke="#000000" points="8,-149.7 8,-168.7 100,-168.7 100,-149.7 8,-149.7"/>
<text text-anchor="start" x="11" y="-155.8" font-family="Helvetica,sans-Serif" font-size="11.00" fill="#000000">...</text>
<polygon fill="#ffffff" stroke="transparent" points="8,-130.7 8,-149.7 20,-149.7 20,-130.7 8,-130.7"/>
<polygon fill="none" stroke="#000000" points="8,-130.7 8,-149.7 20,-149.7 20,-130.7 8,-130.7"/>
<text text-anchor="start" x="10.9431" y="-136.8" font-family="Helvetica,sans-Serif" font-size="11.00" fill="#000000"> &#160;</text>
<polygon fill="#ffffff" stroke="transparent" points="20,-130.7 20,-149.7 79,-149.7 79,-130.7 20,-130.7"/>
<polygon fill="none" stroke="#000000" points="20,-130.7 20,-149.7 79,-149.7 79,-130.7 20,-130.7"/>
<text text-anchor="start" x="22.6045" y="-136.8" font-family="Helvetica,sans-Serif" font-size="11.00" fill="#000000">7,645 rows</text>
<polygon fill="#ffffff" stroke="transparent" points="79,-130.7 79,-149.7 100,-149.7 100,-130.7 79,-130.7"/>
<polygon fill="none" stroke="#000000" points="79,-130.7 79,-149.7 100,-149.7 100,-130.7 79,-130.7"/>
<text text-anchor="start" x="81.7027" y="-136.8" font-family="Helvetica,sans-Serif" font-size="11.00" fill="#000000">7 &gt;</text>
</a>
</g>
</g>
<!-- auth_entity&#45;&gt;place -->
<g id="edge1" class="edge">
<title>auth_entity:w&#45;&gt;place:e</title>
<path fill="none" stroke="#000000" d="M175.5209,-283.3873C127.8109,-266.1745 163.6409,-158.7 100,-158.7"/>
<polygon fill="#000000" stroke="#000000" points="182.1001,-284.4381 189.4322,-289.2549 186.0501,-285.0691 190,-285.7 190,-285.7 190,-285.7 186.0501,-285.0691 190.5678,-282.1451 182.1001,-284.4381 182.1001,-284.4381"/>
<ellipse fill="none" stroke="#000000" cx="178.9402" cy="-283.9334" rx="3.2" ry="3.2"/>
</g>
<!-- auth_entity_policy_number -->
<g id="node3" class="node">
<title>auth_entity_policy_number</title>
<g id="a_node3"><a xlink:href="../../tables/auth_entity_policy_number.html" xlink:title="auth_entity_policy_number" target="_top">
<polygon fill="#ffffff" stroke="transparent" points="380,-202.7 380,-292.7 603,-292.7 603,-202.7 380,-202.7"/>
<polygon fill="#f5f5f5" stroke="transparent" points="382.5,-267.7 382.5,-290.7 601.5,-290.7 601.5,-267.7 382.5,-267.7"/>
<polygon fill="none" stroke="#000000" points="382.5,-267.7 382.5,-290.7 601.5,-290.7 601.5,-267.7 382.5,-267.7"/>
<text text-anchor="start" x="387.5" y="-276.8" font-family="Helvetica,sans-Serif" font-weight="bold" font-size="11.00" fill="#000000">auth_entity_policy_number</text>
<text text-anchor="start" x="566.5437" y="-275.8" font-family="Helvetica,sans-Serif" font-size="11.00" fill="#000000">[table]</text>
<polygon fill="none" stroke="#000000" points="382.5,-245.7 382.5,-267.7 559.5,-267.7 559.5,-245.7 382.5,-245.7"/>
<image xlink:href="../../images/primaryKeys.png" width="11px" height="12px" preserveAspectRatio="xMinYMin meet" x="387.5" y="-262.7"/>
<text text-anchor="start" x="402.5" y="-252.8" font-family="Helvetica,sans-Serif" font-size="11.00" fill="#000000">auth_entity</text>
<polygon fill="none" stroke="#000000" points="559.5,-245.7 559.5,-267.7 601.5,-267.7 601.5,-245.7 559.5,-245.7"/>
<text text-anchor="start" x="562.4644" y="-253.4" font-family="Helvetica,sans-Serif" font-size="11.00" fill="#000000">int4[10]</text>
<polygon fill="none" stroke="#000000" points="382.5,-223.7 382.5,-245.7 559.5,-245.7 559.5,-223.7 382.5,-223.7"/>
<image xlink:href="../../images/primaryKeys.png" width="11px" height="12px" preserveAspectRatio="xMinYMin meet" x="387.5" y="-240.7"/>
<text text-anchor="start" x="402.5" y="-230.8" font-family="Helvetica,sans-Serif" font-size="11.00" fill="#000000">policy_number</text>
<polygon fill="none" stroke="#000000" points="559.5,-223.7 559.5,-245.7 601.5,-245.7 601.5,-223.7 559.5,-223.7"/>
<text text-anchor="start" x="562.4644" y="-231.4" font-family="Helvetica,sans-Serif" font-size="11.00" fill="#000000">int4[10]</text>
<polygon fill="#ffffff" stroke="transparent" points="382.5,-204.7 382.5,-223.7 448.5,-223.7 448.5,-204.7 382.5,-204.7"/>
<polygon fill="none" stroke="#000000" points="382.5,-204.7 382.5,-223.7 448.5,-223.7 448.5,-204.7 382.5,-204.7"/>
<text text-anchor="start" x="385.5" y="-210.8" font-family="Helvetica,sans-Serif" font-size="11.00" fill="#000000">&lt; 2</text>
<polygon fill="#ffffff" stroke="transparent" points="448.5,-204.7 448.5,-223.7 559.5,-223.7 559.5,-204.7 448.5,-204.7"/>
<polygon fill="none" stroke="#000000" points="448.5,-204.7 448.5,-223.7 559.5,-223.7 559.5,-204.7 448.5,-204.7"/>
<text text-anchor="start" x="496.594" y="-210.8" font-family="Helvetica,sans-Serif" font-size="11.00" fill="#000000">18,176 rows</text>
<polygon fill="#ffffff" stroke="transparent" points="559.5,-204.7 559.5,-223.7 601.5,-223.7 601.5,-204.7 559.5,-204.7"/>
<polygon fill="none" stroke="#000000" points="559.5,-204.7 559.5,-223.7 601.5,-223.7 601.5,-204.7 559.5,-204.7"/>
<text text-anchor="start" x="582.9053" y="-210.8" font-family="Helvetica,sans-Serif" font-size="11.00" fill="#000000">0 &gt;</text>
<polygon fill="none" stroke="#000000" stroke-width="2" points="381,-203.7 381,-291.7 602,-291.7 602,-203.7 381,-203.7"/>
</a>
</g>
</g>
<!-- auth_entity_policy_number&#45;&gt;auth_entity -->
<g id="edge2" class="edge">
<title>auth_entity_policy_number:w&#45;&gt;auth_entity:e</title>
<path fill="none" stroke="#000000" d="M367.9618,-258.637C335.6597,-267.9527 332.1011,-307.7 291,-307.7"/>
<polygon fill="#000000" stroke="#000000" points="374.5701,-257.7566 382.9755,-260.2685 378.535,-257.2283 382.5,-256.7 382.5,-256.7 382.5,-256.7 378.535,-257.2283 382.0245,-253.1315 374.5701,-257.7566 374.5701,-257.7566"/>
<ellipse fill="none" stroke="#000000" cx="371.3981" cy="-258.1792" rx="3.2" ry="3.2"/>
</g>
<!-- policy_number -->
<g id="node4" class="node">
<title>policy_number</title>
<g id="a_node4"><a xlink:href="../../tables/policy_number.html" xlink:title="policy_number" target="_top">
<polygon fill="#ffffff" stroke="transparent" points="149,-99.2 149,-182.2 331,-182.2 331,-99.2 149,-99.2"/>
<polygon fill="#f5f5f5" stroke="transparent" points="149,-158.7 149,-181.7 331,-181.7 331,-158.7 149,-158.7"/>
<polygon fill="none" stroke="#000000" points="149,-158.7 149,-181.7 331,-181.7 331,-158.7 149,-158.7"/>
<text text-anchor="start" x="154" y="-167.8" font-family="Helvetica,sans-Serif" font-weight="bold" font-size="11.00" fill="#000000">policy_number</text>
<text text-anchor="start" x="296.0437" y="-166.8" font-family="Helvetica,sans-Serif" font-size="11.00" fill="#000000">[table]</text>
<polygon fill="none" stroke="#000000" points="149,-136.7 149,-158.7 331,-158.7 331,-136.7 149,-136.7"/>
<image xlink:href="../../images/primaryKeys.png" width="11px" height="12px" preserveAspectRatio="xMinYMin meet" x="154" y="-153.7"/>
<text text-anchor="start" x="169" y="-143.8" font-family="Helvetica,sans-Serif" font-size="11.00" fill="#000000">id</text>
<polygon fill="none" stroke="#000000" points="149,-117.7 149,-136.7 331,-136.7 331,-117.7 149,-117.7"/>
<text text-anchor="start" x="152" y="-123.8" font-family="Helvetica,sans-Serif" font-size="11.00" fill="#000000">...</text>
<polygon fill="#ffffff" stroke="transparent" points="149,-98.7 149,-117.7 203,-117.7 203,-98.7 149,-98.7"/>
<polygon fill="none" stroke="#000000" points="149,-98.7 149,-117.7 203,-117.7 203,-98.7 149,-98.7"/>
<text text-anchor="start" x="152" y="-104.8" font-family="Helvetica,sans-Serif" font-size="11.00" fill="#000000"> &#160;</text>
<polygon fill="#ffffff" stroke="transparent" points="203,-98.7 203,-117.7 289,-117.7 289,-98.7 203,-98.7"/>
<polygon fill="none" stroke="#000000" points="203,-98.7 203,-117.7 289,-117.7 289,-98.7 203,-98.7"/>
<text text-anchor="start" x="226.094" y="-104.8" font-family="Helvetica,sans-Serif" font-size="11.00" fill="#000000">17,312 rows</text>
<polygon fill="#ffffff" stroke="transparent" points="289,-98.7 289,-117.7 331,-117.7 331,-98.7 289,-98.7"/>
<polygon fill="none" stroke="#000000" points="289,-98.7 289,-117.7 331,-117.7 331,-98.7 289,-98.7"/>
<text text-anchor="start" x="312.4053" y="-104.8" font-family="Helvetica,sans-Serif" font-size="11.00" fill="#000000">3 &gt;</text>
</a>
</g>
</g>
<!-- auth_entity_policy_number&#45;&gt;policy_number -->
<g id="edge3" class="edge">
<title>auth_entity_policy_number:w&#45;&gt;policy_number:e</title>
<path fill="none" stroke="#000000" d="M368.6146,-230.5038C346.2884,-213.1252 369.9657,-147.7 331,-147.7"/>
<polygon fill="#000000" stroke="#000000" points="374.842,-232.3857 381.4586,-238.1461 378.671,-233.5429 382.5,-234.7 382.5,-234.7 382.5,-234.7 378.671,-233.5429 383.5414,-231.2539 374.842,-232.3857 374.842,-232.3857"/>
<ellipse fill="none" stroke="#000000" cx="371.7789" cy="-231.46" rx="3.2" ry="3.2"/>
</g>
<!-- auth_entity_to_plan -->
<g id="node5" class="node">
<title>auth_entity_to_plan</title>
<g id="a_node5"><a xlink:href="../../tables/auth_entity_to_plan.html" xlink:title="auth_entity_to_plan" target="_top">
<polygon fill="#ffffff" stroke="transparent" points="422.5,-314.2 422.5,-375.2 560.5,-375.2 560.5,-314.2 422.5,-314.2"/>
<polygon fill="#f5f5f5" stroke="transparent" points="422.5,-351.7 422.5,-374.7 560.5,-374.7 560.5,-351.7 422.5,-351.7"/>
<polygon fill="none" stroke="#000000" points="422.5,-351.7 422.5,-374.7 560.5,-374.7 560.5,-351.7 422.5,-351.7"/>
<text text-anchor="start" x="427.0059" y="-360.8" font-family="Helvetica,sans-Serif" font-weight="bold" font-size="11.00" fill="#000000">auth_entity_to_plan</text>
<text text-anchor="start" x="526.0219" y="-359.8" font-family="Helvetica,sans-Serif" font-size="11.00" fill="#000000">[table]</text>
<polygon fill="none" stroke="#000000" points="422.5,-332.7 422.5,-351.7 560.5,-351.7 560.5,-332.7 422.5,-332.7"/>
<text text-anchor="start" x="425.5" y="-338.8" font-family="Helvetica,sans-Serif" font-size="11.00" fill="#000000">...</text>
<polygon fill="#ffffff" stroke="transparent" points="422.5,-313.7 422.5,-332.7 470.5,-332.7 470.5,-313.7 422.5,-313.7"/>
<polygon fill="none" stroke="#000000" points="422.5,-313.7 422.5,-332.7 470.5,-332.7 470.5,-313.7 422.5,-313.7"/>
<text text-anchor="start" x="425.5" y="-319.8" font-family="Helvetica,sans-Serif" font-size="11.00" fill="#000000">&lt; 2</text>
<polygon fill="#ffffff" stroke="transparent" points="470.5,-313.7 470.5,-332.7 534.5,-332.7 534.5,-313.7 470.5,-313.7"/>
<polygon fill="none" stroke="#000000" points="470.5,-313.7 470.5,-332.7 534.5,-332.7 534.5,-313.7 470.5,-313.7"/>
<text text-anchor="start" x="486.8807" y="-319.8" font-family="Helvetica,sans-Serif" font-size="11.00" fill="#000000">493 rows</text>
<polygon fill="#ffffff" stroke="transparent" points="534.5,-313.7 534.5,-332.7 560.5,-332.7 560.5,-313.7 534.5,-313.7"/>
<polygon fill="none" stroke="#000000" points="534.5,-313.7 534.5,-332.7 560.5,-332.7 560.5,-313.7 534.5,-313.7"/>
<text text-anchor="start" x="551.3862" y="-319.8" font-family="Helvetica,sans-Serif" font-size="11.00" fill="#000000"> &#160;</text>
</a>
</g>
</g>
<!-- auth_entity_to_plan&#45;&gt;auth_entity -->
<g id="edge4" class="edge">
<title>auth_entity_to_plan:w&#45;&gt;auth_entity:e</title>
<path fill="none" stroke="#000000" d="M407.9727,-340.9899C359.9167,-336.1073 346.1786,-307.7 291,-307.7"/>
<polygon fill="#000000" stroke="#000000" points="414.5095,-341.3093 422.3242,-345.2957 418.5048,-341.5047 422.5,-341.7 422.5,-341.7 422.5,-341.7 418.5048,-341.5047 422.6758,-338.1043 414.5095,-341.3093 414.5095,-341.3093"/>
<ellipse fill="none" stroke="#000000" cx="411.3134" cy="-341.1531" rx="3.2" ry="3.2"/>
</g>
<!-- auth_entity_to_policy -->
<g id="node6" class="node">
<title>auth_entity_to_policy</title>
<g id="a_node6"><a xlink:href="../../tables/auth_entity_to_policy.html" xlink:title="auth_entity_to_policy" target="_top">
<polygon fill="#ffffff" stroke="transparent" points="418.5,-396.2 418.5,-457.2 564.5,-457.2 564.5,-396.2 418.5,-396.2"/>
<polygon fill="#f5f5f5" stroke="transparent" points="418.5,-433.7 418.5,-456.7 564.5,-456.7 564.5,-433.7 418.5,-433.7"/>
<polygon fill="none" stroke="#000000" points="418.5,-433.7 418.5,-456.7 564.5,-456.7 564.5,-433.7 418.5,-433.7"/>
<text text-anchor="start" x="423.3429" y="-442.8" font-family="Helvetica,sans-Serif" font-weight="bold" font-size="11.00" fill="#000000">auth_entity_to_policy</text>
<text text-anchor="start" x="530.0219" y="-441.8" font-family="Helvetica,sans-Serif" font-size="11.00" fill="#000000">[table]</text>
<polygon fill="none" stroke="#000000" points="418.5,-414.7 418.5,-433.7 564.5,-433.7 564.5,-414.7 418.5,-414.7"/>
<text text-anchor="start" x="421.5" y="-420.8" font-family="Helvetica,sans-Serif" font-size="11.00" fill="#000000">...</text>
<polygon fill="#ffffff" stroke="transparent" points="418.5,-395.7 418.5,-414.7 463.5,-414.7 463.5,-395.7 418.5,-395.7"/>
<polygon fill="none" stroke="#000000" points="418.5,-395.7 418.5,-414.7 463.5,-414.7 463.5,-395.7 418.5,-395.7"/>
<text text-anchor="start" x="421.5" y="-401.8" font-family="Helvetica,sans-Serif" font-size="11.00" fill="#000000">&lt; 2</text>
<polygon fill="#ffffff" stroke="transparent" points="463.5,-395.7 463.5,-414.7 540.5,-414.7 540.5,-395.7 463.5,-395.7"/>
<polygon fill="none" stroke="#000000" points="463.5,-395.7 463.5,-414.7 540.5,-414.7 540.5,-395.7 463.5,-395.7"/>
<text text-anchor="start" x="477.594" y="-401.8" font-family="Helvetica,sans-Serif" font-size="11.00" fill="#000000">41,840 rows</text>
<polygon fill="#ffffff" stroke="transparent" points="540.5,-395.7 540.5,-414.7 564.5,-414.7 564.5,-395.7 540.5,-395.7"/>
<polygon fill="none" stroke="#000000" points="540.5,-395.7 540.5,-414.7 564.5,-414.7 564.5,-395.7 540.5,-395.7"/>
<text text-anchor="start" x="555.3862" y="-401.8" font-family="Helvetica,sans-Serif" font-size="11.00" fill="#000000"> &#160;</text>
</a>
</g>
</g>
<!-- auth_entity_to_policy&#45;&gt;auth_entity -->
<g id="edge5" class="edge">
<title>auth_entity_to_policy:w&#45;&gt;auth_entity:e</title>
<path fill="none" stroke="#000000" d="M404.1582,-422.1479C344.9282,-408.3827 362.373,-307.7 291,-307.7"/>
<polygon fill="#000000" stroke="#000000" points="410.5464,-422.8392 418.1126,-427.2791 414.5232,-423.2696 418.5,-423.7 418.5,-423.7 418.5,-423.7 414.5232,-423.2696 418.8874,-420.1209 410.5464,-422.8392 410.5464,-422.8392"/>
<ellipse fill="none" stroke="#000000" cx="407.365" cy="-422.4949" rx="3.2" ry="3.2"/>
</g>
<!-- place_policy_number -->
<g id="node7" class="node">
<title>place_policy_number</title>
<g id="a_node7"><a xlink:href="../../tables/place_policy_number.html" xlink:title="place_policy_number" target="_top">
<polygon fill="#ffffff" stroke="transparent" points="418.5,-38.2 418.5,-99.2 564.5,-99.2 564.5,-38.2 418.5,-38.2"/>
<polygon fill="#f5f5f5" stroke="transparent" points="418.5,-75.7 418.5,-98.7 564.5,-98.7 564.5,-75.7 418.5,-75.7"/>
<polygon fill="none" stroke="#000000" points="418.5,-75.7 418.5,-98.7 564.5,-98.7 564.5,-75.7 418.5,-75.7"/>
<text text-anchor="start" x="423.0448" y="-84.8" font-family="Helvetica,sans-Serif" font-weight="bold" font-size="11.00" fill="#000000">place_policy_number</text>
<text text-anchor="start" x="530.0219" y="-83.8" font-family="Helvetica,sans-Serif" font-size="11.00" fill="#000000">[table]</text>
<polygon fill="none" stroke="#000000" points="418.5,-56.7 418.5,-75.7 564.5,-75.7 564.5,-56.7 418.5,-56.7"/>
<text text-anchor="start" x="421.5" y="-62.8" font-family="Helvetica,sans-Serif" font-size="11.00" fill="#000000">...</text>
<polygon fill="#ffffff" stroke="transparent" points="418.5,-37.7 418.5,-56.7 463.5,-56.7 463.5,-37.7 418.5,-37.7"/>
<polygon fill="none" stroke="#000000" points="418.5,-37.7 418.5,-56.7 463.5,-56.7 463.5,-37.7 418.5,-37.7"/>
<text text-anchor="start" x="421.5" y="-43.8" font-family="Helvetica,sans-Serif" font-size="11.00" fill="#000000">&lt; 2</text>
<polygon fill="#ffffff" stroke="transparent" points="463.5,-37.7 463.5,-56.7 540.5,-56.7 540.5,-37.7 463.5,-37.7"/>
<polygon fill="none" stroke="#000000" points="463.5,-37.7 463.5,-56.7 540.5,-56.7 540.5,-37.7 463.5,-37.7"/>
<text text-anchor="start" x="477.594" y="-43.8" font-family="Helvetica,sans-Serif" font-size="11.00" fill="#000000">32,150 rows</text>
<polygon fill="#ffffff" stroke="transparent" points="540.5,-37.7 540.5,-56.7 564.5,-56.7 564.5,-37.7 540.5,-37.7"/>
<polygon fill="none" stroke="#000000" points="540.5,-37.7 540.5,-56.7 564.5,-56.7 564.5,-37.7 540.5,-37.7"/>
<text text-anchor="start" x="555.3862" y="-43.8" font-family="Helvetica,sans-Serif" font-size="11.00" fill="#000000"> &#160;</text>
</a>
</g>
</g>
<!-- place_policy_number&#45;&gt;place -->
<g id="edge6" class="edge">
<title>place_policy_number:w&#45;&gt;place:e</title>
<path fill="none" stroke="#000000" d="M403.9859,-65.5033C290.7298,-62.4369 241.5398,-25.4113 141,-88.7 110.4873,-107.9074 136.0548,-158.7 100,-158.7"/>
<polygon fill="#000000" stroke="#000000" points="410.5007,-65.5915 418.4512,-69.2997 414.5004,-65.6458 418.5,-65.7 418.5,-65.7 418.5,-65.7 414.5004,-65.6458 418.5488,-62.1003 410.5007,-65.5915 410.5007,-65.5915"/>
<ellipse fill="none" stroke="#000000" cx="407.301" cy="-65.5481" rx="3.2" ry="3.2"/>
</g>
<!-- place_policy_number&#45;&gt;policy_number -->
<g id="edge7" class="edge">
<title>place_policy_number:w&#45;&gt;policy_number:e</title>
<path fill="none" stroke="#000000" d="M406.8791,-74.7887C384.0183,-96.1384 336.2828,-147.7 331,-147.7"/>
<polygon fill="#000000" stroke="#000000" points="412.1984,-70.6285 420.7178,-68.5357 415.3492,-68.1643 418.5,-65.7 418.5,-65.7 418.5,-65.7 415.3492,-68.1643 416.2822,-62.8643 412.1984,-70.6285 412.1984,-70.6285"/>
<ellipse fill="none" stroke="#000000" cx="409.6778" cy="-72.5999" rx="3.2" ry="3.2"/>
</g>
<!-- policy_number_to_policy -->
<g id="node8" class="node">
<title>policy_number_to_policy</title>
<g id="a_node8"><a xlink:href="../../tables/policy_number_to_policy.html" xlink:title="policy_number_to_policy" target="_top">
<polygon fill="#ffffff" stroke="transparent" points="409.5,-120.2 409.5,-181.2 573.5,-181.2 573.5,-120.2 409.5,-120.2"/>
<polygon fill="#f5f5f5" stroke="transparent" points="409.5,-157.7 409.5,-180.7 573.5,-180.7 573.5,-157.7 409.5,-157.7"/>
<polygon fill="none" stroke="#000000" points="409.5,-157.7 409.5,-180.7 573.5,-180.7 573.5,-157.7 409.5,-157.7"/>
<text text-anchor="start" x="414.4885" y="-166.8" font-family="Helvetica,sans-Serif" font-weight="bold" font-size="11.00" fill="#000000">policy_number_to_policy</text>
<text text-anchor="start" x="539.0219" y="-165.8" font-family="Helvetica,sans-Serif" font-size="11.00" fill="#000000">[table]</text>
<polygon fill="none" stroke="#000000" points="409.5,-138.7 409.5,-157.7 573.5,-157.7 573.5,-138.7 409.5,-138.7"/>
<text text-anchor="start" x="412.5" y="-144.8" font-family="Helvetica,sans-Serif" font-size="11.00" fill="#000000">...</text>
<polygon fill="#ffffff" stroke="transparent" points="409.5,-119.7 409.5,-138.7 463.5,-138.7 463.5,-119.7 409.5,-119.7"/>
<polygon fill="none" stroke="#000000" points="409.5,-119.7 409.5,-138.7 463.5,-138.7 463.5,-119.7 409.5,-119.7"/>
<text text-anchor="start" x="412.5" y="-125.8" font-family="Helvetica,sans-Serif" font-size="11.00" fill="#000000">&lt; 2</text>
<polygon fill="#ffffff" stroke="transparent" points="463.5,-119.7 463.5,-138.7 544.5,-138.7 544.5,-119.7 463.5,-119.7"/>
<polygon fill="none" stroke="#000000" points="463.5,-119.7 463.5,-138.7 544.5,-138.7 544.5,-119.7 463.5,-119.7"/>
<text text-anchor="start" x="481.594" y="-125.8" font-family="Helvetica,sans-Serif" font-size="11.00" fill="#000000">40,812 rows</text>
<polygon fill="#ffffff" stroke="transparent" points="544.5,-119.7 544.5,-138.7 573.5,-138.7 573.5,-119.7 544.5,-119.7"/>
<polygon fill="none" stroke="#000000" points="544.5,-119.7 544.5,-138.7 573.5,-138.7 573.5,-119.7 544.5,-119.7"/>
<text text-anchor="start" x="564.3862" y="-125.8" font-family="Helvetica,sans-Serif" font-size="11.00" fill="#000000"> &#160;</text>
</a>
</g>
</g>
<!-- policy_number_to_policy&#45;&gt;policy_number -->
<g id="edge8" class="edge">
<title>policy_number_to_policy:w&#45;&gt;policy_number:e</title>
<path fill="none" stroke="#000000" d="M394.8627,-147.7C371.2466,-147.7 360.4375,-147.7 331,-147.7"/>
<polygon fill="#000000" stroke="#000000" points="401.5,-147.7001 409.5,-151.3 405.5,-147.7 409.5,-147.7 409.5,-147.7 409.5,-147.7 405.5,-147.7 409.5,-144.1 401.5,-147.7001 401.5,-147.7001"/>
<ellipse fill="none" stroke="#000000" cx="398.3" cy="-147.7001" rx="3.2" ry="3.2"/>
</g>
</g>
</svg>
