<?xml version="1.0" encoding="UTF-8" standalone="no"?>
<!DOCTYPE svg PUBLIC "-//W3C//DTD SVG 1.1//EN"
 "http://www.w3.org/Graphics/SVG/1.1/DTD/svg11.dtd">
<!-- Generated by graphviz version 2.40.1 (20161225.0304)
 -->
<!-- Title: oneDegreeRelationshipsDiagram Pages: 1 -->
<svg width="581pt" height="372pt"
 viewBox="0.00 0.00 581.00 371.70" xmlns="http://www.w3.org/2000/svg" xmlns:xlink="http://www.w3.org/1999/xlink">
<g id="graph0" class="graph" transform="scale(1 1) rotate(0) translate(4 367.7)">
<title>oneDegreeRelationshipsDiagram</title>
<polygon fill="#ffffff" stroke="transparent" points="-4,4 -4,-367.7 577,-367.7 577,4 -4,4"/>
<text text-anchor="middle" x="72.4936" y="-7.3" font-family="Helvetica,sans-Serif" font-size="11.00" fill="#000000">Generated by SchemaSpy</text>
<!-- auth_entity -->
<g id="node1" class="node">
<title>auth_entity</title>
<g id="a_node1"><a xlink:href="../../tables/auth_entity.html" xlink:title="auth_entity" target="_top">
<polygon fill="#ffffff" stroke="transparent" points="160,-98.7 160,-254.7 339,-254.7 339,-98.7 160,-98.7"/>
<polygon fill="#f5f5f5" stroke="transparent" points="162.5,-229.7 162.5,-252.7 337.5,-252.7 337.5,-229.7 162.5,-229.7"/>
<polygon fill="none" stroke="#000000" points="162.5,-229.7 162.5,-252.7 337.5,-252.7 337.5,-229.7 162.5,-229.7"/>
<text text-anchor="start" x="167.5" y="-238.8" font-family="Helvetica,sans-Serif" font-weight="bold" font-size="11.00" fill="#000000">auth_entity</text>
<text text-anchor="start" x="302.5437" y="-237.8" font-family="Helvetica,sans-Serif" font-size="11.00" fill="#000000">[table]</text>
<polygon fill="none" stroke="#000000" points="162.5,-207.7 162.5,-229.7 247.5,-229.7 247.5,-207.7 162.5,-207.7"/>
<image xlink:href="../../images/primaryKeys.png" width="11px" height="12px" preserveAspectRatio="xMinYMin meet" x="167.5" y="-224.7"/>
<text text-anchor="start" x="182.5" y="-214.8" font-family="Helvetica,sans-Serif" font-size="11.00" fill="#000000">id</text>
<polygon fill="none" stroke="#000000" points="247.5,-207.7 247.5,-229.7 337.5,-229.7 337.5,-207.7 247.5,-207.7"/>
<text text-anchor="start" x="250.5" y="-215.4" font-family="Helvetica,sans-Serif" font-size="11.00" fill="#000000">serial[10]</text>
<polygon fill="none" stroke="#000000" points="162.5,-185.7 162.5,-207.7 247.5,-207.7 247.5,-185.7 162.5,-185.7"/>
<text text-anchor="start" x="182.5" y="-192.8" font-family="Helvetica,sans-Serif" font-size="11.00" fill="#000000">name</text>
<polygon fill="none" stroke="#000000" points="247.5,-185.7 247.5,-207.7 337.5,-207.7 337.5,-185.7 247.5,-185.7"/>
<text text-anchor="start" x="250.0043" y="-193.4" font-family="Helvetica,sans-Serif" font-size="11.00" fill="#000000">text[2147483647]</text>
<polygon fill="none" stroke="#000000" points="162.5,-163.7 162.5,-185.7 247.5,-185.7 247.5,-163.7 162.5,-163.7"/>
<text text-anchor="start" x="182.5" y="-170.8" font-family="Helvetica,sans-Serif" font-size="11.00" fill="#000000">office</text>
<polygon fill="none" stroke="#000000" points="247.5,-163.7 247.5,-185.7 337.5,-185.7 337.5,-163.7 247.5,-163.7"/>
<text text-anchor="start" x="250.0043" y="-171.4" font-family="Helvetica,sans-Serif" font-size="11.00" fill="#000000">text[2147483647]</text>
<polygon fill="#ffffff" stroke="transparent" points="162.5,-141.7 162.5,-163.7 247.5,-163.7 247.5,-141.7 162.5,-141.7"/>
<polygon fill="none" stroke="#000000" points="162.5,-141.7 162.5,-163.7 247.5,-163.7 247.5,-141.7 162.5,-141.7"/>
<image xlink:href="../../images/foreignKeys.png" width="11px" height="12px" preserveAspectRatio="xMinYMin meet" x="167.5" y="-158.7"/>
<text text-anchor="start" x="182.5" y="-148.8" font-family="Helvetica,sans-Serif" font-size="11.00" fill="#000000">place</text>
<polygon fill="none" stroke="#000000" points="247.5,-141.7 247.5,-163.7 337.5,-163.7 337.5,-141.7 247.5,-141.7"/>
<text text-anchor="start" x="250.5" y="-149.4" font-family="Helvetica,sans-Serif" font-size="11.00" fill="#000000">int4[10]</text>
<polygon fill="none" stroke="#000000" points="162.5,-119.7 162.5,-141.7 247.5,-141.7 247.5,-119.7 162.5,-119.7"/>
<text text-anchor="start" x="182.5" y="-126.8" font-family="Helvetica,sans-Serif" font-size="11.00" fill="#000000">official</text>
<polygon fill="none" stroke="#000000" points="247.5,-119.7 247.5,-141.7 337.5,-141.7 337.5,-119.7 247.5,-119.7"/>
<text text-anchor="start" x="250.0043" y="-127.4" font-family="Helvetica,sans-Serif" font-size="11.00" fill="#000000">text[2147483647]</text>
<polygon fill="#ffffff" stroke="transparent" points="162.5,-100.7 162.5,-119.7 185.5,-119.7 185.5,-100.7 162.5,-100.7"/>
<polygon fill="none" stroke="#000000" points="162.5,-100.7 162.5,-119.7 185.5,-119.7 185.5,-100.7 162.5,-100.7"/>
<text text-anchor="start" x="165.5" y="-106.8" font-family="Helvetica,sans-Serif" font-size="11.00" fill="#000000">&lt; 1</text>
<polygon fill="#ffffff" stroke="transparent" points="185.5,-100.7 185.5,-119.7 247.5,-119.7 247.5,-100.7 185.5,-100.7"/>
<polygon fill="none" stroke="#000000" points="185.5,-100.7 185.5,-119.7 247.5,-119.7 247.5,-100.7 185.5,-100.7"/>
<text text-anchor="start" x="190.7089" y="-106.8" font-family="Helvetica,sans-Serif" font-size="11.00" fill="#000000">2,901 rows</text>
<polygon fill="#ffffff" stroke="transparent" points="247.5,-100.7 247.5,-119.7 337.5,-119.7 337.5,-100.7 247.5,-100.7"/>
<polygon fill="none" stroke="#000000" points="247.5,-100.7 247.5,-119.7 337.5,-119.7 337.5,-100.7 247.5,-100.7"/>
<text text-anchor="start" x="318.9053" y="-106.8" font-family="Helvetica,sans-Serif" font-size="11.00" fill="#000000">3 &gt;</text>
<polygon fill="none" stroke="#000000" stroke-width="2" points="161,-99.7 161,-253.7 338,-253.7 338,-99.7 161,-99.7"/>
</a>
</g>
</g>
<!-- place -->
<g id="node2" class="node">
<title>place</title>
<g id="a_node2"><a xlink:href="../../tables/place.html" xlink:title="place" target="_top">
<polygon fill="#ffffff" stroke="transparent" points="8,-38.2 8,-187.2 111,-187.2 111,-38.2 8,-38.2"/>
<polygon fill="#f5f5f5" stroke="transparent" points="8.5,-163.7 8.5,-186.7 111.5,-186.7 111.5,-163.7 8.5,-163.7"/>
<polygon fill="none" stroke="#000000" points="8.5,-163.7 8.5,-186.7 111.5,-186.7 111.5,-163.7 8.5,-163.7"/>
<text text-anchor="start" x="13.5" y="-172.8" font-family="Helvetica,sans-Serif" font-weight="bold" font-size="11.00" fill="#000000">place</text>
<text text-anchor="start" x="76.5437" y="-171.8" font-family="Helvetica,sans-Serif" font-size="11.00" fill="#000000">[table]</text>
<polygon fill="none" stroke="#000000" points="8.5,-141.7 8.5,-163.7 111.5,-163.7 111.5,-141.7 8.5,-141.7"/>
<image xlink:href="../../images/primaryKeys.png" width="11px" height="12px" preserveAspectRatio="xMinYMin meet" x="13.5" y="-158.7"/>
<text text-anchor="start" x="28.5" y="-148.8" font-family="Helvetica,sans-Serif" font-size="11.00" fill="#000000">id</text>
<polygon fill="#ffffff" stroke="transparent" points="8.5,-119.7 8.5,-141.7 111.5,-141.7 111.5,-119.7 8.5,-119.7"/>
<polygon fill="none" stroke="#000000" points="8.5,-119.7 8.5,-141.7 111.5,-141.7 111.5,-119.7 8.5,-119.7"/>
<text text-anchor="start" x="28.5" y="-126.8" font-family="Helvetica,sans-Serif" font-size="11.00" fill="#000000">level</text>
<polygon fill="#ffffff" stroke="transparent" points="8.5,-97.7 8.5,-119.7 111.5,-119.7 111.5,-97.7 8.5,-97.7"/>
<polygon fill="none" stroke="#000000" points="8.5,-97.7 8.5,-119.7 111.5,-119.7 111.5,-97.7 8.5,-97.7"/>
<text text-anchor="start" x="28.5" y="-104.8" font-family="Helvetica,sans-Serif" font-size="11.00" fill="#000000">iso3</text>
<polygon fill="#ffffff" stroke="transparent" points="8.5,-75.7 8.5,-97.7 111.5,-97.7 111.5,-75.7 8.5,-75.7"/>
<polygon fill="none" stroke="#000000" points="8.5,-75.7 8.5,-97.7 111.5,-97.7 111.5,-75.7 8.5,-75.7"/>
<text text-anchor="start" x="28.5" y="-82.8" font-family="Helvetica,sans-Serif" font-size="11.00" fill="#000000">ansi_fips</text>
<polygon fill="none" stroke="#000000" points="8.5,-56.7 8.5,-75.7 111.5,-75.7 111.5,-56.7 8.5,-56.7"/>
<text text-anchor="start" x="11.5" y="-62.8" font-family="Helvetica,sans-Serif" font-size="11.00" fill="#000000">...</text>
<polygon fill="#ffffff" stroke="transparent" points="8.5,-37.7 8.5,-56.7 25.5,-56.7 25.5,-37.7 8.5,-37.7"/>
<polygon fill="none" stroke="#000000" points="8.5,-37.7 8.5,-56.7 25.5,-56.7 25.5,-37.7 8.5,-37.7"/>
<text text-anchor="start" x="11.5" y="-43.8" font-family="Helvetica,sans-Serif" font-size="11.00" fill="#000000"> &#160;</text>
<polygon fill="#ffffff" stroke="transparent" points="25.5,-37.7 25.5,-56.7 87.5,-56.7 87.5,-37.7 25.5,-37.7"/>
<polygon fill="none" stroke="#000000" points="25.5,-37.7 25.5,-56.7 87.5,-56.7 87.5,-37.7 25.5,-37.7"/>
<text text-anchor="start" x="30.7089" y="-43.8" font-family="Helvetica,sans-Serif" font-size="11.00" fill="#000000">7,645 rows</text>
<polygon fill="#ffffff" stroke="transparent" points="87.5,-37.7 87.5,-56.7 111.5,-56.7 111.5,-37.7 87.5,-37.7"/>
<polygon fill="none" stroke="#000000" points="87.5,-37.7 87.5,-56.7 111.5,-56.7 111.5,-37.7 87.5,-37.7"/>
<text text-anchor="start" x="92.9053" y="-43.8" font-family="Helvetica,sans-Serif" font-size="11.00" fill="#000000">7 &gt;</text>
</a>
</g>
</g>
<!-- auth_entity&#45;&gt;place -->
<g id="edge1" class="edge">
<title>auth_entity:w&#45;&gt;place:e</title>
<path fill="none" stroke="#000000" d="M147.776,-152.7C135.7815,-152.7 128.3229,-152.7 111.5,-152.7"/>
<polygon fill="#000000" stroke="#000000" points="154.5,-152.7001 162.5,-156.3 158.5,-152.7 162.5,-152.7 162.5,-152.7 162.5,-152.7 158.5,-152.7 162.5,-149.1 154.5,-152.7001 154.5,-152.7001"/>
<ellipse fill="none" stroke="#000000" cx="151.3" cy="-152.7001" rx="3.2" ry="3.2"/>
</g>
<!-- auth_entity_policy_number -->
<g id="node3" class="node">
<title>auth_entity_policy_number</title>
<g id="a_node3"><a xlink:href="../../tables/auth_entity_policy_number.html" xlink:title="auth_entity_policy_number" target="_top">
<polygon fill="#ffffff" stroke="transparent" points="388,-273.7 388,-359.7 565,-359.7 565,-273.7 388,-273.7"/>
<polygon fill="#f5f5f5" stroke="transparent" points="388.5,-336.7 388.5,-359.7 565.5,-359.7 565.5,-336.7 388.5,-336.7"/>
<polygon fill="none" stroke="#000000" points="388.5,-336.7 388.5,-359.7 565.5,-359.7 565.5,-336.7 388.5,-336.7"/>
<text text-anchor="start" x="393.5" y="-345.8" font-family="Helvetica,sans-Serif" font-weight="bold" font-size="11.00" fill="#000000">auth_entity_policy_number</text>
<text text-anchor="start" x="530.5437" y="-344.8" font-family="Helvetica,sans-Serif" font-size="11.00" fill="#000000">[table]</text>
<polygon fill="none" stroke="#000000" points="388.5,-314.7 388.5,-336.7 565.5,-336.7 565.5,-314.7 388.5,-314.7"/>
<image xlink:href="../../images/primaryKeys.png" width="11px" height="12px" preserveAspectRatio="xMinYMin meet" x="393.5" y="-331.7"/>
<text text-anchor="start" x="408.5" y="-321.8" font-family="Helvetica,sans-Serif" font-size="11.00" fill="#000000">auth_entity</text>
<polygon fill="none" stroke="#000000" points="388.5,-292.7 388.5,-314.7 565.5,-314.7 565.5,-292.7 388.5,-292.7"/>
<image xlink:href="../../images/primaryKeys.png" width="11px" height="12px" preserveAspectRatio="xMinYMin meet" x="393.5" y="-309.7"/>
<text text-anchor="start" x="408.5" y="-299.8" font-family="Helvetica,sans-Serif" font-size="11.00" fill="#000000">policy_number</text>
<polygon fill="#ffffff" stroke="transparent" points="388.5,-273.7 388.5,-292.7 448.5,-292.7 448.5,-273.7 388.5,-273.7"/>
<polygon fill="none" stroke="#000000" points="388.5,-273.7 388.5,-292.7 448.5,-292.7 448.5,-273.7 388.5,-273.7"/>
<text text-anchor="start" x="391.5" y="-279.8" font-family="Helvetica,sans-Serif" font-size="11.00" fill="#000000">&lt; 2</text>
<polygon fill="#ffffff" stroke="transparent" points="448.5,-273.7 448.5,-292.7 533.5,-292.7 533.5,-273.7 448.5,-273.7"/>
<polygon fill="none" stroke="#000000" points="448.5,-273.7 448.5,-292.7 533.5,-292.7 533.5,-273.7 448.5,-273.7"/>
<text text-anchor="start" x="470.594" y="-279.8" font-family="Helvetica,sans-Serif" font-size="11.00" fill="#000000">18,291 rows</text>
<polygon fill="#ffffff" stroke="transparent" points="533.5,-273.7 533.5,-292.7 565.5,-292.7 565.5,-273.7 533.5,-273.7"/>
<polygon fill="none" stroke="#000000" points="533.5,-273.7 533.5,-292.7 565.5,-292.7 565.5,-273.7 533.5,-273.7"/>
<text text-anchor="start" x="556.3862" y="-279.8" font-family="Helvetica,sans-Serif" font-size="11.00" fill="#000000"> &#160;</text>
</a>
</g>
</g>
<!-- auth_entity_policy_number&#45;&gt;auth_entity -->
<g id="edge2" class="edge">
<title>auth_entity_policy_number:w&#45;&gt;auth_entity:e</title>
<path fill="none" stroke="#000000" d="M374.4064,-321.8918C346.7616,-302.8309 384.2134,-218.7 337.5,-218.7"/>
<polygon fill="#000000" stroke="#000000" points="380.777,-323.6131 387.5609,-329.1754 384.6385,-324.6566 388.5,-325.7 388.5,-325.7 388.5,-325.7 384.6385,-324.6566 389.4391,-322.2246 380.777,-323.6131 380.777,-323.6131"/>
<ellipse fill="none" stroke="#000000" cx="377.6878" cy="-322.7784" rx="3.2" ry="3.2"/>
</g>
<!-- auth_entity_to_plan -->
<g id="node4" class="node">
<title>auth_entity_to_plan</title>
<g id="a_node4"><a xlink:href="../../tables/auth_entity_to_plan.html" xlink:title="auth_entity_to_plan" target="_top">
<polygon fill="#ffffff" stroke="transparent" points="407.5,-166.7 407.5,-252.7 545.5,-252.7 545.5,-166.7 407.5,-166.7"/>
<polygon fill="#f5f5f5" stroke="transparent" points="407.5,-229.7 407.5,-252.7 545.5,-252.7 545.5,-229.7 407.5,-229.7"/>
<polygon fill="none" stroke="#000000" points="407.5,-229.7 407.5,-252.7 545.5,-252.7 545.5,-229.7 407.5,-229.7"/>
<text text-anchor="start" x="412.0059" y="-238.8" font-family="Helvetica,sans-Serif" font-weight="bold" font-size="11.00" fill="#000000">auth_entity_to_plan</text>
<text text-anchor="start" x="511.0219" y="-237.8" font-family="Helvetica,sans-Serif" font-size="11.00" fill="#000000">[table]</text>
<polygon fill="none" stroke="#000000" points="407.5,-207.7 407.5,-229.7 545.5,-229.7 545.5,-207.7 407.5,-207.7"/>
<image xlink:href="../../images/primaryKeys.png" width="11px" height="12px" preserveAspectRatio="xMinYMin meet" x="412.5" y="-224.7"/>
<text text-anchor="start" x="429.5" y="-214.8" font-family="Helvetica,sans-Serif" font-size="11.00" fill="#000000">auth_entity</text>
<polygon fill="none" stroke="#000000" points="407.5,-185.7 407.5,-207.7 545.5,-207.7 545.5,-185.7 407.5,-185.7"/>
<image xlink:href="../../images/primaryKeys.png" width="11px" height="12px" preserveAspectRatio="xMinYMin meet" x="412.5" y="-202.7"/>
<text text-anchor="start" x="429.5" y="-192.8" font-family="Helvetica,sans-Serif" font-size="11.00" fill="#000000">plan</text>
<polygon fill="#ffffff" stroke="transparent" points="407.5,-166.7 407.5,-185.7 455.5,-185.7 455.5,-166.7 407.5,-166.7"/>
<polygon fill="none" stroke="#000000" points="407.5,-166.7 407.5,-185.7 455.5,-185.7 455.5,-166.7 407.5,-166.7"/>
<text text-anchor="start" x="410.5" y="-172.8" font-family="Helvetica,sans-Serif" font-size="11.00" fill="#000000">&lt; 2</text>
<polygon fill="#ffffff" stroke="transparent" points="455.5,-166.7 455.5,-185.7 519.5,-185.7 519.5,-166.7 455.5,-166.7"/>
<polygon fill="none" stroke="#000000" points="455.5,-166.7 455.5,-185.7 519.5,-185.7 519.5,-166.7 455.5,-166.7"/>
<text text-anchor="start" x="471.8807" y="-172.8" font-family="Helvetica,sans-Serif" font-size="11.00" fill="#000000">493 rows</text>
<polygon fill="#ffffff" stroke="transparent" points="519.5,-166.7 519.5,-185.7 545.5,-185.7 545.5,-166.7 519.5,-166.7"/>
<polygon fill="none" stroke="#000000" points="519.5,-166.7 519.5,-185.7 545.5,-185.7 545.5,-166.7 519.5,-166.7"/>
<text text-anchor="start" x="536.3862" y="-172.8" font-family="Helvetica,sans-Serif" font-size="11.00" fill="#000000"> &#160;</text>
</a>
</g>
</g>
<!-- auth_entity_to_plan&#45;&gt;auth_entity -->
<g id="edge3" class="edge">
<title>auth_entity_to_plan:w&#45;&gt;auth_entity:e</title>
<path fill="none" stroke="#000000" d="M393.0032,-218.7C372.9335,-218.7 363.1424,-218.7 337.5,-218.7"/>
<polygon fill="#000000" stroke="#000000" points="399.5,-218.7001 407.5,-222.3 403.5,-218.7 407.5,-218.7 407.5,-218.7 407.5,-218.7 403.5,-218.7 407.5,-215.1 399.5,-218.7001 399.5,-218.7001"/>
<ellipse fill="none" stroke="#000000" cx="396.3" cy="-218.7001" rx="3.2" ry="3.2"/>
</g>
<!-- auth_entity_to_policy -->
<g id="node5" class="node">
<title>auth_entity_to_policy</title>
<g id="a_node5"><a xlink:href="../../tables/auth_entity_to_policy.html" xlink:title="auth_entity_to_policy" target="_top">
<polygon fill="#ffffff" stroke="transparent" points="403.5,-59.7 403.5,-145.7 549.5,-145.7 549.5,-59.7 403.5,-59.7"/>
<polygon fill="#f5f5f5" stroke="transparent" points="403.5,-122.7 403.5,-145.7 549.5,-145.7 549.5,-122.7 403.5,-122.7"/>
<polygon fill="none" stroke="#000000" points="403.5,-122.7 403.5,-145.7 549.5,-145.7 549.5,-122.7 403.5,-122.7"/>
<text text-anchor="start" x="408.3429" y="-131.8" font-family="Helvetica,sans-Serif" font-weight="bold" font-size="11.00" fill="#000000">auth_entity_to_policy</text>
<text text-anchor="start" x="515.0219" y="-130.8" font-family="Helvetica,sans-Serif" font-size="11.00" fill="#000000">[table]</text>
<polygon fill="none" stroke="#000000" points="403.5,-100.7 403.5,-122.7 549.5,-122.7 549.5,-100.7 403.5,-100.7"/>
<image xlink:href="../../images/primaryKeys.png" width="11px" height="12px" preserveAspectRatio="xMinYMin meet" x="408.5" y="-117.7"/>
<text text-anchor="start" x="424.5" y="-107.8" font-family="Helvetica,sans-Serif" font-size="11.00" fill="#000000">auth_entity</text>
<polygon fill="none" stroke="#000000" points="403.5,-78.7 403.5,-100.7 549.5,-100.7 549.5,-78.7 403.5,-78.7"/>
<image xlink:href="../../images/primaryKeys.png" width="11px" height="12px" preserveAspectRatio="xMinYMin meet" x="408.5" y="-95.7"/>
<text text-anchor="start" x="424.5" y="-85.8" font-family="Helvetica,sans-Serif" font-size="11.00" fill="#000000">policy</text>
<polygon fill="#ffffff" stroke="transparent" points="403.5,-59.7 403.5,-78.7 448.5,-78.7 448.5,-59.7 403.5,-59.7"/>
<polygon fill="none" stroke="#000000" points="403.5,-59.7 403.5,-78.7 448.5,-78.7 448.5,-59.7 403.5,-59.7"/>
<text text-anchor="start" x="406.5" y="-65.8" font-family="Helvetica,sans-Serif" font-size="11.00" fill="#000000">&lt; 2</text>
<polygon fill="#ffffff" stroke="transparent" points="448.5,-59.7 448.5,-78.7 525.5,-78.7 525.5,-59.7 448.5,-59.7"/>
<polygon fill="none" stroke="#000000" points="448.5,-59.7 448.5,-78.7 525.5,-78.7 525.5,-59.7 448.5,-59.7"/>
<text text-anchor="start" x="462.594" y="-65.8" font-family="Helvetica,sans-Serif" font-size="11.00" fill="#000000">41,978 rows</text>
<polygon fill="#ffffff" stroke="transparent" points="525.5,-59.7 525.5,-78.7 549.5,-78.7 549.5,-59.7 525.5,-59.7"/>
<polygon fill="none" stroke="#000000" points="525.5,-59.7 525.5,-78.7 549.5,-78.7 549.5,-59.7 525.5,-59.7"/>
<text text-anchor="start" x="540.3862" y="-65.8" font-family="Helvetica,sans-Serif" font-size="11.00" fill="#000000"> &#160;</text>
</a>
</g>
</g>
<!-- auth_entity_to_policy&#45;&gt;auth_entity -->
<g id="edge4" class="edge">
<title>auth_entity_to_policy:w&#45;&gt;auth_entity:e</title>
<path fill="none" stroke="#000000" d="M389.4075,-114.7869C355.8699,-132.3307 387.6999,-218.7 337.5,-218.7"/>
<polygon fill="#000000" stroke="#000000" points="395.6853,-113.4118 404.2703,-115.2166 399.5926,-112.5559 403.5,-111.7 403.5,-111.7 403.5,-111.7 399.5926,-112.5559 402.7297,-108.1834 395.6853,-113.4118 395.6853,-113.4118"/>
<ellipse fill="none" stroke="#000000" cx="392.5594" cy="-114.0966" rx="3.2" ry="3.2"/>
</g>
</g>
</svg>
