<?xml version="1.0" encoding="UTF-8" standalone="no"?>
<!DOCTYPE svg PUBLIC "-//W3C//DTD SVG 1.1//EN"
 "http://www.w3.org/Graphics/SVG/1.1/DTD/svg11.dtd">
<!-- Generated by graphviz version 2.40.1 (20161225.0304)
 -->
<!-- Title: twoDegreesRelationshipsDiagram Pages: 1 -->
<svg width="583pt" height="469pt"
 viewBox="0.00 0.00 583.00 469.20" xmlns="http://www.w3.org/2000/svg" xmlns:xlink="http://www.w3.org/1999/xlink">
<g id="graph0" class="graph" transform="scale(1 1) rotate(0) translate(4 465.2)">
<title>twoDegreesRelationshipsDiagram</title>
<polygon fill="#ffffff" stroke="transparent" points="-4,4 -4,-465.2 579,-465.2 579,4 -4,4"/>
<text text-anchor="middle" x="72.4936" y="-7.3" font-family="Helvetica,sans-Serif" font-size="11.00" fill="#000000">Generated by SchemaSpy</text>
<!-- auth_entity -->
<g id="node1" class="node">
<title>auth_entity</title>
<g id="a_node1"><a xlink:href="../../tables/auth_entity.html" xlink:title="auth_entity" target="_top">
<polygon fill="#ffffff" stroke="transparent" points="196,-264.2 196,-369.2 297,-369.2 297,-264.2 196,-264.2"/>
<polygon fill="#f5f5f5" stroke="transparent" points="196.5,-345.7 196.5,-368.7 297.5,-368.7 297.5,-345.7 196.5,-345.7"/>
<polygon fill="none" stroke="#000000" points="196.5,-345.7 196.5,-368.7 297.5,-368.7 297.5,-345.7 196.5,-345.7"/>
<text text-anchor="start" x="201.5" y="-354.8" font-family="Helvetica,sans-Serif" font-weight="bold" font-size="11.00" fill="#000000">auth_entity</text>
<text text-anchor="start" x="262.5437" y="-353.8" font-family="Helvetica,sans-Serif" font-size="11.00" fill="#000000">[table]</text>
<polygon fill="none" stroke="#000000" points="196.5,-323.7 196.5,-345.7 297.5,-345.7 297.5,-323.7 196.5,-323.7"/>
<image xlink:href="../../images/primaryKeys.png" width="11px" height="12px" preserveAspectRatio="xMinYMin meet" x="201.5" y="-340.7"/>
<text text-anchor="start" x="224.5" y="-330.8" font-family="Helvetica,sans-Serif" font-size="11.00" fill="#000000">id</text>
<polygon fill="#ffffff" stroke="transparent" points="196.5,-301.7 196.5,-323.7 297.5,-323.7 297.5,-301.7 196.5,-301.7"/>
<polygon fill="none" stroke="#000000" points="196.5,-301.7 196.5,-323.7 297.5,-323.7 297.5,-301.7 196.5,-301.7"/>
<image xlink:href="../../images/foreignKeys.png" width="11px" height="12px" preserveAspectRatio="xMinYMin meet" x="201.5" y="-318.7"/>
<text text-anchor="start" x="224.5" y="-308.8" font-family="Helvetica,sans-Serif" font-size="11.00" fill="#000000">place</text>
<polygon fill="none" stroke="#000000" points="196.5,-282.7 196.5,-301.7 297.5,-301.7 297.5,-282.7 196.5,-282.7"/>
<text text-anchor="start" x="199.5" y="-288.8" font-family="Helvetica,sans-Serif" font-size="11.00" fill="#000000">...</text>
<polygon fill="#ffffff" stroke="transparent" points="196.5,-263.7 196.5,-282.7 217.5,-282.7 217.5,-263.7 196.5,-263.7"/>
<polygon fill="none" stroke="#000000" points="196.5,-263.7 196.5,-282.7 217.5,-282.7 217.5,-263.7 196.5,-263.7"/>
<text text-anchor="start" x="199.2027" y="-269.8" font-family="Helvetica,sans-Serif" font-size="11.00" fill="#000000">&lt; 1</text>
<polygon fill="#ffffff" stroke="transparent" points="217.5,-263.7 217.5,-282.7 276.5,-282.7 276.5,-263.7 217.5,-263.7"/>
<polygon fill="none" stroke="#000000" points="217.5,-263.7 217.5,-282.7 276.5,-282.7 276.5,-263.7 217.5,-263.7"/>
<text text-anchor="start" x="220.1045" y="-269.8" font-family="Helvetica,sans-Serif" font-size="11.00" fill="#000000">2,901 rows</text>
<polygon fill="#ffffff" stroke="transparent" points="276.5,-263.7 276.5,-282.7 297.5,-282.7 297.5,-263.7 276.5,-263.7"/>
<polygon fill="none" stroke="#000000" points="276.5,-263.7 276.5,-282.7 297.5,-282.7 297.5,-263.7 276.5,-263.7"/>
<text text-anchor="start" x="279.2027" y="-269.8" font-family="Helvetica,sans-Serif" font-size="11.00" fill="#000000">3 &gt;</text>
</a>
</g>
</g>
<!-- place -->
<g id="node2" class="node">
<title>place</title>
<g id="a_node2"><a xlink:href="../../tables/place.html" xlink:title="place" target="_top">
<polygon fill="#ffffff" stroke="transparent" points="11,-164.2 11,-225.2 103,-225.2 103,-164.2 11,-164.2"/>
<polygon fill="#f5f5f5" stroke="transparent" points="11,-201.7 11,-224.7 103,-224.7 103,-201.7 11,-201.7"/>
<polygon fill="none" stroke="#000000" points="11,-201.7 11,-224.7 103,-224.7 103,-201.7 11,-201.7"/>
<text text-anchor="start" x="16" y="-210.8" font-family="Helvetica,sans-Serif" font-weight="bold" font-size="11.00" fill="#000000">place</text>
<text text-anchor="start" x="68.0437" y="-209.8" font-family="Helvetica,sans-Serif" font-size="11.00" fill="#000000">[table]</text>
<polygon fill="none" stroke="#000000" points="11,-182.7 11,-201.7 103,-201.7 103,-182.7 11,-182.7"/>
<text text-anchor="start" x="14" y="-188.8" font-family="Helvetica,sans-Serif" font-size="11.00" fill="#000000">...</text>
<polygon fill="#ffffff" stroke="transparent" points="11,-163.7 11,-182.7 23,-182.7 23,-163.7 11,-163.7"/>
<polygon fill="none" stroke="#000000" points="11,-163.7 11,-182.7 23,-182.7 23,-163.7 11,-163.7"/>
<text text-anchor="start" x="13.9431" y="-169.8" font-family="Helvetica,sans-Serif" font-size="11.00" fill="#000000"> &#160;</text>
<polygon fill="#ffffff" stroke="transparent" points="23,-163.7 23,-182.7 82,-182.7 82,-163.7 23,-163.7"/>
<polygon fill="none" stroke="#000000" points="23,-163.7 23,-182.7 82,-182.7 82,-163.7 23,-163.7"/>
<text text-anchor="start" x="25.6045" y="-169.8" font-family="Helvetica,sans-Serif" font-size="11.00" fill="#000000">7,645 rows</text>
<polygon fill="#ffffff" stroke="transparent" points="82,-163.7 82,-182.7 103,-182.7 103,-163.7 82,-163.7"/>
<polygon fill="none" stroke="#000000" points="82,-163.7 82,-182.7 103,-182.7 103,-163.7 82,-163.7"/>
<text text-anchor="start" x="84.7027" y="-169.8" font-family="Helvetica,sans-Serif" font-size="11.00" fill="#000000">7 &gt;</text>
</a>
</g>
</g>
<!-- auth_entity&#45;&gt;place -->
<g id="edge1" class="edge">
<title>auth_entity:w&#45;&gt;place:e</title>
<path fill="none" stroke="#000000" d="M184.7418,-303.6053C160.7147,-275.4654 117.1367,-191.7 103,-191.7"/>
<polygon fill="#000000" stroke="#000000" points="190.172,-307.8054 194.2974,-315.5476 193.336,-310.2527 196.5,-312.7 196.5,-312.7 196.5,-312.7 193.336,-310.2527 198.7026,-309.8524 190.172,-307.8054 190.172,-307.8054"/>
<ellipse fill="none" stroke="#000000" cx="187.6408" cy="-305.8476" rx="3.2" ry="3.2"/>
</g>
<!-- auth_entity_policy_number -->
<g id="node3" class="node">
<title>auth_entity_policy_number</title>
<g id="a_node3"><a xlink:href="../../tables/auth_entity_policy_number.html" xlink:title="auth_entity_policy_number" target="_top">
<polygon fill="#ffffff" stroke="transparent" points="390,-314.2 390,-375.2 564,-375.2 564,-314.2 390,-314.2"/>
<polygon fill="#f5f5f5" stroke="transparent" points="390,-351.7 390,-374.7 564,-374.7 564,-351.7 390,-351.7"/>
<polygon fill="none" stroke="#000000" points="390,-351.7 390,-374.7 564,-374.7 564,-351.7 390,-351.7"/>
<text text-anchor="start" x="394.7871" y="-360.8" font-family="Helvetica,sans-Serif" font-weight="bold" font-size="11.00" fill="#000000">auth_entity_policy_number</text>
<text text-anchor="start" x="529.5219" y="-359.8" font-family="Helvetica,sans-Serif" font-size="11.00" fill="#000000">[table]</text>
<polygon fill="none" stroke="#000000" points="390,-332.7 390,-351.7 564,-351.7 564,-332.7 390,-332.7"/>
<text text-anchor="start" x="393" y="-338.8" font-family="Helvetica,sans-Serif" font-size="11.00" fill="#000000">...</text>
<polygon fill="#ffffff" stroke="transparent" points="390,-313.7 390,-332.7 449,-332.7 449,-313.7 390,-313.7"/>
<polygon fill="none" stroke="#000000" points="390,-313.7 390,-332.7 449,-332.7 449,-313.7 390,-313.7"/>
<text text-anchor="start" x="393" y="-319.8" font-family="Helvetica,sans-Serif" font-size="11.00" fill="#000000">&lt; 2</text>
<polygon fill="#ffffff" stroke="transparent" points="449,-313.7 449,-332.7 533,-332.7 533,-313.7 449,-313.7"/>
<polygon fill="none" stroke="#000000" points="449,-313.7 449,-332.7 533,-332.7 533,-313.7 449,-313.7"/>
<text text-anchor="start" x="470.094" y="-319.8" font-family="Helvetica,sans-Serif" font-size="11.00" fill="#000000">18,291 rows</text>
<polygon fill="#ffffff" stroke="transparent" points="533,-313.7 533,-332.7 564,-332.7 564,-313.7 533,-313.7"/>
<polygon fill="none" stroke="#000000" points="533,-313.7 533,-332.7 564,-332.7 564,-313.7 533,-313.7"/>
<text text-anchor="start" x="554.8862" y="-319.8" font-family="Helvetica,sans-Serif" font-size="11.00" fill="#000000"> &#160;</text>
</a>
</g>
</g>
<!-- auth_entity_policy_number&#45;&gt;auth_entity -->
<g id="edge2" class="edge">
<title>auth_entity_policy_number:w&#45;&gt;auth_entity:e</title>
<path fill="none" stroke="#000000" d="M375.4771,-341.381C345.664,-340.0116 333.414,-334.7 297.5,-334.7"/>
<polygon fill="#000000" stroke="#000000" points="382.0019,-341.5243 389.9209,-345.2991 386.001,-341.6121 390,-341.7 390,-341.7 390,-341.7 386.001,-341.6121 390.0791,-338.1009 382.0019,-341.5243 382.0019,-341.5243"/>
<ellipse fill="none" stroke="#000000" cx="378.8027" cy="-341.454" rx="3.2" ry="3.2"/>
</g>
<!-- auth_entity_to_plan -->
<g id="node4" class="node">
<title>auth_entity_to_plan</title>
<g id="a_node4"><a xlink:href="../../tables/auth_entity_to_plan.html" xlink:title="auth_entity_to_plan" target="_top">
<polygon fill="#ffffff" stroke="transparent" points="387,-202.7 387,-292.7 567,-292.7 567,-202.7 387,-202.7"/>
<polygon fill="#f5f5f5" stroke="transparent" points="389,-267.7 389,-290.7 565,-290.7 565,-267.7 389,-267.7"/>
<polygon fill="none" stroke="#000000" points="389,-267.7 389,-290.7 565,-290.7 565,-267.7 389,-267.7"/>
<text text-anchor="start" x="394" y="-276.8" font-family="Helvetica,sans-Serif" font-weight="bold" font-size="11.00" fill="#000000">auth_entity_to_plan</text>
<text text-anchor="start" x="530.0437" y="-275.8" font-family="Helvetica,sans-Serif" font-size="11.00" fill="#000000">[table]</text>
<polygon fill="none" stroke="#000000" points="389,-245.7 389,-267.7 523,-267.7 523,-245.7 389,-245.7"/>
<image xlink:href="../../images/primaryKeys.png" width="11px" height="12px" preserveAspectRatio="xMinYMin meet" x="394" y="-262.7"/>
<text text-anchor="start" x="409" y="-252.8" font-family="Helvetica,sans-Serif" font-size="11.00" fill="#000000">auth_entity</text>
<polygon fill="none" stroke="#000000" points="523,-245.7 523,-267.7 565,-267.7 565,-245.7 523,-245.7"/>
<text text-anchor="start" x="525.9644" y="-253.4" font-family="Helvetica,sans-Serif" font-size="11.00" fill="#000000">int4[10]</text>
<polygon fill="none" stroke="#000000" points="389,-223.7 389,-245.7 523,-245.7 523,-223.7 389,-223.7"/>
<image xlink:href="../../images/primaryKeys.png" width="11px" height="12px" preserveAspectRatio="xMinYMin meet" x="394" y="-240.7"/>
<text text-anchor="start" x="409" y="-230.8" font-family="Helvetica,sans-Serif" font-size="11.00" fill="#000000">plan</text>
<polygon fill="none" stroke="#000000" points="523,-223.7 523,-245.7 565,-245.7 565,-223.7 523,-223.7"/>
<text text-anchor="start" x="525.9644" y="-231.4" font-family="Helvetica,sans-Serif" font-size="11.00" fill="#000000">int4[10]</text>
<polygon fill="#ffffff" stroke="transparent" points="389,-204.7 389,-223.7 441,-223.7 441,-204.7 389,-204.7"/>
<polygon fill="none" stroke="#000000" points="389,-204.7 389,-223.7 441,-223.7 441,-204.7 389,-204.7"/>
<text text-anchor="start" x="392" y="-210.8" font-family="Helvetica,sans-Serif" font-size="11.00" fill="#000000">&lt; 2</text>
<polygon fill="#ffffff" stroke="transparent" points="441,-204.7 441,-223.7 523,-223.7 523,-204.7 441,-204.7"/>
<polygon fill="none" stroke="#000000" points="441,-204.7 441,-223.7 523,-223.7 523,-204.7 441,-204.7"/>
<text text-anchor="start" x="475.3807" y="-210.8" font-family="Helvetica,sans-Serif" font-size="11.00" fill="#000000">493 rows</text>
<polygon fill="#ffffff" stroke="transparent" points="523,-204.7 523,-223.7 565,-223.7 565,-204.7 523,-204.7"/>
<polygon fill="none" stroke="#000000" points="523,-204.7 523,-223.7 565,-223.7 565,-204.7 523,-204.7"/>
<text text-anchor="start" x="546.4053" y="-210.8" font-family="Helvetica,sans-Serif" font-size="11.00" fill="#000000">0 &gt;</text>
<polygon fill="none" stroke="#000000" stroke-width="2" points="388,-203.7 388,-291.7 566,-291.7 566,-203.7 388,-203.7"/>
</a>
</g>
</g>
<!-- auth_entity_to_plan&#45;&gt;auth_entity -->
<g id="edge3" class="edge">
<title>auth_entity_to_plan:w&#45;&gt;auth_entity:e</title>
<path fill="none" stroke="#000000" d="M374.7035,-258.9503C337.9758,-271.7392 345.5102,-334.7 297.5,-334.7"/>
<polygon fill="#000000" stroke="#000000" points="381.0973,-257.9439 389.5598,-260.2562 385.0486,-257.322 389,-256.7 389,-256.7 389,-256.7 385.0486,-257.322 388.4402,-253.1438 381.0973,-257.9439 381.0973,-257.9439"/>
<ellipse fill="none" stroke="#000000" cx="377.9362" cy="-258.4415" rx="3.2" ry="3.2"/>
</g>
<!-- plan -->
<g id="node5" class="node">
<title>plan</title>
<g id="a_node5"><a xlink:href="../../tables/plan.html" xlink:title="plan" target="_top">
<polygon fill="#ffffff" stroke="transparent" points="155,-131.2 155,-236.2 338,-236.2 338,-131.2 155,-131.2"/>
<polygon fill="#f5f5f5" stroke="transparent" points="155.5,-212.7 155.5,-235.7 338.5,-235.7 338.5,-212.7 155.5,-212.7"/>
<polygon fill="none" stroke="#000000" points="155.5,-212.7 155.5,-235.7 338.5,-235.7 338.5,-212.7 155.5,-212.7"/>
<text text-anchor="start" x="160.5" y="-221.8" font-family="Helvetica,sans-Serif" font-weight="bold" font-size="11.00" fill="#000000">plan</text>
<text text-anchor="start" x="303.5437" y="-220.8" font-family="Helvetica,sans-Serif" font-size="11.00" fill="#000000">[table]</text>
<polygon fill="none" stroke="#000000" points="155.5,-190.7 155.5,-212.7 338.5,-212.7 338.5,-190.7 155.5,-190.7"/>
<image xlink:href="../../images/primaryKeys.png" width="11px" height="12px" preserveAspectRatio="xMinYMin meet" x="160.5" y="-207.7"/>
<text text-anchor="start" x="175.5" y="-197.8" font-family="Helvetica,sans-Serif" font-size="11.00" fill="#000000">id</text>
<polygon fill="#ffffff" stroke="transparent" points="155.5,-168.7 155.5,-190.7 338.5,-190.7 338.5,-168.7 155.5,-168.7"/>
<polygon fill="none" stroke="#000000" points="155.5,-168.7 155.5,-190.7 338.5,-190.7 338.5,-168.7 155.5,-168.7"/>
<image xlink:href="../../images/foreignKeys.png" width="11px" height="12px" preserveAspectRatio="xMinYMin meet" x="160.5" y="-185.7"/>
<text text-anchor="start" x="175.5" y="-175.8" font-family="Helvetica,sans-Serif" font-size="11.00" fill="#000000">policy</text>
<polygon fill="none" stroke="#000000" points="155.5,-149.7 155.5,-168.7 338.5,-168.7 338.5,-149.7 155.5,-149.7"/>
<text text-anchor="start" x="158.5" y="-155.8" font-family="Helvetica,sans-Serif" font-size="11.00" fill="#000000">...</text>
<polygon fill="#ffffff" stroke="transparent" points="155.5,-130.7 155.5,-149.7 221.5,-149.7 221.5,-130.7 155.5,-130.7"/>
<polygon fill="none" stroke="#000000" points="155.5,-130.7 155.5,-149.7 221.5,-149.7 221.5,-130.7 155.5,-130.7"/>
<text text-anchor="start" x="158.5" y="-136.8" font-family="Helvetica,sans-Serif" font-size="11.00" fill="#000000">&lt; 1</text>
<polygon fill="#ffffff" stroke="transparent" points="221.5,-130.7 221.5,-149.7 294.5,-149.7 294.5,-130.7 221.5,-130.7"/>
<polygon fill="none" stroke="#000000" points="221.5,-130.7 221.5,-149.7 294.5,-149.7 294.5,-130.7 221.5,-130.7"/>
<text text-anchor="start" x="246.8807" y="-136.8" font-family="Helvetica,sans-Serif" font-size="11.00" fill="#000000">493 rows</text>
<polygon fill="#ffffff" stroke="transparent" points="294.5,-130.7 294.5,-149.7 338.5,-149.7 338.5,-130.7 294.5,-130.7"/>
<polygon fill="none" stroke="#000000" points="294.5,-130.7 294.5,-149.7 338.5,-149.7 338.5,-130.7 294.5,-130.7"/>
<text text-anchor="start" x="319.9053" y="-136.8" font-family="Helvetica,sans-Serif" font-size="11.00" fill="#000000">3 &gt;</text>
</a>
</g>
</g>
<!-- auth_entity_to_plan&#45;&gt;plan -->
<g id="edge4" class="edge">
<title>auth_entity_to_plan:w&#45;&gt;plan:e</title>
<path fill="none" stroke="#000000" d="M375.0755,-230.6536C362.1224,-221.8416 359.4466,-201.7 338.5,-201.7"/>
<polygon fill="#000000" stroke="#000000" points="381.3178,-232.4675 387.9954,-238.157 385.1589,-233.5838 389,-234.7 389,-234.7 389,-234.7 385.1589,-233.5838 390.0046,-231.243 381.3178,-232.4675 381.3178,-232.4675"/>
<ellipse fill="none" stroke="#000000" cx="378.2449" cy="-231.5745" rx="3.2" ry="3.2"/>
</g>
<!-- policy -->
<g id="node7" class="node">
<title>policy</title>
<g id="a_node7"><a xlink:href="../../tables/policy.html" xlink:title="policy" target="_top">
<polygon fill="#ffffff" stroke="transparent" points="8,-295.2 8,-356.2 106,-356.2 106,-295.2 8,-295.2"/>
<polygon fill="#f5f5f5" stroke="transparent" points="8,-332.7 8,-355.7 106,-355.7 106,-332.7 8,-332.7"/>
<polygon fill="none" stroke="#000000" points="8,-332.7 8,-355.7 106,-355.7 106,-332.7 8,-332.7"/>
<text text-anchor="start" x="13" y="-341.8" font-family="Helvetica,sans-Serif" font-weight="bold" font-size="11.00" fill="#000000">policy</text>
<text text-anchor="start" x="71.0437" y="-340.8" font-family="Helvetica,sans-Serif" font-size="11.00" fill="#000000">[table]</text>
<polygon fill="none" stroke="#000000" points="8,-313.7 8,-332.7 106,-332.7 106,-313.7 8,-313.7"/>
<text text-anchor="start" x="11" y="-319.8" font-family="Helvetica,sans-Serif" font-size="11.00" fill="#000000">...</text>
<polygon fill="#ffffff" stroke="transparent" points="8,-294.7 8,-313.7 20,-313.7 20,-294.7 8,-294.7"/>
<polygon fill="none" stroke="#000000" points="8,-294.7 8,-313.7 20,-313.7 20,-294.7 8,-294.7"/>
<text text-anchor="start" x="10.9431" y="-300.8" font-family="Helvetica,sans-Serif" font-size="11.00" fill="#000000"> &#160;</text>
<polygon fill="#ffffff" stroke="transparent" points="20,-294.7 20,-313.7 85,-313.7 85,-294.7 20,-294.7"/>
<polygon fill="none" stroke="#000000" points="20,-294.7 20,-313.7 85,-313.7 85,-294.7 20,-294.7"/>
<text text-anchor="start" x="22.547" y="-300.8" font-family="Helvetica,sans-Serif" font-size="11.00" fill="#000000">40,950 rows</text>
<polygon fill="#ffffff" stroke="transparent" points="85,-294.7 85,-313.7 106,-313.7 106,-294.7 85,-294.7"/>
<polygon fill="none" stroke="#000000" points="85,-294.7 85,-313.7 106,-313.7 106,-294.7 85,-294.7"/>
<text text-anchor="start" x="87.7027" y="-300.8" font-family="Helvetica,sans-Serif" font-size="11.00" fill="#000000">8 &gt;</text>
</a>
</g>
</g>
<!-- plan&#45;&gt;policy -->
<g id="edge10" class="edge">
<title>plan:w&#45;&gt;policy:e</title>
<path fill="none" stroke="#000000" d="M141.341,-182.6868C101.7312,-203.222 167.4758,-322.7 106,-322.7"/>
<polygon fill="#000000" stroke="#000000" points="147.6723,-181.3513 156.2431,-183.2225 151.5861,-180.5256 155.5,-179.7 155.5,-179.7 155.5,-179.7 151.5861,-180.5256 154.7569,-176.1775 147.6723,-181.3513 147.6723,-181.3513"/>
<ellipse fill="none" stroke="#000000" cx="144.5412" cy="-182.0118" rx="3.2" ry="3.2"/>
</g>
<!-- auth_entity_to_policy -->
<g id="node6" class="node">
<title>auth_entity_to_policy</title>
<g id="a_node6"><a xlink:href="../../tables/auth_entity_to_policy.html" xlink:title="auth_entity_to_policy" target="_top">
<polygon fill="#ffffff" stroke="transparent" points="404,-396.2 404,-457.2 550,-457.2 550,-396.2 404,-396.2"/>
<polygon fill="#f5f5f5" stroke="transparent" points="404,-433.7 404,-456.7 550,-456.7 550,-433.7 404,-433.7"/>
<polygon fill="none" stroke="#000000" points="404,-433.7 404,-456.7 550,-456.7 550,-433.7 404,-433.7"/>
<text text-anchor="start" x="408.8429" y="-442.8" font-family="Helvetica,sans-Serif" font-weight="bold" font-size="11.00" fill="#000000">auth_entity_to_policy</text>
<text text-anchor="start" x="515.5219" y="-441.8" font-family="Helvetica,sans-Serif" font-size="11.00" fill="#000000">[table]</text>
<polygon fill="none" stroke="#000000" points="404,-414.7 404,-433.7 550,-433.7 550,-414.7 404,-414.7"/>
<text text-anchor="start" x="407" y="-420.8" font-family="Helvetica,sans-Serif" font-size="11.00" fill="#000000">...</text>
<polygon fill="#ffffff" stroke="transparent" points="404,-395.7 404,-414.7 449,-414.7 449,-395.7 404,-395.7"/>
<polygon fill="none" stroke="#000000" points="404,-395.7 404,-414.7 449,-414.7 449,-395.7 404,-395.7"/>
<text text-anchor="start" x="407" y="-401.8" font-family="Helvetica,sans-Serif" font-size="11.00" fill="#000000">&lt; 2</text>
<polygon fill="#ffffff" stroke="transparent" points="449,-395.7 449,-414.7 526,-414.7 526,-395.7 449,-395.7"/>
<polygon fill="none" stroke="#000000" points="449,-395.7 449,-414.7 526,-414.7 526,-395.7 449,-395.7"/>
<text text-anchor="start" x="463.094" y="-401.8" font-family="Helvetica,sans-Serif" font-size="11.00" fill="#000000">41,978 rows</text>
<polygon fill="#ffffff" stroke="transparent" points="526,-395.7 526,-414.7 550,-414.7 550,-395.7 526,-395.7"/>
<polygon fill="none" stroke="#000000" points="526,-395.7 526,-414.7 550,-414.7 550,-395.7 526,-395.7"/>
<text text-anchor="start" x="540.8862" y="-401.8" font-family="Helvetica,sans-Serif" font-size="11.00" fill="#000000"> &#160;</text>
</a>
</g>
</g>
<!-- auth_entity_to_policy&#45;&gt;auth_entity -->
<g id="edge5" class="edge">
<title>auth_entity_to_policy:w&#45;&gt;auth_entity:e</title>
<path fill="none" stroke="#000000" d="M389.4491,-421.7583C344.6734,-408.743 353.7638,-334.7 297.5,-334.7"/>
<polygon fill="#000000" stroke="#000000" points="396.0703,-422.6418 403.5238,-427.2684 400.0351,-423.1709 404,-423.7 404,-423.7 404,-423.7 400.0351,-423.1709 404.4762,-420.1316 396.0703,-422.6418 396.0703,-422.6418"/>
<ellipse fill="none" stroke="#000000" cx="392.8984" cy="-422.2185" rx="3.2" ry="3.2"/>
</g>
<!-- auth_entity_to_policy&#45;&gt;policy -->
<g id="edge6" class="edge">
<title>auth_entity_to_policy:w&#45;&gt;policy:e</title>
<path fill="none" stroke="#000000" d="M389.4562,-423.7887C284.3324,-425.0497 241.0588,-438.4606 147,-379.7 120.5339,-363.166 137.2062,-322.7 106,-322.7"/>
<polygon fill="#000000" stroke="#000000" points="396.0001,-423.7489 404.022,-427.2999 400.0001,-423.7244 404,-423.7 404,-423.7 404,-423.7 400.0001,-423.7244 403.978,-420.1001 396.0001,-423.7489 396.0001,-423.7489"/>
<ellipse fill="none" stroke="#000000" cx="392.8002" cy="-423.7684" rx="3.2" ry="3.2"/>
</g>
<!-- file_to_plan -->
<g id="node8" class="node">
<title>file_to_plan</title>
<g id="a_node8"><a xlink:href="../../tables/file_to_plan.html" xlink:title="file_to_plan" target="_top">
<polygon fill="#ffffff" stroke="transparent" points="427.5,-120.2 427.5,-181.2 526.5,-181.2 526.5,-120.2 427.5,-120.2"/>
<polygon fill="#f5f5f5" stroke="transparent" points="428,-157.7 428,-180.7 527,-180.7 527,-157.7 428,-157.7"/>
<polygon fill="none" stroke="#000000" points="428,-157.7 428,-180.7 527,-180.7 527,-157.7 428,-157.7"/>
<text text-anchor="start" x="432.8796" y="-166.8" font-family="Helvetica,sans-Serif" font-weight="bold" font-size="11.00" fill="#000000">file_to_plan</text>
<text text-anchor="start" x="492.5219" y="-165.8" font-family="Helvetica,sans-Serif" font-size="11.00" fill="#000000">[table]</text>
<polygon fill="none" stroke="#000000" points="428,-138.7 428,-157.7 527,-157.7 527,-138.7 428,-138.7"/>
<text text-anchor="start" x="431" y="-144.8" font-family="Helvetica,sans-Serif" font-size="11.00" fill="#000000">...</text>
<polygon fill="#ffffff" stroke="transparent" points="428,-119.7 428,-138.7 457,-138.7 457,-119.7 428,-119.7"/>
<polygon fill="none" stroke="#000000" points="428,-119.7 428,-138.7 457,-138.7 457,-119.7 428,-119.7"/>
<text text-anchor="start" x="431" y="-125.8" font-family="Helvetica,sans-Serif" font-size="11.00" fill="#000000">&lt; 2</text>
<polygon fill="#ffffff" stroke="transparent" points="457,-119.7 457,-138.7 511,-138.7 511,-119.7 457,-119.7"/>
<polygon fill="none" stroke="#000000" points="457,-119.7 457,-138.7 511,-138.7 511,-119.7 457,-119.7"/>
<text text-anchor="start" x="463.3807" y="-125.8" font-family="Helvetica,sans-Serif" font-size="11.00" fill="#000000">567 rows</text>
<polygon fill="#ffffff" stroke="transparent" points="511,-119.7 511,-138.7 527,-138.7 527,-119.7 511,-119.7"/>
<polygon fill="none" stroke="#000000" points="511,-119.7 511,-138.7 527,-138.7 527,-119.7 511,-119.7"/>
<text text-anchor="start" x="517.8862" y="-125.8" font-family="Helvetica,sans-Serif" font-size="11.00" fill="#000000"> &#160;</text>
</a>
</g>
</g>
<!-- file_to_plan&#45;&gt;plan -->
<g id="edge7" class="edge">
<title>file_to_plan:w&#45;&gt;plan:e</title>
<path fill="none" stroke="#000000" d="M413.5615,-149.7509C381.6582,-159.6147 379.513,-201.7 338.5,-201.7"/>
<polygon fill="#000000" stroke="#000000" points="420.0795,-148.8251 428.5063,-151.2642 424.0398,-148.2626 428,-147.7 428,-147.7 428,-147.7 424.0398,-148.2626 427.4937,-144.1358 420.0795,-148.8251 420.0795,-148.8251"/>
<ellipse fill="none" stroke="#000000" cx="416.9113" cy="-149.2752" rx="3.2" ry="3.2"/>
</g>
<!-- place_to_plan -->
<g id="node9" class="node">
<title>place_to_plan</title>
<g id="a_node9"><a xlink:href="../../tables/place_to_plan.html" xlink:title="place_to_plan" target="_top">
<polygon fill="#ffffff" stroke="transparent" points="421.5,-38.2 421.5,-99.2 532.5,-99.2 532.5,-38.2 421.5,-38.2"/>
<polygon fill="#f5f5f5" stroke="transparent" points="422,-75.7 422,-98.7 533,-98.7 533,-75.7 422,-75.7"/>
<polygon fill="none" stroke="#000000" points="422,-75.7 422,-98.7 533,-98.7 533,-75.7 422,-75.7"/>
<text text-anchor="start" x="426.7636" y="-84.8" font-family="Helvetica,sans-Serif" font-weight="bold" font-size="11.00" fill="#000000">place_to_plan</text>
<text text-anchor="start" x="498.5219" y="-83.8" font-family="Helvetica,sans-Serif" font-size="11.00" fill="#000000">[table]</text>
<polygon fill="none" stroke="#000000" points="422,-56.7 422,-75.7 533,-75.7 533,-56.7 422,-56.7"/>
<text text-anchor="start" x="425" y="-62.8" font-family="Helvetica,sans-Serif" font-size="11.00" fill="#000000">...</text>
<polygon fill="#ffffff" stroke="transparent" points="422,-37.7 422,-56.7 457,-56.7 457,-37.7 422,-37.7"/>
<polygon fill="none" stroke="#000000" points="422,-37.7 422,-56.7 457,-56.7 457,-37.7 422,-37.7"/>
<text text-anchor="start" x="425" y="-43.8" font-family="Helvetica,sans-Serif" font-size="11.00" fill="#000000">&lt; 2</text>
<polygon fill="#ffffff" stroke="transparent" points="457,-37.7 457,-56.7 514,-56.7 514,-37.7 457,-37.7"/>
<polygon fill="none" stroke="#000000" points="457,-37.7 457,-56.7 514,-56.7 514,-37.7 457,-37.7"/>
<text text-anchor="start" x="466.3807" y="-43.8" font-family="Helvetica,sans-Serif" font-size="11.00" fill="#000000">493 rows</text>
<polygon fill="#ffffff" stroke="transparent" points="514,-37.7 514,-56.7 533,-56.7 533,-37.7 514,-37.7"/>
<polygon fill="none" stroke="#000000" points="514,-37.7 514,-56.7 533,-56.7 533,-37.7 514,-37.7"/>
<text text-anchor="start" x="523.8862" y="-43.8" font-family="Helvetica,sans-Serif" font-size="11.00" fill="#000000"> &#160;</text>
</a>
</g>
</g>
<!-- place_to_plan&#45;&gt;place -->
<g id="edge8" class="edge">
<title>place_to_plan:w&#45;&gt;place:e</title>
<path fill="none" stroke="#000000" d="M407.3887,-65.6294C293.4296,-64.5531 245.2983,-52.4792 147,-120.7 116.5016,-141.8665 140.1238,-191.7 103,-191.7"/>
<polygon fill="#000000" stroke="#000000" points="414.0001,-65.6613 421.9826,-69.3 418,-65.6806 422,-65.7 422,-65.7 422,-65.7 418,-65.6806 422.0174,-62.1 414.0001,-65.6613 414.0001,-65.6613"/>
<ellipse fill="none" stroke="#000000" cx="410.8001" cy="-65.6458" rx="3.2" ry="3.2"/>
</g>
<!-- place_to_plan&#45;&gt;plan -->
<g id="edge9" class="edge">
<title>place_to_plan:w&#45;&gt;plan:e</title>
<path fill="none" stroke="#000000" d="M407.4923,-68.5545C393.7891,-75.1011 390.9611,-92.0007 379,-109.7 353.985,-146.7156 383.1755,-201.7 338.5,-201.7"/>
<polygon fill="#000000" stroke="#000000" points="414.1505,-67.2445 422.695,-69.2323 418.0752,-66.4722 422,-65.7 422,-65.7 422,-65.7 418.0752,-66.4722 421.305,-62.1677 414.1505,-67.2445 414.1505,-67.2445"/>
<ellipse fill="none" stroke="#000000" cx="411.0107" cy="-67.8622" rx="3.2" ry="3.2"/>
</g>
</g>
</svg>
