<?xml version="1.0" encoding="UTF-8" standalone="no"?>
<!DOCTYPE svg PUBLIC "-//W3C//DTD SVG 1.1//EN"
 "http://www.w3.org/Graphics/SVG/1.1/DTD/svg11.dtd">
<!-- Generated by graphviz version 2.40.1 (20161225.0304)
 -->
<!-- Title: oneDegreeRelationshipsDiagram Pages: 1 -->
<svg width="483pt" height="303pt"
 viewBox="0.00 0.00 483.00 303.20" xmlns="http://www.w3.org/2000/svg" xmlns:xlink="http://www.w3.org/1999/xlink">
<g id="graph0" class="graph" transform="scale(1 1) rotate(0) translate(4 299.2)">
<title>oneDegreeRelationshipsDiagram</title>
<polygon fill="#ffffff" stroke="transparent" points="-4,4 -4,-299.2 479,-299.2 479,4 -4,4"/>
<text text-anchor="middle" x="72.4936" y="-7.3" font-family="Helvetica,sans-Serif" font-size="11.00" fill="#000000">Generated by SchemaSpy</text>
<!-- auth_entity_to_policy -->
<g id="node1" class="node">
<title>auth_entity_to_policy</title>
<g id="a_node1"><a xlink:href="../../tables/auth_entity_to_policy.html" xlink:title="auth_entity_to_policy" target="_top">
<polygon fill="#ffffff" stroke="transparent" points="277,-150.7 277,-240.7 467,-240.7 467,-150.7 277,-150.7"/>
<polygon fill="#f5f5f5" stroke="transparent" points="279,-215.7 279,-238.7 465,-238.7 465,-215.7 279,-215.7"/>
<polygon fill="none" stroke="#000000" points="279,-215.7 279,-238.7 465,-238.7 465,-215.7 279,-215.7"/>
<text text-anchor="start" x="284" y="-224.8" font-family="Helvetica,sans-Serif" font-weight="bold" font-size="11.00" fill="#000000">auth_entity_to_policy</text>
<text text-anchor="start" x="430.0437" y="-223.8" font-family="Helvetica,sans-Serif" font-size="11.00" fill="#000000">[table]</text>
<polygon fill="none" stroke="#000000" points="279,-193.7 279,-215.7 423,-215.7 423,-193.7 279,-193.7"/>
<image xlink:href="../../images/primaryKeys.png" width="11px" height="12px" preserveAspectRatio="xMinYMin meet" x="284" y="-210.7"/>
<text text-anchor="start" x="299" y="-200.8" font-family="Helvetica,sans-Serif" font-size="11.00" fill="#000000">auth_entity</text>
<polygon fill="none" stroke="#000000" points="423,-193.7 423,-215.7 465,-215.7 465,-193.7 423,-193.7"/>
<text text-anchor="start" x="425.9644" y="-201.4" font-family="Helvetica,sans-Serif" font-size="11.00" fill="#000000">int4[10]</text>
<polygon fill="none" stroke="#000000" points="279,-171.7 279,-193.7 423,-193.7 423,-171.7 279,-171.7"/>
<image xlink:href="../../images/primaryKeys.png" width="11px" height="12px" preserveAspectRatio="xMinYMin meet" x="284" y="-188.7"/>
<text text-anchor="start" x="299" y="-178.8" font-family="Helvetica,sans-Serif" font-size="11.00" fill="#000000">policy</text>
<polygon fill="none" stroke="#000000" points="423,-171.7 423,-193.7 465,-193.7 465,-171.7 423,-171.7"/>
<text text-anchor="start" x="425.9644" y="-179.4" font-family="Helvetica,sans-Serif" font-size="11.00" fill="#000000">int4[10]</text>
<polygon fill="#ffffff" stroke="transparent" points="279,-152.7 279,-171.7 329,-171.7 329,-152.7 279,-152.7"/>
<polygon fill="none" stroke="#000000" points="279,-152.7 279,-171.7 329,-171.7 329,-152.7 279,-152.7"/>
<text text-anchor="start" x="282" y="-158.8" font-family="Helvetica,sans-Serif" font-size="11.00" fill="#000000">&lt; 2</text>
<polygon fill="#ffffff" stroke="transparent" points="329,-152.7 329,-171.7 423,-171.7 423,-152.7 329,-152.7"/>
<polygon fill="none" stroke="#000000" points="329,-152.7 329,-171.7 423,-171.7 423,-152.7 329,-152.7"/>
<text text-anchor="start" x="360.094" y="-158.8" font-family="Helvetica,sans-Serif" font-size="11.00" fill="#000000">41,840 rows</text>
<polygon fill="#ffffff" stroke="transparent" points="423,-152.7 423,-171.7 465,-171.7 465,-152.7 423,-152.7"/>
<polygon fill="none" stroke="#000000" points="423,-152.7 423,-171.7 465,-171.7 465,-152.7 423,-152.7"/>
<text text-anchor="start" x="446.4053" y="-158.8" font-family="Helvetica,sans-Serif" font-size="11.00" fill="#000000">0 &gt;</text>
<polygon fill="none" stroke="#000000" stroke-width="2" points="278,-151.7 278,-239.7 466,-239.7 466,-151.7 278,-151.7"/>
</a>
</g>
</g>
<!-- auth_entity -->
<g id="node2" class="node">
<title>auth_entity</title>
<g id="a_node2"><a xlink:href="../../tables/auth_entity.html" xlink:title="auth_entity" target="_top">
<polygon fill="#ffffff" stroke="transparent" points="67.5,-186.2 67.5,-291.2 168.5,-291.2 168.5,-186.2 67.5,-186.2"/>
<polygon fill="#f5f5f5" stroke="transparent" points="68,-267.7 68,-290.7 169,-290.7 169,-267.7 68,-267.7"/>
<polygon fill="none" stroke="#000000" points="68,-267.7 68,-290.7 169,-290.7 169,-267.7 68,-267.7"/>
<text text-anchor="start" x="73" y="-276.8" font-family="Helvetica,sans-Serif" font-weight="bold" font-size="11.00" fill="#000000">auth_entity</text>
<text text-anchor="start" x="134.0437" y="-275.8" font-family="Helvetica,sans-Serif" font-size="11.00" fill="#000000">[table]</text>
<polygon fill="none" stroke="#000000" points="68,-245.7 68,-267.7 169,-267.7 169,-245.7 68,-245.7"/>
<image xlink:href="../../images/primaryKeys.png" width="11px" height="12px" preserveAspectRatio="xMinYMin meet" x="73" y="-262.7"/>
<text text-anchor="start" x="96" y="-252.8" font-family="Helvetica,sans-Serif" font-size="11.00" fill="#000000">id</text>
<polygon fill="#ffffff" stroke="transparent" points="68,-223.7 68,-245.7 169,-245.7 169,-223.7 68,-223.7"/>
<polygon fill="none" stroke="#000000" points="68,-223.7 68,-245.7 169,-245.7 169,-223.7 68,-223.7"/>
<image xlink:href="../../images/foreignKeys.png" width="11px" height="12px" preserveAspectRatio="xMinYMin meet" x="73" y="-240.7"/>
<text text-anchor="start" x="96" y="-230.8" font-family="Helvetica,sans-Serif" font-size="11.00" fill="#000000">place</text>
<polygon fill="none" stroke="#000000" points="68,-204.7 68,-223.7 169,-223.7 169,-204.7 68,-204.7"/>
<text text-anchor="start" x="71" y="-210.8" font-family="Helvetica,sans-Serif" font-size="11.00" fill="#000000">...</text>
<polygon fill="#ffffff" stroke="transparent" points="68,-185.7 68,-204.7 89,-204.7 89,-185.7 68,-185.7"/>
<polygon fill="none" stroke="#000000" points="68,-185.7 68,-204.7 89,-204.7 89,-185.7 68,-185.7"/>
<text text-anchor="start" x="70.7027" y="-191.8" font-family="Helvetica,sans-Serif" font-size="11.00" fill="#000000">&lt; 1</text>
<polygon fill="#ffffff" stroke="transparent" points="89,-185.7 89,-204.7 148,-204.7 148,-185.7 89,-185.7"/>
<polygon fill="none" stroke="#000000" points="89,-185.7 89,-204.7 148,-204.7 148,-185.7 89,-185.7"/>
<text text-anchor="start" x="91.6045" y="-191.8" font-family="Helvetica,sans-Serif" font-size="11.00" fill="#000000">2,895 rows</text>
<polygon fill="#ffffff" stroke="transparent" points="148,-185.7 148,-204.7 169,-204.7 169,-185.7 148,-185.7"/>
<polygon fill="none" stroke="#000000" points="148,-185.7 148,-204.7 169,-204.7 169,-185.7 148,-185.7"/>
<text text-anchor="start" x="150.7027" y="-191.8" font-family="Helvetica,sans-Serif" font-size="11.00" fill="#000000">3 &gt;</text>
</a>
</g>
</g>
<!-- auth_entity_to_policy&#45;&gt;auth_entity -->
<g id="edge1" class="edge">
<title>auth_entity_to_policy:w&#45;&gt;auth_entity:e</title>
<path fill="none" stroke="#000000" d="M264.5543,-206.0909C224.0648,-214.3603 217.7954,-256.7 169,-256.7"/>
<polygon fill="#000000" stroke="#000000" points="271.0368,-205.4668 279.345,-208.2834 275.0184,-205.0834 279,-204.7 279,-204.7 279,-204.7 275.0184,-205.0834 278.655,-201.1166 271.0368,-205.4668 271.0368,-205.4668"/>
<ellipse fill="none" stroke="#000000" cx="267.8516" cy="-205.7735" rx="3.2" ry="3.2"/>
</g>
<!-- policy -->
<g id="node3" class="node">
<title>policy</title>
<g id="a_node3"><a xlink:href="../../tables/policy.html" xlink:title="policy" target="_top">
<polygon fill="#ffffff" stroke="transparent" points="8,-38.2 8,-165.2 228,-165.2 228,-38.2 8,-38.2"/>
<polygon fill="#f5f5f5" stroke="transparent" points="8,-141.7 8,-164.7 228,-164.7 228,-141.7 8,-141.7"/>
<polygon fill="none" stroke="#000000" points="8,-141.7 8,-164.7 228,-164.7 228,-141.7 8,-141.7"/>
<text text-anchor="start" x="13" y="-150.8" font-family="Helvetica,sans-Serif" font-weight="bold" font-size="11.00" fill="#000000">policy</text>
<text text-anchor="start" x="193.0437" y="-149.8" font-family="Helvetica,sans-Serif" font-size="11.00" fill="#000000">[table]</text>
<polygon fill="none" stroke="#000000" points="8,-119.7 8,-141.7 228,-141.7 228,-119.7 8,-119.7"/>
<image xlink:href="../../images/primaryKeys.png" width="11px" height="12px" preserveAspectRatio="xMinYMin meet" x="13" y="-136.7"/>
<text text-anchor="start" x="28" y="-126.8" font-family="Helvetica,sans-Serif" font-size="11.00" fill="#000000">id</text>
<polygon fill="#ffffff" stroke="transparent" points="8,-97.7 8,-119.7 228,-119.7 228,-97.7 8,-97.7"/>
<polygon fill="none" stroke="#000000" points="8,-97.7 8,-119.7 228,-119.7 228,-97.7 8,-97.7"/>
<text text-anchor="start" x="28" y="-104.8" font-family="Helvetica,sans-Serif" font-size="11.00" fill="#000000">primary_ph_measure</text>
<polygon fill="#ffffff" stroke="transparent" points="8,-75.7 8,-97.7 228,-97.7 228,-75.7 8,-75.7"/>
<polygon fill="none" stroke="#000000" points="8,-75.7 8,-97.7 228,-97.7 228,-75.7 8,-75.7"/>
<text text-anchor="start" x="28" y="-82.8" font-family="Helvetica,sans-Serif" font-size="11.00" fill="#000000">group_number</text>
<polygon fill="none" stroke="#000000" points="8,-56.7 8,-75.7 228,-75.7 228,-56.7 8,-56.7"/>
<text text-anchor="start" x="11" y="-62.8" font-family="Helvetica,sans-Serif" font-size="11.00" fill="#000000">...</text>
<polygon fill="#ffffff" stroke="transparent" points="8,-37.7 8,-56.7 81,-56.7 81,-37.7 8,-37.7"/>
<polygon fill="none" stroke="#000000" points="8,-37.7 8,-56.7 81,-56.7 81,-37.7 8,-37.7"/>
<text text-anchor="start" x="11" y="-43.8" font-family="Helvetica,sans-Serif" font-size="11.00" fill="#000000"> &#160;</text>
<polygon fill="#ffffff" stroke="transparent" points="81,-37.7 81,-56.7 176,-56.7 176,-37.7 81,-37.7"/>
<polygon fill="none" stroke="#000000" points="81,-37.7 81,-56.7 176,-56.7 176,-37.7 81,-37.7"/>
<text text-anchor="start" x="113.094" y="-43.8" font-family="Helvetica,sans-Serif" font-size="11.00" fill="#000000">40,812 rows</text>
<polygon fill="#ffffff" stroke="transparent" points="176,-37.7 176,-56.7 228,-56.7 228,-37.7 176,-37.7"/>
<polygon fill="none" stroke="#000000" points="176,-37.7 176,-56.7 228,-56.7 228,-37.7 176,-37.7"/>
<text text-anchor="start" x="209.4053" y="-43.8" font-family="Helvetica,sans-Serif" font-size="11.00" fill="#000000">8 &gt;</text>
</a>
</g>
</g>
<!-- auth_entity_to_policy&#45;&gt;policy -->
<g id="edge2" class="edge">
<title>auth_entity_to_policy:w&#45;&gt;policy:e</title>
<path fill="none" stroke="#000000" d="M265.0468,-177.9012C250.161,-165.0281 254.3017,-130.7 228,-130.7"/>
<polygon fill="#000000" stroke="#000000" points="271.4349,-180.0982 277.8292,-186.1043 275.2175,-181.3991 279,-182.7 279,-182.7 279,-182.7 275.2175,-181.3991 280.1708,-179.2957 271.4349,-180.0982 271.4349,-180.0982"/>
<ellipse fill="none" stroke="#000000" cx="268.4089" cy="-179.0574" rx="3.2" ry="3.2"/>
</g>
</g>
</svg>
