<?xml version="1.0" encoding="UTF-8" standalone="no"?>
<!DOCTYPE svg PUBLIC "-//W3C//DTD SVG 1.1//EN"
 "http://www.w3.org/Graphics/SVG/1.1/DTD/svg11.dtd">
<!-- Generated by graphviz version 2.40.1 (20161225.0304)
 -->
<!-- Title: twoDegreesRelationshipsDiagram Pages: 1 -->
<svg width="581pt" height="708pt"
 viewBox="0.00 0.00 581.00 707.84" xmlns="http://www.w3.org/2000/svg" xmlns:xlink="http://www.w3.org/1999/xlink">
<g id="graph0" class="graph" transform="scale(1 1) rotate(0) translate(4 703.844)">
<title>twoDegreesRelationshipsDiagram</title>
<polygon fill="#ffffff" stroke="transparent" points="-4,4 -4,-703.844 577,-703.844 577,4 -4,4"/>
<text text-anchor="middle" x="72.4936" y="-7.3" font-family="Helvetica,sans-Serif" font-size="11.00" fill="#000000">Generated by SchemaSpy</text>
<!-- auth_entity -->
<g id="node1" class="node">
<title>auth_entity</title>
<g id="a_node1"><a xlink:href="../../tables/auth_entity.html" xlink:title="auth_entity" target="_top">
<polygon fill="#ffffff" stroke="transparent" points="160,-422.7 160,-578.7 339,-578.7 339,-422.7 160,-422.7"/>
<polygon fill="#f5f5f5" stroke="transparent" points="162.5,-553.7 162.5,-576.7 337.5,-576.7 337.5,-553.7 162.5,-553.7"/>
<polygon fill="none" stroke="#000000" points="162.5,-553.7 162.5,-576.7 337.5,-576.7 337.5,-553.7 162.5,-553.7"/>
<text text-anchor="start" x="167.5" y="-562.8" font-family="Helvetica,sans-Serif" font-weight="bold" font-size="11.00" fill="#000000">auth_entity</text>
<text text-anchor="start" x="302.5437" y="-561.8" font-family="Helvetica,sans-Serif" font-size="11.00" fill="#000000">[table]</text>
<polygon fill="none" stroke="#000000" points="162.5,-531.7 162.5,-553.7 247.5,-553.7 247.5,-531.7 162.5,-531.7"/>
<image xlink:href="../../images/primaryKeys.png" width="11px" height="12px" preserveAspectRatio="xMinYMin meet" x="167.5" y="-548.7"/>
<text text-anchor="start" x="182.5" y="-538.8" font-family="Helvetica,sans-Serif" font-size="11.00" fill="#000000">id</text>
<polygon fill="none" stroke="#000000" points="247.5,-531.7 247.5,-553.7 337.5,-553.7 337.5,-531.7 247.5,-531.7"/>
<text text-anchor="start" x="250.5" y="-539.4" font-family="Helvetica,sans-Serif" font-size="11.00" fill="#000000">serial[10]</text>
<polygon fill="none" stroke="#000000" points="162.5,-509.7 162.5,-531.7 247.5,-531.7 247.5,-509.7 162.5,-509.7"/>
<text text-anchor="start" x="182.5" y="-516.8" font-family="Helvetica,sans-Serif" font-size="11.00" fill="#000000">name</text>
<polygon fill="none" stroke="#000000" points="247.5,-509.7 247.5,-531.7 337.5,-531.7 337.5,-509.7 247.5,-509.7"/>
<text text-anchor="start" x="250.0043" y="-517.4" font-family="Helvetica,sans-Serif" font-size="11.00" fill="#000000">text[2147483647]</text>
<polygon fill="none" stroke="#000000" points="162.5,-487.7 162.5,-509.7 247.5,-509.7 247.5,-487.7 162.5,-487.7"/>
<text text-anchor="start" x="182.5" y="-494.8" font-family="Helvetica,sans-Serif" font-size="11.00" fill="#000000">office</text>
<polygon fill="none" stroke="#000000" points="247.5,-487.7 247.5,-509.7 337.5,-509.7 337.5,-487.7 247.5,-487.7"/>
<text text-anchor="start" x="250.0043" y="-495.4" font-family="Helvetica,sans-Serif" font-size="11.00" fill="#000000">text[2147483647]</text>
<polygon fill="#ffffff" stroke="transparent" points="162.5,-465.7 162.5,-487.7 247.5,-487.7 247.5,-465.7 162.5,-465.7"/>
<polygon fill="none" stroke="#000000" points="162.5,-465.7 162.5,-487.7 247.5,-487.7 247.5,-465.7 162.5,-465.7"/>
<image xlink:href="../../images/foreignKeys.png" width="11px" height="12px" preserveAspectRatio="xMinYMin meet" x="167.5" y="-482.7"/>
<text text-anchor="start" x="182.5" y="-472.8" font-family="Helvetica,sans-Serif" font-size="11.00" fill="#000000">place</text>
<polygon fill="none" stroke="#000000" points="247.5,-465.7 247.5,-487.7 337.5,-487.7 337.5,-465.7 247.5,-465.7"/>
<text text-anchor="start" x="250.5" y="-473.4" font-family="Helvetica,sans-Serif" font-size="11.00" fill="#000000">int4[10]</text>
<polygon fill="none" stroke="#000000" points="162.5,-443.7 162.5,-465.7 247.5,-465.7 247.5,-443.7 162.5,-443.7"/>
<text text-anchor="start" x="182.5" y="-450.8" font-family="Helvetica,sans-Serif" font-size="11.00" fill="#000000">official</text>
<polygon fill="none" stroke="#000000" points="247.5,-443.7 247.5,-465.7 337.5,-465.7 337.5,-443.7 247.5,-443.7"/>
<text text-anchor="start" x="250.0043" y="-451.4" font-family="Helvetica,sans-Serif" font-size="11.00" fill="#000000">text[2147483647]</text>
<polygon fill="#ffffff" stroke="transparent" points="162.5,-424.7 162.5,-443.7 185.5,-443.7 185.5,-424.7 162.5,-424.7"/>
<polygon fill="none" stroke="#000000" points="162.5,-424.7 162.5,-443.7 185.5,-443.7 185.5,-424.7 162.5,-424.7"/>
<text text-anchor="start" x="165.5" y="-430.8" font-family="Helvetica,sans-Serif" font-size="11.00" fill="#000000">&lt; 1</text>
<polygon fill="#ffffff" stroke="transparent" points="185.5,-424.7 185.5,-443.7 247.5,-443.7 247.5,-424.7 185.5,-424.7"/>
<polygon fill="none" stroke="#000000" points="185.5,-424.7 185.5,-443.7 247.5,-443.7 247.5,-424.7 185.5,-424.7"/>
<text text-anchor="start" x="190.7089" y="-430.8" font-family="Helvetica,sans-Serif" font-size="11.00" fill="#000000">2,895 rows</text>
<polygon fill="#ffffff" stroke="transparent" points="247.5,-424.7 247.5,-443.7 337.5,-443.7 337.5,-424.7 247.5,-424.7"/>
<polygon fill="none" stroke="#000000" points="247.5,-424.7 247.5,-443.7 337.5,-443.7 337.5,-424.7 247.5,-424.7"/>
<text text-anchor="start" x="318.9053" y="-430.8" font-family="Helvetica,sans-Serif" font-size="11.00" fill="#000000">3 &gt;</text>
<polygon fill="none" stroke="#000000" stroke-width="2" points="161,-423.7 161,-577.7 338,-577.7 338,-423.7 161,-423.7"/>
</a>
</g>
</g>
<!-- place -->
<g id="node2" class="node">
<title>place</title>
<g id="a_node2"><a xlink:href="../../tables/place.html" xlink:title="place" target="_top">
<polygon fill="#ffffff" stroke="transparent" points="8,-253.2 8,-402.2 111,-402.2 111,-253.2 8,-253.2"/>
<polygon fill="#f5f5f5" stroke="transparent" points="8.5,-378.7 8.5,-401.7 111.5,-401.7 111.5,-378.7 8.5,-378.7"/>
<polygon fill="none" stroke="#000000" points="8.5,-378.7 8.5,-401.7 111.5,-401.7 111.5,-378.7 8.5,-378.7"/>
<text text-anchor="start" x="13.5" y="-387.8" font-family="Helvetica,sans-Serif" font-weight="bold" font-size="11.00" fill="#000000">place</text>
<text text-anchor="start" x="76.5437" y="-386.8" font-family="Helvetica,sans-Serif" font-size="11.00" fill="#000000">[table]</text>
<polygon fill="none" stroke="#000000" points="8.5,-356.7 8.5,-378.7 111.5,-378.7 111.5,-356.7 8.5,-356.7"/>
<image xlink:href="../../images/primaryKeys.png" width="11px" height="12px" preserveAspectRatio="xMinYMin meet" x="13.5" y="-373.7"/>
<text text-anchor="start" x="28.5" y="-363.8" font-family="Helvetica,sans-Serif" font-size="11.00" fill="#000000">id</text>
<polygon fill="#ffffff" stroke="transparent" points="8.5,-334.7 8.5,-356.7 111.5,-356.7 111.5,-334.7 8.5,-334.7"/>
<polygon fill="none" stroke="#000000" points="8.5,-334.7 8.5,-356.7 111.5,-356.7 111.5,-334.7 8.5,-334.7"/>
<text text-anchor="start" x="28.5" y="-341.8" font-family="Helvetica,sans-Serif" font-size="11.00" fill="#000000">level</text>
<polygon fill="#ffffff" stroke="transparent" points="8.5,-312.7 8.5,-334.7 111.5,-334.7 111.5,-312.7 8.5,-312.7"/>
<polygon fill="none" stroke="#000000" points="8.5,-312.7 8.5,-334.7 111.5,-334.7 111.5,-312.7 8.5,-312.7"/>
<text text-anchor="start" x="28.5" y="-319.8" font-family="Helvetica,sans-Serif" font-size="11.00" fill="#000000">iso3</text>
<polygon fill="#ffffff" stroke="transparent" points="8.5,-290.7 8.5,-312.7 111.5,-312.7 111.5,-290.7 8.5,-290.7"/>
<polygon fill="none" stroke="#000000" points="8.5,-290.7 8.5,-312.7 111.5,-312.7 111.5,-290.7 8.5,-290.7"/>
<text text-anchor="start" x="28.5" y="-297.8" font-family="Helvetica,sans-Serif" font-size="11.00" fill="#000000">ansi_fips</text>
<polygon fill="none" stroke="#000000" points="8.5,-271.7 8.5,-290.7 111.5,-290.7 111.5,-271.7 8.5,-271.7"/>
<text text-anchor="start" x="11.5" y="-277.8" font-family="Helvetica,sans-Serif" font-size="11.00" fill="#000000">...</text>
<polygon fill="#ffffff" stroke="transparent" points="8.5,-252.7 8.5,-271.7 25.5,-271.7 25.5,-252.7 8.5,-252.7"/>
<polygon fill="none" stroke="#000000" points="8.5,-252.7 8.5,-271.7 25.5,-271.7 25.5,-252.7 8.5,-252.7"/>
<text text-anchor="start" x="11.5" y="-258.8" font-family="Helvetica,sans-Serif" font-size="11.00" fill="#000000"> &#160;</text>
<polygon fill="#ffffff" stroke="transparent" points="25.5,-252.7 25.5,-271.7 87.5,-271.7 87.5,-252.7 25.5,-252.7"/>
<polygon fill="none" stroke="#000000" points="25.5,-252.7 25.5,-271.7 87.5,-271.7 87.5,-252.7 25.5,-252.7"/>
<text text-anchor="start" x="30.7089" y="-258.8" font-family="Helvetica,sans-Serif" font-size="11.00" fill="#000000">7,645 rows</text>
<polygon fill="#ffffff" stroke="transparent" points="87.5,-252.7 87.5,-271.7 111.5,-271.7 111.5,-252.7 87.5,-252.7"/>
<polygon fill="none" stroke="#000000" points="87.5,-252.7 87.5,-271.7 111.5,-271.7 111.5,-252.7 87.5,-252.7"/>
<text text-anchor="start" x="92.9053" y="-258.8" font-family="Helvetica,sans-Serif" font-size="11.00" fill="#000000">7 &gt;</text>
</a>
</g>
</g>
<!-- auth_entity&#45;&gt;place -->
<g id="edge1" class="edge">
<title>auth_entity:w&#45;&gt;place:e</title>
<path fill="none" stroke="#000000" d="M148.219,-472.8206C120.2911,-453.4034 158.9261,-367.7 111.5,-367.7"/>
<polygon fill="#000000" stroke="#000000" points="154.7798,-474.6028 161.5563,-480.1741 158.6399,-475.6514 162.5,-476.7 162.5,-476.7 162.5,-476.7 158.6399,-475.6514 163.4437,-473.2259 154.7798,-474.6028 154.7798,-474.6028"/>
<ellipse fill="none" stroke="#000000" cx="151.6917" cy="-473.7639" rx="3.2" ry="3.2"/>
</g>
<!-- auth_entity_policy_number -->
<g id="node3" class="node">
<title>auth_entity_policy_number</title>
<g id="a_node3"><a xlink:href="../../tables/auth_entity_policy_number.html" xlink:title="auth_entity_policy_number" target="_top">
<polygon fill="#ffffff" stroke="transparent" points="388,-505.7 388,-591.7 565,-591.7 565,-505.7 388,-505.7"/>
<polygon fill="#f5f5f5" stroke="transparent" points="388.5,-568.7 388.5,-591.7 565.5,-591.7 565.5,-568.7 388.5,-568.7"/>
<polygon fill="none" stroke="#000000" points="388.5,-568.7 388.5,-591.7 565.5,-591.7 565.5,-568.7 388.5,-568.7"/>
<text text-anchor="start" x="393.5" y="-577.8" font-family="Helvetica,sans-Serif" font-weight="bold" font-size="11.00" fill="#000000">auth_entity_policy_number</text>
<text text-anchor="start" x="530.5437" y="-576.8" font-family="Helvetica,sans-Serif" font-size="11.00" fill="#000000">[table]</text>
<polygon fill="none" stroke="#000000" points="388.5,-546.7 388.5,-568.7 565.5,-568.7 565.5,-546.7 388.5,-546.7"/>
<image xlink:href="../../images/primaryKeys.png" width="11px" height="12px" preserveAspectRatio="xMinYMin meet" x="393.5" y="-563.7"/>
<text text-anchor="start" x="408.5" y="-553.8" font-family="Helvetica,sans-Serif" font-size="11.00" fill="#000000">auth_entity</text>
<polygon fill="none" stroke="#000000" points="388.5,-524.7 388.5,-546.7 565.5,-546.7 565.5,-524.7 388.5,-524.7"/>
<image xlink:href="../../images/primaryKeys.png" width="11px" height="12px" preserveAspectRatio="xMinYMin meet" x="393.5" y="-541.7"/>
<text text-anchor="start" x="408.5" y="-531.8" font-family="Helvetica,sans-Serif" font-size="11.00" fill="#000000">policy_number</text>
<polygon fill="#ffffff" stroke="transparent" points="388.5,-505.7 388.5,-524.7 448.5,-524.7 448.5,-505.7 388.5,-505.7"/>
<polygon fill="none" stroke="#000000" points="388.5,-505.7 388.5,-524.7 448.5,-524.7 448.5,-505.7 388.5,-505.7"/>
<text text-anchor="start" x="391.5" y="-511.8" font-family="Helvetica,sans-Serif" font-size="11.00" fill="#000000">&lt; 2</text>
<polygon fill="#ffffff" stroke="transparent" points="448.5,-505.7 448.5,-524.7 533.5,-524.7 533.5,-505.7 448.5,-505.7"/>
<polygon fill="none" stroke="#000000" points="448.5,-505.7 448.5,-524.7 533.5,-524.7 533.5,-505.7 448.5,-505.7"/>
<text text-anchor="start" x="470.594" y="-511.8" font-family="Helvetica,sans-Serif" font-size="11.00" fill="#000000">18,176 rows</text>
<polygon fill="#ffffff" stroke="transparent" points="533.5,-505.7 533.5,-524.7 565.5,-524.7 565.5,-505.7 533.5,-505.7"/>
<polygon fill="none" stroke="#000000" points="533.5,-505.7 533.5,-524.7 565.5,-524.7 565.5,-505.7 533.5,-505.7"/>
<text text-anchor="start" x="556.3862" y="-511.8" font-family="Helvetica,sans-Serif" font-size="11.00" fill="#000000"> &#160;</text>
</a>
</g>
</g>
<!-- auth_entity_policy_number&#45;&gt;auth_entity -->
<g id="edge2" class="edge">
<title>auth_entity_policy_number:w&#45;&gt;auth_entity:e</title>
<path fill="none" stroke="#000000" d="M374.2671,-555.4867C361.8925,-551.3142 355.4046,-542.7 337.5,-542.7"/>
<polygon fill="#000000" stroke="#000000" points="380.595,-556.4707 387.9468,-561.2572 384.5475,-557.0853 388.5,-557.7 388.5,-557.7 388.5,-557.7 384.5475,-557.0853 389.0532,-554.1428 380.595,-556.4707 380.595,-556.4707"/>
<ellipse fill="none" stroke="#000000" cx="377.433" cy="-555.979" rx="3.2" ry="3.2"/>
</g>
<!-- policy_number -->
<g id="node4" class="node">
<title>policy_number</title>
<g id="a_node4"><a xlink:href="../../tables/policy_number.html" xlink:title="policy_number" target="_top">
<polygon fill="#ffffff" stroke="transparent" points="192.5,-600.2 192.5,-661.2 306.5,-661.2 306.5,-600.2 192.5,-600.2"/>
<polygon fill="#f5f5f5" stroke="transparent" points="192.5,-637.7 192.5,-660.7 306.5,-660.7 306.5,-637.7 192.5,-637.7"/>
<polygon fill="none" stroke="#000000" points="192.5,-637.7 192.5,-660.7 306.5,-660.7 306.5,-637.7 192.5,-637.7"/>
<text text-anchor="start" x="197.2451" y="-646.8" font-family="Helvetica,sans-Serif" font-weight="bold" font-size="11.00" fill="#000000">policy_number</text>
<text text-anchor="start" x="272.0219" y="-645.8" font-family="Helvetica,sans-Serif" font-size="11.00" fill="#000000">[table]</text>
<polygon fill="none" stroke="#000000" points="192.5,-618.7 192.5,-637.7 306.5,-637.7 306.5,-618.7 192.5,-618.7"/>
<text text-anchor="start" x="195.5" y="-624.8" font-family="Helvetica,sans-Serif" font-size="11.00" fill="#000000">...</text>
<polygon fill="#ffffff" stroke="transparent" points="192.5,-599.7 192.5,-618.7 212.5,-618.7 212.5,-599.7 192.5,-599.7"/>
<polygon fill="none" stroke="#000000" points="192.5,-599.7 192.5,-618.7 212.5,-618.7 212.5,-599.7 192.5,-599.7"/>
<text text-anchor="start" x="195.5" y="-605.8" font-family="Helvetica,sans-Serif" font-size="11.00" fill="#000000"> &#160;</text>
<polygon fill="#ffffff" stroke="transparent" points="212.5,-599.7 212.5,-618.7 281.5,-618.7 281.5,-599.7 212.5,-599.7"/>
<polygon fill="none" stroke="#000000" points="212.5,-599.7 212.5,-618.7 281.5,-618.7 281.5,-599.7 212.5,-599.7"/>
<text text-anchor="start" x="218.594" y="-605.8" font-family="Helvetica,sans-Serif" font-size="11.00" fill="#000000">17,312 rows</text>
<polygon fill="#ffffff" stroke="transparent" points="281.5,-599.7 281.5,-618.7 306.5,-618.7 306.5,-599.7 281.5,-599.7"/>
<polygon fill="none" stroke="#000000" points="281.5,-599.7 281.5,-618.7 306.5,-618.7 306.5,-599.7 281.5,-599.7"/>
<text text-anchor="start" x="287.9053" y="-605.8" font-family="Helvetica,sans-Serif" font-size="11.00" fill="#000000">3 &gt;</text>
</a>
</g>
</g>
<!-- auth_entity_policy_number&#45;&gt;policy_number -->
<g id="edge3" class="edge">
<title>auth_entity_policy_number:w&#45;&gt;policy_number:e</title>
<path fill="none" stroke="#000000" d="M374.3509,-539.2666C360.712,-548.1485 363.197,-571.8268 347,-589.7 330.4254,-607.9898 331.1827,-627.7 306.5,-627.7"/>
<polygon fill="#000000" stroke="#000000" points="380.7427,-537.6555 389.38,-539.1908 384.6213,-536.6777 388.5,-535.7 388.5,-535.7 388.5,-535.7 384.6213,-536.6777 387.62,-532.2092 380.7427,-537.6555 380.7427,-537.6555"/>
<ellipse fill="none" stroke="#000000" cx="377.6397" cy="-538.4376" rx="3.2" ry="3.2"/>
</g>
<!-- auth_entity_to_plan -->
<g id="node5" class="node">
<title>auth_entity_to_plan</title>
<g id="a_node5"><a xlink:href="../../tables/auth_entity_to_plan.html" xlink:title="auth_entity_to_plan" target="_top">
<polygon fill="#ffffff" stroke="transparent" points="407.5,-174.7 407.5,-260.7 545.5,-260.7 545.5,-174.7 407.5,-174.7"/>
<polygon fill="#f5f5f5" stroke="transparent" points="407.5,-237.7 407.5,-260.7 545.5,-260.7 545.5,-237.7 407.5,-237.7"/>
<polygon fill="none" stroke="#000000" points="407.5,-237.7 407.5,-260.7 545.5,-260.7 545.5,-237.7 407.5,-237.7"/>
<text text-anchor="start" x="412.0059" y="-246.8" font-family="Helvetica,sans-Serif" font-weight="bold" font-size="11.00" fill="#000000">auth_entity_to_plan</text>
<text text-anchor="start" x="511.0219" y="-245.8" font-family="Helvetica,sans-Serif" font-size="11.00" fill="#000000">[table]</text>
<polygon fill="none" stroke="#000000" points="407.5,-215.7 407.5,-237.7 545.5,-237.7 545.5,-215.7 407.5,-215.7"/>
<image xlink:href="../../images/primaryKeys.png" width="11px" height="12px" preserveAspectRatio="xMinYMin meet" x="412.5" y="-232.7"/>
<text text-anchor="start" x="429.5" y="-222.8" font-family="Helvetica,sans-Serif" font-size="11.00" fill="#000000">auth_entity</text>
<polygon fill="none" stroke="#000000" points="407.5,-193.7 407.5,-215.7 545.5,-215.7 545.5,-193.7 407.5,-193.7"/>
<image xlink:href="../../images/primaryKeys.png" width="11px" height="12px" preserveAspectRatio="xMinYMin meet" x="412.5" y="-210.7"/>
<text text-anchor="start" x="429.5" y="-200.8" font-family="Helvetica,sans-Serif" font-size="11.00" fill="#000000">plan</text>
<polygon fill="#ffffff" stroke="transparent" points="407.5,-174.7 407.5,-193.7 455.5,-193.7 455.5,-174.7 407.5,-174.7"/>
<polygon fill="none" stroke="#000000" points="407.5,-174.7 407.5,-193.7 455.5,-193.7 455.5,-174.7 407.5,-174.7"/>
<text text-anchor="start" x="410.5" y="-180.8" font-family="Helvetica,sans-Serif" font-size="11.00" fill="#000000">&lt; 2</text>
<polygon fill="#ffffff" stroke="transparent" points="455.5,-174.7 455.5,-193.7 519.5,-193.7 519.5,-174.7 455.5,-174.7"/>
<polygon fill="none" stroke="#000000" points="455.5,-174.7 455.5,-193.7 519.5,-193.7 519.5,-174.7 455.5,-174.7"/>
<text text-anchor="start" x="471.8807" y="-180.8" font-family="Helvetica,sans-Serif" font-size="11.00" fill="#000000">493 rows</text>
<polygon fill="#ffffff" stroke="transparent" points="519.5,-174.7 519.5,-193.7 545.5,-193.7 545.5,-174.7 519.5,-174.7"/>
<polygon fill="none" stroke="#000000" points="519.5,-174.7 519.5,-193.7 545.5,-193.7 545.5,-174.7 519.5,-174.7"/>
<text text-anchor="start" x="536.3862" y="-180.8" font-family="Helvetica,sans-Serif" font-size="11.00" fill="#000000"> &#160;</text>
</a>
</g>
</g>
<!-- auth_entity_to_plan&#45;&gt;auth_entity -->
<g id="edge4" class="edge">
<title>auth_entity_to_plan:w&#45;&gt;auth_entity:e</title>
<path fill="none" stroke="#000000" d="M393.7753,-231.6636C345.7345,-271.8656 404.0864,-542.7 337.5,-542.7"/>
<polygon fill="#000000" stroke="#000000" points="399.9769,-229.4208 408.7244,-230.0854 403.7384,-228.0604 407.5,-226.7 407.5,-226.7 407.5,-226.7 403.7384,-228.0604 406.2756,-223.3146 399.9769,-229.4208 399.9769,-229.4208"/>
<ellipse fill="none" stroke="#000000" cx="396.9676" cy="-230.5091" rx="3.2" ry="3.2"/>
</g>
<!-- plan -->
<g id="node6" class="node">
<title>plan</title>
<g id="a_node6"><a xlink:href="../../tables/plan.html" xlink:title="plan" target="_top">
<polygon fill="#ffffff" stroke="transparent" points="203.5,-38.2 203.5,-99.2 295.5,-99.2 295.5,-38.2 203.5,-38.2"/>
<polygon fill="#f5f5f5" stroke="transparent" points="203.5,-75.7 203.5,-98.7 295.5,-98.7 295.5,-75.7 203.5,-75.7"/>
<polygon fill="none" stroke="#000000" points="203.5,-75.7 203.5,-98.7 295.5,-98.7 295.5,-75.7 203.5,-75.7"/>
<text text-anchor="start" x="208.5" y="-84.8" font-family="Helvetica,sans-Serif" font-weight="bold" font-size="11.00" fill="#000000">plan</text>
<text text-anchor="start" x="260.5437" y="-83.8" font-family="Helvetica,sans-Serif" font-size="11.00" fill="#000000">[table]</text>
<polygon fill="none" stroke="#000000" points="203.5,-56.7 203.5,-75.7 295.5,-75.7 295.5,-56.7 203.5,-56.7"/>
<text text-anchor="start" x="206.5" y="-62.8" font-family="Helvetica,sans-Serif" font-size="11.00" fill="#000000">...</text>
<polygon fill="#ffffff" stroke="transparent" points="203.5,-37.7 203.5,-56.7 224.5,-56.7 224.5,-37.7 203.5,-37.7"/>
<polygon fill="none" stroke="#000000" points="203.5,-37.7 203.5,-56.7 224.5,-56.7 224.5,-37.7 203.5,-37.7"/>
<text text-anchor="start" x="206.2027" y="-43.8" font-family="Helvetica,sans-Serif" font-size="11.00" fill="#000000">&lt; 1</text>
<polygon fill="#ffffff" stroke="transparent" points="224.5,-37.7 224.5,-56.7 274.5,-56.7 274.5,-37.7 224.5,-37.7"/>
<polygon fill="none" stroke="#000000" points="224.5,-37.7 224.5,-56.7 274.5,-56.7 274.5,-37.7 224.5,-37.7"/>
<text text-anchor="start" x="227.1904" y="-43.8" font-family="Helvetica,sans-Serif" font-size="11.00" fill="#000000">493 rows</text>
<polygon fill="#ffffff" stroke="transparent" points="274.5,-37.7 274.5,-56.7 295.5,-56.7 295.5,-37.7 274.5,-37.7"/>
<polygon fill="none" stroke="#000000" points="274.5,-37.7 274.5,-56.7 295.5,-56.7 295.5,-37.7 274.5,-37.7"/>
<text text-anchor="start" x="277.2027" y="-43.8" font-family="Helvetica,sans-Serif" font-size="11.00" fill="#000000">3 &gt;</text>
</a>
</g>
</g>
<!-- auth_entity_to_plan&#45;&gt;plan -->
<g id="edge5" class="edge">
<title>auth_entity_to_plan:w&#45;&gt;plan:e</title>
<path fill="none" stroke="#000000" d="M393.038,-202.5907C362.8017,-192.2838 374.7407,-146.3922 347,-113.7 326.7558,-89.8424 326.7892,-65.7 295.5,-65.7"/>
<polygon fill="#000000" stroke="#000000" points="399.5838,-203.5454 406.9804,-208.2623 403.5419,-204.1227 407.5,-204.7 407.5,-204.7 407.5,-204.7 403.5419,-204.1227 408.0196,-201.1377 399.5838,-203.5454 399.5838,-203.5454"/>
<ellipse fill="none" stroke="#000000" cx="396.4173" cy="-203.0835" rx="3.2" ry="3.2"/>
</g>
<!-- policy -->
<g id="node8" class="node">
<title>policy</title>
<g id="a_node8"><a xlink:href="../../tables/policy.html" xlink:title="policy" target="_top">
<polygon fill="#ffffff" stroke="transparent" points="10.5,-96.2 10.5,-157.2 108.5,-157.2 108.5,-96.2 10.5,-96.2"/>
<polygon fill="#f5f5f5" stroke="transparent" points="10.5,-133.7 10.5,-156.7 108.5,-156.7 108.5,-133.7 10.5,-133.7"/>
<polygon fill="none" stroke="#000000" points="10.5,-133.7 10.5,-156.7 108.5,-156.7 108.5,-133.7 10.5,-133.7"/>
<text text-anchor="start" x="15.5" y="-142.8" font-family="Helvetica,sans-Serif" font-weight="bold" font-size="11.00" fill="#000000">policy</text>
<text text-anchor="start" x="73.5437" y="-141.8" font-family="Helvetica,sans-Serif" font-size="11.00" fill="#000000">[table]</text>
<polygon fill="none" stroke="#000000" points="10.5,-114.7 10.5,-133.7 108.5,-133.7 108.5,-114.7 10.5,-114.7"/>
<text text-anchor="start" x="13.5" y="-120.8" font-family="Helvetica,sans-Serif" font-size="11.00" fill="#000000">...</text>
<polygon fill="#ffffff" stroke="transparent" points="10.5,-95.7 10.5,-114.7 22.5,-114.7 22.5,-95.7 10.5,-95.7"/>
<polygon fill="none" stroke="#000000" points="10.5,-95.7 10.5,-114.7 22.5,-114.7 22.5,-95.7 10.5,-95.7"/>
<text text-anchor="start" x="13.4431" y="-101.8" font-family="Helvetica,sans-Serif" font-size="11.00" fill="#000000"> &#160;</text>
<polygon fill="#ffffff" stroke="transparent" points="22.5,-95.7 22.5,-114.7 87.5,-114.7 87.5,-95.7 22.5,-95.7"/>
<polygon fill="none" stroke="#000000" points="22.5,-95.7 22.5,-114.7 87.5,-114.7 87.5,-95.7 22.5,-95.7"/>
<text text-anchor="start" x="25.047" y="-101.8" font-family="Helvetica,sans-Serif" font-size="11.00" fill="#000000">40,812 rows</text>
<polygon fill="#ffffff" stroke="transparent" points="87.5,-95.7 87.5,-114.7 108.5,-114.7 108.5,-95.7 87.5,-95.7"/>
<polygon fill="none" stroke="#000000" points="87.5,-95.7 87.5,-114.7 108.5,-114.7 108.5,-95.7 87.5,-95.7"/>
<text text-anchor="start" x="90.2027" y="-101.8" font-family="Helvetica,sans-Serif" font-size="11.00" fill="#000000">8 &gt;</text>
</a>
</g>
</g>
<!-- plan&#45;&gt;policy -->
<g id="edge17" class="edge">
<title>plan:w&#45;&gt;policy:e</title>
<path fill="none" stroke="#000000" d="M189.0449,-67.6298C154.2534,-77.6937 152.5586,-123.7 108.5,-123.7"/>
<polygon fill="#000000" stroke="#000000" points="195.5703,-66.7587 203.9764,-69.2683 199.5352,-66.2293 203.5,-65.7 203.5,-65.7 203.5,-65.7 199.5352,-66.2293 203.0236,-62.1317 195.5703,-66.7587 195.5703,-66.7587"/>
<ellipse fill="none" stroke="#000000" cx="192.3985" cy="-67.1821" rx="3.2" ry="3.2"/>
</g>
<!-- auth_entity_to_policy -->
<g id="node7" class="node">
<title>auth_entity_to_policy</title>
<g id="a_node7"><a xlink:href="../../tables/auth_entity_to_policy.html" xlink:title="auth_entity_to_policy" target="_top">
<polygon fill="#ffffff" stroke="transparent" points="403.5,-359.7 403.5,-445.7 549.5,-445.7 549.5,-359.7 403.5,-359.7"/>
<polygon fill="#f5f5f5" stroke="transparent" points="403.5,-422.7 403.5,-445.7 549.5,-445.7 549.5,-422.7 403.5,-422.7"/>
<polygon fill="none" stroke="#000000" points="403.5,-422.7 403.5,-445.7 549.5,-445.7 549.5,-422.7 403.5,-422.7"/>
<text text-anchor="start" x="408.3429" y="-431.8" font-family="Helvetica,sans-Serif" font-weight="bold" font-size="11.00" fill="#000000">auth_entity_to_policy</text>
<text text-anchor="start" x="515.0219" y="-430.8" font-family="Helvetica,sans-Serif" font-size="11.00" fill="#000000">[table]</text>
<polygon fill="none" stroke="#000000" points="403.5,-400.7 403.5,-422.7 549.5,-422.7 549.5,-400.7 403.5,-400.7"/>
<image xlink:href="../../images/primaryKeys.png" width="11px" height="12px" preserveAspectRatio="xMinYMin meet" x="408.5" y="-417.7"/>
<text text-anchor="start" x="424.5" y="-407.8" font-family="Helvetica,sans-Serif" font-size="11.00" fill="#000000">auth_entity</text>
<polygon fill="none" stroke="#000000" points="403.5,-378.7 403.5,-400.7 549.5,-400.7 549.5,-378.7 403.5,-378.7"/>
<image xlink:href="../../images/primaryKeys.png" width="11px" height="12px" preserveAspectRatio="xMinYMin meet" x="408.5" y="-395.7"/>
<text text-anchor="start" x="424.5" y="-385.8" font-family="Helvetica,sans-Serif" font-size="11.00" fill="#000000">policy</text>
<polygon fill="#ffffff" stroke="transparent" points="403.5,-359.7 403.5,-378.7 448.5,-378.7 448.5,-359.7 403.5,-359.7"/>
<polygon fill="none" stroke="#000000" points="403.5,-359.7 403.5,-378.7 448.5,-378.7 448.5,-359.7 403.5,-359.7"/>
<text text-anchor="start" x="406.5" y="-365.8" font-family="Helvetica,sans-Serif" font-size="11.00" fill="#000000">&lt; 2</text>
<polygon fill="#ffffff" stroke="transparent" points="448.5,-359.7 448.5,-378.7 525.5,-378.7 525.5,-359.7 448.5,-359.7"/>
<polygon fill="none" stroke="#000000" points="448.5,-359.7 448.5,-378.7 525.5,-378.7 525.5,-359.7 448.5,-359.7"/>
<text text-anchor="start" x="462.594" y="-365.8" font-family="Helvetica,sans-Serif" font-size="11.00" fill="#000000">41,840 rows</text>
<polygon fill="#ffffff" stroke="transparent" points="525.5,-359.7 525.5,-378.7 549.5,-378.7 549.5,-359.7 525.5,-359.7"/>
<polygon fill="none" stroke="#000000" points="525.5,-359.7 525.5,-378.7 549.5,-378.7 549.5,-359.7 525.5,-359.7"/>
<text text-anchor="start" x="540.3862" y="-365.8" font-family="Helvetica,sans-Serif" font-size="11.00" fill="#000000"> &#160;</text>
</a>
</g>
</g>
<!-- auth_entity_to_policy&#45;&gt;auth_entity -->
<g id="edge6" class="edge">
<title>auth_entity_to_policy:w&#45;&gt;auth_entity:e</title>
<path fill="none" stroke="#000000" d="M389.1372,-414.558C348.6231,-433.7154 396.9642,-542.7 337.5,-542.7"/>
<polygon fill="#000000" stroke="#000000" points="395.6538,-413.2613 404.2026,-415.2308 399.5769,-412.4806 403.5,-411.7 403.5,-411.7 403.5,-411.7 399.5769,-412.4806 402.7974,-408.1692 395.6538,-413.2613 395.6538,-413.2613"/>
<ellipse fill="none" stroke="#000000" cx="392.5154" cy="-413.8858" rx="3.2" ry="3.2"/>
</g>
<!-- auth_entity_to_policy&#45;&gt;policy -->
<g id="edge7" class="edge">
<title>auth_entity_to_policy:w&#45;&gt;policy:e</title>
<path fill="none" stroke="#000000" d="M389.0254,-388.5578C301.8703,-373.2707 430.3605,-208.5479 347,-137.7 306.5457,-103.3179 161.5912,-123.7 108.5,-123.7"/>
<polygon fill="#000000" stroke="#000000" points="395.5248,-389.0706 403.2168,-393.2888 399.5124,-389.3853 403.5,-389.7 403.5,-389.7 403.5,-389.7 399.5124,-389.3853 403.7832,-386.1112 395.5248,-389.0706 395.5248,-389.0706"/>
<ellipse fill="none" stroke="#000000" cx="392.3347" cy="-388.8189" rx="3.2" ry="3.2"/>
</g>
<!-- max_min_policy_count -->
<g id="node9" class="node">
<title>max_min_policy_count</title>
<g id="a_node9"><a xlink:href="../../tables/max_min_policy_count.html" xlink:title="max_min_policy_count" target="_top">
<polygon fill="#ffffff" stroke="transparent" points="172.5,-340.2 172.5,-401.2 326.5,-401.2 326.5,-340.2 172.5,-340.2"/>
<polygon fill="#f5f5f5" stroke="transparent" points="172.5,-377.7 172.5,-400.7 326.5,-400.7 326.5,-377.7 172.5,-377.7"/>
<polygon fill="none" stroke="#000000" points="172.5,-377.7 172.5,-400.7 326.5,-400.7 326.5,-377.7 172.5,-377.7"/>
<text text-anchor="start" x="177.0738" y="-386.8" font-family="Helvetica,sans-Serif" font-weight="bold" font-size="11.00" fill="#000000">max_min_policy_count</text>
<text text-anchor="start" x="292.0219" y="-385.8" font-family="Helvetica,sans-Serif" font-size="11.00" fill="#000000">[table]</text>
<polygon fill="none" stroke="#000000" points="172.5,-358.7 172.5,-377.7 326.5,-377.7 326.5,-358.7 172.5,-358.7"/>
<text text-anchor="start" x="175.5" y="-364.8" font-family="Helvetica,sans-Serif" font-size="11.00" fill="#000000">...</text>
<polygon fill="#ffffff" stroke="transparent" points="172.5,-339.7 172.5,-358.7 234.5,-358.7 234.5,-339.7 172.5,-339.7"/>
<polygon fill="none" stroke="#000000" points="172.5,-339.7 172.5,-358.7 234.5,-358.7 234.5,-339.7 172.5,-339.7"/>
<text text-anchor="start" x="175.5" y="-345.8" font-family="Helvetica,sans-Serif" font-size="11.00" fill="#000000">&lt; 2</text>
<polygon fill="#ffffff" stroke="transparent" points="234.5,-339.7 234.5,-358.7 293.5,-358.7 293.5,-339.7 234.5,-339.7"/>
<polygon fill="none" stroke="#000000" points="234.5,-339.7 234.5,-358.7 293.5,-358.7 293.5,-339.7 234.5,-339.7"/>
<text text-anchor="start" x="258.1105" y="-345.8" font-family="Helvetica,sans-Serif" font-size="11.00" fill="#000000">4 rows</text>
<polygon fill="#ffffff" stroke="transparent" points="293.5,-339.7 293.5,-358.7 326.5,-358.7 326.5,-339.7 293.5,-339.7"/>
<polygon fill="none" stroke="#000000" points="293.5,-339.7 293.5,-358.7 326.5,-358.7 326.5,-339.7 293.5,-339.7"/>
<text text-anchor="start" x="317.3862" y="-345.8" font-family="Helvetica,sans-Serif" font-size="11.00" fill="#000000"> &#160;</text>
</a>
</g>
</g>
<!-- max_min_policy_count&#45;&gt;place -->
<g id="edge8" class="edge">
<title>max_min_policy_count:w&#45;&gt;place:e</title>
<path fill="none" stroke="#000000" d="M158.1552,-364.7864C141.7965,-361.9476 133.1042,-362.9188 111.5,-367.7"/>
<polygon fill="#000000" stroke="#000000" points="164.6601,-366.1076 171.7834,-371.228 168.58,-366.9038 172.5,-367.7 172.5,-367.7 172.5,-367.7 168.58,-366.9038 173.2166,-364.172 164.6601,-366.1076 164.6601,-366.1076"/>
<ellipse fill="none" stroke="#000000" cx="161.5241" cy="-365.4706" rx="3.2" ry="3.2"/>
</g>
<!-- max_min_policy_count&#45;&gt;place -->
<g id="edge9" class="edge">
<title>max_min_policy_count:w&#45;&gt;place:e</title>
<path fill="none" stroke="#000000" d="M158.1552,-371.0992C141.7965,-374.4112 133.1042,-373.2781 111.5,-367.7"/>
<polygon fill="#000000" stroke="#000000" points="164.7156,-369.5447 173.3301,-371.203 168.6078,-368.6223 172.5,-367.7 172.5,-367.7 172.5,-367.7 168.6078,-368.6223 171.6699,-364.197 164.7156,-369.5447 164.7156,-369.5447"/>
<ellipse fill="none" stroke="#000000" cx="161.6018" cy="-370.2825" rx="3.2" ry="3.2"/>
</g>
<!-- observation -->
<g id="node10" class="node">
<title>observation</title>
<g id="a_node10"><a xlink:href="../../tables/observation.html" xlink:title="observation" target="_top">
<polygon fill="#ffffff" stroke="transparent" points="200,-258.2 200,-319.2 299,-319.2 299,-258.2 200,-258.2"/>
<polygon fill="#f5f5f5" stroke="transparent" points="200.5,-295.7 200.5,-318.7 299.5,-318.7 299.5,-295.7 200.5,-295.7"/>
<polygon fill="none" stroke="#000000" points="200.5,-295.7 200.5,-318.7 299.5,-318.7 299.5,-295.7 200.5,-295.7"/>
<text text-anchor="start" x="205.0755" y="-304.8" font-family="Helvetica,sans-Serif" font-weight="bold" font-size="11.00" fill="#000000">observation</text>
<text text-anchor="start" x="265.0219" y="-303.8" font-family="Helvetica,sans-Serif" font-size="11.00" fill="#000000">[table]</text>
<polygon fill="none" stroke="#000000" points="200.5,-276.7 200.5,-295.7 299.5,-295.7 299.5,-276.7 200.5,-276.7"/>
<text text-anchor="start" x="203.5" y="-282.8" font-family="Helvetica,sans-Serif" font-size="11.00" fill="#000000">...</text>
<polygon fill="#ffffff" stroke="transparent" points="200.5,-257.7 200.5,-276.7 221.5,-276.7 221.5,-257.7 200.5,-257.7"/>
<polygon fill="none" stroke="#000000" points="200.5,-257.7 200.5,-276.7 221.5,-276.7 221.5,-257.7 200.5,-257.7"/>
<text text-anchor="start" x="203.2027" y="-263.8" font-family="Helvetica,sans-Serif" font-size="11.00" fill="#000000">&lt; 1</text>
<polygon fill="#ffffff" stroke="transparent" points="221.5,-257.7 221.5,-276.7 286.5,-276.7 286.5,-257.7 221.5,-257.7"/>
<polygon fill="none" stroke="#000000" points="221.5,-257.7 221.5,-276.7 286.5,-276.7 286.5,-257.7 221.5,-257.7"/>
<text text-anchor="start" x="224.047" y="-263.8" font-family="Helvetica,sans-Serif" font-size="11.00" fill="#000000">62,656 rows</text>
<polygon fill="#ffffff" stroke="transparent" points="286.5,-257.7 286.5,-276.7 299.5,-276.7 299.5,-257.7 286.5,-257.7"/>
<polygon fill="none" stroke="#000000" points="286.5,-257.7 286.5,-276.7 299.5,-276.7 299.5,-257.7 286.5,-257.7"/>
<text text-anchor="start" x="290.3862" y="-263.8" font-family="Helvetica,sans-Serif" font-size="11.00" fill="#000000"> &#160;</text>
</a>
</g>
</g>
<!-- observation&#45;&gt;place -->
<g id="edge10" class="edge">
<title>observation:w&#45;&gt;place:e</title>
<path fill="none" stroke="#000000" d="M186.1574,-288.4621C171.2413,-295.3705 169.0458,-313.9732 152,-329.7 133.859,-346.4373 136.1827,-367.7 111.5,-367.7"/>
<polygon fill="#000000" stroke="#000000" points="192.6443,-287.2129 201.1808,-289.235 196.5722,-286.4564 200.5,-285.7 200.5,-285.7 200.5,-285.7 196.5722,-286.4564 199.8192,-282.165 192.6443,-287.2129 192.6443,-287.2129"/>
<ellipse fill="none" stroke="#000000" cx="189.5021" cy="-287.818" rx="3.2" ry="3.2"/>
</g>
<!-- place_policy_number -->
<g id="node11" class="node">
<title>place_policy_number</title>
<g id="a_node11"><a xlink:href="../../tables/place_policy_number.html" xlink:title="place_policy_number" target="_top">
<polygon fill="#ffffff" stroke="transparent" points="403.5,-629.2 403.5,-690.2 549.5,-690.2 549.5,-629.2 403.5,-629.2"/>
<polygon fill="#f5f5f5" stroke="transparent" points="403.5,-666.7 403.5,-689.7 549.5,-689.7 549.5,-666.7 403.5,-666.7"/>
<polygon fill="none" stroke="#000000" points="403.5,-666.7 403.5,-689.7 549.5,-689.7 549.5,-666.7 403.5,-666.7"/>
<text text-anchor="start" x="408.0448" y="-675.8" font-family="Helvetica,sans-Serif" font-weight="bold" font-size="11.00" fill="#000000">place_policy_number</text>
<text text-anchor="start" x="515.0219" y="-674.8" font-family="Helvetica,sans-Serif" font-size="11.00" fill="#000000">[table]</text>
<polygon fill="none" stroke="#000000" points="403.5,-647.7 403.5,-666.7 549.5,-666.7 549.5,-647.7 403.5,-647.7"/>
<text text-anchor="start" x="406.5" y="-653.8" font-family="Helvetica,sans-Serif" font-size="11.00" fill="#000000">...</text>
<polygon fill="#ffffff" stroke="transparent" points="403.5,-628.7 403.5,-647.7 448.5,-647.7 448.5,-628.7 403.5,-628.7"/>
<polygon fill="none" stroke="#000000" points="403.5,-628.7 403.5,-647.7 448.5,-647.7 448.5,-628.7 403.5,-628.7"/>
<text text-anchor="start" x="406.5" y="-634.8" font-family="Helvetica,sans-Serif" font-size="11.00" fill="#000000">&lt; 2</text>
<polygon fill="#ffffff" stroke="transparent" points="448.5,-628.7 448.5,-647.7 525.5,-647.7 525.5,-628.7 448.5,-628.7"/>
<polygon fill="none" stroke="#000000" points="448.5,-628.7 448.5,-647.7 525.5,-647.7 525.5,-628.7 448.5,-628.7"/>
<text text-anchor="start" x="462.594" y="-634.8" font-family="Helvetica,sans-Serif" font-size="11.00" fill="#000000">32,150 rows</text>
<polygon fill="#ffffff" stroke="transparent" points="525.5,-628.7 525.5,-647.7 549.5,-647.7 549.5,-628.7 525.5,-628.7"/>
<polygon fill="none" stroke="#000000" points="525.5,-628.7 525.5,-647.7 549.5,-647.7 549.5,-628.7 525.5,-628.7"/>
<text text-anchor="start" x="540.3862" y="-634.8" font-family="Helvetica,sans-Serif" font-size="11.00" fill="#000000"> &#160;</text>
</a>
</g>
</g>
<!-- place_policy_number&#45;&gt;place -->
<g id="edge11" class="edge">
<title>place_policy_number:w&#45;&gt;place:e</title>
<path fill="none" stroke="#000000" d="M389.0548,-658.1623C374.4329,-661.3957 367.127,-669.0738 347,-671.7 261.0618,-682.9135 217.2035,-728.793 152,-671.7 100.7256,-626.8036 179.6524,-367.7 111.5,-367.7"/>
<polygon fill="#000000" stroke="#000000" points="395.5407,-657.5058 403.8626,-660.2817 399.5203,-657.1029 403.5,-656.7 403.5,-656.7 403.5,-656.7 399.5203,-657.1029 403.1374,-653.1183 395.5407,-657.5058 395.5407,-657.5058"/>
<ellipse fill="none" stroke="#000000" cx="392.3569" cy="-657.8281" rx="3.2" ry="3.2"/>
</g>
<!-- place_policy_number&#45;&gt;policy_number -->
<g id="edge12" class="edge">
<title>place_policy_number:w&#45;&gt;policy_number:e</title>
<path fill="none" stroke="#000000" d="M389.1237,-655.5986C356.3395,-650.3014 346.2235,-627.7 306.5,-627.7"/>
<polygon fill="#000000" stroke="#000000" points="395.5234,-656.0888 403.225,-660.2895 399.5117,-656.3944 403.5,-656.7 403.5,-656.7 403.5,-656.7 399.5117,-656.3944 403.775,-653.1105 395.5234,-656.0888 395.5234,-656.0888"/>
<ellipse fill="none" stroke="#000000" cx="392.3327" cy="-655.8444" rx="3.2" ry="3.2"/>
</g>
<!-- place_to_plan -->
<g id="node12" class="node">
<title>place_to_plan</title>
<g id="a_node12"><a xlink:href="../../tables/place_to_plan.html" xlink:title="place_to_plan" target="_top">
<polygon fill="#ffffff" stroke="transparent" points="421,-57.2 421,-118.2 532,-118.2 532,-57.2 421,-57.2"/>
<polygon fill="#f5f5f5" stroke="transparent" points="421.5,-94.7 421.5,-117.7 532.5,-117.7 532.5,-94.7 421.5,-94.7"/>
<polygon fill="none" stroke="#000000" points="421.5,-94.7 421.5,-117.7 532.5,-117.7 532.5,-94.7 421.5,-94.7"/>
<text text-anchor="start" x="426.2636" y="-103.8" font-family="Helvetica,sans-Serif" font-weight="bold" font-size="11.00" fill="#000000">place_to_plan</text>
<text text-anchor="start" x="498.0219" y="-102.8" font-family="Helvetica,sans-Serif" font-size="11.00" fill="#000000">[table]</text>
<polygon fill="none" stroke="#000000" points="421.5,-75.7 421.5,-94.7 532.5,-94.7 532.5,-75.7 421.5,-75.7"/>
<text text-anchor="start" x="424.5" y="-81.8" font-family="Helvetica,sans-Serif" font-size="11.00" fill="#000000">...</text>
<polygon fill="#ffffff" stroke="transparent" points="421.5,-56.7 421.5,-75.7 456.5,-75.7 456.5,-56.7 421.5,-56.7"/>
<polygon fill="none" stroke="#000000" points="421.5,-56.7 421.5,-75.7 456.5,-75.7 456.5,-56.7 421.5,-56.7"/>
<text text-anchor="start" x="424.5" y="-62.8" font-family="Helvetica,sans-Serif" font-size="11.00" fill="#000000">&lt; 2</text>
<polygon fill="#ffffff" stroke="transparent" points="456.5,-56.7 456.5,-75.7 513.5,-75.7 513.5,-56.7 456.5,-56.7"/>
<polygon fill="none" stroke="#000000" points="456.5,-56.7 456.5,-75.7 513.5,-75.7 513.5,-56.7 456.5,-56.7"/>
<text text-anchor="start" x="465.8807" y="-62.8" font-family="Helvetica,sans-Serif" font-size="11.00" fill="#000000">493 rows</text>
<polygon fill="#ffffff" stroke="transparent" points="513.5,-56.7 513.5,-75.7 532.5,-75.7 532.5,-56.7 513.5,-56.7"/>
<polygon fill="none" stroke="#000000" points="513.5,-56.7 513.5,-75.7 532.5,-75.7 532.5,-56.7 513.5,-56.7"/>
<text text-anchor="start" x="523.3862" y="-62.8" font-family="Helvetica,sans-Serif" font-size="11.00" fill="#000000"> &#160;</text>
</a>
</g>
</g>
<!-- place_to_plan&#45;&gt;place -->
<g id="edge13" class="edge">
<title>place_to_plan:w&#45;&gt;place:e</title>
<path fill="none" stroke="#000000" d="M407.209,-86.4691C360.3592,-99.7164 398.8676,-183.8661 347,-219.7 274.9641,-269.4676 219.3058,-191.7008 152,-247.7 108.7295,-283.7015 167.7889,-367.7 111.5,-367.7"/>
<polygon fill="#000000" stroke="#000000" points="413.5606,-85.6829 421.9423,-88.2727 417.5303,-85.1914 421.5,-84.7 421.5,-84.7 421.5,-84.7 417.5303,-85.1914 421.0577,-81.1273 413.5606,-85.6829 413.5606,-85.6829"/>
<ellipse fill="none" stroke="#000000" cx="410.3848" cy="-86.076" rx="3.2" ry="3.2"/>
</g>
<!-- place_to_plan&#45;&gt;plan -->
<g id="edge14" class="edge">
<title>place_to_plan:w&#45;&gt;plan:e</title>
<path fill="none" stroke="#000000" d="M406.9456,-84.2491C362.1591,-81.3718 346.9344,-65.7 295.5,-65.7"/>
<polygon fill="#000000" stroke="#000000" points="413.5038,-84.4522 421.3885,-88.2983 417.5019,-84.5761 421.5,-84.7 421.5,-84.7 421.5,-84.7 417.5019,-84.5761 421.6115,-81.1017 413.5038,-84.4522 413.5038,-84.4522"/>
<ellipse fill="none" stroke="#000000" cx="410.3054" cy="-84.3531" rx="3.2" ry="3.2"/>
</g>
<!-- place_to_policy -->
<g id="node13" class="node">
<title>place_to_policy</title>
<g id="a_node13"><a xlink:href="../../tables/place_to_policy.html" xlink:title="place_to_policy" target="_top">
<polygon fill="#ffffff" stroke="transparent" points="190.5,-148.2 190.5,-209.2 308.5,-209.2 308.5,-148.2 190.5,-148.2"/>
<polygon fill="#f5f5f5" stroke="transparent" points="190.5,-185.7 190.5,-208.7 308.5,-208.7 308.5,-185.7 190.5,-185.7"/>
<polygon fill="none" stroke="#000000" points="190.5,-185.7 190.5,-208.7 308.5,-208.7 308.5,-185.7 190.5,-185.7"/>
<text text-anchor="start" x="195.1006" y="-194.8" font-family="Helvetica,sans-Serif" font-weight="bold" font-size="11.00" fill="#000000">place_to_policy</text>
<text text-anchor="start" x="274.0219" y="-193.8" font-family="Helvetica,sans-Serif" font-size="11.00" fill="#000000">[table]</text>
<polygon fill="none" stroke="#000000" points="190.5,-166.7 190.5,-185.7 308.5,-185.7 308.5,-166.7 190.5,-166.7"/>
<text text-anchor="start" x="193.5" y="-172.8" font-family="Helvetica,sans-Serif" font-size="11.00" fill="#000000">...</text>
<polygon fill="#ffffff" stroke="transparent" points="190.5,-147.7 190.5,-166.7 217.5,-166.7 217.5,-147.7 190.5,-147.7"/>
<polygon fill="none" stroke="#000000" points="190.5,-147.7 190.5,-166.7 217.5,-166.7 217.5,-147.7 190.5,-147.7"/>
<text text-anchor="start" x="193.5" y="-153.8" font-family="Helvetica,sans-Serif" font-size="11.00" fill="#000000">&lt; 2</text>
<polygon fill="#ffffff" stroke="transparent" points="217.5,-147.7 217.5,-166.7 292.5,-166.7 292.5,-147.7 217.5,-147.7"/>
<polygon fill="none" stroke="#000000" points="217.5,-147.7 217.5,-166.7 292.5,-166.7 292.5,-147.7 217.5,-147.7"/>
<text text-anchor="start" x="223.4791" y="-153.8" font-family="Helvetica,sans-Serif" font-size="11.00" fill="#000000">994,786 rows</text>
<polygon fill="#ffffff" stroke="transparent" points="292.5,-147.7 292.5,-166.7 308.5,-166.7 308.5,-147.7 292.5,-147.7"/>
<polygon fill="none" stroke="#000000" points="292.5,-147.7 292.5,-166.7 308.5,-166.7 308.5,-147.7 292.5,-147.7"/>
<text text-anchor="start" x="299.3862" y="-153.8" font-family="Helvetica,sans-Serif" font-size="11.00" fill="#000000"> &#160;</text>
</a>
</g>
</g>
<!-- place_to_policy&#45;&gt;place -->
<g id="edge15" class="edge">
<title>place_to_policy:w&#45;&gt;place:e</title>
<path fill="none" stroke="#000000" d="M176.2281,-178.8583C163.0824,-186.0909 161.7729,-204.7007 152,-223.7 121.5895,-282.8202 177.9831,-367.7 111.5,-367.7"/>
<polygon fill="#000000" stroke="#000000" points="182.689,-177.4286 191.2779,-179.215 186.5945,-176.5643 190.5,-175.7 190.5,-175.7 190.5,-175.7 186.5945,-176.5643 189.7221,-172.185 182.689,-177.4286 182.689,-177.4286"/>
<ellipse fill="none" stroke="#000000" cx="179.5646" cy="-178.12" rx="3.2" ry="3.2"/>
</g>
<!-- place_to_policy&#45;&gt;policy -->
<g id="edge16" class="edge">
<title>place_to_policy:w&#45;&gt;policy:e</title>
<path fill="none" stroke="#000000" d="M175.9741,-173.3305C147.6677,-163.1578 146.0917,-123.7 108.5,-123.7"/>
<polygon fill="#000000" stroke="#000000" points="182.6044,-174.412 189.9204,-179.253 186.5522,-175.056 190.5,-175.7 190.5,-175.7 190.5,-175.7 186.5522,-175.056 191.0796,-172.147 182.6044,-174.412 182.6044,-174.412"/>
<ellipse fill="none" stroke="#000000" cx="179.4461" cy="-173.8968" rx="3.2" ry="3.2"/>
</g>
</g>
</svg>
