<?xml version="1.0" encoding="UTF-8" standalone="no"?>
<!DOCTYPE svg PUBLIC "-//W3C//DTD SVG 1.1//EN"
 "http://www.w3.org/Graphics/SVG/1.1/DTD/svg11.dtd">
<!-- Generated by graphviz version 2.40.1 (20161225.0304)
 -->
<!-- Title: oneDegreeRelationshipsDiagram Pages: 1 -->
<svg width="436pt" height="281pt"
 viewBox="0.00 0.00 436.00 281.20" xmlns="http://www.w3.org/2000/svg" xmlns:xlink="http://www.w3.org/1999/xlink">
<g id="graph0" class="graph" transform="scale(1 1) rotate(0) translate(4 277.2)">
<title>oneDegreeRelationshipsDiagram</title>
<polygon fill="#ffffff" stroke="transparent" points="-4,4 -4,-277.2 432,-277.2 432,4 -4,4"/>
<text text-anchor="middle" x="72.4936" y="-7.3" font-family="Helvetica,sans-Serif" font-size="11.00" fill="#000000">Generated by SchemaSpy</text>
<!-- auth_entity_to_plan -->
<g id="node1" class="node">
<title>auth_entity_to_plan</title>
<g id="a_node1"><a xlink:href="../../tables/auth_entity_to_plan.html" xlink:title="auth_entity_to_plan" target="_top">
<polygon fill="#ffffff" stroke="transparent" points="240,-128.7 240,-218.7 420,-218.7 420,-128.7 240,-128.7"/>
<polygon fill="#f5f5f5" stroke="transparent" points="242,-193.7 242,-216.7 418,-216.7 418,-193.7 242,-193.7"/>
<polygon fill="none" stroke="#000000" points="242,-193.7 242,-216.7 418,-216.7 418,-193.7 242,-193.7"/>
<text text-anchor="start" x="247" y="-202.8" font-family="Helvetica,sans-Serif" font-weight="bold" font-size="11.00" fill="#000000">auth_entity_to_plan</text>
<text text-anchor="start" x="383.0437" y="-201.8" font-family="Helvetica,sans-Serif" font-size="11.00" fill="#000000">[table]</text>
<polygon fill="none" stroke="#000000" points="242,-171.7 242,-193.7 376,-193.7 376,-171.7 242,-171.7"/>
<image xlink:href="../../images/primaryKeys.png" width="11px" height="12px" preserveAspectRatio="xMinYMin meet" x="247" y="-188.7"/>
<text text-anchor="start" x="262" y="-178.8" font-family="Helvetica,sans-Serif" font-size="11.00" fill="#000000">auth_entity</text>
<polygon fill="none" stroke="#000000" points="376,-171.7 376,-193.7 418,-193.7 418,-171.7 376,-171.7"/>
<text text-anchor="start" x="378.9644" y="-179.4" font-family="Helvetica,sans-Serif" font-size="11.00" fill="#000000">int4[10]</text>
<polygon fill="none" stroke="#000000" points="242,-149.7 242,-171.7 376,-171.7 376,-149.7 242,-149.7"/>
<image xlink:href="../../images/primaryKeys.png" width="11px" height="12px" preserveAspectRatio="xMinYMin meet" x="247" y="-166.7"/>
<text text-anchor="start" x="262" y="-156.8" font-family="Helvetica,sans-Serif" font-size="11.00" fill="#000000">plan</text>
<polygon fill="none" stroke="#000000" points="376,-149.7 376,-171.7 418,-171.7 418,-149.7 376,-149.7"/>
<text text-anchor="start" x="378.9644" y="-157.4" font-family="Helvetica,sans-Serif" font-size="11.00" fill="#000000">int4[10]</text>
<polygon fill="#ffffff" stroke="transparent" points="242,-130.7 242,-149.7 294,-149.7 294,-130.7 242,-130.7"/>
<polygon fill="none" stroke="#000000" points="242,-130.7 242,-149.7 294,-149.7 294,-130.7 242,-130.7"/>
<text text-anchor="start" x="245" y="-136.8" font-family="Helvetica,sans-Serif" font-size="11.00" fill="#000000">&lt; 2</text>
<polygon fill="#ffffff" stroke="transparent" points="294,-130.7 294,-149.7 376,-149.7 376,-130.7 294,-130.7"/>
<polygon fill="none" stroke="#000000" points="294,-130.7 294,-149.7 376,-149.7 376,-130.7 294,-130.7"/>
<text text-anchor="start" x="328.3807" y="-136.8" font-family="Helvetica,sans-Serif" font-size="11.00" fill="#000000">493 rows</text>
<polygon fill="#ffffff" stroke="transparent" points="376,-130.7 376,-149.7 418,-149.7 418,-130.7 376,-130.7"/>
<polygon fill="none" stroke="#000000" points="376,-130.7 376,-149.7 418,-149.7 418,-130.7 376,-130.7"/>
<text text-anchor="start" x="399.4053" y="-136.8" font-family="Helvetica,sans-Serif" font-size="11.00" fill="#000000">0 &gt;</text>
<polygon fill="none" stroke="#000000" stroke-width="2" points="241,-129.7 241,-217.7 419,-217.7 419,-129.7 241,-129.7"/>
</a>
</g>
</g>
<!-- auth_entity -->
<g id="node2" class="node">
<title>auth_entity</title>
<g id="a_node2"><a xlink:href="../../tables/auth_entity.html" xlink:title="auth_entity" target="_top">
<polygon fill="#ffffff" stroke="transparent" points="49,-164.2 49,-269.2 150,-269.2 150,-164.2 49,-164.2"/>
<polygon fill="#f5f5f5" stroke="transparent" points="49.5,-245.7 49.5,-268.7 150.5,-268.7 150.5,-245.7 49.5,-245.7"/>
<polygon fill="none" stroke="#000000" points="49.5,-245.7 49.5,-268.7 150.5,-268.7 150.5,-245.7 49.5,-245.7"/>
<text text-anchor="start" x="54.5" y="-254.8" font-family="Helvetica,sans-Serif" font-weight="bold" font-size="11.00" fill="#000000">auth_entity</text>
<text text-anchor="start" x="115.5437" y="-253.8" font-family="Helvetica,sans-Serif" font-size="11.00" fill="#000000">[table]</text>
<polygon fill="none" stroke="#000000" points="49.5,-223.7 49.5,-245.7 150.5,-245.7 150.5,-223.7 49.5,-223.7"/>
<image xlink:href="../../images/primaryKeys.png" width="11px" height="12px" preserveAspectRatio="xMinYMin meet" x="54.5" y="-240.7"/>
<text text-anchor="start" x="77.5" y="-230.8" font-family="Helvetica,sans-Serif" font-size="11.00" fill="#000000">id</text>
<polygon fill="#ffffff" stroke="transparent" points="49.5,-201.7 49.5,-223.7 150.5,-223.7 150.5,-201.7 49.5,-201.7"/>
<polygon fill="none" stroke="#000000" points="49.5,-201.7 49.5,-223.7 150.5,-223.7 150.5,-201.7 49.5,-201.7"/>
<image xlink:href="../../images/foreignKeys.png" width="11px" height="12px" preserveAspectRatio="xMinYMin meet" x="54.5" y="-218.7"/>
<text text-anchor="start" x="77.5" y="-208.8" font-family="Helvetica,sans-Serif" font-size="11.00" fill="#000000">place</text>
<polygon fill="none" stroke="#000000" points="49.5,-182.7 49.5,-201.7 150.5,-201.7 150.5,-182.7 49.5,-182.7"/>
<text text-anchor="start" x="52.5" y="-188.8" font-family="Helvetica,sans-Serif" font-size="11.00" fill="#000000">...</text>
<polygon fill="#ffffff" stroke="transparent" points="49.5,-163.7 49.5,-182.7 70.5,-182.7 70.5,-163.7 49.5,-163.7"/>
<polygon fill="none" stroke="#000000" points="49.5,-163.7 49.5,-182.7 70.5,-182.7 70.5,-163.7 49.5,-163.7"/>
<text text-anchor="start" x="52.2027" y="-169.8" font-family="Helvetica,sans-Serif" font-size="11.00" fill="#000000">&lt; 1</text>
<polygon fill="#ffffff" stroke="transparent" points="70.5,-163.7 70.5,-182.7 129.5,-182.7 129.5,-163.7 70.5,-163.7"/>
<polygon fill="none" stroke="#000000" points="70.5,-163.7 70.5,-182.7 129.5,-182.7 129.5,-163.7 70.5,-163.7"/>
<text text-anchor="start" x="73.1045" y="-169.8" font-family="Helvetica,sans-Serif" font-size="11.00" fill="#000000">2,895 rows</text>
<polygon fill="#ffffff" stroke="transparent" points="129.5,-163.7 129.5,-182.7 150.5,-182.7 150.5,-163.7 129.5,-163.7"/>
<polygon fill="none" stroke="#000000" points="129.5,-163.7 129.5,-182.7 150.5,-182.7 150.5,-163.7 129.5,-163.7"/>
<text text-anchor="start" x="132.2027" y="-169.8" font-family="Helvetica,sans-Serif" font-size="11.00" fill="#000000">3 &gt;</text>
</a>
</g>
</g>
<!-- auth_entity_to_plan&#45;&gt;auth_entity -->
<g id="edge1" class="edge">
<title>auth_entity_to_plan:w&#45;&gt;auth_entity:e</title>
<path fill="none" stroke="#000000" d="M227.41,-184.675C195.035,-194.1734 191.7936,-234.7 150.5,-234.7"/>
<polygon fill="#000000" stroke="#000000" points="234.0723,-183.7732 242.4829,-186.2675 238.0362,-183.2366 242,-182.7 242,-182.7 242,-182.7 238.0362,-183.2366 241.5171,-179.1325 234.0723,-183.7732 234.0723,-183.7732"/>
<ellipse fill="none" stroke="#000000" cx="230.9012" cy="-184.2024" rx="3.2" ry="3.2"/>
</g>
<!-- plan -->
<g id="node3" class="node">
<title>plan</title>
<g id="a_node3"><a xlink:href="../../tables/plan.html" xlink:title="plan" target="_top">
<polygon fill="#ffffff" stroke="transparent" points="8,-38.2 8,-143.2 191,-143.2 191,-38.2 8,-38.2"/>
<polygon fill="#f5f5f5" stroke="transparent" points="8.5,-119.7 8.5,-142.7 191.5,-142.7 191.5,-119.7 8.5,-119.7"/>
<polygon fill="none" stroke="#000000" points="8.5,-119.7 8.5,-142.7 191.5,-142.7 191.5,-119.7 8.5,-119.7"/>
<text text-anchor="start" x="13.5" y="-128.8" font-family="Helvetica,sans-Serif" font-weight="bold" font-size="11.00" fill="#000000">plan</text>
<text text-anchor="start" x="156.5437" y="-127.8" font-family="Helvetica,sans-Serif" font-size="11.00" fill="#000000">[table]</text>
<polygon fill="none" stroke="#000000" points="8.5,-97.7 8.5,-119.7 191.5,-119.7 191.5,-97.7 8.5,-97.7"/>
<image xlink:href="../../images/primaryKeys.png" width="11px" height="12px" preserveAspectRatio="xMinYMin meet" x="13.5" y="-114.7"/>
<text text-anchor="start" x="28.5" y="-104.8" font-family="Helvetica,sans-Serif" font-size="11.00" fill="#000000">id</text>
<polygon fill="#ffffff" stroke="transparent" points="8.5,-75.7 8.5,-97.7 191.5,-97.7 191.5,-75.7 8.5,-75.7"/>
<polygon fill="none" stroke="#000000" points="8.5,-75.7 8.5,-97.7 191.5,-97.7 191.5,-75.7 8.5,-75.7"/>
<image xlink:href="../../images/foreignKeys.png" width="11px" height="12px" preserveAspectRatio="xMinYMin meet" x="13.5" y="-92.7"/>
<text text-anchor="start" x="28.5" y="-82.8" font-family="Helvetica,sans-Serif" font-size="11.00" fill="#000000">policy</text>
<polygon fill="none" stroke="#000000" points="8.5,-56.7 8.5,-75.7 191.5,-75.7 191.5,-56.7 8.5,-56.7"/>
<text text-anchor="start" x="11.5" y="-62.8" font-family="Helvetica,sans-Serif" font-size="11.00" fill="#000000">...</text>
<polygon fill="#ffffff" stroke="transparent" points="8.5,-37.7 8.5,-56.7 74.5,-56.7 74.5,-37.7 8.5,-37.7"/>
<polygon fill="none" stroke="#000000" points="8.5,-37.7 8.5,-56.7 74.5,-56.7 74.5,-37.7 8.5,-37.7"/>
<text text-anchor="start" x="11.5" y="-43.8" font-family="Helvetica,sans-Serif" font-size="11.00" fill="#000000">&lt; 1</text>
<polygon fill="#ffffff" stroke="transparent" points="74.5,-37.7 74.5,-56.7 147.5,-56.7 147.5,-37.7 74.5,-37.7"/>
<polygon fill="none" stroke="#000000" points="74.5,-37.7 74.5,-56.7 147.5,-56.7 147.5,-37.7 74.5,-37.7"/>
<text text-anchor="start" x="99.8807" y="-43.8" font-family="Helvetica,sans-Serif" font-size="11.00" fill="#000000">493 rows</text>
<polygon fill="#ffffff" stroke="transparent" points="147.5,-37.7 147.5,-56.7 191.5,-56.7 191.5,-37.7 147.5,-37.7"/>
<polygon fill="none" stroke="#000000" points="147.5,-37.7 147.5,-56.7 191.5,-56.7 191.5,-37.7 147.5,-37.7"/>
<text text-anchor="start" x="172.9053" y="-43.8" font-family="Helvetica,sans-Serif" font-size="11.00" fill="#000000">3 &gt;</text>
</a>
</g>
</g>
<!-- auth_entity_to_plan&#45;&gt;plan -->
<g id="edge2" class="edge">
<title>auth_entity_to_plan:w&#45;&gt;plan:e</title>
<path fill="none" stroke="#000000" d="M228.1372,-155.9012C213.3861,-143.0281 217.6756,-108.7 191.5,-108.7"/>
<polygon fill="#000000" stroke="#000000" points="234.4401,-158.083 240.8223,-164.1019 238.2201,-159.3915 242,-160.7 242,-160.7 242,-160.7 238.2201,-159.3915 243.1777,-157.2981 234.4401,-158.083 234.4401,-158.083"/>
<ellipse fill="none" stroke="#000000" cx="231.4162" cy="-157.0362" rx="3.2" ry="3.2"/>
</g>
</g>
</svg>
