<?xml version="1.0" encoding="UTF-8" standalone="no"?>
<!DOCTYPE svg PUBLIC "-//W3C//DTD SVG 1.1//EN"
 "http://www.w3.org/Graphics/SVG/1.1/DTD/svg11.dtd">
<!-- Generated by graphviz version 2.40.1 (20161225.0304)
 -->
<!-- Title: oneDegreeRelationshipsDiagram Pages: 1 -->
<svg width="478pt" height="259pt"
 viewBox="0.00 0.00 478.00 259.20" xmlns="http://www.w3.org/2000/svg" xmlns:xlink="http://www.w3.org/1999/xlink">
<g id="graph0" class="graph" transform="scale(1 1) rotate(0) translate(4 255.2)">
<title>oneDegreeRelationshipsDiagram</title>
<polygon fill="#ffffff" stroke="transparent" points="-4,4 -4,-255.2 474,-255.2 474,4 -4,4"/>
<text text-anchor="middle" x="72.4936" y="-7.3" font-family="Helvetica,sans-Serif" font-size="11.00" fill="#000000">Generated by SchemaSpy</text>
<!-- auth_entity_policy_number -->
<g id="node1" class="node">
<title>auth_entity_policy_number</title>
<g id="a_node1"><a xlink:href="../../tables/auth_entity_policy_number.html" xlink:title="auth_entity_policy_number" target="_top">
<polygon fill="#ffffff" stroke="transparent" points="239,-106.7 239,-196.7 462,-196.7 462,-106.7 239,-106.7"/>
<polygon fill="#f5f5f5" stroke="transparent" points="241.5,-171.7 241.5,-194.7 460.5,-194.7 460.5,-171.7 241.5,-171.7"/>
<polygon fill="none" stroke="#000000" points="241.5,-171.7 241.5,-194.7 460.5,-194.7 460.5,-171.7 241.5,-171.7"/>
<text text-anchor="start" x="246.5" y="-180.8" font-family="Helvetica,sans-Serif" font-weight="bold" font-size="11.00" fill="#000000">auth_entity_policy_number</text>
<text text-anchor="start" x="425.5437" y="-179.8" font-family="Helvetica,sans-Serif" font-size="11.00" fill="#000000">[table]</text>
<polygon fill="none" stroke="#000000" points="241.5,-149.7 241.5,-171.7 418.5,-171.7 418.5,-149.7 241.5,-149.7"/>
<image xlink:href="../../images/primaryKeys.png" width="11px" height="12px" preserveAspectRatio="xMinYMin meet" x="246.5" y="-166.7"/>
<text text-anchor="start" x="261.5" y="-156.8" font-family="Helvetica,sans-Serif" font-size="11.00" fill="#000000">auth_entity</text>
<polygon fill="none" stroke="#000000" points="418.5,-149.7 418.5,-171.7 460.5,-171.7 460.5,-149.7 418.5,-149.7"/>
<text text-anchor="start" x="421.4644" y="-157.4" font-family="Helvetica,sans-Serif" font-size="11.00" fill="#000000">int4[10]</text>
<polygon fill="none" stroke="#000000" points="241.5,-127.7 241.5,-149.7 418.5,-149.7 418.5,-127.7 241.5,-127.7"/>
<image xlink:href="../../images/primaryKeys.png" width="11px" height="12px" preserveAspectRatio="xMinYMin meet" x="246.5" y="-144.7"/>
<text text-anchor="start" x="261.5" y="-134.8" font-family="Helvetica,sans-Serif" font-size="11.00" fill="#000000">policy_number</text>
<polygon fill="none" stroke="#000000" points="418.5,-127.7 418.5,-149.7 460.5,-149.7 460.5,-127.7 418.5,-127.7"/>
<text text-anchor="start" x="421.4644" y="-135.4" font-family="Helvetica,sans-Serif" font-size="11.00" fill="#000000">int4[10]</text>
<polygon fill="#ffffff" stroke="transparent" points="241.5,-108.7 241.5,-127.7 307.5,-127.7 307.5,-108.7 241.5,-108.7"/>
<polygon fill="none" stroke="#000000" points="241.5,-108.7 241.5,-127.7 307.5,-127.7 307.5,-108.7 241.5,-108.7"/>
<text text-anchor="start" x="244.5" y="-114.8" font-family="Helvetica,sans-Serif" font-size="11.00" fill="#000000">&lt; 2</text>
<polygon fill="#ffffff" stroke="transparent" points="307.5,-108.7 307.5,-127.7 418.5,-127.7 418.5,-108.7 307.5,-108.7"/>
<polygon fill="none" stroke="#000000" points="307.5,-108.7 307.5,-127.7 418.5,-127.7 418.5,-108.7 307.5,-108.7"/>
<text text-anchor="start" x="355.594" y="-114.8" font-family="Helvetica,sans-Serif" font-size="11.00" fill="#000000">18,176 rows</text>
<polygon fill="#ffffff" stroke="transparent" points="418.5,-108.7 418.5,-127.7 460.5,-127.7 460.5,-108.7 418.5,-108.7"/>
<polygon fill="none" stroke="#000000" points="418.5,-108.7 418.5,-127.7 460.5,-127.7 460.5,-108.7 418.5,-108.7"/>
<text text-anchor="start" x="441.9053" y="-114.8" font-family="Helvetica,sans-Serif" font-size="11.00" fill="#000000">0 &gt;</text>
<polygon fill="none" stroke="#000000" stroke-width="2" points="240,-107.7 240,-195.7 461,-195.7 461,-107.7 240,-107.7"/>
</a>
</g>
</g>
<!-- auth_entity -->
<g id="node2" class="node">
<title>auth_entity</title>
<g id="a_node2"><a xlink:href="../../tables/auth_entity.html" xlink:title="auth_entity" target="_top">
<polygon fill="#ffffff" stroke="transparent" points="48.5,-142.2 48.5,-247.2 149.5,-247.2 149.5,-142.2 48.5,-142.2"/>
<polygon fill="#f5f5f5" stroke="transparent" points="49,-223.7 49,-246.7 150,-246.7 150,-223.7 49,-223.7"/>
<polygon fill="none" stroke="#000000" points="49,-223.7 49,-246.7 150,-246.7 150,-223.7 49,-223.7"/>
<text text-anchor="start" x="54" y="-232.8" font-family="Helvetica,sans-Serif" font-weight="bold" font-size="11.00" fill="#000000">auth_entity</text>
<text text-anchor="start" x="115.0437" y="-231.8" font-family="Helvetica,sans-Serif" font-size="11.00" fill="#000000">[table]</text>
<polygon fill="none" stroke="#000000" points="49,-201.7 49,-223.7 150,-223.7 150,-201.7 49,-201.7"/>
<image xlink:href="../../images/primaryKeys.png" width="11px" height="12px" preserveAspectRatio="xMinYMin meet" x="54" y="-218.7"/>
<text text-anchor="start" x="77" y="-208.8" font-family="Helvetica,sans-Serif" font-size="11.00" fill="#000000">id</text>
<polygon fill="#ffffff" stroke="transparent" points="49,-179.7 49,-201.7 150,-201.7 150,-179.7 49,-179.7"/>
<polygon fill="none" stroke="#000000" points="49,-179.7 49,-201.7 150,-201.7 150,-179.7 49,-179.7"/>
<image xlink:href="../../images/foreignKeys.png" width="11px" height="12px" preserveAspectRatio="xMinYMin meet" x="54" y="-196.7"/>
<text text-anchor="start" x="77" y="-186.8" font-family="Helvetica,sans-Serif" font-size="11.00" fill="#000000">place</text>
<polygon fill="none" stroke="#000000" points="49,-160.7 49,-179.7 150,-179.7 150,-160.7 49,-160.7"/>
<text text-anchor="start" x="52" y="-166.8" font-family="Helvetica,sans-Serif" font-size="11.00" fill="#000000">...</text>
<polygon fill="#ffffff" stroke="transparent" points="49,-141.7 49,-160.7 70,-160.7 70,-141.7 49,-141.7"/>
<polygon fill="none" stroke="#000000" points="49,-141.7 49,-160.7 70,-160.7 70,-141.7 49,-141.7"/>
<text text-anchor="start" x="51.7027" y="-147.8" font-family="Helvetica,sans-Serif" font-size="11.00" fill="#000000">&lt; 1</text>
<polygon fill="#ffffff" stroke="transparent" points="70,-141.7 70,-160.7 129,-160.7 129,-141.7 70,-141.7"/>
<polygon fill="none" stroke="#000000" points="70,-141.7 70,-160.7 129,-160.7 129,-141.7 70,-141.7"/>
<text text-anchor="start" x="72.6045" y="-147.8" font-family="Helvetica,sans-Serif" font-size="11.00" fill="#000000">2,895 rows</text>
<polygon fill="#ffffff" stroke="transparent" points="129,-141.7 129,-160.7 150,-160.7 150,-141.7 129,-141.7"/>
<polygon fill="none" stroke="#000000" points="129,-141.7 129,-160.7 150,-160.7 150,-141.7 129,-141.7"/>
<text text-anchor="start" x="131.7027" y="-147.8" font-family="Helvetica,sans-Serif" font-size="11.00" fill="#000000">3 &gt;</text>
</a>
</g>
</g>
<!-- auth_entity_policy_number&#45;&gt;auth_entity -->
<g id="edge1" class="edge">
<title>auth_entity_policy_number:w&#45;&gt;auth_entity:e</title>
<path fill="none" stroke="#000000" d="M226.91,-162.675C194.535,-172.1734 191.2936,-212.7 150,-212.7"/>
<polygon fill="#000000" stroke="#000000" points="233.5723,-161.7732 241.9829,-164.2675 237.5362,-161.2366 241.5,-160.7 241.5,-160.7 241.5,-160.7 237.5362,-161.2366 241.0171,-157.1325 233.5723,-161.7732 233.5723,-161.7732"/>
<ellipse fill="none" stroke="#000000" cx="230.4012" cy="-162.2024" rx="3.2" ry="3.2"/>
</g>
<!-- policy_number -->
<g id="node3" class="node">
<title>policy_number</title>
<g id="a_node3"><a xlink:href="../../tables/policy_number.html" xlink:title="policy_number" target="_top">
<polygon fill="#ffffff" stroke="transparent" points="8,-38.2 8,-121.2 190,-121.2 190,-38.2 8,-38.2"/>
<polygon fill="#f5f5f5" stroke="transparent" points="8,-97.7 8,-120.7 190,-120.7 190,-97.7 8,-97.7"/>
<polygon fill="none" stroke="#000000" points="8,-97.7 8,-120.7 190,-120.7 190,-97.7 8,-97.7"/>
<text text-anchor="start" x="13" y="-106.8" font-family="Helvetica,sans-Serif" font-weight="bold" font-size="11.00" fill="#000000">policy_number</text>
<text text-anchor="start" x="155.0437" y="-105.8" font-family="Helvetica,sans-Serif" font-size="11.00" fill="#000000">[table]</text>
<polygon fill="none" stroke="#000000" points="8,-75.7 8,-97.7 190,-97.7 190,-75.7 8,-75.7"/>
<image xlink:href="../../images/primaryKeys.png" width="11px" height="12px" preserveAspectRatio="xMinYMin meet" x="13" y="-92.7"/>
<text text-anchor="start" x="28" y="-82.8" font-family="Helvetica,sans-Serif" font-size="11.00" fill="#000000">id</text>
<polygon fill="none" stroke="#000000" points="8,-56.7 8,-75.7 190,-75.7 190,-56.7 8,-56.7"/>
<text text-anchor="start" x="11" y="-62.8" font-family="Helvetica,sans-Serif" font-size="11.00" fill="#000000">...</text>
<polygon fill="#ffffff" stroke="transparent" points="8,-37.7 8,-56.7 62,-56.7 62,-37.7 8,-37.7"/>
<polygon fill="none" stroke="#000000" points="8,-37.7 8,-56.7 62,-56.7 62,-37.7 8,-37.7"/>
<text text-anchor="start" x="11" y="-43.8" font-family="Helvetica,sans-Serif" font-size="11.00" fill="#000000"> &#160;</text>
<polygon fill="#ffffff" stroke="transparent" points="62,-37.7 62,-56.7 148,-56.7 148,-37.7 62,-37.7"/>
<polygon fill="none" stroke="#000000" points="62,-37.7 62,-56.7 148,-56.7 148,-37.7 62,-37.7"/>
<text text-anchor="start" x="85.094" y="-43.8" font-family="Helvetica,sans-Serif" font-size="11.00" fill="#000000">17,312 rows</text>
<polygon fill="#ffffff" stroke="transparent" points="148,-37.7 148,-56.7 190,-56.7 190,-37.7 148,-37.7"/>
<polygon fill="none" stroke="#000000" points="148,-37.7 148,-56.7 190,-56.7 190,-37.7 148,-37.7"/>
<text text-anchor="start" x="171.4053" y="-43.8" font-family="Helvetica,sans-Serif" font-size="11.00" fill="#000000">3 &gt;</text>
</a>
</g>
</g>
<!-- auth_entity_policy_number&#45;&gt;policy_number -->
<g id="edge2" class="edge">
<title>auth_entity_policy_number:w&#45;&gt;policy_number:e</title>
<path fill="none" stroke="#000000" d="M227.4561,-133.9012C212.4356,-121.0281 216.4284,-86.7 190,-86.7"/>
<polygon fill="#000000" stroke="#000000" points="233.9297,-136.1132 240.3359,-142.1066 237.7149,-137.4066 241.5,-138.7 241.5,-138.7 241.5,-138.7 237.7149,-137.4066 242.6641,-135.2934 233.9297,-136.1132 233.9297,-136.1132"/>
<ellipse fill="none" stroke="#000000" cx="230.9016" cy="-135.0785" rx="3.2" ry="3.2"/>
</g>
</g>
</svg>
