<?xml version="1.0" encoding="UTF-8" standalone="no"?>
<!DOCTYPE svg PUBLIC "-//W3C//DTD SVG 1.1//EN"
 "http://www.w3.org/Graphics/SVG/1.1/DTD/svg11.dtd">
<!-- Generated by graphviz version 2.40.1 (20161225.0304)
 -->
<!-- Title: twoDegreesRelationshipsDiagram Pages: 1 -->
<svg width="716pt" height="675pt"
 viewBox="0.00 0.00 716.00 675.20" xmlns="http://www.w3.org/2000/svg" xmlns:xlink="http://www.w3.org/1999/xlink">
<g id="graph0" class="graph" transform="scale(1 1) rotate(0) translate(4 671.2)">
<title>twoDegreesRelationshipsDiagram</title>
<polygon fill="#ffffff" stroke="transparent" points="-4,4 -4,-671.2 712,-671.2 712,4 -4,4"/>
<text text-anchor="middle" x="72.4936" y="-7.3" font-family="Helvetica,sans-Serif" font-size="11.00" fill="#000000">Generated by SchemaSpy</text>
<!-- auth_entity -->
<g id="node1" class="node">
<title>auth_entity</title>
<g id="a_node1"><a xlink:href="../../tables/auth_entity.html" xlink:title="auth_entity" target="_top">
<polygon fill="#ffffff" stroke="transparent" points="318.5,-558.2 318.5,-663.2 419.5,-663.2 419.5,-558.2 318.5,-558.2"/>
<polygon fill="#f5f5f5" stroke="transparent" points="319,-639.7 319,-662.7 420,-662.7 420,-639.7 319,-639.7"/>
<polygon fill="none" stroke="#000000" points="319,-639.7 319,-662.7 420,-662.7 420,-639.7 319,-639.7"/>
<text text-anchor="start" x="324" y="-648.8" font-family="Helvetica,sans-Serif" font-weight="bold" font-size="11.00" fill="#000000">auth_entity</text>
<text text-anchor="start" x="385.0437" y="-647.8" font-family="Helvetica,sans-Serif" font-size="11.00" fill="#000000">[table]</text>
<polygon fill="none" stroke="#000000" points="319,-617.7 319,-639.7 420,-639.7 420,-617.7 319,-617.7"/>
<image xlink:href="../../images/primaryKeys.png" width="11px" height="12px" preserveAspectRatio="xMinYMin meet" x="324" y="-634.7"/>
<text text-anchor="start" x="347" y="-624.8" font-family="Helvetica,sans-Serif" font-size="11.00" fill="#000000">id</text>
<polygon fill="#ffffff" stroke="transparent" points="319,-595.7 319,-617.7 420,-617.7 420,-595.7 319,-595.7"/>
<polygon fill="none" stroke="#000000" points="319,-595.7 319,-617.7 420,-617.7 420,-595.7 319,-595.7"/>
<image xlink:href="../../images/foreignKeys.png" width="11px" height="12px" preserveAspectRatio="xMinYMin meet" x="324" y="-612.7"/>
<text text-anchor="start" x="347" y="-602.8" font-family="Helvetica,sans-Serif" font-size="11.00" fill="#000000">place</text>
<polygon fill="none" stroke="#000000" points="319,-576.7 319,-595.7 420,-595.7 420,-576.7 319,-576.7"/>
<text text-anchor="start" x="322" y="-582.8" font-family="Helvetica,sans-Serif" font-size="11.00" fill="#000000">...</text>
<polygon fill="#ffffff" stroke="transparent" points="319,-557.7 319,-576.7 340,-576.7 340,-557.7 319,-557.7"/>
<polygon fill="none" stroke="#000000" points="319,-557.7 319,-576.7 340,-576.7 340,-557.7 319,-557.7"/>
<text text-anchor="start" x="321.7027" y="-563.8" font-family="Helvetica,sans-Serif" font-size="11.00" fill="#000000">&lt; 1</text>
<polygon fill="#ffffff" stroke="transparent" points="340,-557.7 340,-576.7 399,-576.7 399,-557.7 340,-557.7"/>
<polygon fill="none" stroke="#000000" points="340,-557.7 340,-576.7 399,-576.7 399,-557.7 340,-557.7"/>
<text text-anchor="start" x="342.6045" y="-563.8" font-family="Helvetica,sans-Serif" font-size="11.00" fill="#000000">2,901 rows</text>
<polygon fill="#ffffff" stroke="transparent" points="399,-557.7 399,-576.7 420,-576.7 420,-557.7 399,-557.7"/>
<polygon fill="none" stroke="#000000" points="399,-557.7 399,-576.7 420,-576.7 420,-557.7 399,-557.7"/>
<text text-anchor="start" x="401.7027" y="-563.8" font-family="Helvetica,sans-Serif" font-size="11.00" fill="#000000">3 &gt;</text>
</a>
</g>
</g>
<!-- place -->
<g id="node2" class="node">
<title>place</title>
<g id="a_node2"><a xlink:href="../../tables/place.html" xlink:title="place" target="_top">
<polygon fill="#ffffff" stroke="transparent" points="72,-527.2 72,-588.2 164,-588.2 164,-527.2 72,-527.2"/>
<polygon fill="#f5f5f5" stroke="transparent" points="72,-564.7 72,-587.7 164,-587.7 164,-564.7 72,-564.7"/>
<polygon fill="none" stroke="#000000" points="72,-564.7 72,-587.7 164,-587.7 164,-564.7 72,-564.7"/>
<text text-anchor="start" x="77" y="-573.8" font-family="Helvetica,sans-Serif" font-weight="bold" font-size="11.00" fill="#000000">place</text>
<text text-anchor="start" x="129.0437" y="-572.8" font-family="Helvetica,sans-Serif" font-size="11.00" fill="#000000">[table]</text>
<polygon fill="none" stroke="#000000" points="72,-545.7 72,-564.7 164,-564.7 164,-545.7 72,-545.7"/>
<text text-anchor="start" x="75" y="-551.8" font-family="Helvetica,sans-Serif" font-size="11.00" fill="#000000">...</text>
<polygon fill="#ffffff" stroke="transparent" points="72,-526.7 72,-545.7 84,-545.7 84,-526.7 72,-526.7"/>
<polygon fill="none" stroke="#000000" points="72,-526.7 72,-545.7 84,-545.7 84,-526.7 72,-526.7"/>
<text text-anchor="start" x="74.9431" y="-532.8" font-family="Helvetica,sans-Serif" font-size="11.00" fill="#000000"> &#160;</text>
<polygon fill="#ffffff" stroke="transparent" points="84,-526.7 84,-545.7 143,-545.7 143,-526.7 84,-526.7"/>
<polygon fill="none" stroke="#000000" points="84,-526.7 84,-545.7 143,-545.7 143,-526.7 84,-526.7"/>
<text text-anchor="start" x="86.6045" y="-532.8" font-family="Helvetica,sans-Serif" font-size="11.00" fill="#000000">7,645 rows</text>
<polygon fill="#ffffff" stroke="transparent" points="143,-526.7 143,-545.7 164,-545.7 164,-526.7 143,-526.7"/>
<polygon fill="none" stroke="#000000" points="143,-526.7 143,-545.7 164,-545.7 164,-526.7 143,-526.7"/>
<text text-anchor="start" x="145.7027" y="-532.8" font-family="Helvetica,sans-Serif" font-size="11.00" fill="#000000">7 &gt;</text>
</a>
</g>
</g>
<!-- auth_entity&#45;&gt;place -->
<g id="edge1" class="edge">
<title>auth_entity:w&#45;&gt;place:e</title>
<path fill="none" stroke="#000000" d="M304.5632,-605.9649C244.6657,-599.6446 231.5532,-554.7 164,-554.7"/>
<polygon fill="#000000" stroke="#000000" points="311.0104,-606.2931 318.8169,-610.2953 315.0052,-606.4966 319,-606.7 319,-606.7 319,-606.7 315.0052,-606.4966 319.1831,-603.1047 311.0104,-606.2931 311.0104,-606.2931"/>
<ellipse fill="none" stroke="#000000" cx="307.8145" cy="-606.1304" rx="3.2" ry="3.2"/>
</g>
<!-- auth_entity_policy_number -->
<g id="node3" class="node">
<title>auth_entity_policy_number</title>
<g id="a_node3"><a xlink:href="../../tables/auth_entity_policy_number.html" xlink:title="auth_entity_policy_number" target="_top">
<polygon fill="#ffffff" stroke="transparent" points="518,-601.2 518,-662.2 692,-662.2 692,-601.2 518,-601.2"/>
<polygon fill="#f5f5f5" stroke="transparent" points="518,-638.7 518,-661.7 692,-661.7 692,-638.7 518,-638.7"/>
<polygon fill="none" stroke="#000000" points="518,-638.7 518,-661.7 692,-661.7 692,-638.7 518,-638.7"/>
<text text-anchor="start" x="522.7871" y="-647.8" font-family="Helvetica,sans-Serif" font-weight="bold" font-size="11.00" fill="#000000">auth_entity_policy_number</text>
<text text-anchor="start" x="657.5219" y="-646.8" font-family="Helvetica,sans-Serif" font-size="11.00" fill="#000000">[table]</text>
<polygon fill="none" stroke="#000000" points="518,-619.7 518,-638.7 692,-638.7 692,-619.7 518,-619.7"/>
<text text-anchor="start" x="521" y="-625.8" font-family="Helvetica,sans-Serif" font-size="11.00" fill="#000000">...</text>
<polygon fill="#ffffff" stroke="transparent" points="518,-600.7 518,-619.7 577,-619.7 577,-600.7 518,-600.7"/>
<polygon fill="none" stroke="#000000" points="518,-600.7 518,-619.7 577,-619.7 577,-600.7 518,-600.7"/>
<text text-anchor="start" x="521" y="-606.8" font-family="Helvetica,sans-Serif" font-size="11.00" fill="#000000">&lt; 2</text>
<polygon fill="#ffffff" stroke="transparent" points="577,-600.7 577,-619.7 661,-619.7 661,-600.7 577,-600.7"/>
<polygon fill="none" stroke="#000000" points="577,-600.7 577,-619.7 661,-619.7 661,-600.7 577,-600.7"/>
<text text-anchor="start" x="598.094" y="-606.8" font-family="Helvetica,sans-Serif" font-size="11.00" fill="#000000">18,291 rows</text>
<polygon fill="#ffffff" stroke="transparent" points="661,-600.7 661,-619.7 692,-619.7 692,-600.7 661,-600.7"/>
<polygon fill="none" stroke="#000000" points="661,-600.7 661,-619.7 692,-619.7 692,-600.7 661,-600.7"/>
<text text-anchor="start" x="682.8862" y="-606.8" font-family="Helvetica,sans-Serif" font-size="11.00" fill="#000000"> &#160;</text>
</a>
</g>
</g>
<!-- auth_entity_policy_number&#45;&gt;auth_entity -->
<g id="edge2" class="edge">
<title>auth_entity_policy_number:w&#45;&gt;auth_entity:e</title>
<path fill="none" stroke="#000000" d="M503.4981,-628.7C471.3283,-628.7 458.2813,-628.7 420,-628.7"/>
<polygon fill="#000000" stroke="#000000" points="510,-628.7001 518,-632.3 514,-628.7 518,-628.7 518,-628.7 518,-628.7 514,-628.7 518,-625.1 510,-628.7001 510,-628.7001"/>
<ellipse fill="none" stroke="#000000" cx="506.8" cy="-628.7001" rx="3.2" ry="3.2"/>
</g>
<!-- auth_entity_to_plan -->
<g id="node4" class="node">
<title>auth_entity_to_plan</title>
<g id="a_node4"><a xlink:href="../../tables/auth_entity_to_plan.html" xlink:title="auth_entity_to_plan" target="_top">
<polygon fill="#ffffff" stroke="transparent" points="536,-502.2 536,-563.2 674,-563.2 674,-502.2 536,-502.2"/>
<polygon fill="#f5f5f5" stroke="transparent" points="536,-539.7 536,-562.7 674,-562.7 674,-539.7 536,-539.7"/>
<polygon fill="none" stroke="#000000" points="536,-539.7 536,-562.7 674,-562.7 674,-539.7 536,-539.7"/>
<text text-anchor="start" x="540.5059" y="-548.8" font-family="Helvetica,sans-Serif" font-weight="bold" font-size="11.00" fill="#000000">auth_entity_to_plan</text>
<text text-anchor="start" x="639.5219" y="-547.8" font-family="Helvetica,sans-Serif" font-size="11.00" fill="#000000">[table]</text>
<polygon fill="none" stroke="#000000" points="536,-520.7 536,-539.7 674,-539.7 674,-520.7 536,-520.7"/>
<text text-anchor="start" x="539" y="-526.8" font-family="Helvetica,sans-Serif" font-size="11.00" fill="#000000">...</text>
<polygon fill="#ffffff" stroke="transparent" points="536,-501.7 536,-520.7 584,-520.7 584,-501.7 536,-501.7"/>
<polygon fill="none" stroke="#000000" points="536,-501.7 536,-520.7 584,-520.7 584,-501.7 536,-501.7"/>
<text text-anchor="start" x="539" y="-507.8" font-family="Helvetica,sans-Serif" font-size="11.00" fill="#000000">&lt; 2</text>
<polygon fill="#ffffff" stroke="transparent" points="584,-501.7 584,-520.7 648,-520.7 648,-501.7 584,-501.7"/>
<polygon fill="none" stroke="#000000" points="584,-501.7 584,-520.7 648,-520.7 648,-501.7 584,-501.7"/>
<text text-anchor="start" x="600.3807" y="-507.8" font-family="Helvetica,sans-Serif" font-size="11.00" fill="#000000">493 rows</text>
<polygon fill="#ffffff" stroke="transparent" points="648,-501.7 648,-520.7 674,-520.7 674,-501.7 648,-501.7"/>
<polygon fill="none" stroke="#000000" points="648,-501.7 648,-520.7 674,-520.7 674,-501.7 648,-501.7"/>
<text text-anchor="start" x="664.8862" y="-507.8" font-family="Helvetica,sans-Serif" font-size="11.00" fill="#000000"> &#160;</text>
</a>
</g>
</g>
<!-- auth_entity_to_plan&#45;&gt;auth_entity -->
<g id="edge3" class="edge">
<title>auth_entity_to_plan:w&#45;&gt;auth_entity:e</title>
<path fill="none" stroke="#000000" d="M521.6302,-531.4183C470.744,-544.5645 482.4836,-628.7 420,-628.7"/>
<polygon fill="#000000" stroke="#000000" points="528.0566,-530.6499 536.4275,-533.2745 532.0283,-530.175 536,-529.7 536,-529.7 536,-529.7 532.0283,-530.175 535.5725,-526.1255 528.0566,-530.6499 528.0566,-530.6499"/>
<ellipse fill="none" stroke="#000000" cx="524.8792" cy="-531.0299" rx="3.2" ry="3.2"/>
</g>
<!-- plan -->
<g id="node5" class="node">
<title>plan</title>
<g id="a_node5"><a xlink:href="../../tables/plan.html" xlink:title="plan" target="_top">
<polygon fill="#ffffff" stroke="transparent" points="323,-394.2 323,-455.2 415,-455.2 415,-394.2 323,-394.2"/>
<polygon fill="#f5f5f5" stroke="transparent" points="323,-431.7 323,-454.7 415,-454.7 415,-431.7 323,-431.7"/>
<polygon fill="none" stroke="#000000" points="323,-431.7 323,-454.7 415,-454.7 415,-431.7 323,-431.7"/>
<text text-anchor="start" x="328" y="-440.8" font-family="Helvetica,sans-Serif" font-weight="bold" font-size="11.00" fill="#000000">plan</text>
<text text-anchor="start" x="380.0437" y="-439.8" font-family="Helvetica,sans-Serif" font-size="11.00" fill="#000000">[table]</text>
<polygon fill="none" stroke="#000000" points="323,-412.7 323,-431.7 415,-431.7 415,-412.7 323,-412.7"/>
<text text-anchor="start" x="326" y="-418.8" font-family="Helvetica,sans-Serif" font-size="11.00" fill="#000000">...</text>
<polygon fill="#ffffff" stroke="transparent" points="323,-393.7 323,-412.7 344,-412.7 344,-393.7 323,-393.7"/>
<polygon fill="none" stroke="#000000" points="323,-393.7 323,-412.7 344,-412.7 344,-393.7 323,-393.7"/>
<text text-anchor="start" x="325.7027" y="-399.8" font-family="Helvetica,sans-Serif" font-size="11.00" fill="#000000">&lt; 1</text>
<polygon fill="#ffffff" stroke="transparent" points="344,-393.7 344,-412.7 394,-412.7 394,-393.7 344,-393.7"/>
<polygon fill="none" stroke="#000000" points="344,-393.7 344,-412.7 394,-412.7 394,-393.7 344,-393.7"/>
<text text-anchor="start" x="346.6904" y="-399.8" font-family="Helvetica,sans-Serif" font-size="11.00" fill="#000000">493 rows</text>
<polygon fill="#ffffff" stroke="transparent" points="394,-393.7 394,-412.7 415,-412.7 415,-393.7 394,-393.7"/>
<polygon fill="none" stroke="#000000" points="394,-393.7 394,-412.7 415,-412.7 415,-393.7 394,-393.7"/>
<text text-anchor="start" x="396.7027" y="-399.8" font-family="Helvetica,sans-Serif" font-size="11.00" fill="#000000">3 &gt;</text>
</a>
</g>
</g>
<!-- auth_entity_to_plan&#45;&gt;plan -->
<g id="edge4" class="edge">
<title>auth_entity_to_plan:w&#45;&gt;plan:e</title>
<path fill="none" stroke="#000000" d="M521.4463,-528.0036C466.8306,-514.2637 481.7337,-421.7 415,-421.7"/>
<polygon fill="#000000" stroke="#000000" points="528.0538,-528.7737 535.5832,-533.2758 532.0269,-529.2369 536,-529.7 536,-529.7 536,-529.7 532.0269,-529.2369 536.4168,-526.1242 528.0538,-528.7737 528.0538,-528.7737"/>
<ellipse fill="none" stroke="#000000" cx="524.8753" cy="-528.4032" rx="3.2" ry="3.2"/>
</g>
<!-- policy -->
<g id="node7" class="node">
<title>policy</title>
<g id="a_node7"><a xlink:href="../../tables/policy.html" xlink:title="policy" target="_top">
<polygon fill="#ffffff" stroke="transparent" points="8,-178.2 8,-305.2 228,-305.2 228,-178.2 8,-178.2"/>
<polygon fill="#f5f5f5" stroke="transparent" points="8,-281.7 8,-304.7 228,-304.7 228,-281.7 8,-281.7"/>
<polygon fill="none" stroke="#000000" points="8,-281.7 8,-304.7 228,-304.7 228,-281.7 8,-281.7"/>
<text text-anchor="start" x="13" y="-290.8" font-family="Helvetica,sans-Serif" font-weight="bold" font-size="11.00" fill="#000000">policy</text>
<text text-anchor="start" x="193.0437" y="-289.8" font-family="Helvetica,sans-Serif" font-size="11.00" fill="#000000">[table]</text>
<polygon fill="none" stroke="#000000" points="8,-259.7 8,-281.7 228,-281.7 228,-259.7 8,-259.7"/>
<image xlink:href="../../images/primaryKeys.png" width="11px" height="12px" preserveAspectRatio="xMinYMin meet" x="13" y="-276.7"/>
<text text-anchor="start" x="28" y="-266.8" font-family="Helvetica,sans-Serif" font-size="11.00" fill="#000000">id</text>
<polygon fill="#ffffff" stroke="transparent" points="8,-237.7 8,-259.7 228,-259.7 228,-237.7 8,-237.7"/>
<polygon fill="none" stroke="#000000" points="8,-237.7 8,-259.7 228,-259.7 228,-237.7 8,-237.7"/>
<text text-anchor="start" x="28" y="-244.8" font-family="Helvetica,sans-Serif" font-size="11.00" fill="#000000">primary_ph_measure</text>
<polygon fill="#ffffff" stroke="transparent" points="8,-215.7 8,-237.7 228,-237.7 228,-215.7 8,-215.7"/>
<polygon fill="none" stroke="#000000" points="8,-215.7 8,-237.7 228,-237.7 228,-215.7 8,-215.7"/>
<text text-anchor="start" x="28" y="-222.8" font-family="Helvetica,sans-Serif" font-size="11.00" fill="#000000">group_number</text>
<polygon fill="none" stroke="#000000" points="8,-196.7 8,-215.7 228,-215.7 228,-196.7 8,-196.7"/>
<text text-anchor="start" x="11" y="-202.8" font-family="Helvetica,sans-Serif" font-size="11.00" fill="#000000">...</text>
<polygon fill="#ffffff" stroke="transparent" points="8,-177.7 8,-196.7 81,-196.7 81,-177.7 8,-177.7"/>
<polygon fill="none" stroke="#000000" points="8,-177.7 8,-196.7 81,-196.7 81,-177.7 8,-177.7"/>
<text text-anchor="start" x="11" y="-183.8" font-family="Helvetica,sans-Serif" font-size="11.00" fill="#000000"> &#160;</text>
<polygon fill="#ffffff" stroke="transparent" points="81,-177.7 81,-196.7 176,-196.7 176,-177.7 81,-177.7"/>
<polygon fill="none" stroke="#000000" points="81,-177.7 81,-196.7 176,-196.7 176,-177.7 81,-177.7"/>
<text text-anchor="start" x="113.094" y="-183.8" font-family="Helvetica,sans-Serif" font-size="11.00" fill="#000000">40,950 rows</text>
<polygon fill="#ffffff" stroke="transparent" points="176,-177.7 176,-196.7 228,-196.7 228,-177.7 176,-177.7"/>
<polygon fill="none" stroke="#000000" points="176,-177.7 176,-196.7 228,-196.7 228,-177.7 176,-177.7"/>
<text text-anchor="start" x="209.4053" y="-183.8" font-family="Helvetica,sans-Serif" font-size="11.00" fill="#000000">8 &gt;</text>
</a>
</g>
</g>
<!-- plan&#45;&gt;policy -->
<g id="edge10" class="edge">
<title>plan:w&#45;&gt;policy:e</title>
<path fill="none" stroke="#000000" d="M308.5345,-419.9939C290.1315,-415.0329 283.7195,-399.6874 269,-379.7 238.308,-338.0237 279.7582,-270.7 228,-270.7"/>
<polygon fill="#000000" stroke="#000000" points="315.0551,-420.7629 322.5783,-425.2752 319.0275,-421.2315 323,-421.7 323,-421.7 323,-421.7 319.0275,-421.2315 323.4217,-418.1248 315.0551,-420.7629 315.0551,-420.7629"/>
<ellipse fill="none" stroke="#000000" cx="311.8771" cy="-420.3881" rx="3.2" ry="3.2"/>
</g>
<!-- auth_entity_to_policy -->
<g id="node6" class="node">
<title>auth_entity_to_policy</title>
<g id="a_node6"><a xlink:href="../../tables/auth_entity_to_policy.html" xlink:title="auth_entity_to_policy" target="_top">
<polygon fill="#ffffff" stroke="transparent" points="510,-355.7 510,-445.7 700,-445.7 700,-355.7 510,-355.7"/>
<polygon fill="#f5f5f5" stroke="transparent" points="512,-420.7 512,-443.7 698,-443.7 698,-420.7 512,-420.7"/>
<polygon fill="none" stroke="#000000" points="512,-420.7 512,-443.7 698,-443.7 698,-420.7 512,-420.7"/>
<text text-anchor="start" x="517" y="-429.8" font-family="Helvetica,sans-Serif" font-weight="bold" font-size="11.00" fill="#000000">auth_entity_to_policy</text>
<text text-anchor="start" x="663.0437" y="-428.8" font-family="Helvetica,sans-Serif" font-size="11.00" fill="#000000">[table]</text>
<polygon fill="none" stroke="#000000" points="512,-398.7 512,-420.7 656,-420.7 656,-398.7 512,-398.7"/>
<image xlink:href="../../images/primaryKeys.png" width="11px" height="12px" preserveAspectRatio="xMinYMin meet" x="517" y="-415.7"/>
<text text-anchor="start" x="532" y="-405.8" font-family="Helvetica,sans-Serif" font-size="11.00" fill="#000000">auth_entity</text>
<polygon fill="none" stroke="#000000" points="656,-398.7 656,-420.7 698,-420.7 698,-398.7 656,-398.7"/>
<text text-anchor="start" x="658.9644" y="-406.4" font-family="Helvetica,sans-Serif" font-size="11.00" fill="#000000">int4[10]</text>
<polygon fill="none" stroke="#000000" points="512,-376.7 512,-398.7 656,-398.7 656,-376.7 512,-376.7"/>
<image xlink:href="../../images/primaryKeys.png" width="11px" height="12px" preserveAspectRatio="xMinYMin meet" x="517" y="-393.7"/>
<text text-anchor="start" x="532" y="-383.8" font-family="Helvetica,sans-Serif" font-size="11.00" fill="#000000">policy</text>
<polygon fill="none" stroke="#000000" points="656,-376.7 656,-398.7 698,-398.7 698,-376.7 656,-376.7"/>
<text text-anchor="start" x="658.9644" y="-384.4" font-family="Helvetica,sans-Serif" font-size="11.00" fill="#000000">int4[10]</text>
<polygon fill="#ffffff" stroke="transparent" points="512,-357.7 512,-376.7 562,-376.7 562,-357.7 512,-357.7"/>
<polygon fill="none" stroke="#000000" points="512,-357.7 512,-376.7 562,-376.7 562,-357.7 512,-357.7"/>
<text text-anchor="start" x="515" y="-363.8" font-family="Helvetica,sans-Serif" font-size="11.00" fill="#000000">&lt; 2</text>
<polygon fill="#ffffff" stroke="transparent" points="562,-357.7 562,-376.7 656,-376.7 656,-357.7 562,-357.7"/>
<polygon fill="none" stroke="#000000" points="562,-357.7 562,-376.7 656,-376.7 656,-357.7 562,-357.7"/>
<text text-anchor="start" x="593.094" y="-363.8" font-family="Helvetica,sans-Serif" font-size="11.00" fill="#000000">41,978 rows</text>
<polygon fill="#ffffff" stroke="transparent" points="656,-357.7 656,-376.7 698,-376.7 698,-357.7 656,-357.7"/>
<polygon fill="none" stroke="#000000" points="656,-357.7 656,-376.7 698,-376.7 698,-357.7 656,-357.7"/>
<text text-anchor="start" x="679.4053" y="-363.8" font-family="Helvetica,sans-Serif" font-size="11.00" fill="#000000">0 &gt;</text>
<polygon fill="none" stroke="#000000" stroke-width="2" points="511,-356.7 511,-444.7 699,-444.7 699,-356.7 511,-356.7"/>
</a>
</g>
</g>
<!-- auth_entity_to_policy&#45;&gt;auth_entity -->
<g id="edge5" class="edge">
<title>auth_entity_to_policy:w&#45;&gt;auth_entity:e</title>
<path fill="none" stroke="#000000" d="M497.5273,-411.4725C455.5566,-423.4998 493.0561,-494.2702 469,-547.7 451.7265,-586.0653 462.0746,-628.7 420,-628.7"/>
<polygon fill="#000000" stroke="#000000" points="504.0593,-410.6725 512.4376,-413.2733 508.0297,-410.1863 512,-409.7 512,-409.7 512,-409.7 508.0297,-410.1863 511.5624,-406.1267 504.0593,-410.6725 504.0593,-410.6725"/>
<ellipse fill="none" stroke="#000000" cx="500.8831" cy="-411.0616" rx="3.2" ry="3.2"/>
</g>
<!-- auth_entity_to_policy&#45;&gt;policy -->
<g id="edge6" class="edge">
<title>auth_entity_to_policy:w&#45;&gt;policy:e</title>
<path fill="none" stroke="#000000" d="M497.4502,-386.2229C445.5452,-380.3935 273.7517,-359.1366 269,-355.7 235.0141,-331.1202 269.9429,-270.7 228,-270.7"/>
<polygon fill="#000000" stroke="#000000" points="504.0409,-386.8919 511.6364,-391.2816 508.0205,-387.296 512,-387.7 512,-387.7 512,-387.7 508.0205,-387.296 512.3636,-384.1184 504.0409,-386.8919 504.0409,-386.8919"/>
<ellipse fill="none" stroke="#000000" cx="500.8573" cy="-386.5687" rx="3.2" ry="3.2"/>
</g>
<!-- file_to_policy -->
<g id="node8" class="node">
<title>file_to_policy</title>
<g id="a_node8"><a xlink:href="../../tables/file_to_policy.html" xlink:title="file_to_policy" target="_top">
<polygon fill="#ffffff" stroke="transparent" points="316,-284.2 316,-345.2 422,-345.2 422,-284.2 316,-284.2"/>
<polygon fill="#f5f5f5" stroke="transparent" points="316,-321.7 316,-344.7 422,-344.7 422,-321.7 316,-321.7"/>
<polygon fill="none" stroke="#000000" points="316,-321.7 316,-344.7 422,-344.7 422,-321.7 316,-321.7"/>
<text text-anchor="start" x="320.7166" y="-330.8" font-family="Helvetica,sans-Serif" font-weight="bold" font-size="11.00" fill="#000000">file_to_policy</text>
<text text-anchor="start" x="387.5219" y="-329.8" font-family="Helvetica,sans-Serif" font-size="11.00" fill="#000000">[table]</text>
<polygon fill="none" stroke="#000000" points="316,-302.7 316,-321.7 422,-321.7 422,-302.7 316,-302.7"/>
<text text-anchor="start" x="319" y="-308.8" font-family="Helvetica,sans-Serif" font-size="11.00" fill="#000000">...</text>
<polygon fill="#ffffff" stroke="transparent" points="316,-283.7 316,-302.7 341,-302.7 341,-283.7 316,-283.7"/>
<polygon fill="none" stroke="#000000" points="316,-283.7 316,-302.7 341,-302.7 341,-283.7 316,-283.7"/>
<text text-anchor="start" x="319" y="-289.8" font-family="Helvetica,sans-Serif" font-size="11.00" fill="#000000">&lt; 2</text>
<polygon fill="#ffffff" stroke="transparent" points="341,-283.7 341,-302.7 408,-302.7 408,-283.7 341,-283.7"/>
<polygon fill="none" stroke="#000000" points="341,-283.7 341,-302.7 408,-302.7 408,-283.7 341,-283.7"/>
<text text-anchor="start" x="345.094" y="-289.8" font-family="Helvetica,sans-Serif" font-size="11.00" fill="#000000">41,366 rows</text>
<polygon fill="#ffffff" stroke="transparent" points="408,-283.7 408,-302.7 422,-302.7 422,-283.7 408,-283.7"/>
<polygon fill="none" stroke="#000000" points="408,-283.7 408,-302.7 422,-302.7 422,-283.7 408,-283.7"/>
<text text-anchor="start" x="412.8862" y="-289.8" font-family="Helvetica,sans-Serif" font-size="11.00" fill="#000000"> &#160;</text>
</a>
</g>
</g>
<!-- file_to_policy&#45;&gt;policy -->
<g id="edge7" class="edge">
<title>file_to_policy:w&#45;&gt;policy:e</title>
<path fill="none" stroke="#000000" d="M301.6004,-309.9383C271.7786,-302.0906 265.7543,-270.7 228,-270.7"/>
<polygon fill="#000000" stroke="#000000" points="308.0592,-310.7284 315.5628,-315.2734 312.0296,-311.2142 316,-311.7 316,-311.7 316,-311.7 312.0296,-311.2142 316.4372,-308.1266 308.0592,-310.7284 308.0592,-310.7284"/>
<ellipse fill="none" stroke="#000000" cx="304.8829" cy="-310.3398" rx="3.2" ry="3.2"/>
</g>
<!-- place_to_policy -->
<g id="node9" class="node">
<title>place_to_policy</title>
<g id="a_node9"><a xlink:href="../../tables/place_to_policy.html" xlink:title="place_to_policy" target="_top">
<polygon fill="#ffffff" stroke="transparent" points="310,-476.2 310,-537.2 428,-537.2 428,-476.2 310,-476.2"/>
<polygon fill="#f5f5f5" stroke="transparent" points="310,-513.7 310,-536.7 428,-536.7 428,-513.7 310,-513.7"/>
<polygon fill="none" stroke="#000000" points="310,-513.7 310,-536.7 428,-536.7 428,-513.7 310,-513.7"/>
<text text-anchor="start" x="314.6006" y="-522.8" font-family="Helvetica,sans-Serif" font-weight="bold" font-size="11.00" fill="#000000">place_to_policy</text>
<text text-anchor="start" x="393.5219" y="-521.8" font-family="Helvetica,sans-Serif" font-size="11.00" fill="#000000">[table]</text>
<polygon fill="none" stroke="#000000" points="310,-494.7 310,-513.7 428,-513.7 428,-494.7 310,-494.7"/>
<text text-anchor="start" x="313" y="-500.8" font-family="Helvetica,sans-Serif" font-size="11.00" fill="#000000">...</text>
<polygon fill="#ffffff" stroke="transparent" points="310,-475.7 310,-494.7 337,-494.7 337,-475.7 310,-475.7"/>
<polygon fill="none" stroke="#000000" points="310,-475.7 310,-494.7 337,-494.7 337,-475.7 310,-475.7"/>
<text text-anchor="start" x="313" y="-481.8" font-family="Helvetica,sans-Serif" font-size="11.00" fill="#000000">&lt; 2</text>
<polygon fill="#ffffff" stroke="transparent" points="337,-475.7 337,-494.7 412,-494.7 412,-475.7 337,-475.7"/>
<polygon fill="none" stroke="#000000" points="337,-475.7 337,-494.7 412,-494.7 412,-475.7 337,-475.7"/>
<text text-anchor="start" x="342.9791" y="-481.8" font-family="Helvetica,sans-Serif" font-size="11.00" fill="#000000">999,172 rows</text>
<polygon fill="#ffffff" stroke="transparent" points="412,-475.7 412,-494.7 428,-494.7 428,-475.7 412,-475.7"/>
<polygon fill="none" stroke="#000000" points="412,-475.7 412,-494.7 428,-494.7 428,-475.7 412,-475.7"/>
<text text-anchor="start" x="418.8862" y="-481.8" font-family="Helvetica,sans-Serif" font-size="11.00" fill="#000000"> &#160;</text>
</a>
</g>
</g>
<!-- place_to_policy&#45;&gt;place -->
<g id="edge8" class="edge">
<title>place_to_policy:w&#45;&gt;place:e</title>
<path fill="none" stroke="#000000" d="M295.2879,-504.5426C239.617,-511.1736 227.4983,-554.7 164,-554.7"/>
<polygon fill="#000000" stroke="#000000" points="302.0131,-504.1575 310.2059,-507.2941 306.0065,-503.9288 310,-503.7 310,-503.7 310,-503.7 306.0065,-503.9288 309.7941,-500.1059 302.0131,-504.1575 302.0131,-504.1575"/>
<ellipse fill="none" stroke="#000000" cx="298.8183" cy="-504.3405" rx="3.2" ry="3.2"/>
</g>
<!-- place_to_policy&#45;&gt;policy -->
<g id="edge9" class="edge">
<title>place_to_policy:w&#45;&gt;policy:e</title>
<path fill="none" stroke="#000000" d="M295.6037,-501.144C282.8637,-495.7337 278.374,-482.252 269,-465.7 225.3575,-388.6384 316.5616,-270.7 228,-270.7"/>
<polygon fill="#000000" stroke="#000000" points="302.1232,-502.3014 309.3706,-507.2446 306.0616,-503.0007 310,-503.7 310,-503.7 310,-503.7 306.0616,-503.0007 310.6294,-500.1554 302.1232,-502.3014 302.1232,-502.3014"/>
<ellipse fill="none" stroke="#000000" cx="298.9725" cy="-501.742" rx="3.2" ry="3.2"/>
</g>
<!-- policies_to_court_challenges -->
<g id="node10" class="node">
<title>policies_to_court_challenges</title>
<g id="a_node10"><a xlink:href="../../tables/policies_to_court_challenges.html" xlink:title="policies_to_court_challenges" target="_top">
<polygon fill="#ffffff" stroke="transparent" points="277,-202.2 277,-263.2 461,-263.2 461,-202.2 277,-202.2"/>
<polygon fill="#f5f5f5" stroke="transparent" points="277,-239.7 277,-262.7 461,-262.7 461,-239.7 277,-239.7"/>
<polygon fill="none" stroke="#000000" points="277,-239.7 277,-262.7 461,-262.7 461,-239.7 277,-239.7"/>
<text text-anchor="start" x="281.8982" y="-248.8" font-family="Helvetica,sans-Serif" font-weight="bold" font-size="11.00" fill="#000000">policies_to_court_challenges</text>
<text text-anchor="start" x="426.5219" y="-247.8" font-family="Helvetica,sans-Serif" font-size="11.00" fill="#000000">[table]</text>
<polygon fill="none" stroke="#000000" points="277,-220.7 277,-239.7 461,-239.7 461,-220.7 277,-220.7"/>
<text text-anchor="start" x="280" y="-226.8" font-family="Helvetica,sans-Serif" font-size="11.00" fill="#000000">...</text>
<polygon fill="#ffffff" stroke="transparent" points="277,-201.7 277,-220.7 354,-220.7 354,-201.7 277,-201.7"/>
<polygon fill="none" stroke="#000000" points="277,-201.7 277,-220.7 354,-220.7 354,-201.7 277,-201.7"/>
<text text-anchor="start" x="280" y="-207.8" font-family="Helvetica,sans-Serif" font-size="11.00" fill="#000000">&lt; 2</text>
<polygon fill="#ffffff" stroke="transparent" points="354,-201.7 354,-220.7 420,-220.7 420,-201.7 354,-201.7"/>
<polygon fill="none" stroke="#000000" points="354,-201.7 354,-220.7 420,-220.7 420,-201.7 354,-201.7"/>
<text text-anchor="start" x="384.6105" y="-207.8" font-family="Helvetica,sans-Serif" font-size="11.00" fill="#000000">0 rows</text>
<polygon fill="#ffffff" stroke="transparent" points="420,-201.7 420,-220.7 461,-220.7 461,-201.7 420,-201.7"/>
<polygon fill="none" stroke="#000000" points="420,-201.7 420,-220.7 461,-220.7 461,-201.7 420,-201.7"/>
<text text-anchor="start" x="451.8862" y="-207.8" font-family="Helvetica,sans-Serif" font-size="11.00" fill="#000000"> &#160;</text>
</a>
</g>
</g>
<!-- policies_to_court_challenges&#45;&gt;policy -->
<g id="edge11" class="edge">
<title>policies_to_court_challenges:w&#45;&gt;policy:e</title>
<path fill="none" stroke="#000000" d="M263.1819,-234.4032C250.2811,-245.1726 250.4061,-270.7 228,-270.7"/>
<polygon fill="#000000" stroke="#000000" points="269.4267,-232.2778 278.16,-233.108 273.2133,-230.9889 277,-229.7 277,-229.7 277,-229.7 273.2133,-230.9889 275.84,-226.292 269.4267,-232.2778 269.4267,-232.2778"/>
<ellipse fill="none" stroke="#000000" cx="266.3973" cy="-233.3089" rx="3.2" ry="3.2"/>
</g>
<!-- policy_number_to_policy -->
<g id="node11" class="node">
<title>policy_number_to_policy</title>
<g id="a_node11"><a xlink:href="../../tables/policy_number_to_policy.html" xlink:title="policy_number_to_policy" target="_top">
<polygon fill="#ffffff" stroke="transparent" points="287,-120.2 287,-181.2 451,-181.2 451,-120.2 287,-120.2"/>
<polygon fill="#f5f5f5" stroke="transparent" points="287,-157.7 287,-180.7 451,-180.7 451,-157.7 287,-157.7"/>
<polygon fill="none" stroke="#000000" points="287,-157.7 287,-180.7 451,-180.7 451,-157.7 287,-157.7"/>
<text text-anchor="start" x="291.9885" y="-166.8" font-family="Helvetica,sans-Serif" font-weight="bold" font-size="11.00" fill="#000000">policy_number_to_policy</text>
<text text-anchor="start" x="416.5219" y="-165.8" font-family="Helvetica,sans-Serif" font-size="11.00" fill="#000000">[table]</text>
<polygon fill="none" stroke="#000000" points="287,-138.7 287,-157.7 451,-157.7 451,-138.7 287,-138.7"/>
<text text-anchor="start" x="290" y="-144.8" font-family="Helvetica,sans-Serif" font-size="11.00" fill="#000000">...</text>
<polygon fill="#ffffff" stroke="transparent" points="287,-119.7 287,-138.7 341,-138.7 341,-119.7 287,-119.7"/>
<polygon fill="none" stroke="#000000" points="287,-119.7 287,-138.7 341,-138.7 341,-119.7 287,-119.7"/>
<text text-anchor="start" x="290" y="-125.8" font-family="Helvetica,sans-Serif" font-size="11.00" fill="#000000">&lt; 2</text>
<polygon fill="#ffffff" stroke="transparent" points="341,-119.7 341,-138.7 422,-138.7 422,-119.7 341,-119.7"/>
<polygon fill="none" stroke="#000000" points="341,-119.7 341,-138.7 422,-138.7 422,-119.7 341,-119.7"/>
<text text-anchor="start" x="359.094" y="-125.8" font-family="Helvetica,sans-Serif" font-size="11.00" fill="#000000">40,950 rows</text>
<polygon fill="#ffffff" stroke="transparent" points="422,-119.7 422,-138.7 451,-138.7 451,-119.7 422,-119.7"/>
<polygon fill="none" stroke="#000000" points="422,-119.7 422,-138.7 451,-138.7 451,-119.7 422,-119.7"/>
<text text-anchor="start" x="441.8862" y="-125.8" font-family="Helvetica,sans-Serif" font-size="11.00" fill="#000000"> &#160;</text>
</a>
</g>
</g>
<!-- policy_number_to_policy&#45;&gt;policy -->
<g id="edge12" class="edge">
<title>policy_number_to_policy:w&#45;&gt;policy:e</title>
<path fill="none" stroke="#000000" d="M272.5242,-150.99C237.3579,-170.5504 282.7095,-270.7 228,-270.7"/>
<polygon fill="#000000" stroke="#000000" points="279.1989,-149.473 287.7979,-151.2105 283.0995,-148.5865 287,-147.7 287,-147.7 287,-147.7 283.0995,-148.5865 286.2021,-144.1895 279.1989,-149.473 279.1989,-149.473"/>
<ellipse fill="none" stroke="#000000" cx="276.0785" cy="-150.1822" rx="3.2" ry="3.2"/>
</g>
<!-- policy_to_prior_policy -->
<g id="node12" class="node">
<title>policy_to_prior_policy</title>
<g id="a_node12"><a xlink:href="../../tables/policy_to_prior_policy.html" xlink:title="policy_to_prior_policy" target="_top">
<polygon fill="#ffffff" stroke="transparent" points="295,-38.2 295,-99.2 443,-99.2 443,-38.2 295,-38.2"/>
<polygon fill="#f5f5f5" stroke="transparent" points="295,-75.7 295,-98.7 443,-98.7 443,-75.7 295,-75.7"/>
<polygon fill="none" stroke="#000000" points="295,-75.7 295,-98.7 443,-98.7 443,-75.7 295,-75.7"/>
<text text-anchor="start" x="299.6329" y="-84.8" font-family="Helvetica,sans-Serif" font-weight="bold" font-size="11.00" fill="#000000">policy_to_prior_policy</text>
<text text-anchor="start" x="408.5219" y="-83.8" font-family="Helvetica,sans-Serif" font-size="11.00" fill="#000000">[table]</text>
<polygon fill="none" stroke="#000000" points="295,-56.7 295,-75.7 443,-75.7 443,-56.7 295,-56.7"/>
<text text-anchor="start" x="298" y="-62.8" font-family="Helvetica,sans-Serif" font-size="11.00" fill="#000000">...</text>
<polygon fill="#ffffff" stroke="transparent" points="295,-37.7 295,-56.7 341,-56.7 341,-37.7 295,-37.7"/>
<polygon fill="none" stroke="#000000" points="295,-37.7 295,-56.7 341,-56.7 341,-37.7 295,-37.7"/>
<text text-anchor="start" x="298" y="-43.8" font-family="Helvetica,sans-Serif" font-size="11.00" fill="#000000">&lt; 2</text>
<polygon fill="#ffffff" stroke="transparent" points="341,-37.7 341,-56.7 418,-56.7 418,-37.7 341,-37.7"/>
<polygon fill="none" stroke="#000000" points="341,-37.7 341,-56.7 418,-56.7 418,-37.7 341,-37.7"/>
<text text-anchor="start" x="355.094" y="-43.8" font-family="Helvetica,sans-Serif" font-size="11.00" fill="#000000">36,085 rows</text>
<polygon fill="#ffffff" stroke="transparent" points="418,-37.7 418,-56.7 443,-56.7 443,-37.7 418,-37.7"/>
<polygon fill="none" stroke="#000000" points="418,-37.7 418,-56.7 443,-56.7 443,-37.7 418,-37.7"/>
<text text-anchor="start" x="433.8862" y="-43.8" font-family="Helvetica,sans-Serif" font-size="11.00" fill="#000000"> &#160;</text>
</a>
</g>
</g>
<!-- policy_to_prior_policy&#45;&gt;policy -->
<g id="edge13" class="edge">
<title>policy_to_prior_policy:w&#45;&gt;policy:e</title>
<path fill="none" stroke="#000000" d="M280.3337,-66.7361C213.0031,-83.0402 318.2374,-265.0516 228,-270.7"/>
<polygon fill="#000000" stroke="#000000" points="287.0199,-66.2638 295.2537,-69.2911 291.0099,-65.9819 295,-65.7 295,-65.7 295,-65.7 291.0099,-65.9819 294.7463,-62.1089 287.0199,-66.2638 287.0199,-66.2638"/>
<ellipse fill="none" stroke="#000000" cx="283.8278" cy="-66.4893" rx="3.2" ry="3.2"/>
</g>
<!-- policy_to_prior_policy&#45;&gt;policy -->
<g id="edge14" class="edge">
<title>policy_to_prior_policy:w&#45;&gt;policy:e</title>
<path fill="none" stroke="#000000" d="M280.755,-68.7206C212.5656,-95.2425 318.4246,-277.3035 228,-270.7"/>
<polygon fill="#000000" stroke="#000000" points="287.174,-67.3595 295.7468,-69.2217 291.087,-66.5298 295,-65.7 295,-65.7 295,-65.7 291.087,-66.5298 294.2532,-62.1783 287.174,-67.3595 287.174,-67.3595"/>
<ellipse fill="none" stroke="#000000" cx="284.0436" cy="-68.0233" rx="3.2" ry="3.2"/>
</g>
</g>
</svg>
