<?xml version="1.0" encoding="UTF-8" standalone="no"?>
<!DOCTYPE svg PUBLIC "-//W3C//DTD SVG 1.1//EN"
 "http://www.w3.org/Graphics/SVG/1.1/DTD/svg11.dtd">
<!-- Generated by graphviz version 2.40.1 (20161225.0304)
 -->
<!-- Title: twoDegreesRelationshipsDiagram Pages: 1 -->
<svg width="639pt" height="927pt"
 viewBox="0.00 0.00 639.00 926.70" xmlns="http://www.w3.org/2000/svg" xmlns:xlink="http://www.w3.org/1999/xlink">
<g id="graph0" class="graph" transform="scale(1 1) rotate(0) translate(4 922.7)">
<title>twoDegreesRelationshipsDiagram</title>
<polygon fill="#ffffff" stroke="transparent" points="-4,4 -4,-922.7 635,-922.7 635,4 -4,4"/>
<text text-anchor="middle" x="72.4936" y="-7.3" font-family="Helvetica,sans-Serif" font-size="11.00" fill="#000000">Generated by SchemaSpy</text>
<!-- policies_to_court_challenges -->
<g id="node1" class="node">
<title>policies_to_court_challenges</title>
<g id="a_node1"><a xlink:href="../../tables/policies_to_court_challenges.html" xlink:title="policies_to_court_challenges" target="_top">
<polygon fill="#ffffff" stroke="transparent" points="434,-430.7 434,-516.7 623,-516.7 623,-430.7 434,-430.7"/>
<polygon fill="#f5f5f5" stroke="transparent" points="434.5,-493.7 434.5,-516.7 623.5,-516.7 623.5,-493.7 434.5,-493.7"/>
<polygon fill="none" stroke="#000000" points="434.5,-493.7 434.5,-516.7 623.5,-516.7 623.5,-493.7 434.5,-493.7"/>
<text text-anchor="start" x="439.5" y="-502.8" font-family="Helvetica,sans-Serif" font-weight="bold" font-size="11.00" fill="#000000">policies_to_court_challenges</text>
<text text-anchor="start" x="588.5437" y="-501.8" font-family="Helvetica,sans-Serif" font-size="11.00" fill="#000000">[table]</text>
<polygon fill="none" stroke="#000000" points="434.5,-471.7 434.5,-493.7 623.5,-493.7 623.5,-471.7 434.5,-471.7"/>
<image xlink:href="../../images/primaryKeys.png" width="11px" height="12px" preserveAspectRatio="xMinYMin meet" x="439.5" y="-488.7"/>
<text text-anchor="start" x="454.5" y="-478.8" font-family="Helvetica,sans-Serif" font-size="11.00" fill="#000000">court_challenge</text>
<polygon fill="none" stroke="#000000" points="434.5,-449.7 434.5,-471.7 623.5,-471.7 623.5,-449.7 434.5,-449.7"/>
<image xlink:href="../../images/primaryKeys.png" width="11px" height="12px" preserveAspectRatio="xMinYMin meet" x="439.5" y="-466.7"/>
<text text-anchor="start" x="454.5" y="-456.8" font-family="Helvetica,sans-Serif" font-size="11.00" fill="#000000">policy</text>
<polygon fill="#ffffff" stroke="transparent" points="434.5,-430.7 434.5,-449.7 514.5,-449.7 514.5,-430.7 434.5,-430.7"/>
<polygon fill="none" stroke="#000000" points="434.5,-430.7 434.5,-449.7 514.5,-449.7 514.5,-430.7 434.5,-430.7"/>
<text text-anchor="start" x="437.5" y="-436.8" font-family="Helvetica,sans-Serif" font-size="11.00" fill="#000000">&lt; 2</text>
<polygon fill="#ffffff" stroke="transparent" points="514.5,-430.7 514.5,-449.7 581.5,-449.7 581.5,-430.7 514.5,-430.7"/>
<polygon fill="none" stroke="#000000" points="514.5,-430.7 514.5,-449.7 581.5,-449.7 581.5,-430.7 514.5,-430.7"/>
<text text-anchor="start" x="546.1105" y="-436.8" font-family="Helvetica,sans-Serif" font-size="11.00" fill="#000000">0 rows</text>
<polygon fill="#ffffff" stroke="transparent" points="581.5,-430.7 581.5,-449.7 623.5,-449.7 623.5,-430.7 581.5,-430.7"/>
<polygon fill="none" stroke="#000000" points="581.5,-430.7 581.5,-449.7 623.5,-449.7 623.5,-430.7 581.5,-430.7"/>
<text text-anchor="start" x="614.3862" y="-436.8" font-family="Helvetica,sans-Serif" font-size="11.00" fill="#000000"> &#160;</text>
</a>
</g>
</g>
<!-- court_challenge -->
<g id="node2" class="node">
<title>court_challenge</title>
<g id="a_node2"><a xlink:href="../../tables/court_challenge.html" xlink:title="court_challenge" target="_top">
<polygon fill="#ffffff" stroke="transparent" points="8,-120.7 8,-914.7 385,-914.7 385,-120.7 8,-120.7"/>
<polygon fill="#f5f5f5" stroke="transparent" points="10.5,-889.7 10.5,-912.7 383.5,-912.7 383.5,-889.7 10.5,-889.7"/>
<polygon fill="none" stroke="#000000" points="10.5,-889.7 10.5,-912.7 383.5,-912.7 383.5,-889.7 10.5,-889.7"/>
<text text-anchor="start" x="15.5" y="-898.8" font-family="Helvetica,sans-Serif" font-weight="bold" font-size="11.00" fill="#000000">court_challenge</text>
<text text-anchor="start" x="348.5437" y="-897.8" font-family="Helvetica,sans-Serif" font-size="11.00" fill="#000000">[table]</text>
<polygon fill="none" stroke="#000000" points="10.5,-867.7 10.5,-889.7 286.5,-889.7 286.5,-867.7 10.5,-867.7"/>
<image xlink:href="../../images/primaryKeys.png" width="11px" height="12px" preserveAspectRatio="xMinYMin meet" x="15.5" y="-884.7"/>
<text text-anchor="start" x="30.5" y="-874.8" font-family="Helvetica,sans-Serif" font-size="11.00" fill="#000000">id</text>
<polygon fill="none" stroke="#000000" points="286.5,-867.7 286.5,-889.7 383.5,-889.7 383.5,-867.7 286.5,-867.7"/>
<text text-anchor="start" x="289.5" y="-875.4" font-family="Helvetica,sans-Serif" font-size="11.00" fill="#000000">int4[10]</text>
<polygon fill="none" stroke="#000000" points="10.5,-845.7 10.5,-867.7 286.5,-867.7 286.5,-845.7 10.5,-845.7"/>
<text text-anchor="start" x="30.5" y="-852.8" font-family="Helvetica,sans-Serif" font-size="11.00" fill="#000000">jurisdiction</text>
<polygon fill="none" stroke="#000000" points="286.5,-845.7 286.5,-867.7 383.5,-867.7 383.5,-845.7 286.5,-845.7"/>
<text text-anchor="start" x="289.5" y="-853.4" font-family="Helvetica,sans-Serif" font-size="11.00" fill="#000000">text[2147483647]</text>
<polygon fill="none" stroke="#000000" points="10.5,-823.7 10.5,-845.7 286.5,-845.7 286.5,-823.7 10.5,-823.7"/>
<text text-anchor="start" x="30.5" y="-830.8" font-family="Helvetica,sans-Serif" font-size="11.00" fill="#000000">court</text>
<polygon fill="none" stroke="#000000" points="286.5,-823.7 286.5,-845.7 383.5,-845.7 383.5,-823.7 286.5,-823.7"/>
<text text-anchor="start" x="289.5" y="-831.4" font-family="Helvetica,sans-Serif" font-size="11.00" fill="#000000">text[2147483647]</text>
<polygon fill="none" stroke="#000000" points="10.5,-801.7 10.5,-823.7 286.5,-823.7 286.5,-801.7 10.5,-801.7"/>
<text text-anchor="start" x="30.5" y="-808.8" font-family="Helvetica,sans-Serif" font-size="11.00" fill="#000000">legal_authority_challenged</text>
<polygon fill="none" stroke="#000000" points="286.5,-801.7 286.5,-823.7 383.5,-823.7 383.5,-801.7 286.5,-801.7"/>
<text text-anchor="start" x="289.5" y="-809.4" font-family="Helvetica,sans-Serif" font-size="11.00" fill="#000000">text[2147483647]</text>
<polygon fill="none" stroke="#000000" points="10.5,-779.7 10.5,-801.7 286.5,-801.7 286.5,-779.7 10.5,-779.7"/>
<text text-anchor="start" x="30.5" y="-786.8" font-family="Helvetica,sans-Serif" font-size="11.00" fill="#000000">parties</text>
<polygon fill="none" stroke="#000000" points="286.5,-779.7 286.5,-801.7 383.5,-801.7 383.5,-779.7 286.5,-779.7"/>
<text text-anchor="start" x="289.5" y="-787.4" font-family="Helvetica,sans-Serif" font-size="11.00" fill="#000000">text[2147483647]</text>
<polygon fill="none" stroke="#000000" points="10.5,-757.7 10.5,-779.7 286.5,-779.7 286.5,-757.7 10.5,-757.7"/>
<text text-anchor="start" x="30.5" y="-764.8" font-family="Helvetica,sans-Serif" font-size="11.00" fill="#000000">date_of_complaint</text>
<polygon fill="none" stroke="#000000" points="286.5,-757.7 286.5,-779.7 383.5,-779.7 383.5,-757.7 286.5,-757.7"/>
<text text-anchor="start" x="289.5" y="-765.4" font-family="Helvetica,sans-Serif" font-size="11.00" fill="#000000">date[13]</text>
<polygon fill="none" stroke="#000000" points="10.5,-735.7 10.5,-757.7 286.5,-757.7 286.5,-735.7 10.5,-735.7"/>
<text text-anchor="start" x="30.5" y="-742.8" font-family="Helvetica,sans-Serif" font-size="11.00" fill="#000000">date_of_decision</text>
<polygon fill="none" stroke="#000000" points="286.5,-735.7 286.5,-757.7 383.5,-757.7 383.5,-735.7 286.5,-735.7"/>
<text text-anchor="start" x="289.5" y="-743.4" font-family="Helvetica,sans-Serif" font-size="11.00" fill="#000000">date[13]</text>
<polygon fill="none" stroke="#000000" points="10.5,-713.7 10.5,-735.7 286.5,-735.7 286.5,-713.7 10.5,-713.7"/>
<text text-anchor="start" x="30.5" y="-720.8" font-family="Helvetica,sans-Serif" font-size="11.00" fill="#000000">case_number</text>
<polygon fill="none" stroke="#000000" points="286.5,-713.7 286.5,-735.7 383.5,-735.7 383.5,-713.7 286.5,-713.7"/>
<text text-anchor="start" x="289.5" y="-721.4" font-family="Helvetica,sans-Serif" font-size="11.00" fill="#000000">text[2147483647]</text>
<polygon fill="none" stroke="#000000" points="10.5,-691.7 10.5,-713.7 286.5,-713.7 286.5,-691.7 10.5,-691.7"/>
<text text-anchor="start" x="30.5" y="-698.8" font-family="Helvetica,sans-Serif" font-size="11.00" fill="#000000">legal_citation</text>
<polygon fill="none" stroke="#000000" points="286.5,-691.7 286.5,-713.7 383.5,-713.7 383.5,-691.7 286.5,-691.7"/>
<text text-anchor="start" x="289.5" y="-699.4" font-family="Helvetica,sans-Serif" font-size="11.00" fill="#000000">text[2147483647]</text>
<polygon fill="none" stroke="#000000" points="10.5,-669.7 10.5,-691.7 286.5,-691.7 286.5,-669.7 10.5,-669.7"/>
<text text-anchor="start" x="30.5" y="-676.8" font-family="Helvetica,sans-Serif" font-size="11.00" fill="#000000">filed_in_state_or_federal_court</text>
<polygon fill="none" stroke="#000000" points="286.5,-669.7 286.5,-691.7 383.5,-691.7 383.5,-669.7 286.5,-669.7"/>
<text text-anchor="start" x="289.5" y="-677.4" font-family="Helvetica,sans-Serif" font-size="11.00" fill="#000000">text[2147483647]</text>
<polygon fill="none" stroke="#000000" points="10.5,-647.7 10.5,-669.7 286.5,-669.7 286.5,-647.7 10.5,-647.7"/>
<text text-anchor="start" x="30.5" y="-654.8" font-family="Helvetica,sans-Serif" font-size="11.00" fill="#000000">summary_of_action</text>
<polygon fill="none" stroke="#000000" points="286.5,-647.7 286.5,-669.7 383.5,-669.7 383.5,-647.7 286.5,-647.7"/>
<text text-anchor="start" x="289.5" y="-655.4" font-family="Helvetica,sans-Serif" font-size="11.00" fill="#000000">text[2147483647]</text>
<polygon fill="none" stroke="#000000" points="10.5,-625.7 10.5,-647.7 286.5,-647.7 286.5,-625.7 10.5,-625.7"/>
<text text-anchor="start" x="30.5" y="-632.8" font-family="Helvetica,sans-Serif" font-size="11.00" fill="#000000">complaint_category</text>
<polygon fill="none" stroke="#000000" points="286.5,-625.7 286.5,-647.7 383.5,-647.7 383.5,-625.7 286.5,-625.7"/>
<text text-anchor="start" x="289.4468" y="-633.4" font-family="Helvetica,sans-Serif" font-size="11.00" fill="#000000">_text[2147483647]</text>
<polygon fill="none" stroke="#000000" points="10.5,-603.7 10.5,-625.7 286.5,-625.7 286.5,-603.7 10.5,-603.7"/>
<text text-anchor="start" x="30.5" y="-610.8" font-family="Helvetica,sans-Serif" font-size="11.00" fill="#000000">legal_challenge</text>
<polygon fill="none" stroke="#000000" points="286.5,-603.7 286.5,-625.7 383.5,-625.7 383.5,-603.7 286.5,-603.7"/>
<text text-anchor="start" x="289.5" y="-611.4" font-family="Helvetica,sans-Serif" font-size="11.00" fill="#000000">bool[1]</text>
<polygon fill="none" stroke="#000000" points="10.5,-581.7 10.5,-603.7 286.5,-603.7 286.5,-581.7 10.5,-581.7"/>
<text text-anchor="start" x="30.5" y="-588.8" font-family="Helvetica,sans-Serif" font-size="11.00" fill="#000000">case_name</text>
<polygon fill="none" stroke="#000000" points="286.5,-581.7 286.5,-603.7 383.5,-603.7 383.5,-581.7 286.5,-581.7"/>
<text text-anchor="start" x="289.5" y="-589.4" font-family="Helvetica,sans-Serif" font-size="11.00" fill="#000000">text[2147483647]</text>
<polygon fill="none" stroke="#000000" points="10.5,-559.7 10.5,-581.7 286.5,-581.7 286.5,-559.7 10.5,-559.7"/>
<text text-anchor="start" x="30.5" y="-566.8" font-family="Helvetica,sans-Serif" font-size="11.00" fill="#000000">procedural_history</text>
<polygon fill="none" stroke="#000000" points="286.5,-559.7 286.5,-581.7 383.5,-581.7 383.5,-559.7 286.5,-559.7"/>
<text text-anchor="start" x="289.5" y="-567.4" font-family="Helvetica,sans-Serif" font-size="11.00" fill="#000000">text[2147483647]</text>
<polygon fill="none" stroke="#000000" points="10.5,-537.7 10.5,-559.7 286.5,-559.7 286.5,-537.7 10.5,-537.7"/>
<text text-anchor="start" x="30.5" y="-544.8" font-family="Helvetica,sans-Serif" font-size="11.00" fill="#000000">holding</text>
<polygon fill="none" stroke="#000000" points="286.5,-537.7 286.5,-559.7 383.5,-559.7 383.5,-537.7 286.5,-537.7"/>
<text text-anchor="start" x="289.5" y="-545.4" font-family="Helvetica,sans-Serif" font-size="11.00" fill="#000000">text[2147483647]</text>
<polygon fill="none" stroke="#000000" points="10.5,-515.7 10.5,-537.7 286.5,-537.7 286.5,-515.7 10.5,-515.7"/>
<text text-anchor="start" x="30.5" y="-522.8" font-family="Helvetica,sans-Serif" font-size="11.00" fill="#000000">government_order_upheld_or_enjoined</text>
<polygon fill="none" stroke="#000000" points="286.5,-515.7 286.5,-537.7 383.5,-537.7 383.5,-515.7 286.5,-515.7"/>
<text text-anchor="start" x="289.5" y="-523.4" font-family="Helvetica,sans-Serif" font-size="11.00" fill="#000000">text[2147483647]</text>
<polygon fill="none" stroke="#000000" points="10.5,-493.7 10.5,-515.7 286.5,-515.7 286.5,-493.7 10.5,-493.7"/>
<text text-anchor="start" x="30.5" y="-500.8" font-family="Helvetica,sans-Serif" font-size="11.00" fill="#000000">subsequent_action_or_current_status</text>
<polygon fill="none" stroke="#000000" points="286.5,-493.7 286.5,-515.7 383.5,-515.7 383.5,-493.7 286.5,-493.7"/>
<text text-anchor="start" x="289.5" y="-501.4" font-family="Helvetica,sans-Serif" font-size="11.00" fill="#000000">text[2147483647]</text>
<polygon fill="none" stroke="#000000" points="10.5,-471.7 10.5,-493.7 286.5,-493.7 286.5,-471.7 10.5,-471.7"/>
<text text-anchor="start" x="30.5" y="-478.8" font-family="Helvetica,sans-Serif" font-size="11.00" fill="#000000">did_doj_file_statement_of_interest</text>
<polygon fill="none" stroke="#000000" points="286.5,-471.7 286.5,-493.7 383.5,-493.7 383.5,-471.7 286.5,-471.7"/>
<text text-anchor="start" x="289.5" y="-479.4" font-family="Helvetica,sans-Serif" font-size="11.00" fill="#000000">text[2147483647]</text>
<polygon fill="none" stroke="#000000" points="10.5,-449.7 10.5,-471.7 286.5,-471.7 286.5,-449.7 10.5,-449.7"/>
<text text-anchor="start" x="30.5" y="-456.8" font-family="Helvetica,sans-Serif" font-size="11.00" fill="#000000">summary_of_doj_statement_of_interest</text>
<polygon fill="none" stroke="#000000" points="286.5,-449.7 286.5,-471.7 383.5,-471.7 383.5,-449.7 286.5,-449.7"/>
<text text-anchor="start" x="289.5" y="-457.4" font-family="Helvetica,sans-Serif" font-size="11.00" fill="#000000">text[2147483647]</text>
<polygon fill="none" stroke="#000000" points="10.5,-427.7 10.5,-449.7 286.5,-449.7 286.5,-427.7 10.5,-427.7"/>
<text text-anchor="start" x="30.5" y="-434.8" font-family="Helvetica,sans-Serif" font-size="11.00" fill="#000000">data_source_for_complaint</text>
<polygon fill="none" stroke="#000000" points="286.5,-427.7 286.5,-449.7 383.5,-449.7 383.5,-427.7 286.5,-427.7"/>
<text text-anchor="start" x="289.5" y="-435.4" font-family="Helvetica,sans-Serif" font-size="11.00" fill="#000000">text[2147483647]</text>
<polygon fill="none" stroke="#000000" points="10.5,-405.7 10.5,-427.7 286.5,-427.7 286.5,-405.7 10.5,-405.7"/>
<text text-anchor="start" x="30.5" y="-412.8" font-family="Helvetica,sans-Serif" font-size="11.00" fill="#000000">data_source_for_decision</text>
<polygon fill="none" stroke="#000000" points="286.5,-405.7 286.5,-427.7 383.5,-427.7 383.5,-405.7 286.5,-405.7"/>
<text text-anchor="start" x="289.5" y="-413.4" font-family="Helvetica,sans-Serif" font-size="11.00" fill="#000000">text[2147483647]</text>
<polygon fill="none" stroke="#000000" points="10.5,-383.7 10.5,-405.7 286.5,-405.7 286.5,-383.7 10.5,-383.7"/>
<text text-anchor="start" x="30.5" y="-390.8" font-family="Helvetica,sans-Serif" font-size="11.00" fill="#000000">data_source_for_doj_statement_of_interest</text>
<polygon fill="none" stroke="#000000" points="286.5,-383.7 286.5,-405.7 383.5,-405.7 383.5,-383.7 286.5,-383.7"/>
<text text-anchor="start" x="289.5" y="-391.4" font-family="Helvetica,sans-Serif" font-size="11.00" fill="#000000">text[2147483647]</text>
<polygon fill="none" stroke="#000000" points="10.5,-361.7 10.5,-383.7 286.5,-383.7 286.5,-361.7 10.5,-361.7"/>
<text text-anchor="start" x="30.5" y="-368.8" font-family="Helvetica,sans-Serif" font-size="11.00" fill="#000000">pdf_documentation</text>
<polygon fill="none" stroke="#000000" points="286.5,-361.7 286.5,-383.7 383.5,-383.7 383.5,-361.7 286.5,-361.7"/>
<text text-anchor="start" x="289.4468" y="-369.4" font-family="Helvetica,sans-Serif" font-size="11.00" fill="#000000">_text[2147483647]</text>
<polygon fill="none" stroke="#000000" points="10.5,-339.7 10.5,-361.7 286.5,-361.7 286.5,-339.7 10.5,-339.7"/>
<text text-anchor="start" x="30.5" y="-346.8" font-family="Helvetica,sans-Serif" font-size="11.00" fill="#000000">policy_or_law_name</text>
<polygon fill="none" stroke="#000000" points="286.5,-339.7 286.5,-361.7 383.5,-361.7 383.5,-339.7 286.5,-339.7"/>
<text text-anchor="start" x="289.5" y="-347.4" font-family="Helvetica,sans-Serif" font-size="11.00" fill="#000000">text[2147483647]</text>
<polygon fill="none" stroke="#000000" points="10.5,-317.7 10.5,-339.7 286.5,-339.7 286.5,-317.7 10.5,-317.7"/>
<text text-anchor="start" x="30.5" y="-324.8" font-family="Helvetica,sans-Serif" font-size="11.00" fill="#000000">source_id</text>
<polygon fill="none" stroke="#000000" points="286.5,-317.7 286.5,-339.7 383.5,-339.7 383.5,-317.7 286.5,-317.7"/>
<text text-anchor="start" x="289.5" y="-325.4" font-family="Helvetica,sans-Serif" font-size="11.00" fill="#000000">text[2147483647]</text>
<polygon fill="none" stroke="#000000" points="10.5,-295.7 10.5,-317.7 286.5,-317.7 286.5,-295.7 10.5,-295.7"/>
<text text-anchor="start" x="30.5" y="-302.8" font-family="Helvetica,sans-Serif" font-size="11.00" fill="#000000">matter_numbers</text>
<polygon fill="none" stroke="#000000" points="286.5,-295.7 286.5,-317.7 383.5,-317.7 383.5,-295.7 286.5,-295.7"/>
<text text-anchor="start" x="289.5" y="-303.4" font-family="Helvetica,sans-Serif" font-size="11.00" fill="#000000">_int4[10]</text>
<polygon fill="none" stroke="#000000" points="10.5,-273.7 10.5,-295.7 286.5,-295.7 286.5,-273.7 10.5,-273.7"/>
<text text-anchor="start" x="30.5" y="-280.8" font-family="Helvetica,sans-Serif" font-size="11.00" fill="#000000">search_text</text>
<polygon fill="none" stroke="#000000" points="286.5,-273.7 286.5,-295.7 383.5,-295.7 383.5,-273.7 286.5,-273.7"/>
<text text-anchor="start" x="289.5" y="-281.4" font-family="Helvetica,sans-Serif" font-size="11.00" fill="#000000">text[2147483647]</text>
<polygon fill="none" stroke="#000000" points="10.5,-251.7 10.5,-273.7 286.5,-273.7 286.5,-251.7 10.5,-251.7"/>
<text text-anchor="start" x="30.5" y="-258.8" font-family="Helvetica,sans-Serif" font-size="11.00" fill="#000000">policy_categories</text>
<polygon fill="none" stroke="#000000" points="286.5,-251.7 286.5,-273.7 383.5,-273.7 383.5,-251.7 286.5,-251.7"/>
<text text-anchor="start" x="289.4468" y="-259.4" font-family="Helvetica,sans-Serif" font-size="11.00" fill="#000000">_text[2147483647]</text>
<polygon fill="none" stroke="#000000" points="10.5,-229.7 10.5,-251.7 286.5,-251.7 286.5,-229.7 10.5,-229.7"/>
<text text-anchor="start" x="30.5" y="-236.8" font-family="Helvetica,sans-Serif" font-size="11.00" fill="#000000">parties_or_citation_and_summary_of_action</text>
<polygon fill="none" stroke="#000000" points="286.5,-229.7 286.5,-251.7 383.5,-251.7 383.5,-229.7 286.5,-229.7"/>
<text text-anchor="start" x="289.5" y="-237.4" font-family="Helvetica,sans-Serif" font-size="11.00" fill="#000000">text[2147483647]</text>
<polygon fill="none" stroke="#000000" points="10.5,-207.7 10.5,-229.7 286.5,-229.7 286.5,-207.7 10.5,-207.7"/>
<text text-anchor="start" x="30.5" y="-214.8" font-family="Helvetica,sans-Serif" font-size="11.00" fill="#000000">complaint_category_new</text>
<polygon fill="none" stroke="#000000" points="286.5,-207.7 286.5,-229.7 383.5,-229.7 383.5,-207.7 286.5,-207.7"/>
<text text-anchor="start" x="289.4468" y="-215.4" font-family="Helvetica,sans-Serif" font-size="11.00" fill="#000000">_text[2147483647]</text>
<polygon fill="none" stroke="#000000" points="10.5,-185.7 10.5,-207.7 286.5,-207.7 286.5,-185.7 10.5,-185.7"/>
<text text-anchor="start" x="30.5" y="-192.8" font-family="Helvetica,sans-Serif" font-size="11.00" fill="#000000">complaint_subcategory_new</text>
<polygon fill="none" stroke="#000000" points="286.5,-185.7 286.5,-207.7 383.5,-207.7 383.5,-185.7 286.5,-185.7"/>
<text text-anchor="start" x="289.4468" y="-193.4" font-family="Helvetica,sans-Serif" font-size="11.00" fill="#000000">_text[2147483647]</text>
<polygon fill="none" stroke="#000000" points="10.5,-163.7 10.5,-185.7 286.5,-185.7 286.5,-163.7 10.5,-163.7"/>
<text text-anchor="start" x="30.5" y="-170.8" font-family="Helvetica,sans-Serif" font-size="11.00" fill="#000000">policy_status</text>
<polygon fill="none" stroke="#000000" points="286.5,-163.7 286.5,-185.7 383.5,-185.7 383.5,-163.7 286.5,-163.7"/>
<text text-anchor="start" x="289.5" y="-171.4" font-family="Helvetica,sans-Serif" font-size="11.00" fill="#000000">text[2147483647]</text>
<polygon fill="none" stroke="#000000" points="10.5,-141.7 10.5,-163.7 286.5,-163.7 286.5,-141.7 10.5,-141.7"/>
<text text-anchor="start" x="30.5" y="-148.8" font-family="Helvetica,sans-Serif" font-size="11.00" fill="#000000">case_status</text>
<polygon fill="none" stroke="#000000" points="286.5,-141.7 286.5,-163.7 383.5,-163.7 383.5,-141.7 286.5,-141.7"/>
<text text-anchor="start" x="289.5" y="-149.4" font-family="Helvetica,sans-Serif" font-size="11.00" fill="#000000">text[2147483647]</text>
<polygon fill="#ffffff" stroke="transparent" points="10.5,-122.7 10.5,-141.7 139.5,-141.7 139.5,-122.7 10.5,-122.7"/>
<polygon fill="none" stroke="#000000" points="10.5,-122.7 10.5,-141.7 139.5,-141.7 139.5,-122.7 10.5,-122.7"/>
<text text-anchor="start" x="13.5" y="-128.8" font-family="Helvetica,sans-Serif" font-size="11.00" fill="#000000">&lt; 0</text>
<polygon fill="#ffffff" stroke="transparent" points="139.5,-122.7 139.5,-141.7 286.5,-141.7 286.5,-122.7 139.5,-122.7"/>
<polygon fill="none" stroke="#000000" points="139.5,-122.7 139.5,-141.7 286.5,-141.7 286.5,-122.7 139.5,-122.7"/>
<text text-anchor="start" x="251.1105" y="-128.8" font-family="Helvetica,sans-Serif" font-size="11.00" fill="#000000">0 rows</text>
<polygon fill="#ffffff" stroke="transparent" points="286.5,-122.7 286.5,-141.7 383.5,-141.7 383.5,-122.7 286.5,-122.7"/>
<polygon fill="none" stroke="#000000" points="286.5,-122.7 286.5,-141.7 383.5,-141.7 383.5,-122.7 286.5,-122.7"/>
<text text-anchor="start" x="364.9053" y="-128.8" font-family="Helvetica,sans-Serif" font-size="11.00" fill="#000000">1 &gt;</text>
<polygon fill="none" stroke="#000000" stroke-width="2" points="9,-121.7 9,-913.7 384,-913.7 384,-121.7 9,-121.7"/>
</a>
</g>
</g>
<!-- policies_to_court_challenges&#45;&gt;court_challenge -->
<g id="edge1" class="edge">
<title>policies_to_court_challenges:w&#45;&gt;court_challenge:e</title>
<path fill="none" stroke="#000000" d="M420.6546,-486.8793C360.2971,-529.2014 466.8547,-878.7 383.5,-878.7"/>
<polygon fill="#000000" stroke="#000000" points="426.8413,-485.0119 435.5403,-486.1464 430.6707,-483.8559 434.5,-482.7 434.5,-482.7 434.5,-482.7 430.6707,-483.8559 433.4597,-479.2536 426.8413,-485.0119 426.8413,-485.0119"/>
<ellipse fill="none" stroke="#000000" cx="423.7778" cy="-485.9366" rx="3.2" ry="3.2"/>
</g>
<!-- policy -->
<g id="node3" class="node">
<title>policy</title>
<g id="a_node3"><a xlink:href="../../tables/policy.html" xlink:title="policy" target="_top">
<polygon fill="#ffffff" stroke="transparent" points="147.5,-38.2 147.5,-99.2 245.5,-99.2 245.5,-38.2 147.5,-38.2"/>
<polygon fill="#f5f5f5" stroke="transparent" points="147.5,-75.7 147.5,-98.7 245.5,-98.7 245.5,-75.7 147.5,-75.7"/>
<polygon fill="none" stroke="#000000" points="147.5,-75.7 147.5,-98.7 245.5,-98.7 245.5,-75.7 147.5,-75.7"/>
<text text-anchor="start" x="152.5" y="-84.8" font-family="Helvetica,sans-Serif" font-weight="bold" font-size="11.00" fill="#000000">policy</text>
<text text-anchor="start" x="210.5437" y="-83.8" font-family="Helvetica,sans-Serif" font-size="11.00" fill="#000000">[table]</text>
<polygon fill="none" stroke="#000000" points="147.5,-56.7 147.5,-75.7 245.5,-75.7 245.5,-56.7 147.5,-56.7"/>
<text text-anchor="start" x="150.5" y="-62.8" font-family="Helvetica,sans-Serif" font-size="11.00" fill="#000000">...</text>
<polygon fill="#ffffff" stroke="transparent" points="147.5,-37.7 147.5,-56.7 159.5,-56.7 159.5,-37.7 147.5,-37.7"/>
<polygon fill="none" stroke="#000000" points="147.5,-37.7 147.5,-56.7 159.5,-56.7 159.5,-37.7 147.5,-37.7"/>
<text text-anchor="start" x="150.4431" y="-43.8" font-family="Helvetica,sans-Serif" font-size="11.00" fill="#000000"> &#160;</text>
<polygon fill="#ffffff" stroke="transparent" points="159.5,-37.7 159.5,-56.7 224.5,-56.7 224.5,-37.7 159.5,-37.7"/>
<polygon fill="none" stroke="#000000" points="159.5,-37.7 159.5,-56.7 224.5,-56.7 224.5,-37.7 159.5,-37.7"/>
<text text-anchor="start" x="162.047" y="-43.8" font-family="Helvetica,sans-Serif" font-size="11.00" fill="#000000">40,950 rows</text>
<polygon fill="#ffffff" stroke="transparent" points="224.5,-37.7 224.5,-56.7 245.5,-56.7 245.5,-37.7 224.5,-37.7"/>
<polygon fill="none" stroke="#000000" points="224.5,-37.7 224.5,-56.7 245.5,-56.7 245.5,-37.7 224.5,-37.7"/>
<text text-anchor="start" x="227.2027" y="-43.8" font-family="Helvetica,sans-Serif" font-size="11.00" fill="#000000">8 &gt;</text>
</a>
</g>
</g>
<!-- policies_to_court_challenges&#45;&gt;policy -->
<g id="edge2" class="edge">
<title>policies_to_court_challenges:w&#45;&gt;policy:e</title>
<path fill="none" stroke="#000000" d="M420.3265,-456.5808C367.7415,-421.0674 439.7055,-166.5632 393,-110.7 349.0379,-58.1181 314.0385,-65.7 245.5,-65.7"/>
<polygon fill="#000000" stroke="#000000" points="426.8178,-458.4673 433.4953,-464.157 430.6589,-459.5837 434.5,-460.7 434.5,-460.7 434.5,-460.7 430.6589,-459.5837 435.5047,-457.243 426.8178,-458.4673 426.8178,-458.4673"/>
<ellipse fill="none" stroke="#000000" cx="423.745" cy="-457.5743" rx="3.2" ry="3.2"/>
</g>
</g>
</svg>
