<?xml version="1.0" encoding="UTF-8" standalone="no"?>
<!DOCTYPE svg PUBLIC "-//W3C//DTD SVG 1.1//EN"
 "http://www.w3.org/Graphics/SVG/1.1/DTD/svg11.dtd">
<!-- Generated by graphviz version 2.40.1 (20161225.0304)
 -->
<!-- Title: oneDegreeRelationshipsDiagram Pages: 1 -->
<svg width="639pt" height="844pt"
 viewBox="0.00 0.00 639.00 844.20" xmlns="http://www.w3.org/2000/svg" xmlns:xlink="http://www.w3.org/1999/xlink">
<g id="graph0" class="graph" transform="scale(1 1) rotate(0) translate(4 840.2)">
<title>oneDegreeRelationshipsDiagram</title>
<polygon fill="#ffffff" stroke="transparent" points="-4,4 -4,-840.2 635,-840.2 635,4 -4,4"/>
<text text-anchor="middle" x="72.4936" y="-7.3" font-family="Helvetica,sans-Serif" font-size="11.00" fill="#000000">Generated by SchemaSpy</text>
<!-- policies_to_court_challenges -->
<g id="node1" class="node">
<title>policies_to_court_challenges</title>
<g id="a_node1"><a xlink:href="../../tables/policies_to_court_challenges.html" xlink:title="policies_to_court_challenges" target="_top">
<polygon fill="#ffffff" stroke="transparent" points="434,-744.2 434,-830.2 623,-830.2 623,-744.2 434,-744.2"/>
<polygon fill="#f5f5f5" stroke="transparent" points="434.5,-807.2 434.5,-830.2 623.5,-830.2 623.5,-807.2 434.5,-807.2"/>
<polygon fill="none" stroke="#000000" points="434.5,-807.2 434.5,-830.2 623.5,-830.2 623.5,-807.2 434.5,-807.2"/>
<text text-anchor="start" x="439.5" y="-816.3" font-family="Helvetica,sans-Serif" font-weight="bold" font-size="11.00" fill="#000000">policies_to_court_challenges</text>
<text text-anchor="start" x="588.5437" y="-815.3" font-family="Helvetica,sans-Serif" font-size="11.00" fill="#000000">[table]</text>
<polygon fill="none" stroke="#000000" points="434.5,-785.2 434.5,-807.2 623.5,-807.2 623.5,-785.2 434.5,-785.2"/>
<image xlink:href="../../images/primaryKeys.png" width="11px" height="12px" preserveAspectRatio="xMinYMin meet" x="439.5" y="-802.2"/>
<text text-anchor="start" x="454.5" y="-792.3" font-family="Helvetica,sans-Serif" font-size="11.00" fill="#000000">court_challenge</text>
<polygon fill="none" stroke="#000000" points="434.5,-763.2 434.5,-785.2 623.5,-785.2 623.5,-763.2 434.5,-763.2"/>
<image xlink:href="../../images/primaryKeys.png" width="11px" height="12px" preserveAspectRatio="xMinYMin meet" x="439.5" y="-780.2"/>
<text text-anchor="start" x="454.5" y="-770.3" font-family="Helvetica,sans-Serif" font-size="11.00" fill="#000000">policy</text>
<polygon fill="#ffffff" stroke="transparent" points="434.5,-744.2 434.5,-763.2 514.5,-763.2 514.5,-744.2 434.5,-744.2"/>
<polygon fill="none" stroke="#000000" points="434.5,-744.2 434.5,-763.2 514.5,-763.2 514.5,-744.2 434.5,-744.2"/>
<text text-anchor="start" x="437.5" y="-750.3" font-family="Helvetica,sans-Serif" font-size="11.00" fill="#000000">&lt; 2</text>
<polygon fill="#ffffff" stroke="transparent" points="514.5,-744.2 514.5,-763.2 581.5,-763.2 581.5,-744.2 514.5,-744.2"/>
<polygon fill="none" stroke="#000000" points="514.5,-744.2 514.5,-763.2 581.5,-763.2 581.5,-744.2 514.5,-744.2"/>
<text text-anchor="start" x="546.1105" y="-750.3" font-family="Helvetica,sans-Serif" font-size="11.00" fill="#000000">0 rows</text>
<polygon fill="#ffffff" stroke="transparent" points="581.5,-744.2 581.5,-763.2 623.5,-763.2 623.5,-744.2 581.5,-744.2"/>
<polygon fill="none" stroke="#000000" points="581.5,-744.2 581.5,-763.2 623.5,-763.2 623.5,-744.2 581.5,-744.2"/>
<text text-anchor="start" x="614.3862" y="-750.3" font-family="Helvetica,sans-Serif" font-size="11.00" fill="#000000"> &#160;</text>
</a>
</g>
</g>
<!-- court_challenge -->
<g id="node2" class="node">
<title>court_challenge</title>
<g id="a_node2"><a xlink:href="../../tables/court_challenge.html" xlink:title="court_challenge" target="_top">
<polygon fill="#ffffff" stroke="transparent" points="8,-38.2 8,-832.2 385,-832.2 385,-38.2 8,-38.2"/>
<polygon fill="#f5f5f5" stroke="transparent" points="10.5,-807.2 10.5,-830.2 383.5,-830.2 383.5,-807.2 10.5,-807.2"/>
<polygon fill="none" stroke="#000000" points="10.5,-807.2 10.5,-830.2 383.5,-830.2 383.5,-807.2 10.5,-807.2"/>
<text text-anchor="start" x="15.5" y="-816.3" font-family="Helvetica,sans-Serif" font-weight="bold" font-size="11.00" fill="#000000">court_challenge</text>
<text text-anchor="start" x="348.5437" y="-815.3" font-family="Helvetica,sans-Serif" font-size="11.00" fill="#000000">[table]</text>
<polygon fill="none" stroke="#000000" points="10.5,-785.2 10.5,-807.2 286.5,-807.2 286.5,-785.2 10.5,-785.2"/>
<image xlink:href="../../images/primaryKeys.png" width="11px" height="12px" preserveAspectRatio="xMinYMin meet" x="15.5" y="-802.2"/>
<text text-anchor="start" x="30.5" y="-792.3" font-family="Helvetica,sans-Serif" font-size="11.00" fill="#000000">id</text>
<polygon fill="none" stroke="#000000" points="286.5,-785.2 286.5,-807.2 383.5,-807.2 383.5,-785.2 286.5,-785.2"/>
<text text-anchor="start" x="289.5" y="-792.9" font-family="Helvetica,sans-Serif" font-size="11.00" fill="#000000">int4[10]</text>
<polygon fill="none" stroke="#000000" points="10.5,-763.2 10.5,-785.2 286.5,-785.2 286.5,-763.2 10.5,-763.2"/>
<text text-anchor="start" x="30.5" y="-770.3" font-family="Helvetica,sans-Serif" font-size="11.00" fill="#000000">jurisdiction</text>
<polygon fill="none" stroke="#000000" points="286.5,-763.2 286.5,-785.2 383.5,-785.2 383.5,-763.2 286.5,-763.2"/>
<text text-anchor="start" x="289.5" y="-770.9" font-family="Helvetica,sans-Serif" font-size="11.00" fill="#000000">text[2147483647]</text>
<polygon fill="none" stroke="#000000" points="10.5,-741.2 10.5,-763.2 286.5,-763.2 286.5,-741.2 10.5,-741.2"/>
<text text-anchor="start" x="30.5" y="-748.3" font-family="Helvetica,sans-Serif" font-size="11.00" fill="#000000">court</text>
<polygon fill="none" stroke="#000000" points="286.5,-741.2 286.5,-763.2 383.5,-763.2 383.5,-741.2 286.5,-741.2"/>
<text text-anchor="start" x="289.5" y="-748.9" font-family="Helvetica,sans-Serif" font-size="11.00" fill="#000000">text[2147483647]</text>
<polygon fill="none" stroke="#000000" points="10.5,-719.2 10.5,-741.2 286.5,-741.2 286.5,-719.2 10.5,-719.2"/>
<text text-anchor="start" x="30.5" y="-726.3" font-family="Helvetica,sans-Serif" font-size="11.00" fill="#000000">legal_authority_challenged</text>
<polygon fill="none" stroke="#000000" points="286.5,-719.2 286.5,-741.2 383.5,-741.2 383.5,-719.2 286.5,-719.2"/>
<text text-anchor="start" x="289.5" y="-726.9" font-family="Helvetica,sans-Serif" font-size="11.00" fill="#000000">text[2147483647]</text>
<polygon fill="none" stroke="#000000" points="10.5,-697.2 10.5,-719.2 286.5,-719.2 286.5,-697.2 10.5,-697.2"/>
<text text-anchor="start" x="30.5" y="-704.3" font-family="Helvetica,sans-Serif" font-size="11.00" fill="#000000">parties</text>
<polygon fill="none" stroke="#000000" points="286.5,-697.2 286.5,-719.2 383.5,-719.2 383.5,-697.2 286.5,-697.2"/>
<text text-anchor="start" x="289.5" y="-704.9" font-family="Helvetica,sans-Serif" font-size="11.00" fill="#000000">text[2147483647]</text>
<polygon fill="none" stroke="#000000" points="10.5,-675.2 10.5,-697.2 286.5,-697.2 286.5,-675.2 10.5,-675.2"/>
<text text-anchor="start" x="30.5" y="-682.3" font-family="Helvetica,sans-Serif" font-size="11.00" fill="#000000">date_of_complaint</text>
<polygon fill="none" stroke="#000000" points="286.5,-675.2 286.5,-697.2 383.5,-697.2 383.5,-675.2 286.5,-675.2"/>
<text text-anchor="start" x="289.5" y="-682.9" font-family="Helvetica,sans-Serif" font-size="11.00" fill="#000000">date[13]</text>
<polygon fill="none" stroke="#000000" points="10.5,-653.2 10.5,-675.2 286.5,-675.2 286.5,-653.2 10.5,-653.2"/>
<text text-anchor="start" x="30.5" y="-660.3" font-family="Helvetica,sans-Serif" font-size="11.00" fill="#000000">date_of_decision</text>
<polygon fill="none" stroke="#000000" points="286.5,-653.2 286.5,-675.2 383.5,-675.2 383.5,-653.2 286.5,-653.2"/>
<text text-anchor="start" x="289.5" y="-660.9" font-family="Helvetica,sans-Serif" font-size="11.00" fill="#000000">date[13]</text>
<polygon fill="none" stroke="#000000" points="10.5,-631.2 10.5,-653.2 286.5,-653.2 286.5,-631.2 10.5,-631.2"/>
<text text-anchor="start" x="30.5" y="-638.3" font-family="Helvetica,sans-Serif" font-size="11.00" fill="#000000">case_number</text>
<polygon fill="none" stroke="#000000" points="286.5,-631.2 286.5,-653.2 383.5,-653.2 383.5,-631.2 286.5,-631.2"/>
<text text-anchor="start" x="289.5" y="-638.9" font-family="Helvetica,sans-Serif" font-size="11.00" fill="#000000">text[2147483647]</text>
<polygon fill="none" stroke="#000000" points="10.5,-609.2 10.5,-631.2 286.5,-631.2 286.5,-609.2 10.5,-609.2"/>
<text text-anchor="start" x="30.5" y="-616.3" font-family="Helvetica,sans-Serif" font-size="11.00" fill="#000000">legal_citation</text>
<polygon fill="none" stroke="#000000" points="286.5,-609.2 286.5,-631.2 383.5,-631.2 383.5,-609.2 286.5,-609.2"/>
<text text-anchor="start" x="289.5" y="-616.9" font-family="Helvetica,sans-Serif" font-size="11.00" fill="#000000">text[2147483647]</text>
<polygon fill="none" stroke="#000000" points="10.5,-587.2 10.5,-609.2 286.5,-609.2 286.5,-587.2 10.5,-587.2"/>
<text text-anchor="start" x="30.5" y="-594.3" font-family="Helvetica,sans-Serif" font-size="11.00" fill="#000000">filed_in_state_or_federal_court</text>
<polygon fill="none" stroke="#000000" points="286.5,-587.2 286.5,-609.2 383.5,-609.2 383.5,-587.2 286.5,-587.2"/>
<text text-anchor="start" x="289.5" y="-594.9" font-family="Helvetica,sans-Serif" font-size="11.00" fill="#000000">text[2147483647]</text>
<polygon fill="none" stroke="#000000" points="10.5,-565.2 10.5,-587.2 286.5,-587.2 286.5,-565.2 10.5,-565.2"/>
<text text-anchor="start" x="30.5" y="-572.3" font-family="Helvetica,sans-Serif" font-size="11.00" fill="#000000">summary_of_action</text>
<polygon fill="none" stroke="#000000" points="286.5,-565.2 286.5,-587.2 383.5,-587.2 383.5,-565.2 286.5,-565.2"/>
<text text-anchor="start" x="289.5" y="-572.9" font-family="Helvetica,sans-Serif" font-size="11.00" fill="#000000">text[2147483647]</text>
<polygon fill="none" stroke="#000000" points="10.5,-543.2 10.5,-565.2 286.5,-565.2 286.5,-543.2 10.5,-543.2"/>
<text text-anchor="start" x="30.5" y="-550.3" font-family="Helvetica,sans-Serif" font-size="11.00" fill="#000000">complaint_category</text>
<polygon fill="none" stroke="#000000" points="286.5,-543.2 286.5,-565.2 383.5,-565.2 383.5,-543.2 286.5,-543.2"/>
<text text-anchor="start" x="289.4468" y="-550.9" font-family="Helvetica,sans-Serif" font-size="11.00" fill="#000000">_text[2147483647]</text>
<polygon fill="none" stroke="#000000" points="10.5,-521.2 10.5,-543.2 286.5,-543.2 286.5,-521.2 10.5,-521.2"/>
<text text-anchor="start" x="30.5" y="-528.3" font-family="Helvetica,sans-Serif" font-size="11.00" fill="#000000">legal_challenge</text>
<polygon fill="none" stroke="#000000" points="286.5,-521.2 286.5,-543.2 383.5,-543.2 383.5,-521.2 286.5,-521.2"/>
<text text-anchor="start" x="289.5" y="-528.9" font-family="Helvetica,sans-Serif" font-size="11.00" fill="#000000">bool[1]</text>
<polygon fill="none" stroke="#000000" points="10.5,-499.2 10.5,-521.2 286.5,-521.2 286.5,-499.2 10.5,-499.2"/>
<text text-anchor="start" x="30.5" y="-506.3" font-family="Helvetica,sans-Serif" font-size="11.00" fill="#000000">case_name</text>
<polygon fill="none" stroke="#000000" points="286.5,-499.2 286.5,-521.2 383.5,-521.2 383.5,-499.2 286.5,-499.2"/>
<text text-anchor="start" x="289.5" y="-506.9" font-family="Helvetica,sans-Serif" font-size="11.00" fill="#000000">text[2147483647]</text>
<polygon fill="none" stroke="#000000" points="10.5,-477.2 10.5,-499.2 286.5,-499.2 286.5,-477.2 10.5,-477.2"/>
<text text-anchor="start" x="30.5" y="-484.3" font-family="Helvetica,sans-Serif" font-size="11.00" fill="#000000">procedural_history</text>
<polygon fill="none" stroke="#000000" points="286.5,-477.2 286.5,-499.2 383.5,-499.2 383.5,-477.2 286.5,-477.2"/>
<text text-anchor="start" x="289.5" y="-484.9" font-family="Helvetica,sans-Serif" font-size="11.00" fill="#000000">text[2147483647]</text>
<polygon fill="none" stroke="#000000" points="10.5,-455.2 10.5,-477.2 286.5,-477.2 286.5,-455.2 10.5,-455.2"/>
<text text-anchor="start" x="30.5" y="-462.3" font-family="Helvetica,sans-Serif" font-size="11.00" fill="#000000">holding</text>
<polygon fill="none" stroke="#000000" points="286.5,-455.2 286.5,-477.2 383.5,-477.2 383.5,-455.2 286.5,-455.2"/>
<text text-anchor="start" x="289.5" y="-462.9" font-family="Helvetica,sans-Serif" font-size="11.00" fill="#000000">text[2147483647]</text>
<polygon fill="none" stroke="#000000" points="10.5,-433.2 10.5,-455.2 286.5,-455.2 286.5,-433.2 10.5,-433.2"/>
<text text-anchor="start" x="30.5" y="-440.3" font-family="Helvetica,sans-Serif" font-size="11.00" fill="#000000">government_order_upheld_or_enjoined</text>
<polygon fill="none" stroke="#000000" points="286.5,-433.2 286.5,-455.2 383.5,-455.2 383.5,-433.2 286.5,-433.2"/>
<text text-anchor="start" x="289.5" y="-440.9" font-family="Helvetica,sans-Serif" font-size="11.00" fill="#000000">text[2147483647]</text>
<polygon fill="none" stroke="#000000" points="10.5,-411.2 10.5,-433.2 286.5,-433.2 286.5,-411.2 10.5,-411.2"/>
<text text-anchor="start" x="30.5" y="-418.3" font-family="Helvetica,sans-Serif" font-size="11.00" fill="#000000">subsequent_action_or_current_status</text>
<polygon fill="none" stroke="#000000" points="286.5,-411.2 286.5,-433.2 383.5,-433.2 383.5,-411.2 286.5,-411.2"/>
<text text-anchor="start" x="289.5" y="-418.9" font-family="Helvetica,sans-Serif" font-size="11.00" fill="#000000">text[2147483647]</text>
<polygon fill="none" stroke="#000000" points="10.5,-389.2 10.5,-411.2 286.5,-411.2 286.5,-389.2 10.5,-389.2"/>
<text text-anchor="start" x="30.5" y="-396.3" font-family="Helvetica,sans-Serif" font-size="11.00" fill="#000000">did_doj_file_statement_of_interest</text>
<polygon fill="none" stroke="#000000" points="286.5,-389.2 286.5,-411.2 383.5,-411.2 383.5,-389.2 286.5,-389.2"/>
<text text-anchor="start" x="289.5" y="-396.9" font-family="Helvetica,sans-Serif" font-size="11.00" fill="#000000">text[2147483647]</text>
<polygon fill="none" stroke="#000000" points="10.5,-367.2 10.5,-389.2 286.5,-389.2 286.5,-367.2 10.5,-367.2"/>
<text text-anchor="start" x="30.5" y="-374.3" font-family="Helvetica,sans-Serif" font-size="11.00" fill="#000000">summary_of_doj_statement_of_interest</text>
<polygon fill="none" stroke="#000000" points="286.5,-367.2 286.5,-389.2 383.5,-389.2 383.5,-367.2 286.5,-367.2"/>
<text text-anchor="start" x="289.5" y="-374.9" font-family="Helvetica,sans-Serif" font-size="11.00" fill="#000000">text[2147483647]</text>
<polygon fill="none" stroke="#000000" points="10.5,-345.2 10.5,-367.2 286.5,-367.2 286.5,-345.2 10.5,-345.2"/>
<text text-anchor="start" x="30.5" y="-352.3" font-family="Helvetica,sans-Serif" font-size="11.00" fill="#000000">data_source_for_complaint</text>
<polygon fill="none" stroke="#000000" points="286.5,-345.2 286.5,-367.2 383.5,-367.2 383.5,-345.2 286.5,-345.2"/>
<text text-anchor="start" x="289.5" y="-352.9" font-family="Helvetica,sans-Serif" font-size="11.00" fill="#000000">text[2147483647]</text>
<polygon fill="none" stroke="#000000" points="10.5,-323.2 10.5,-345.2 286.5,-345.2 286.5,-323.2 10.5,-323.2"/>
<text text-anchor="start" x="30.5" y="-330.3" font-family="Helvetica,sans-Serif" font-size="11.00" fill="#000000">data_source_for_decision</text>
<polygon fill="none" stroke="#000000" points="286.5,-323.2 286.5,-345.2 383.5,-345.2 383.5,-323.2 286.5,-323.2"/>
<text text-anchor="start" x="289.5" y="-330.9" font-family="Helvetica,sans-Serif" font-size="11.00" fill="#000000">text[2147483647]</text>
<polygon fill="none" stroke="#000000" points="10.5,-301.2 10.5,-323.2 286.5,-323.2 286.5,-301.2 10.5,-301.2"/>
<text text-anchor="start" x="30.5" y="-308.3" font-family="Helvetica,sans-Serif" font-size="11.00" fill="#000000">data_source_for_doj_statement_of_interest</text>
<polygon fill="none" stroke="#000000" points="286.5,-301.2 286.5,-323.2 383.5,-323.2 383.5,-301.2 286.5,-301.2"/>
<text text-anchor="start" x="289.5" y="-308.9" font-family="Helvetica,sans-Serif" font-size="11.00" fill="#000000">text[2147483647]</text>
<polygon fill="none" stroke="#000000" points="10.5,-279.2 10.5,-301.2 286.5,-301.2 286.5,-279.2 10.5,-279.2"/>
<text text-anchor="start" x="30.5" y="-286.3" font-family="Helvetica,sans-Serif" font-size="11.00" fill="#000000">pdf_documentation</text>
<polygon fill="none" stroke="#000000" points="286.5,-279.2 286.5,-301.2 383.5,-301.2 383.5,-279.2 286.5,-279.2"/>
<text text-anchor="start" x="289.4468" y="-286.9" font-family="Helvetica,sans-Serif" font-size="11.00" fill="#000000">_text[2147483647]</text>
<polygon fill="none" stroke="#000000" points="10.5,-257.2 10.5,-279.2 286.5,-279.2 286.5,-257.2 10.5,-257.2"/>
<text text-anchor="start" x="30.5" y="-264.3" font-family="Helvetica,sans-Serif" font-size="11.00" fill="#000000">policy_or_law_name</text>
<polygon fill="none" stroke="#000000" points="286.5,-257.2 286.5,-279.2 383.5,-279.2 383.5,-257.2 286.5,-257.2"/>
<text text-anchor="start" x="289.5" y="-264.9" font-family="Helvetica,sans-Serif" font-size="11.00" fill="#000000">text[2147483647]</text>
<polygon fill="none" stroke="#000000" points="10.5,-235.2 10.5,-257.2 286.5,-257.2 286.5,-235.2 10.5,-235.2"/>
<text text-anchor="start" x="30.5" y="-242.3" font-family="Helvetica,sans-Serif" font-size="11.00" fill="#000000">source_id</text>
<polygon fill="none" stroke="#000000" points="286.5,-235.2 286.5,-257.2 383.5,-257.2 383.5,-235.2 286.5,-235.2"/>
<text text-anchor="start" x="289.5" y="-242.9" font-family="Helvetica,sans-Serif" font-size="11.00" fill="#000000">text[2147483647]</text>
<polygon fill="none" stroke="#000000" points="10.5,-213.2 10.5,-235.2 286.5,-235.2 286.5,-213.2 10.5,-213.2"/>
<text text-anchor="start" x="30.5" y="-220.3" font-family="Helvetica,sans-Serif" font-size="11.00" fill="#000000">matter_numbers</text>
<polygon fill="none" stroke="#000000" points="286.5,-213.2 286.5,-235.2 383.5,-235.2 383.5,-213.2 286.5,-213.2"/>
<text text-anchor="start" x="289.5" y="-220.9" font-family="Helvetica,sans-Serif" font-size="11.00" fill="#000000">_int4[10]</text>
<polygon fill="none" stroke="#000000" points="10.5,-191.2 10.5,-213.2 286.5,-213.2 286.5,-191.2 10.5,-191.2"/>
<text text-anchor="start" x="30.5" y="-198.3" font-family="Helvetica,sans-Serif" font-size="11.00" fill="#000000">search_text</text>
<polygon fill="none" stroke="#000000" points="286.5,-191.2 286.5,-213.2 383.5,-213.2 383.5,-191.2 286.5,-191.2"/>
<text text-anchor="start" x="289.5" y="-198.9" font-family="Helvetica,sans-Serif" font-size="11.00" fill="#000000">text[2147483647]</text>
<polygon fill="none" stroke="#000000" points="10.5,-169.2 10.5,-191.2 286.5,-191.2 286.5,-169.2 10.5,-169.2"/>
<text text-anchor="start" x="30.5" y="-176.3" font-family="Helvetica,sans-Serif" font-size="11.00" fill="#000000">policy_categories</text>
<polygon fill="none" stroke="#000000" points="286.5,-169.2 286.5,-191.2 383.5,-191.2 383.5,-169.2 286.5,-169.2"/>
<text text-anchor="start" x="289.4468" y="-176.9" font-family="Helvetica,sans-Serif" font-size="11.00" fill="#000000">_text[2147483647]</text>
<polygon fill="none" stroke="#000000" points="10.5,-147.2 10.5,-169.2 286.5,-169.2 286.5,-147.2 10.5,-147.2"/>
<text text-anchor="start" x="30.5" y="-154.3" font-family="Helvetica,sans-Serif" font-size="11.00" fill="#000000">parties_or_citation_and_summary_of_action</text>
<polygon fill="none" stroke="#000000" points="286.5,-147.2 286.5,-169.2 383.5,-169.2 383.5,-147.2 286.5,-147.2"/>
<text text-anchor="start" x="289.5" y="-154.9" font-family="Helvetica,sans-Serif" font-size="11.00" fill="#000000">text[2147483647]</text>
<polygon fill="none" stroke="#000000" points="10.5,-125.2 10.5,-147.2 286.5,-147.2 286.5,-125.2 10.5,-125.2"/>
<text text-anchor="start" x="30.5" y="-132.3" font-family="Helvetica,sans-Serif" font-size="11.00" fill="#000000">complaint_category_new</text>
<polygon fill="none" stroke="#000000" points="286.5,-125.2 286.5,-147.2 383.5,-147.2 383.5,-125.2 286.5,-125.2"/>
<text text-anchor="start" x="289.4468" y="-132.9" font-family="Helvetica,sans-Serif" font-size="11.00" fill="#000000">_text[2147483647]</text>
<polygon fill="none" stroke="#000000" points="10.5,-103.2 10.5,-125.2 286.5,-125.2 286.5,-103.2 10.5,-103.2"/>
<text text-anchor="start" x="30.5" y="-110.3" font-family="Helvetica,sans-Serif" font-size="11.00" fill="#000000">complaint_subcategory_new</text>
<polygon fill="none" stroke="#000000" points="286.5,-103.2 286.5,-125.2 383.5,-125.2 383.5,-103.2 286.5,-103.2"/>
<text text-anchor="start" x="289.4468" y="-110.9" font-family="Helvetica,sans-Serif" font-size="11.00" fill="#000000">_text[2147483647]</text>
<polygon fill="none" stroke="#000000" points="10.5,-81.2 10.5,-103.2 286.5,-103.2 286.5,-81.2 10.5,-81.2"/>
<text text-anchor="start" x="30.5" y="-88.3" font-family="Helvetica,sans-Serif" font-size="11.00" fill="#000000">policy_status</text>
<polygon fill="none" stroke="#000000" points="286.5,-81.2 286.5,-103.2 383.5,-103.2 383.5,-81.2 286.5,-81.2"/>
<text text-anchor="start" x="289.5" y="-88.9" font-family="Helvetica,sans-Serif" font-size="11.00" fill="#000000">text[2147483647]</text>
<polygon fill="none" stroke="#000000" points="10.5,-59.2 10.5,-81.2 286.5,-81.2 286.5,-59.2 10.5,-59.2"/>
<text text-anchor="start" x="30.5" y="-66.3" font-family="Helvetica,sans-Serif" font-size="11.00" fill="#000000">case_status</text>
<polygon fill="none" stroke="#000000" points="286.5,-59.2 286.5,-81.2 383.5,-81.2 383.5,-59.2 286.5,-59.2"/>
<text text-anchor="start" x="289.5" y="-66.9" font-family="Helvetica,sans-Serif" font-size="11.00" fill="#000000">text[2147483647]</text>
<polygon fill="#ffffff" stroke="transparent" points="10.5,-40.2 10.5,-59.2 133.5,-59.2 133.5,-40.2 10.5,-40.2"/>
<polygon fill="none" stroke="#000000" points="10.5,-40.2 10.5,-59.2 133.5,-59.2 133.5,-40.2 10.5,-40.2"/>
<text text-anchor="start" x="13.5" y="-46.3" font-family="Helvetica,sans-Serif" font-size="11.00" fill="#000000">&lt; 0</text>
<polygon fill="#ffffff" stroke="transparent" points="133.5,-40.2 133.5,-59.2 286.5,-59.2 286.5,-40.2 133.5,-40.2"/>
<polygon fill="none" stroke="#000000" points="133.5,-40.2 133.5,-59.2 286.5,-59.2 286.5,-40.2 133.5,-40.2"/>
<text text-anchor="start" x="238.8807" y="-46.3" font-family="Helvetica,sans-Serif" font-size="11.00" fill="#000000">214 rows</text>
<polygon fill="#ffffff" stroke="transparent" points="286.5,-40.2 286.5,-59.2 383.5,-59.2 383.5,-40.2 286.5,-40.2"/>
<polygon fill="none" stroke="#000000" points="286.5,-40.2 286.5,-59.2 383.5,-59.2 383.5,-40.2 286.5,-40.2"/>
<text text-anchor="start" x="364.9053" y="-46.3" font-family="Helvetica,sans-Serif" font-size="11.00" fill="#000000">1 &gt;</text>
<polygon fill="none" stroke="#000000" stroke-width="2" points="9,-39.2 9,-831.2 384,-831.2 384,-39.2 9,-39.2"/>
</a>
</g>
</g>
<!-- policies_to_court_challenges&#45;&gt;court_challenge -->
<g id="edge1" class="edge">
<title>policies_to_court_challenges:w&#45;&gt;court_challenge:e</title>
<path fill="none" stroke="#000000" d="M419.776,-796.2C407.7815,-796.2 400.3229,-796.2 383.5,-796.2"/>
<polygon fill="#000000" stroke="#000000" points="426.5,-796.2001 434.5,-799.8 430.5,-796.2 434.5,-796.2 434.5,-796.2 434.5,-796.2 430.5,-796.2 434.5,-792.6 426.5,-796.2001 426.5,-796.2001"/>
<ellipse fill="none" stroke="#000000" cx="423.3" cy="-796.2001" rx="3.2" ry="3.2"/>
</g>
</g>
</svg>
