<?xml version="1.0" encoding="UTF-8" standalone="no"?>
<!DOCTYPE svg PUBLIC "-//W3C//DTD SVG 1.1//EN"
 "http://www.w3.org/Graphics/SVG/1.1/DTD/svg11.dtd">
<!-- Generated by graphviz version 2.40.1 (20161225.0304)
 -->
<!-- Title: oneDegreeRelationshipsDiagram Pages: 1 -->
<svg width="153pt" height="118pt"
 viewBox="0.00 0.00 153.00 118.20" xmlns="http://www.w3.org/2000/svg" xmlns:xlink="http://www.w3.org/1999/xlink">
<g id="graph0" class="graph" transform="scale(1 1) rotate(0) translate(4 114.2)">
<title>oneDegreeRelationshipsDiagram</title>
<polygon fill="#ffffff" stroke="transparent" points="-4,4 -4,-114.2 149,-114.2 149,4 -4,4"/>
<text text-anchor="middle" x="72.4936" y="-7.3" font-family="Helvetica,sans-Serif" font-size="11.00" fill="#000000">Generated by SchemaSpy</text>
<!-- day_date -->
<g id="node1" class="node">
<title>day_date</title>
<g id="a_node1"><a xlink:href="../../tables/day_date.html" xlink:title="day_date" target="_top">
<polygon fill="#ffffff" stroke="transparent" points="8,-38.2 8,-106.2 137,-106.2 137,-38.2 8,-38.2"/>
<polygon fill="#f5f5f5" stroke="transparent" points="10.5,-81.2 10.5,-104.2 135.5,-104.2 135.5,-81.2 10.5,-81.2"/>
<polygon fill="none" stroke="#000000" points="10.5,-81.2 10.5,-104.2 135.5,-104.2 135.5,-81.2 10.5,-81.2"/>
<text text-anchor="start" x="15.5" y="-90.3" font-family="Helvetica,sans-Serif" font-weight="bold" font-size="11.00" fill="#000000">day_date</text>
<text text-anchor="start" x="100.5437" y="-89.3" font-family="Helvetica,sans-Serif" font-size="11.00" fill="#000000">[table]</text>
<polygon fill="none" stroke="#000000" points="10.5,-59.2 10.5,-81.2 90.5,-81.2 90.5,-59.2 10.5,-59.2"/>
<image xlink:href="../../images/primaryKeys.png" width="11px" height="12px" preserveAspectRatio="xMinYMin meet" x="15.5" y="-76.2"/>
<text text-anchor="start" x="34.5" y="-66.3" font-family="Helvetica,sans-Serif" font-size="11.00" fill="#000000">day_date</text>
<polygon fill="none" stroke="#000000" points="90.5,-59.2 90.5,-81.2 135.5,-81.2 135.5,-59.2 90.5,-59.2"/>
<text text-anchor="start" x="93.1274" y="-66.9" font-family="Helvetica,sans-Serif" font-size="11.00" fill="#000000">date[13]</text>
<polygon fill="#ffffff" stroke="transparent" points="10.5,-40.2 10.5,-59.2 31.5,-59.2 31.5,-40.2 10.5,-40.2"/>
<polygon fill="none" stroke="#000000" points="10.5,-40.2 10.5,-59.2 31.5,-59.2 31.5,-40.2 10.5,-40.2"/>
<text text-anchor="start" x="13.2027" y="-46.3" font-family="Helvetica,sans-Serif" font-size="11.00" fill="#000000">&lt; 0</text>
<polygon fill="#ffffff" stroke="transparent" points="31.5,-40.2 31.5,-59.2 90.5,-59.2 90.5,-40.2 31.5,-40.2"/>
<polygon fill="none" stroke="#000000" points="31.5,-40.2 31.5,-59.2 90.5,-59.2 90.5,-40.2 31.5,-40.2"/>
<text text-anchor="start" x="34.1045" y="-46.3" font-family="Helvetica,sans-Serif" font-size="11.00" fill="#000000">2,193 rows</text>
<polygon fill="#ffffff" stroke="transparent" points="90.5,-40.2 90.5,-59.2 135.5,-59.2 135.5,-40.2 90.5,-40.2"/>
<polygon fill="none" stroke="#000000" points="90.5,-40.2 90.5,-59.2 135.5,-59.2 135.5,-40.2 90.5,-40.2"/>
<text text-anchor="start" x="116.9053" y="-46.3" font-family="Helvetica,sans-Serif" font-size="11.00" fill="#000000">0 &gt;</text>
<polygon fill="none" stroke="#000000" stroke-width="2" points="9,-39.2 9,-105.2 136,-105.2 136,-39.2 9,-39.2"/>
</a>
</g>
</g>
</g>
</svg>
