<?xml version="1.0" encoding="UTF-8" standalone="no"?>
<!DOCTYPE svg PUBLIC "-//W3C//DTD SVG 1.1//EN"
 "http://www.w3.org/Graphics/SVG/1.1/DTD/svg11.dtd">
<!-- Generated by graphviz version 2.40.1 (20161225.0304)
 -->
<!-- Title: oneDegreeRelationshipsDiagram Pages: 1 -->
<svg width="436pt" height="281pt"
 viewBox="0.00 0.00 436.00 281.20" xmlns="http://www.w3.org/2000/svg" xmlns:xlink="http://www.w3.org/1999/xlink">
<g id="graph0" class="graph" transform="scale(1 1) rotate(0) translate(4 277.2)">
<title>oneDegreeRelationshipsDiagram</title>
<polygon fill="#ffffff" stroke="transparent" points="-4,4 -4,-277.2 432,-277.2 432,4 -4,4"/>
<text text-anchor="middle" x="72.4936" y="-7.3" font-family="Helvetica,sans-Serif" font-size="11.00" fill="#000000">Generated by SchemaSpy</text>
<!-- file_to_policy -->
<g id="node1" class="node">
<title>file_to_policy</title>
<g id="a_node1"><a xlink:href="../../tables/file_to_policy.html" xlink:title="file_to_policy" target="_top">
<polygon fill="#ffffff" stroke="transparent" points="277,-139.7 277,-229.7 420,-229.7 420,-139.7 277,-139.7"/>
<polygon fill="#f5f5f5" stroke="transparent" points="279.5,-204.7 279.5,-227.7 418.5,-227.7 418.5,-204.7 279.5,-204.7"/>
<polygon fill="none" stroke="#000000" points="279.5,-204.7 279.5,-227.7 418.5,-227.7 418.5,-204.7 279.5,-204.7"/>
<text text-anchor="start" x="284.5" y="-213.8" font-family="Helvetica,sans-Serif" font-weight="bold" font-size="11.00" fill="#000000">file_to_policy</text>
<text text-anchor="start" x="383.5437" y="-212.8" font-family="Helvetica,sans-Serif" font-size="11.00" fill="#000000">[table]</text>
<polygon fill="none" stroke="#000000" points="279.5,-182.7 279.5,-204.7 376.5,-204.7 376.5,-182.7 279.5,-182.7"/>
<image xlink:href="../../images/primaryKeys.png" width="11px" height="12px" preserveAspectRatio="xMinYMin meet" x="284.5" y="-199.7"/>
<text text-anchor="start" x="299.5" y="-189.8" font-family="Helvetica,sans-Serif" font-size="11.00" fill="#000000">file</text>
<polygon fill="none" stroke="#000000" points="376.5,-182.7 376.5,-204.7 418.5,-204.7 418.5,-182.7 376.5,-182.7"/>
<text text-anchor="start" x="379.4644" y="-190.4" font-family="Helvetica,sans-Serif" font-size="11.00" fill="#000000">int4[10]</text>
<polygon fill="none" stroke="#000000" points="279.5,-160.7 279.5,-182.7 376.5,-182.7 376.5,-160.7 279.5,-160.7"/>
<image xlink:href="../../images/primaryKeys.png" width="11px" height="12px" preserveAspectRatio="xMinYMin meet" x="284.5" y="-177.7"/>
<text text-anchor="start" x="299.5" y="-167.8" font-family="Helvetica,sans-Serif" font-size="11.00" fill="#000000">policy</text>
<polygon fill="none" stroke="#000000" points="376.5,-160.7 376.5,-182.7 418.5,-182.7 418.5,-160.7 376.5,-160.7"/>
<text text-anchor="start" x="379.4644" y="-168.4" font-family="Helvetica,sans-Serif" font-size="11.00" fill="#000000">int4[10]</text>
<polygon fill="#ffffff" stroke="transparent" points="279.5,-141.7 279.5,-160.7 305.5,-160.7 305.5,-141.7 279.5,-141.7"/>
<polygon fill="none" stroke="#000000" points="279.5,-141.7 279.5,-160.7 305.5,-160.7 305.5,-141.7 279.5,-141.7"/>
<text text-anchor="start" x="282.5" y="-147.8" font-family="Helvetica,sans-Serif" font-size="11.00" fill="#000000">&lt; 2</text>
<polygon fill="#ffffff" stroke="transparent" points="305.5,-141.7 305.5,-160.7 376.5,-160.7 376.5,-141.7 305.5,-141.7"/>
<polygon fill="none" stroke="#000000" points="305.5,-141.7 305.5,-160.7 376.5,-160.7 376.5,-141.7 305.5,-141.7"/>
<text text-anchor="start" x="313.594" y="-147.8" font-family="Helvetica,sans-Serif" font-size="11.00" fill="#000000">41,342 rows</text>
<polygon fill="#ffffff" stroke="transparent" points="376.5,-141.7 376.5,-160.7 418.5,-160.7 418.5,-141.7 376.5,-141.7"/>
<polygon fill="none" stroke="#000000" points="376.5,-141.7 376.5,-160.7 418.5,-160.7 418.5,-141.7 376.5,-141.7"/>
<text text-anchor="start" x="399.9053" y="-147.8" font-family="Helvetica,sans-Serif" font-size="11.00" fill="#000000">0 &gt;</text>
<polygon fill="none" stroke="#000000" stroke-width="2" points="278,-140.7 278,-228.7 419,-228.7 419,-140.7 278,-140.7"/>
</a>
</g>
</g>
<!-- file -->
<g id="node2" class="node">
<title>file</title>
<g id="a_node2"><a xlink:href="../../tables/file.html" xlink:title="file" target="_top">
<polygon fill="#ffffff" stroke="transparent" points="51,-186.2 51,-269.2 185,-269.2 185,-186.2 51,-186.2"/>
<polygon fill="#f5f5f5" stroke="transparent" points="51,-245.7 51,-268.7 185,-268.7 185,-245.7 51,-245.7"/>
<polygon fill="none" stroke="#000000" points="51,-245.7 51,-268.7 185,-268.7 185,-245.7 51,-245.7"/>
<text text-anchor="start" x="56" y="-254.8" font-family="Helvetica,sans-Serif" font-weight="bold" font-size="11.00" fill="#000000">file</text>
<text text-anchor="start" x="150.0437" y="-253.8" font-family="Helvetica,sans-Serif" font-size="11.00" fill="#000000">[table]</text>
<polygon fill="none" stroke="#000000" points="51,-223.7 51,-245.7 185,-245.7 185,-223.7 51,-223.7"/>
<image xlink:href="../../images/primaryKeys.png" width="11px" height="12px" preserveAspectRatio="xMinYMin meet" x="56" y="-240.7"/>
<text text-anchor="start" x="71" y="-230.8" font-family="Helvetica,sans-Serif" font-size="11.00" fill="#000000">id</text>
<polygon fill="none" stroke="#000000" points="51,-204.7 51,-223.7 185,-223.7 185,-204.7 51,-204.7"/>
<text text-anchor="start" x="54" y="-210.8" font-family="Helvetica,sans-Serif" font-size="11.00" fill="#000000">...</text>
<polygon fill="#ffffff" stroke="transparent" points="51,-185.7 51,-204.7 81,-204.7 81,-185.7 51,-185.7"/>
<polygon fill="none" stroke="#000000" points="51,-185.7 51,-204.7 81,-204.7 81,-185.7 51,-185.7"/>
<text text-anchor="start" x="54" y="-191.8" font-family="Helvetica,sans-Serif" font-size="11.00" fill="#000000"> &#160;</text>
<polygon fill="#ffffff" stroke="transparent" points="81,-185.7 81,-204.7 155,-204.7 155,-185.7 81,-185.7"/>
<polygon fill="none" stroke="#000000" points="81,-185.7 81,-204.7 155,-204.7 155,-185.7 81,-185.7"/>
<text text-anchor="start" x="92.094" y="-191.8" font-family="Helvetica,sans-Serif" font-size="11.00" fill="#000000">19,094 rows</text>
<polygon fill="#ffffff" stroke="transparent" points="155,-185.7 155,-204.7 185,-204.7 185,-185.7 155,-185.7"/>
<polygon fill="none" stroke="#000000" points="155,-185.7 155,-204.7 185,-204.7 185,-185.7 155,-185.7"/>
<text text-anchor="start" x="166.4053" y="-191.8" font-family="Helvetica,sans-Serif" font-size="11.00" fill="#000000">2 &gt;</text>
</a>
</g>
</g>
<!-- file_to_policy&#45;&gt;file -->
<g id="edge1" class="edge">
<title>file_to_policy:w&#45;&gt;file:e</title>
<path fill="none" stroke="#000000" d="M265.0319,-195.2572C232.4411,-202.7463 225.4175,-234.7 185,-234.7"/>
<polygon fill="#000000" stroke="#000000" points="271.5459,-194.5561 279.8853,-197.2793 275.523,-194.1281 279.5,-193.7 279.5,-193.7 279.5,-193.7 275.523,-194.1281 279.1147,-190.1207 271.5459,-194.5561 271.5459,-194.5561"/>
<ellipse fill="none" stroke="#000000" cx="268.3643" cy="-194.8986" rx="3.2" ry="3.2"/>
</g>
<!-- policy -->
<g id="node3" class="node">
<title>policy</title>
<g id="a_node3"><a xlink:href="../../tables/policy.html" xlink:title="policy" target="_top">
<polygon fill="#ffffff" stroke="transparent" points="8,-38.2 8,-165.2 228,-165.2 228,-38.2 8,-38.2"/>
<polygon fill="#f5f5f5" stroke="transparent" points="8,-141.7 8,-164.7 228,-164.7 228,-141.7 8,-141.7"/>
<polygon fill="none" stroke="#000000" points="8,-141.7 8,-164.7 228,-164.7 228,-141.7 8,-141.7"/>
<text text-anchor="start" x="13" y="-150.8" font-family="Helvetica,sans-Serif" font-weight="bold" font-size="11.00" fill="#000000">policy</text>
<text text-anchor="start" x="193.0437" y="-149.8" font-family="Helvetica,sans-Serif" font-size="11.00" fill="#000000">[table]</text>
<polygon fill="none" stroke="#000000" points="8,-119.7 8,-141.7 228,-141.7 228,-119.7 8,-119.7"/>
<image xlink:href="../../images/primaryKeys.png" width="11px" height="12px" preserveAspectRatio="xMinYMin meet" x="13" y="-136.7"/>
<text text-anchor="start" x="28" y="-126.8" font-family="Helvetica,sans-Serif" font-size="11.00" fill="#000000">id</text>
<polygon fill="#ffffff" stroke="transparent" points="8,-97.7 8,-119.7 228,-119.7 228,-97.7 8,-97.7"/>
<polygon fill="none" stroke="#000000" points="8,-97.7 8,-119.7 228,-119.7 228,-97.7 8,-97.7"/>
<text text-anchor="start" x="28" y="-104.8" font-family="Helvetica,sans-Serif" font-size="11.00" fill="#000000">primary_ph_measure</text>
<polygon fill="#ffffff" stroke="transparent" points="8,-75.7 8,-97.7 228,-97.7 228,-75.7 8,-75.7"/>
<polygon fill="none" stroke="#000000" points="8,-75.7 8,-97.7 228,-97.7 228,-75.7 8,-75.7"/>
<text text-anchor="start" x="28" y="-82.8" font-family="Helvetica,sans-Serif" font-size="11.00" fill="#000000">group_number</text>
<polygon fill="none" stroke="#000000" points="8,-56.7 8,-75.7 228,-75.7 228,-56.7 8,-56.7"/>
<text text-anchor="start" x="11" y="-62.8" font-family="Helvetica,sans-Serif" font-size="11.00" fill="#000000">...</text>
<polygon fill="#ffffff" stroke="transparent" points="8,-37.7 8,-56.7 81,-56.7 81,-37.7 8,-37.7"/>
<polygon fill="none" stroke="#000000" points="8,-37.7 8,-56.7 81,-56.7 81,-37.7 8,-37.7"/>
<text text-anchor="start" x="11" y="-43.8" font-family="Helvetica,sans-Serif" font-size="11.00" fill="#000000"> &#160;</text>
<polygon fill="#ffffff" stroke="transparent" points="81,-37.7 81,-56.7 176,-56.7 176,-37.7 81,-37.7"/>
<polygon fill="none" stroke="#000000" points="81,-37.7 81,-56.7 176,-56.7 176,-37.7 81,-37.7"/>
<text text-anchor="start" x="113.094" y="-43.8" font-family="Helvetica,sans-Serif" font-size="11.00" fill="#000000">40,812 rows</text>
<polygon fill="#ffffff" stroke="transparent" points="176,-37.7 176,-56.7 228,-56.7 228,-37.7 176,-37.7"/>
<polygon fill="none" stroke="#000000" points="176,-37.7 176,-56.7 228,-56.7 228,-37.7 176,-37.7"/>
<text text-anchor="start" x="209.4053" y="-43.8" font-family="Helvetica,sans-Serif" font-size="11.00" fill="#000000">8 &gt;</text>
</a>
</g>
</g>
<!-- file_to_policy&#45;&gt;policy -->
<g id="edge2" class="edge">
<title>file_to_policy:w&#45;&gt;policy:e</title>
<path fill="none" stroke="#000000" d="M265.5533,-167.3123C251.596,-156.7354 251.3139,-130.7 228,-130.7"/>
<polygon fill="#000000" stroke="#000000" points="271.8687,-169.2991 278.4196,-175.1341 275.6844,-170.4996 279.5,-171.7 279.5,-171.7 279.5,-171.7 275.6844,-170.4996 280.5804,-168.2659 271.8687,-169.2991 271.8687,-169.2991"/>
<ellipse fill="none" stroke="#000000" cx="268.8162" cy="-168.3388" rx="3.2" ry="3.2"/>
</g>
</g>
</svg>
