<?xml version="1.0" encoding="UTF-8" standalone="no"?>
<!DOCTYPE svg PUBLIC "-//W3C//DTD SVG 1.1//EN"
 "http://www.w3.org/Graphics/SVG/1.1/DTD/svg11.dtd">
<!-- Generated by graphviz version 2.40.1 (20161225.0304)
 -->
<!-- Title: oneDegreeRelationshipsDiagram Pages: 1 -->
<svg width="389pt" height="259pt"
 viewBox="0.00 0.00 389.00 259.20" xmlns="http://www.w3.org/2000/svg" xmlns:xlink="http://www.w3.org/1999/xlink">
<g id="graph0" class="graph" transform="scale(1 1) rotate(0) translate(4 255.2)">
<title>oneDegreeRelationshipsDiagram</title>
<polygon fill="#ffffff" stroke="transparent" points="-4,4 -4,-255.2 385,-255.2 385,4 -4,4"/>
<text text-anchor="middle" x="72.4936" y="-7.3" font-family="Helvetica,sans-Serif" font-size="11.00" fill="#000000">Generated by SchemaSpy</text>
<!-- file_to_plan -->
<g id="node1" class="node">
<title>file_to_plan</title>
<g id="a_node1"><a xlink:href="../../tables/file_to_plan.html" xlink:title="file_to_plan" target="_top">
<polygon fill="#ffffff" stroke="transparent" points="240,-117.7 240,-207.7 373,-207.7 373,-117.7 240,-117.7"/>
<polygon fill="#f5f5f5" stroke="transparent" points="242.5,-182.7 242.5,-205.7 371.5,-205.7 371.5,-182.7 242.5,-182.7"/>
<polygon fill="none" stroke="#000000" points="242.5,-182.7 242.5,-205.7 371.5,-205.7 371.5,-182.7 242.5,-182.7"/>
<text text-anchor="start" x="247.5" y="-191.8" font-family="Helvetica,sans-Serif" font-weight="bold" font-size="11.00" fill="#000000">file_to_plan</text>
<text text-anchor="start" x="336.5437" y="-190.8" font-family="Helvetica,sans-Serif" font-size="11.00" fill="#000000">[table]</text>
<polygon fill="none" stroke="#000000" points="242.5,-160.7 242.5,-182.7 329.5,-182.7 329.5,-160.7 242.5,-160.7"/>
<image xlink:href="../../images/primaryKeys.png" width="11px" height="12px" preserveAspectRatio="xMinYMin meet" x="247.5" y="-177.7"/>
<text text-anchor="start" x="262.5" y="-167.8" font-family="Helvetica,sans-Serif" font-size="11.00" fill="#000000">file</text>
<polygon fill="none" stroke="#000000" points="329.5,-160.7 329.5,-182.7 371.5,-182.7 371.5,-160.7 329.5,-160.7"/>
<text text-anchor="start" x="332.4644" y="-168.4" font-family="Helvetica,sans-Serif" font-size="11.00" fill="#000000">int4[10]</text>
<polygon fill="none" stroke="#000000" points="242.5,-138.7 242.5,-160.7 329.5,-160.7 329.5,-138.7 242.5,-138.7"/>
<image xlink:href="../../images/primaryKeys.png" width="11px" height="12px" preserveAspectRatio="xMinYMin meet" x="247.5" y="-155.7"/>
<text text-anchor="start" x="262.5" y="-145.8" font-family="Helvetica,sans-Serif" font-size="11.00" fill="#000000">plan</text>
<polygon fill="none" stroke="#000000" points="329.5,-138.7 329.5,-160.7 371.5,-160.7 371.5,-138.7 329.5,-138.7"/>
<text text-anchor="start" x="332.4644" y="-146.4" font-family="Helvetica,sans-Serif" font-size="11.00" fill="#000000">int4[10]</text>
<polygon fill="#ffffff" stroke="transparent" points="242.5,-119.7 242.5,-138.7 271.5,-138.7 271.5,-119.7 242.5,-119.7"/>
<polygon fill="none" stroke="#000000" points="242.5,-119.7 242.5,-138.7 271.5,-138.7 271.5,-119.7 242.5,-119.7"/>
<text text-anchor="start" x="245.5" y="-125.8" font-family="Helvetica,sans-Serif" font-size="11.00" fill="#000000">&lt; 2</text>
<polygon fill="#ffffff" stroke="transparent" points="271.5,-119.7 271.5,-138.7 329.5,-138.7 329.5,-119.7 271.5,-119.7"/>
<polygon fill="none" stroke="#000000" points="271.5,-119.7 271.5,-138.7 329.5,-138.7 329.5,-119.7 271.5,-119.7"/>
<text text-anchor="start" x="281.8807" y="-125.8" font-family="Helvetica,sans-Serif" font-size="11.00" fill="#000000">567 rows</text>
<polygon fill="#ffffff" stroke="transparent" points="329.5,-119.7 329.5,-138.7 371.5,-138.7 371.5,-119.7 329.5,-119.7"/>
<polygon fill="none" stroke="#000000" points="329.5,-119.7 329.5,-138.7 371.5,-138.7 371.5,-119.7 329.5,-119.7"/>
<text text-anchor="start" x="352.9053" y="-125.8" font-family="Helvetica,sans-Serif" font-size="11.00" fill="#000000">0 &gt;</text>
<polygon fill="none" stroke="#000000" stroke-width="2" points="241,-118.7 241,-206.7 372,-206.7 372,-118.7 241,-118.7"/>
</a>
</g>
</g>
<!-- file -->
<g id="node2" class="node">
<title>file</title>
<g id="a_node2"><a xlink:href="../../tables/file.html" xlink:title="file" target="_top">
<polygon fill="#ffffff" stroke="transparent" points="32.5,-164.2 32.5,-247.2 166.5,-247.2 166.5,-164.2 32.5,-164.2"/>
<polygon fill="#f5f5f5" stroke="transparent" points="32.5,-223.7 32.5,-246.7 166.5,-246.7 166.5,-223.7 32.5,-223.7"/>
<polygon fill="none" stroke="#000000" points="32.5,-223.7 32.5,-246.7 166.5,-246.7 166.5,-223.7 32.5,-223.7"/>
<text text-anchor="start" x="37.5" y="-232.8" font-family="Helvetica,sans-Serif" font-weight="bold" font-size="11.00" fill="#000000">file</text>
<text text-anchor="start" x="131.5437" y="-231.8" font-family="Helvetica,sans-Serif" font-size="11.00" fill="#000000">[table]</text>
<polygon fill="none" stroke="#000000" points="32.5,-201.7 32.5,-223.7 166.5,-223.7 166.5,-201.7 32.5,-201.7"/>
<image xlink:href="../../images/primaryKeys.png" width="11px" height="12px" preserveAspectRatio="xMinYMin meet" x="37.5" y="-218.7"/>
<text text-anchor="start" x="52.5" y="-208.8" font-family="Helvetica,sans-Serif" font-size="11.00" fill="#000000">id</text>
<polygon fill="none" stroke="#000000" points="32.5,-182.7 32.5,-201.7 166.5,-201.7 166.5,-182.7 32.5,-182.7"/>
<text text-anchor="start" x="35.5" y="-188.8" font-family="Helvetica,sans-Serif" font-size="11.00" fill="#000000">...</text>
<polygon fill="#ffffff" stroke="transparent" points="32.5,-163.7 32.5,-182.7 62.5,-182.7 62.5,-163.7 32.5,-163.7"/>
<polygon fill="none" stroke="#000000" points="32.5,-163.7 32.5,-182.7 62.5,-182.7 62.5,-163.7 32.5,-163.7"/>
<text text-anchor="start" x="35.5" y="-169.8" font-family="Helvetica,sans-Serif" font-size="11.00" fill="#000000"> &#160;</text>
<polygon fill="#ffffff" stroke="transparent" points="62.5,-163.7 62.5,-182.7 136.5,-182.7 136.5,-163.7 62.5,-163.7"/>
<polygon fill="none" stroke="#000000" points="62.5,-163.7 62.5,-182.7 136.5,-182.7 136.5,-163.7 62.5,-163.7"/>
<text text-anchor="start" x="73.594" y="-169.8" font-family="Helvetica,sans-Serif" font-size="11.00" fill="#000000">18,820 rows</text>
<polygon fill="#ffffff" stroke="transparent" points="136.5,-163.7 136.5,-182.7 166.5,-182.7 166.5,-163.7 136.5,-163.7"/>
<polygon fill="none" stroke="#000000" points="136.5,-163.7 136.5,-182.7 166.5,-182.7 166.5,-163.7 136.5,-163.7"/>
<text text-anchor="start" x="147.9053" y="-169.8" font-family="Helvetica,sans-Serif" font-size="11.00" fill="#000000">2 &gt;</text>
</a>
</g>
</g>
<!-- file_to_plan&#45;&gt;file -->
<g id="edge1" class="edge">
<title>file_to_plan:w&#45;&gt;file:e</title>
<path fill="none" stroke="#000000" d="M228.0753,-174.0218C203.5223,-182.6951 199.3325,-212.7 166.5,-212.7"/>
<polygon fill="#000000" stroke="#000000" points="234.6017,-172.9714 243.0721,-175.2543 238.5508,-172.3357 242.5,-171.7 242.5,-171.7 242.5,-171.7 238.5508,-172.3357 241.9279,-168.1457 234.6017,-172.9714 234.6017,-172.9714"/>
<ellipse fill="none" stroke="#000000" cx="231.4423" cy="-173.4799" rx="3.2" ry="3.2"/>
</g>
<!-- plan -->
<g id="node3" class="node">
<title>plan</title>
<g id="a_node3"><a xlink:href="../../tables/plan.html" xlink:title="plan" target="_top">
<polygon fill="#ffffff" stroke="transparent" points="8,-38.2 8,-143.2 191,-143.2 191,-38.2 8,-38.2"/>
<polygon fill="#f5f5f5" stroke="transparent" points="8.5,-119.7 8.5,-142.7 191.5,-142.7 191.5,-119.7 8.5,-119.7"/>
<polygon fill="none" stroke="#000000" points="8.5,-119.7 8.5,-142.7 191.5,-142.7 191.5,-119.7 8.5,-119.7"/>
<text text-anchor="start" x="13.5" y="-128.8" font-family="Helvetica,sans-Serif" font-weight="bold" font-size="11.00" fill="#000000">plan</text>
<text text-anchor="start" x="156.5437" y="-127.8" font-family="Helvetica,sans-Serif" font-size="11.00" fill="#000000">[table]</text>
<polygon fill="none" stroke="#000000" points="8.5,-97.7 8.5,-119.7 191.5,-119.7 191.5,-97.7 8.5,-97.7"/>
<image xlink:href="../../images/primaryKeys.png" width="11px" height="12px" preserveAspectRatio="xMinYMin meet" x="13.5" y="-114.7"/>
<text text-anchor="start" x="28.5" y="-104.8" font-family="Helvetica,sans-Serif" font-size="11.00" fill="#000000">id</text>
<polygon fill="#ffffff" stroke="transparent" points="8.5,-75.7 8.5,-97.7 191.5,-97.7 191.5,-75.7 8.5,-75.7"/>
<polygon fill="none" stroke="#000000" points="8.5,-75.7 8.5,-97.7 191.5,-97.7 191.5,-75.7 8.5,-75.7"/>
<image xlink:href="../../images/foreignKeys.png" width="11px" height="12px" preserveAspectRatio="xMinYMin meet" x="13.5" y="-92.7"/>
<text text-anchor="start" x="28.5" y="-82.8" font-family="Helvetica,sans-Serif" font-size="11.00" fill="#000000">policy</text>
<polygon fill="none" stroke="#000000" points="8.5,-56.7 8.5,-75.7 191.5,-75.7 191.5,-56.7 8.5,-56.7"/>
<text text-anchor="start" x="11.5" y="-62.8" font-family="Helvetica,sans-Serif" font-size="11.00" fill="#000000">...</text>
<polygon fill="#ffffff" stroke="transparent" points="8.5,-37.7 8.5,-56.7 74.5,-56.7 74.5,-37.7 8.5,-37.7"/>
<polygon fill="none" stroke="#000000" points="8.5,-37.7 8.5,-56.7 74.5,-56.7 74.5,-37.7 8.5,-37.7"/>
<text text-anchor="start" x="11.5" y="-43.8" font-family="Helvetica,sans-Serif" font-size="11.00" fill="#000000">&lt; 1</text>
<polygon fill="#ffffff" stroke="transparent" points="74.5,-37.7 74.5,-56.7 147.5,-56.7 147.5,-37.7 74.5,-37.7"/>
<polygon fill="none" stroke="#000000" points="74.5,-37.7 74.5,-56.7 147.5,-56.7 147.5,-37.7 74.5,-37.7"/>
<text text-anchor="start" x="99.8807" y="-43.8" font-family="Helvetica,sans-Serif" font-size="11.00" fill="#000000">493 rows</text>
<polygon fill="#ffffff" stroke="transparent" points="147.5,-37.7 147.5,-56.7 191.5,-56.7 191.5,-37.7 147.5,-37.7"/>
<polygon fill="none" stroke="#000000" points="147.5,-37.7 147.5,-56.7 191.5,-56.7 191.5,-37.7 147.5,-37.7"/>
<text text-anchor="start" x="172.9053" y="-43.8" font-family="Helvetica,sans-Serif" font-size="11.00" fill="#000000">3 &gt;</text>
</a>
</g>
</g>
<!-- file_to_plan&#45;&gt;plan -->
<g id="edge2" class="edge">
<title>file_to_plan:w&#45;&gt;plan:e</title>
<path fill="none" stroke="#000000" d="M228.6568,-145.3123C214.8325,-134.7354 214.6756,-108.7 191.5,-108.7"/>
<polygon fill="#000000" stroke="#000000" points="234.8739,-147.2828 241.4123,-153.1317 238.6869,-148.4914 242.5,-149.7 242.5,-149.7 242.5,-149.7 238.6869,-148.4914 243.5877,-146.2683 234.8739,-147.2828 234.8739,-147.2828"/>
<ellipse fill="none" stroke="#000000" cx="231.8235" cy="-146.3159" rx="3.2" ry="3.2"/>
</g>
</g>
</svg>
