<?xml version="1.0" encoding="UTF-8" standalone="no"?>
<!DOCTYPE svg PUBLIC "-//W3C//DTD SVG 1.1//EN"
 "http://www.w3.org/Graphics/SVG/1.1/DTD/svg11.dtd">
<!-- Generated by graphviz version 2.40.1 (20161225.0304)
 -->
<!-- Title: twoDegreesRelationshipsDiagram Pages: 1 -->
<svg width="669pt" height="653pt"
 viewBox="0.00 0.00 669.00 653.20" xmlns="http://www.w3.org/2000/svg" xmlns:xlink="http://www.w3.org/1999/xlink">
<g id="graph0" class="graph" transform="scale(1 1) rotate(0) translate(4 649.2)">
<title>twoDegreesRelationshipsDiagram</title>
<polygon fill="#ffffff" stroke="transparent" points="-4,4 -4,-649.2 665,-649.2 665,4 -4,4"/>
<text text-anchor="middle" x="72.4936" y="-7.3" font-family="Helvetica,sans-Serif" font-size="11.00" fill="#000000">Generated by SchemaSpy</text>
<!-- auth_entity_to_policy -->
<g id="node1" class="node">
<title>auth_entity_to_policy</title>
<g id="a_node1"><a xlink:href="../../tables/auth_entity_to_policy.html" xlink:title="auth_entity_to_policy" target="_top">
<polygon fill="#ffffff" stroke="transparent" points="296,-580.2 296,-641.2 442,-641.2 442,-580.2 296,-580.2"/>
<polygon fill="#f5f5f5" stroke="transparent" points="296,-617.7 296,-640.7 442,-640.7 442,-617.7 296,-617.7"/>
<polygon fill="none" stroke="#000000" points="296,-617.7 296,-640.7 442,-640.7 442,-617.7 296,-617.7"/>
<text text-anchor="start" x="300.8429" y="-626.8" font-family="Helvetica,sans-Serif" font-weight="bold" font-size="11.00" fill="#000000">auth_entity_to_policy</text>
<text text-anchor="start" x="407.5219" y="-625.8" font-family="Helvetica,sans-Serif" font-size="11.00" fill="#000000">[table]</text>
<polygon fill="none" stroke="#000000" points="296,-598.7 296,-617.7 442,-617.7 442,-598.7 296,-598.7"/>
<text text-anchor="start" x="299" y="-604.8" font-family="Helvetica,sans-Serif" font-size="11.00" fill="#000000">...</text>
<polygon fill="#ffffff" stroke="transparent" points="296,-579.7 296,-598.7 341,-598.7 341,-579.7 296,-579.7"/>
<polygon fill="none" stroke="#000000" points="296,-579.7 296,-598.7 341,-598.7 341,-579.7 296,-579.7"/>
<text text-anchor="start" x="299" y="-585.8" font-family="Helvetica,sans-Serif" font-size="11.00" fill="#000000">&lt; 2</text>
<polygon fill="#ffffff" stroke="transparent" points="341,-579.7 341,-598.7 418,-598.7 418,-579.7 341,-579.7"/>
<polygon fill="none" stroke="#000000" points="341,-579.7 341,-598.7 418,-598.7 418,-579.7 341,-579.7"/>
<text text-anchor="start" x="355.094" y="-585.8" font-family="Helvetica,sans-Serif" font-size="11.00" fill="#000000">41,840 rows</text>
<polygon fill="#ffffff" stroke="transparent" points="418,-579.7 418,-598.7 442,-598.7 442,-579.7 418,-579.7"/>
<polygon fill="none" stroke="#000000" points="418,-579.7 418,-598.7 442,-598.7 442,-579.7 418,-579.7"/>
<text text-anchor="start" x="432.8862" y="-585.8" font-family="Helvetica,sans-Serif" font-size="11.00" fill="#000000"> &#160;</text>
</a>
</g>
</g>
<!-- policy -->
<g id="node2" class="node">
<title>policy</title>
<g id="a_node2"><a xlink:href="../../tables/policy.html" xlink:title="policy" target="_top">
<polygon fill="#ffffff" stroke="transparent" points="8,-178.2 8,-305.2 228,-305.2 228,-178.2 8,-178.2"/>
<polygon fill="#f5f5f5" stroke="transparent" points="8,-281.7 8,-304.7 228,-304.7 228,-281.7 8,-281.7"/>
<polygon fill="none" stroke="#000000" points="8,-281.7 8,-304.7 228,-304.7 228,-281.7 8,-281.7"/>
<text text-anchor="start" x="13" y="-290.8" font-family="Helvetica,sans-Serif" font-weight="bold" font-size="11.00" fill="#000000">policy</text>
<text text-anchor="start" x="193.0437" y="-289.8" font-family="Helvetica,sans-Serif" font-size="11.00" fill="#000000">[table]</text>
<polygon fill="none" stroke="#000000" points="8,-259.7 8,-281.7 228,-281.7 228,-259.7 8,-259.7"/>
<image xlink:href="../../images/primaryKeys.png" width="11px" height="12px" preserveAspectRatio="xMinYMin meet" x="13" y="-276.7"/>
<text text-anchor="start" x="28" y="-266.8" font-family="Helvetica,sans-Serif" font-size="11.00" fill="#000000">id</text>
<polygon fill="#ffffff" stroke="transparent" points="8,-237.7 8,-259.7 228,-259.7 228,-237.7 8,-237.7"/>
<polygon fill="none" stroke="#000000" points="8,-237.7 8,-259.7 228,-259.7 228,-237.7 8,-237.7"/>
<text text-anchor="start" x="28" y="-244.8" font-family="Helvetica,sans-Serif" font-size="11.00" fill="#000000">primary_ph_measure</text>
<polygon fill="#ffffff" stroke="transparent" points="8,-215.7 8,-237.7 228,-237.7 228,-215.7 8,-215.7"/>
<polygon fill="none" stroke="#000000" points="8,-215.7 8,-237.7 228,-237.7 228,-215.7 8,-215.7"/>
<text text-anchor="start" x="28" y="-222.8" font-family="Helvetica,sans-Serif" font-size="11.00" fill="#000000">group_number</text>
<polygon fill="none" stroke="#000000" points="8,-196.7 8,-215.7 228,-215.7 228,-196.7 8,-196.7"/>
<text text-anchor="start" x="11" y="-202.8" font-family="Helvetica,sans-Serif" font-size="11.00" fill="#000000">...</text>
<polygon fill="#ffffff" stroke="transparent" points="8,-177.7 8,-196.7 81,-196.7 81,-177.7 8,-177.7"/>
<polygon fill="none" stroke="#000000" points="8,-177.7 8,-196.7 81,-196.7 81,-177.7 8,-177.7"/>
<text text-anchor="start" x="11" y="-183.8" font-family="Helvetica,sans-Serif" font-size="11.00" fill="#000000"> &#160;</text>
<polygon fill="#ffffff" stroke="transparent" points="81,-177.7 81,-196.7 176,-196.7 176,-177.7 81,-177.7"/>
<polygon fill="none" stroke="#000000" points="81,-177.7 81,-196.7 176,-196.7 176,-177.7 81,-177.7"/>
<text text-anchor="start" x="113.094" y="-183.8" font-family="Helvetica,sans-Serif" font-size="11.00" fill="#000000">40,812 rows</text>
<polygon fill="#ffffff" stroke="transparent" points="176,-177.7 176,-196.7 228,-196.7 228,-177.7 176,-177.7"/>
<polygon fill="none" stroke="#000000" points="176,-177.7 176,-196.7 228,-196.7 228,-177.7 176,-177.7"/>
<text text-anchor="start" x="209.4053" y="-183.8" font-family="Helvetica,sans-Serif" font-size="11.00" fill="#000000">8 &gt;</text>
</a>
</g>
</g>
<!-- auth_entity_to_policy&#45;&gt;policy -->
<g id="edge1" class="edge">
<title>auth_entity_to_policy:w&#45;&gt;policy:e</title>
<path fill="none" stroke="#000000" d="M282.1634,-602.9361C230.7293,-561.9755 299.0265,-270.7 228,-270.7"/>
<polygon fill="#000000" stroke="#000000" points="288.4358,-605.0956 294.828,-611.1039 292.2179,-606.3978 296,-607.7 296,-607.7 296,-607.7 292.2179,-606.3978 297.172,-604.2961 288.4358,-605.0956 288.4358,-605.0956"/>
<ellipse fill="none" stroke="#000000" cx="285.4101" cy="-604.0538" rx="3.2" ry="3.2"/>
</g>
<!-- file_to_plan -->
<g id="node3" class="node">
<title>file_to_plan</title>
<g id="a_node3"><a xlink:href="../../tables/file_to_plan.html" xlink:title="file_to_plan" target="_top">
<polygon fill="#ffffff" stroke="transparent" points="532,-485.2 532,-546.2 631,-546.2 631,-485.2 532,-485.2"/>
<polygon fill="#f5f5f5" stroke="transparent" points="532.5,-522.7 532.5,-545.7 631.5,-545.7 631.5,-522.7 532.5,-522.7"/>
<polygon fill="none" stroke="#000000" points="532.5,-522.7 532.5,-545.7 631.5,-545.7 631.5,-522.7 532.5,-522.7"/>
<text text-anchor="start" x="537.3796" y="-531.8" font-family="Helvetica,sans-Serif" font-weight="bold" font-size="11.00" fill="#000000">file_to_plan</text>
<text text-anchor="start" x="597.0219" y="-530.8" font-family="Helvetica,sans-Serif" font-size="11.00" fill="#000000">[table]</text>
<polygon fill="none" stroke="#000000" points="532.5,-503.7 532.5,-522.7 631.5,-522.7 631.5,-503.7 532.5,-503.7"/>
<text text-anchor="start" x="535.5" y="-509.8" font-family="Helvetica,sans-Serif" font-size="11.00" fill="#000000">...</text>
<polygon fill="#ffffff" stroke="transparent" points="532.5,-484.7 532.5,-503.7 561.5,-503.7 561.5,-484.7 532.5,-484.7"/>
<polygon fill="none" stroke="#000000" points="532.5,-484.7 532.5,-503.7 561.5,-503.7 561.5,-484.7 532.5,-484.7"/>
<text text-anchor="start" x="535.5" y="-490.8" font-family="Helvetica,sans-Serif" font-size="11.00" fill="#000000">&lt; 2</text>
<polygon fill="#ffffff" stroke="transparent" points="561.5,-484.7 561.5,-503.7 615.5,-503.7 615.5,-484.7 561.5,-484.7"/>
<polygon fill="none" stroke="#000000" points="561.5,-484.7 561.5,-503.7 615.5,-503.7 615.5,-484.7 561.5,-484.7"/>
<text text-anchor="start" x="567.8807" y="-490.8" font-family="Helvetica,sans-Serif" font-size="11.00" fill="#000000">567 rows</text>
<polygon fill="#ffffff" stroke="transparent" points="615.5,-484.7 615.5,-503.7 631.5,-503.7 631.5,-484.7 615.5,-484.7"/>
<polygon fill="none" stroke="#000000" points="615.5,-484.7 615.5,-503.7 631.5,-503.7 631.5,-484.7 615.5,-484.7"/>
<text text-anchor="start" x="622.3862" y="-490.8" font-family="Helvetica,sans-Serif" font-size="11.00" fill="#000000"> &#160;</text>
</a>
</g>
</g>
<!-- file -->
<g id="node4" class="node">
<title>file</title>
<g id="a_node4"><a xlink:href="../../tables/file.html" xlink:title="file" target="_top">
<polygon fill="#ffffff" stroke="transparent" points="302,-394.2 302,-477.2 436,-477.2 436,-394.2 302,-394.2"/>
<polygon fill="#f5f5f5" stroke="transparent" points="302,-453.7 302,-476.7 436,-476.7 436,-453.7 302,-453.7"/>
<polygon fill="none" stroke="#000000" points="302,-453.7 302,-476.7 436,-476.7 436,-453.7 302,-453.7"/>
<text text-anchor="start" x="307" y="-462.8" font-family="Helvetica,sans-Serif" font-weight="bold" font-size="11.00" fill="#000000">file</text>
<text text-anchor="start" x="401.0437" y="-461.8" font-family="Helvetica,sans-Serif" font-size="11.00" fill="#000000">[table]</text>
<polygon fill="none" stroke="#000000" points="302,-431.7 302,-453.7 436,-453.7 436,-431.7 302,-431.7"/>
<image xlink:href="../../images/primaryKeys.png" width="11px" height="12px" preserveAspectRatio="xMinYMin meet" x="307" y="-448.7"/>
<text text-anchor="start" x="322" y="-438.8" font-family="Helvetica,sans-Serif" font-size="11.00" fill="#000000">id</text>
<polygon fill="none" stroke="#000000" points="302,-412.7 302,-431.7 436,-431.7 436,-412.7 302,-412.7"/>
<text text-anchor="start" x="305" y="-418.8" font-family="Helvetica,sans-Serif" font-size="11.00" fill="#000000">...</text>
<polygon fill="#ffffff" stroke="transparent" points="302,-393.7 302,-412.7 332,-412.7 332,-393.7 302,-393.7"/>
<polygon fill="none" stroke="#000000" points="302,-393.7 302,-412.7 332,-412.7 332,-393.7 302,-393.7"/>
<text text-anchor="start" x="305" y="-399.8" font-family="Helvetica,sans-Serif" font-size="11.00" fill="#000000"> &#160;</text>
<polygon fill="#ffffff" stroke="transparent" points="332,-393.7 332,-412.7 406,-412.7 406,-393.7 332,-393.7"/>
<polygon fill="none" stroke="#000000" points="332,-393.7 332,-412.7 406,-412.7 406,-393.7 332,-393.7"/>
<text text-anchor="start" x="343.094" y="-399.8" font-family="Helvetica,sans-Serif" font-size="11.00" fill="#000000">19,094 rows</text>
<polygon fill="#ffffff" stroke="transparent" points="406,-393.7 406,-412.7 436,-412.7 436,-393.7 406,-393.7"/>
<polygon fill="none" stroke="#000000" points="406,-393.7 406,-412.7 436,-412.7 436,-393.7 406,-393.7"/>
<text text-anchor="start" x="417.4053" y="-399.8" font-family="Helvetica,sans-Serif" font-size="11.00" fill="#000000">2 &gt;</text>
</a>
</g>
</g>
<!-- file_to_plan&#45;&gt;file -->
<g id="edge2" class="edge">
<title>file_to_plan:w&#45;&gt;file:e</title>
<path fill="none" stroke="#000000" d="M518.158,-510.6805C480.7947,-499.2033 483.6033,-442.7 436,-442.7"/>
<polygon fill="#000000" stroke="#000000" points="524.5781,-511.5845 531.998,-516.2648 528.5391,-512.1422 532.5,-512.7 532.5,-512.7 532.5,-512.7 528.5391,-512.1422 533.002,-509.1352 524.5781,-511.5845 524.5781,-511.5845"/>
<ellipse fill="none" stroke="#000000" cx="521.4094" cy="-511.1383" rx="3.2" ry="3.2"/>
</g>
<!-- plan -->
<g id="node5" class="node">
<title>plan</title>
<g id="a_node5"><a xlink:href="../../tables/plan.html" xlink:title="plan" target="_top">
<polygon fill="#ffffff" stroke="transparent" points="323,-498.2 323,-559.2 415,-559.2 415,-498.2 323,-498.2"/>
<polygon fill="#f5f5f5" stroke="transparent" points="323,-535.7 323,-558.7 415,-558.7 415,-535.7 323,-535.7"/>
<polygon fill="none" stroke="#000000" points="323,-535.7 323,-558.7 415,-558.7 415,-535.7 323,-535.7"/>
<text text-anchor="start" x="328" y="-544.8" font-family="Helvetica,sans-Serif" font-weight="bold" font-size="11.00" fill="#000000">plan</text>
<text text-anchor="start" x="380.0437" y="-543.8" font-family="Helvetica,sans-Serif" font-size="11.00" fill="#000000">[table]</text>
<polygon fill="none" stroke="#000000" points="323,-516.7 323,-535.7 415,-535.7 415,-516.7 323,-516.7"/>
<text text-anchor="start" x="326" y="-522.8" font-family="Helvetica,sans-Serif" font-size="11.00" fill="#000000">...</text>
<polygon fill="#ffffff" stroke="transparent" points="323,-497.7 323,-516.7 344,-516.7 344,-497.7 323,-497.7"/>
<polygon fill="none" stroke="#000000" points="323,-497.7 323,-516.7 344,-516.7 344,-497.7 323,-497.7"/>
<text text-anchor="start" x="325.7027" y="-503.8" font-family="Helvetica,sans-Serif" font-size="11.00" fill="#000000">&lt; 1</text>
<polygon fill="#ffffff" stroke="transparent" points="344,-497.7 344,-516.7 394,-516.7 394,-497.7 344,-497.7"/>
<polygon fill="none" stroke="#000000" points="344,-497.7 344,-516.7 394,-516.7 394,-497.7 344,-497.7"/>
<text text-anchor="start" x="346.6904" y="-503.8" font-family="Helvetica,sans-Serif" font-size="11.00" fill="#000000">493 rows</text>
<polygon fill="#ffffff" stroke="transparent" points="394,-497.7 394,-516.7 415,-516.7 415,-497.7 394,-497.7"/>
<polygon fill="none" stroke="#000000" points="394,-497.7 394,-516.7 415,-516.7 415,-497.7 394,-497.7"/>
<text text-anchor="start" x="396.7027" y="-503.8" font-family="Helvetica,sans-Serif" font-size="11.00" fill="#000000">3 &gt;</text>
</a>
</g>
</g>
<!-- file_to_plan&#45;&gt;plan -->
<g id="edge3" class="edge">
<title>file_to_plan:w&#45;&gt;plan:e</title>
<path fill="none" stroke="#000000" d="M517.9143,-513.0613C477.0871,-515.1609 462.3073,-525.7 415,-525.7"/>
<polygon fill="#000000" stroke="#000000" points="524.5025,-512.8981 532.5892,-516.2989 528.5012,-512.7991 532.5,-512.7 532.5,-512.7 532.5,-512.7 528.5012,-512.7991 532.4108,-509.1011 524.5025,-512.8981 524.5025,-512.8981"/>
<ellipse fill="none" stroke="#000000" cx="521.3034" cy="-512.9774" rx="3.2" ry="3.2"/>
</g>
<!-- plan&#45;&gt;policy -->
<g id="edge7" class="edge">
<title>plan:w&#45;&gt;policy:e</title>
<path fill="none" stroke="#000000" d="M308.4807,-524.3075C290.1164,-520.3034 281.9105,-507.7466 269,-487.7 242.428,-446.4408 277.0754,-270.7 228,-270.7"/>
<polygon fill="#000000" stroke="#000000" points="315.0365,-524.9362 322.6563,-529.2836 319.0183,-525.3181 323,-525.7 323,-525.7 323,-525.7 319.0183,-525.3181 323.3437,-522.1164 315.0365,-524.9362 315.0365,-524.9362"/>
<ellipse fill="none" stroke="#000000" cx="311.8512" cy="-524.6306" rx="3.2" ry="3.2"/>
</g>
<!-- file_to_policy -->
<g id="node6" class="node">
<title>file_to_policy</title>
<g id="a_node6"><a xlink:href="../../tables/file_to_policy.html" xlink:title="file_to_policy" target="_top">
<polygon fill="#ffffff" stroke="transparent" points="510,-361.7 510,-451.7 653,-451.7 653,-361.7 510,-361.7"/>
<polygon fill="#f5f5f5" stroke="transparent" points="512.5,-426.7 512.5,-449.7 651.5,-449.7 651.5,-426.7 512.5,-426.7"/>
<polygon fill="none" stroke="#000000" points="512.5,-426.7 512.5,-449.7 651.5,-449.7 651.5,-426.7 512.5,-426.7"/>
<text text-anchor="start" x="517.5" y="-435.8" font-family="Helvetica,sans-Serif" font-weight="bold" font-size="11.00" fill="#000000">file_to_policy</text>
<text text-anchor="start" x="616.5437" y="-434.8" font-family="Helvetica,sans-Serif" font-size="11.00" fill="#000000">[table]</text>
<polygon fill="none" stroke="#000000" points="512.5,-404.7 512.5,-426.7 609.5,-426.7 609.5,-404.7 512.5,-404.7"/>
<image xlink:href="../../images/primaryKeys.png" width="11px" height="12px" preserveAspectRatio="xMinYMin meet" x="517.5" y="-421.7"/>
<text text-anchor="start" x="532.5" y="-411.8" font-family="Helvetica,sans-Serif" font-size="11.00" fill="#000000">file</text>
<polygon fill="none" stroke="#000000" points="609.5,-404.7 609.5,-426.7 651.5,-426.7 651.5,-404.7 609.5,-404.7"/>
<text text-anchor="start" x="612.4644" y="-412.4" font-family="Helvetica,sans-Serif" font-size="11.00" fill="#000000">int4[10]</text>
<polygon fill="none" stroke="#000000" points="512.5,-382.7 512.5,-404.7 609.5,-404.7 609.5,-382.7 512.5,-382.7"/>
<image xlink:href="../../images/primaryKeys.png" width="11px" height="12px" preserveAspectRatio="xMinYMin meet" x="517.5" y="-399.7"/>
<text text-anchor="start" x="532.5" y="-389.8" font-family="Helvetica,sans-Serif" font-size="11.00" fill="#000000">policy</text>
<polygon fill="none" stroke="#000000" points="609.5,-382.7 609.5,-404.7 651.5,-404.7 651.5,-382.7 609.5,-382.7"/>
<text text-anchor="start" x="612.4644" y="-390.4" font-family="Helvetica,sans-Serif" font-size="11.00" fill="#000000">int4[10]</text>
<polygon fill="#ffffff" stroke="transparent" points="512.5,-363.7 512.5,-382.7 538.5,-382.7 538.5,-363.7 512.5,-363.7"/>
<polygon fill="none" stroke="#000000" points="512.5,-363.7 512.5,-382.7 538.5,-382.7 538.5,-363.7 512.5,-363.7"/>
<text text-anchor="start" x="515.5" y="-369.8" font-family="Helvetica,sans-Serif" font-size="11.00" fill="#000000">&lt; 2</text>
<polygon fill="#ffffff" stroke="transparent" points="538.5,-363.7 538.5,-382.7 609.5,-382.7 609.5,-363.7 538.5,-363.7"/>
<polygon fill="none" stroke="#000000" points="538.5,-363.7 538.5,-382.7 609.5,-382.7 609.5,-363.7 538.5,-363.7"/>
<text text-anchor="start" x="546.594" y="-369.8" font-family="Helvetica,sans-Serif" font-size="11.00" fill="#000000">41,342 rows</text>
<polygon fill="#ffffff" stroke="transparent" points="609.5,-363.7 609.5,-382.7 651.5,-382.7 651.5,-363.7 609.5,-363.7"/>
<polygon fill="none" stroke="#000000" points="609.5,-363.7 609.5,-382.7 651.5,-382.7 651.5,-363.7 609.5,-363.7"/>
<text text-anchor="start" x="632.9053" y="-369.8" font-family="Helvetica,sans-Serif" font-size="11.00" fill="#000000">0 &gt;</text>
<polygon fill="none" stroke="#000000" stroke-width="2" points="511,-362.7 511,-450.7 652,-450.7 652,-362.7 511,-362.7"/>
</a>
</g>
</g>
<!-- file_to_policy&#45;&gt;policy -->
<g id="edge5" class="edge">
<title>file_to_policy:w&#45;&gt;policy:e</title>
<path fill="none" stroke="#000000" d="M498.1668,-392.2487C488.8426,-390.1471 482.7166,-386.2318 469,-383.7 424.8676,-375.554 305.2565,-382.1479 269,-355.7 235.1147,-330.9817 269.9429,-270.7 228,-270.7"/>
<polygon fill="#000000" stroke="#000000" points="504.5407,-392.894 512.1373,-397.2817 508.5203,-393.297 512.5,-393.7 512.5,-393.7 512.5,-393.7 508.5203,-393.297 512.8627,-390.1183 504.5407,-392.894 504.5407,-392.894"/>
<ellipse fill="none" stroke="#000000" cx="501.357" cy="-392.5716" rx="3.2" ry="3.2"/>
</g>
<!-- file_to_policy&#45;&gt;file -->
<g id="edge4" class="edge">
<title>file_to_policy:w&#45;&gt;file:e</title>
<path fill="none" stroke="#000000" d="M498.0024,-417.389C474.3723,-423.2999 466.5627,-442.7 436,-442.7"/>
<polygon fill="#000000" stroke="#000000" points="504.5537,-416.6258 512.9166,-419.2758 508.5269,-416.1629 512.5,-415.7 512.5,-415.7 512.5,-415.7 508.5269,-416.1629 512.0834,-412.1242 504.5537,-416.6258 504.5537,-416.6258"/>
<ellipse fill="none" stroke="#000000" cx="501.3752" cy="-416.9961" rx="3.2" ry="3.2"/>
</g>
<!-- place_to_policy -->
<g id="node7" class="node">
<title>place_to_policy</title>
<g id="a_node7"><a xlink:href="../../tables/place_to_policy.html" xlink:title="place_to_policy" target="_top">
<polygon fill="#ffffff" stroke="transparent" points="310,-284.2 310,-345.2 428,-345.2 428,-284.2 310,-284.2"/>
<polygon fill="#f5f5f5" stroke="transparent" points="310,-321.7 310,-344.7 428,-344.7 428,-321.7 310,-321.7"/>
<polygon fill="none" stroke="#000000" points="310,-321.7 310,-344.7 428,-344.7 428,-321.7 310,-321.7"/>
<text text-anchor="start" x="314.6006" y="-330.8" font-family="Helvetica,sans-Serif" font-weight="bold" font-size="11.00" fill="#000000">place_to_policy</text>
<text text-anchor="start" x="393.5219" y="-329.8" font-family="Helvetica,sans-Serif" font-size="11.00" fill="#000000">[table]</text>
<polygon fill="none" stroke="#000000" points="310,-302.7 310,-321.7 428,-321.7 428,-302.7 310,-302.7"/>
<text text-anchor="start" x="313" y="-308.8" font-family="Helvetica,sans-Serif" font-size="11.00" fill="#000000">...</text>
<polygon fill="#ffffff" stroke="transparent" points="310,-283.7 310,-302.7 337,-302.7 337,-283.7 310,-283.7"/>
<polygon fill="none" stroke="#000000" points="310,-283.7 310,-302.7 337,-302.7 337,-283.7 310,-283.7"/>
<text text-anchor="start" x="313" y="-289.8" font-family="Helvetica,sans-Serif" font-size="11.00" fill="#000000">&lt; 2</text>
<polygon fill="#ffffff" stroke="transparent" points="337,-283.7 337,-302.7 412,-302.7 412,-283.7 337,-283.7"/>
<polygon fill="none" stroke="#000000" points="337,-283.7 337,-302.7 412,-302.7 412,-283.7 337,-283.7"/>
<text text-anchor="start" x="342.9791" y="-289.8" font-family="Helvetica,sans-Serif" font-size="11.00" fill="#000000">994,786 rows</text>
<polygon fill="#ffffff" stroke="transparent" points="412,-283.7 412,-302.7 428,-302.7 428,-283.7 412,-283.7"/>
<polygon fill="none" stroke="#000000" points="412,-283.7 412,-302.7 428,-302.7 428,-283.7 412,-283.7"/>
<text text-anchor="start" x="418.8862" y="-289.8" font-family="Helvetica,sans-Serif" font-size="11.00" fill="#000000"> &#160;</text>
</a>
</g>
</g>
<!-- place_to_policy&#45;&gt;policy -->
<g id="edge6" class="edge">
<title>place_to_policy:w&#45;&gt;policy:e</title>
<path fill="none" stroke="#000000" d="M295.706,-309.7225C268.4092,-301.5326 263.3345,-270.7 228,-270.7"/>
<polygon fill="#000000" stroke="#000000" points="302.0755,-310.6036 309.5066,-315.266 306.0377,-311.1518 310,-311.7 310,-311.7 310,-311.7 306.0377,-311.1518 310.4934,-308.134 302.0755,-310.6036 302.0755,-310.6036"/>
<ellipse fill="none" stroke="#000000" cx="298.9057" cy="-310.1651" rx="3.2" ry="3.2"/>
</g>
<!-- policies_to_court_challenges -->
<g id="node8" class="node">
<title>policies_to_court_challenges</title>
<g id="a_node8"><a xlink:href="../../tables/policies_to_court_challenges.html" xlink:title="policies_to_court_challenges" target="_top">
<polygon fill="#ffffff" stroke="transparent" points="277,-202.2 277,-263.2 461,-263.2 461,-202.2 277,-202.2"/>
<polygon fill="#f5f5f5" stroke="transparent" points="277,-239.7 277,-262.7 461,-262.7 461,-239.7 277,-239.7"/>
<polygon fill="none" stroke="#000000" points="277,-239.7 277,-262.7 461,-262.7 461,-239.7 277,-239.7"/>
<text text-anchor="start" x="281.8982" y="-248.8" font-family="Helvetica,sans-Serif" font-weight="bold" font-size="11.00" fill="#000000">policies_to_court_challenges</text>
<text text-anchor="start" x="426.5219" y="-247.8" font-family="Helvetica,sans-Serif" font-size="11.00" fill="#000000">[table]</text>
<polygon fill="none" stroke="#000000" points="277,-220.7 277,-239.7 461,-239.7 461,-220.7 277,-220.7"/>
<text text-anchor="start" x="280" y="-226.8" font-family="Helvetica,sans-Serif" font-size="11.00" fill="#000000">...</text>
<polygon fill="#ffffff" stroke="transparent" points="277,-201.7 277,-220.7 354,-220.7 354,-201.7 277,-201.7"/>
<polygon fill="none" stroke="#000000" points="277,-201.7 277,-220.7 354,-220.7 354,-201.7 277,-201.7"/>
<text text-anchor="start" x="280" y="-207.8" font-family="Helvetica,sans-Serif" font-size="11.00" fill="#000000">&lt; 2</text>
<polygon fill="#ffffff" stroke="transparent" points="354,-201.7 354,-220.7 420,-220.7 420,-201.7 354,-201.7"/>
<polygon fill="none" stroke="#000000" points="354,-201.7 354,-220.7 420,-220.7 420,-201.7 354,-201.7"/>
<text text-anchor="start" x="384.6105" y="-207.8" font-family="Helvetica,sans-Serif" font-size="11.00" fill="#000000">0 rows</text>
<polygon fill="#ffffff" stroke="transparent" points="420,-201.7 420,-220.7 461,-220.7 461,-201.7 420,-201.7"/>
<polygon fill="none" stroke="#000000" points="420,-201.7 420,-220.7 461,-220.7 461,-201.7 420,-201.7"/>
<text text-anchor="start" x="451.8862" y="-207.8" font-family="Helvetica,sans-Serif" font-size="11.00" fill="#000000"> &#160;</text>
</a>
</g>
</g>
<!-- policies_to_court_challenges&#45;&gt;policy -->
<g id="edge8" class="edge">
<title>policies_to_court_challenges:w&#45;&gt;policy:e</title>
<path fill="none" stroke="#000000" d="M263.1819,-234.4032C250.2811,-245.1726 250.4061,-270.7 228,-270.7"/>
<polygon fill="#000000" stroke="#000000" points="269.4267,-232.2778 278.16,-233.108 273.2133,-230.9889 277,-229.7 277,-229.7 277,-229.7 273.2133,-230.9889 275.84,-226.292 269.4267,-232.2778 269.4267,-232.2778"/>
<ellipse fill="none" stroke="#000000" cx="266.3973" cy="-233.3089" rx="3.2" ry="3.2"/>
</g>
<!-- policy_number_to_policy -->
<g id="node9" class="node">
<title>policy_number_to_policy</title>
<g id="a_node9"><a xlink:href="../../tables/policy_number_to_policy.html" xlink:title="policy_number_to_policy" target="_top">
<polygon fill="#ffffff" stroke="transparent" points="287,-120.2 287,-181.2 451,-181.2 451,-120.2 287,-120.2"/>
<polygon fill="#f5f5f5" stroke="transparent" points="287,-157.7 287,-180.7 451,-180.7 451,-157.7 287,-157.7"/>
<polygon fill="none" stroke="#000000" points="287,-157.7 287,-180.7 451,-180.7 451,-157.7 287,-157.7"/>
<text text-anchor="start" x="291.9885" y="-166.8" font-family="Helvetica,sans-Serif" font-weight="bold" font-size="11.00" fill="#000000">policy_number_to_policy</text>
<text text-anchor="start" x="416.5219" y="-165.8" font-family="Helvetica,sans-Serif" font-size="11.00" fill="#000000">[table]</text>
<polygon fill="none" stroke="#000000" points="287,-138.7 287,-157.7 451,-157.7 451,-138.7 287,-138.7"/>
<text text-anchor="start" x="290" y="-144.8" font-family="Helvetica,sans-Serif" font-size="11.00" fill="#000000">...</text>
<polygon fill="#ffffff" stroke="transparent" points="287,-119.7 287,-138.7 341,-138.7 341,-119.7 287,-119.7"/>
<polygon fill="none" stroke="#000000" points="287,-119.7 287,-138.7 341,-138.7 341,-119.7 287,-119.7"/>
<text text-anchor="start" x="290" y="-125.8" font-family="Helvetica,sans-Serif" font-size="11.00" fill="#000000">&lt; 2</text>
<polygon fill="#ffffff" stroke="transparent" points="341,-119.7 341,-138.7 422,-138.7 422,-119.7 341,-119.7"/>
<polygon fill="none" stroke="#000000" points="341,-119.7 341,-138.7 422,-138.7 422,-119.7 341,-119.7"/>
<text text-anchor="start" x="359.094" y="-125.8" font-family="Helvetica,sans-Serif" font-size="11.00" fill="#000000">40,812 rows</text>
<polygon fill="#ffffff" stroke="transparent" points="422,-119.7 422,-138.7 451,-138.7 451,-119.7 422,-119.7"/>
<polygon fill="none" stroke="#000000" points="422,-119.7 422,-138.7 451,-138.7 451,-119.7 422,-119.7"/>
<text text-anchor="start" x="441.8862" y="-125.8" font-family="Helvetica,sans-Serif" font-size="11.00" fill="#000000"> &#160;</text>
</a>
</g>
</g>
<!-- policy_number_to_policy&#45;&gt;policy -->
<g id="edge9" class="edge">
<title>policy_number_to_policy:w&#45;&gt;policy:e</title>
<path fill="none" stroke="#000000" d="M272.5242,-150.99C237.3579,-170.5504 282.7095,-270.7 228,-270.7"/>
<polygon fill="#000000" stroke="#000000" points="279.1989,-149.473 287.7979,-151.2105 283.0995,-148.5865 287,-147.7 287,-147.7 287,-147.7 283.0995,-148.5865 286.2021,-144.1895 279.1989,-149.473 279.1989,-149.473"/>
<ellipse fill="none" stroke="#000000" cx="276.0785" cy="-150.1822" rx="3.2" ry="3.2"/>
</g>
<!-- policy_to_prior_policy -->
<g id="node10" class="node">
<title>policy_to_prior_policy</title>
<g id="a_node10"><a xlink:href="../../tables/policy_to_prior_policy.html" xlink:title="policy_to_prior_policy" target="_top">
<polygon fill="#ffffff" stroke="transparent" points="295,-38.2 295,-99.2 443,-99.2 443,-38.2 295,-38.2"/>
<polygon fill="#f5f5f5" stroke="transparent" points="295,-75.7 295,-98.7 443,-98.7 443,-75.7 295,-75.7"/>
<polygon fill="none" stroke="#000000" points="295,-75.7 295,-98.7 443,-98.7 443,-75.7 295,-75.7"/>
<text text-anchor="start" x="299.6329" y="-84.8" font-family="Helvetica,sans-Serif" font-weight="bold" font-size="11.00" fill="#000000">policy_to_prior_policy</text>
<text text-anchor="start" x="408.5219" y="-83.8" font-family="Helvetica,sans-Serif" font-size="11.00" fill="#000000">[table]</text>
<polygon fill="none" stroke="#000000" points="295,-56.7 295,-75.7 443,-75.7 443,-56.7 295,-56.7"/>
<text text-anchor="start" x="298" y="-62.8" font-family="Helvetica,sans-Serif" font-size="11.00" fill="#000000">...</text>
<polygon fill="#ffffff" stroke="transparent" points="295,-37.7 295,-56.7 341,-56.7 341,-37.7 295,-37.7"/>
<polygon fill="none" stroke="#000000" points="295,-37.7 295,-56.7 341,-56.7 341,-37.7 295,-37.7"/>
<text text-anchor="start" x="298" y="-43.8" font-family="Helvetica,sans-Serif" font-size="11.00" fill="#000000">&lt; 2</text>
<polygon fill="#ffffff" stroke="transparent" points="341,-37.7 341,-56.7 418,-56.7 418,-37.7 341,-37.7"/>
<polygon fill="none" stroke="#000000" points="341,-37.7 341,-56.7 418,-56.7 418,-37.7 341,-37.7"/>
<text text-anchor="start" x="355.094" y="-43.8" font-family="Helvetica,sans-Serif" font-size="11.00" fill="#000000">35,976 rows</text>
<polygon fill="#ffffff" stroke="transparent" points="418,-37.7 418,-56.7 443,-56.7 443,-37.7 418,-37.7"/>
<polygon fill="none" stroke="#000000" points="418,-37.7 418,-56.7 443,-56.7 443,-37.7 418,-37.7"/>
<text text-anchor="start" x="433.8862" y="-43.8" font-family="Helvetica,sans-Serif" font-size="11.00" fill="#000000"> &#160;</text>
</a>
</g>
</g>
<!-- policy_to_prior_policy&#45;&gt;policy -->
<g id="edge10" class="edge">
<title>policy_to_prior_policy:w&#45;&gt;policy:e</title>
<path fill="none" stroke="#000000" d="M280.3337,-66.7361C213.0031,-83.0402 318.2374,-265.0516 228,-270.7"/>
<polygon fill="#000000" stroke="#000000" points="287.0199,-66.2638 295.2537,-69.2911 291.0099,-65.9819 295,-65.7 295,-65.7 295,-65.7 291.0099,-65.9819 294.7463,-62.1089 287.0199,-66.2638 287.0199,-66.2638"/>
<ellipse fill="none" stroke="#000000" cx="283.8278" cy="-66.4893" rx="3.2" ry="3.2"/>
</g>
<!-- policy_to_prior_policy&#45;&gt;policy -->
<g id="edge11" class="edge">
<title>policy_to_prior_policy:w&#45;&gt;policy:e</title>
<path fill="none" stroke="#000000" d="M280.755,-68.7206C212.5656,-95.2425 318.4246,-277.3035 228,-270.7"/>
<polygon fill="#000000" stroke="#000000" points="287.174,-67.3595 295.7468,-69.2217 291.087,-66.5298 295,-65.7 295,-65.7 295,-65.7 291.087,-66.5298 294.2532,-62.1783 287.174,-67.3595 287.174,-67.3595"/>
<ellipse fill="none" stroke="#000000" cx="284.0436" cy="-68.0233" rx="3.2" ry="3.2"/>
</g>
</g>
</svg>
