<?xml version="1.0" encoding="UTF-8" standalone="no"?>
<!DOCTYPE svg PUBLIC "-//W3C//DTD SVG 1.1//EN"
 "http://www.w3.org/Graphics/SVG/1.1/DTD/svg11.dtd">
<!-- Generated by graphviz version 2.40.1 (20161225.0304)
 -->
<!-- Title: twoDegreesRelationshipsDiagram Pages: 1 -->
<svg width="554pt" height="377pt"
 viewBox="0.00 0.00 554.00 376.88" xmlns="http://www.w3.org/2000/svg" xmlns:xlink="http://www.w3.org/1999/xlink">
<g id="graph0" class="graph" transform="scale(1 1) rotate(0) translate(4 372.8762)">
<title>twoDegreesRelationshipsDiagram</title>
<polygon fill="#ffffff" stroke="transparent" points="-4,4 -4,-372.8762 550,-372.8762 550,4 -4,4"/>
<text text-anchor="middle" x="72.4936" y="-7.3" font-family="Helvetica,sans-Serif" font-size="11.00" fill="#000000">Generated by SchemaSpy</text>
<!-- file_to_plan -->
<g id="node1" class="node">
<title>file_to_plan</title>
<g id="a_node1"><a xlink:href="../../tables/file_to_plan.html" xlink:title="file_to_plan" target="_top">
<polygon fill="#ffffff" stroke="transparent" points="435.5,-80.7 435.5,-166.7 534.5,-166.7 534.5,-80.7 435.5,-80.7"/>
<polygon fill="#f5f5f5" stroke="transparent" points="436,-143.7 436,-166.7 535,-166.7 535,-143.7 436,-143.7"/>
<polygon fill="none" stroke="#000000" points="436,-143.7 436,-166.7 535,-166.7 535,-143.7 436,-143.7"/>
<text text-anchor="start" x="440.8796" y="-152.8" font-family="Helvetica,sans-Serif" font-weight="bold" font-size="11.00" fill="#000000">file_to_plan</text>
<text text-anchor="start" x="500.5219" y="-151.8" font-family="Helvetica,sans-Serif" font-size="11.00" fill="#000000">[table]</text>
<polygon fill="none" stroke="#000000" points="436,-121.7 436,-143.7 535,-143.7 535,-121.7 436,-121.7"/>
<image xlink:href="../../images/primaryKeys.png" width="11px" height="12px" preserveAspectRatio="xMinYMin meet" x="441" y="-138.7"/>
<text text-anchor="start" x="462" y="-128.8" font-family="Helvetica,sans-Serif" font-size="11.00" fill="#000000">file</text>
<polygon fill="none" stroke="#000000" points="436,-99.7 436,-121.7 535,-121.7 535,-99.7 436,-99.7"/>
<image xlink:href="../../images/primaryKeys.png" width="11px" height="12px" preserveAspectRatio="xMinYMin meet" x="441" y="-116.7"/>
<text text-anchor="start" x="462" y="-106.8" font-family="Helvetica,sans-Serif" font-size="11.00" fill="#000000">plan</text>
<polygon fill="#ffffff" stroke="transparent" points="436,-80.7 436,-99.7 465,-99.7 465,-80.7 436,-80.7"/>
<polygon fill="none" stroke="#000000" points="436,-80.7 436,-99.7 465,-99.7 465,-80.7 436,-80.7"/>
<text text-anchor="start" x="439" y="-86.8" font-family="Helvetica,sans-Serif" font-size="11.00" fill="#000000">&lt; 2</text>
<polygon fill="#ffffff" stroke="transparent" points="465,-80.7 465,-99.7 519,-99.7 519,-80.7 465,-80.7"/>
<polygon fill="none" stroke="#000000" points="465,-80.7 465,-99.7 519,-99.7 519,-80.7 465,-80.7"/>
<text text-anchor="start" x="471.3807" y="-86.8" font-family="Helvetica,sans-Serif" font-size="11.00" fill="#000000">567 rows</text>
<polygon fill="#ffffff" stroke="transparent" points="519,-80.7 519,-99.7 535,-99.7 535,-80.7 519,-80.7"/>
<polygon fill="none" stroke="#000000" points="519,-80.7 519,-99.7 535,-99.7 535,-80.7 519,-80.7"/>
<text text-anchor="start" x="525.8862" y="-86.8" font-family="Helvetica,sans-Serif" font-size="11.00" fill="#000000"> &#160;</text>
</a>
</g>
</g>
<!-- file -->
<g id="node2" class="node">
<title>file</title>
<g id="a_node2"><a xlink:href="../../tables/file.html" xlink:title="file" target="_top">
<polygon fill="#ffffff" stroke="transparent" points="155,-120.7 155,-320.7 383,-320.7 383,-120.7 155,-120.7"/>
<polygon fill="#f5f5f5" stroke="transparent" points="157,-295.7 157,-318.7 381,-318.7 381,-295.7 157,-295.7"/>
<polygon fill="none" stroke="#000000" points="157,-295.7 157,-318.7 381,-318.7 381,-295.7 157,-295.7"/>
<text text-anchor="start" x="162" y="-304.8" font-family="Helvetica,sans-Serif" font-weight="bold" font-size="11.00" fill="#000000">file</text>
<text text-anchor="start" x="346.0437" y="-303.8" font-family="Helvetica,sans-Serif" font-size="11.00" fill="#000000">[table]</text>
<polygon fill="none" stroke="#000000" points="157,-273.7 157,-295.7 291,-295.7 291,-273.7 157,-273.7"/>
<image xlink:href="../../images/primaryKeys.png" width="11px" height="12px" preserveAspectRatio="xMinYMin meet" x="162" y="-290.7"/>
<text text-anchor="start" x="177" y="-280.8" font-family="Helvetica,sans-Serif" font-size="11.00" fill="#000000">id</text>
<polygon fill="none" stroke="#000000" points="291,-273.7 291,-295.7 381,-295.7 381,-273.7 291,-273.7"/>
<text text-anchor="start" x="294" y="-281.4" font-family="Helvetica,sans-Serif" font-size="11.00" fill="#000000">serial[10]</text>
<polygon fill="none" stroke="#000000" points="157,-251.7 157,-273.7 291,-273.7 291,-251.7 157,-251.7"/>
<text text-anchor="start" x="177" y="-258.8" font-family="Helvetica,sans-Serif" font-size="11.00" fill="#000000">name</text>
<polygon fill="none" stroke="#000000" points="291,-251.7 291,-273.7 381,-273.7 381,-251.7 291,-251.7"/>
<text text-anchor="start" x="293.5043" y="-259.4" font-family="Helvetica,sans-Serif" font-size="11.00" fill="#000000">text[2147483647]</text>
<polygon fill="none" stroke="#000000" points="157,-229.7 157,-251.7 291,-251.7 291,-229.7 157,-229.7"/>
<text text-anchor="start" x="177" y="-236.8" font-family="Helvetica,sans-Serif" font-size="11.00" fill="#000000">type</text>
<polygon fill="none" stroke="#000000" points="291,-229.7 291,-251.7 381,-251.7 381,-229.7 291,-229.7"/>
<text text-anchor="start" x="293.5043" y="-237.4" font-family="Helvetica,sans-Serif" font-size="11.00" fill="#000000">text[2147483647]</text>
<polygon fill="none" stroke="#000000" points="157,-207.7 157,-229.7 291,-229.7 291,-207.7 157,-207.7"/>
<text text-anchor="start" x="177" y="-214.8" font-family="Helvetica,sans-Serif" font-size="11.00" fill="#000000">data_source</text>
<polygon fill="none" stroke="#000000" points="291,-207.7 291,-229.7 381,-229.7 381,-207.7 291,-207.7"/>
<text text-anchor="start" x="293.5043" y="-215.4" font-family="Helvetica,sans-Serif" font-size="11.00" fill="#000000">text[2147483647]</text>
<polygon fill="none" stroke="#000000" points="157,-185.7 157,-207.7 291,-207.7 291,-185.7 157,-185.7"/>
<text text-anchor="start" x="177" y="-192.8" font-family="Helvetica,sans-Serif" font-size="11.00" fill="#000000">permalink</text>
<polygon fill="none" stroke="#000000" points="291,-185.7 291,-207.7 381,-207.7 381,-185.7 291,-185.7"/>
<text text-anchor="start" x="293.5043" y="-193.4" font-family="Helvetica,sans-Serif" font-size="11.00" fill="#000000">text[2147483647]</text>
<polygon fill="none" stroke="#000000" points="157,-163.7 157,-185.7 291,-185.7 291,-163.7 157,-163.7"/>
<text text-anchor="start" x="177" y="-170.8" font-family="Helvetica,sans-Serif" font-size="11.00" fill="#000000">filename</text>
<polygon fill="none" stroke="#000000" points="291,-163.7 291,-185.7 381,-185.7 381,-163.7 291,-163.7"/>
<text text-anchor="start" x="293.5043" y="-171.4" font-family="Helvetica,sans-Serif" font-size="11.00" fill="#000000">text[2147483647]</text>
<polygon fill="none" stroke="#000000" points="157,-141.7 157,-163.7 291,-163.7 291,-141.7 157,-141.7"/>
<text text-anchor="start" x="177" y="-148.8" font-family="Helvetica,sans-Serif" font-size="11.00" fill="#000000">airtable_attachment</text>
<polygon fill="none" stroke="#000000" points="291,-141.7 291,-163.7 381,-163.7 381,-141.7 291,-141.7"/>
<text text-anchor="start" x="294" y="-149.4" font-family="Helvetica,sans-Serif" font-size="11.00" fill="#000000">bool[1]</text>
<polygon fill="#ffffff" stroke="transparent" points="157,-122.7 157,-141.7 202,-141.7 202,-122.7 157,-122.7"/>
<polygon fill="none" stroke="#000000" points="157,-122.7 157,-141.7 202,-141.7 202,-122.7 157,-122.7"/>
<text text-anchor="start" x="160" y="-128.8" font-family="Helvetica,sans-Serif" font-size="11.00" fill="#000000">&lt; 0</text>
<polygon fill="#ffffff" stroke="transparent" points="202,-122.7 202,-141.7 291,-141.7 291,-122.7 202,-122.7"/>
<polygon fill="none" stroke="#000000" points="202,-122.7 202,-141.7 291,-141.7 291,-122.7 202,-122.7"/>
<text text-anchor="start" x="228.094" y="-128.8" font-family="Helvetica,sans-Serif" font-size="11.00" fill="#000000">19,094 rows</text>
<polygon fill="#ffffff" stroke="transparent" points="291,-122.7 291,-141.7 381,-141.7 381,-122.7 291,-122.7"/>
<polygon fill="none" stroke="#000000" points="291,-122.7 291,-141.7 381,-141.7 381,-122.7 291,-122.7"/>
<text text-anchor="start" x="362.4053" y="-128.8" font-family="Helvetica,sans-Serif" font-size="11.00" fill="#000000">2 &gt;</text>
<polygon fill="none" stroke="#000000" stroke-width="2" points="156,-121.7 156,-319.7 382,-319.7 382,-121.7 156,-121.7"/>
</a>
</g>
</g>
<!-- file_to_plan&#45;&gt;file -->
<g id="edge1" class="edge">
<title>file_to_plan:w&#45;&gt;file:e</title>
<path fill="none" stroke="#000000" d="M421.6643,-135.468C377.3319,-156.069 447.0891,-284.7 381,-284.7"/>
<polygon fill="#000000" stroke="#000000" points="428.1451,-134.2167 436.6825,-136.2347 432.0725,-133.4584 436,-132.7 436,-132.7 436,-132.7 432.0725,-133.4584 435.3175,-129.1653 428.1451,-134.2167 428.1451,-134.2167"/>
<ellipse fill="none" stroke="#000000" cx="425.0031" cy="-134.8234" rx="3.2" ry="3.2"/>
</g>
<!-- plan -->
<g id="node3" class="node">
<title>plan</title>
<g id="a_node3"><a xlink:href="../../tables/plan.html" xlink:title="plan" target="_top">
<polygon fill="#ffffff" stroke="transparent" points="223,-38.2 223,-99.2 315,-99.2 315,-38.2 223,-38.2"/>
<polygon fill="#f5f5f5" stroke="transparent" points="223,-75.7 223,-98.7 315,-98.7 315,-75.7 223,-75.7"/>
<polygon fill="none" stroke="#000000" points="223,-75.7 223,-98.7 315,-98.7 315,-75.7 223,-75.7"/>
<text text-anchor="start" x="228" y="-84.8" font-family="Helvetica,sans-Serif" font-weight="bold" font-size="11.00" fill="#000000">plan</text>
<text text-anchor="start" x="280.0437" y="-83.8" font-family="Helvetica,sans-Serif" font-size="11.00" fill="#000000">[table]</text>
<polygon fill="none" stroke="#000000" points="223,-56.7 223,-75.7 315,-75.7 315,-56.7 223,-56.7"/>
<text text-anchor="start" x="226" y="-62.8" font-family="Helvetica,sans-Serif" font-size="11.00" fill="#000000">...</text>
<polygon fill="#ffffff" stroke="transparent" points="223,-37.7 223,-56.7 244,-56.7 244,-37.7 223,-37.7"/>
<polygon fill="none" stroke="#000000" points="223,-37.7 223,-56.7 244,-56.7 244,-37.7 223,-37.7"/>
<text text-anchor="start" x="225.7027" y="-43.8" font-family="Helvetica,sans-Serif" font-size="11.00" fill="#000000">&lt; 1</text>
<polygon fill="#ffffff" stroke="transparent" points="244,-37.7 244,-56.7 294,-56.7 294,-37.7 244,-37.7"/>
<polygon fill="none" stroke="#000000" points="244,-37.7 244,-56.7 294,-56.7 294,-37.7 244,-37.7"/>
<text text-anchor="start" x="246.6904" y="-43.8" font-family="Helvetica,sans-Serif" font-size="11.00" fill="#000000">493 rows</text>
<polygon fill="#ffffff" stroke="transparent" points="294,-37.7 294,-56.7 315,-56.7 315,-37.7 294,-37.7"/>
<polygon fill="none" stroke="#000000" points="294,-37.7 294,-56.7 315,-56.7 315,-37.7 294,-37.7"/>
<text text-anchor="start" x="296.7027" y="-43.8" font-family="Helvetica,sans-Serif" font-size="11.00" fill="#000000">3 &gt;</text>
</a>
</g>
</g>
<!-- file_to_plan&#45;&gt;plan -->
<g id="edge2" class="edge">
<title>file_to_plan:w&#45;&gt;plan:e</title>
<path fill="none" stroke="#000000" d="M421.4125,-109.632C377.0458,-102.8175 367.1094,-65.7 315,-65.7"/>
<polygon fill="#000000" stroke="#000000" points="428.0214,-110.1158 435.7371,-114.2904 432.0107,-110.4079 436,-110.7 436,-110.7 436,-110.7 432.0107,-110.4079 436.2629,-107.1096 428.0214,-110.1158 428.0214,-110.1158"/>
<ellipse fill="none" stroke="#000000" cx="424.8299" cy="-109.8821" rx="3.2" ry="3.2"/>
</g>
<!-- policy -->
<g id="node5" class="node">
<title>policy</title>
<g id="a_node5"><a xlink:href="../../tables/policy.html" xlink:title="policy" target="_top">
<polygon fill="#ffffff" stroke="transparent" points="8,-177.2 8,-238.2 106,-238.2 106,-177.2 8,-177.2"/>
<polygon fill="#f5f5f5" stroke="transparent" points="8,-214.7 8,-237.7 106,-237.7 106,-214.7 8,-214.7"/>
<polygon fill="none" stroke="#000000" points="8,-214.7 8,-237.7 106,-237.7 106,-214.7 8,-214.7"/>
<text text-anchor="start" x="13" y="-223.8" font-family="Helvetica,sans-Serif" font-weight="bold" font-size="11.00" fill="#000000">policy</text>
<text text-anchor="start" x="71.0437" y="-222.8" font-family="Helvetica,sans-Serif" font-size="11.00" fill="#000000">[table]</text>
<polygon fill="none" stroke="#000000" points="8,-195.7 8,-214.7 106,-214.7 106,-195.7 8,-195.7"/>
<text text-anchor="start" x="11" y="-201.8" font-family="Helvetica,sans-Serif" font-size="11.00" fill="#000000">...</text>
<polygon fill="#ffffff" stroke="transparent" points="8,-176.7 8,-195.7 20,-195.7 20,-176.7 8,-176.7"/>
<polygon fill="none" stroke="#000000" points="8,-176.7 8,-195.7 20,-195.7 20,-176.7 8,-176.7"/>
<text text-anchor="start" x="10.9431" y="-182.8" font-family="Helvetica,sans-Serif" font-size="11.00" fill="#000000"> &#160;</text>
<polygon fill="#ffffff" stroke="transparent" points="20,-176.7 20,-195.7 85,-195.7 85,-176.7 20,-176.7"/>
<polygon fill="none" stroke="#000000" points="20,-176.7 20,-195.7 85,-195.7 85,-176.7 20,-176.7"/>
<text text-anchor="start" x="22.547" y="-182.8" font-family="Helvetica,sans-Serif" font-size="11.00" fill="#000000">40,812 rows</text>
<polygon fill="#ffffff" stroke="transparent" points="85,-176.7 85,-195.7 106,-195.7 106,-176.7 85,-176.7"/>
<polygon fill="none" stroke="#000000" points="85,-176.7 85,-195.7 106,-195.7 106,-176.7 85,-176.7"/>
<text text-anchor="start" x="87.7027" y="-182.8" font-family="Helvetica,sans-Serif" font-size="11.00" fill="#000000">8 &gt;</text>
</a>
</g>
</g>
<!-- plan&#45;&gt;policy -->
<g id="edge5" class="edge">
<title>plan:w&#45;&gt;policy:e</title>
<path fill="none" stroke="#000000" d="M208.386,-66.5695C180.5206,-70.2201 169.4405,-85.3068 147,-110.7 116.8178,-144.8536 151.5789,-204.7 106,-204.7"/>
<polygon fill="#000000" stroke="#000000" points="215.0141,-66.1752 223.2138,-69.2936 219.0071,-65.9376 223,-65.7 223,-65.7 223,-65.7 219.0071,-65.9376 222.7862,-62.1064 215.0141,-66.1752 215.0141,-66.1752"/>
<ellipse fill="none" stroke="#000000" cx="211.8198" cy="-66.3652" rx="3.2" ry="3.2"/>
</g>
<!-- file_to_policy -->
<g id="node4" class="node">
<title>file_to_policy</title>
<g id="a_node4"><a xlink:href="../../tables/file_to_policy.html" xlink:title="file_to_policy" target="_top">
<polygon fill="#ffffff" stroke="transparent" points="432,-273.7 432,-359.7 538,-359.7 538,-273.7 432,-273.7"/>
<polygon fill="#f5f5f5" stroke="transparent" points="432,-336.7 432,-359.7 538,-359.7 538,-336.7 432,-336.7"/>
<polygon fill="none" stroke="#000000" points="432,-336.7 432,-359.7 538,-359.7 538,-336.7 432,-336.7"/>
<text text-anchor="start" x="436.7166" y="-345.8" font-family="Helvetica,sans-Serif" font-weight="bold" font-size="11.00" fill="#000000">file_to_policy</text>
<text text-anchor="start" x="503.5219" y="-344.8" font-family="Helvetica,sans-Serif" font-size="11.00" fill="#000000">[table]</text>
<polygon fill="none" stroke="#000000" points="432,-314.7 432,-336.7 538,-336.7 538,-314.7 432,-314.7"/>
<image xlink:href="../../images/primaryKeys.png" width="11px" height="12px" preserveAspectRatio="xMinYMin meet" x="437" y="-331.7"/>
<text text-anchor="start" x="457" y="-321.8" font-family="Helvetica,sans-Serif" font-size="11.00" fill="#000000">file</text>
<polygon fill="none" stroke="#000000" points="432,-292.7 432,-314.7 538,-314.7 538,-292.7 432,-292.7"/>
<image xlink:href="../../images/primaryKeys.png" width="11px" height="12px" preserveAspectRatio="xMinYMin meet" x="437" y="-309.7"/>
<text text-anchor="start" x="457" y="-299.8" font-family="Helvetica,sans-Serif" font-size="11.00" fill="#000000">policy</text>
<polygon fill="#ffffff" stroke="transparent" points="432,-273.7 432,-292.7 457,-292.7 457,-273.7 432,-273.7"/>
<polygon fill="none" stroke="#000000" points="432,-273.7 432,-292.7 457,-292.7 457,-273.7 432,-273.7"/>
<text text-anchor="start" x="435" y="-279.8" font-family="Helvetica,sans-Serif" font-size="11.00" fill="#000000">&lt; 2</text>
<polygon fill="#ffffff" stroke="transparent" points="457,-273.7 457,-292.7 524,-292.7 524,-273.7 457,-273.7"/>
<polygon fill="none" stroke="#000000" points="457,-273.7 457,-292.7 524,-292.7 524,-273.7 457,-273.7"/>
<text text-anchor="start" x="461.094" y="-279.8" font-family="Helvetica,sans-Serif" font-size="11.00" fill="#000000">41,342 rows</text>
<polygon fill="#ffffff" stroke="transparent" points="524,-273.7 524,-292.7 538,-292.7 538,-273.7 524,-273.7"/>
<polygon fill="none" stroke="#000000" points="524,-273.7 524,-292.7 538,-292.7 538,-273.7 524,-273.7"/>
<text text-anchor="start" x="528.8862" y="-279.8" font-family="Helvetica,sans-Serif" font-size="11.00" fill="#000000"> &#160;</text>
</a>
</g>
</g>
<!-- file_to_policy&#45;&gt;file -->
<g id="edge3" class="edge">
<title>file_to_policy:w&#45;&gt;file:e</title>
<path fill="none" stroke="#000000" d="M418.1568,-321.3123C404.3325,-310.7354 404.1756,-284.7 381,-284.7"/>
<polygon fill="#000000" stroke="#000000" points="424.3739,-323.2828 430.9123,-329.1317 428.1869,-324.4914 432,-325.7 432,-325.7 432,-325.7 428.1869,-324.4914 433.0877,-322.2683 424.3739,-323.2828 424.3739,-323.2828"/>
<ellipse fill="none" stroke="#000000" cx="421.3235" cy="-322.3159" rx="3.2" ry="3.2"/>
</g>
<!-- file_to_policy&#45;&gt;policy -->
<g id="edge4" class="edge">
<title>file_to_policy:w&#45;&gt;policy:e</title>
<path fill="none" stroke="#000000" d="M418.0726,-307.9879C409.3052,-314.6023 406.1536,-327.0193 391,-331.7 287.3859,-363.7048 234.6732,-395.5248 147,-331.7 99.0477,-296.7915 165.3129,-204.7 106,-204.7"/>
<polygon fill="#000000" stroke="#000000" points="424.3542,-306.054 433.0593,-307.1406 428.1771,-304.877 432,-303.7 432,-303.7 432,-303.7 428.1771,-304.877 430.9407,-300.2594 424.3542,-306.054 424.3542,-306.054"/>
<ellipse fill="none" stroke="#000000" cx="421.2958" cy="-306.9956" rx="3.2" ry="3.2"/>
</g>
</g>
</svg>
