<?xml version="1.0" encoding="UTF-8" standalone="no"?>
<!DOCTYPE svg PUBLIC "-//W3C//DTD SVG 1.1//EN"
 "http://www.w3.org/Graphics/SVG/1.1/DTD/svg11.dtd">
<!-- Generated by graphviz version 2.40.1 (20161225.0304)
 -->
<!-- Title: twoDegreesRelationshipsDiagram Pages: 1 -->
<svg width="541pt" height="387pt"
 viewBox="0.00 0.00 541.00 387.20" xmlns="http://www.w3.org/2000/svg" xmlns:xlink="http://www.w3.org/1999/xlink">
<g id="graph0" class="graph" transform="scale(1 1) rotate(0) translate(4 383.2)">
<title>twoDegreesRelationshipsDiagram</title>
<polygon fill="#ffffff" stroke="transparent" points="-4,4 -4,-383.2 537,-383.2 537,4 -4,4"/>
<text text-anchor="middle" x="72.4936" y="-7.3" font-family="Helvetica,sans-Serif" font-size="11.00" fill="#000000">Generated by SchemaSpy</text>
<!-- auth_entity_to_plan -->
<g id="node1" class="node">
<title>auth_entity_to_plan</title>
<g id="a_node1"><a xlink:href="../../tables/auth_entity_to_plan.html" xlink:title="auth_entity_to_plan" target="_top">
<polygon fill="#ffffff" stroke="transparent" points="387,-120.2 387,-181.2 525,-181.2 525,-120.2 387,-120.2"/>
<polygon fill="#f5f5f5" stroke="transparent" points="387,-157.7 387,-180.7 525,-180.7 525,-157.7 387,-157.7"/>
<polygon fill="none" stroke="#000000" points="387,-157.7 387,-180.7 525,-180.7 525,-157.7 387,-157.7"/>
<text text-anchor="start" x="391.5059" y="-166.8" font-family="Helvetica,sans-Serif" font-weight="bold" font-size="11.00" fill="#000000">auth_entity_to_plan</text>
<text text-anchor="start" x="490.5219" y="-165.8" font-family="Helvetica,sans-Serif" font-size="11.00" fill="#000000">[table]</text>
<polygon fill="none" stroke="#000000" points="387,-138.7 387,-157.7 525,-157.7 525,-138.7 387,-138.7"/>
<text text-anchor="start" x="390" y="-144.8" font-family="Helvetica,sans-Serif" font-size="11.00" fill="#000000">...</text>
<polygon fill="#ffffff" stroke="transparent" points="387,-119.7 387,-138.7 435,-138.7 435,-119.7 387,-119.7"/>
<polygon fill="none" stroke="#000000" points="387,-119.7 387,-138.7 435,-138.7 435,-119.7 387,-119.7"/>
<text text-anchor="start" x="390" y="-125.8" font-family="Helvetica,sans-Serif" font-size="11.00" fill="#000000">&lt; 2</text>
<polygon fill="#ffffff" stroke="transparent" points="435,-119.7 435,-138.7 499,-138.7 499,-119.7 435,-119.7"/>
<polygon fill="none" stroke="#000000" points="435,-119.7 435,-138.7 499,-138.7 499,-119.7 435,-119.7"/>
<text text-anchor="start" x="451.3807" y="-125.8" font-family="Helvetica,sans-Serif" font-size="11.00" fill="#000000">493 rows</text>
<polygon fill="#ffffff" stroke="transparent" points="499,-119.7 499,-138.7 525,-138.7 525,-119.7 499,-119.7"/>
<polygon fill="none" stroke="#000000" points="499,-119.7 499,-138.7 525,-138.7 525,-119.7 499,-119.7"/>
<text text-anchor="start" x="515.8862" y="-125.8" font-family="Helvetica,sans-Serif" font-size="11.00" fill="#000000"> &#160;</text>
</a>
</g>
</g>
<!-- plan -->
<g id="node2" class="node">
<title>plan</title>
<g id="a_node2"><a xlink:href="../../tables/plan.html" xlink:title="plan" target="_top">
<polygon fill="#ffffff" stroke="transparent" points="155,-79.2 155,-184.2 338,-184.2 338,-79.2 155,-79.2"/>
<polygon fill="#f5f5f5" stroke="transparent" points="155.5,-160.7 155.5,-183.7 338.5,-183.7 338.5,-160.7 155.5,-160.7"/>
<polygon fill="none" stroke="#000000" points="155.5,-160.7 155.5,-183.7 338.5,-183.7 338.5,-160.7 155.5,-160.7"/>
<text text-anchor="start" x="160.5" y="-169.8" font-family="Helvetica,sans-Serif" font-weight="bold" font-size="11.00" fill="#000000">plan</text>
<text text-anchor="start" x="303.5437" y="-168.8" font-family="Helvetica,sans-Serif" font-size="11.00" fill="#000000">[table]</text>
<polygon fill="none" stroke="#000000" points="155.5,-138.7 155.5,-160.7 338.5,-160.7 338.5,-138.7 155.5,-138.7"/>
<image xlink:href="../../images/primaryKeys.png" width="11px" height="12px" preserveAspectRatio="xMinYMin meet" x="160.5" y="-155.7"/>
<text text-anchor="start" x="175.5" y="-145.8" font-family="Helvetica,sans-Serif" font-size="11.00" fill="#000000">id</text>
<polygon fill="#ffffff" stroke="transparent" points="155.5,-116.7 155.5,-138.7 338.5,-138.7 338.5,-116.7 155.5,-116.7"/>
<polygon fill="none" stroke="#000000" points="155.5,-116.7 155.5,-138.7 338.5,-138.7 338.5,-116.7 155.5,-116.7"/>
<image xlink:href="../../images/foreignKeys.png" width="11px" height="12px" preserveAspectRatio="xMinYMin meet" x="160.5" y="-133.7"/>
<text text-anchor="start" x="175.5" y="-123.8" font-family="Helvetica,sans-Serif" font-size="11.00" fill="#000000">policy</text>
<polygon fill="none" stroke="#000000" points="155.5,-97.7 155.5,-116.7 338.5,-116.7 338.5,-97.7 155.5,-97.7"/>
<text text-anchor="start" x="158.5" y="-103.8" font-family="Helvetica,sans-Serif" font-size="11.00" fill="#000000">...</text>
<polygon fill="#ffffff" stroke="transparent" points="155.5,-78.7 155.5,-97.7 221.5,-97.7 221.5,-78.7 155.5,-78.7"/>
<polygon fill="none" stroke="#000000" points="155.5,-78.7 155.5,-97.7 221.5,-97.7 221.5,-78.7 155.5,-78.7"/>
<text text-anchor="start" x="158.5" y="-84.8" font-family="Helvetica,sans-Serif" font-size="11.00" fill="#000000">&lt; 1</text>
<polygon fill="#ffffff" stroke="transparent" points="221.5,-78.7 221.5,-97.7 294.5,-97.7 294.5,-78.7 221.5,-78.7"/>
<polygon fill="none" stroke="#000000" points="221.5,-78.7 221.5,-97.7 294.5,-97.7 294.5,-78.7 221.5,-78.7"/>
<text text-anchor="start" x="246.8807" y="-84.8" font-family="Helvetica,sans-Serif" font-size="11.00" fill="#000000">493 rows</text>
<polygon fill="#ffffff" stroke="transparent" points="294.5,-78.7 294.5,-97.7 338.5,-97.7 338.5,-78.7 294.5,-78.7"/>
<polygon fill="none" stroke="#000000" points="294.5,-78.7 294.5,-97.7 338.5,-97.7 338.5,-78.7 294.5,-78.7"/>
<text text-anchor="start" x="319.9053" y="-84.8" font-family="Helvetica,sans-Serif" font-size="11.00" fill="#000000">3 &gt;</text>
</a>
</g>
</g>
<!-- auth_entity_to_plan&#45;&gt;plan -->
<g id="edge1" class="edge">
<title>auth_entity_to_plan:w&#45;&gt;plan:e</title>
<path fill="none" stroke="#000000" d="M372.278,-148.0668C361.2863,-148.6442 354.1748,-149.7 338.5,-149.7"/>
<polygon fill="#000000" stroke="#000000" points="379.0025,-147.8993 387.0897,-151.2989 383.0012,-147.7997 387,-147.7 387,-147.7 387,-147.7 383.0012,-147.7997 386.9103,-144.1011 379.0025,-147.8993 379.0025,-147.8993"/>
<ellipse fill="none" stroke="#000000" cx="375.8035" cy="-147.9791" rx="3.2" ry="3.2"/>
</g>
<!-- policy -->
<g id="node6" class="node">
<title>policy</title>
<g id="a_node6"><a xlink:href="../../tables/policy.html" xlink:title="policy" target="_top">
<polygon fill="#ffffff" stroke="transparent" points="8,-200.2 8,-261.2 106,-261.2 106,-200.2 8,-200.2"/>
<polygon fill="#f5f5f5" stroke="transparent" points="8,-237.7 8,-260.7 106,-260.7 106,-237.7 8,-237.7"/>
<polygon fill="none" stroke="#000000" points="8,-237.7 8,-260.7 106,-260.7 106,-237.7 8,-237.7"/>
<text text-anchor="start" x="13" y="-246.8" font-family="Helvetica,sans-Serif" font-weight="bold" font-size="11.00" fill="#000000">policy</text>
<text text-anchor="start" x="71.0437" y="-245.8" font-family="Helvetica,sans-Serif" font-size="11.00" fill="#000000">[table]</text>
<polygon fill="none" stroke="#000000" points="8,-218.7 8,-237.7 106,-237.7 106,-218.7 8,-218.7"/>
<text text-anchor="start" x="11" y="-224.8" font-family="Helvetica,sans-Serif" font-size="11.00" fill="#000000">...</text>
<polygon fill="#ffffff" stroke="transparent" points="8,-199.7 8,-218.7 20,-218.7 20,-199.7 8,-199.7"/>
<polygon fill="none" stroke="#000000" points="8,-199.7 8,-218.7 20,-218.7 20,-199.7 8,-199.7"/>
<text text-anchor="start" x="10.9431" y="-205.8" font-family="Helvetica,sans-Serif" font-size="11.00" fill="#000000"> &#160;</text>
<polygon fill="#ffffff" stroke="transparent" points="20,-199.7 20,-218.7 85,-218.7 85,-199.7 20,-199.7"/>
<polygon fill="none" stroke="#000000" points="20,-199.7 20,-218.7 85,-218.7 85,-199.7 20,-199.7"/>
<text text-anchor="start" x="22.547" y="-205.8" font-family="Helvetica,sans-Serif" font-size="11.00" fill="#000000">40,812 rows</text>
<polygon fill="#ffffff" stroke="transparent" points="85,-199.7 85,-218.7 106,-218.7 106,-199.7 85,-199.7"/>
<polygon fill="none" stroke="#000000" points="85,-199.7 85,-218.7 106,-218.7 106,-199.7 85,-199.7"/>
<text text-anchor="start" x="87.7027" y="-205.8" font-family="Helvetica,sans-Serif" font-size="11.00" fill="#000000">8 &gt;</text>
</a>
</g>
</g>
<!-- plan&#45;&gt;policy -->
<g id="edge7" class="edge">
<title>plan:w&#45;&gt;policy:e</title>
<path fill="none" stroke="#000000" d="M141.499,-131.744C116.4854,-150.4524 149.5862,-227.7 106,-227.7"/>
<polygon fill="#000000" stroke="#000000" points="147.8142,-129.92 156.499,-131.1586 151.6571,-128.81 155.5,-127.7 155.5,-127.7 155.5,-127.7 151.6571,-128.81 154.501,-124.2414 147.8142,-129.92 147.8142,-129.92"/>
<ellipse fill="none" stroke="#000000" cx="144.7398" cy="-130.808" rx="3.2" ry="3.2"/>
</g>
<!-- file_to_plan -->
<g id="node3" class="node">
<title>file_to_plan</title>
<g id="a_node3"><a xlink:href="../../tables/file_to_plan.html" xlink:title="file_to_plan" target="_top">
<polygon fill="#ffffff" stroke="transparent" points="389.5,-202.7 389.5,-292.7 522.5,-292.7 522.5,-202.7 389.5,-202.7"/>
<polygon fill="#f5f5f5" stroke="transparent" points="392,-267.7 392,-290.7 521,-290.7 521,-267.7 392,-267.7"/>
<polygon fill="none" stroke="#000000" points="392,-267.7 392,-290.7 521,-290.7 521,-267.7 392,-267.7"/>
<text text-anchor="start" x="397" y="-276.8" font-family="Helvetica,sans-Serif" font-weight="bold" font-size="11.00" fill="#000000">file_to_plan</text>
<text text-anchor="start" x="486.0437" y="-275.8" font-family="Helvetica,sans-Serif" font-size="11.00" fill="#000000">[table]</text>
<polygon fill="none" stroke="#000000" points="392,-245.7 392,-267.7 479,-267.7 479,-245.7 392,-245.7"/>
<image xlink:href="../../images/primaryKeys.png" width="11px" height="12px" preserveAspectRatio="xMinYMin meet" x="397" y="-262.7"/>
<text text-anchor="start" x="412" y="-252.8" font-family="Helvetica,sans-Serif" font-size="11.00" fill="#000000">file</text>
<polygon fill="none" stroke="#000000" points="479,-245.7 479,-267.7 521,-267.7 521,-245.7 479,-245.7"/>
<text text-anchor="start" x="481.9644" y="-253.4" font-family="Helvetica,sans-Serif" font-size="11.00" fill="#000000">int4[10]</text>
<polygon fill="none" stroke="#000000" points="392,-223.7 392,-245.7 479,-245.7 479,-223.7 392,-223.7"/>
<image xlink:href="../../images/primaryKeys.png" width="11px" height="12px" preserveAspectRatio="xMinYMin meet" x="397" y="-240.7"/>
<text text-anchor="start" x="412" y="-230.8" font-family="Helvetica,sans-Serif" font-size="11.00" fill="#000000">plan</text>
<polygon fill="none" stroke="#000000" points="479,-223.7 479,-245.7 521,-245.7 521,-223.7 479,-223.7"/>
<text text-anchor="start" x="481.9644" y="-231.4" font-family="Helvetica,sans-Serif" font-size="11.00" fill="#000000">int4[10]</text>
<polygon fill="#ffffff" stroke="transparent" points="392,-204.7 392,-223.7 421,-223.7 421,-204.7 392,-204.7"/>
<polygon fill="none" stroke="#000000" points="392,-204.7 392,-223.7 421,-223.7 421,-204.7 392,-204.7"/>
<text text-anchor="start" x="395" y="-210.8" font-family="Helvetica,sans-Serif" font-size="11.00" fill="#000000">&lt; 2</text>
<polygon fill="#ffffff" stroke="transparent" points="421,-204.7 421,-223.7 479,-223.7 479,-204.7 421,-204.7"/>
<polygon fill="none" stroke="#000000" points="421,-204.7 421,-223.7 479,-223.7 479,-204.7 421,-204.7"/>
<text text-anchor="start" x="431.3807" y="-210.8" font-family="Helvetica,sans-Serif" font-size="11.00" fill="#000000">567 rows</text>
<polygon fill="#ffffff" stroke="transparent" points="479,-204.7 479,-223.7 521,-223.7 521,-204.7 479,-204.7"/>
<polygon fill="none" stroke="#000000" points="479,-204.7 479,-223.7 521,-223.7 521,-204.7 479,-204.7"/>
<text text-anchor="start" x="502.4053" y="-210.8" font-family="Helvetica,sans-Serif" font-size="11.00" fill="#000000">0 &gt;</text>
<polygon fill="none" stroke="#000000" stroke-width="2" points="390.5,-203.7 390.5,-291.7 521.5,-291.7 521.5,-203.7 390.5,-203.7"/>
</a>
</g>
</g>
<!-- file_to_plan&#45;&gt;plan -->
<g id="edge3" class="edge">
<title>file_to_plan:w&#45;&gt;plan:e</title>
<path fill="none" stroke="#000000" d="M378.0931,-230.6003C355.4466,-213.6212 377.2094,-149.7 338.5,-149.7"/>
<polygon fill="#000000" stroke="#000000" points="384.3265,-232.4378 390.982,-238.1531 388.1632,-233.5689 392,-234.7 392,-234.7 392,-234.7 388.1632,-233.5689 393.018,-231.2469 384.3265,-232.4378 384.3265,-232.4378"/>
<ellipse fill="none" stroke="#000000" cx="381.2571" cy="-231.533" rx="3.2" ry="3.2"/>
</g>
<!-- file -->
<g id="node4" class="node">
<title>file</title>
<g id="a_node4"><a xlink:href="../../tables/file.html" xlink:title="file" target="_top">
<polygon fill="#ffffff" stroke="transparent" points="179.5,-214.2 179.5,-297.2 313.5,-297.2 313.5,-214.2 179.5,-214.2"/>
<polygon fill="#f5f5f5" stroke="transparent" points="179.5,-273.7 179.5,-296.7 313.5,-296.7 313.5,-273.7 179.5,-273.7"/>
<polygon fill="none" stroke="#000000" points="179.5,-273.7 179.5,-296.7 313.5,-296.7 313.5,-273.7 179.5,-273.7"/>
<text text-anchor="start" x="184.5" y="-282.8" font-family="Helvetica,sans-Serif" font-weight="bold" font-size="11.00" fill="#000000">file</text>
<text text-anchor="start" x="278.5437" y="-281.8" font-family="Helvetica,sans-Serif" font-size="11.00" fill="#000000">[table]</text>
<polygon fill="none" stroke="#000000" points="179.5,-251.7 179.5,-273.7 313.5,-273.7 313.5,-251.7 179.5,-251.7"/>
<image xlink:href="../../images/primaryKeys.png" width="11px" height="12px" preserveAspectRatio="xMinYMin meet" x="184.5" y="-268.7"/>
<text text-anchor="start" x="199.5" y="-258.8" font-family="Helvetica,sans-Serif" font-size="11.00" fill="#000000">id</text>
<polygon fill="none" stroke="#000000" points="179.5,-232.7 179.5,-251.7 313.5,-251.7 313.5,-232.7 179.5,-232.7"/>
<text text-anchor="start" x="182.5" y="-238.8" font-family="Helvetica,sans-Serif" font-size="11.00" fill="#000000">...</text>
<polygon fill="#ffffff" stroke="transparent" points="179.5,-213.7 179.5,-232.7 209.5,-232.7 209.5,-213.7 179.5,-213.7"/>
<polygon fill="none" stroke="#000000" points="179.5,-213.7 179.5,-232.7 209.5,-232.7 209.5,-213.7 179.5,-213.7"/>
<text text-anchor="start" x="182.5" y="-219.8" font-family="Helvetica,sans-Serif" font-size="11.00" fill="#000000"> &#160;</text>
<polygon fill="#ffffff" stroke="transparent" points="209.5,-213.7 209.5,-232.7 283.5,-232.7 283.5,-213.7 209.5,-213.7"/>
<polygon fill="none" stroke="#000000" points="209.5,-213.7 209.5,-232.7 283.5,-232.7 283.5,-213.7 209.5,-213.7"/>
<text text-anchor="start" x="220.594" y="-219.8" font-family="Helvetica,sans-Serif" font-size="11.00" fill="#000000">19,094 rows</text>
<polygon fill="#ffffff" stroke="transparent" points="283.5,-213.7 283.5,-232.7 313.5,-232.7 313.5,-213.7 283.5,-213.7"/>
<polygon fill="none" stroke="#000000" points="283.5,-213.7 283.5,-232.7 313.5,-232.7 313.5,-213.7 283.5,-213.7"/>
<text text-anchor="start" x="294.9053" y="-219.8" font-family="Helvetica,sans-Serif" font-size="11.00" fill="#000000">2 &gt;</text>
</a>
</g>
</g>
<!-- file_to_plan&#45;&gt;file -->
<g id="edge2" class="edge">
<title>file_to_plan:w&#45;&gt;file:e</title>
<path fill="none" stroke="#000000" d="M377.335,-257.0937C353.701,-258.4285 343.0234,-262.7 313.5,-262.7"/>
<polygon fill="#000000" stroke="#000000" points="384.0029,-256.9147 392.0966,-260.2987 388.0014,-256.8074 392,-256.7 392,-256.7 392,-256.7 388.0014,-256.8074 391.9034,-253.1013 384.0029,-256.9147 384.0029,-256.9147"/>
<ellipse fill="none" stroke="#000000" cx="380.804" cy="-257.0006" rx="3.2" ry="3.2"/>
</g>
<!-- file_to_policy -->
<g id="node5" class="node">
<title>file_to_policy</title>
<g id="a_node5"><a xlink:href="../../tables/file_to_policy.html" xlink:title="file_to_policy" target="_top">
<polygon fill="#ffffff" stroke="transparent" points="403,-314.2 403,-375.2 509,-375.2 509,-314.2 403,-314.2"/>
<polygon fill="#f5f5f5" stroke="transparent" points="403,-351.7 403,-374.7 509,-374.7 509,-351.7 403,-351.7"/>
<polygon fill="none" stroke="#000000" points="403,-351.7 403,-374.7 509,-374.7 509,-351.7 403,-351.7"/>
<text text-anchor="start" x="407.7166" y="-360.8" font-family="Helvetica,sans-Serif" font-weight="bold" font-size="11.00" fill="#000000">file_to_policy</text>
<text text-anchor="start" x="474.5219" y="-359.8" font-family="Helvetica,sans-Serif" font-size="11.00" fill="#000000">[table]</text>
<polygon fill="none" stroke="#000000" points="403,-332.7 403,-351.7 509,-351.7 509,-332.7 403,-332.7"/>
<text text-anchor="start" x="406" y="-338.8" font-family="Helvetica,sans-Serif" font-size="11.00" fill="#000000">...</text>
<polygon fill="#ffffff" stroke="transparent" points="403,-313.7 403,-332.7 428,-332.7 428,-313.7 403,-313.7"/>
<polygon fill="none" stroke="#000000" points="403,-313.7 403,-332.7 428,-332.7 428,-313.7 403,-313.7"/>
<text text-anchor="start" x="406" y="-319.8" font-family="Helvetica,sans-Serif" font-size="11.00" fill="#000000">&lt; 2</text>
<polygon fill="#ffffff" stroke="transparent" points="428,-313.7 428,-332.7 495,-332.7 495,-313.7 428,-313.7"/>
<polygon fill="none" stroke="#000000" points="428,-313.7 428,-332.7 495,-332.7 495,-313.7 428,-313.7"/>
<text text-anchor="start" x="432.094" y="-319.8" font-family="Helvetica,sans-Serif" font-size="11.00" fill="#000000">41,342 rows</text>
<polygon fill="#ffffff" stroke="transparent" points="495,-313.7 495,-332.7 509,-332.7 509,-313.7 495,-313.7"/>
<polygon fill="none" stroke="#000000" points="495,-313.7 495,-332.7 509,-332.7 509,-313.7 495,-313.7"/>
<text text-anchor="start" x="499.8862" y="-319.8" font-family="Helvetica,sans-Serif" font-size="11.00" fill="#000000"> &#160;</text>
</a>
</g>
</g>
<!-- file_to_policy&#45;&gt;file -->
<g id="edge4" class="edge">
<title>file_to_policy:w&#45;&gt;file:e</title>
<path fill="none" stroke="#000000" d="M388.3739,-339.2491C352.6724,-325.9147 360.9613,-262.7 313.5,-262.7"/>
<polygon fill="#000000" stroke="#000000" points="395.11,-340.3778 402.405,-345.2505 399.055,-341.0389 403,-341.7 403,-341.7 403,-341.7 399.055,-341.0389 403.595,-338.1495 395.11,-340.3778 395.11,-340.3778"/>
<ellipse fill="none" stroke="#000000" cx="391.954" cy="-339.8489" rx="3.2" ry="3.2"/>
</g>
<!-- file_to_policy&#45;&gt;policy -->
<g id="edge5" class="edge">
<title>file_to_policy:w&#45;&gt;policy:e</title>
<path fill="none" stroke="#000000" d="M388.5684,-341.8679C284.0598,-344.2843 236.7426,-371.0419 147,-307.7 114.3586,-284.6612 145.9531,-227.7 106,-227.7"/>
<polygon fill="#000000" stroke="#000000" points="395.0005,-341.7931 403.0419,-345.2998 399.0003,-341.7466 403,-341.7 403,-341.7 403,-341.7 399.0003,-341.7466 402.9581,-338.1002 395.0005,-341.7931 395.0005,-341.7931"/>
<ellipse fill="none" stroke="#000000" cx="391.8008" cy="-341.8304" rx="3.2" ry="3.2"/>
</g>
<!-- place_to_plan -->
<g id="node7" class="node">
<title>place_to_plan</title>
<g id="a_node7"><a xlink:href="../../tables/place_to_plan.html" xlink:title="place_to_plan" target="_top">
<polygon fill="#ffffff" stroke="transparent" points="400.5,-38.2 400.5,-99.2 511.5,-99.2 511.5,-38.2 400.5,-38.2"/>
<polygon fill="#f5f5f5" stroke="transparent" points="401,-75.7 401,-98.7 512,-98.7 512,-75.7 401,-75.7"/>
<polygon fill="none" stroke="#000000" points="401,-75.7 401,-98.7 512,-98.7 512,-75.7 401,-75.7"/>
<text text-anchor="start" x="405.7636" y="-84.8" font-family="Helvetica,sans-Serif" font-weight="bold" font-size="11.00" fill="#000000">place_to_plan</text>
<text text-anchor="start" x="477.5219" y="-83.8" font-family="Helvetica,sans-Serif" font-size="11.00" fill="#000000">[table]</text>
<polygon fill="none" stroke="#000000" points="401,-56.7 401,-75.7 512,-75.7 512,-56.7 401,-56.7"/>
<text text-anchor="start" x="404" y="-62.8" font-family="Helvetica,sans-Serif" font-size="11.00" fill="#000000">...</text>
<polygon fill="#ffffff" stroke="transparent" points="401,-37.7 401,-56.7 436,-56.7 436,-37.7 401,-37.7"/>
<polygon fill="none" stroke="#000000" points="401,-37.7 401,-56.7 436,-56.7 436,-37.7 401,-37.7"/>
<text text-anchor="start" x="404" y="-43.8" font-family="Helvetica,sans-Serif" font-size="11.00" fill="#000000">&lt; 2</text>
<polygon fill="#ffffff" stroke="transparent" points="436,-37.7 436,-56.7 493,-56.7 493,-37.7 436,-37.7"/>
<polygon fill="none" stroke="#000000" points="436,-37.7 436,-56.7 493,-56.7 493,-37.7 436,-37.7"/>
<text text-anchor="start" x="445.3807" y="-43.8" font-family="Helvetica,sans-Serif" font-size="11.00" fill="#000000">493 rows</text>
<polygon fill="#ffffff" stroke="transparent" points="493,-37.7 493,-56.7 512,-56.7 512,-37.7 493,-37.7"/>
<polygon fill="none" stroke="#000000" points="493,-37.7 493,-56.7 512,-56.7 512,-37.7 493,-37.7"/>
<text text-anchor="start" x="502.8862" y="-43.8" font-family="Helvetica,sans-Serif" font-size="11.00" fill="#000000"> &#160;</text>
</a>
</g>
</g>
<!-- place_to_plan&#45;&gt;plan -->
<g id="edge6" class="edge">
<title>place_to_plan:w&#45;&gt;plan:e</title>
<path fill="none" stroke="#000000" d="M386.8628,-69.3094C360.9035,-85.3875 379.217,-149.7 338.5,-149.7"/>
<polygon fill="#000000" stroke="#000000" points="393.2486,-67.679 401.8906,-69.1881 397.1243,-66.6895 401,-65.7 401,-65.7 401,-65.7 397.1243,-66.6895 400.1094,-62.2119 393.2486,-67.679 393.2486,-67.679"/>
<ellipse fill="none" stroke="#000000" cx="390.1481" cy="-68.4707" rx="3.2" ry="3.2"/>
</g>
</g>
</svg>
