<?xml version="1.0" encoding="UTF-8" standalone="no"?>
<!DOCTYPE svg PUBLIC "-//W3C//DTD SVG 1.1//EN"
 "http://www.w3.org/Graphics/SVG/1.1/DTD/svg11.dtd">
<!-- Generated by graphviz version 2.40.1 (20161225.0304)
 -->
<!-- Title: oneDegreeRelationshipsDiagram Pages: 1 -->
<svg width="407pt" height="301pt"
 viewBox="0.00 0.00 407.00 301.20" xmlns="http://www.w3.org/2000/svg" xmlns:xlink="http://www.w3.org/1999/xlink">
<g id="graph0" class="graph" transform="scale(1 1) rotate(0) translate(4 297.2)">
<title>oneDegreeRelationshipsDiagram</title>
<polygon fill="#ffffff" stroke="transparent" points="-4,4 -4,-297.2 403,-297.2 403,4 -4,4"/>
<text text-anchor="middle" x="72.4936" y="-7.3" font-family="Helvetica,sans-Serif" font-size="11.00" fill="#000000">Generated by SchemaSpy</text>
<!-- file_to_plan -->
<g id="node1" class="node">
<title>file_to_plan</title>
<g id="a_node1"><a xlink:href="../../tables/file_to_plan.html" xlink:title="file_to_plan" target="_top">
<polygon fill="#ffffff" stroke="transparent" points="288.5,-203.2 288.5,-289.2 387.5,-289.2 387.5,-203.2 288.5,-203.2"/>
<polygon fill="#f5f5f5" stroke="transparent" points="289,-266.2 289,-289.2 388,-289.2 388,-266.2 289,-266.2"/>
<polygon fill="none" stroke="#000000" points="289,-266.2 289,-289.2 388,-289.2 388,-266.2 289,-266.2"/>
<text text-anchor="start" x="293.8796" y="-275.3" font-family="Helvetica,sans-Serif" font-weight="bold" font-size="11.00" fill="#000000">file_to_plan</text>
<text text-anchor="start" x="353.5219" y="-274.3" font-family="Helvetica,sans-Serif" font-size="11.00" fill="#000000">[table]</text>
<polygon fill="none" stroke="#000000" points="289,-244.2 289,-266.2 388,-266.2 388,-244.2 289,-244.2"/>
<image xlink:href="../../images/primaryKeys.png" width="11px" height="12px" preserveAspectRatio="xMinYMin meet" x="294" y="-261.2"/>
<text text-anchor="start" x="315" y="-251.3" font-family="Helvetica,sans-Serif" font-size="11.00" fill="#000000">file</text>
<polygon fill="none" stroke="#000000" points="289,-222.2 289,-244.2 388,-244.2 388,-222.2 289,-222.2"/>
<image xlink:href="../../images/primaryKeys.png" width="11px" height="12px" preserveAspectRatio="xMinYMin meet" x="294" y="-239.2"/>
<text text-anchor="start" x="315" y="-229.3" font-family="Helvetica,sans-Serif" font-size="11.00" fill="#000000">plan</text>
<polygon fill="#ffffff" stroke="transparent" points="289,-203.2 289,-222.2 318,-222.2 318,-203.2 289,-203.2"/>
<polygon fill="none" stroke="#000000" points="289,-203.2 289,-222.2 318,-222.2 318,-203.2 289,-203.2"/>
<text text-anchor="start" x="292" y="-209.3" font-family="Helvetica,sans-Serif" font-size="11.00" fill="#000000">&lt; 2</text>
<polygon fill="#ffffff" stroke="transparent" points="318,-203.2 318,-222.2 372,-222.2 372,-203.2 318,-203.2"/>
<polygon fill="none" stroke="#000000" points="318,-203.2 318,-222.2 372,-222.2 372,-203.2 318,-203.2"/>
<text text-anchor="start" x="324.3807" y="-209.3" font-family="Helvetica,sans-Serif" font-size="11.00" fill="#000000">567 rows</text>
<polygon fill="#ffffff" stroke="transparent" points="372,-203.2 372,-222.2 388,-222.2 388,-203.2 372,-203.2"/>
<polygon fill="none" stroke="#000000" points="372,-203.2 372,-222.2 388,-222.2 388,-203.2 372,-203.2"/>
<text text-anchor="start" x="378.8862" y="-209.3" font-family="Helvetica,sans-Serif" font-size="11.00" fill="#000000"> &#160;</text>
</a>
</g>
</g>
<!-- file -->
<g id="node2" class="node">
<title>file</title>
<g id="a_node2"><a xlink:href="../../tables/file.html" xlink:title="file" target="_top">
<polygon fill="#ffffff" stroke="transparent" points="8,-38.2 8,-238.2 236,-238.2 236,-38.2 8,-38.2"/>
<polygon fill="#f5f5f5" stroke="transparent" points="10,-213.2 10,-236.2 234,-236.2 234,-213.2 10,-213.2"/>
<polygon fill="none" stroke="#000000" points="10,-213.2 10,-236.2 234,-236.2 234,-213.2 10,-213.2"/>
<text text-anchor="start" x="15" y="-222.3" font-family="Helvetica,sans-Serif" font-weight="bold" font-size="11.00" fill="#000000">file</text>
<text text-anchor="start" x="199.0437" y="-221.3" font-family="Helvetica,sans-Serif" font-size="11.00" fill="#000000">[table]</text>
<polygon fill="none" stroke="#000000" points="10,-191.2 10,-213.2 144,-213.2 144,-191.2 10,-191.2"/>
<image xlink:href="../../images/primaryKeys.png" width="11px" height="12px" preserveAspectRatio="xMinYMin meet" x="15" y="-208.2"/>
<text text-anchor="start" x="30" y="-198.3" font-family="Helvetica,sans-Serif" font-size="11.00" fill="#000000">id</text>
<polygon fill="none" stroke="#000000" points="144,-191.2 144,-213.2 234,-213.2 234,-191.2 144,-191.2"/>
<text text-anchor="start" x="147" y="-198.9" font-family="Helvetica,sans-Serif" font-size="11.00" fill="#000000">serial[10]</text>
<polygon fill="none" stroke="#000000" points="10,-169.2 10,-191.2 144,-191.2 144,-169.2 10,-169.2"/>
<text text-anchor="start" x="30" y="-176.3" font-family="Helvetica,sans-Serif" font-size="11.00" fill="#000000">name</text>
<polygon fill="none" stroke="#000000" points="144,-169.2 144,-191.2 234,-191.2 234,-169.2 144,-169.2"/>
<text text-anchor="start" x="146.5042" y="-176.9" font-family="Helvetica,sans-Serif" font-size="11.00" fill="#000000">text[2147483647]</text>
<polygon fill="none" stroke="#000000" points="10,-147.2 10,-169.2 144,-169.2 144,-147.2 10,-147.2"/>
<text text-anchor="start" x="30" y="-154.3" font-family="Helvetica,sans-Serif" font-size="11.00" fill="#000000">type</text>
<polygon fill="none" stroke="#000000" points="144,-147.2 144,-169.2 234,-169.2 234,-147.2 144,-147.2"/>
<text text-anchor="start" x="146.5042" y="-154.9" font-family="Helvetica,sans-Serif" font-size="11.00" fill="#000000">text[2147483647]</text>
<polygon fill="none" stroke="#000000" points="10,-125.2 10,-147.2 144,-147.2 144,-125.2 10,-125.2"/>
<text text-anchor="start" x="30" y="-132.3" font-family="Helvetica,sans-Serif" font-size="11.00" fill="#000000">data_source</text>
<polygon fill="none" stroke="#000000" points="144,-125.2 144,-147.2 234,-147.2 234,-125.2 144,-125.2"/>
<text text-anchor="start" x="146.5042" y="-132.9" font-family="Helvetica,sans-Serif" font-size="11.00" fill="#000000">text[2147483647]</text>
<polygon fill="none" stroke="#000000" points="10,-103.2 10,-125.2 144,-125.2 144,-103.2 10,-103.2"/>
<text text-anchor="start" x="30" y="-110.3" font-family="Helvetica,sans-Serif" font-size="11.00" fill="#000000">permalink</text>
<polygon fill="none" stroke="#000000" points="144,-103.2 144,-125.2 234,-125.2 234,-103.2 144,-103.2"/>
<text text-anchor="start" x="146.5042" y="-110.9" font-family="Helvetica,sans-Serif" font-size="11.00" fill="#000000">text[2147483647]</text>
<polygon fill="none" stroke="#000000" points="10,-81.2 10,-103.2 144,-103.2 144,-81.2 10,-81.2"/>
<text text-anchor="start" x="30" y="-88.3" font-family="Helvetica,sans-Serif" font-size="11.00" fill="#000000">filename</text>
<polygon fill="none" stroke="#000000" points="144,-81.2 144,-103.2 234,-103.2 234,-81.2 144,-81.2"/>
<text text-anchor="start" x="146.5042" y="-88.9" font-family="Helvetica,sans-Serif" font-size="11.00" fill="#000000">text[2147483647]</text>
<polygon fill="none" stroke="#000000" points="10,-59.2 10,-81.2 144,-81.2 144,-59.2 10,-59.2"/>
<text text-anchor="start" x="30" y="-66.3" font-family="Helvetica,sans-Serif" font-size="11.00" fill="#000000">airtable_attachment</text>
<polygon fill="none" stroke="#000000" points="144,-59.2 144,-81.2 234,-81.2 234,-59.2 144,-59.2"/>
<text text-anchor="start" x="147" y="-66.9" font-family="Helvetica,sans-Serif" font-size="11.00" fill="#000000">bool[1]</text>
<polygon fill="#ffffff" stroke="transparent" points="10,-40.2 10,-59.2 55,-59.2 55,-40.2 10,-40.2"/>
<polygon fill="none" stroke="#000000" points="10,-40.2 10,-59.2 55,-59.2 55,-40.2 10,-40.2"/>
<text text-anchor="start" x="13" y="-46.3" font-family="Helvetica,sans-Serif" font-size="11.00" fill="#000000">&lt; 0</text>
<polygon fill="#ffffff" stroke="transparent" points="55,-40.2 55,-59.2 144,-59.2 144,-40.2 55,-40.2"/>
<polygon fill="none" stroke="#000000" points="55,-40.2 55,-59.2 144,-59.2 144,-40.2 55,-40.2"/>
<text text-anchor="start" x="81.094" y="-46.3" font-family="Helvetica,sans-Serif" font-size="11.00" fill="#000000">19,094 rows</text>
<polygon fill="#ffffff" stroke="transparent" points="144,-40.2 144,-59.2 234,-59.2 234,-40.2 144,-40.2"/>
<polygon fill="none" stroke="#000000" points="144,-40.2 144,-59.2 234,-59.2 234,-40.2 144,-40.2"/>
<text text-anchor="start" x="215.4053" y="-46.3" font-family="Helvetica,sans-Serif" font-size="11.00" fill="#000000">2 &gt;</text>
<polygon fill="none" stroke="#000000" stroke-width="2" points="9,-39.2 9,-237.2 235,-237.2 235,-39.2 9,-39.2"/>
</a>
</g>
</g>
<!-- file_to_plan&#45;&gt;file -->
<g id="edge1" class="edge">
<title>file_to_plan:w&#45;&gt;file:e</title>
<path fill="none" stroke="#000000" d="M275.1716,-251.0412C258.1016,-238.5469 262.1123,-202.2 234,-202.2"/>
<polygon fill="#000000" stroke="#000000" points="281.339,-252.8959 287.9632,-258.6475 285.1695,-254.048 289,-255.2 289,-255.2 289,-255.2 285.1695,-254.048 290.0368,-251.7525 281.339,-252.8959 281.339,-252.8959"/>
<ellipse fill="none" stroke="#000000" cx="278.2745" cy="-251.9743" rx="3.2" ry="3.2"/>
</g>
<!-- file_to_policy -->
<g id="node3" class="node">
<title>file_to_policy</title>
<g id="a_node3"><a xlink:href="../../tables/file_to_policy.html" xlink:title="file_to_policy" target="_top">
<polygon fill="#ffffff" stroke="transparent" points="285,-96.2 285,-182.2 391,-182.2 391,-96.2 285,-96.2"/>
<polygon fill="#f5f5f5" stroke="transparent" points="285,-159.2 285,-182.2 391,-182.2 391,-159.2 285,-159.2"/>
<polygon fill="none" stroke="#000000" points="285,-159.2 285,-182.2 391,-182.2 391,-159.2 285,-159.2"/>
<text text-anchor="start" x="289.7166" y="-168.3" font-family="Helvetica,sans-Serif" font-weight="bold" font-size="11.00" fill="#000000">file_to_policy</text>
<text text-anchor="start" x="356.5219" y="-167.3" font-family="Helvetica,sans-Serif" font-size="11.00" fill="#000000">[table]</text>
<polygon fill="none" stroke="#000000" points="285,-137.2 285,-159.2 391,-159.2 391,-137.2 285,-137.2"/>
<image xlink:href="../../images/primaryKeys.png" width="11px" height="12px" preserveAspectRatio="xMinYMin meet" x="290" y="-154.2"/>
<text text-anchor="start" x="310" y="-144.3" font-family="Helvetica,sans-Serif" font-size="11.00" fill="#000000">file</text>
<polygon fill="none" stroke="#000000" points="285,-115.2 285,-137.2 391,-137.2 391,-115.2 285,-115.2"/>
<image xlink:href="../../images/primaryKeys.png" width="11px" height="12px" preserveAspectRatio="xMinYMin meet" x="290" y="-132.2"/>
<text text-anchor="start" x="310" y="-122.3" font-family="Helvetica,sans-Serif" font-size="11.00" fill="#000000">policy</text>
<polygon fill="#ffffff" stroke="transparent" points="285,-96.2 285,-115.2 310,-115.2 310,-96.2 285,-96.2"/>
<polygon fill="none" stroke="#000000" points="285,-96.2 285,-115.2 310,-115.2 310,-96.2 285,-96.2"/>
<text text-anchor="start" x="288" y="-102.3" font-family="Helvetica,sans-Serif" font-size="11.00" fill="#000000">&lt; 2</text>
<polygon fill="#ffffff" stroke="transparent" points="310,-96.2 310,-115.2 377,-115.2 377,-96.2 310,-96.2"/>
<polygon fill="none" stroke="#000000" points="310,-96.2 310,-115.2 377,-115.2 377,-96.2 310,-96.2"/>
<text text-anchor="start" x="314.094" y="-102.3" font-family="Helvetica,sans-Serif" font-size="11.00" fill="#000000">41,342 rows</text>
<polygon fill="#ffffff" stroke="transparent" points="377,-96.2 377,-115.2 391,-115.2 391,-96.2 377,-96.2"/>
<polygon fill="none" stroke="#000000" points="377,-96.2 377,-115.2 391,-115.2 391,-96.2 377,-96.2"/>
<text text-anchor="start" x="381.8862" y="-102.3" font-family="Helvetica,sans-Serif" font-size="11.00" fill="#000000"> &#160;</text>
</a>
</g>
</g>
<!-- file_to_policy&#45;&gt;file -->
<g id="edge2" class="edge">
<title>file_to_policy:w&#45;&gt;file:e</title>
<path fill="none" stroke="#000000" d="M271.3001,-152.804C255.8364,-165.8627 261.08,-202.2 234,-202.2"/>
<polygon fill="#000000" stroke="#000000" points="277.4168,-150.7485 286.1468,-151.6125 281.2084,-149.4742 285,-148.2 285,-148.2 285,-148.2 281.2084,-149.4742 283.8532,-144.7875 277.4168,-150.7485 277.4168,-150.7485"/>
<ellipse fill="none" stroke="#000000" cx="274.3835" cy="-151.7678" rx="3.2" ry="3.2"/>
</g>
</g>
</svg>
