<?xml version="1.0" encoding="UTF-8" standalone="no"?>
<!DOCTYPE svg PUBLIC "-//W3C//DTD SVG 1.1//EN"
 "http://www.w3.org/Graphics/SVG/1.1/DTD/svg11.dtd">
<!-- Generated by graphviz version 2.40.1 (20161225.0304)
 -->
<!-- Title: twoDegreesRelationshipsDiagram Pages: 1 -->
<svg width="554pt" height="399pt"
 viewBox="0.00 0.00 554.00 399.32" xmlns="http://www.w3.org/2000/svg" xmlns:xlink="http://www.w3.org/1999/xlink">
<g id="graph0" class="graph" transform="scale(1 1) rotate(0) translate(4 395.3165)">
<title>twoDegreesRelationshipsDiagram</title>
<polygon fill="#ffffff" stroke="transparent" points="-4,4 -4,-395.3165 550,-395.3165 550,4 -4,4"/>
<text text-anchor="middle" x="72.4936" y="-7.3" font-family="Helvetica,sans-Serif" font-size="11.00" fill="#000000">Generated by SchemaSpy</text>
<!-- file_to_plan -->
<g id="node1" class="node">
<title>file_to_plan</title>
<g id="a_node1"><a xlink:href="../../tables/file_to_plan.html" xlink:title="file_to_plan" target="_top">
<polygon fill="#ffffff" stroke="transparent" points="435.5,-91.7 435.5,-177.7 534.5,-177.7 534.5,-91.7 435.5,-91.7"/>
<polygon fill="#f5f5f5" stroke="transparent" points="436,-154.7 436,-177.7 535,-177.7 535,-154.7 436,-154.7"/>
<polygon fill="none" stroke="#000000" points="436,-154.7 436,-177.7 535,-177.7 535,-154.7 436,-154.7"/>
<text text-anchor="start" x="440.8796" y="-163.8" font-family="Helvetica,sans-Serif" font-weight="bold" font-size="11.00" fill="#000000">file_to_plan</text>
<text text-anchor="start" x="500.5219" y="-162.8" font-family="Helvetica,sans-Serif" font-size="11.00" fill="#000000">[table]</text>
<polygon fill="none" stroke="#000000" points="436,-132.7 436,-154.7 535,-154.7 535,-132.7 436,-132.7"/>
<image xlink:href="../../images/primaryKeys.png" width="11px" height="12px" preserveAspectRatio="xMinYMin meet" x="441" y="-149.7"/>
<text text-anchor="start" x="462" y="-139.8" font-family="Helvetica,sans-Serif" font-size="11.00" fill="#000000">file</text>
<polygon fill="none" stroke="#000000" points="436,-110.7 436,-132.7 535,-132.7 535,-110.7 436,-110.7"/>
<image xlink:href="../../images/primaryKeys.png" width="11px" height="12px" preserveAspectRatio="xMinYMin meet" x="441" y="-127.7"/>
<text text-anchor="start" x="462" y="-117.8" font-family="Helvetica,sans-Serif" font-size="11.00" fill="#000000">plan</text>
<polygon fill="#ffffff" stroke="transparent" points="436,-91.7 436,-110.7 465,-110.7 465,-91.7 436,-91.7"/>
<polygon fill="none" stroke="#000000" points="436,-91.7 436,-110.7 465,-110.7 465,-91.7 436,-91.7"/>
<text text-anchor="start" x="439" y="-97.8" font-family="Helvetica,sans-Serif" font-size="11.00" fill="#000000">&lt; 2</text>
<polygon fill="#ffffff" stroke="transparent" points="465,-91.7 465,-110.7 519,-110.7 519,-91.7 465,-91.7"/>
<polygon fill="none" stroke="#000000" points="465,-91.7 465,-110.7 519,-110.7 519,-91.7 465,-91.7"/>
<text text-anchor="start" x="471.3807" y="-97.8" font-family="Helvetica,sans-Serif" font-size="11.00" fill="#000000">567 rows</text>
<polygon fill="#ffffff" stroke="transparent" points="519,-91.7 519,-110.7 535,-110.7 535,-91.7 519,-91.7"/>
<polygon fill="none" stroke="#000000" points="519,-91.7 519,-110.7 535,-110.7 535,-91.7 519,-91.7"/>
<text text-anchor="start" x="525.8862" y="-97.8" font-family="Helvetica,sans-Serif" font-size="11.00" fill="#000000"> &#160;</text>
</a>
</g>
</g>
<!-- file -->
<g id="node2" class="node">
<title>file</title>
<g id="a_node2"><a xlink:href="../../tables/file.html" xlink:title="file" target="_top">
<polygon fill="#ffffff" stroke="transparent" points="155,-120.7 155,-342.7 383,-342.7 383,-120.7 155,-120.7"/>
<polygon fill="#f5f5f5" stroke="transparent" points="157,-317.7 157,-340.7 381,-340.7 381,-317.7 157,-317.7"/>
<polygon fill="none" stroke="#000000" points="157,-317.7 157,-340.7 381,-340.7 381,-317.7 157,-317.7"/>
<text text-anchor="start" x="162" y="-326.8" font-family="Helvetica,sans-Serif" font-weight="bold" font-size="11.00" fill="#000000">file</text>
<text text-anchor="start" x="346.0437" y="-325.8" font-family="Helvetica,sans-Serif" font-size="11.00" fill="#000000">[table]</text>
<polygon fill="none" stroke="#000000" points="157,-295.7 157,-317.7 291,-317.7 291,-295.7 157,-295.7"/>
<image xlink:href="../../images/primaryKeys.png" width="11px" height="12px" preserveAspectRatio="xMinYMin meet" x="162" y="-312.7"/>
<text text-anchor="start" x="177" y="-302.8" font-family="Helvetica,sans-Serif" font-size="11.00" fill="#000000">id</text>
<polygon fill="none" stroke="#000000" points="291,-295.7 291,-317.7 381,-317.7 381,-295.7 291,-295.7"/>
<text text-anchor="start" x="294" y="-303.4" font-family="Helvetica,sans-Serif" font-size="11.00" fill="#000000">serial[10]</text>
<polygon fill="none" stroke="#000000" points="157,-273.7 157,-295.7 291,-295.7 291,-273.7 157,-273.7"/>
<text text-anchor="start" x="177" y="-280.8" font-family="Helvetica,sans-Serif" font-size="11.00" fill="#000000">name</text>
<polygon fill="none" stroke="#000000" points="291,-273.7 291,-295.7 381,-295.7 381,-273.7 291,-273.7"/>
<text text-anchor="start" x="293.5043" y="-281.4" font-family="Helvetica,sans-Serif" font-size="11.00" fill="#000000">text[2147483647]</text>
<polygon fill="none" stroke="#000000" points="157,-251.7 157,-273.7 291,-273.7 291,-251.7 157,-251.7"/>
<text text-anchor="start" x="177" y="-258.8" font-family="Helvetica,sans-Serif" font-size="11.00" fill="#000000">type</text>
<polygon fill="none" stroke="#000000" points="291,-251.7 291,-273.7 381,-273.7 381,-251.7 291,-251.7"/>
<text text-anchor="start" x="293.5043" y="-259.4" font-family="Helvetica,sans-Serif" font-size="11.00" fill="#000000">text[2147483647]</text>
<polygon fill="none" stroke="#000000" points="157,-229.7 157,-251.7 291,-251.7 291,-229.7 157,-229.7"/>
<text text-anchor="start" x="177" y="-236.8" font-family="Helvetica,sans-Serif" font-size="11.00" fill="#000000">data_source</text>
<polygon fill="none" stroke="#000000" points="291,-229.7 291,-251.7 381,-251.7 381,-229.7 291,-229.7"/>
<text text-anchor="start" x="293.5043" y="-237.4" font-family="Helvetica,sans-Serif" font-size="11.00" fill="#000000">text[2147483647]</text>
<polygon fill="none" stroke="#000000" points="157,-207.7 157,-229.7 291,-229.7 291,-207.7 157,-207.7"/>
<text text-anchor="start" x="177" y="-214.8" font-family="Helvetica,sans-Serif" font-size="11.00" fill="#000000">permalink</text>
<polygon fill="none" stroke="#000000" points="291,-207.7 291,-229.7 381,-229.7 381,-207.7 291,-207.7"/>
<text text-anchor="start" x="293.5043" y="-215.4" font-family="Helvetica,sans-Serif" font-size="11.00" fill="#000000">text[2147483647]</text>
<polygon fill="none" stroke="#000000" points="157,-185.7 157,-207.7 291,-207.7 291,-185.7 157,-185.7"/>
<text text-anchor="start" x="177" y="-192.8" font-family="Helvetica,sans-Serif" font-size="11.00" fill="#000000">filename</text>
<polygon fill="none" stroke="#000000" points="291,-185.7 291,-207.7 381,-207.7 381,-185.7 291,-185.7"/>
<text text-anchor="start" x="293.5043" y="-193.4" font-family="Helvetica,sans-Serif" font-size="11.00" fill="#000000">text[2147483647]</text>
<polygon fill="none" stroke="#000000" points="157,-163.7 157,-185.7 291,-185.7 291,-163.7 157,-163.7"/>
<text text-anchor="start" x="177" y="-170.8" font-family="Helvetica,sans-Serif" font-size="11.00" fill="#000000">airtable_attachment</text>
<polygon fill="none" stroke="#000000" points="291,-163.7 291,-185.7 381,-185.7 381,-163.7 291,-163.7"/>
<text text-anchor="start" x="294" y="-171.4" font-family="Helvetica,sans-Serif" font-size="11.00" fill="#000000">bool[1]</text>
<polygon fill="none" stroke="#000000" points="157,-141.7 157,-163.7 291,-163.7 291,-141.7 157,-141.7"/>
<text text-anchor="start" x="177" y="-148.8" font-family="Helvetica,sans-Serif" font-size="11.00" fill="#000000">filename_backup</text>
<polygon fill="none" stroke="#000000" points="291,-141.7 291,-163.7 381,-163.7 381,-141.7 291,-141.7"/>
<text text-anchor="start" x="293.5043" y="-149.4" font-family="Helvetica,sans-Serif" font-size="11.00" fill="#000000">text[2147483647]</text>
<polygon fill="#ffffff" stroke="transparent" points="157,-122.7 157,-141.7 202,-141.7 202,-122.7 157,-122.7"/>
<polygon fill="none" stroke="#000000" points="157,-122.7 157,-141.7 202,-141.7 202,-122.7 157,-122.7"/>
<text text-anchor="start" x="160" y="-128.8" font-family="Helvetica,sans-Serif" font-size="11.00" fill="#000000">&lt; 0</text>
<polygon fill="#ffffff" stroke="transparent" points="202,-122.7 202,-141.7 291,-141.7 291,-122.7 202,-122.7"/>
<polygon fill="none" stroke="#000000" points="202,-122.7 202,-141.7 291,-141.7 291,-122.7 202,-122.7"/>
<text text-anchor="start" x="228.094" y="-128.8" font-family="Helvetica,sans-Serif" font-size="11.00" fill="#000000">18,820 rows</text>
<polygon fill="#ffffff" stroke="transparent" points="291,-122.7 291,-141.7 381,-141.7 381,-122.7 291,-122.7"/>
<polygon fill="none" stroke="#000000" points="291,-122.7 291,-141.7 381,-141.7 381,-122.7 291,-122.7"/>
<text text-anchor="start" x="362.4053" y="-128.8" font-family="Helvetica,sans-Serif" font-size="11.00" fill="#000000">2 &gt;</text>
<polygon fill="none" stroke="#000000" stroke-width="2" points="156,-121.7 156,-341.7 382,-341.7 382,-121.7 156,-121.7"/>
</a>
</g>
</g>
<!-- file_to_plan&#45;&gt;file -->
<g id="edge1" class="edge">
<title>file_to_plan:w&#45;&gt;file:e</title>
<path fill="none" stroke="#000000" d="M421.7153,-146.2603C373.1163,-166.9974 451.7828,-306.7 381,-306.7"/>
<polygon fill="#000000" stroke="#000000" points="428.1255,-145.1114 436.6351,-147.2435 432.0627,-144.4057 436,-143.7 436,-143.7 436,-143.7 432.0627,-144.4057 435.3649,-140.1565 428.1255,-145.1114 428.1255,-145.1114"/>
<ellipse fill="none" stroke="#000000" cx="424.9757" cy="-145.676" rx="3.2" ry="3.2"/>
</g>
<!-- plan -->
<g id="node3" class="node">
<title>plan</title>
<g id="a_node3"><a xlink:href="../../tables/plan.html" xlink:title="plan" target="_top">
<polygon fill="#ffffff" stroke="transparent" points="223,-38.2 223,-99.2 315,-99.2 315,-38.2 223,-38.2"/>
<polygon fill="#f5f5f5" stroke="transparent" points="223,-75.7 223,-98.7 315,-98.7 315,-75.7 223,-75.7"/>
<polygon fill="none" stroke="#000000" points="223,-75.7 223,-98.7 315,-98.7 315,-75.7 223,-75.7"/>
<text text-anchor="start" x="228" y="-84.8" font-family="Helvetica,sans-Serif" font-weight="bold" font-size="11.00" fill="#000000">plan</text>
<text text-anchor="start" x="280.0437" y="-83.8" font-family="Helvetica,sans-Serif" font-size="11.00" fill="#000000">[table]</text>
<polygon fill="none" stroke="#000000" points="223,-56.7 223,-75.7 315,-75.7 315,-56.7 223,-56.7"/>
<text text-anchor="start" x="226" y="-62.8" font-family="Helvetica,sans-Serif" font-size="11.00" fill="#000000">...</text>
<polygon fill="#ffffff" stroke="transparent" points="223,-37.7 223,-56.7 244,-56.7 244,-37.7 223,-37.7"/>
<polygon fill="none" stroke="#000000" points="223,-37.7 223,-56.7 244,-56.7 244,-37.7 223,-37.7"/>
<text text-anchor="start" x="225.7027" y="-43.8" font-family="Helvetica,sans-Serif" font-size="11.00" fill="#000000">&lt; 1</text>
<polygon fill="#ffffff" stroke="transparent" points="244,-37.7 244,-56.7 294,-56.7 294,-37.7 244,-37.7"/>
<polygon fill="none" stroke="#000000" points="244,-37.7 244,-56.7 294,-56.7 294,-37.7 244,-37.7"/>
<text text-anchor="start" x="246.6904" y="-43.8" font-family="Helvetica,sans-Serif" font-size="11.00" fill="#000000">493 rows</text>
<polygon fill="#ffffff" stroke="transparent" points="294,-37.7 294,-56.7 315,-56.7 315,-37.7 294,-37.7"/>
<polygon fill="none" stroke="#000000" points="294,-37.7 294,-56.7 315,-56.7 315,-37.7 294,-37.7"/>
<text text-anchor="start" x="296.7027" y="-43.8" font-family="Helvetica,sans-Serif" font-size="11.00" fill="#000000">3 &gt;</text>
</a>
</g>
</g>
<!-- file_to_plan&#45;&gt;plan -->
<g id="edge2" class="edge">
<title>file_to_plan:w&#45;&gt;plan:e</title>
<path fill="none" stroke="#000000" d="M421.6139,-120.4783C375.8668,-112.2888 369.0497,-65.7 315,-65.7"/>
<polygon fill="#000000" stroke="#000000" points="428.0287,-121.023 435.6953,-125.2871 432.0143,-121.3615 436,-121.7 436,-121.7 436,-121.7 432.0143,-121.3615 436.3047,-118.1129 428.0287,-121.023 428.0287,-121.023"/>
<ellipse fill="none" stroke="#000000" cx="424.8402" cy="-120.7522" rx="3.2" ry="3.2"/>
</g>
<!-- policy -->
<g id="node5" class="node">
<title>policy</title>
<g id="a_node5"><a xlink:href="../../tables/policy.html" xlink:title="policy" target="_top">
<polygon fill="#ffffff" stroke="transparent" points="8,-188.2 8,-249.2 106,-249.2 106,-188.2 8,-188.2"/>
<polygon fill="#f5f5f5" stroke="transparent" points="8,-225.7 8,-248.7 106,-248.7 106,-225.7 8,-225.7"/>
<polygon fill="none" stroke="#000000" points="8,-225.7 8,-248.7 106,-248.7 106,-225.7 8,-225.7"/>
<text text-anchor="start" x="13" y="-234.8" font-family="Helvetica,sans-Serif" font-weight="bold" font-size="11.00" fill="#000000">policy</text>
<text text-anchor="start" x="71.0437" y="-233.8" font-family="Helvetica,sans-Serif" font-size="11.00" fill="#000000">[table]</text>
<polygon fill="none" stroke="#000000" points="8,-206.7 8,-225.7 106,-225.7 106,-206.7 8,-206.7"/>
<text text-anchor="start" x="11" y="-212.8" font-family="Helvetica,sans-Serif" font-size="11.00" fill="#000000">...</text>
<polygon fill="#ffffff" stroke="transparent" points="8,-187.7 8,-206.7 20,-206.7 20,-187.7 8,-187.7"/>
<polygon fill="none" stroke="#000000" points="8,-187.7 8,-206.7 20,-206.7 20,-187.7 8,-187.7"/>
<text text-anchor="start" x="10.9431" y="-193.8" font-family="Helvetica,sans-Serif" font-size="11.00" fill="#000000"> &#160;</text>
<polygon fill="#ffffff" stroke="transparent" points="20,-187.7 20,-206.7 85,-206.7 85,-187.7 20,-187.7"/>
<polygon fill="none" stroke="#000000" points="20,-187.7 20,-206.7 85,-206.7 85,-187.7 20,-187.7"/>
<text text-anchor="start" x="22.547" y="-193.8" font-family="Helvetica,sans-Serif" font-size="11.00" fill="#000000">40,950 rows</text>
<polygon fill="#ffffff" stroke="transparent" points="85,-187.7 85,-206.7 106,-206.7 106,-187.7 85,-187.7"/>
<polygon fill="none" stroke="#000000" points="85,-187.7 85,-206.7 106,-206.7 106,-187.7 85,-187.7"/>
<text text-anchor="start" x="87.7027" y="-193.8" font-family="Helvetica,sans-Serif" font-size="11.00" fill="#000000">8 &gt;</text>
</a>
</g>
</g>
<!-- plan&#45;&gt;policy -->
<g id="edge5" class="edge">
<title>plan:w&#45;&gt;policy:e</title>
<path fill="none" stroke="#000000" d="M208.358,-66.5452C180.384,-70.1017 168.9408,-84.8738 147,-110.7 114.5639,-148.8802 156.0982,-215.7 106,-215.7"/>
<polygon fill="#000000" stroke="#000000" points="215.0133,-66.1611 223.2075,-69.294 219.0066,-65.9305 223,-65.7 223,-65.7 223,-65.7 219.0066,-65.9305 222.7925,-62.106 215.0133,-66.1611 215.0133,-66.1611"/>
<ellipse fill="none" stroke="#000000" cx="211.8186" cy="-66.3455" rx="3.2" ry="3.2"/>
</g>
<!-- file_to_policy -->
<g id="node4" class="node">
<title>file_to_policy</title>
<g id="a_node4"><a xlink:href="../../tables/file_to_policy.html" xlink:title="file_to_policy" target="_top">
<polygon fill="#ffffff" stroke="transparent" points="432,-295.7 432,-381.7 538,-381.7 538,-295.7 432,-295.7"/>
<polygon fill="#f5f5f5" stroke="transparent" points="432,-358.7 432,-381.7 538,-381.7 538,-358.7 432,-358.7"/>
<polygon fill="none" stroke="#000000" points="432,-358.7 432,-381.7 538,-381.7 538,-358.7 432,-358.7"/>
<text text-anchor="start" x="436.7166" y="-367.8" font-family="Helvetica,sans-Serif" font-weight="bold" font-size="11.00" fill="#000000">file_to_policy</text>
<text text-anchor="start" x="503.5219" y="-366.8" font-family="Helvetica,sans-Serif" font-size="11.00" fill="#000000">[table]</text>
<polygon fill="none" stroke="#000000" points="432,-336.7 432,-358.7 538,-358.7 538,-336.7 432,-336.7"/>
<image xlink:href="../../images/primaryKeys.png" width="11px" height="12px" preserveAspectRatio="xMinYMin meet" x="437" y="-353.7"/>
<text text-anchor="start" x="457" y="-343.8" font-family="Helvetica,sans-Serif" font-size="11.00" fill="#000000">file</text>
<polygon fill="none" stroke="#000000" points="432,-314.7 432,-336.7 538,-336.7 538,-314.7 432,-314.7"/>
<image xlink:href="../../images/primaryKeys.png" width="11px" height="12px" preserveAspectRatio="xMinYMin meet" x="437" y="-331.7"/>
<text text-anchor="start" x="457" y="-321.8" font-family="Helvetica,sans-Serif" font-size="11.00" fill="#000000">policy</text>
<polygon fill="#ffffff" stroke="transparent" points="432,-295.7 432,-314.7 457,-314.7 457,-295.7 432,-295.7"/>
<polygon fill="none" stroke="#000000" points="432,-295.7 432,-314.7 457,-314.7 457,-295.7 432,-295.7"/>
<text text-anchor="start" x="435" y="-301.8" font-family="Helvetica,sans-Serif" font-size="11.00" fill="#000000">&lt; 2</text>
<polygon fill="#ffffff" stroke="transparent" points="457,-295.7 457,-314.7 524,-314.7 524,-295.7 457,-295.7"/>
<polygon fill="none" stroke="#000000" points="457,-295.7 457,-314.7 524,-314.7 524,-295.7 457,-295.7"/>
<text text-anchor="start" x="461.094" y="-301.8" font-family="Helvetica,sans-Serif" font-size="11.00" fill="#000000">41,366 rows</text>
<polygon fill="#ffffff" stroke="transparent" points="524,-295.7 524,-314.7 538,-314.7 538,-295.7 524,-295.7"/>
<polygon fill="none" stroke="#000000" points="524,-295.7 524,-314.7 538,-314.7 538,-295.7 524,-295.7"/>
<text text-anchor="start" x="528.8862" y="-301.8" font-family="Helvetica,sans-Serif" font-size="11.00" fill="#000000"> &#160;</text>
</a>
</g>
</g>
<!-- file_to_policy&#45;&gt;file -->
<g id="edge3" class="edge">
<title>file_to_policy:w&#45;&gt;file:e</title>
<path fill="none" stroke="#000000" d="M418.1568,-343.3123C404.3325,-332.7354 404.1756,-306.7 381,-306.7"/>
<polygon fill="#000000" stroke="#000000" points="424.3739,-345.2828 430.9123,-351.1317 428.1869,-346.4914 432,-347.7 432,-347.7 432,-347.7 428.1869,-346.4914 433.0877,-344.2683 424.3739,-345.2828 424.3739,-345.2828"/>
<ellipse fill="none" stroke="#000000" cx="421.3235" cy="-344.3159" rx="3.2" ry="3.2"/>
</g>
<!-- file_to_policy&#45;&gt;policy -->
<g id="edge4" class="edge">
<title>file_to_policy:w&#45;&gt;policy:e</title>
<path fill="none" stroke="#000000" d="M418.0726,-329.9879C409.3052,-336.6023 406.1536,-349.0193 391,-353.7 287.3859,-385.7048 233.918,-418.5495 147,-353.7 95.7177,-315.4383 169.983,-215.7 106,-215.7"/>
<polygon fill="#000000" stroke="#000000" points="424.3542,-328.054 433.0593,-329.1406 428.1771,-326.877 432,-325.7 432,-325.7 432,-325.7 428.1771,-326.877 430.9407,-322.2594 424.3542,-328.054 424.3542,-328.054"/>
<ellipse fill="none" stroke="#000000" cx="421.2958" cy="-328.9956" rx="3.2" ry="3.2"/>
</g>
</g>
</svg>
