<?xml version="1.0" encoding="UTF-8" standalone="no"?>
<!DOCTYPE svg PUBLIC "-//W3C//DTD SVG 1.1//EN"
 "http://www.w3.org/Graphics/SVG/1.1/DTD/svg11.dtd">
<!-- Generated by graphviz version 2.40.1 (20161225.0304)
 -->
<!-- Title: oneDegreeRelationshipsDiagram Pages: 1 -->
<svg width="454pt" height="322pt"
 viewBox="0.00 0.00 454.00 321.70" xmlns="http://www.w3.org/2000/svg" xmlns:xlink="http://www.w3.org/1999/xlink">
<g id="graph0" class="graph" transform="scale(1 1) rotate(0) translate(4 317.7)">
<title>oneDegreeRelationshipsDiagram</title>
<polygon fill="#ffffff" stroke="transparent" points="-4,4 -4,-317.7 450,-317.7 450,4 -4,4"/>
<text text-anchor="middle" x="72.4936" y="-7.3" font-family="Helvetica,sans-Serif" font-size="11.00" fill="#000000">Generated by SchemaSpy</text>
<!-- max_min_policy_count -->
<g id="node1" class="node">
<title>max_min_policy_count</title>
<g id="a_node1"><a xlink:href="../../tables/max_min_policy_count.html" xlink:title="max_min_policy_count" target="_top">
<polygon fill="#ffffff" stroke="transparent" points="160,-87.7 160,-309.7 438,-309.7 438,-87.7 160,-87.7"/>
<polygon fill="#f5f5f5" stroke="transparent" points="162,-284.7 162,-307.7 436,-307.7 436,-284.7 162,-284.7"/>
<polygon fill="none" stroke="#000000" points="162,-284.7 162,-307.7 436,-307.7 436,-284.7 162,-284.7"/>
<text text-anchor="start" x="167" y="-293.8" font-family="Helvetica,sans-Serif" font-weight="bold" font-size="11.00" fill="#000000">max_min_policy_count</text>
<text text-anchor="start" x="401.0437" y="-292.8" font-family="Helvetica,sans-Serif" font-size="11.00" fill="#000000">[table]</text>
<polygon fill="none" stroke="#000000" points="162,-262.7 162,-284.7 315,-284.7 315,-262.7 162,-262.7"/>
<image xlink:href="../../images/primaryKeys.png" width="11px" height="12px" preserveAspectRatio="xMinYMin meet" x="167" y="-279.7"/>
<text text-anchor="start" x="182" y="-269.8" font-family="Helvetica,sans-Serif" font-size="11.00" fill="#000000">max_policy_count_id</text>
<polygon fill="none" stroke="#000000" points="315,-262.7 315,-284.7 436,-284.7 436,-262.7 315,-262.7"/>
<text text-anchor="start" x="318" y="-270.4" font-family="Helvetica,sans-Serif" font-size="11.00" fill="#000000">int4[10]</text>
<polygon fill="none" stroke="#000000" points="162,-240.7 162,-262.7 315,-262.7 315,-240.7 162,-240.7"/>
<text text-anchor="start" x="182" y="-247.8" font-family="Helvetica,sans-Serif" font-size="11.00" fill="#000000">map_type</text>
<polygon fill="none" stroke="#000000" points="315,-240.7 315,-262.7 436,-262.7 436,-240.7 315,-240.7"/>
<text text-anchor="start" x="317.722" y="-248.4" font-family="Helvetica,sans-Serif" font-size="11.00" fill="#000000">map_type[2147483647]</text>
<polygon fill="none" stroke="#000000" points="162,-218.7 162,-240.7 315,-240.7 315,-218.7 162,-218.7"/>
<text text-anchor="start" x="182" y="-225.8" font-family="Helvetica,sans-Serif" font-size="11.00" fill="#000000">max_value</text>
<polygon fill="none" stroke="#000000" points="315,-218.7 315,-240.7 436,-240.7 436,-218.7 315,-218.7"/>
<text text-anchor="start" x="318" y="-226.4" font-family="Helvetica,sans-Serif" font-size="11.00" fill="#000000">int4[10]</text>
<polygon fill="none" stroke="#000000" points="162,-196.7 162,-218.7 315,-218.7 315,-196.7 162,-196.7"/>
<text text-anchor="start" x="182" y="-203.8" font-family="Helvetica,sans-Serif" font-size="11.00" fill="#000000">max_date</text>
<polygon fill="none" stroke="#000000" points="315,-196.7 315,-218.7 436,-218.7 436,-196.7 315,-196.7"/>
<text text-anchor="start" x="318" y="-204.4" font-family="Helvetica,sans-Serif" font-size="11.00" fill="#000000">date[13]</text>
<polygon fill="none" stroke="#000000" points="162,-174.7 162,-196.7 315,-196.7 315,-174.7 162,-174.7"/>
<text text-anchor="start" x="182" y="-181.8" font-family="Helvetica,sans-Serif" font-size="11.00" fill="#000000">min_date</text>
<polygon fill="none" stroke="#000000" points="315,-174.7 315,-196.7 436,-196.7 436,-174.7 315,-174.7"/>
<text text-anchor="start" x="318" y="-182.4" font-family="Helvetica,sans-Serif" font-size="11.00" fill="#000000">date[13]</text>
<polygon fill="none" stroke="#000000" points="162,-152.7 162,-174.7 315,-174.7 315,-152.7 162,-152.7"/>
<image xlink:href="../../images/foreignKeys.png" width="11px" height="12px" preserveAspectRatio="xMinYMin meet" x="167" y="-169.7"/>
<text text-anchor="start" x="182" y="-159.8" font-family="Helvetica,sans-Serif" font-size="11.00" fill="#000000">fk_place_id_max</text>
<polygon fill="none" stroke="#000000" points="315,-152.7 315,-174.7 436,-174.7 436,-152.7 315,-152.7"/>
<text text-anchor="start" x="318" y="-160.4" font-family="Helvetica,sans-Serif" font-size="11.00" fill="#000000">int4[10]</text>
<polygon fill="none" stroke="#000000" points="162,-130.7 162,-152.7 315,-152.7 315,-130.7 162,-130.7"/>
<image xlink:href="../../images/foreignKeys.png" width="11px" height="12px" preserveAspectRatio="xMinYMin meet" x="167" y="-147.7"/>
<text text-anchor="start" x="182" y="-137.8" font-family="Helvetica,sans-Serif" font-size="11.00" fill="#000000">fk_place_id_min</text>
<polygon fill="none" stroke="#000000" points="315,-130.7 315,-152.7 436,-152.7 436,-130.7 315,-130.7"/>
<text text-anchor="start" x="318" y="-138.4" font-family="Helvetica,sans-Serif" font-size="11.00" fill="#000000">int4[10]</text>
<polygon fill="none" stroke="#000000" points="162,-108.7 162,-130.7 315,-130.7 315,-108.7 162,-108.7"/>
<text text-anchor="start" x="182" y="-115.8" font-family="Helvetica,sans-Serif" font-size="11.00" fill="#000000">min_value</text>
<polygon fill="none" stroke="#000000" points="315,-108.7 315,-130.7 436,-130.7 436,-108.7 315,-108.7"/>
<text text-anchor="start" x="318" y="-116.4" font-family="Helvetica,sans-Serif" font-size="11.00" fill="#000000">int4[10]</text>
<polygon fill="#ffffff" stroke="transparent" points="162,-89.7 162,-108.7 230,-108.7 230,-89.7 162,-89.7"/>
<polygon fill="none" stroke="#000000" points="162,-89.7 162,-108.7 230,-108.7 230,-89.7 162,-89.7"/>
<text text-anchor="start" x="165" y="-95.8" font-family="Helvetica,sans-Serif" font-size="11.00" fill="#000000">&lt; 2</text>
<polygon fill="#ffffff" stroke="transparent" points="230,-89.7 230,-108.7 315,-108.7 315,-89.7 230,-89.7"/>
<polygon fill="none" stroke="#000000" points="230,-89.7 230,-108.7 315,-108.7 315,-89.7 230,-89.7"/>
<text text-anchor="start" x="279.6105" y="-95.8" font-family="Helvetica,sans-Serif" font-size="11.00" fill="#000000">4 rows</text>
<polygon fill="#ffffff" stroke="transparent" points="315,-89.7 315,-108.7 436,-108.7 436,-89.7 315,-89.7"/>
<polygon fill="none" stroke="#000000" points="315,-89.7 315,-108.7 436,-108.7 436,-89.7 315,-89.7"/>
<text text-anchor="start" x="417.4053" y="-95.8" font-family="Helvetica,sans-Serif" font-size="11.00" fill="#000000">0 &gt;</text>
<polygon fill="none" stroke="#000000" stroke-width="2" points="161,-88.7 161,-308.7 437,-308.7 437,-88.7 161,-88.7"/>
</a>
</g>
</g>
<!-- place -->
<g id="node2" class="node">
<title>place</title>
<g id="a_node2"><a xlink:href="../../tables/place.html" xlink:title="place" target="_top">
<polygon fill="#ffffff" stroke="transparent" points="8,-38.2 8,-187.2 111,-187.2 111,-38.2 8,-38.2"/>
<polygon fill="#f5f5f5" stroke="transparent" points="8.5,-163.7 8.5,-186.7 111.5,-186.7 111.5,-163.7 8.5,-163.7"/>
<polygon fill="none" stroke="#000000" points="8.5,-163.7 8.5,-186.7 111.5,-186.7 111.5,-163.7 8.5,-163.7"/>
<text text-anchor="start" x="13.5" y="-172.8" font-family="Helvetica,sans-Serif" font-weight="bold" font-size="11.00" fill="#000000">place</text>
<text text-anchor="start" x="76.5437" y="-171.8" font-family="Helvetica,sans-Serif" font-size="11.00" fill="#000000">[table]</text>
<polygon fill="none" stroke="#000000" points="8.5,-141.7 8.5,-163.7 111.5,-163.7 111.5,-141.7 8.5,-141.7"/>
<image xlink:href="../../images/primaryKeys.png" width="11px" height="12px" preserveAspectRatio="xMinYMin meet" x="13.5" y="-158.7"/>
<text text-anchor="start" x="28.5" y="-148.8" font-family="Helvetica,sans-Serif" font-size="11.00" fill="#000000">id</text>
<polygon fill="#ffffff" stroke="transparent" points="8.5,-119.7 8.5,-141.7 111.5,-141.7 111.5,-119.7 8.5,-119.7"/>
<polygon fill="none" stroke="#000000" points="8.5,-119.7 8.5,-141.7 111.5,-141.7 111.5,-119.7 8.5,-119.7"/>
<text text-anchor="start" x="28.5" y="-126.8" font-family="Helvetica,sans-Serif" font-size="11.00" fill="#000000">level</text>
<polygon fill="#ffffff" stroke="transparent" points="8.5,-97.7 8.5,-119.7 111.5,-119.7 111.5,-97.7 8.5,-97.7"/>
<polygon fill="none" stroke="#000000" points="8.5,-97.7 8.5,-119.7 111.5,-119.7 111.5,-97.7 8.5,-97.7"/>
<text text-anchor="start" x="28.5" y="-104.8" font-family="Helvetica,sans-Serif" font-size="11.00" fill="#000000">iso3</text>
<polygon fill="#ffffff" stroke="transparent" points="8.5,-75.7 8.5,-97.7 111.5,-97.7 111.5,-75.7 8.5,-75.7"/>
<polygon fill="none" stroke="#000000" points="8.5,-75.7 8.5,-97.7 111.5,-97.7 111.5,-75.7 8.5,-75.7"/>
<text text-anchor="start" x="28.5" y="-82.8" font-family="Helvetica,sans-Serif" font-size="11.00" fill="#000000">ansi_fips</text>
<polygon fill="none" stroke="#000000" points="8.5,-56.7 8.5,-75.7 111.5,-75.7 111.5,-56.7 8.5,-56.7"/>
<text text-anchor="start" x="11.5" y="-62.8" font-family="Helvetica,sans-Serif" font-size="11.00" fill="#000000">...</text>
<polygon fill="#ffffff" stroke="transparent" points="8.5,-37.7 8.5,-56.7 25.5,-56.7 25.5,-37.7 8.5,-37.7"/>
<polygon fill="none" stroke="#000000" points="8.5,-37.7 8.5,-56.7 25.5,-56.7 25.5,-37.7 8.5,-37.7"/>
<text text-anchor="start" x="11.5" y="-43.8" font-family="Helvetica,sans-Serif" font-size="11.00" fill="#000000"> &#160;</text>
<polygon fill="#ffffff" stroke="transparent" points="25.5,-37.7 25.5,-56.7 87.5,-56.7 87.5,-37.7 25.5,-37.7"/>
<polygon fill="none" stroke="#000000" points="25.5,-37.7 25.5,-56.7 87.5,-56.7 87.5,-37.7 25.5,-37.7"/>
<text text-anchor="start" x="30.7089" y="-43.8" font-family="Helvetica,sans-Serif" font-size="11.00" fill="#000000">7,645 rows</text>
<polygon fill="#ffffff" stroke="transparent" points="87.5,-37.7 87.5,-56.7 111.5,-56.7 111.5,-37.7 87.5,-37.7"/>
<polygon fill="none" stroke="#000000" points="87.5,-37.7 87.5,-56.7 111.5,-56.7 111.5,-37.7 87.5,-37.7"/>
<text text-anchor="start" x="92.9053" y="-43.8" font-family="Helvetica,sans-Serif" font-size="11.00" fill="#000000">7 &gt;</text>
</a>
</g>
</g>
<!-- max_min_policy_count&#45;&gt;place -->
<g id="edge1" class="edge">
<title>max_min_policy_count:w&#45;&gt;place:e</title>
<path fill="none" stroke="#000000" d="M147.6489,-161.9813C135.5992,-158.8875 128.728,-152.7 111.5,-152.7"/>
<polygon fill="#000000" stroke="#000000" points="154.0568,-162.7486 161.5719,-167.2745 158.0284,-163.2243 162,-163.7 162,-163.7 162,-163.7 158.0284,-163.2243 162.4281,-160.1255 154.0568,-162.7486 154.0568,-162.7486"/>
<ellipse fill="none" stroke="#000000" cx="150.8795" cy="-162.3681" rx="3.2" ry="3.2"/>
</g>
<!-- max_min_policy_count&#45;&gt;place -->
<g id="edge2" class="edge">
<title>max_min_policy_count:w&#45;&gt;place:e</title>
<path fill="none" stroke="#000000" d="M147.6489,-143.4188C135.5992,-146.5125 128.728,-152.7 111.5,-152.7"/>
<polygon fill="#000000" stroke="#000000" points="154.0568,-142.6514 162.4281,-145.2745 158.0284,-142.1757 162,-141.7 162,-141.7 162,-141.7 158.0284,-142.1757 161.5719,-138.1255 154.0568,-142.6514 154.0568,-142.6514"/>
<ellipse fill="none" stroke="#000000" cx="150.8795" cy="-143.0319" rx="3.2" ry="3.2"/>
</g>
</g>
</svg>
