<?xml version="1.0" encoding="UTF-8" standalone="no"?>
<!DOCTYPE svg PUBLIC "-//W3C//DTD SVG 1.1//EN"
 "http://www.w3.org/Graphics/SVG/1.1/DTD/svg11.dtd">
<!-- Generated by graphviz version 2.40.1 (20161225.0304)
 -->
<!-- Title: twoDegreesRelationshipsDiagram Pages: 1 -->
<svg width="454pt" height="683pt"
 viewBox="0.00 0.00 454.00 683.20" xmlns="http://www.w3.org/2000/svg" xmlns:xlink="http://www.w3.org/1999/xlink">
<g id="graph0" class="graph" transform="scale(1 1) rotate(0) translate(4 679.2)">
<title>twoDegreesRelationshipsDiagram</title>
<polygon fill="#ffffff" stroke="transparent" points="-4,4 -4,-679.2 450,-679.2 450,4 -4,4"/>
<text text-anchor="middle" x="72.4936" y="-7.3" font-family="Helvetica,sans-Serif" font-size="11.00" fill="#000000">Generated by SchemaSpy</text>
<!-- auth_entity -->
<g id="node1" class="node">
<title>auth_entity</title>
<g id="a_node1"><a xlink:href="../../tables/auth_entity.html" xlink:title="auth_entity" target="_top">
<polygon fill="#ffffff" stroke="transparent" points="248.5,-610.2 248.5,-671.2 349.5,-671.2 349.5,-610.2 248.5,-610.2"/>
<polygon fill="#f5f5f5" stroke="transparent" points="249,-647.7 249,-670.7 350,-670.7 350,-647.7 249,-647.7"/>
<polygon fill="none" stroke="#000000" points="249,-647.7 249,-670.7 350,-670.7 350,-647.7 249,-647.7"/>
<text text-anchor="start" x="254" y="-656.8" font-family="Helvetica,sans-Serif" font-weight="bold" font-size="11.00" fill="#000000">auth_entity</text>
<text text-anchor="start" x="315.0437" y="-655.8" font-family="Helvetica,sans-Serif" font-size="11.00" fill="#000000">[table]</text>
<polygon fill="none" stroke="#000000" points="249,-628.7 249,-647.7 350,-647.7 350,-628.7 249,-628.7"/>
<text text-anchor="start" x="252" y="-634.8" font-family="Helvetica,sans-Serif" font-size="11.00" fill="#000000">...</text>
<polygon fill="#ffffff" stroke="transparent" points="249,-609.7 249,-628.7 270,-628.7 270,-609.7 249,-609.7"/>
<polygon fill="none" stroke="#000000" points="249,-609.7 249,-628.7 270,-628.7 270,-609.7 249,-609.7"/>
<text text-anchor="start" x="251.7027" y="-615.8" font-family="Helvetica,sans-Serif" font-size="11.00" fill="#000000">&lt; 1</text>
<polygon fill="#ffffff" stroke="transparent" points="270,-609.7 270,-628.7 329,-628.7 329,-609.7 270,-609.7"/>
<polygon fill="none" stroke="#000000" points="270,-609.7 270,-628.7 329,-628.7 329,-609.7 270,-609.7"/>
<text text-anchor="start" x="272.6045" y="-615.8" font-family="Helvetica,sans-Serif" font-size="11.00" fill="#000000">2,895 rows</text>
<polygon fill="#ffffff" stroke="transparent" points="329,-609.7 329,-628.7 350,-628.7 350,-609.7 329,-609.7"/>
<polygon fill="none" stroke="#000000" points="329,-609.7 329,-628.7 350,-628.7 350,-609.7 329,-609.7"/>
<text text-anchor="start" x="331.7027" y="-615.8" font-family="Helvetica,sans-Serif" font-size="11.00" fill="#000000">3 &gt;</text>
</a>
</g>
</g>
<!-- place -->
<g id="node2" class="node">
<title>place</title>
<g id="a_node2"><a xlink:href="../../tables/place.html" xlink:title="place" target="_top">
<polygon fill="#ffffff" stroke="transparent" points="8,-197.2 8,-346.2 111,-346.2 111,-197.2 8,-197.2"/>
<polygon fill="#f5f5f5" stroke="transparent" points="8.5,-322.7 8.5,-345.7 111.5,-345.7 111.5,-322.7 8.5,-322.7"/>
<polygon fill="none" stroke="#000000" points="8.5,-322.7 8.5,-345.7 111.5,-345.7 111.5,-322.7 8.5,-322.7"/>
<text text-anchor="start" x="13.5" y="-331.8" font-family="Helvetica,sans-Serif" font-weight="bold" font-size="11.00" fill="#000000">place</text>
<text text-anchor="start" x="76.5437" y="-330.8" font-family="Helvetica,sans-Serif" font-size="11.00" fill="#000000">[table]</text>
<polygon fill="none" stroke="#000000" points="8.5,-300.7 8.5,-322.7 111.5,-322.7 111.5,-300.7 8.5,-300.7"/>
<image xlink:href="../../images/primaryKeys.png" width="11px" height="12px" preserveAspectRatio="xMinYMin meet" x="13.5" y="-317.7"/>
<text text-anchor="start" x="28.5" y="-307.8" font-family="Helvetica,sans-Serif" font-size="11.00" fill="#000000">id</text>
<polygon fill="#ffffff" stroke="transparent" points="8.5,-278.7 8.5,-300.7 111.5,-300.7 111.5,-278.7 8.5,-278.7"/>
<polygon fill="none" stroke="#000000" points="8.5,-278.7 8.5,-300.7 111.5,-300.7 111.5,-278.7 8.5,-278.7"/>
<text text-anchor="start" x="28.5" y="-285.8" font-family="Helvetica,sans-Serif" font-size="11.00" fill="#000000">level</text>
<polygon fill="#ffffff" stroke="transparent" points="8.5,-256.7 8.5,-278.7 111.5,-278.7 111.5,-256.7 8.5,-256.7"/>
<polygon fill="none" stroke="#000000" points="8.5,-256.7 8.5,-278.7 111.5,-278.7 111.5,-256.7 8.5,-256.7"/>
<text text-anchor="start" x="28.5" y="-263.8" font-family="Helvetica,sans-Serif" font-size="11.00" fill="#000000">iso3</text>
<polygon fill="#ffffff" stroke="transparent" points="8.5,-234.7 8.5,-256.7 111.5,-256.7 111.5,-234.7 8.5,-234.7"/>
<polygon fill="none" stroke="#000000" points="8.5,-234.7 8.5,-256.7 111.5,-256.7 111.5,-234.7 8.5,-234.7"/>
<text text-anchor="start" x="28.5" y="-241.8" font-family="Helvetica,sans-Serif" font-size="11.00" fill="#000000">ansi_fips</text>
<polygon fill="none" stroke="#000000" points="8.5,-215.7 8.5,-234.7 111.5,-234.7 111.5,-215.7 8.5,-215.7"/>
<text text-anchor="start" x="11.5" y="-221.8" font-family="Helvetica,sans-Serif" font-size="11.00" fill="#000000">...</text>
<polygon fill="#ffffff" stroke="transparent" points="8.5,-196.7 8.5,-215.7 25.5,-215.7 25.5,-196.7 8.5,-196.7"/>
<polygon fill="none" stroke="#000000" points="8.5,-196.7 8.5,-215.7 25.5,-215.7 25.5,-196.7 8.5,-196.7"/>
<text text-anchor="start" x="11.5" y="-202.8" font-family="Helvetica,sans-Serif" font-size="11.00" fill="#000000"> &#160;</text>
<polygon fill="#ffffff" stroke="transparent" points="25.5,-196.7 25.5,-215.7 87.5,-215.7 87.5,-196.7 25.5,-196.7"/>
<polygon fill="none" stroke="#000000" points="25.5,-196.7 25.5,-215.7 87.5,-215.7 87.5,-196.7 25.5,-196.7"/>
<text text-anchor="start" x="30.7089" y="-202.8" font-family="Helvetica,sans-Serif" font-size="11.00" fill="#000000">7,645 rows</text>
<polygon fill="#ffffff" stroke="transparent" points="87.5,-196.7 87.5,-215.7 111.5,-215.7 111.5,-196.7 87.5,-196.7"/>
<polygon fill="none" stroke="#000000" points="87.5,-196.7 87.5,-215.7 111.5,-215.7 111.5,-196.7 87.5,-196.7"/>
<text text-anchor="start" x="92.9053" y="-202.8" font-family="Helvetica,sans-Serif" font-size="11.00" fill="#000000">7 &gt;</text>
</a>
</g>
</g>
<!-- auth_entity&#45;&gt;place -->
<g id="edge1" class="edge">
<title>auth_entity:w&#45;&gt;place:e</title>
<path fill="none" stroke="#000000" d="M234.1554,-637.5879C197.6287,-636.8775 177.4491,-631.9173 152,-599.7 111.9386,-548.9843 176.1297,-311.7 111.5,-311.7"/>
<polygon fill="#000000" stroke="#000000" points="241.0002,-637.6395 248.9728,-641.2999 245.0001,-637.6698 249,-637.7 249,-637.7 249,-637.7 245.0001,-637.6698 249.0272,-634.1001 241.0002,-637.6395 241.0002,-637.6395"/>
<ellipse fill="none" stroke="#000000" cx="237.8003" cy="-637.6153" rx="3.2" ry="3.2"/>
</g>
<!-- max_min_policy_count -->
<g id="node3" class="node">
<title>max_min_policy_count</title>
<g id="a_node3"><a xlink:href="../../tables/max_min_policy_count.html" xlink:title="max_min_policy_count" target="_top">
<polygon fill="#ffffff" stroke="transparent" points="160,-366.7 160,-588.7 438,-588.7 438,-366.7 160,-366.7"/>
<polygon fill="#f5f5f5" stroke="transparent" points="162,-563.7 162,-586.7 436,-586.7 436,-563.7 162,-563.7"/>
<polygon fill="none" stroke="#000000" points="162,-563.7 162,-586.7 436,-586.7 436,-563.7 162,-563.7"/>
<text text-anchor="start" x="167" y="-572.8" font-family="Helvetica,sans-Serif" font-weight="bold" font-size="11.00" fill="#000000">max_min_policy_count</text>
<text text-anchor="start" x="401.0437" y="-571.8" font-family="Helvetica,sans-Serif" font-size="11.00" fill="#000000">[table]</text>
<polygon fill="none" stroke="#000000" points="162,-541.7 162,-563.7 315,-563.7 315,-541.7 162,-541.7"/>
<image xlink:href="../../images/primaryKeys.png" width="11px" height="12px" preserveAspectRatio="xMinYMin meet" x="167" y="-558.7"/>
<text text-anchor="start" x="182" y="-548.8" font-family="Helvetica,sans-Serif" font-size="11.00" fill="#000000">max_policy_count_id</text>
<polygon fill="none" stroke="#000000" points="315,-541.7 315,-563.7 436,-563.7 436,-541.7 315,-541.7"/>
<text text-anchor="start" x="318" y="-549.4" font-family="Helvetica,sans-Serif" font-size="11.00" fill="#000000">int4[10]</text>
<polygon fill="none" stroke="#000000" points="162,-519.7 162,-541.7 315,-541.7 315,-519.7 162,-519.7"/>
<text text-anchor="start" x="182" y="-526.8" font-family="Helvetica,sans-Serif" font-size="11.00" fill="#000000">map_type</text>
<polygon fill="none" stroke="#000000" points="315,-519.7 315,-541.7 436,-541.7 436,-519.7 315,-519.7"/>
<text text-anchor="start" x="317.722" y="-527.4" font-family="Helvetica,sans-Serif" font-size="11.00" fill="#000000">map_type[2147483647]</text>
<polygon fill="none" stroke="#000000" points="162,-497.7 162,-519.7 315,-519.7 315,-497.7 162,-497.7"/>
<text text-anchor="start" x="182" y="-504.8" font-family="Helvetica,sans-Serif" font-size="11.00" fill="#000000">max_value</text>
<polygon fill="none" stroke="#000000" points="315,-497.7 315,-519.7 436,-519.7 436,-497.7 315,-497.7"/>
<text text-anchor="start" x="318" y="-505.4" font-family="Helvetica,sans-Serif" font-size="11.00" fill="#000000">int4[10]</text>
<polygon fill="none" stroke="#000000" points="162,-475.7 162,-497.7 315,-497.7 315,-475.7 162,-475.7"/>
<text text-anchor="start" x="182" y="-482.8" font-family="Helvetica,sans-Serif" font-size="11.00" fill="#000000">max_date</text>
<polygon fill="none" stroke="#000000" points="315,-475.7 315,-497.7 436,-497.7 436,-475.7 315,-475.7"/>
<text text-anchor="start" x="318" y="-483.4" font-family="Helvetica,sans-Serif" font-size="11.00" fill="#000000">date[13]</text>
<polygon fill="none" stroke="#000000" points="162,-453.7 162,-475.7 315,-475.7 315,-453.7 162,-453.7"/>
<text text-anchor="start" x="182" y="-460.8" font-family="Helvetica,sans-Serif" font-size="11.00" fill="#000000">min_date</text>
<polygon fill="none" stroke="#000000" points="315,-453.7 315,-475.7 436,-475.7 436,-453.7 315,-453.7"/>
<text text-anchor="start" x="318" y="-461.4" font-family="Helvetica,sans-Serif" font-size="11.00" fill="#000000">date[13]</text>
<polygon fill="none" stroke="#000000" points="162,-431.7 162,-453.7 315,-453.7 315,-431.7 162,-431.7"/>
<image xlink:href="../../images/foreignKeys.png" width="11px" height="12px" preserveAspectRatio="xMinYMin meet" x="167" y="-448.7"/>
<text text-anchor="start" x="182" y="-438.8" font-family="Helvetica,sans-Serif" font-size="11.00" fill="#000000">fk_place_id_max</text>
<polygon fill="none" stroke="#000000" points="315,-431.7 315,-453.7 436,-453.7 436,-431.7 315,-431.7"/>
<text text-anchor="start" x="318" y="-439.4" font-family="Helvetica,sans-Serif" font-size="11.00" fill="#000000">int4[10]</text>
<polygon fill="none" stroke="#000000" points="162,-409.7 162,-431.7 315,-431.7 315,-409.7 162,-409.7"/>
<image xlink:href="../../images/foreignKeys.png" width="11px" height="12px" preserveAspectRatio="xMinYMin meet" x="167" y="-426.7"/>
<text text-anchor="start" x="182" y="-416.8" font-family="Helvetica,sans-Serif" font-size="11.00" fill="#000000">fk_place_id_min</text>
<polygon fill="none" stroke="#000000" points="315,-409.7 315,-431.7 436,-431.7 436,-409.7 315,-409.7"/>
<text text-anchor="start" x="318" y="-417.4" font-family="Helvetica,sans-Serif" font-size="11.00" fill="#000000">int4[10]</text>
<polygon fill="none" stroke="#000000" points="162,-387.7 162,-409.7 315,-409.7 315,-387.7 162,-387.7"/>
<text text-anchor="start" x="182" y="-394.8" font-family="Helvetica,sans-Serif" font-size="11.00" fill="#000000">min_value</text>
<polygon fill="none" stroke="#000000" points="315,-387.7 315,-409.7 436,-409.7 436,-387.7 315,-387.7"/>
<text text-anchor="start" x="318" y="-395.4" font-family="Helvetica,sans-Serif" font-size="11.00" fill="#000000">int4[10]</text>
<polygon fill="#ffffff" stroke="transparent" points="162,-368.7 162,-387.7 230,-387.7 230,-368.7 162,-368.7"/>
<polygon fill="none" stroke="#000000" points="162,-368.7 162,-387.7 230,-387.7 230,-368.7 162,-368.7"/>
<text text-anchor="start" x="165" y="-374.8" font-family="Helvetica,sans-Serif" font-size="11.00" fill="#000000">&lt; 2</text>
<polygon fill="#ffffff" stroke="transparent" points="230,-368.7 230,-387.7 315,-387.7 315,-368.7 230,-368.7"/>
<polygon fill="none" stroke="#000000" points="230,-368.7 230,-387.7 315,-387.7 315,-368.7 230,-368.7"/>
<text text-anchor="start" x="279.6105" y="-374.8" font-family="Helvetica,sans-Serif" font-size="11.00" fill="#000000">4 rows</text>
<polygon fill="#ffffff" stroke="transparent" points="315,-368.7 315,-387.7 436,-387.7 436,-368.7 315,-368.7"/>
<polygon fill="none" stroke="#000000" points="315,-368.7 315,-387.7 436,-387.7 436,-368.7 315,-368.7"/>
<text text-anchor="start" x="417.4053" y="-374.8" font-family="Helvetica,sans-Serif" font-size="11.00" fill="#000000">0 &gt;</text>
<polygon fill="none" stroke="#000000" stroke-width="2" points="161,-367.7 161,-587.7 437,-587.7 437,-367.7 161,-367.7"/>
</a>
</g>
</g>
<!-- max_min_policy_count&#45;&gt;place -->
<g id="edge2" class="edge">
<title>max_min_policy_count:w&#45;&gt;place:e</title>
<path fill="none" stroke="#000000" d="M147.8294,-439.4618C112.3307,-419.2889 168.0487,-311.7 111.5,-311.7"/>
<polygon fill="#000000" stroke="#000000" points="154.201,-440.9178 161.198,-446.2095 158.1005,-441.8089 162,-442.7 162,-442.7 162,-442.7 158.1005,-441.8089 162.802,-439.1905 154.201,-440.9178 154.201,-440.9178"/>
<ellipse fill="none" stroke="#000000" cx="151.0815" cy="-440.2049" rx="3.2" ry="3.2"/>
</g>
<!-- max_min_policy_count&#45;&gt;place -->
<g id="edge3" class="edge">
<title>max_min_policy_count:w&#45;&gt;place:e</title>
<path fill="none" stroke="#000000" d="M147.7587,-416.8206C119.9529,-397.4034 158.843,-311.7 111.5,-311.7"/>
<polygon fill="#000000" stroke="#000000" points="154.2813,-418.5974 161.0538,-424.1734 158.1406,-419.6487 162,-420.7 162,-420.7 162,-420.7 158.1406,-419.6487 162.9462,-417.2266 154.2813,-418.5974 154.2813,-418.5974"/>
<ellipse fill="none" stroke="#000000" cx="151.1938" cy="-417.7563" rx="3.2" ry="3.2"/>
</g>
<!-- observation -->
<g id="node4" class="node">
<title>observation</title>
<g id="a_node4"><a xlink:href="../../tables/observation.html" xlink:title="observation" target="_top">
<polygon fill="#ffffff" stroke="transparent" points="249.5,-284.2 249.5,-345.2 348.5,-345.2 348.5,-284.2 249.5,-284.2"/>
<polygon fill="#f5f5f5" stroke="transparent" points="250,-321.7 250,-344.7 349,-344.7 349,-321.7 250,-321.7"/>
<polygon fill="none" stroke="#000000" points="250,-321.7 250,-344.7 349,-344.7 349,-321.7 250,-321.7"/>
<text text-anchor="start" x="254.5755" y="-330.8" font-family="Helvetica,sans-Serif" font-weight="bold" font-size="11.00" fill="#000000">observation</text>
<text text-anchor="start" x="314.5219" y="-329.8" font-family="Helvetica,sans-Serif" font-size="11.00" fill="#000000">[table]</text>
<polygon fill="none" stroke="#000000" points="250,-302.7 250,-321.7 349,-321.7 349,-302.7 250,-302.7"/>
<text text-anchor="start" x="253" y="-308.8" font-family="Helvetica,sans-Serif" font-size="11.00" fill="#000000">...</text>
<polygon fill="#ffffff" stroke="transparent" points="250,-283.7 250,-302.7 271,-302.7 271,-283.7 250,-283.7"/>
<polygon fill="none" stroke="#000000" points="250,-283.7 250,-302.7 271,-302.7 271,-283.7 250,-283.7"/>
<text text-anchor="start" x="252.7027" y="-289.8" font-family="Helvetica,sans-Serif" font-size="11.00" fill="#000000">&lt; 1</text>
<polygon fill="#ffffff" stroke="transparent" points="271,-283.7 271,-302.7 336,-302.7 336,-283.7 271,-283.7"/>
<polygon fill="none" stroke="#000000" points="271,-283.7 271,-302.7 336,-302.7 336,-283.7 271,-283.7"/>
<text text-anchor="start" x="273.547" y="-289.8" font-family="Helvetica,sans-Serif" font-size="11.00" fill="#000000">62,656 rows</text>
<polygon fill="#ffffff" stroke="transparent" points="336,-283.7 336,-302.7 349,-302.7 349,-283.7 336,-283.7"/>
<polygon fill="none" stroke="#000000" points="336,-283.7 336,-302.7 349,-302.7 349,-283.7 336,-283.7"/>
<text text-anchor="start" x="339.8862" y="-289.8" font-family="Helvetica,sans-Serif" font-size="11.00" fill="#000000"> &#160;</text>
</a>
</g>
</g>
<!-- observation&#45;&gt;place -->
<g id="edge4" class="edge">
<title>observation:w&#45;&gt;place:e</title>
<path fill="none" stroke="#000000" d="M235.4131,-311.7C185.534,-311.7 167.8859,-311.7 111.5,-311.7"/>
<polygon fill="#000000" stroke="#000000" points="242,-311.7001 250,-315.3 246,-311.7 250,-311.7 250,-311.7 250,-311.7 246,-311.7 250,-308.1 242,-311.7001 242,-311.7001"/>
<ellipse fill="none" stroke="#000000" cx="238.8" cy="-311.7001" rx="3.2" ry="3.2"/>
</g>
<!-- place_policy_number -->
<g id="node5" class="node">
<title>place_policy_number</title>
<g id="a_node5"><a xlink:href="../../tables/place_policy_number.html" xlink:title="place_policy_number" target="_top">
<polygon fill="#ffffff" stroke="transparent" points="226,-202.2 226,-263.2 372,-263.2 372,-202.2 226,-202.2"/>
<polygon fill="#f5f5f5" stroke="transparent" points="226,-239.7 226,-262.7 372,-262.7 372,-239.7 226,-239.7"/>
<polygon fill="none" stroke="#000000" points="226,-239.7 226,-262.7 372,-262.7 372,-239.7 226,-239.7"/>
<text text-anchor="start" x="230.5448" y="-248.8" font-family="Helvetica,sans-Serif" font-weight="bold" font-size="11.00" fill="#000000">place_policy_number</text>
<text text-anchor="start" x="337.5219" y="-247.8" font-family="Helvetica,sans-Serif" font-size="11.00" fill="#000000">[table]</text>
<polygon fill="none" stroke="#000000" points="226,-220.7 226,-239.7 372,-239.7 372,-220.7 226,-220.7"/>
<text text-anchor="start" x="229" y="-226.8" font-family="Helvetica,sans-Serif" font-size="11.00" fill="#000000">...</text>
<polygon fill="#ffffff" stroke="transparent" points="226,-201.7 226,-220.7 271,-220.7 271,-201.7 226,-201.7"/>
<polygon fill="none" stroke="#000000" points="226,-201.7 226,-220.7 271,-220.7 271,-201.7 226,-201.7"/>
<text text-anchor="start" x="229" y="-207.8" font-family="Helvetica,sans-Serif" font-size="11.00" fill="#000000">&lt; 2</text>
<polygon fill="#ffffff" stroke="transparent" points="271,-201.7 271,-220.7 348,-220.7 348,-201.7 271,-201.7"/>
<polygon fill="none" stroke="#000000" points="271,-201.7 271,-220.7 348,-220.7 348,-201.7 271,-201.7"/>
<text text-anchor="start" x="285.094" y="-207.8" font-family="Helvetica,sans-Serif" font-size="11.00" fill="#000000">32,150 rows</text>
<polygon fill="#ffffff" stroke="transparent" points="348,-201.7 348,-220.7 372,-220.7 372,-201.7 348,-201.7"/>
<polygon fill="none" stroke="#000000" points="348,-201.7 348,-220.7 372,-220.7 372,-201.7 348,-201.7"/>
<text text-anchor="start" x="362.8862" y="-207.8" font-family="Helvetica,sans-Serif" font-size="11.00" fill="#000000"> &#160;</text>
</a>
</g>
</g>
<!-- place_policy_number&#45;&gt;place -->
<g id="edge5" class="edge">
<title>place_policy_number:w&#45;&gt;place:e</title>
<path fill="none" stroke="#000000" d="M211.307,-230.9584C185.714,-235.8111 178.1572,-254.0208 152,-273.7 132.2761,-288.5392 136.1827,-311.7 111.5,-311.7"/>
<polygon fill="#000000" stroke="#000000" points="218.0292,-230.3827 226.3072,-233.2869 222.0146,-230.0414 226,-229.7 226,-229.7 226,-229.7 222.0146,-230.0414 225.6928,-226.1131 218.0292,-230.3827 218.0292,-230.3827"/>
<ellipse fill="none" stroke="#000000" cx="214.8409" cy="-230.6558" rx="3.2" ry="3.2"/>
</g>
<!-- place_to_plan -->
<g id="node6" class="node">
<title>place_to_plan</title>
<g id="a_node6"><a xlink:href="../../tables/place_to_plan.html" xlink:title="place_to_plan" target="_top">
<polygon fill="#ffffff" stroke="transparent" points="243.5,-120.2 243.5,-181.2 354.5,-181.2 354.5,-120.2 243.5,-120.2"/>
<polygon fill="#f5f5f5" stroke="transparent" points="244,-157.7 244,-180.7 355,-180.7 355,-157.7 244,-157.7"/>
<polygon fill="none" stroke="#000000" points="244,-157.7 244,-180.7 355,-180.7 355,-157.7 244,-157.7"/>
<text text-anchor="start" x="248.7636" y="-166.8" font-family="Helvetica,sans-Serif" font-weight="bold" font-size="11.00" fill="#000000">place_to_plan</text>
<text text-anchor="start" x="320.5219" y="-165.8" font-family="Helvetica,sans-Serif" font-size="11.00" fill="#000000">[table]</text>
<polygon fill="none" stroke="#000000" points="244,-138.7 244,-157.7 355,-157.7 355,-138.7 244,-138.7"/>
<text text-anchor="start" x="247" y="-144.8" font-family="Helvetica,sans-Serif" font-size="11.00" fill="#000000">...</text>
<polygon fill="#ffffff" stroke="transparent" points="244,-119.7 244,-138.7 279,-138.7 279,-119.7 244,-119.7"/>
<polygon fill="none" stroke="#000000" points="244,-119.7 244,-138.7 279,-138.7 279,-119.7 244,-119.7"/>
<text text-anchor="start" x="247" y="-125.8" font-family="Helvetica,sans-Serif" font-size="11.00" fill="#000000">&lt; 2</text>
<polygon fill="#ffffff" stroke="transparent" points="279,-119.7 279,-138.7 336,-138.7 336,-119.7 279,-119.7"/>
<polygon fill="none" stroke="#000000" points="279,-119.7 279,-138.7 336,-138.7 336,-119.7 279,-119.7"/>
<text text-anchor="start" x="288.3807" y="-125.8" font-family="Helvetica,sans-Serif" font-size="11.00" fill="#000000">493 rows</text>
<polygon fill="#ffffff" stroke="transparent" points="336,-119.7 336,-138.7 355,-138.7 355,-119.7 336,-119.7"/>
<polygon fill="none" stroke="#000000" points="336,-119.7 336,-138.7 355,-138.7 355,-119.7 336,-119.7"/>
<text text-anchor="start" x="345.8862" y="-125.8" font-family="Helvetica,sans-Serif" font-size="11.00" fill="#000000"> &#160;</text>
</a>
</g>
</g>
<!-- place_to_plan&#45;&gt;place -->
<g id="edge6" class="edge">
<title>place_to_plan:w&#45;&gt;place:e</title>
<path fill="none" stroke="#000000" d="M229.1805,-148.1373C194.5964,-150.3893 178.5369,-161.7527 152,-191.7 114.6689,-233.8288 167.7889,-311.7 111.5,-311.7"/>
<polygon fill="#000000" stroke="#000000" points="236.0035,-147.936 244.1062,-151.2984 240.0017,-147.818 244,-147.7 244,-147.7 244,-147.7 240.0017,-147.818 243.8938,-144.1016 236.0035,-147.936 236.0035,-147.936"/>
<ellipse fill="none" stroke="#000000" cx="232.8049" cy="-148.0304" rx="3.2" ry="3.2"/>
</g>
<!-- place_to_policy -->
<g id="node7" class="node">
<title>place_to_policy</title>
<g id="a_node7"><a xlink:href="../../tables/place_to_policy.html" xlink:title="place_to_policy" target="_top">
<polygon fill="#ffffff" stroke="transparent" points="240,-38.2 240,-99.2 358,-99.2 358,-38.2 240,-38.2"/>
<polygon fill="#f5f5f5" stroke="transparent" points="240,-75.7 240,-98.7 358,-98.7 358,-75.7 240,-75.7"/>
<polygon fill="none" stroke="#000000" points="240,-75.7 240,-98.7 358,-98.7 358,-75.7 240,-75.7"/>
<text text-anchor="start" x="244.6006" y="-84.8" font-family="Helvetica,sans-Serif" font-weight="bold" font-size="11.00" fill="#000000">place_to_policy</text>
<text text-anchor="start" x="323.5219" y="-83.8" font-family="Helvetica,sans-Serif" font-size="11.00" fill="#000000">[table]</text>
<polygon fill="none" stroke="#000000" points="240,-56.7 240,-75.7 358,-75.7 358,-56.7 240,-56.7"/>
<text text-anchor="start" x="243" y="-62.8" font-family="Helvetica,sans-Serif" font-size="11.00" fill="#000000">...</text>
<polygon fill="#ffffff" stroke="transparent" points="240,-37.7 240,-56.7 267,-56.7 267,-37.7 240,-37.7"/>
<polygon fill="none" stroke="#000000" points="240,-37.7 240,-56.7 267,-56.7 267,-37.7 240,-37.7"/>
<text text-anchor="start" x="243" y="-43.8" font-family="Helvetica,sans-Serif" font-size="11.00" fill="#000000">&lt; 2</text>
<polygon fill="#ffffff" stroke="transparent" points="267,-37.7 267,-56.7 342,-56.7 342,-37.7 267,-37.7"/>
<polygon fill="none" stroke="#000000" points="267,-37.7 267,-56.7 342,-56.7 342,-37.7 267,-37.7"/>
<text text-anchor="start" x="272.9791" y="-43.8" font-family="Helvetica,sans-Serif" font-size="11.00" fill="#000000">994,786 rows</text>
<polygon fill="#ffffff" stroke="transparent" points="342,-37.7 342,-56.7 358,-56.7 358,-37.7 342,-37.7"/>
<polygon fill="none" stroke="#000000" points="342,-37.7 342,-56.7 358,-56.7 358,-37.7 342,-37.7"/>
<text text-anchor="start" x="348.8862" y="-43.8" font-family="Helvetica,sans-Serif" font-size="11.00" fill="#000000"> &#160;</text>
</a>
</g>
</g>
<!-- place_to_policy&#45;&gt;place -->
<g id="edge7" class="edge">
<title>place_to_policy:w&#45;&gt;place:e</title>
<path fill="none" stroke="#000000" d="M225.1968,-66.136C191.851,-68.3154 175.3355,-79.1631 152,-109.7 96.4036,-182.4537 203.0645,-311.7 111.5,-311.7"/>
<polygon fill="#000000" stroke="#000000" points="232.0035,-65.9356 240.106,-69.2984 236.0017,-65.8178 240,-65.7 240,-65.7 240,-65.7 236.0017,-65.8178 239.894,-62.1016 232.0035,-65.9356 232.0035,-65.9356"/>
<ellipse fill="none" stroke="#000000" cx="228.8049" cy="-66.0298" rx="3.2" ry="3.2"/>
</g>
</g>
</svg>
