<?xml version="1.0" encoding="UTF-8" standalone="no"?>
<!DOCTYPE svg PUBLIC "-//W3C//DTD SVG 1.1//EN"
 "http://www.w3.org/Graphics/SVG/1.1/DTD/svg11.dtd">
<!-- Generated by graphviz version 2.40.1 (20161225.0304)
 -->
<!-- Title: twoDegreesRelationshipsDiagram Pages: 1 -->
<svg width="359pt" height="639pt"
 viewBox="0.00 0.00 359.00 639.20" xmlns="http://www.w3.org/2000/svg" xmlns:xlink="http://www.w3.org/1999/xlink">
<g id="graph0" class="graph" transform="scale(1 1) rotate(0) translate(4 635.2)">
<title>twoDegreesRelationshipsDiagram</title>
<polygon fill="#ffffff" stroke="transparent" points="-4,4 -4,-635.2 355,-635.2 355,4 -4,4"/>
<text text-anchor="middle" x="72.4936" y="-7.3" font-family="Helvetica,sans-Serif" font-size="11.00" fill="#000000">Generated by SchemaSpy</text>
<!-- auth_entity -->
<g id="node1" class="node">
<title>auth_entity</title>
<g id="a_node1"><a xlink:href="../../tables/auth_entity.html" xlink:title="auth_entity" target="_top">
<polygon fill="#ffffff" stroke="transparent" points="201,-566.2 201,-627.2 302,-627.2 302,-566.2 201,-566.2"/>
<polygon fill="#f5f5f5" stroke="transparent" points="201.5,-603.7 201.5,-626.7 302.5,-626.7 302.5,-603.7 201.5,-603.7"/>
<polygon fill="none" stroke="#000000" points="201.5,-603.7 201.5,-626.7 302.5,-626.7 302.5,-603.7 201.5,-603.7"/>
<text text-anchor="start" x="206.5" y="-612.8" font-family="Helvetica,sans-Serif" font-weight="bold" font-size="11.00" fill="#000000">auth_entity</text>
<text text-anchor="start" x="267.5437" y="-611.8" font-family="Helvetica,sans-Serif" font-size="11.00" fill="#000000">[table]</text>
<polygon fill="none" stroke="#000000" points="201.5,-584.7 201.5,-603.7 302.5,-603.7 302.5,-584.7 201.5,-584.7"/>
<text text-anchor="start" x="204.5" y="-590.8" font-family="Helvetica,sans-Serif" font-size="11.00" fill="#000000">...</text>
<polygon fill="#ffffff" stroke="transparent" points="201.5,-565.7 201.5,-584.7 222.5,-584.7 222.5,-565.7 201.5,-565.7"/>
<polygon fill="none" stroke="#000000" points="201.5,-565.7 201.5,-584.7 222.5,-584.7 222.5,-565.7 201.5,-565.7"/>
<text text-anchor="start" x="204.2027" y="-571.8" font-family="Helvetica,sans-Serif" font-size="11.00" fill="#000000">&lt; 1</text>
<polygon fill="#ffffff" stroke="transparent" points="222.5,-565.7 222.5,-584.7 281.5,-584.7 281.5,-565.7 222.5,-565.7"/>
<polygon fill="none" stroke="#000000" points="222.5,-565.7 222.5,-584.7 281.5,-584.7 281.5,-565.7 222.5,-565.7"/>
<text text-anchor="start" x="225.1045" y="-571.8" font-family="Helvetica,sans-Serif" font-size="11.00" fill="#000000">2,901 rows</text>
<polygon fill="#ffffff" stroke="transparent" points="281.5,-565.7 281.5,-584.7 302.5,-584.7 302.5,-565.7 281.5,-565.7"/>
<polygon fill="none" stroke="#000000" points="281.5,-565.7 281.5,-584.7 302.5,-584.7 302.5,-565.7 281.5,-565.7"/>
<text text-anchor="start" x="284.2027" y="-571.8" font-family="Helvetica,sans-Serif" font-size="11.00" fill="#000000">3 &gt;</text>
</a>
</g>
</g>
<!-- place -->
<g id="node2" class="node">
<title>place</title>
<g id="a_node2"><a xlink:href="../../tables/place.html" xlink:title="place" target="_top">
<polygon fill="#ffffff" stroke="transparent" points="8,-202.2 8,-351.2 111,-351.2 111,-202.2 8,-202.2"/>
<polygon fill="#f5f5f5" stroke="transparent" points="8.5,-327.7 8.5,-350.7 111.5,-350.7 111.5,-327.7 8.5,-327.7"/>
<polygon fill="none" stroke="#000000" points="8.5,-327.7 8.5,-350.7 111.5,-350.7 111.5,-327.7 8.5,-327.7"/>
<text text-anchor="start" x="13.5" y="-336.8" font-family="Helvetica,sans-Serif" font-weight="bold" font-size="11.00" fill="#000000">place</text>
<text text-anchor="start" x="76.5437" y="-335.8" font-family="Helvetica,sans-Serif" font-size="11.00" fill="#000000">[table]</text>
<polygon fill="none" stroke="#000000" points="8.5,-305.7 8.5,-327.7 111.5,-327.7 111.5,-305.7 8.5,-305.7"/>
<image xlink:href="../../images/primaryKeys.png" width="11px" height="12px" preserveAspectRatio="xMinYMin meet" x="13.5" y="-322.7"/>
<text text-anchor="start" x="28.5" y="-312.8" font-family="Helvetica,sans-Serif" font-size="11.00" fill="#000000">id</text>
<polygon fill="#ffffff" stroke="transparent" points="8.5,-283.7 8.5,-305.7 111.5,-305.7 111.5,-283.7 8.5,-283.7"/>
<polygon fill="none" stroke="#000000" points="8.5,-283.7 8.5,-305.7 111.5,-305.7 111.5,-283.7 8.5,-283.7"/>
<text text-anchor="start" x="28.5" y="-290.8" font-family="Helvetica,sans-Serif" font-size="11.00" fill="#000000">level</text>
<polygon fill="#ffffff" stroke="transparent" points="8.5,-261.7 8.5,-283.7 111.5,-283.7 111.5,-261.7 8.5,-261.7"/>
<polygon fill="none" stroke="#000000" points="8.5,-261.7 8.5,-283.7 111.5,-283.7 111.5,-261.7 8.5,-261.7"/>
<text text-anchor="start" x="28.5" y="-268.8" font-family="Helvetica,sans-Serif" font-size="11.00" fill="#000000">iso3</text>
<polygon fill="#ffffff" stroke="transparent" points="8.5,-239.7 8.5,-261.7 111.5,-261.7 111.5,-239.7 8.5,-239.7"/>
<polygon fill="none" stroke="#000000" points="8.5,-239.7 8.5,-261.7 111.5,-261.7 111.5,-239.7 8.5,-239.7"/>
<text text-anchor="start" x="28.5" y="-246.8" font-family="Helvetica,sans-Serif" font-size="11.00" fill="#000000">ansi_fips</text>
<polygon fill="none" stroke="#000000" points="8.5,-220.7 8.5,-239.7 111.5,-239.7 111.5,-220.7 8.5,-220.7"/>
<text text-anchor="start" x="11.5" y="-226.8" font-family="Helvetica,sans-Serif" font-size="11.00" fill="#000000">...</text>
<polygon fill="#ffffff" stroke="transparent" points="8.5,-201.7 8.5,-220.7 25.5,-220.7 25.5,-201.7 8.5,-201.7"/>
<polygon fill="none" stroke="#000000" points="8.5,-201.7 8.5,-220.7 25.5,-220.7 25.5,-201.7 8.5,-201.7"/>
<text text-anchor="start" x="11.5" y="-207.8" font-family="Helvetica,sans-Serif" font-size="11.00" fill="#000000"> &#160;</text>
<polygon fill="#ffffff" stroke="transparent" points="25.5,-201.7 25.5,-220.7 87.5,-220.7 87.5,-201.7 25.5,-201.7"/>
<polygon fill="none" stroke="#000000" points="25.5,-201.7 25.5,-220.7 87.5,-220.7 87.5,-201.7 25.5,-201.7"/>
<text text-anchor="start" x="30.7089" y="-207.8" font-family="Helvetica,sans-Serif" font-size="11.00" fill="#000000">7,645 rows</text>
<polygon fill="#ffffff" stroke="transparent" points="87.5,-201.7 87.5,-220.7 111.5,-220.7 111.5,-201.7 87.5,-201.7"/>
<polygon fill="none" stroke="#000000" points="87.5,-201.7 87.5,-220.7 111.5,-220.7 111.5,-201.7 87.5,-201.7"/>
<text text-anchor="start" x="92.9053" y="-207.8" font-family="Helvetica,sans-Serif" font-size="11.00" fill="#000000">7 &gt;</text>
</a>
</g>
</g>
<!-- auth_entity&#45;&gt;place -->
<g id="edge1" class="edge">
<title>auth_entity:w&#45;&gt;place:e</title>
<path fill="none" stroke="#000000" d="M186.8814,-591.977C170.4524,-587.5224 163.4004,-574.6341 152,-555.7 124.2134,-509.5514 165.3683,-316.7 111.5,-316.7"/>
<polygon fill="#000000" stroke="#000000" points="193.555,-592.7635 201.0786,-597.2753 197.5275,-593.2318 201.5,-593.7 201.5,-593.7 201.5,-593.7 197.5275,-593.2318 201.9214,-590.1247 193.555,-592.7635 193.555,-592.7635"/>
<ellipse fill="none" stroke="#000000" cx="190.377" cy="-592.3889" rx="3.2" ry="3.2"/>
</g>
<!-- max_min_policy_count -->
<g id="node3" class="node">
<title>max_min_policy_count</title>
<g id="a_node3"><a xlink:href="../../tables/max_min_policy_count.html" xlink:title="max_min_policy_count" target="_top">
<polygon fill="#ffffff" stroke="transparent" points="174.5,-484.2 174.5,-545.2 328.5,-545.2 328.5,-484.2 174.5,-484.2"/>
<polygon fill="#f5f5f5" stroke="transparent" points="174.5,-521.7 174.5,-544.7 328.5,-544.7 328.5,-521.7 174.5,-521.7"/>
<polygon fill="none" stroke="#000000" points="174.5,-521.7 174.5,-544.7 328.5,-544.7 328.5,-521.7 174.5,-521.7"/>
<text text-anchor="start" x="179.0738" y="-530.8" font-family="Helvetica,sans-Serif" font-weight="bold" font-size="11.00" fill="#000000">max_min_policy_count</text>
<text text-anchor="start" x="294.0219" y="-529.8" font-family="Helvetica,sans-Serif" font-size="11.00" fill="#000000">[table]</text>
<polygon fill="none" stroke="#000000" points="174.5,-502.7 174.5,-521.7 328.5,-521.7 328.5,-502.7 174.5,-502.7"/>
<text text-anchor="start" x="177.5" y="-508.8" font-family="Helvetica,sans-Serif" font-size="11.00" fill="#000000">...</text>
<polygon fill="#ffffff" stroke="transparent" points="174.5,-483.7 174.5,-502.7 236.5,-502.7 236.5,-483.7 174.5,-483.7"/>
<polygon fill="none" stroke="#000000" points="174.5,-483.7 174.5,-502.7 236.5,-502.7 236.5,-483.7 174.5,-483.7"/>
<text text-anchor="start" x="177.5" y="-489.8" font-family="Helvetica,sans-Serif" font-size="11.00" fill="#000000">&lt; 2</text>
<polygon fill="#ffffff" stroke="transparent" points="236.5,-483.7 236.5,-502.7 295.5,-502.7 295.5,-483.7 236.5,-483.7"/>
<polygon fill="none" stroke="#000000" points="236.5,-483.7 236.5,-502.7 295.5,-502.7 295.5,-483.7 236.5,-483.7"/>
<text text-anchor="start" x="260.1105" y="-489.8" font-family="Helvetica,sans-Serif" font-size="11.00" fill="#000000">4 rows</text>
<polygon fill="#ffffff" stroke="transparent" points="295.5,-483.7 295.5,-502.7 328.5,-502.7 328.5,-483.7 295.5,-483.7"/>
<polygon fill="none" stroke="#000000" points="295.5,-483.7 295.5,-502.7 328.5,-502.7 328.5,-483.7 295.5,-483.7"/>
<text text-anchor="start" x="319.3862" y="-489.8" font-family="Helvetica,sans-Serif" font-size="11.00" fill="#000000"> &#160;</text>
</a>
</g>
</g>
<!-- max_min_policy_count&#45;&gt;place -->
<g id="edge2" class="edge">
<title>max_min_policy_count:w&#45;&gt;place:e</title>
<path fill="none" stroke="#000000" d="M160.1754,-508.6181C97.0807,-482.8236 197.063,-311.0633 111.5,-316.7"/>
<polygon fill="#000000" stroke="#000000" points="166.679,-510.0173 173.7428,-515.2195 170.5895,-510.8587 174.5,-511.7 174.5,-511.7 174.5,-511.7 170.5895,-510.8587 175.2572,-508.1805 166.679,-510.0173 166.679,-510.0173"/>
<ellipse fill="none" stroke="#000000" cx="163.5505" cy="-509.3442" rx="3.2" ry="3.2"/>
</g>
<!-- max_min_policy_count&#45;&gt;place -->
<g id="edge3" class="edge">
<title>max_min_policy_count:w&#45;&gt;place:e</title>
<path fill="none" stroke="#000000" d="M159.784,-510.7405C97.4957,-495.0594 196.8852,-323.2625 111.5,-316.7"/>
<polygon fill="#000000" stroke="#000000" points="166.5169,-511.1795 174.2658,-515.2924 170.5085,-511.4397 174.5,-511.7 174.5,-511.7 174.5,-511.7 170.5085,-511.4397 174.7342,-508.1076 166.5169,-511.1795 166.5169,-511.1795"/>
<ellipse fill="none" stroke="#000000" cx="163.3237" cy="-510.9712" rx="3.2" ry="3.2"/>
</g>
<!-- observation -->
<g id="node4" class="node">
<title>observation</title>
<g id="a_node4"><a xlink:href="../../tables/observation.html" xlink:title="observation" target="_top">
<polygon fill="#ffffff" stroke="transparent" points="160,-284.7 160,-462.7 343,-462.7 343,-284.7 160,-284.7"/>
<polygon fill="#f5f5f5" stroke="transparent" points="162.5,-437.7 162.5,-460.7 341.5,-460.7 341.5,-437.7 162.5,-437.7"/>
<polygon fill="none" stroke="#000000" points="162.5,-437.7 162.5,-460.7 341.5,-460.7 341.5,-437.7 162.5,-437.7"/>
<text text-anchor="start" x="167.5" y="-446.8" font-family="Helvetica,sans-Serif" font-weight="bold" font-size="11.00" fill="#000000">observation</text>
<text text-anchor="start" x="306.5437" y="-445.8" font-family="Helvetica,sans-Serif" font-size="11.00" fill="#000000">[table]</text>
<polygon fill="none" stroke="#000000" points="162.5,-415.7 162.5,-437.7 251.5,-437.7 251.5,-415.7 162.5,-415.7"/>
<image xlink:href="../../images/primaryKeys.png" width="11px" height="12px" preserveAspectRatio="xMinYMin meet" x="167.5" y="-432.7"/>
<text text-anchor="start" x="182.5" y="-422.8" font-family="Helvetica,sans-Serif" font-size="11.00" fill="#000000">id</text>
<polygon fill="none" stroke="#000000" points="251.5,-415.7 251.5,-437.7 341.5,-437.7 341.5,-415.7 251.5,-415.7"/>
<text text-anchor="start" x="254.5" y="-423.4" font-family="Helvetica,sans-Serif" font-size="11.00" fill="#000000">serial[10]</text>
<polygon fill="none" stroke="#000000" points="162.5,-393.7 162.5,-415.7 251.5,-415.7 251.5,-393.7 162.5,-393.7"/>
<text text-anchor="start" x="182.5" y="-400.8" font-family="Helvetica,sans-Serif" font-size="11.00" fill="#000000">date</text>
<polygon fill="none" stroke="#000000" points="251.5,-393.7 251.5,-415.7 341.5,-415.7 341.5,-393.7 251.5,-393.7"/>
<text text-anchor="start" x="254.5" y="-401.4" font-family="Helvetica,sans-Serif" font-size="11.00" fill="#000000">date[13]</text>
<polygon fill="none" stroke="#000000" points="162.5,-371.7 162.5,-393.7 251.5,-393.7 251.5,-371.7 162.5,-371.7"/>
<text text-anchor="start" x="182.5" y="-378.8" font-family="Helvetica,sans-Serif" font-size="11.00" fill="#000000">metric</text>
<polygon fill="none" stroke="#000000" points="251.5,-371.7 251.5,-393.7 341.5,-393.7 341.5,-371.7 251.5,-371.7"/>
<text text-anchor="start" x="254.5" y="-379.4" font-family="Helvetica,sans-Serif" font-size="11.00" fill="#000000">int4[10]</text>
<polygon fill="none" stroke="#000000" points="162.5,-349.7 162.5,-371.7 251.5,-371.7 251.5,-349.7 162.5,-349.7"/>
<text text-anchor="start" x="182.5" y="-356.8" font-family="Helvetica,sans-Serif" font-size="11.00" fill="#000000">value</text>
<polygon fill="none" stroke="#000000" points="251.5,-349.7 251.5,-371.7 341.5,-371.7 341.5,-349.7 251.5,-349.7"/>
<text text-anchor="start" x="254.0043" y="-357.4" font-family="Helvetica,sans-Serif" font-size="11.00" fill="#000000">text[2147483647]</text>
<polygon fill="none" stroke="#000000" points="162.5,-327.7 162.5,-349.7 251.5,-349.7 251.5,-327.7 162.5,-327.7"/>
<text text-anchor="start" x="182.5" y="-334.8" font-family="Helvetica,sans-Serif" font-size="11.00" fill="#000000">source_id</text>
<polygon fill="none" stroke="#000000" points="251.5,-327.7 251.5,-349.7 341.5,-349.7 341.5,-327.7 251.5,-327.7"/>
<text text-anchor="start" x="254.0043" y="-335.4" font-family="Helvetica,sans-Serif" font-size="11.00" fill="#000000">text[2147483647]</text>
<polygon fill="#ffffff" stroke="transparent" points="162.5,-305.7 162.5,-327.7 251.5,-327.7 251.5,-305.7 162.5,-305.7"/>
<polygon fill="none" stroke="#000000" points="162.5,-305.7 162.5,-327.7 251.5,-327.7 251.5,-305.7 162.5,-305.7"/>
<image xlink:href="../../images/foreignKeys.png" width="11px" height="12px" preserveAspectRatio="xMinYMin meet" x="167.5" y="-322.7"/>
<text text-anchor="start" x="182.5" y="-312.8" font-family="Helvetica,sans-Serif" font-size="11.00" fill="#000000">place</text>
<polygon fill="none" stroke="#000000" points="251.5,-305.7 251.5,-327.7 341.5,-327.7 341.5,-305.7 251.5,-305.7"/>
<text text-anchor="start" x="254.5" y="-313.4" font-family="Helvetica,sans-Serif" font-size="11.00" fill="#000000">int4[10]</text>
<polygon fill="#ffffff" stroke="transparent" points="162.5,-286.7 162.5,-305.7 184.5,-305.7 184.5,-286.7 162.5,-286.7"/>
<polygon fill="none" stroke="#000000" points="162.5,-286.7 162.5,-305.7 184.5,-305.7 184.5,-286.7 162.5,-286.7"/>
<text text-anchor="start" x="165.5" y="-292.8" font-family="Helvetica,sans-Serif" font-size="11.00" fill="#000000">&lt; 1</text>
<polygon fill="#ffffff" stroke="transparent" points="184.5,-286.7 184.5,-305.7 251.5,-305.7 251.5,-286.7 184.5,-286.7"/>
<polygon fill="none" stroke="#000000" points="184.5,-286.7 184.5,-305.7 251.5,-305.7 251.5,-286.7 184.5,-286.7"/>
<text text-anchor="start" x="188.594" y="-292.8" font-family="Helvetica,sans-Serif" font-size="11.00" fill="#000000">62,656 rows</text>
<polygon fill="#ffffff" stroke="transparent" points="251.5,-286.7 251.5,-305.7 341.5,-305.7 341.5,-286.7 251.5,-286.7"/>
<polygon fill="none" stroke="#000000" points="251.5,-286.7 251.5,-305.7 341.5,-305.7 341.5,-286.7 251.5,-286.7"/>
<text text-anchor="start" x="322.9053" y="-292.8" font-family="Helvetica,sans-Serif" font-size="11.00" fill="#000000">0 &gt;</text>
<polygon fill="none" stroke="#000000" stroke-width="2" points="161,-285.7 161,-461.7 342,-461.7 342,-285.7 161,-285.7"/>
</a>
</g>
</g>
<!-- observation&#45;&gt;place -->
<g id="edge4" class="edge">
<title>observation:w&#45;&gt;place:e</title>
<path fill="none" stroke="#000000" d="M147.776,-316.7C135.7815,-316.7 128.3229,-316.7 111.5,-316.7"/>
<polygon fill="#000000" stroke="#000000" points="154.5,-316.7001 162.5,-320.3 158.5,-316.7 162.5,-316.7 162.5,-316.7 162.5,-316.7 158.5,-316.7 162.5,-313.1 154.5,-316.7001 154.5,-316.7001"/>
<ellipse fill="none" stroke="#000000" cx="151.3" cy="-316.7001" rx="3.2" ry="3.2"/>
</g>
<!-- place_policy_number -->
<g id="node5" class="node">
<title>place_policy_number</title>
<g id="a_node5"><a xlink:href="../../tables/place_policy_number.html" xlink:title="place_policy_number" target="_top">
<polygon fill="#ffffff" stroke="transparent" points="178.5,-202.2 178.5,-263.2 324.5,-263.2 324.5,-202.2 178.5,-202.2"/>
<polygon fill="#f5f5f5" stroke="transparent" points="178.5,-239.7 178.5,-262.7 324.5,-262.7 324.5,-239.7 178.5,-239.7"/>
<polygon fill="none" stroke="#000000" points="178.5,-239.7 178.5,-262.7 324.5,-262.7 324.5,-239.7 178.5,-239.7"/>
<text text-anchor="start" x="183.0448" y="-248.8" font-family="Helvetica,sans-Serif" font-weight="bold" font-size="11.00" fill="#000000">place_policy_number</text>
<text text-anchor="start" x="290.0219" y="-247.8" font-family="Helvetica,sans-Serif" font-size="11.00" fill="#000000">[table]</text>
<polygon fill="none" stroke="#000000" points="178.5,-220.7 178.5,-239.7 324.5,-239.7 324.5,-220.7 178.5,-220.7"/>
<text text-anchor="start" x="181.5" y="-226.8" font-family="Helvetica,sans-Serif" font-size="11.00" fill="#000000">...</text>
<polygon fill="#ffffff" stroke="transparent" points="178.5,-201.7 178.5,-220.7 223.5,-220.7 223.5,-201.7 178.5,-201.7"/>
<polygon fill="none" stroke="#000000" points="178.5,-201.7 178.5,-220.7 223.5,-220.7 223.5,-201.7 178.5,-201.7"/>
<text text-anchor="start" x="181.5" y="-207.8" font-family="Helvetica,sans-Serif" font-size="11.00" fill="#000000">&lt; 2</text>
<polygon fill="#ffffff" stroke="transparent" points="223.5,-201.7 223.5,-220.7 300.5,-220.7 300.5,-201.7 223.5,-201.7"/>
<polygon fill="none" stroke="#000000" points="223.5,-201.7 223.5,-220.7 300.5,-220.7 300.5,-201.7 223.5,-201.7"/>
<text text-anchor="start" x="237.594" y="-207.8" font-family="Helvetica,sans-Serif" font-size="11.00" fill="#000000">32,265 rows</text>
<polygon fill="#ffffff" stroke="transparent" points="300.5,-201.7 300.5,-220.7 324.5,-220.7 324.5,-201.7 300.5,-201.7"/>
<polygon fill="none" stroke="#000000" points="300.5,-201.7 300.5,-220.7 324.5,-220.7 324.5,-201.7 300.5,-201.7"/>
<text text-anchor="start" x="315.3862" y="-207.8" font-family="Helvetica,sans-Serif" font-size="11.00" fill="#000000"> &#160;</text>
</a>
</g>
</g>
<!-- place_policy_number&#45;&gt;place -->
<g id="edge5" class="edge">
<title>place_policy_number:w&#45;&gt;place:e</title>
<path fill="none" stroke="#000000" d="M164.3584,-233.0043C135.7792,-248.8959 154.5848,-316.7 111.5,-316.7"/>
<polygon fill="#000000" stroke="#000000" points="170.7098,-231.5203 179.3191,-233.2056 174.6049,-230.6101 178.5,-229.7 178.5,-229.7 178.5,-229.7 174.6049,-230.6101 177.6809,-226.1944 170.7098,-231.5203 170.7098,-231.5203"/>
<ellipse fill="none" stroke="#000000" cx="167.5938" cy="-232.2484" rx="3.2" ry="3.2"/>
</g>
<!-- place_to_plan -->
<g id="node6" class="node">
<title>place_to_plan</title>
<g id="a_node6"><a xlink:href="../../tables/place_to_plan.html" xlink:title="place_to_plan" target="_top">
<polygon fill="#ffffff" stroke="transparent" points="196,-120.2 196,-181.2 307,-181.2 307,-120.2 196,-120.2"/>
<polygon fill="#f5f5f5" stroke="transparent" points="196.5,-157.7 196.5,-180.7 307.5,-180.7 307.5,-157.7 196.5,-157.7"/>
<polygon fill="none" stroke="#000000" points="196.5,-157.7 196.5,-180.7 307.5,-180.7 307.5,-157.7 196.5,-157.7"/>
<text text-anchor="start" x="201.2636" y="-166.8" font-family="Helvetica,sans-Serif" font-weight="bold" font-size="11.00" fill="#000000">place_to_plan</text>
<text text-anchor="start" x="273.0219" y="-165.8" font-family="Helvetica,sans-Serif" font-size="11.00" fill="#000000">[table]</text>
<polygon fill="none" stroke="#000000" points="196.5,-138.7 196.5,-157.7 307.5,-157.7 307.5,-138.7 196.5,-138.7"/>
<text text-anchor="start" x="199.5" y="-144.8" font-family="Helvetica,sans-Serif" font-size="11.00" fill="#000000">...</text>
<polygon fill="#ffffff" stroke="transparent" points="196.5,-119.7 196.5,-138.7 231.5,-138.7 231.5,-119.7 196.5,-119.7"/>
<polygon fill="none" stroke="#000000" points="196.5,-119.7 196.5,-138.7 231.5,-138.7 231.5,-119.7 196.5,-119.7"/>
<text text-anchor="start" x="199.5" y="-125.8" font-family="Helvetica,sans-Serif" font-size="11.00" fill="#000000">&lt; 2</text>
<polygon fill="#ffffff" stroke="transparent" points="231.5,-119.7 231.5,-138.7 288.5,-138.7 288.5,-119.7 231.5,-119.7"/>
<polygon fill="none" stroke="#000000" points="231.5,-119.7 231.5,-138.7 288.5,-138.7 288.5,-119.7 231.5,-119.7"/>
<text text-anchor="start" x="240.8807" y="-125.8" font-family="Helvetica,sans-Serif" font-size="11.00" fill="#000000">493 rows</text>
<polygon fill="#ffffff" stroke="transparent" points="288.5,-119.7 288.5,-138.7 307.5,-138.7 307.5,-119.7 288.5,-119.7"/>
<polygon fill="none" stroke="#000000" points="288.5,-119.7 288.5,-138.7 307.5,-138.7 307.5,-119.7 288.5,-119.7"/>
<text text-anchor="start" x="298.3862" y="-125.8" font-family="Helvetica,sans-Serif" font-size="11.00" fill="#000000"> &#160;</text>
</a>
</g>
</g>
<!-- place_to_plan&#45;&gt;place -->
<g id="edge6" class="edge">
<title>place_to_plan:w&#45;&gt;place:e</title>
<path fill="none" stroke="#000000" d="M181.9735,-150.2532C167.2461,-156.4221 163.512,-173.0153 152,-191.7 121.3669,-241.4195 169.8988,-316.7 111.5,-316.7"/>
<polygon fill="#000000" stroke="#000000" points="188.6208,-149.0849 197.1232,-151.2456 192.5604,-148.3925 196.5,-147.7 196.5,-147.7 196.5,-147.7 192.5604,-148.3925 195.8768,-144.1544 188.6208,-149.0849 188.6208,-149.0849"/>
<ellipse fill="none" stroke="#000000" cx="185.4691" cy="-149.6389" rx="3.2" ry="3.2"/>
</g>
<!-- place_to_policy -->
<g id="node7" class="node">
<title>place_to_policy</title>
<g id="a_node7"><a xlink:href="../../tables/place_to_policy.html" xlink:title="place_to_policy" target="_top">
<polygon fill="#ffffff" stroke="transparent" points="192.5,-38.2 192.5,-99.2 310.5,-99.2 310.5,-38.2 192.5,-38.2"/>
<polygon fill="#f5f5f5" stroke="transparent" points="192.5,-75.7 192.5,-98.7 310.5,-98.7 310.5,-75.7 192.5,-75.7"/>
<polygon fill="none" stroke="#000000" points="192.5,-75.7 192.5,-98.7 310.5,-98.7 310.5,-75.7 192.5,-75.7"/>
<text text-anchor="start" x="197.1006" y="-84.8" font-family="Helvetica,sans-Serif" font-weight="bold" font-size="11.00" fill="#000000">place_to_policy</text>
<text text-anchor="start" x="276.0219" y="-83.8" font-family="Helvetica,sans-Serif" font-size="11.00" fill="#000000">[table]</text>
<polygon fill="none" stroke="#000000" points="192.5,-56.7 192.5,-75.7 310.5,-75.7 310.5,-56.7 192.5,-56.7"/>
<text text-anchor="start" x="195.5" y="-62.8" font-family="Helvetica,sans-Serif" font-size="11.00" fill="#000000">...</text>
<polygon fill="#ffffff" stroke="transparent" points="192.5,-37.7 192.5,-56.7 219.5,-56.7 219.5,-37.7 192.5,-37.7"/>
<polygon fill="none" stroke="#000000" points="192.5,-37.7 192.5,-56.7 219.5,-56.7 219.5,-37.7 192.5,-37.7"/>
<text text-anchor="start" x="195.5" y="-43.8" font-family="Helvetica,sans-Serif" font-size="11.00" fill="#000000">&lt; 2</text>
<polygon fill="#ffffff" stroke="transparent" points="219.5,-37.7 219.5,-56.7 294.5,-56.7 294.5,-37.7 219.5,-37.7"/>
<polygon fill="none" stroke="#000000" points="219.5,-37.7 219.5,-56.7 294.5,-56.7 294.5,-37.7 219.5,-37.7"/>
<text text-anchor="start" x="225.4791" y="-43.8" font-family="Helvetica,sans-Serif" font-size="11.00" fill="#000000">999,172 rows</text>
<polygon fill="#ffffff" stroke="transparent" points="294.5,-37.7 294.5,-56.7 310.5,-56.7 310.5,-37.7 294.5,-37.7"/>
<polygon fill="none" stroke="#000000" points="294.5,-37.7 294.5,-56.7 310.5,-56.7 310.5,-37.7 294.5,-37.7"/>
<text text-anchor="start" x="301.3862" y="-43.8" font-family="Helvetica,sans-Serif" font-size="11.00" fill="#000000"> &#160;</text>
</a>
</g>
</g>
<!-- place_to_policy&#45;&gt;place -->
<g id="edge7" class="edge">
<title>place_to_policy:w&#45;&gt;place:e</title>
<path fill="none" stroke="#000000" d="M178.2343,-68.4358C164.5999,-74.7394 161.3782,-91.1739 152,-109.7 130.8305,-151.5193 158.3722,-316.7 111.5,-316.7"/>
<polygon fill="#000000" stroke="#000000" points="184.6432,-67.2068 193.178,-69.2356 188.5716,-66.4534 192.5,-65.7 192.5,-65.7 192.5,-65.7 188.5716,-66.4534 191.822,-62.1644 184.6432,-67.2068 184.6432,-67.2068"/>
<ellipse fill="none" stroke="#000000" cx="181.5004" cy="-67.8095" rx="3.2" ry="3.2"/>
</g>
</g>
</svg>
