<?xml version="1.0" encoding="UTF-8" standalone="no"?>
<!DOCTYPE svg PUBLIC "-//W3C//DTD SVG 1.1//EN"
 "http://www.w3.org/Graphics/SVG/1.1/DTD/svg11.dtd">
<!-- Generated by graphviz version 2.40.1 (20161225.0304)
 -->
<!-- Title: oneDegreeRelationshipsDiagram Pages: 1 -->
<svg width="359pt" height="311pt"
 viewBox="0.00 0.00 359.00 310.70" xmlns="http://www.w3.org/2000/svg" xmlns:xlink="http://www.w3.org/1999/xlink">
<g id="graph0" class="graph" transform="scale(1 1) rotate(0) translate(4 306.7)">
<title>oneDegreeRelationshipsDiagram</title>
<polygon fill="#ffffff" stroke="transparent" points="-4,4 -4,-306.7 355,-306.7 355,4 -4,4"/>
<text text-anchor="middle" x="72.4936" y="-7.3" font-family="Helvetica,sans-Serif" font-size="11.00" fill="#000000">Generated by SchemaSpy</text>
<!-- observation -->
<g id="node1" class="node">
<title>observation</title>
<g id="a_node1"><a xlink:href="../../tables/observation.html" xlink:title="observation" target="_top">
<polygon fill="#ffffff" stroke="transparent" points="160,-120.7 160,-298.7 343,-298.7 343,-120.7 160,-120.7"/>
<polygon fill="#f5f5f5" stroke="transparent" points="162.5,-273.7 162.5,-296.7 341.5,-296.7 341.5,-273.7 162.5,-273.7"/>
<polygon fill="none" stroke="#000000" points="162.5,-273.7 162.5,-296.7 341.5,-296.7 341.5,-273.7 162.5,-273.7"/>
<text text-anchor="start" x="167.5" y="-282.8" font-family="Helvetica,sans-Serif" font-weight="bold" font-size="11.00" fill="#000000">observation</text>
<text text-anchor="start" x="306.5437" y="-281.8" font-family="Helvetica,sans-Serif" font-size="11.00" fill="#000000">[table]</text>
<polygon fill="none" stroke="#000000" points="162.5,-251.7 162.5,-273.7 251.5,-273.7 251.5,-251.7 162.5,-251.7"/>
<image xlink:href="../../images/primaryKeys.png" width="11px" height="12px" preserveAspectRatio="xMinYMin meet" x="167.5" y="-268.7"/>
<text text-anchor="start" x="182.5" y="-258.8" font-family="Helvetica,sans-Serif" font-size="11.00" fill="#000000">id</text>
<polygon fill="none" stroke="#000000" points="251.5,-251.7 251.5,-273.7 341.5,-273.7 341.5,-251.7 251.5,-251.7"/>
<text text-anchor="start" x="254.5" y="-259.4" font-family="Helvetica,sans-Serif" font-size="11.00" fill="#000000">serial[10]</text>
<polygon fill="none" stroke="#000000" points="162.5,-229.7 162.5,-251.7 251.5,-251.7 251.5,-229.7 162.5,-229.7"/>
<text text-anchor="start" x="182.5" y="-236.8" font-family="Helvetica,sans-Serif" font-size="11.00" fill="#000000">date</text>
<polygon fill="none" stroke="#000000" points="251.5,-229.7 251.5,-251.7 341.5,-251.7 341.5,-229.7 251.5,-229.7"/>
<text text-anchor="start" x="254.5" y="-237.4" font-family="Helvetica,sans-Serif" font-size="11.00" fill="#000000">date[13]</text>
<polygon fill="none" stroke="#000000" points="162.5,-207.7 162.5,-229.7 251.5,-229.7 251.5,-207.7 162.5,-207.7"/>
<text text-anchor="start" x="182.5" y="-214.8" font-family="Helvetica,sans-Serif" font-size="11.00" fill="#000000">metric</text>
<polygon fill="none" stroke="#000000" points="251.5,-207.7 251.5,-229.7 341.5,-229.7 341.5,-207.7 251.5,-207.7"/>
<text text-anchor="start" x="254.5" y="-215.4" font-family="Helvetica,sans-Serif" font-size="11.00" fill="#000000">int4[10]</text>
<polygon fill="none" stroke="#000000" points="162.5,-185.7 162.5,-207.7 251.5,-207.7 251.5,-185.7 162.5,-185.7"/>
<text text-anchor="start" x="182.5" y="-192.8" font-family="Helvetica,sans-Serif" font-size="11.00" fill="#000000">value</text>
<polygon fill="none" stroke="#000000" points="251.5,-185.7 251.5,-207.7 341.5,-207.7 341.5,-185.7 251.5,-185.7"/>
<text text-anchor="start" x="254.0043" y="-193.4" font-family="Helvetica,sans-Serif" font-size="11.00" fill="#000000">text[2147483647]</text>
<polygon fill="none" stroke="#000000" points="162.5,-163.7 162.5,-185.7 251.5,-185.7 251.5,-163.7 162.5,-163.7"/>
<text text-anchor="start" x="182.5" y="-170.8" font-family="Helvetica,sans-Serif" font-size="11.00" fill="#000000">source_id</text>
<polygon fill="none" stroke="#000000" points="251.5,-163.7 251.5,-185.7 341.5,-185.7 341.5,-163.7 251.5,-163.7"/>
<text text-anchor="start" x="254.0043" y="-171.4" font-family="Helvetica,sans-Serif" font-size="11.00" fill="#000000">text[2147483647]</text>
<polygon fill="#ffffff" stroke="transparent" points="162.5,-141.7 162.5,-163.7 251.5,-163.7 251.5,-141.7 162.5,-141.7"/>
<polygon fill="none" stroke="#000000" points="162.5,-141.7 162.5,-163.7 251.5,-163.7 251.5,-141.7 162.5,-141.7"/>
<image xlink:href="../../images/foreignKeys.png" width="11px" height="12px" preserveAspectRatio="xMinYMin meet" x="167.5" y="-158.7"/>
<text text-anchor="start" x="182.5" y="-148.8" font-family="Helvetica,sans-Serif" font-size="11.00" fill="#000000">place</text>
<polygon fill="none" stroke="#000000" points="251.5,-141.7 251.5,-163.7 341.5,-163.7 341.5,-141.7 251.5,-141.7"/>
<text text-anchor="start" x="254.5" y="-149.4" font-family="Helvetica,sans-Serif" font-size="11.00" fill="#000000">int4[10]</text>
<polygon fill="#ffffff" stroke="transparent" points="162.5,-122.7 162.5,-141.7 184.5,-141.7 184.5,-122.7 162.5,-122.7"/>
<polygon fill="none" stroke="#000000" points="162.5,-122.7 162.5,-141.7 184.5,-141.7 184.5,-122.7 162.5,-122.7"/>
<text text-anchor="start" x="165.5" y="-128.8" font-family="Helvetica,sans-Serif" font-size="11.00" fill="#000000">&lt; 1</text>
<polygon fill="#ffffff" stroke="transparent" points="184.5,-122.7 184.5,-141.7 251.5,-141.7 251.5,-122.7 184.5,-122.7"/>
<polygon fill="none" stroke="#000000" points="184.5,-122.7 184.5,-141.7 251.5,-141.7 251.5,-122.7 184.5,-122.7"/>
<text text-anchor="start" x="188.594" y="-128.8" font-family="Helvetica,sans-Serif" font-size="11.00" fill="#000000">62,656 rows</text>
<polygon fill="#ffffff" stroke="transparent" points="251.5,-122.7 251.5,-141.7 341.5,-141.7 341.5,-122.7 251.5,-122.7"/>
<polygon fill="none" stroke="#000000" points="251.5,-122.7 251.5,-141.7 341.5,-141.7 341.5,-122.7 251.5,-122.7"/>
<text text-anchor="start" x="322.9053" y="-128.8" font-family="Helvetica,sans-Serif" font-size="11.00" fill="#000000">0 &gt;</text>
<polygon fill="none" stroke="#000000" stroke-width="2" points="161,-121.7 161,-297.7 342,-297.7 342,-121.7 161,-121.7"/>
</a>
</g>
</g>
<!-- place -->
<g id="node2" class="node">
<title>place</title>
<g id="a_node2"><a xlink:href="../../tables/place.html" xlink:title="place" target="_top">
<polygon fill="#ffffff" stroke="transparent" points="8,-38.2 8,-187.2 111,-187.2 111,-38.2 8,-38.2"/>
<polygon fill="#f5f5f5" stroke="transparent" points="8.5,-163.7 8.5,-186.7 111.5,-186.7 111.5,-163.7 8.5,-163.7"/>
<polygon fill="none" stroke="#000000" points="8.5,-163.7 8.5,-186.7 111.5,-186.7 111.5,-163.7 8.5,-163.7"/>
<text text-anchor="start" x="13.5" y="-172.8" font-family="Helvetica,sans-Serif" font-weight="bold" font-size="11.00" fill="#000000">place</text>
<text text-anchor="start" x="76.5437" y="-171.8" font-family="Helvetica,sans-Serif" font-size="11.00" fill="#000000">[table]</text>
<polygon fill="none" stroke="#000000" points="8.5,-141.7 8.5,-163.7 111.5,-163.7 111.5,-141.7 8.5,-141.7"/>
<image xlink:href="../../images/primaryKeys.png" width="11px" height="12px" preserveAspectRatio="xMinYMin meet" x="13.5" y="-158.7"/>
<text text-anchor="start" x="28.5" y="-148.8" font-family="Helvetica,sans-Serif" font-size="11.00" fill="#000000">id</text>
<polygon fill="#ffffff" stroke="transparent" points="8.5,-119.7 8.5,-141.7 111.5,-141.7 111.5,-119.7 8.5,-119.7"/>
<polygon fill="none" stroke="#000000" points="8.5,-119.7 8.5,-141.7 111.5,-141.7 111.5,-119.7 8.5,-119.7"/>
<text text-anchor="start" x="28.5" y="-126.8" font-family="Helvetica,sans-Serif" font-size="11.00" fill="#000000">level</text>
<polygon fill="#ffffff" stroke="transparent" points="8.5,-97.7 8.5,-119.7 111.5,-119.7 111.5,-97.7 8.5,-97.7"/>
<polygon fill="none" stroke="#000000" points="8.5,-97.7 8.5,-119.7 111.5,-119.7 111.5,-97.7 8.5,-97.7"/>
<text text-anchor="start" x="28.5" y="-104.8" font-family="Helvetica,sans-Serif" font-size="11.00" fill="#000000">iso3</text>
<polygon fill="#ffffff" stroke="transparent" points="8.5,-75.7 8.5,-97.7 111.5,-97.7 111.5,-75.7 8.5,-75.7"/>
<polygon fill="none" stroke="#000000" points="8.5,-75.7 8.5,-97.7 111.5,-97.7 111.5,-75.7 8.5,-75.7"/>
<text text-anchor="start" x="28.5" y="-82.8" font-family="Helvetica,sans-Serif" font-size="11.00" fill="#000000">ansi_fips</text>
<polygon fill="none" stroke="#000000" points="8.5,-56.7 8.5,-75.7 111.5,-75.7 111.5,-56.7 8.5,-56.7"/>
<text text-anchor="start" x="11.5" y="-62.8" font-family="Helvetica,sans-Serif" font-size="11.00" fill="#000000">...</text>
<polygon fill="#ffffff" stroke="transparent" points="8.5,-37.7 8.5,-56.7 25.5,-56.7 25.5,-37.7 8.5,-37.7"/>
<polygon fill="none" stroke="#000000" points="8.5,-37.7 8.5,-56.7 25.5,-56.7 25.5,-37.7 8.5,-37.7"/>
<text text-anchor="start" x="11.5" y="-43.8" font-family="Helvetica,sans-Serif" font-size="11.00" fill="#000000"> &#160;</text>
<polygon fill="#ffffff" stroke="transparent" points="25.5,-37.7 25.5,-56.7 87.5,-56.7 87.5,-37.7 25.5,-37.7"/>
<polygon fill="none" stroke="#000000" points="25.5,-37.7 25.5,-56.7 87.5,-56.7 87.5,-37.7 25.5,-37.7"/>
<text text-anchor="start" x="30.7089" y="-43.8" font-family="Helvetica,sans-Serif" font-size="11.00" fill="#000000">7,645 rows</text>
<polygon fill="#ffffff" stroke="transparent" points="87.5,-37.7 87.5,-56.7 111.5,-56.7 111.5,-37.7 87.5,-37.7"/>
<polygon fill="none" stroke="#000000" points="87.5,-37.7 87.5,-56.7 111.5,-56.7 111.5,-37.7 87.5,-37.7"/>
<text text-anchor="start" x="92.9053" y="-43.8" font-family="Helvetica,sans-Serif" font-size="11.00" fill="#000000">7 &gt;</text>
</a>
</g>
</g>
<!-- observation&#45;&gt;place -->
<g id="edge1" class="edge">
<title>observation:w&#45;&gt;place:e</title>
<path fill="none" stroke="#000000" d="M147.776,-152.7C135.7815,-152.7 128.3229,-152.7 111.5,-152.7"/>
<polygon fill="#000000" stroke="#000000" points="154.5,-152.7001 162.5,-156.3 158.5,-152.7 162.5,-152.7 162.5,-152.7 162.5,-152.7 158.5,-152.7 162.5,-149.1 154.5,-152.7001 154.5,-152.7001"/>
<ellipse fill="none" stroke="#000000" cx="151.3" cy="-152.7001" rx="3.2" ry="3.2"/>
</g>
</g>
</svg>
