<?xml version="1.0" encoding="UTF-8" standalone="no"?>
<!DOCTYPE svg PUBLIC "-//W3C//DTD SVG 1.1//EN"
 "http://www.w3.org/Graphics/SVG/1.1/DTD/svg11.dtd">
<!-- Generated by graphviz version 2.40.1 (20161225.0304)
 -->
<!-- Title: twoDegreesRelationshipsDiagram Pages: 1 -->
<svg width="555pt" height="593pt"
 viewBox="0.00 0.00 555.00 593.20" xmlns="http://www.w3.org/2000/svg" xmlns:xlink="http://www.w3.org/1999/xlink">
<g id="graph0" class="graph" transform="scale(1 1) rotate(0) translate(4 589.2)">
<title>twoDegreesRelationshipsDiagram</title>
<polygon fill="#ffffff" stroke="transparent" points="-4,4 -4,-589.2 551,-589.2 551,4 -4,4"/>
<text text-anchor="middle" x="72.4936" y="-7.3" font-family="Helvetica,sans-Serif" font-size="11.00" fill="#000000">Generated by SchemaSpy</text>
<!-- auth_entity -->
<g id="node1" class="node">
<title>auth_entity</title>
<g id="a_node1"><a xlink:href="../../tables/auth_entity.html" xlink:title="auth_entity" target="_top">
<polygon fill="#ffffff" stroke="transparent" points="201,-410.2 201,-471.2 302,-471.2 302,-410.2 201,-410.2"/>
<polygon fill="#f5f5f5" stroke="transparent" points="201.5,-447.7 201.5,-470.7 302.5,-470.7 302.5,-447.7 201.5,-447.7"/>
<polygon fill="none" stroke="#000000" points="201.5,-447.7 201.5,-470.7 302.5,-470.7 302.5,-447.7 201.5,-447.7"/>
<text text-anchor="start" x="206.5" y="-456.8" font-family="Helvetica,sans-Serif" font-weight="bold" font-size="11.00" fill="#000000">auth_entity</text>
<text text-anchor="start" x="267.5437" y="-455.8" font-family="Helvetica,sans-Serif" font-size="11.00" fill="#000000">[table]</text>
<polygon fill="none" stroke="#000000" points="201.5,-428.7 201.5,-447.7 302.5,-447.7 302.5,-428.7 201.5,-428.7"/>
<text text-anchor="start" x="204.5" y="-434.8" font-family="Helvetica,sans-Serif" font-size="11.00" fill="#000000">...</text>
<polygon fill="#ffffff" stroke="transparent" points="201.5,-409.7 201.5,-428.7 222.5,-428.7 222.5,-409.7 201.5,-409.7"/>
<polygon fill="none" stroke="#000000" points="201.5,-409.7 201.5,-428.7 222.5,-428.7 222.5,-409.7 201.5,-409.7"/>
<text text-anchor="start" x="204.2027" y="-415.8" font-family="Helvetica,sans-Serif" font-size="11.00" fill="#000000">&lt; 1</text>
<polygon fill="#ffffff" stroke="transparent" points="222.5,-409.7 222.5,-428.7 281.5,-428.7 281.5,-409.7 222.5,-409.7"/>
<polygon fill="none" stroke="#000000" points="222.5,-409.7 222.5,-428.7 281.5,-428.7 281.5,-409.7 222.5,-409.7"/>
<text text-anchor="start" x="225.1045" y="-415.8" font-family="Helvetica,sans-Serif" font-size="11.00" fill="#000000">2,895 rows</text>
<polygon fill="#ffffff" stroke="transparent" points="281.5,-409.7 281.5,-428.7 302.5,-428.7 302.5,-409.7 281.5,-409.7"/>
<polygon fill="none" stroke="#000000" points="281.5,-409.7 281.5,-428.7 302.5,-428.7 302.5,-409.7 281.5,-409.7"/>
<text text-anchor="start" x="284.2027" y="-415.8" font-family="Helvetica,sans-Serif" font-size="11.00" fill="#000000">3 &gt;</text>
</a>
</g>
</g>
<!-- place -->
<g id="node2" class="node">
<title>place</title>
<g id="a_node2"><a xlink:href="../../tables/place.html" xlink:title="place" target="_top">
<polygon fill="#ffffff" stroke="transparent" points="8,-241.2 8,-390.2 111,-390.2 111,-241.2 8,-241.2"/>
<polygon fill="#f5f5f5" stroke="transparent" points="8.5,-366.7 8.5,-389.7 111.5,-389.7 111.5,-366.7 8.5,-366.7"/>
<polygon fill="none" stroke="#000000" points="8.5,-366.7 8.5,-389.7 111.5,-389.7 111.5,-366.7 8.5,-366.7"/>
<text text-anchor="start" x="13.5" y="-375.8" font-family="Helvetica,sans-Serif" font-weight="bold" font-size="11.00" fill="#000000">place</text>
<text text-anchor="start" x="76.5437" y="-374.8" font-family="Helvetica,sans-Serif" font-size="11.00" fill="#000000">[table]</text>
<polygon fill="none" stroke="#000000" points="8.5,-344.7 8.5,-366.7 111.5,-366.7 111.5,-344.7 8.5,-344.7"/>
<image xlink:href="../../images/primaryKeys.png" width="11px" height="12px" preserveAspectRatio="xMinYMin meet" x="13.5" y="-361.7"/>
<text text-anchor="start" x="28.5" y="-351.8" font-family="Helvetica,sans-Serif" font-size="11.00" fill="#000000">id</text>
<polygon fill="#ffffff" stroke="transparent" points="8.5,-322.7 8.5,-344.7 111.5,-344.7 111.5,-322.7 8.5,-322.7"/>
<polygon fill="none" stroke="#000000" points="8.5,-322.7 8.5,-344.7 111.5,-344.7 111.5,-322.7 8.5,-322.7"/>
<text text-anchor="start" x="28.5" y="-329.8" font-family="Helvetica,sans-Serif" font-size="11.00" fill="#000000">level</text>
<polygon fill="#ffffff" stroke="transparent" points="8.5,-300.7 8.5,-322.7 111.5,-322.7 111.5,-300.7 8.5,-300.7"/>
<polygon fill="none" stroke="#000000" points="8.5,-300.7 8.5,-322.7 111.5,-322.7 111.5,-300.7 8.5,-300.7"/>
<text text-anchor="start" x="28.5" y="-307.8" font-family="Helvetica,sans-Serif" font-size="11.00" fill="#000000">iso3</text>
<polygon fill="#ffffff" stroke="transparent" points="8.5,-278.7 8.5,-300.7 111.5,-300.7 111.5,-278.7 8.5,-278.7"/>
<polygon fill="none" stroke="#000000" points="8.5,-278.7 8.5,-300.7 111.5,-300.7 111.5,-278.7 8.5,-278.7"/>
<text text-anchor="start" x="28.5" y="-285.8" font-family="Helvetica,sans-Serif" font-size="11.00" fill="#000000">ansi_fips</text>
<polygon fill="none" stroke="#000000" points="8.5,-259.7 8.5,-278.7 111.5,-278.7 111.5,-259.7 8.5,-259.7"/>
<text text-anchor="start" x="11.5" y="-265.8" font-family="Helvetica,sans-Serif" font-size="11.00" fill="#000000">...</text>
<polygon fill="#ffffff" stroke="transparent" points="8.5,-240.7 8.5,-259.7 25.5,-259.7 25.5,-240.7 8.5,-240.7"/>
<polygon fill="none" stroke="#000000" points="8.5,-240.7 8.5,-259.7 25.5,-259.7 25.5,-240.7 8.5,-240.7"/>
<text text-anchor="start" x="11.5" y="-246.8" font-family="Helvetica,sans-Serif" font-size="11.00" fill="#000000"> &#160;</text>
<polygon fill="#ffffff" stroke="transparent" points="25.5,-240.7 25.5,-259.7 87.5,-259.7 87.5,-240.7 25.5,-240.7"/>
<polygon fill="none" stroke="#000000" points="25.5,-240.7 25.5,-259.7 87.5,-259.7 87.5,-240.7 25.5,-240.7"/>
<text text-anchor="start" x="30.7089" y="-246.8" font-family="Helvetica,sans-Serif" font-size="11.00" fill="#000000">7,645 rows</text>
<polygon fill="#ffffff" stroke="transparent" points="87.5,-240.7 87.5,-259.7 111.5,-259.7 111.5,-240.7 87.5,-240.7"/>
<polygon fill="none" stroke="#000000" points="87.5,-240.7 87.5,-259.7 111.5,-259.7 111.5,-240.7 87.5,-240.7"/>
<text text-anchor="start" x="92.9053" y="-246.8" font-family="Helvetica,sans-Serif" font-size="11.00" fill="#000000">7 &gt;</text>
</a>
</g>
</g>
<!-- auth_entity&#45;&gt;place -->
<g id="edge1" class="edge">
<title>auth_entity:w&#45;&gt;place:e</title>
<path fill="none" stroke="#000000" d="M187.0498,-435.3123C172.3645,-429.5901 168.15,-414.4688 152,-399.7 132.3861,-381.7636 138.0786,-355.7 111.5,-355.7"/>
<polygon fill="#000000" stroke="#000000" points="193.607,-436.3958 200.9131,-441.2518 197.5535,-437.0479 201.5,-437.7 201.5,-437.7 201.5,-437.7 197.5535,-437.0479 202.0869,-434.1482 193.607,-436.3958 193.607,-436.3958"/>
<ellipse fill="none" stroke="#000000" cx="190.4498" cy="-435.8741" rx="3.2" ry="3.2"/>
</g>
<!-- auth_entity_to_plan -->
<g id="node3" class="node">
<title>auth_entity_to_plan</title>
<g id="a_node3"><a xlink:href="../../tables/auth_entity_to_plan.html" xlink:title="auth_entity_to_plan" target="_top">
<polygon fill="#ffffff" stroke="transparent" points="396.5,-261.2 396.5,-322.2 534.5,-322.2 534.5,-261.2 396.5,-261.2"/>
<polygon fill="#f5f5f5" stroke="transparent" points="396.5,-298.7 396.5,-321.7 534.5,-321.7 534.5,-298.7 396.5,-298.7"/>
<polygon fill="none" stroke="#000000" points="396.5,-298.7 396.5,-321.7 534.5,-321.7 534.5,-298.7 396.5,-298.7"/>
<text text-anchor="start" x="401.0059" y="-307.8" font-family="Helvetica,sans-Serif" font-weight="bold" font-size="11.00" fill="#000000">auth_entity_to_plan</text>
<text text-anchor="start" x="500.0219" y="-306.8" font-family="Helvetica,sans-Serif" font-size="11.00" fill="#000000">[table]</text>
<polygon fill="none" stroke="#000000" points="396.5,-279.7 396.5,-298.7 534.5,-298.7 534.5,-279.7 396.5,-279.7"/>
<text text-anchor="start" x="399.5" y="-285.8" font-family="Helvetica,sans-Serif" font-size="11.00" fill="#000000">...</text>
<polygon fill="#ffffff" stroke="transparent" points="396.5,-260.7 396.5,-279.7 444.5,-279.7 444.5,-260.7 396.5,-260.7"/>
<polygon fill="none" stroke="#000000" points="396.5,-260.7 396.5,-279.7 444.5,-279.7 444.5,-260.7 396.5,-260.7"/>
<text text-anchor="start" x="399.5" y="-266.8" font-family="Helvetica,sans-Serif" font-size="11.00" fill="#000000">&lt; 2</text>
<polygon fill="#ffffff" stroke="transparent" points="444.5,-260.7 444.5,-279.7 508.5,-279.7 508.5,-260.7 444.5,-260.7"/>
<polygon fill="none" stroke="#000000" points="444.5,-260.7 444.5,-279.7 508.5,-279.7 508.5,-260.7 444.5,-260.7"/>
<text text-anchor="start" x="460.8807" y="-266.8" font-family="Helvetica,sans-Serif" font-size="11.00" fill="#000000">493 rows</text>
<polygon fill="#ffffff" stroke="transparent" points="508.5,-260.7 508.5,-279.7 534.5,-279.7 534.5,-260.7 508.5,-260.7"/>
<polygon fill="none" stroke="#000000" points="508.5,-260.7 508.5,-279.7 534.5,-279.7 534.5,-260.7 508.5,-260.7"/>
<text text-anchor="start" x="525.3862" y="-266.8" font-family="Helvetica,sans-Serif" font-size="11.00" fill="#000000"> &#160;</text>
</a>
</g>
</g>
<!-- auth_entity_to_plan&#45;&gt;auth_entity -->
<g id="edge2" class="edge">
<title>auth_entity_to_plan:w&#45;&gt;auth_entity:e</title>
<path fill="none" stroke="#000000" d="M382.1372,-291.034C351.0659,-303.3691 379.6471,-361.8289 351,-399.7 334.4799,-421.5394 329.8839,-437.7 302.5,-437.7"/>
<polygon fill="#000000" stroke="#000000" points="388.6036,-289.9833 397.0775,-292.2534 392.5518,-289.3416 396.5,-288.7 396.5,-288.7 396.5,-288.7 392.5518,-289.3416 395.9225,-285.1466 388.6036,-289.9833 388.6036,-289.9833"/>
<ellipse fill="none" stroke="#000000" cx="385.445" cy="-290.4966" rx="3.2" ry="3.2"/>
</g>
<!-- plan -->
<g id="node4" class="node">
<title>plan</title>
<g id="a_node4"><a xlink:href="../../tables/plan.html" xlink:title="plan" target="_top">
<polygon fill="#ffffff" stroke="transparent" points="160,-38.2 160,-143.2 343,-143.2 343,-38.2 160,-38.2"/>
<polygon fill="#f5f5f5" stroke="transparent" points="160.5,-119.7 160.5,-142.7 343.5,-142.7 343.5,-119.7 160.5,-119.7"/>
<polygon fill="none" stroke="#000000" points="160.5,-119.7 160.5,-142.7 343.5,-142.7 343.5,-119.7 160.5,-119.7"/>
<text text-anchor="start" x="165.5" y="-128.8" font-family="Helvetica,sans-Serif" font-weight="bold" font-size="11.00" fill="#000000">plan</text>
<text text-anchor="start" x="308.5437" y="-127.8" font-family="Helvetica,sans-Serif" font-size="11.00" fill="#000000">[table]</text>
<polygon fill="none" stroke="#000000" points="160.5,-97.7 160.5,-119.7 343.5,-119.7 343.5,-97.7 160.5,-97.7"/>
<image xlink:href="../../images/primaryKeys.png" width="11px" height="12px" preserveAspectRatio="xMinYMin meet" x="165.5" y="-114.7"/>
<text text-anchor="start" x="180.5" y="-104.8" font-family="Helvetica,sans-Serif" font-size="11.00" fill="#000000">id</text>
<polygon fill="#ffffff" stroke="transparent" points="160.5,-75.7 160.5,-97.7 343.5,-97.7 343.5,-75.7 160.5,-75.7"/>
<polygon fill="none" stroke="#000000" points="160.5,-75.7 160.5,-97.7 343.5,-97.7 343.5,-75.7 160.5,-75.7"/>
<image xlink:href="../../images/foreignKeys.png" width="11px" height="12px" preserveAspectRatio="xMinYMin meet" x="165.5" y="-92.7"/>
<text text-anchor="start" x="180.5" y="-82.8" font-family="Helvetica,sans-Serif" font-size="11.00" fill="#000000">policy</text>
<polygon fill="none" stroke="#000000" points="160.5,-56.7 160.5,-75.7 343.5,-75.7 343.5,-56.7 160.5,-56.7"/>
<text text-anchor="start" x="163.5" y="-62.8" font-family="Helvetica,sans-Serif" font-size="11.00" fill="#000000">...</text>
<polygon fill="#ffffff" stroke="transparent" points="160.5,-37.7 160.5,-56.7 226.5,-56.7 226.5,-37.7 160.5,-37.7"/>
<polygon fill="none" stroke="#000000" points="160.5,-37.7 160.5,-56.7 226.5,-56.7 226.5,-37.7 160.5,-37.7"/>
<text text-anchor="start" x="163.5" y="-43.8" font-family="Helvetica,sans-Serif" font-size="11.00" fill="#000000">&lt; 1</text>
<polygon fill="#ffffff" stroke="transparent" points="226.5,-37.7 226.5,-56.7 299.5,-56.7 299.5,-37.7 226.5,-37.7"/>
<polygon fill="none" stroke="#000000" points="226.5,-37.7 226.5,-56.7 299.5,-56.7 299.5,-37.7 226.5,-37.7"/>
<text text-anchor="start" x="251.8807" y="-43.8" font-family="Helvetica,sans-Serif" font-size="11.00" fill="#000000">493 rows</text>
<polygon fill="#ffffff" stroke="transparent" points="299.5,-37.7 299.5,-56.7 343.5,-56.7 343.5,-37.7 299.5,-37.7"/>
<polygon fill="none" stroke="#000000" points="299.5,-37.7 299.5,-56.7 343.5,-56.7 343.5,-37.7 299.5,-37.7"/>
<text text-anchor="start" x="324.9053" y="-43.8" font-family="Helvetica,sans-Serif" font-size="11.00" fill="#000000">3 &gt;</text>
</a>
</g>
</g>
<!-- auth_entity_to_plan&#45;&gt;plan -->
<g id="edge3" class="edge">
<title>auth_entity_to_plan:w&#45;&gt;plan:e</title>
<path fill="none" stroke="#000000" d="M382.0357,-286.2916C327.7402,-264.9318 421.1949,-108.7 343.5,-108.7"/>
<polygon fill="#000000" stroke="#000000" points="388.6086,-287.386 395.9087,-292.2511 392.5543,-288.043 396.5,-288.7 396.5,-288.7 396.5,-288.7 392.5543,-288.043 397.0913,-285.1489 388.6086,-287.386 388.6086,-287.386"/>
<ellipse fill="none" stroke="#000000" cx="385.4521" cy="-286.8604" rx="3.2" ry="3.2"/>
</g>
<!-- policy -->
<g id="node11" class="node">
<title>policy</title>
<g id="a_node11"><a xlink:href="../../tables/policy.html" xlink:title="policy" target="_top">
<polygon fill="#ffffff" stroke="transparent" points="10.5,-109.2 10.5,-170.2 108.5,-170.2 108.5,-109.2 10.5,-109.2"/>
<polygon fill="#f5f5f5" stroke="transparent" points="10.5,-146.7 10.5,-169.7 108.5,-169.7 108.5,-146.7 10.5,-146.7"/>
<polygon fill="none" stroke="#000000" points="10.5,-146.7 10.5,-169.7 108.5,-169.7 108.5,-146.7 10.5,-146.7"/>
<text text-anchor="start" x="15.5" y="-155.8" font-family="Helvetica,sans-Serif" font-weight="bold" font-size="11.00" fill="#000000">policy</text>
<text text-anchor="start" x="73.5437" y="-154.8" font-family="Helvetica,sans-Serif" font-size="11.00" fill="#000000">[table]</text>
<polygon fill="none" stroke="#000000" points="10.5,-127.7 10.5,-146.7 108.5,-146.7 108.5,-127.7 10.5,-127.7"/>
<text text-anchor="start" x="13.5" y="-133.8" font-family="Helvetica,sans-Serif" font-size="11.00" fill="#000000">...</text>
<polygon fill="#ffffff" stroke="transparent" points="10.5,-108.7 10.5,-127.7 22.5,-127.7 22.5,-108.7 10.5,-108.7"/>
<polygon fill="none" stroke="#000000" points="10.5,-108.7 10.5,-127.7 22.5,-127.7 22.5,-108.7 10.5,-108.7"/>
<text text-anchor="start" x="13.4431" y="-114.8" font-family="Helvetica,sans-Serif" font-size="11.00" fill="#000000"> &#160;</text>
<polygon fill="#ffffff" stroke="transparent" points="22.5,-108.7 22.5,-127.7 87.5,-127.7 87.5,-108.7 22.5,-108.7"/>
<polygon fill="none" stroke="#000000" points="22.5,-108.7 22.5,-127.7 87.5,-127.7 87.5,-108.7 22.5,-108.7"/>
<text text-anchor="start" x="25.047" y="-114.8" font-family="Helvetica,sans-Serif" font-size="11.00" fill="#000000">40,812 rows</text>
<polygon fill="#ffffff" stroke="transparent" points="87.5,-108.7 87.5,-127.7 108.5,-127.7 108.5,-108.7 87.5,-108.7"/>
<polygon fill="none" stroke="#000000" points="87.5,-108.7 87.5,-127.7 108.5,-127.7 108.5,-108.7 87.5,-108.7"/>
<text text-anchor="start" x="90.2027" y="-114.8" font-family="Helvetica,sans-Serif" font-size="11.00" fill="#000000">8 &gt;</text>
</a>
</g>
</g>
<!-- plan&#45;&gt;policy -->
<g id="edge13" class="edge">
<title>plan:w&#45;&gt;policy:e</title>
<path fill="none" stroke="#000000" d="M146.5429,-91.3143C131.4312,-103.6922 134.5501,-136.7 108.5,-136.7"/>
<polygon fill="#000000" stroke="#000000" points="152.9043,-89.2112 161.63,-90.118 156.7022,-87.9556 160.5,-86.7 160.5,-86.7 160.5,-86.7 156.7022,-87.9556 159.37,-83.282 152.9043,-89.2112 152.9043,-89.2112"/>
<ellipse fill="none" stroke="#000000" cx="149.8661" cy="-90.2157" rx="3.2" ry="3.2"/>
</g>
<!-- file_to_plan -->
<g id="node5" class="node">
<title>file_to_plan</title>
<g id="a_node5"><a xlink:href="../../tables/file_to_plan.html" xlink:title="file_to_plan" target="_top">
<polygon fill="#ffffff" stroke="transparent" points="416,-81.2 416,-142.2 515,-142.2 515,-81.2 416,-81.2"/>
<polygon fill="#f5f5f5" stroke="transparent" points="416.5,-118.7 416.5,-141.7 515.5,-141.7 515.5,-118.7 416.5,-118.7"/>
<polygon fill="none" stroke="#000000" points="416.5,-118.7 416.5,-141.7 515.5,-141.7 515.5,-118.7 416.5,-118.7"/>
<text text-anchor="start" x="421.3796" y="-127.8" font-family="Helvetica,sans-Serif" font-weight="bold" font-size="11.00" fill="#000000">file_to_plan</text>
<text text-anchor="start" x="481.0219" y="-126.8" font-family="Helvetica,sans-Serif" font-size="11.00" fill="#000000">[table]</text>
<polygon fill="none" stroke="#000000" points="416.5,-99.7 416.5,-118.7 515.5,-118.7 515.5,-99.7 416.5,-99.7"/>
<text text-anchor="start" x="419.5" y="-105.8" font-family="Helvetica,sans-Serif" font-size="11.00" fill="#000000">...</text>
<polygon fill="#ffffff" stroke="transparent" points="416.5,-80.7 416.5,-99.7 445.5,-99.7 445.5,-80.7 416.5,-80.7"/>
<polygon fill="none" stroke="#000000" points="416.5,-80.7 416.5,-99.7 445.5,-99.7 445.5,-80.7 416.5,-80.7"/>
<text text-anchor="start" x="419.5" y="-86.8" font-family="Helvetica,sans-Serif" font-size="11.00" fill="#000000">&lt; 2</text>
<polygon fill="#ffffff" stroke="transparent" points="445.5,-80.7 445.5,-99.7 499.5,-99.7 499.5,-80.7 445.5,-80.7"/>
<polygon fill="none" stroke="#000000" points="445.5,-80.7 445.5,-99.7 499.5,-99.7 499.5,-80.7 445.5,-80.7"/>
<text text-anchor="start" x="451.8807" y="-86.8" font-family="Helvetica,sans-Serif" font-size="11.00" fill="#000000">567 rows</text>
<polygon fill="#ffffff" stroke="transparent" points="499.5,-80.7 499.5,-99.7 515.5,-99.7 515.5,-80.7 499.5,-80.7"/>
<polygon fill="none" stroke="#000000" points="499.5,-80.7 499.5,-99.7 515.5,-99.7 515.5,-80.7 499.5,-80.7"/>
<text text-anchor="start" x="506.3862" y="-86.8" font-family="Helvetica,sans-Serif" font-size="11.00" fill="#000000"> &#160;</text>
</a>
</g>
</g>
<!-- file_to_plan&#45;&gt;plan -->
<g id="edge4" class="edge">
<title>file_to_plan:w&#45;&gt;plan:e</title>
<path fill="none" stroke="#000000" d="M401.98,-108.7C380.6442,-108.7 370.4948,-108.7 343.5,-108.7"/>
<polygon fill="#000000" stroke="#000000" points="408.5,-108.7001 416.5,-112.3 412.5,-108.7 416.5,-108.7 416.5,-108.7 416.5,-108.7 412.5,-108.7 416.5,-105.1 408.5,-108.7001 408.5,-108.7001"/>
<ellipse fill="none" stroke="#000000" cx="405.3" cy="-108.7001" rx="3.2" ry="3.2"/>
</g>
<!-- max_min_policy_count -->
<g id="node6" class="node">
<title>max_min_policy_count</title>
<g id="a_node6"><a xlink:href="../../tables/max_min_policy_count.html" xlink:title="max_min_policy_count" target="_top">
<polygon fill="#ffffff" stroke="transparent" points="174.5,-328.2 174.5,-389.2 328.5,-389.2 328.5,-328.2 174.5,-328.2"/>
<polygon fill="#f5f5f5" stroke="transparent" points="174.5,-365.7 174.5,-388.7 328.5,-388.7 328.5,-365.7 174.5,-365.7"/>
<polygon fill="none" stroke="#000000" points="174.5,-365.7 174.5,-388.7 328.5,-388.7 328.5,-365.7 174.5,-365.7"/>
<text text-anchor="start" x="179.0738" y="-374.8" font-family="Helvetica,sans-Serif" font-weight="bold" font-size="11.00" fill="#000000">max_min_policy_count</text>
<text text-anchor="start" x="294.0219" y="-373.8" font-family="Helvetica,sans-Serif" font-size="11.00" fill="#000000">[table]</text>
<polygon fill="none" stroke="#000000" points="174.5,-346.7 174.5,-365.7 328.5,-365.7 328.5,-346.7 174.5,-346.7"/>
<text text-anchor="start" x="177.5" y="-352.8" font-family="Helvetica,sans-Serif" font-size="11.00" fill="#000000">...</text>
<polygon fill="#ffffff" stroke="transparent" points="174.5,-327.7 174.5,-346.7 236.5,-346.7 236.5,-327.7 174.5,-327.7"/>
<polygon fill="none" stroke="#000000" points="174.5,-327.7 174.5,-346.7 236.5,-346.7 236.5,-327.7 174.5,-327.7"/>
<text text-anchor="start" x="177.5" y="-333.8" font-family="Helvetica,sans-Serif" font-size="11.00" fill="#000000">&lt; 2</text>
<polygon fill="#ffffff" stroke="transparent" points="236.5,-327.7 236.5,-346.7 295.5,-346.7 295.5,-327.7 236.5,-327.7"/>
<polygon fill="none" stroke="#000000" points="236.5,-327.7 236.5,-346.7 295.5,-346.7 295.5,-327.7 236.5,-327.7"/>
<text text-anchor="start" x="260.1105" y="-333.8" font-family="Helvetica,sans-Serif" font-size="11.00" fill="#000000">4 rows</text>
<polygon fill="#ffffff" stroke="transparent" points="295.5,-327.7 295.5,-346.7 328.5,-346.7 328.5,-327.7 295.5,-327.7"/>
<polygon fill="none" stroke="#000000" points="295.5,-327.7 295.5,-346.7 328.5,-346.7 328.5,-327.7 295.5,-327.7"/>
<text text-anchor="start" x="319.3862" y="-333.8" font-family="Helvetica,sans-Serif" font-size="11.00" fill="#000000"> &#160;</text>
</a>
</g>
</g>
<!-- max_min_policy_count&#45;&gt;place -->
<g id="edge5" class="edge">
<title>max_min_policy_count:w&#45;&gt;place:e</title>
<path fill="none" stroke="#000000" d="M160.1841,-352.871C142.9645,-349.9289 134.0313,-350.8719 111.5,-355.7"/>
<polygon fill="#000000" stroke="#000000" points="166.6518,-354.1491 173.8021,-359.2317 170.5759,-354.9245 174.5,-355.7 174.5,-355.7 174.5,-355.7 170.5759,-354.9245 175.1979,-352.1683 166.6518,-354.1491 166.6518,-354.1491"/>
<ellipse fill="none" stroke="#000000" cx="163.5125" cy="-353.5287" rx="3.2" ry="3.2"/>
</g>
<!-- max_min_policy_count&#45;&gt;place -->
<g id="edge6" class="edge">
<title>max_min_policy_count:w&#45;&gt;place:e</title>
<path fill="none" stroke="#000000" d="M160.1841,-359.0005C142.9645,-362.433 134.0313,-361.3328 111.5,-355.7"/>
<polygon fill="#000000" stroke="#000000" points="166.7045,-357.4973 175.3088,-359.208 170.6022,-356.5986 174.5,-355.7 174.5,-355.7 174.5,-355.7 170.6022,-356.5986 173.6912,-352.192 166.7045,-357.4973 166.7045,-357.4973"/>
<ellipse fill="none" stroke="#000000" cx="163.5863" cy="-358.2162" rx="3.2" ry="3.2"/>
</g>
<!-- observation -->
<g id="node7" class="node">
<title>observation</title>
<g id="a_node7"><a xlink:href="../../tables/observation.html" xlink:title="observation" target="_top">
<polygon fill="#ffffff" stroke="transparent" points="202,-246.2 202,-307.2 301,-307.2 301,-246.2 202,-246.2"/>
<polygon fill="#f5f5f5" stroke="transparent" points="202.5,-283.7 202.5,-306.7 301.5,-306.7 301.5,-283.7 202.5,-283.7"/>
<polygon fill="none" stroke="#000000" points="202.5,-283.7 202.5,-306.7 301.5,-306.7 301.5,-283.7 202.5,-283.7"/>
<text text-anchor="start" x="207.0755" y="-292.8" font-family="Helvetica,sans-Serif" font-weight="bold" font-size="11.00" fill="#000000">observation</text>
<text text-anchor="start" x="267.0219" y="-291.8" font-family="Helvetica,sans-Serif" font-size="11.00" fill="#000000">[table]</text>
<polygon fill="none" stroke="#000000" points="202.5,-264.7 202.5,-283.7 301.5,-283.7 301.5,-264.7 202.5,-264.7"/>
<text text-anchor="start" x="205.5" y="-270.8" font-family="Helvetica,sans-Serif" font-size="11.00" fill="#000000">...</text>
<polygon fill="#ffffff" stroke="transparent" points="202.5,-245.7 202.5,-264.7 223.5,-264.7 223.5,-245.7 202.5,-245.7"/>
<polygon fill="none" stroke="#000000" points="202.5,-245.7 202.5,-264.7 223.5,-264.7 223.5,-245.7 202.5,-245.7"/>
<text text-anchor="start" x="205.2027" y="-251.8" font-family="Helvetica,sans-Serif" font-size="11.00" fill="#000000">&lt; 1</text>
<polygon fill="#ffffff" stroke="transparent" points="223.5,-245.7 223.5,-264.7 288.5,-264.7 288.5,-245.7 223.5,-245.7"/>
<polygon fill="none" stroke="#000000" points="223.5,-245.7 223.5,-264.7 288.5,-264.7 288.5,-245.7 223.5,-245.7"/>
<text text-anchor="start" x="226.047" y="-251.8" font-family="Helvetica,sans-Serif" font-size="11.00" fill="#000000">62,656 rows</text>
<polygon fill="#ffffff" stroke="transparent" points="288.5,-245.7 288.5,-264.7 301.5,-264.7 301.5,-245.7 288.5,-245.7"/>
<polygon fill="none" stroke="#000000" points="288.5,-245.7 288.5,-264.7 301.5,-264.7 301.5,-245.7 288.5,-245.7"/>
<text text-anchor="start" x="292.3862" y="-251.8" font-family="Helvetica,sans-Serif" font-size="11.00" fill="#000000"> &#160;</text>
</a>
</g>
</g>
<!-- observation&#45;&gt;place -->
<g id="edge7" class="edge">
<title>observation:w&#45;&gt;place:e</title>
<path fill="none" stroke="#000000" d="M188.2122,-276.2411C172.3646,-282.9332 169.7679,-301.6339 152,-317.7 133.692,-334.2545 136.1827,-355.7 111.5,-355.7"/>
<polygon fill="#000000" stroke="#000000" points="194.6236,-275.1009 203.1304,-277.2444 198.5618,-274.4004 202.5,-273.7 202.5,-273.7 202.5,-273.7 198.5618,-274.4004 201.8696,-270.1556 194.6236,-275.1009 194.6236,-275.1009"/>
<ellipse fill="none" stroke="#000000" cx="191.473" cy="-275.6612" rx="3.2" ry="3.2"/>
</g>
<!-- place_policy_number -->
<g id="node8" class="node">
<title>place_policy_number</title>
<g id="a_node8"><a xlink:href="../../tables/place_policy_number.html" xlink:title="place_policy_number" target="_top">
<polygon fill="#ffffff" stroke="transparent" points="178.5,-520.2 178.5,-581.2 324.5,-581.2 324.5,-520.2 178.5,-520.2"/>
<polygon fill="#f5f5f5" stroke="transparent" points="178.5,-557.7 178.5,-580.7 324.5,-580.7 324.5,-557.7 178.5,-557.7"/>
<polygon fill="none" stroke="#000000" points="178.5,-557.7 178.5,-580.7 324.5,-580.7 324.5,-557.7 178.5,-557.7"/>
<text text-anchor="start" x="183.0448" y="-566.8" font-family="Helvetica,sans-Serif" font-weight="bold" font-size="11.00" fill="#000000">place_policy_number</text>
<text text-anchor="start" x="290.0219" y="-565.8" font-family="Helvetica,sans-Serif" font-size="11.00" fill="#000000">[table]</text>
<polygon fill="none" stroke="#000000" points="178.5,-538.7 178.5,-557.7 324.5,-557.7 324.5,-538.7 178.5,-538.7"/>
<text text-anchor="start" x="181.5" y="-544.8" font-family="Helvetica,sans-Serif" font-size="11.00" fill="#000000">...</text>
<polygon fill="#ffffff" stroke="transparent" points="178.5,-519.7 178.5,-538.7 223.5,-538.7 223.5,-519.7 178.5,-519.7"/>
<polygon fill="none" stroke="#000000" points="178.5,-519.7 178.5,-538.7 223.5,-538.7 223.5,-519.7 178.5,-519.7"/>
<text text-anchor="start" x="181.5" y="-525.8" font-family="Helvetica,sans-Serif" font-size="11.00" fill="#000000">&lt; 2</text>
<polygon fill="#ffffff" stroke="transparent" points="223.5,-519.7 223.5,-538.7 300.5,-538.7 300.5,-519.7 223.5,-519.7"/>
<polygon fill="none" stroke="#000000" points="223.5,-519.7 223.5,-538.7 300.5,-538.7 300.5,-519.7 223.5,-519.7"/>
<text text-anchor="start" x="237.594" y="-525.8" font-family="Helvetica,sans-Serif" font-size="11.00" fill="#000000">32,150 rows</text>
<polygon fill="#ffffff" stroke="transparent" points="300.5,-519.7 300.5,-538.7 324.5,-538.7 324.5,-519.7 300.5,-519.7"/>
<polygon fill="none" stroke="#000000" points="300.5,-519.7 300.5,-538.7 324.5,-538.7 324.5,-519.7 300.5,-519.7"/>
<text text-anchor="start" x="315.3862" y="-525.8" font-family="Helvetica,sans-Serif" font-size="11.00" fill="#000000"> &#160;</text>
</a>
</g>
</g>
<!-- place_policy_number&#45;&gt;place -->
<g id="edge8" class="edge">
<title>place_policy_number:w&#45;&gt;place:e</title>
<path fill="none" stroke="#000000" d="M164.2378,-545.6737C101.1475,-525.1539 196.4075,-355.7 111.5,-355.7"/>
<polygon fill="#000000" stroke="#000000" points="170.5795,-546.5746 177.9936,-551.2642 174.5398,-547.1373 178.5,-547.7 178.5,-547.7 178.5,-547.7 174.5398,-547.1373 179.0064,-544.1358 170.5795,-546.5746 170.5795,-546.5746"/>
<ellipse fill="none" stroke="#000000" cx="167.4114" cy="-546.1245" rx="3.2" ry="3.2"/>
</g>
<!-- place_to_plan -->
<g id="node9" class="node">
<title>place_to_plan</title>
<g id="a_node9"><a xlink:href="../../tables/place_to_plan.html" xlink:title="place_to_plan" target="_top">
<polygon fill="#ffffff" stroke="transparent" points="392,-392.7 392,-482.7 539,-482.7 539,-392.7 392,-392.7"/>
<polygon fill="#f5f5f5" stroke="transparent" points="394.5,-457.7 394.5,-480.7 537.5,-480.7 537.5,-457.7 394.5,-457.7"/>
<polygon fill="none" stroke="#000000" points="394.5,-457.7 394.5,-480.7 537.5,-480.7 537.5,-457.7 394.5,-457.7"/>
<text text-anchor="start" x="399.5" y="-466.8" font-family="Helvetica,sans-Serif" font-weight="bold" font-size="11.00" fill="#000000">place_to_plan</text>
<text text-anchor="start" x="502.5437" y="-465.8" font-family="Helvetica,sans-Serif" font-size="11.00" fill="#000000">[table]</text>
<polygon fill="none" stroke="#000000" points="394.5,-435.7 394.5,-457.7 495.5,-457.7 495.5,-435.7 394.5,-435.7"/>
<image xlink:href="../../images/primaryKeys.png" width="11px" height="12px" preserveAspectRatio="xMinYMin meet" x="399.5" y="-452.7"/>
<text text-anchor="start" x="414.5" y="-442.8" font-family="Helvetica,sans-Serif" font-size="11.00" fill="#000000">place</text>
<polygon fill="none" stroke="#000000" points="495.5,-435.7 495.5,-457.7 537.5,-457.7 537.5,-435.7 495.5,-435.7"/>
<text text-anchor="start" x="498.4644" y="-443.4" font-family="Helvetica,sans-Serif" font-size="11.00" fill="#000000">int4[10]</text>
<polygon fill="none" stroke="#000000" points="394.5,-413.7 394.5,-435.7 495.5,-435.7 495.5,-413.7 394.5,-413.7"/>
<image xlink:href="../../images/primaryKeys.png" width="11px" height="12px" preserveAspectRatio="xMinYMin meet" x="399.5" y="-430.7"/>
<text text-anchor="start" x="414.5" y="-420.8" font-family="Helvetica,sans-Serif" font-size="11.00" fill="#000000">plan</text>
<polygon fill="none" stroke="#000000" points="495.5,-413.7 495.5,-435.7 537.5,-435.7 537.5,-413.7 495.5,-413.7"/>
<text text-anchor="start" x="498.4644" y="-421.4" font-family="Helvetica,sans-Serif" font-size="11.00" fill="#000000">int4[10]</text>
<polygon fill="#ffffff" stroke="transparent" points="394.5,-394.7 394.5,-413.7 430.5,-413.7 430.5,-394.7 394.5,-394.7"/>
<polygon fill="none" stroke="#000000" points="394.5,-394.7 394.5,-413.7 430.5,-413.7 430.5,-394.7 394.5,-394.7"/>
<text text-anchor="start" x="397.5" y="-400.8" font-family="Helvetica,sans-Serif" font-size="11.00" fill="#000000">&lt; 2</text>
<polygon fill="#ffffff" stroke="transparent" points="430.5,-394.7 430.5,-413.7 495.5,-413.7 495.5,-394.7 430.5,-394.7"/>
<polygon fill="none" stroke="#000000" points="430.5,-394.7 430.5,-413.7 495.5,-413.7 495.5,-394.7 430.5,-394.7"/>
<text text-anchor="start" x="447.8807" y="-400.8" font-family="Helvetica,sans-Serif" font-size="11.00" fill="#000000">493 rows</text>
<polygon fill="#ffffff" stroke="transparent" points="495.5,-394.7 495.5,-413.7 537.5,-413.7 537.5,-394.7 495.5,-394.7"/>
<polygon fill="none" stroke="#000000" points="495.5,-394.7 495.5,-413.7 537.5,-413.7 537.5,-394.7 495.5,-394.7"/>
<text text-anchor="start" x="518.9053" y="-400.8" font-family="Helvetica,sans-Serif" font-size="11.00" fill="#000000">0 &gt;</text>
<polygon fill="none" stroke="#000000" stroke-width="2" points="393,-393.7 393,-481.7 538,-481.7 538,-393.7 393,-393.7"/>
</a>
</g>
</g>
<!-- place_to_plan&#45;&gt;place -->
<g id="edge9" class="edge">
<title>place_to_plan:w&#45;&gt;place:e</title>
<path fill="none" stroke="#000000" d="M380.5258,-451.0091C370.2872,-458.9201 368.553,-475.5151 351,-481.7 309.2912,-496.3962 187.7354,-507.7497 152,-481.7 104.4669,-447.0503 170.3218,-355.7 111.5,-355.7"/>
<polygon fill="#000000" stroke="#000000" points="386.8552,-449.0574 395.5608,-450.1402 390.6776,-447.8787 394.5,-446.7 394.5,-446.7 394.5,-446.7 390.6776,-447.8787 393.4392,-443.2598 386.8552,-449.0574 386.8552,-449.0574"/>
<ellipse fill="none" stroke="#000000" cx="383.7973" cy="-450.0003" rx="3.2" ry="3.2"/>
</g>
<!-- place_to_plan&#45;&gt;plan -->
<g id="edge10" class="edge">
<title>place_to_plan:w&#45;&gt;plan:e</title>
<path fill="none" stroke="#000000" d="M380.9286,-419.4789C336.33,-378.3929 409.2127,-108.7 343.5,-108.7"/>
<polygon fill="#000000" stroke="#000000" points="387.0335,-421.8275 393.2074,-428.0599 390.7667,-423.2637 394.5,-424.7 394.5,-424.7 394.5,-424.7 390.7667,-423.2637 395.7926,-421.3401 387.0335,-421.8275 387.0335,-421.8275"/>
<ellipse fill="none" stroke="#000000" cx="384.0469" cy="-420.6785" rx="3.2" ry="3.2"/>
</g>
<!-- place_to_policy -->
<g id="node10" class="node">
<title>place_to_policy</title>
<g id="a_node10"><a xlink:href="../../tables/place_to_policy.html" xlink:title="place_to_policy" target="_top">
<polygon fill="#ffffff" stroke="transparent" points="192.5,-164.2 192.5,-225.2 310.5,-225.2 310.5,-164.2 192.5,-164.2"/>
<polygon fill="#f5f5f5" stroke="transparent" points="192.5,-201.7 192.5,-224.7 310.5,-224.7 310.5,-201.7 192.5,-201.7"/>
<polygon fill="none" stroke="#000000" points="192.5,-201.7 192.5,-224.7 310.5,-224.7 310.5,-201.7 192.5,-201.7"/>
<text text-anchor="start" x="197.1006" y="-210.8" font-family="Helvetica,sans-Serif" font-weight="bold" font-size="11.00" fill="#000000">place_to_policy</text>
<text text-anchor="start" x="276.0219" y="-209.8" font-family="Helvetica,sans-Serif" font-size="11.00" fill="#000000">[table]</text>
<polygon fill="none" stroke="#000000" points="192.5,-182.7 192.5,-201.7 310.5,-201.7 310.5,-182.7 192.5,-182.7"/>
<text text-anchor="start" x="195.5" y="-188.8" font-family="Helvetica,sans-Serif" font-size="11.00" fill="#000000">...</text>
<polygon fill="#ffffff" stroke="transparent" points="192.5,-163.7 192.5,-182.7 219.5,-182.7 219.5,-163.7 192.5,-163.7"/>
<polygon fill="none" stroke="#000000" points="192.5,-163.7 192.5,-182.7 219.5,-182.7 219.5,-163.7 192.5,-163.7"/>
<text text-anchor="start" x="195.5" y="-169.8" font-family="Helvetica,sans-Serif" font-size="11.00" fill="#000000">&lt; 2</text>
<polygon fill="#ffffff" stroke="transparent" points="219.5,-163.7 219.5,-182.7 294.5,-182.7 294.5,-163.7 219.5,-163.7"/>
<polygon fill="none" stroke="#000000" points="219.5,-163.7 219.5,-182.7 294.5,-182.7 294.5,-163.7 219.5,-163.7"/>
<text text-anchor="start" x="225.4791" y="-169.8" font-family="Helvetica,sans-Serif" font-size="11.00" fill="#000000">994,786 rows</text>
<polygon fill="#ffffff" stroke="transparent" points="294.5,-163.7 294.5,-182.7 310.5,-182.7 310.5,-163.7 294.5,-163.7"/>
<polygon fill="none" stroke="#000000" points="294.5,-163.7 294.5,-182.7 310.5,-182.7 310.5,-163.7 294.5,-163.7"/>
<text text-anchor="start" x="301.3862" y="-169.8" font-family="Helvetica,sans-Serif" font-size="11.00" fill="#000000"> &#160;</text>
</a>
</g>
</g>
<!-- place_to_policy&#45;&gt;place -->
<g id="edge11" class="edge">
<title>place_to_policy:w&#45;&gt;place:e</title>
<path fill="none" stroke="#000000" d="M178.0119,-194.7286C165.075,-201.3645 162.4763,-218.013 152,-235.7 123.3138,-284.1308 167.7889,-355.7 111.5,-355.7"/>
<polygon fill="#000000" stroke="#000000" points="184.6693,-193.337 193.2366,-195.2238 188.5846,-192.5185 192.5,-191.7 192.5,-191.7 192.5,-191.7 188.5846,-192.5185 191.7634,-188.1762 184.6693,-193.337 184.6693,-193.337"/>
<ellipse fill="none" stroke="#000000" cx="181.537" cy="-193.9918" rx="3.2" ry="3.2"/>
</g>
<!-- place_to_policy&#45;&gt;policy -->
<g id="edge12" class="edge">
<title>place_to_policy:w&#45;&gt;policy:e</title>
<path fill="none" stroke="#000000" d="M177.9089,-189.3367C148.4087,-178.8094 147.5461,-136.7 108.5,-136.7"/>
<polygon fill="#000000" stroke="#000000" points="184.6029,-190.4209 191.9244,-195.2537 188.5515,-191.0604 192.5,-191.7 192.5,-191.7 192.5,-191.7 188.5515,-191.0604 193.0756,-188.1463 184.6029,-190.4209 184.6029,-190.4209"/>
<ellipse fill="none" stroke="#000000" cx="181.4441" cy="-189.9092" rx="3.2" ry="3.2"/>
</g>
</g>
</svg>
