<?xml version="1.0" encoding="UTF-8" standalone="no"?>
<!DOCTYPE svg PUBLIC "-//W3C//DTD SVG 1.1//EN"
 "http://www.w3.org/Graphics/SVG/1.1/DTD/svg11.dtd">
<!-- Generated by graphviz version 2.40.1 (20161225.0304)
 -->
<!-- Title: twoDegreesRelationshipsDiagram Pages: 1 -->
<svg width="596pt" height="571pt"
 viewBox="0.00 0.00 596.00 571.20" xmlns="http://www.w3.org/2000/svg" xmlns:xlink="http://www.w3.org/1999/xlink">
<g id="graph0" class="graph" transform="scale(1 1) rotate(0) translate(4 567.2)">
<title>twoDegreesRelationshipsDiagram</title>
<polygon fill="#ffffff" stroke="transparent" points="-4,4 -4,-567.2 592,-567.2 592,4 -4,4"/>
<text text-anchor="middle" x="72.4936" y="-7.3" font-family="Helvetica,sans-Serif" font-size="11.00" fill="#000000">Generated by SchemaSpy</text>
<!-- auth_entity -->
<g id="node1" class="node">
<title>auth_entity</title>
<g id="a_node1"><a xlink:href="../../tables/auth_entity.html" xlink:title="auth_entity" target="_top">
<polygon fill="#ffffff" stroke="transparent" points="200.5,-202.2 200.5,-263.2 301.5,-263.2 301.5,-202.2 200.5,-202.2"/>
<polygon fill="#f5f5f5" stroke="transparent" points="201,-239.7 201,-262.7 302,-262.7 302,-239.7 201,-239.7"/>
<polygon fill="none" stroke="#000000" points="201,-239.7 201,-262.7 302,-262.7 302,-239.7 201,-239.7"/>
<text text-anchor="start" x="206" y="-248.8" font-family="Helvetica,sans-Serif" font-weight="bold" font-size="11.00" fill="#000000">auth_entity</text>
<text text-anchor="start" x="267.0437" y="-247.8" font-family="Helvetica,sans-Serif" font-size="11.00" fill="#000000">[table]</text>
<polygon fill="none" stroke="#000000" points="201,-220.7 201,-239.7 302,-239.7 302,-220.7 201,-220.7"/>
<text text-anchor="start" x="204" y="-226.8" font-family="Helvetica,sans-Serif" font-size="11.00" fill="#000000">...</text>
<polygon fill="#ffffff" stroke="transparent" points="201,-201.7 201,-220.7 222,-220.7 222,-201.7 201,-201.7"/>
<polygon fill="none" stroke="#000000" points="201,-201.7 201,-220.7 222,-220.7 222,-201.7 201,-201.7"/>
<text text-anchor="start" x="203.7027" y="-207.8" font-family="Helvetica,sans-Serif" font-size="11.00" fill="#000000">&lt; 1</text>
<polygon fill="#ffffff" stroke="transparent" points="222,-201.7 222,-220.7 281,-220.7 281,-201.7 222,-201.7"/>
<polygon fill="none" stroke="#000000" points="222,-201.7 222,-220.7 281,-220.7 281,-201.7 222,-201.7"/>
<text text-anchor="start" x="224.6045" y="-207.8" font-family="Helvetica,sans-Serif" font-size="11.00" fill="#000000">2,901 rows</text>
<polygon fill="#ffffff" stroke="transparent" points="281,-201.7 281,-220.7 302,-220.7 302,-201.7 281,-201.7"/>
<polygon fill="none" stroke="#000000" points="281,-201.7 281,-220.7 302,-220.7 302,-201.7 281,-201.7"/>
<text text-anchor="start" x="283.7027" y="-207.8" font-family="Helvetica,sans-Serif" font-size="11.00" fill="#000000">3 &gt;</text>
</a>
</g>
</g>
<!-- place -->
<g id="node2" class="node">
<title>place</title>
<g id="a_node2"><a xlink:href="../../tables/place.html" xlink:title="place" target="_top">
<polygon fill="#ffffff" stroke="transparent" points="8,-277.2 8,-426.2 111,-426.2 111,-277.2 8,-277.2"/>
<polygon fill="#f5f5f5" stroke="transparent" points="8.5,-402.7 8.5,-425.7 111.5,-425.7 111.5,-402.7 8.5,-402.7"/>
<polygon fill="none" stroke="#000000" points="8.5,-402.7 8.5,-425.7 111.5,-425.7 111.5,-402.7 8.5,-402.7"/>
<text text-anchor="start" x="13.5" y="-411.8" font-family="Helvetica,sans-Serif" font-weight="bold" font-size="11.00" fill="#000000">place</text>
<text text-anchor="start" x="76.5437" y="-410.8" font-family="Helvetica,sans-Serif" font-size="11.00" fill="#000000">[table]</text>
<polygon fill="none" stroke="#000000" points="8.5,-380.7 8.5,-402.7 111.5,-402.7 111.5,-380.7 8.5,-380.7"/>
<image xlink:href="../../images/primaryKeys.png" width="11px" height="12px" preserveAspectRatio="xMinYMin meet" x="13.5" y="-397.7"/>
<text text-anchor="start" x="28.5" y="-387.8" font-family="Helvetica,sans-Serif" font-size="11.00" fill="#000000">id</text>
<polygon fill="#ffffff" stroke="transparent" points="8.5,-358.7 8.5,-380.7 111.5,-380.7 111.5,-358.7 8.5,-358.7"/>
<polygon fill="none" stroke="#000000" points="8.5,-358.7 8.5,-380.7 111.5,-380.7 111.5,-358.7 8.5,-358.7"/>
<text text-anchor="start" x="28.5" y="-365.8" font-family="Helvetica,sans-Serif" font-size="11.00" fill="#000000">level</text>
<polygon fill="#ffffff" stroke="transparent" points="8.5,-336.7 8.5,-358.7 111.5,-358.7 111.5,-336.7 8.5,-336.7"/>
<polygon fill="none" stroke="#000000" points="8.5,-336.7 8.5,-358.7 111.5,-358.7 111.5,-336.7 8.5,-336.7"/>
<text text-anchor="start" x="28.5" y="-343.8" font-family="Helvetica,sans-Serif" font-size="11.00" fill="#000000">iso3</text>
<polygon fill="#ffffff" stroke="transparent" points="8.5,-314.7 8.5,-336.7 111.5,-336.7 111.5,-314.7 8.5,-314.7"/>
<polygon fill="none" stroke="#000000" points="8.5,-314.7 8.5,-336.7 111.5,-336.7 111.5,-314.7 8.5,-314.7"/>
<text text-anchor="start" x="28.5" y="-321.8" font-family="Helvetica,sans-Serif" font-size="11.00" fill="#000000">ansi_fips</text>
<polygon fill="none" stroke="#000000" points="8.5,-295.7 8.5,-314.7 111.5,-314.7 111.5,-295.7 8.5,-295.7"/>
<text text-anchor="start" x="11.5" y="-301.8" font-family="Helvetica,sans-Serif" font-size="11.00" fill="#000000">...</text>
<polygon fill="#ffffff" stroke="transparent" points="8.5,-276.7 8.5,-295.7 25.5,-295.7 25.5,-276.7 8.5,-276.7"/>
<polygon fill="none" stroke="#000000" points="8.5,-276.7 8.5,-295.7 25.5,-295.7 25.5,-276.7 8.5,-276.7"/>
<text text-anchor="start" x="11.5" y="-282.8" font-family="Helvetica,sans-Serif" font-size="11.00" fill="#000000"> &#160;</text>
<polygon fill="#ffffff" stroke="transparent" points="25.5,-276.7 25.5,-295.7 87.5,-295.7 87.5,-276.7 25.5,-276.7"/>
<polygon fill="none" stroke="#000000" points="25.5,-276.7 25.5,-295.7 87.5,-295.7 87.5,-276.7 25.5,-276.7"/>
<text text-anchor="start" x="30.7089" y="-282.8" font-family="Helvetica,sans-Serif" font-size="11.00" fill="#000000">7,645 rows</text>
<polygon fill="#ffffff" stroke="transparent" points="87.5,-276.7 87.5,-295.7 111.5,-295.7 111.5,-276.7 87.5,-276.7"/>
<polygon fill="none" stroke="#000000" points="87.5,-276.7 87.5,-295.7 111.5,-295.7 111.5,-276.7 87.5,-276.7"/>
<text text-anchor="start" x="92.9053" y="-282.8" font-family="Helvetica,sans-Serif" font-size="11.00" fill="#000000">7 &gt;</text>
</a>
</g>
</g>
<!-- auth_entity&#45;&gt;place -->
<g id="edge1" class="edge">
<title>auth_entity:w&#45;&gt;place:e</title>
<path fill="none" stroke="#000000" d="M186.5057,-231.8324C169.8554,-237.538 165.0031,-254.0621 152,-273.7 121.3881,-319.9313 166.9475,-391.7 111.5,-391.7"/>
<polygon fill="#000000" stroke="#000000" points="193.0852,-230.8645 201.524,-233.2617 197.0426,-230.2822 201,-229.7 201,-229.7 201,-229.7 197.0426,-230.2822 200.476,-226.1383 193.0852,-230.8645 193.0852,-230.8645"/>
<ellipse fill="none" stroke="#000000" cx="189.9193" cy="-231.3302" rx="3.2" ry="3.2"/>
</g>
<!-- auth_entity_policy_number -->
<g id="node3" class="node">
<title>auth_entity_policy_number</title>
<g id="a_node3"><a xlink:href="../../tables/auth_entity_policy_number.html" xlink:title="auth_entity_policy_number" target="_top">
<polygon fill="#ffffff" stroke="transparent" points="398.5,-202.2 398.5,-263.2 572.5,-263.2 572.5,-202.2 398.5,-202.2"/>
<polygon fill="#f5f5f5" stroke="transparent" points="398.5,-239.7 398.5,-262.7 572.5,-262.7 572.5,-239.7 398.5,-239.7"/>
<polygon fill="none" stroke="#000000" points="398.5,-239.7 398.5,-262.7 572.5,-262.7 572.5,-239.7 398.5,-239.7"/>
<text text-anchor="start" x="403.2871" y="-248.8" font-family="Helvetica,sans-Serif" font-weight="bold" font-size="11.00" fill="#000000">auth_entity_policy_number</text>
<text text-anchor="start" x="538.0219" y="-247.8" font-family="Helvetica,sans-Serif" font-size="11.00" fill="#000000">[table]</text>
<polygon fill="none" stroke="#000000" points="398.5,-220.7 398.5,-239.7 572.5,-239.7 572.5,-220.7 398.5,-220.7"/>
<text text-anchor="start" x="401.5" y="-226.8" font-family="Helvetica,sans-Serif" font-size="11.00" fill="#000000">...</text>
<polygon fill="#ffffff" stroke="transparent" points="398.5,-201.7 398.5,-220.7 457.5,-220.7 457.5,-201.7 398.5,-201.7"/>
<polygon fill="none" stroke="#000000" points="398.5,-201.7 398.5,-220.7 457.5,-220.7 457.5,-201.7 398.5,-201.7"/>
<text text-anchor="start" x="401.5" y="-207.8" font-family="Helvetica,sans-Serif" font-size="11.00" fill="#000000">&lt; 2</text>
<polygon fill="#ffffff" stroke="transparent" points="457.5,-201.7 457.5,-220.7 541.5,-220.7 541.5,-201.7 457.5,-201.7"/>
<polygon fill="none" stroke="#000000" points="457.5,-201.7 457.5,-220.7 541.5,-220.7 541.5,-201.7 457.5,-201.7"/>
<text text-anchor="start" x="478.594" y="-207.8" font-family="Helvetica,sans-Serif" font-size="11.00" fill="#000000">18,291 rows</text>
<polygon fill="#ffffff" stroke="transparent" points="541.5,-201.7 541.5,-220.7 572.5,-220.7 572.5,-201.7 541.5,-201.7"/>
<polygon fill="none" stroke="#000000" points="541.5,-201.7 541.5,-220.7 572.5,-220.7 572.5,-201.7 541.5,-201.7"/>
<text text-anchor="start" x="563.3862" y="-207.8" font-family="Helvetica,sans-Serif" font-size="11.00" fill="#000000"> &#160;</text>
</a>
</g>
</g>
<!-- auth_entity_policy_number&#45;&gt;auth_entity -->
<g id="edge2" class="edge">
<title>auth_entity_policy_number:w&#45;&gt;auth_entity:e</title>
<path fill="none" stroke="#000000" d="M383.7988,-229.7C352.428,-229.7 339.5278,-229.7 302,-229.7"/>
<polygon fill="#000000" stroke="#000000" points="390.5,-229.7001 398.5,-233.3 394.5,-229.7 398.5,-229.7 398.5,-229.7 398.5,-229.7 394.5,-229.7 398.5,-226.1 390.5,-229.7001 390.5,-229.7001"/>
<ellipse fill="none" stroke="#000000" cx="387.3" cy="-229.7001" rx="3.2" ry="3.2"/>
</g>
<!-- policy_number -->
<g id="node4" class="node">
<title>policy_number</title>
<g id="a_node4"><a xlink:href="../../tables/policy_number.html" xlink:title="policy_number" target="_top">
<polygon fill="#ffffff" stroke="transparent" points="160,-284.2 160,-367.2 342,-367.2 342,-284.2 160,-284.2"/>
<polygon fill="#f5f5f5" stroke="transparent" points="160,-343.7 160,-366.7 342,-366.7 342,-343.7 160,-343.7"/>
<polygon fill="none" stroke="#000000" points="160,-343.7 160,-366.7 342,-366.7 342,-343.7 160,-343.7"/>
<text text-anchor="start" x="165" y="-352.8" font-family="Helvetica,sans-Serif" font-weight="bold" font-size="11.00" fill="#000000">policy_number</text>
<text text-anchor="start" x="307.0437" y="-351.8" font-family="Helvetica,sans-Serif" font-size="11.00" fill="#000000">[table]</text>
<polygon fill="none" stroke="#000000" points="160,-321.7 160,-343.7 342,-343.7 342,-321.7 160,-321.7"/>
<image xlink:href="../../images/primaryKeys.png" width="11px" height="12px" preserveAspectRatio="xMinYMin meet" x="165" y="-338.7"/>
<text text-anchor="start" x="180" y="-328.8" font-family="Helvetica,sans-Serif" font-size="11.00" fill="#000000">id</text>
<polygon fill="none" stroke="#000000" points="160,-302.7 160,-321.7 342,-321.7 342,-302.7 160,-302.7"/>
<text text-anchor="start" x="163" y="-308.8" font-family="Helvetica,sans-Serif" font-size="11.00" fill="#000000">...</text>
<polygon fill="#ffffff" stroke="transparent" points="160,-283.7 160,-302.7 214,-302.7 214,-283.7 160,-283.7"/>
<polygon fill="none" stroke="#000000" points="160,-283.7 160,-302.7 214,-302.7 214,-283.7 160,-283.7"/>
<text text-anchor="start" x="163" y="-289.8" font-family="Helvetica,sans-Serif" font-size="11.00" fill="#000000"> &#160;</text>
<polygon fill="#ffffff" stroke="transparent" points="214,-283.7 214,-302.7 300,-302.7 300,-283.7 214,-283.7"/>
<polygon fill="none" stroke="#000000" points="214,-283.7 214,-302.7 300,-302.7 300,-283.7 214,-283.7"/>
<text text-anchor="start" x="237.094" y="-289.8" font-family="Helvetica,sans-Serif" font-size="11.00" fill="#000000">17,427 rows</text>
<polygon fill="#ffffff" stroke="transparent" points="300,-283.7 300,-302.7 342,-302.7 342,-283.7 300,-283.7"/>
<polygon fill="none" stroke="#000000" points="300,-283.7 300,-302.7 342,-302.7 342,-283.7 300,-283.7"/>
<text text-anchor="start" x="323.4053" y="-289.8" font-family="Helvetica,sans-Serif" font-size="11.00" fill="#000000">3 &gt;</text>
</a>
</g>
</g>
<!-- auth_entity_policy_number&#45;&gt;policy_number -->
<g id="edge3" class="edge">
<title>auth_entity_policy_number:w&#45;&gt;policy_number:e</title>
<path fill="none" stroke="#000000" d="M384.3198,-233.3658C355.8603,-251.7142 388.298,-332.7 342,-332.7"/>
<polygon fill="#000000" stroke="#000000" points="390.7546,-231.7024 399.4011,-233.1854 394.6273,-230.7012 398.5,-229.7 398.5,-229.7 398.5,-229.7 394.6273,-230.7012 397.5989,-226.2146 390.7546,-231.7024 390.7546,-231.7024"/>
<ellipse fill="none" stroke="#000000" cx="387.6565" cy="-232.5033" rx="3.2" ry="3.2"/>
</g>
<!-- max_min_policy_count -->
<g id="node5" class="node">
<title>max_min_policy_count</title>
<g id="a_node5"><a xlink:href="../../tables/max_min_policy_count.html" xlink:title="max_min_policy_count" target="_top">
<polygon fill="#ffffff" stroke="transparent" points="174,-498.2 174,-559.2 328,-559.2 328,-498.2 174,-498.2"/>
<polygon fill="#f5f5f5" stroke="transparent" points="174,-535.7 174,-558.7 328,-558.7 328,-535.7 174,-535.7"/>
<polygon fill="none" stroke="#000000" points="174,-535.7 174,-558.7 328,-558.7 328,-535.7 174,-535.7"/>
<text text-anchor="start" x="178.5738" y="-544.8" font-family="Helvetica,sans-Serif" font-weight="bold" font-size="11.00" fill="#000000">max_min_policy_count</text>
<text text-anchor="start" x="293.5219" y="-543.8" font-family="Helvetica,sans-Serif" font-size="11.00" fill="#000000">[table]</text>
<polygon fill="none" stroke="#000000" points="174,-516.7 174,-535.7 328,-535.7 328,-516.7 174,-516.7"/>
<text text-anchor="start" x="177" y="-522.8" font-family="Helvetica,sans-Serif" font-size="11.00" fill="#000000">...</text>
<polygon fill="#ffffff" stroke="transparent" points="174,-497.7 174,-516.7 236,-516.7 236,-497.7 174,-497.7"/>
<polygon fill="none" stroke="#000000" points="174,-497.7 174,-516.7 236,-516.7 236,-497.7 174,-497.7"/>
<text text-anchor="start" x="177" y="-503.8" font-family="Helvetica,sans-Serif" font-size="11.00" fill="#000000">&lt; 2</text>
<polygon fill="#ffffff" stroke="transparent" points="236,-497.7 236,-516.7 295,-516.7 295,-497.7 236,-497.7"/>
<polygon fill="none" stroke="#000000" points="236,-497.7 236,-516.7 295,-516.7 295,-497.7 236,-497.7"/>
<text text-anchor="start" x="259.6105" y="-503.8" font-family="Helvetica,sans-Serif" font-size="11.00" fill="#000000">4 rows</text>
<polygon fill="#ffffff" stroke="transparent" points="295,-497.7 295,-516.7 328,-516.7 328,-497.7 295,-497.7"/>
<polygon fill="none" stroke="#000000" points="295,-497.7 295,-516.7 328,-516.7 328,-497.7 295,-497.7"/>
<text text-anchor="start" x="318.8862" y="-503.8" font-family="Helvetica,sans-Serif" font-size="11.00" fill="#000000"> &#160;</text>
</a>
</g>
</g>
<!-- max_min_policy_count&#45;&gt;place -->
<g id="edge4" class="edge">
<title>max_min_policy_count:w&#45;&gt;place:e</title>
<path fill="none" stroke="#000000" d="M160.1325,-521.6385C118.9133,-498.1797 171.696,-386.2039 111.5,-391.7"/>
<polygon fill="#000000" stroke="#000000" points="166.3225,-523.4514 172.9881,-529.1549 170.1612,-524.5757 174,-525.7 174,-525.7 174,-525.7 170.1612,-524.5757 175.0119,-522.2451 166.3225,-523.4514 166.3225,-523.4514"/>
<ellipse fill="none" stroke="#000000" cx="163.2515" cy="-522.552" rx="3.2" ry="3.2"/>
</g>
<!-- max_min_policy_count&#45;&gt;place -->
<g id="edge5" class="edge">
<title>max_min_policy_count:w&#45;&gt;place:e</title>
<path fill="none" stroke="#000000" d="M159.6103,-524.4601C119.3615,-510.1264 171.4393,-398.0848 111.5,-391.7"/>
<polygon fill="#000000" stroke="#000000" points="166.0295,-525.0132 173.6909,-529.2867 170.0148,-525.3566 174,-525.7 174,-525.7 174,-525.7 170.0148,-525.3566 174.3091,-522.1133 166.0295,-525.0132 166.0295,-525.0132"/>
<ellipse fill="none" stroke="#000000" cx="162.8413" cy="-524.7384" rx="3.2" ry="3.2"/>
</g>
<!-- observation -->
<g id="node6" class="node">
<title>observation</title>
<g id="a_node6"><a xlink:href="../../tables/observation.html" xlink:title="observation" target="_top">
<polygon fill="#ffffff" stroke="transparent" points="201.5,-416.2 201.5,-477.2 300.5,-477.2 300.5,-416.2 201.5,-416.2"/>
<polygon fill="#f5f5f5" stroke="transparent" points="202,-453.7 202,-476.7 301,-476.7 301,-453.7 202,-453.7"/>
<polygon fill="none" stroke="#000000" points="202,-453.7 202,-476.7 301,-476.7 301,-453.7 202,-453.7"/>
<text text-anchor="start" x="206.5755" y="-462.8" font-family="Helvetica,sans-Serif" font-weight="bold" font-size="11.00" fill="#000000">observation</text>
<text text-anchor="start" x="266.5219" y="-461.8" font-family="Helvetica,sans-Serif" font-size="11.00" fill="#000000">[table]</text>
<polygon fill="none" stroke="#000000" points="202,-434.7 202,-453.7 301,-453.7 301,-434.7 202,-434.7"/>
<text text-anchor="start" x="205" y="-440.8" font-family="Helvetica,sans-Serif" font-size="11.00" fill="#000000">...</text>
<polygon fill="#ffffff" stroke="transparent" points="202,-415.7 202,-434.7 223,-434.7 223,-415.7 202,-415.7"/>
<polygon fill="none" stroke="#000000" points="202,-415.7 202,-434.7 223,-434.7 223,-415.7 202,-415.7"/>
<text text-anchor="start" x="204.7027" y="-421.8" font-family="Helvetica,sans-Serif" font-size="11.00" fill="#000000">&lt; 1</text>
<polygon fill="#ffffff" stroke="transparent" points="223,-415.7 223,-434.7 288,-434.7 288,-415.7 223,-415.7"/>
<polygon fill="none" stroke="#000000" points="223,-415.7 223,-434.7 288,-434.7 288,-415.7 223,-415.7"/>
<text text-anchor="start" x="225.547" y="-421.8" font-family="Helvetica,sans-Serif" font-size="11.00" fill="#000000">62,656 rows</text>
<polygon fill="#ffffff" stroke="transparent" points="288,-415.7 288,-434.7 301,-434.7 301,-415.7 288,-415.7"/>
<polygon fill="none" stroke="#000000" points="288,-415.7 288,-434.7 301,-434.7 301,-415.7 288,-415.7"/>
<text text-anchor="start" x="291.8862" y="-421.8" font-family="Helvetica,sans-Serif" font-size="11.00" fill="#000000"> &#160;</text>
</a>
</g>
</g>
<!-- observation&#45;&gt;place -->
<g id="edge6" class="edge">
<title>observation:w&#45;&gt;place:e</title>
<path fill="none" stroke="#000000" d="M187.5397,-441.725C155.4765,-432.2266 152.4529,-391.7 111.5,-391.7"/>
<polygon fill="#000000" stroke="#000000" points="194.0736,-442.6174 201.5128,-447.2669 198.0368,-443.1587 202,-443.7 202,-443.7 202,-443.7 198.0368,-443.1587 202.4872,-440.1331 194.0736,-442.6174 194.0736,-442.6174"/>
<ellipse fill="none" stroke="#000000" cx="190.903" cy="-442.1843" rx="3.2" ry="3.2"/>
</g>
<!-- place_policy_number -->
<g id="node7" class="node">
<title>place_policy_number</title>
<g id="a_node7"><a xlink:href="../../tables/place_policy_number.html" xlink:title="place_policy_number" target="_top">
<polygon fill="#ffffff" stroke="transparent" points="391,-366.7 391,-456.7 580,-456.7 580,-366.7 391,-366.7"/>
<polygon fill="#f5f5f5" stroke="transparent" points="393.5,-431.7 393.5,-454.7 578.5,-454.7 578.5,-431.7 393.5,-431.7"/>
<polygon fill="none" stroke="#000000" points="393.5,-431.7 393.5,-454.7 578.5,-454.7 578.5,-431.7 393.5,-431.7"/>
<text text-anchor="start" x="398.5" y="-440.8" font-family="Helvetica,sans-Serif" font-weight="bold" font-size="11.00" fill="#000000">place_policy_number</text>
<text text-anchor="start" x="543.5437" y="-439.8" font-family="Helvetica,sans-Serif" font-size="11.00" fill="#000000">[table]</text>
<polygon fill="none" stroke="#000000" points="393.5,-409.7 393.5,-431.7 536.5,-431.7 536.5,-409.7 393.5,-409.7"/>
<image xlink:href="../../images/primaryKeys.png" width="11px" height="12px" preserveAspectRatio="xMinYMin meet" x="398.5" y="-426.7"/>
<text text-anchor="start" x="413.5" y="-416.8" font-family="Helvetica,sans-Serif" font-size="11.00" fill="#000000">place</text>
<polygon fill="none" stroke="#000000" points="536.5,-409.7 536.5,-431.7 578.5,-431.7 578.5,-409.7 536.5,-409.7"/>
<text text-anchor="start" x="539.4644" y="-417.4" font-family="Helvetica,sans-Serif" font-size="11.00" fill="#000000">int4[10]</text>
<polygon fill="none" stroke="#000000" points="393.5,-387.7 393.5,-409.7 536.5,-409.7 536.5,-387.7 393.5,-387.7"/>
<image xlink:href="../../images/primaryKeys.png" width="11px" height="12px" preserveAspectRatio="xMinYMin meet" x="398.5" y="-404.7"/>
<text text-anchor="start" x="413.5" y="-394.8" font-family="Helvetica,sans-Serif" font-size="11.00" fill="#000000">policy_number</text>
<polygon fill="none" stroke="#000000" points="536.5,-387.7 536.5,-409.7 578.5,-409.7 578.5,-387.7 536.5,-387.7"/>
<text text-anchor="start" x="539.4644" y="-395.4" font-family="Helvetica,sans-Serif" font-size="11.00" fill="#000000">int4[10]</text>
<polygon fill="#ffffff" stroke="transparent" points="393.5,-368.7 393.5,-387.7 442.5,-387.7 442.5,-368.7 393.5,-368.7"/>
<polygon fill="none" stroke="#000000" points="393.5,-368.7 393.5,-387.7 442.5,-387.7 442.5,-368.7 393.5,-368.7"/>
<text text-anchor="start" x="396.5" y="-374.8" font-family="Helvetica,sans-Serif" font-size="11.00" fill="#000000">&lt; 2</text>
<polygon fill="#ffffff" stroke="transparent" points="442.5,-368.7 442.5,-387.7 536.5,-387.7 536.5,-368.7 442.5,-368.7"/>
<polygon fill="none" stroke="#000000" points="442.5,-368.7 442.5,-387.7 536.5,-387.7 536.5,-368.7 442.5,-368.7"/>
<text text-anchor="start" x="473.594" y="-374.8" font-family="Helvetica,sans-Serif" font-size="11.00" fill="#000000">32,265 rows</text>
<polygon fill="#ffffff" stroke="transparent" points="536.5,-368.7 536.5,-387.7 578.5,-387.7 578.5,-368.7 536.5,-368.7"/>
<polygon fill="none" stroke="#000000" points="536.5,-368.7 536.5,-387.7 578.5,-387.7 578.5,-368.7 536.5,-368.7"/>
<text text-anchor="start" x="559.9053" y="-374.8" font-family="Helvetica,sans-Serif" font-size="11.00" fill="#000000">0 &gt;</text>
<polygon fill="none" stroke="#000000" stroke-width="2" points="392,-367.7 392,-455.7 579,-455.7 579,-367.7 392,-367.7"/>
</a>
</g>
</g>
<!-- place_policy_number&#45;&gt;place -->
<g id="edge7" class="edge">
<title>place_policy_number:w&#45;&gt;place:e</title>
<path fill="none" stroke="#000000" d="M378.9998,-418.2569C369.7706,-414.773 364.1058,-408.4911 350,-405.7 245.8371,-385.0893 217.6825,-391.7 111.5,-391.7"/>
<polygon fill="#000000" stroke="#000000" points="385.6112,-419.3708 392.9018,-424.25 389.5556,-420.0354 393.5,-420.7 393.5,-420.7 393.5,-420.7 389.5556,-420.0354 394.0982,-417.15 385.6112,-419.3708 385.6112,-419.3708"/>
<ellipse fill="none" stroke="#000000" cx="382.4557" cy="-418.8391" rx="3.2" ry="3.2"/>
</g>
<!-- place_policy_number&#45;&gt;policy_number -->
<g id="edge8" class="edge">
<title>place_policy_number:w&#45;&gt;policy_number:e</title>
<path fill="none" stroke="#000000" d="M379.511,-393.9534C362.1935,-378.8202 373.1026,-332.7 342,-332.7"/>
<polygon fill="#000000" stroke="#000000" points="385.9242,-396.1295 392.3433,-402.1091 389.7121,-397.4147 393.5,-398.7 393.5,-398.7 393.5,-398.7 389.7121,-397.4147 394.6567,-395.2909 385.9242,-396.1295 385.9242,-396.1295"/>
<ellipse fill="none" stroke="#000000" cx="382.8939" cy="-395.1012" rx="3.2" ry="3.2"/>
</g>
<!-- place_to_plan -->
<g id="node8" class="node">
<title>place_to_plan</title>
<g id="a_node8"><a xlink:href="../../tables/place_to_plan.html" xlink:title="place_to_plan" target="_top">
<polygon fill="#ffffff" stroke="transparent" points="195.5,-120.2 195.5,-181.2 306.5,-181.2 306.5,-120.2 195.5,-120.2"/>
<polygon fill="#f5f5f5" stroke="transparent" points="196,-157.7 196,-180.7 307,-180.7 307,-157.7 196,-157.7"/>
<polygon fill="none" stroke="#000000" points="196,-157.7 196,-180.7 307,-180.7 307,-157.7 196,-157.7"/>
<text text-anchor="start" x="200.7636" y="-166.8" font-family="Helvetica,sans-Serif" font-weight="bold" font-size="11.00" fill="#000000">place_to_plan</text>
<text text-anchor="start" x="272.5219" y="-165.8" font-family="Helvetica,sans-Serif" font-size="11.00" fill="#000000">[table]</text>
<polygon fill="none" stroke="#000000" points="196,-138.7 196,-157.7 307,-157.7 307,-138.7 196,-138.7"/>
<text text-anchor="start" x="199" y="-144.8" font-family="Helvetica,sans-Serif" font-size="11.00" fill="#000000">...</text>
<polygon fill="#ffffff" stroke="transparent" points="196,-119.7 196,-138.7 231,-138.7 231,-119.7 196,-119.7"/>
<polygon fill="none" stroke="#000000" points="196,-119.7 196,-138.7 231,-138.7 231,-119.7 196,-119.7"/>
<text text-anchor="start" x="199" y="-125.8" font-family="Helvetica,sans-Serif" font-size="11.00" fill="#000000">&lt; 2</text>
<polygon fill="#ffffff" stroke="transparent" points="231,-119.7 231,-138.7 288,-138.7 288,-119.7 231,-119.7"/>
<polygon fill="none" stroke="#000000" points="231,-119.7 231,-138.7 288,-138.7 288,-119.7 231,-119.7"/>
<text text-anchor="start" x="240.3807" y="-125.8" font-family="Helvetica,sans-Serif" font-size="11.00" fill="#000000">493 rows</text>
<polygon fill="#ffffff" stroke="transparent" points="288,-119.7 288,-138.7 307,-138.7 307,-119.7 288,-119.7"/>
<polygon fill="none" stroke="#000000" points="288,-119.7 288,-138.7 307,-138.7 307,-119.7 288,-119.7"/>
<text text-anchor="start" x="297.8862" y="-125.8" font-family="Helvetica,sans-Serif" font-size="11.00" fill="#000000"> &#160;</text>
</a>
</g>
</g>
<!-- place_to_plan&#45;&gt;place -->
<g id="edge9" class="edge">
<title>place_to_plan:w&#45;&gt;place:e</title>
<path fill="none" stroke="#000000" d="M181.4338,-150.1808C166.53,-156.1931 162.32,-172.4724 152,-191.7 130.5549,-231.6552 156.8465,-391.7 111.5,-391.7"/>
<polygon fill="#000000" stroke="#000000" points="188.1136,-149.0432 196.6044,-151.2489 192.0568,-148.3716 196,-147.7 196,-147.7 196,-147.7 192.0568,-148.3716 195.3956,-144.1511 188.1136,-149.0432 188.1136,-149.0432"/>
<ellipse fill="none" stroke="#000000" cx="184.959" cy="-149.5805" rx="3.2" ry="3.2"/>
</g>
<!-- place_to_policy -->
<g id="node9" class="node">
<title>place_to_policy</title>
<g id="a_node9"><a xlink:href="../../tables/place_to_policy.html" xlink:title="place_to_policy" target="_top">
<polygon fill="#ffffff" stroke="transparent" points="192,-38.2 192,-99.2 310,-99.2 310,-38.2 192,-38.2"/>
<polygon fill="#f5f5f5" stroke="transparent" points="192,-75.7 192,-98.7 310,-98.7 310,-75.7 192,-75.7"/>
<polygon fill="none" stroke="#000000" points="192,-75.7 192,-98.7 310,-98.7 310,-75.7 192,-75.7"/>
<text text-anchor="start" x="196.6006" y="-84.8" font-family="Helvetica,sans-Serif" font-weight="bold" font-size="11.00" fill="#000000">place_to_policy</text>
<text text-anchor="start" x="275.5219" y="-83.8" font-family="Helvetica,sans-Serif" font-size="11.00" fill="#000000">[table]</text>
<polygon fill="none" stroke="#000000" points="192,-56.7 192,-75.7 310,-75.7 310,-56.7 192,-56.7"/>
<text text-anchor="start" x="195" y="-62.8" font-family="Helvetica,sans-Serif" font-size="11.00" fill="#000000">...</text>
<polygon fill="#ffffff" stroke="transparent" points="192,-37.7 192,-56.7 219,-56.7 219,-37.7 192,-37.7"/>
<polygon fill="none" stroke="#000000" points="192,-37.7 192,-56.7 219,-56.7 219,-37.7 192,-37.7"/>
<text text-anchor="start" x="195" y="-43.8" font-family="Helvetica,sans-Serif" font-size="11.00" fill="#000000">&lt; 2</text>
<polygon fill="#ffffff" stroke="transparent" points="219,-37.7 219,-56.7 294,-56.7 294,-37.7 219,-37.7"/>
<polygon fill="none" stroke="#000000" points="219,-37.7 219,-56.7 294,-56.7 294,-37.7 219,-37.7"/>
<text text-anchor="start" x="224.9791" y="-43.8" font-family="Helvetica,sans-Serif" font-size="11.00" fill="#000000">999,172 rows</text>
<polygon fill="#ffffff" stroke="transparent" points="294,-37.7 294,-56.7 310,-56.7 310,-37.7 294,-37.7"/>
<polygon fill="none" stroke="#000000" points="294,-37.7 294,-56.7 310,-56.7 310,-37.7 294,-37.7"/>
<text text-anchor="start" x="300.8862" y="-43.8" font-family="Helvetica,sans-Serif" font-size="11.00" fill="#000000"> &#160;</text>
</a>
</g>
</g>
<!-- place_to_policy&#45;&gt;place -->
<g id="edge10" class="edge">
<title>place_to_policy:w&#45;&gt;place:e</title>
<path fill="none" stroke="#000000" d="M177.7725,-68.4139C164.1328,-74.6726 160.7988,-91.0213 152,-109.7 125.0208,-166.9733 174.8096,-391.7 111.5,-391.7"/>
<polygon fill="#000000" stroke="#000000" points="184.1417,-67.199 192.6745,-69.2362 188.0708,-66.4495 192,-65.7 192,-65.7 192,-65.7 188.0708,-66.4495 191.3255,-62.1638 184.1417,-67.199 184.1417,-67.199"/>
<ellipse fill="none" stroke="#000000" cx="180.9984" cy="-67.7986" rx="3.2" ry="3.2"/>
</g>
<!-- policy_number_to_policy -->
<g id="node10" class="node">
<title>policy_number_to_policy</title>
<g id="a_node10"><a xlink:href="../../tables/policy_number_to_policy.html" xlink:title="policy_number_to_policy" target="_top">
<polygon fill="#ffffff" stroke="transparent" points="403.5,-284.2 403.5,-345.2 567.5,-345.2 567.5,-284.2 403.5,-284.2"/>
<polygon fill="#f5f5f5" stroke="transparent" points="403.5,-321.7 403.5,-344.7 567.5,-344.7 567.5,-321.7 403.5,-321.7"/>
<polygon fill="none" stroke="#000000" points="403.5,-321.7 403.5,-344.7 567.5,-344.7 567.5,-321.7 403.5,-321.7"/>
<text text-anchor="start" x="408.4885" y="-330.8" font-family="Helvetica,sans-Serif" font-weight="bold" font-size="11.00" fill="#000000">policy_number_to_policy</text>
<text text-anchor="start" x="533.0219" y="-329.8" font-family="Helvetica,sans-Serif" font-size="11.00" fill="#000000">[table]</text>
<polygon fill="none" stroke="#000000" points="403.5,-302.7 403.5,-321.7 567.5,-321.7 567.5,-302.7 403.5,-302.7"/>
<text text-anchor="start" x="406.5" y="-308.8" font-family="Helvetica,sans-Serif" font-size="11.00" fill="#000000">...</text>
<polygon fill="#ffffff" stroke="transparent" points="403.5,-283.7 403.5,-302.7 457.5,-302.7 457.5,-283.7 403.5,-283.7"/>
<polygon fill="none" stroke="#000000" points="403.5,-283.7 403.5,-302.7 457.5,-302.7 457.5,-283.7 403.5,-283.7"/>
<text text-anchor="start" x="406.5" y="-289.8" font-family="Helvetica,sans-Serif" font-size="11.00" fill="#000000">&lt; 2</text>
<polygon fill="#ffffff" stroke="transparent" points="457.5,-283.7 457.5,-302.7 538.5,-302.7 538.5,-283.7 457.5,-283.7"/>
<polygon fill="none" stroke="#000000" points="457.5,-283.7 457.5,-302.7 538.5,-302.7 538.5,-283.7 457.5,-283.7"/>
<text text-anchor="start" x="475.594" y="-289.8" font-family="Helvetica,sans-Serif" font-size="11.00" fill="#000000">40,950 rows</text>
<polygon fill="#ffffff" stroke="transparent" points="538.5,-283.7 538.5,-302.7 567.5,-302.7 567.5,-283.7 538.5,-283.7"/>
<polygon fill="none" stroke="#000000" points="538.5,-283.7 538.5,-302.7 567.5,-302.7 567.5,-283.7 538.5,-283.7"/>
<text text-anchor="start" x="558.3862" y="-289.8" font-family="Helvetica,sans-Serif" font-size="11.00" fill="#000000"> &#160;</text>
</a>
</g>
</g>
<!-- policy_number_to_policy&#45;&gt;policy_number -->
<g id="edge11" class="edge">
<title>policy_number_to_policy:w&#45;&gt;policy_number:e</title>
<path fill="none" stroke="#000000" d="M389.0797,-313.7903C372.1991,-319.102 365.2417,-332.7 342,-332.7"/>
<polygon fill="#000000" stroke="#000000" points="395.5827,-312.8477 404.0165,-315.2628 399.5414,-312.2739 403.5,-311.7 403.5,-311.7 403.5,-311.7 399.5414,-312.2739 402.9835,-308.1372 395.5827,-312.8477 395.5827,-312.8477"/>
<ellipse fill="none" stroke="#000000" cx="392.4158" cy="-313.3068" rx="3.2" ry="3.2"/>
</g>
</g>
</svg>
