<?xml version="1.0" encoding="UTF-8" standalone="no"?>
<!DOCTYPE svg PUBLIC "-//W3C//DTD SVG 1.1//EN"
 "http://www.w3.org/Graphics/SVG/1.1/DTD/svg11.dtd">
<!-- Generated by graphviz version 2.40.1 (20161225.0304)
 -->
<!-- Title: oneDegreeRelationshipsDiagram Pages: 1 -->
<svg width="424pt" height="751pt"
 viewBox="0.00 0.00 424.00 750.70" xmlns="http://www.w3.org/2000/svg" xmlns:xlink="http://www.w3.org/1999/xlink">
<g id="graph0" class="graph" transform="scale(1 1) rotate(0) translate(4 746.7)">
<title>oneDegreeRelationshipsDiagram</title>
<polygon fill="#ffffff" stroke="transparent" points="-4,4 -4,-746.7 420,-746.7 420,4 -4,4"/>
<text text-anchor="middle" x="72.4936" y="-7.3" font-family="Helvetica,sans-Serif" font-size="11.00" fill="#000000">Generated by SchemaSpy</text>
<!-- auth_entity -->
<g id="node1" class="node">
<title>auth_entity</title>
<g id="a_node1"><a xlink:href="../../tables/auth_entity.html" xlink:title="auth_entity" target="_top">
<polygon fill="#ffffff" stroke="transparent" points="280.5,-633.7 280.5,-738.7 381.5,-738.7 381.5,-633.7 280.5,-633.7"/>
<polygon fill="#f5f5f5" stroke="transparent" points="281,-715.2 281,-738.2 382,-738.2 382,-715.2 281,-715.2"/>
<polygon fill="none" stroke="#000000" points="281,-715.2 281,-738.2 382,-738.2 382,-715.2 281,-715.2"/>
<text text-anchor="start" x="286" y="-724.3" font-family="Helvetica,sans-Serif" font-weight="bold" font-size="11.00" fill="#000000">auth_entity</text>
<text text-anchor="start" x="347.0437" y="-723.3" font-family="Helvetica,sans-Serif" font-size="11.00" fill="#000000">[table]</text>
<polygon fill="none" stroke="#000000" points="281,-693.2 281,-715.2 382,-715.2 382,-693.2 281,-693.2"/>
<image xlink:href="../../images/primaryKeys.png" width="11px" height="12px" preserveAspectRatio="xMinYMin meet" x="286" y="-710.2"/>
<text text-anchor="start" x="309" y="-700.3" font-family="Helvetica,sans-Serif" font-size="11.00" fill="#000000">id</text>
<polygon fill="#ffffff" stroke="transparent" points="281,-671.2 281,-693.2 382,-693.2 382,-671.2 281,-671.2"/>
<polygon fill="none" stroke="#000000" points="281,-671.2 281,-693.2 382,-693.2 382,-671.2 281,-671.2"/>
<image xlink:href="../../images/foreignKeys.png" width="11px" height="12px" preserveAspectRatio="xMinYMin meet" x="286" y="-688.2"/>
<text text-anchor="start" x="309" y="-678.3" font-family="Helvetica,sans-Serif" font-size="11.00" fill="#000000">place</text>
<polygon fill="none" stroke="#000000" points="281,-652.2 281,-671.2 382,-671.2 382,-652.2 281,-652.2"/>
<text text-anchor="start" x="284" y="-658.3" font-family="Helvetica,sans-Serif" font-size="11.00" fill="#000000">...</text>
<polygon fill="#ffffff" stroke="transparent" points="281,-633.2 281,-652.2 302,-652.2 302,-633.2 281,-633.2"/>
<polygon fill="none" stroke="#000000" points="281,-633.2 281,-652.2 302,-652.2 302,-633.2 281,-633.2"/>
<text text-anchor="start" x="283.7027" y="-639.3" font-family="Helvetica,sans-Serif" font-size="11.00" fill="#000000">&lt; 1</text>
<polygon fill="#ffffff" stroke="transparent" points="302,-633.2 302,-652.2 361,-652.2 361,-633.2 302,-633.2"/>
<polygon fill="none" stroke="#000000" points="302,-633.2 302,-652.2 361,-652.2 361,-633.2 302,-633.2"/>
<text text-anchor="start" x="304.6045" y="-639.3" font-family="Helvetica,sans-Serif" font-size="11.00" fill="#000000">2,901 rows</text>
<polygon fill="#ffffff" stroke="transparent" points="361,-633.2 361,-652.2 382,-652.2 382,-633.2 361,-633.2"/>
<polygon fill="none" stroke="#000000" points="361,-633.2 361,-652.2 382,-652.2 382,-633.2 361,-633.2"/>
<text text-anchor="start" x="363.7027" y="-639.3" font-family="Helvetica,sans-Serif" font-size="11.00" fill="#000000">3 &gt;</text>
</a>
</g>
</g>
<!-- place -->
<g id="node2" class="node">
<title>place</title>
<g id="a_node2"><a xlink:href="../../tables/place.html" xlink:title="place" target="_top">
<polygon fill="#ffffff" stroke="transparent" points="8,-178.2 8,-444.2 205,-444.2 205,-178.2 8,-178.2"/>
<polygon fill="#f5f5f5" stroke="transparent" points="10.5,-419.2 10.5,-442.2 203.5,-442.2 203.5,-419.2 10.5,-419.2"/>
<polygon fill="none" stroke="#000000" points="10.5,-419.2 10.5,-442.2 203.5,-442.2 203.5,-419.2 10.5,-419.2"/>
<text text-anchor="start" x="15.5" y="-428.3" font-family="Helvetica,sans-Serif" font-weight="bold" font-size="11.00" fill="#000000">place</text>
<text text-anchor="start" x="168.5437" y="-427.3" font-family="Helvetica,sans-Serif" font-size="11.00" fill="#000000">[table]</text>
<polygon fill="none" stroke="#000000" points="10.5,-397.2 10.5,-419.2 113.5,-419.2 113.5,-397.2 10.5,-397.2"/>
<image xlink:href="../../images/primaryKeys.png" width="11px" height="12px" preserveAspectRatio="xMinYMin meet" x="15.5" y="-414.2"/>
<text text-anchor="start" x="30.5" y="-404.3" font-family="Helvetica,sans-Serif" font-size="11.00" fill="#000000">id</text>
<polygon fill="none" stroke="#000000" points="113.5,-397.2 113.5,-419.2 203.5,-419.2 203.5,-397.2 113.5,-397.2"/>
<text text-anchor="start" x="116.5" y="-404.9" font-family="Helvetica,sans-Serif" font-size="11.00" fill="#000000">serial[10]</text>
<polygon fill="#ffffff" stroke="transparent" points="10.5,-375.2 10.5,-397.2 113.5,-397.2 113.5,-375.2 10.5,-375.2"/>
<polygon fill="none" stroke="#000000" points="10.5,-375.2 10.5,-397.2 113.5,-397.2 113.5,-375.2 10.5,-375.2"/>
<text text-anchor="start" x="30.5" y="-382.3" font-family="Helvetica,sans-Serif" font-size="11.00" fill="#000000">level</text>
<polygon fill="none" stroke="#000000" points="113.5,-375.2 113.5,-397.2 203.5,-397.2 203.5,-375.2 113.5,-375.2"/>
<text text-anchor="start" x="116.0042" y="-382.9" font-family="Helvetica,sans-Serif" font-size="11.00" fill="#000000">text[2147483647]</text>
<polygon fill="#ffffff" stroke="transparent" points="10.5,-353.2 10.5,-375.2 113.5,-375.2 113.5,-353.2 10.5,-353.2"/>
<polygon fill="none" stroke="#000000" points="10.5,-353.2 10.5,-375.2 113.5,-375.2 113.5,-353.2 10.5,-353.2"/>
<text text-anchor="start" x="30.5" y="-360.3" font-family="Helvetica,sans-Serif" font-size="11.00" fill="#000000">iso3</text>
<polygon fill="none" stroke="#000000" points="113.5,-353.2 113.5,-375.2 203.5,-375.2 203.5,-353.2 113.5,-353.2"/>
<text text-anchor="start" x="116.0042" y="-360.9" font-family="Helvetica,sans-Serif" font-size="11.00" fill="#000000">text[2147483647]</text>
<polygon fill="none" stroke="#000000" points="10.5,-331.2 10.5,-353.2 113.5,-353.2 113.5,-331.2 10.5,-331.2"/>
<text text-anchor="start" x="30.5" y="-338.3" font-family="Helvetica,sans-Serif" font-size="11.00" fill="#000000">country_name</text>
<polygon fill="none" stroke="#000000" points="113.5,-331.2 113.5,-353.2 203.5,-353.2 203.5,-331.2 113.5,-331.2"/>
<text text-anchor="start" x="116.0042" y="-338.9" font-family="Helvetica,sans-Serif" font-size="11.00" fill="#000000">text[2147483647]</text>
<polygon fill="none" stroke="#000000" points="10.5,-309.2 10.5,-331.2 113.5,-331.2 113.5,-309.2 10.5,-309.2"/>
<text text-anchor="start" x="30.5" y="-316.3" font-family="Helvetica,sans-Serif" font-size="11.00" fill="#000000">area1</text>
<polygon fill="none" stroke="#000000" points="113.5,-309.2 113.5,-331.2 203.5,-331.2 203.5,-309.2 113.5,-309.2"/>
<text text-anchor="start" x="116.0042" y="-316.9" font-family="Helvetica,sans-Serif" font-size="11.00" fill="#000000">text[2147483647]</text>
<polygon fill="none" stroke="#000000" points="10.5,-287.2 10.5,-309.2 113.5,-309.2 113.5,-287.2 10.5,-287.2"/>
<text text-anchor="start" x="30.5" y="-294.3" font-family="Helvetica,sans-Serif" font-size="11.00" fill="#000000">area2</text>
<polygon fill="none" stroke="#000000" points="113.5,-287.2 113.5,-309.2 203.5,-309.2 203.5,-287.2 113.5,-287.2"/>
<text text-anchor="start" x="116.0042" y="-294.9" font-family="Helvetica,sans-Serif" font-size="11.00" fill="#000000">text[2147483647]</text>
<polygon fill="none" stroke="#000000" points="10.5,-265.2 10.5,-287.2 113.5,-287.2 113.5,-265.2 10.5,-265.2"/>
<text text-anchor="start" x="30.5" y="-272.3" font-family="Helvetica,sans-Serif" font-size="11.00" fill="#000000">loc</text>
<polygon fill="none" stroke="#000000" points="113.5,-265.2 113.5,-287.2 203.5,-287.2 203.5,-265.2 113.5,-265.2"/>
<text text-anchor="start" x="116.0042" y="-272.9" font-family="Helvetica,sans-Serif" font-size="11.00" fill="#000000">text[2147483647]</text>
<polygon fill="none" stroke="#000000" points="10.5,-243.2 10.5,-265.2 113.5,-265.2 113.5,-243.2 10.5,-243.2"/>
<text text-anchor="start" x="30.5" y="-250.3" font-family="Helvetica,sans-Serif" font-size="11.00" fill="#000000">home_rule</text>
<polygon fill="none" stroke="#000000" points="113.5,-243.2 113.5,-265.2 203.5,-265.2 203.5,-243.2 113.5,-243.2"/>
<text text-anchor="start" x="116.0042" y="-250.9" font-family="Helvetica,sans-Serif" font-size="11.00" fill="#000000">text[2147483647]</text>
<polygon fill="none" stroke="#000000" points="10.5,-221.2 10.5,-243.2 113.5,-243.2 113.5,-221.2 10.5,-221.2"/>
<text text-anchor="start" x="30.5" y="-228.3" font-family="Helvetica,sans-Serif" font-size="11.00" fill="#000000">dillons_rule</text>
<polygon fill="none" stroke="#000000" points="113.5,-221.2 113.5,-243.2 203.5,-243.2 203.5,-221.2 113.5,-221.2"/>
<text text-anchor="start" x="116.0042" y="-228.9" font-family="Helvetica,sans-Serif" font-size="11.00" fill="#000000">text[2147483647]</text>
<polygon fill="#ffffff" stroke="transparent" points="10.5,-199.2 10.5,-221.2 113.5,-221.2 113.5,-199.2 10.5,-199.2"/>
<polygon fill="none" stroke="#000000" points="10.5,-199.2 10.5,-221.2 113.5,-221.2 113.5,-199.2 10.5,-199.2"/>
<text text-anchor="start" x="30.5" y="-206.3" font-family="Helvetica,sans-Serif" font-size="11.00" fill="#000000">ansi_fips</text>
<polygon fill="none" stroke="#000000" points="113.5,-199.2 113.5,-221.2 203.5,-221.2 203.5,-199.2 113.5,-199.2"/>
<text text-anchor="start" x="116.0042" y="-206.9" font-family="Helvetica,sans-Serif" font-size="11.00" fill="#000000">text[2147483647]</text>
<polygon fill="#ffffff" stroke="transparent" points="10.5,-180.2 10.5,-199.2 42.5,-199.2 42.5,-180.2 10.5,-180.2"/>
<polygon fill="none" stroke="#000000" points="10.5,-180.2 10.5,-199.2 42.5,-199.2 42.5,-180.2 10.5,-180.2"/>
<text text-anchor="start" x="13.5" y="-186.3" font-family="Helvetica,sans-Serif" font-size="11.00" fill="#000000">&lt; 0</text>
<polygon fill="#ffffff" stroke="transparent" points="42.5,-180.2 42.5,-199.2 113.5,-199.2 113.5,-180.2 42.5,-180.2"/>
<polygon fill="none" stroke="#000000" points="42.5,-180.2 42.5,-199.2 113.5,-199.2 113.5,-180.2 42.5,-180.2"/>
<text text-anchor="start" x="56.7089" y="-186.3" font-family="Helvetica,sans-Serif" font-size="11.00" fill="#000000">7,645 rows</text>
<polygon fill="#ffffff" stroke="transparent" points="113.5,-180.2 113.5,-199.2 203.5,-199.2 203.5,-180.2 113.5,-180.2"/>
<polygon fill="none" stroke="#000000" points="113.5,-180.2 113.5,-199.2 203.5,-199.2 203.5,-180.2 113.5,-180.2"/>
<text text-anchor="start" x="184.9053" y="-186.3" font-family="Helvetica,sans-Serif" font-size="11.00" fill="#000000">7 &gt;</text>
<polygon fill="none" stroke="#000000" stroke-width="2" points="9,-179.2 9,-443.2 204,-443.2 204,-179.2 9,-179.2"/>
</a>
</g>
</g>
<!-- auth_entity&#45;&gt;place -->
<g id="edge1" class="edge">
<title>auth_entity:w&#45;&gt;place:e</title>
<path fill="none" stroke="#000000" d="M266.9513,-678.9496C252.3444,-670.3551 254.7641,-646.1154 246,-623.2 228.6026,-577.7111 252.2023,-408.2 203.5,-408.2"/>
<polygon fill="#000000" stroke="#000000" points="273.2059,-680.3967 280.1885,-685.7073 277.1029,-681.2983 281,-682.2 281,-682.2 281,-682.2 277.1029,-681.2983 281.8115,-678.6927 273.2059,-680.3967 273.2059,-680.3967"/>
<ellipse fill="none" stroke="#000000" cx="270.0882" cy="-679.6753" rx="3.2" ry="3.2"/>
</g>
<!-- max_min_policy_count -->
<g id="node3" class="node">
<title>max_min_policy_count</title>
<g id="a_node3"><a xlink:href="../../tables/max_min_policy_count.html" xlink:title="max_min_policy_count" target="_top">
<polygon fill="#ffffff" stroke="transparent" points="254,-485.7 254,-612.7 408,-612.7 408,-485.7 254,-485.7"/>
<polygon fill="#f5f5f5" stroke="transparent" points="254,-589.2 254,-612.2 408,-612.2 408,-589.2 254,-589.2"/>
<polygon fill="none" stroke="#000000" points="254,-589.2 254,-612.2 408,-612.2 408,-589.2 254,-589.2"/>
<text text-anchor="start" x="258.5738" y="-598.3" font-family="Helvetica,sans-Serif" font-weight="bold" font-size="11.00" fill="#000000">max_min_policy_count</text>
<text text-anchor="start" x="373.5219" y="-597.3" font-family="Helvetica,sans-Serif" font-size="11.00" fill="#000000">[table]</text>
<polygon fill="none" stroke="#000000" points="254,-567.2 254,-589.2 408,-589.2 408,-567.2 254,-567.2"/>
<image xlink:href="../../images/primaryKeys.png" width="11px" height="12px" preserveAspectRatio="xMinYMin meet" x="259" y="-584.2"/>
<text text-anchor="start" x="275" y="-574.3" font-family="Helvetica,sans-Serif" font-size="11.00" fill="#000000">max_policy_count_id</text>
<polygon fill="none" stroke="#000000" points="254,-545.2 254,-567.2 408,-567.2 408,-545.2 254,-545.2"/>
<image xlink:href="../../images/foreignKeys.png" width="11px" height="12px" preserveAspectRatio="xMinYMin meet" x="259" y="-562.2"/>
<text text-anchor="start" x="275" y="-552.3" font-family="Helvetica,sans-Serif" font-size="11.00" fill="#000000">fk_place_id_max</text>
<polygon fill="none" stroke="#000000" points="254,-523.2 254,-545.2 408,-545.2 408,-523.2 254,-523.2"/>
<image xlink:href="../../images/foreignKeys.png" width="11px" height="12px" preserveAspectRatio="xMinYMin meet" x="259" y="-540.2"/>
<text text-anchor="start" x="275" y="-530.3" font-family="Helvetica,sans-Serif" font-size="11.00" fill="#000000">fk_place_id_min</text>
<polygon fill="none" stroke="#000000" points="254,-504.2 254,-523.2 408,-523.2 408,-504.2 254,-504.2"/>
<text text-anchor="start" x="257" y="-510.3" font-family="Helvetica,sans-Serif" font-size="11.00" fill="#000000">...</text>
<polygon fill="#ffffff" stroke="transparent" points="254,-485.2 254,-504.2 316,-504.2 316,-485.2 254,-485.2"/>
<polygon fill="none" stroke="#000000" points="254,-485.2 254,-504.2 316,-504.2 316,-485.2 254,-485.2"/>
<text text-anchor="start" x="257" y="-491.3" font-family="Helvetica,sans-Serif" font-size="11.00" fill="#000000">&lt; 2</text>
<polygon fill="#ffffff" stroke="transparent" points="316,-485.2 316,-504.2 375,-504.2 375,-485.2 316,-485.2"/>
<polygon fill="none" stroke="#000000" points="316,-485.2 316,-504.2 375,-504.2 375,-485.2 316,-485.2"/>
<text text-anchor="start" x="339.6105" y="-491.3" font-family="Helvetica,sans-Serif" font-size="11.00" fill="#000000">4 rows</text>
<polygon fill="#ffffff" stroke="transparent" points="375,-485.2 375,-504.2 408,-504.2 408,-485.2 375,-485.2"/>
<polygon fill="none" stroke="#000000" points="375,-485.2 375,-504.2 408,-504.2 408,-485.2 375,-485.2"/>
<text text-anchor="start" x="398.8862" y="-491.3" font-family="Helvetica,sans-Serif" font-size="11.00" fill="#000000"> &#160;</text>
</a>
</g>
</g>
<!-- max_min_policy_count&#45;&gt;place -->
<g id="edge2" class="edge">
<title>max_min_policy_count:w&#45;&gt;place:e</title>
<path fill="none" stroke="#000000" d="M239.6451,-553.2436C198.2497,-532.3845 267.1645,-408.2 203.5,-408.2"/>
<polygon fill="#000000" stroke="#000000" points="246.1644,-554.5862 253.2738,-559.726 250.0822,-555.3931 254,-556.2 254,-556.2 254,-556.2 250.0822,-555.3931 254.7262,-552.674 246.1644,-554.5862 246.1644,-554.5862"/>
<ellipse fill="none" stroke="#000000" cx="243.0302" cy="-553.9407" rx="3.2" ry="3.2"/>
</g>
<!-- max_min_policy_count&#45;&gt;place -->
<g id="edge3" class="edge">
<title>max_min_policy_count:w&#45;&gt;place:e</title>
<path fill="none" stroke="#000000" d="M239.8154,-530.8298C206.1284,-510.7923 257.9387,-408.2 203.5,-408.2"/>
<polygon fill="#000000" stroke="#000000" points="246.2167,-532.3507 253.1678,-537.7025 250.1083,-533.2753 254,-534.2 254,-534.2 254,-534.2 250.1083,-533.2753 254.8322,-530.6975 246.2167,-532.3507 246.2167,-532.3507"/>
<ellipse fill="none" stroke="#000000" cx="243.1033" cy="-531.6109" rx="3.2" ry="3.2"/>
</g>
<!-- observation -->
<g id="node4" class="node">
<title>observation</title>
<g id="a_node4"><a xlink:href="../../tables/observation.html" xlink:title="observation" target="_top">
<polygon fill="#ffffff" stroke="transparent" points="281.5,-359.7 281.5,-464.7 380.5,-464.7 380.5,-359.7 281.5,-359.7"/>
<polygon fill="#f5f5f5" stroke="transparent" points="282,-441.2 282,-464.2 381,-464.2 381,-441.2 282,-441.2"/>
<polygon fill="none" stroke="#000000" points="282,-441.2 282,-464.2 381,-464.2 381,-441.2 282,-441.2"/>
<text text-anchor="start" x="286.5755" y="-450.3" font-family="Helvetica,sans-Serif" font-weight="bold" font-size="11.00" fill="#000000">observation</text>
<text text-anchor="start" x="346.5219" y="-449.3" font-family="Helvetica,sans-Serif" font-size="11.00" fill="#000000">[table]</text>
<polygon fill="none" stroke="#000000" points="282,-419.2 282,-441.2 381,-441.2 381,-419.2 282,-419.2"/>
<image xlink:href="../../images/primaryKeys.png" width="11px" height="12px" preserveAspectRatio="xMinYMin meet" x="287" y="-436.2"/>
<text text-anchor="start" x="307" y="-426.3" font-family="Helvetica,sans-Serif" font-size="11.00" fill="#000000">id</text>
<polygon fill="#ffffff" stroke="transparent" points="282,-397.2 282,-419.2 381,-419.2 381,-397.2 282,-397.2"/>
<polygon fill="none" stroke="#000000" points="282,-397.2 282,-419.2 381,-419.2 381,-397.2 282,-397.2"/>
<image xlink:href="../../images/foreignKeys.png" width="11px" height="12px" preserveAspectRatio="xMinYMin meet" x="287" y="-414.2"/>
<text text-anchor="start" x="307" y="-404.3" font-family="Helvetica,sans-Serif" font-size="11.00" fill="#000000">place</text>
<polygon fill="none" stroke="#000000" points="282,-378.2 282,-397.2 381,-397.2 381,-378.2 282,-378.2"/>
<text text-anchor="start" x="285" y="-384.3" font-family="Helvetica,sans-Serif" font-size="11.00" fill="#000000">...</text>
<polygon fill="#ffffff" stroke="transparent" points="282,-359.2 282,-378.2 303,-378.2 303,-359.2 282,-359.2"/>
<polygon fill="none" stroke="#000000" points="282,-359.2 282,-378.2 303,-378.2 303,-359.2 282,-359.2"/>
<text text-anchor="start" x="284.7027" y="-365.3" font-family="Helvetica,sans-Serif" font-size="11.00" fill="#000000">&lt; 1</text>
<polygon fill="#ffffff" stroke="transparent" points="303,-359.2 303,-378.2 368,-378.2 368,-359.2 303,-359.2"/>
<polygon fill="none" stroke="#000000" points="303,-359.2 303,-378.2 368,-378.2 368,-359.2 303,-359.2"/>
<text text-anchor="start" x="305.547" y="-365.3" font-family="Helvetica,sans-Serif" font-size="11.00" fill="#000000">62,656 rows</text>
<polygon fill="#ffffff" stroke="transparent" points="368,-359.2 368,-378.2 381,-378.2 381,-359.2 368,-359.2"/>
<polygon fill="none" stroke="#000000" points="368,-359.2 368,-378.2 381,-378.2 381,-359.2 368,-359.2"/>
<text text-anchor="start" x="371.8862" y="-365.3" font-family="Helvetica,sans-Serif" font-size="11.00" fill="#000000"> &#160;</text>
</a>
</g>
</g>
<!-- observation&#45;&gt;place -->
<g id="edge4" class="edge">
<title>observation:w&#45;&gt;place:e</title>
<path fill="none" stroke="#000000" d="M267.3627,-408.2C243.7466,-408.2 232.9375,-408.2 203.5,-408.2"/>
<polygon fill="#000000" stroke="#000000" points="274,-408.2001 282,-411.8 278,-408.2 282,-408.2 282,-408.2 282,-408.2 278,-408.2 282,-404.6 274,-408.2001 274,-408.2001"/>
<ellipse fill="none" stroke="#000000" cx="270.8" cy="-408.2001" rx="3.2" ry="3.2"/>
</g>
<!-- place_policy_number -->
<g id="node5" class="node">
<title>place_policy_number</title>
<g id="a_node5"><a xlink:href="../../tables/place_policy_number.html" xlink:title="place_policy_number" target="_top">
<polygon fill="#ffffff" stroke="transparent" points="258,-252.2 258,-338.2 404,-338.2 404,-252.2 258,-252.2"/>
<polygon fill="#f5f5f5" stroke="transparent" points="258,-315.2 258,-338.2 404,-338.2 404,-315.2 258,-315.2"/>
<polygon fill="none" stroke="#000000" points="258,-315.2 258,-338.2 404,-338.2 404,-315.2 258,-315.2"/>
<text text-anchor="start" x="262.5448" y="-324.3" font-family="Helvetica,sans-Serif" font-weight="bold" font-size="11.00" fill="#000000">place_policy_number</text>
<text text-anchor="start" x="369.5219" y="-323.3" font-family="Helvetica,sans-Serif" font-size="11.00" fill="#000000">[table]</text>
<polygon fill="none" stroke="#000000" points="258,-293.2 258,-315.2 404,-315.2 404,-293.2 258,-293.2"/>
<image xlink:href="../../images/primaryKeys.png" width="11px" height="12px" preserveAspectRatio="xMinYMin meet" x="263" y="-310.2"/>
<text text-anchor="start" x="280" y="-300.3" font-family="Helvetica,sans-Serif" font-size="11.00" fill="#000000">place</text>
<polygon fill="none" stroke="#000000" points="258,-271.2 258,-293.2 404,-293.2 404,-271.2 258,-271.2"/>
<image xlink:href="../../images/primaryKeys.png" width="11px" height="12px" preserveAspectRatio="xMinYMin meet" x="263" y="-288.2"/>
<text text-anchor="start" x="280" y="-278.3" font-family="Helvetica,sans-Serif" font-size="11.00" fill="#000000">policy_number</text>
<polygon fill="#ffffff" stroke="transparent" points="258,-252.2 258,-271.2 303,-271.2 303,-252.2 258,-252.2"/>
<polygon fill="none" stroke="#000000" points="258,-252.2 258,-271.2 303,-271.2 303,-252.2 258,-252.2"/>
<text text-anchor="start" x="261" y="-258.3" font-family="Helvetica,sans-Serif" font-size="11.00" fill="#000000">&lt; 2</text>
<polygon fill="#ffffff" stroke="transparent" points="303,-252.2 303,-271.2 380,-271.2 380,-252.2 303,-252.2"/>
<polygon fill="none" stroke="#000000" points="303,-252.2 303,-271.2 380,-271.2 380,-252.2 303,-252.2"/>
<text text-anchor="start" x="317.094" y="-258.3" font-family="Helvetica,sans-Serif" font-size="11.00" fill="#000000">32,265 rows</text>
<polygon fill="#ffffff" stroke="transparent" points="380,-252.2 380,-271.2 404,-271.2 404,-252.2 380,-252.2"/>
<polygon fill="none" stroke="#000000" points="380,-252.2 380,-271.2 404,-271.2 404,-252.2 380,-252.2"/>
<text text-anchor="start" x="394.8862" y="-258.3" font-family="Helvetica,sans-Serif" font-size="11.00" fill="#000000"> &#160;</text>
</a>
</g>
</g>
<!-- place_policy_number&#45;&gt;place -->
<g id="edge5" class="edge">
<title>place_policy_number:w&#45;&gt;place:e</title>
<path fill="none" stroke="#000000" d="M243.8976,-307.9014C215.8044,-326.4279 249.7729,-408.2 203.5,-408.2"/>
<polygon fill="#000000" stroke="#000000" points="250.2621,-306.231 258.9139,-307.6821 254.131,-305.2155 258,-304.2 258,-304.2 258,-304.2 254.131,-305.2155 257.0861,-300.7179 250.2621,-306.231 250.2621,-306.231"/>
<ellipse fill="none" stroke="#000000" cx="247.1669" cy="-307.0434" rx="3.2" ry="3.2"/>
</g>
<!-- place_to_plan -->
<g id="node6" class="node">
<title>place_to_plan</title>
<g id="a_node6"><a xlink:href="../../tables/place_to_plan.html" xlink:title="place_to_plan" target="_top">
<polygon fill="#ffffff" stroke="transparent" points="275.5,-145.2 275.5,-231.2 386.5,-231.2 386.5,-145.2 275.5,-145.2"/>
<polygon fill="#f5f5f5" stroke="transparent" points="276,-208.2 276,-231.2 387,-231.2 387,-208.2 276,-208.2"/>
<polygon fill="none" stroke="#000000" points="276,-208.2 276,-231.2 387,-231.2 387,-208.2 276,-208.2"/>
<text text-anchor="start" x="280.7636" y="-217.3" font-family="Helvetica,sans-Serif" font-weight="bold" font-size="11.00" fill="#000000">place_to_plan</text>
<text text-anchor="start" x="352.5219" y="-216.3" font-family="Helvetica,sans-Serif" font-size="11.00" fill="#000000">[table]</text>
<polygon fill="none" stroke="#000000" points="276,-186.2 276,-208.2 387,-208.2 387,-186.2 276,-186.2"/>
<image xlink:href="../../images/primaryKeys.png" width="11px" height="12px" preserveAspectRatio="xMinYMin meet" x="281" y="-203.2"/>
<text text-anchor="start" x="301" y="-193.3" font-family="Helvetica,sans-Serif" font-size="11.00" fill="#000000">place</text>
<polygon fill="none" stroke="#000000" points="276,-164.2 276,-186.2 387,-186.2 387,-164.2 276,-164.2"/>
<image xlink:href="../../images/primaryKeys.png" width="11px" height="12px" preserveAspectRatio="xMinYMin meet" x="281" y="-181.2"/>
<text text-anchor="start" x="301" y="-171.3" font-family="Helvetica,sans-Serif" font-size="11.00" fill="#000000">plan</text>
<polygon fill="#ffffff" stroke="transparent" points="276,-145.2 276,-164.2 311,-164.2 311,-145.2 276,-145.2"/>
<polygon fill="none" stroke="#000000" points="276,-145.2 276,-164.2 311,-164.2 311,-145.2 276,-145.2"/>
<text text-anchor="start" x="279" y="-151.3" font-family="Helvetica,sans-Serif" font-size="11.00" fill="#000000">&lt; 2</text>
<polygon fill="#ffffff" stroke="transparent" points="311,-145.2 311,-164.2 368,-164.2 368,-145.2 311,-145.2"/>
<polygon fill="none" stroke="#000000" points="311,-145.2 311,-164.2 368,-164.2 368,-145.2 311,-145.2"/>
<text text-anchor="start" x="320.3807" y="-151.3" font-family="Helvetica,sans-Serif" font-size="11.00" fill="#000000">493 rows</text>
<polygon fill="#ffffff" stroke="transparent" points="368,-145.2 368,-164.2 387,-164.2 387,-145.2 368,-145.2"/>
<polygon fill="none" stroke="#000000" points="368,-145.2 368,-164.2 387,-164.2 387,-145.2 368,-145.2"/>
<text text-anchor="start" x="377.8862" y="-151.3" font-family="Helvetica,sans-Serif" font-size="11.00" fill="#000000"> &#160;</text>
</a>
</g>
</g>
<!-- place_to_plan&#45;&gt;place -->
<g id="edge6" class="edge">
<title>place_to_plan:w&#45;&gt;place:e</title>
<path fill="none" stroke="#000000" d="M261.6766,-199.0241C189.9294,-219.6471 297.2364,-408.2 203.5,-408.2"/>
<polygon fill="#000000" stroke="#000000" points="268.0641,-198.2107 276.4548,-200.7712 272.032,-197.7054 276,-197.2 276,-197.2 276,-197.2 272.032,-197.7054 275.5452,-193.6288 268.0641,-198.2107 268.0641,-198.2107"/>
<ellipse fill="none" stroke="#000000" cx="264.8897" cy="-198.615" rx="3.2" ry="3.2"/>
</g>
<!-- place_to_policy -->
<g id="node7" class="node">
<title>place_to_policy</title>
<g id="a_node7"><a xlink:href="../../tables/place_to_policy.html" xlink:title="place_to_policy" target="_top">
<polygon fill="#ffffff" stroke="transparent" points="272,-38.2 272,-124.2 390,-124.2 390,-38.2 272,-38.2"/>
<polygon fill="#f5f5f5" stroke="transparent" points="272,-101.2 272,-124.2 390,-124.2 390,-101.2 272,-101.2"/>
<polygon fill="none" stroke="#000000" points="272,-101.2 272,-124.2 390,-124.2 390,-101.2 272,-101.2"/>
<text text-anchor="start" x="276.6006" y="-110.3" font-family="Helvetica,sans-Serif" font-weight="bold" font-size="11.00" fill="#000000">place_to_policy</text>
<text text-anchor="start" x="355.5219" y="-109.3" font-family="Helvetica,sans-Serif" font-size="11.00" fill="#000000">[table]</text>
<polygon fill="none" stroke="#000000" points="272,-79.2 272,-101.2 390,-101.2 390,-79.2 272,-79.2"/>
<image xlink:href="../../images/primaryKeys.png" width="11px" height="12px" preserveAspectRatio="xMinYMin meet" x="277" y="-96.2"/>
<text text-anchor="start" x="296" y="-86.3" font-family="Helvetica,sans-Serif" font-size="11.00" fill="#000000">place</text>
<polygon fill="none" stroke="#000000" points="272,-57.2 272,-79.2 390,-79.2 390,-57.2 272,-57.2"/>
<image xlink:href="../../images/primaryKeys.png" width="11px" height="12px" preserveAspectRatio="xMinYMin meet" x="277" y="-74.2"/>
<text text-anchor="start" x="296" y="-64.3" font-family="Helvetica,sans-Serif" font-size="11.00" fill="#000000">policy</text>
<polygon fill="#ffffff" stroke="transparent" points="272,-38.2 272,-57.2 299,-57.2 299,-38.2 272,-38.2"/>
<polygon fill="none" stroke="#000000" points="272,-38.2 272,-57.2 299,-57.2 299,-38.2 272,-38.2"/>
<text text-anchor="start" x="275" y="-44.3" font-family="Helvetica,sans-Serif" font-size="11.00" fill="#000000">&lt; 2</text>
<polygon fill="#ffffff" stroke="transparent" points="299,-38.2 299,-57.2 374,-57.2 374,-38.2 299,-38.2"/>
<polygon fill="none" stroke="#000000" points="299,-38.2 299,-57.2 374,-57.2 374,-38.2 299,-38.2"/>
<text text-anchor="start" x="304.9791" y="-44.3" font-family="Helvetica,sans-Serif" font-size="11.00" fill="#000000">999,172 rows</text>
<polygon fill="#ffffff" stroke="transparent" points="374,-38.2 374,-57.2 390,-57.2 390,-38.2 374,-38.2"/>
<polygon fill="none" stroke="#000000" points="374,-38.2 374,-57.2 390,-57.2 390,-38.2 374,-38.2"/>
<text text-anchor="start" x="380.8862" y="-44.3" font-family="Helvetica,sans-Serif" font-size="11.00" fill="#000000"> &#160;</text>
</a>
</g>
</g>
<!-- place_to_policy&#45;&gt;place -->
<g id="edge7" class="edge">
<title>place_to_policy:w&#45;&gt;place:e</title>
<path fill="none" stroke="#000000" d="M258.2351,-95.195C210.1876,-135.6514 270.4225,-408.2 203.5,-408.2"/>
<polygon fill="#000000" stroke="#000000" points="264.4798,-92.929 273.228,-93.5841 268.2399,-91.5645 272,-90.2 272,-90.2 272,-90.2 268.2399,-91.5645 270.772,-86.8159 264.4798,-92.929 264.4798,-92.929"/>
<ellipse fill="none" stroke="#000000" cx="261.4718" cy="-94.0206" rx="3.2" ry="3.2"/>
</g>
</g>
</svg>
