<?xml version="1.0" encoding="UTF-8" standalone="no"?>
<!DOCTYPE svg PUBLIC "-//W3C//DTD SVG 1.1//EN"
 "http://www.w3.org/Graphics/SVG/1.1/DTD/svg11.dtd">
<!-- Generated by graphviz version 2.40.1 (20161225.0304)
 -->
<!-- Title: oneDegreeRelationshipsDiagram Pages: 1 -->
<svg width="450pt" height="347pt"
 viewBox="0.00 0.00 450.00 347.20" xmlns="http://www.w3.org/2000/svg" xmlns:xlink="http://www.w3.org/1999/xlink">
<g id="graph0" class="graph" transform="scale(1 1) rotate(0) translate(4 343.2)">
<title>oneDegreeRelationshipsDiagram</title>
<polygon fill="#ffffff" stroke="transparent" points="-4,4 -4,-343.2 446,-343.2 446,4 -4,4"/>
<text text-anchor="middle" x="72.4936" y="-7.3" font-family="Helvetica,sans-Serif" font-size="11.00" fill="#000000">Generated by SchemaSpy</text>
<!-- place_to_policy -->
<g id="node1" class="node">
<title>place_to_policy</title>
<g id="a_node1"><a xlink:href="../../tables/place_to_policy.html" xlink:title="place_to_policy" target="_top">
<polygon fill="#ffffff" stroke="transparent" points="277,-172.7 277,-262.7 434,-262.7 434,-172.7 277,-172.7"/>
<polygon fill="#f5f5f5" stroke="transparent" points="279.5,-237.7 279.5,-260.7 432.5,-260.7 432.5,-237.7 279.5,-237.7"/>
<polygon fill="none" stroke="#000000" points="279.5,-237.7 279.5,-260.7 432.5,-260.7 432.5,-237.7 279.5,-237.7"/>
<text text-anchor="start" x="284.5" y="-246.8" font-family="Helvetica,sans-Serif" font-weight="bold" font-size="11.00" fill="#000000">place_to_policy</text>
<text text-anchor="start" x="397.5437" y="-245.8" font-family="Helvetica,sans-Serif" font-size="11.00" fill="#000000">[table]</text>
<polygon fill="none" stroke="#000000" points="279.5,-215.7 279.5,-237.7 390.5,-237.7 390.5,-215.7 279.5,-215.7"/>
<image xlink:href="../../images/primaryKeys.png" width="11px" height="12px" preserveAspectRatio="xMinYMin meet" x="284.5" y="-232.7"/>
<text text-anchor="start" x="299.5" y="-222.8" font-family="Helvetica,sans-Serif" font-size="11.00" fill="#000000">place</text>
<polygon fill="none" stroke="#000000" points="390.5,-215.7 390.5,-237.7 432.5,-237.7 432.5,-215.7 390.5,-215.7"/>
<text text-anchor="start" x="393.4644" y="-223.4" font-family="Helvetica,sans-Serif" font-size="11.00" fill="#000000">int4[10]</text>
<polygon fill="none" stroke="#000000" points="279.5,-193.7 279.5,-215.7 390.5,-215.7 390.5,-193.7 279.5,-193.7"/>
<image xlink:href="../../images/primaryKeys.png" width="11px" height="12px" preserveAspectRatio="xMinYMin meet" x="284.5" y="-210.7"/>
<text text-anchor="start" x="299.5" y="-200.8" font-family="Helvetica,sans-Serif" font-size="11.00" fill="#000000">policy</text>
<polygon fill="none" stroke="#000000" points="390.5,-193.7 390.5,-215.7 432.5,-215.7 432.5,-193.7 390.5,-193.7"/>
<text text-anchor="start" x="393.4644" y="-201.4" font-family="Helvetica,sans-Serif" font-size="11.00" fill="#000000">int4[10]</text>
<polygon fill="#ffffff" stroke="transparent" points="279.5,-174.7 279.5,-193.7 309.5,-193.7 309.5,-174.7 279.5,-174.7"/>
<polygon fill="none" stroke="#000000" points="279.5,-174.7 279.5,-193.7 309.5,-193.7 309.5,-174.7 279.5,-174.7"/>
<text text-anchor="start" x="282.5" y="-180.8" font-family="Helvetica,sans-Serif" font-size="11.00" fill="#000000">&lt; 2</text>
<polygon fill="#ffffff" stroke="transparent" points="309.5,-174.7 309.5,-193.7 390.5,-193.7 390.5,-174.7 309.5,-174.7"/>
<polygon fill="none" stroke="#000000" points="309.5,-174.7 309.5,-193.7 390.5,-193.7 390.5,-174.7 309.5,-174.7"/>
<text text-anchor="start" x="321.4791" y="-180.8" font-family="Helvetica,sans-Serif" font-size="11.00" fill="#000000">999,172 rows</text>
<polygon fill="#ffffff" stroke="transparent" points="390.5,-174.7 390.5,-193.7 432.5,-193.7 432.5,-174.7 390.5,-174.7"/>
<polygon fill="none" stroke="#000000" points="390.5,-174.7 390.5,-193.7 432.5,-193.7 432.5,-174.7 390.5,-174.7"/>
<text text-anchor="start" x="413.9053" y="-180.8" font-family="Helvetica,sans-Serif" font-size="11.00" fill="#000000">0 &gt;</text>
<polygon fill="none" stroke="#000000" stroke-width="2" points="278,-173.7 278,-261.7 433,-261.7 433,-173.7 278,-173.7"/>
</a>
</g>
</g>
<!-- place -->
<g id="node2" class="node">
<title>place</title>
<g id="a_node2"><a xlink:href="../../tables/place.html" xlink:title="place" target="_top">
<polygon fill="#ffffff" stroke="transparent" points="66.5,-186.2 66.5,-335.2 169.5,-335.2 169.5,-186.2 66.5,-186.2"/>
<polygon fill="#f5f5f5" stroke="transparent" points="67,-311.7 67,-334.7 170,-334.7 170,-311.7 67,-311.7"/>
<polygon fill="none" stroke="#000000" points="67,-311.7 67,-334.7 170,-334.7 170,-311.7 67,-311.7"/>
<text text-anchor="start" x="72" y="-320.8" font-family="Helvetica,sans-Serif" font-weight="bold" font-size="11.00" fill="#000000">place</text>
<text text-anchor="start" x="135.0437" y="-319.8" font-family="Helvetica,sans-Serif" font-size="11.00" fill="#000000">[table]</text>
<polygon fill="none" stroke="#000000" points="67,-289.7 67,-311.7 170,-311.7 170,-289.7 67,-289.7"/>
<image xlink:href="../../images/primaryKeys.png" width="11px" height="12px" preserveAspectRatio="xMinYMin meet" x="72" y="-306.7"/>
<text text-anchor="start" x="87" y="-296.8" font-family="Helvetica,sans-Serif" font-size="11.00" fill="#000000">id</text>
<polygon fill="#ffffff" stroke="transparent" points="67,-267.7 67,-289.7 170,-289.7 170,-267.7 67,-267.7"/>
<polygon fill="none" stroke="#000000" points="67,-267.7 67,-289.7 170,-289.7 170,-267.7 67,-267.7"/>
<text text-anchor="start" x="87" y="-274.8" font-family="Helvetica,sans-Serif" font-size="11.00" fill="#000000">level</text>
<polygon fill="#ffffff" stroke="transparent" points="67,-245.7 67,-267.7 170,-267.7 170,-245.7 67,-245.7"/>
<polygon fill="none" stroke="#000000" points="67,-245.7 67,-267.7 170,-267.7 170,-245.7 67,-245.7"/>
<text text-anchor="start" x="87" y="-252.8" font-family="Helvetica,sans-Serif" font-size="11.00" fill="#000000">iso3</text>
<polygon fill="#ffffff" stroke="transparent" points="67,-223.7 67,-245.7 170,-245.7 170,-223.7 67,-223.7"/>
<polygon fill="none" stroke="#000000" points="67,-223.7 67,-245.7 170,-245.7 170,-223.7 67,-223.7"/>
<text text-anchor="start" x="87" y="-230.8" font-family="Helvetica,sans-Serif" font-size="11.00" fill="#000000">ansi_fips</text>
<polygon fill="none" stroke="#000000" points="67,-204.7 67,-223.7 170,-223.7 170,-204.7 67,-204.7"/>
<text text-anchor="start" x="70" y="-210.8" font-family="Helvetica,sans-Serif" font-size="11.00" fill="#000000">...</text>
<polygon fill="#ffffff" stroke="transparent" points="67,-185.7 67,-204.7 84,-204.7 84,-185.7 67,-185.7"/>
<polygon fill="none" stroke="#000000" points="67,-185.7 67,-204.7 84,-204.7 84,-185.7 67,-185.7"/>
<text text-anchor="start" x="70" y="-191.8" font-family="Helvetica,sans-Serif" font-size="11.00" fill="#000000"> &#160;</text>
<polygon fill="#ffffff" stroke="transparent" points="84,-185.7 84,-204.7 146,-204.7 146,-185.7 84,-185.7"/>
<polygon fill="none" stroke="#000000" points="84,-185.7 84,-204.7 146,-204.7 146,-185.7 84,-185.7"/>
<text text-anchor="start" x="89.2089" y="-191.8" font-family="Helvetica,sans-Serif" font-size="11.00" fill="#000000">7,645 rows</text>
<polygon fill="#ffffff" stroke="transparent" points="146,-185.7 146,-204.7 170,-204.7 170,-185.7 146,-185.7"/>
<polygon fill="none" stroke="#000000" points="146,-185.7 146,-204.7 170,-204.7 170,-185.7 146,-185.7"/>
<text text-anchor="start" x="151.4053" y="-191.8" font-family="Helvetica,sans-Serif" font-size="11.00" fill="#000000">7 &gt;</text>
</a>
</g>
</g>
<!-- place_to_policy&#45;&gt;place -->
<g id="edge1" class="edge">
<title>place_to_policy:w&#45;&gt;place:e</title>
<path fill="none" stroke="#000000" d="M265.1871,-228.3846C221.6568,-239.3996 223.4605,-300.7 170,-300.7"/>
<polygon fill="#000000" stroke="#000000" points="271.5548,-227.6352 279.9208,-230.2753 275.5274,-227.1676 279.5,-226.7 279.5,-226.7 279.5,-226.7 275.5274,-227.1676 279.0792,-223.1247 271.5548,-227.6352 271.5548,-227.6352"/>
<ellipse fill="none" stroke="#000000" cx="268.3768" cy="-228.0093" rx="3.2" ry="3.2"/>
</g>
<!-- policy -->
<g id="node3" class="node">
<title>policy</title>
<g id="a_node3"><a xlink:href="../../tables/policy.html" xlink:title="policy" target="_top">
<polygon fill="#ffffff" stroke="transparent" points="8,-38.2 8,-165.2 228,-165.2 228,-38.2 8,-38.2"/>
<polygon fill="#f5f5f5" stroke="transparent" points="8,-141.7 8,-164.7 228,-164.7 228,-141.7 8,-141.7"/>
<polygon fill="none" stroke="#000000" points="8,-141.7 8,-164.7 228,-164.7 228,-141.7 8,-141.7"/>
<text text-anchor="start" x="13" y="-150.8" font-family="Helvetica,sans-Serif" font-weight="bold" font-size="11.00" fill="#000000">policy</text>
<text text-anchor="start" x="193.0437" y="-149.8" font-family="Helvetica,sans-Serif" font-size="11.00" fill="#000000">[table]</text>
<polygon fill="none" stroke="#000000" points="8,-119.7 8,-141.7 228,-141.7 228,-119.7 8,-119.7"/>
<image xlink:href="../../images/primaryKeys.png" width="11px" height="12px" preserveAspectRatio="xMinYMin meet" x="13" y="-136.7"/>
<text text-anchor="start" x="28" y="-126.8" font-family="Helvetica,sans-Serif" font-size="11.00" fill="#000000">id</text>
<polygon fill="#ffffff" stroke="transparent" points="8,-97.7 8,-119.7 228,-119.7 228,-97.7 8,-97.7"/>
<polygon fill="none" stroke="#000000" points="8,-97.7 8,-119.7 228,-119.7 228,-97.7 8,-97.7"/>
<text text-anchor="start" x="28" y="-104.8" font-family="Helvetica,sans-Serif" font-size="11.00" fill="#000000">primary_ph_measure</text>
<polygon fill="#ffffff" stroke="transparent" points="8,-75.7 8,-97.7 228,-97.7 228,-75.7 8,-75.7"/>
<polygon fill="none" stroke="#000000" points="8,-75.7 8,-97.7 228,-97.7 228,-75.7 8,-75.7"/>
<text text-anchor="start" x="28" y="-82.8" font-family="Helvetica,sans-Serif" font-size="11.00" fill="#000000">group_number</text>
<polygon fill="none" stroke="#000000" points="8,-56.7 8,-75.7 228,-75.7 228,-56.7 8,-56.7"/>
<text text-anchor="start" x="11" y="-62.8" font-family="Helvetica,sans-Serif" font-size="11.00" fill="#000000">...</text>
<polygon fill="#ffffff" stroke="transparent" points="8,-37.7 8,-56.7 81,-56.7 81,-37.7 8,-37.7"/>
<polygon fill="none" stroke="#000000" points="8,-37.7 8,-56.7 81,-56.7 81,-37.7 8,-37.7"/>
<text text-anchor="start" x="11" y="-43.8" font-family="Helvetica,sans-Serif" font-size="11.00" fill="#000000"> &#160;</text>
<polygon fill="#ffffff" stroke="transparent" points="81,-37.7 81,-56.7 176,-56.7 176,-37.7 81,-37.7"/>
<polygon fill="none" stroke="#000000" points="81,-37.7 81,-56.7 176,-56.7 176,-37.7 81,-37.7"/>
<text text-anchor="start" x="113.094" y="-43.8" font-family="Helvetica,sans-Serif" font-size="11.00" fill="#000000">40,950 rows</text>
<polygon fill="#ffffff" stroke="transparent" points="176,-37.7 176,-56.7 228,-56.7 228,-37.7 176,-37.7"/>
<polygon fill="none" stroke="#000000" points="176,-37.7 176,-56.7 228,-56.7 228,-37.7 176,-37.7"/>
<text text-anchor="start" x="209.4053" y="-43.8" font-family="Helvetica,sans-Serif" font-size="11.00" fill="#000000">8 &gt;</text>
</a>
</g>
</g>
<!-- place_to_policy&#45;&gt;policy -->
<g id="edge2" class="edge">
<title>place_to_policy:w&#45;&gt;policy:e</title>
<path fill="none" stroke="#000000" d="M265.7488,-200.2926C246.4187,-184.3617 262.1218,-130.7 228,-130.7"/>
<polygon fill="#000000" stroke="#000000" points="271.8817,-202.2582 278.4012,-208.1282 275.6909,-203.4791 279.5,-204.7 279.5,-204.7 279.5,-204.7 275.6909,-203.4791 280.5988,-201.2718 271.8817,-202.2582 271.8817,-202.2582"/>
<ellipse fill="none" stroke="#000000" cx="268.8344" cy="-201.2815" rx="3.2" ry="3.2"/>
</g>
</g>
</svg>
