<?xml version="1.0" encoding="UTF-8" standalone="no"?>
<!DOCTYPE svg PUBLIC "-//W3C//DTD SVG 1.1//EN"
 "http://www.w3.org/Graphics/SVG/1.1/DTD/svg11.dtd">
<!-- Generated by graphviz version 2.40.1 (20161225.0304)
 -->
<!-- Title: twoDegreesRelationshipsDiagram Pages: 1 -->
<svg width="672pt" height="935pt"
 viewBox="0.00 0.00 672.00 935.20" xmlns="http://www.w3.org/2000/svg" xmlns:xlink="http://www.w3.org/1999/xlink">
<g id="graph0" class="graph" transform="scale(1 1) rotate(0) translate(4 931.2)">
<title>twoDegreesRelationshipsDiagram</title>
<polygon fill="#ffffff" stroke="transparent" points="-4,4 -4,-931.2 668,-931.2 668,4 -4,4"/>
<text text-anchor="middle" x="72.4936" y="-7.3" font-family="Helvetica,sans-Serif" font-size="11.00" fill="#000000">Generated by SchemaSpy</text>
<!-- auth_entity -->
<g id="node1" class="node">
<title>auth_entity</title>
<g id="a_node1"><a xlink:href="../../tables/auth_entity.html" xlink:title="auth_entity" target="_top">
<polygon fill="#ffffff" stroke="transparent" points="318.5,-588.2 318.5,-649.2 419.5,-649.2 419.5,-588.2 318.5,-588.2"/>
<polygon fill="#f5f5f5" stroke="transparent" points="319,-625.7 319,-648.7 420,-648.7 420,-625.7 319,-625.7"/>
<polygon fill="none" stroke="#000000" points="319,-625.7 319,-648.7 420,-648.7 420,-625.7 319,-625.7"/>
<text text-anchor="start" x="324" y="-634.8" font-family="Helvetica,sans-Serif" font-weight="bold" font-size="11.00" fill="#000000">auth_entity</text>
<text text-anchor="start" x="385.0437" y="-633.8" font-family="Helvetica,sans-Serif" font-size="11.00" fill="#000000">[table]</text>
<polygon fill="none" stroke="#000000" points="319,-606.7 319,-625.7 420,-625.7 420,-606.7 319,-606.7"/>
<text text-anchor="start" x="322" y="-612.8" font-family="Helvetica,sans-Serif" font-size="11.00" fill="#000000">...</text>
<polygon fill="#ffffff" stroke="transparent" points="319,-587.7 319,-606.7 340,-606.7 340,-587.7 319,-587.7"/>
<polygon fill="none" stroke="#000000" points="319,-587.7 319,-606.7 340,-606.7 340,-587.7 319,-587.7"/>
<text text-anchor="start" x="321.7027" y="-593.8" font-family="Helvetica,sans-Serif" font-size="11.00" fill="#000000">&lt; 1</text>
<polygon fill="#ffffff" stroke="transparent" points="340,-587.7 340,-606.7 399,-606.7 399,-587.7 340,-587.7"/>
<polygon fill="none" stroke="#000000" points="340,-587.7 340,-606.7 399,-606.7 399,-587.7 340,-587.7"/>
<text text-anchor="start" x="342.6045" y="-593.8" font-family="Helvetica,sans-Serif" font-size="11.00" fill="#000000">2,895 rows</text>
<polygon fill="#ffffff" stroke="transparent" points="399,-587.7 399,-606.7 420,-606.7 420,-587.7 399,-587.7"/>
<polygon fill="none" stroke="#000000" points="399,-587.7 399,-606.7 420,-606.7 420,-587.7 399,-587.7"/>
<text text-anchor="start" x="401.7027" y="-593.8" font-family="Helvetica,sans-Serif" font-size="11.00" fill="#000000">3 &gt;</text>
</a>
</g>
</g>
<!-- place -->
<g id="node2" class="node">
<title>place</title>
<g id="a_node2"><a xlink:href="../../tables/place.html" xlink:title="place" target="_top">
<polygon fill="#ffffff" stroke="transparent" points="66.5,-665.2 66.5,-814.2 169.5,-814.2 169.5,-665.2 66.5,-665.2"/>
<polygon fill="#f5f5f5" stroke="transparent" points="67,-790.7 67,-813.7 170,-813.7 170,-790.7 67,-790.7"/>
<polygon fill="none" stroke="#000000" points="67,-790.7 67,-813.7 170,-813.7 170,-790.7 67,-790.7"/>
<text text-anchor="start" x="72" y="-799.8" font-family="Helvetica,sans-Serif" font-weight="bold" font-size="11.00" fill="#000000">place</text>
<text text-anchor="start" x="135.0437" y="-798.8" font-family="Helvetica,sans-Serif" font-size="11.00" fill="#000000">[table]</text>
<polygon fill="none" stroke="#000000" points="67,-768.7 67,-790.7 170,-790.7 170,-768.7 67,-768.7"/>
<image xlink:href="../../images/primaryKeys.png" width="11px" height="12px" preserveAspectRatio="xMinYMin meet" x="72" y="-785.7"/>
<text text-anchor="start" x="87" y="-775.8" font-family="Helvetica,sans-Serif" font-size="11.00" fill="#000000">id</text>
<polygon fill="#ffffff" stroke="transparent" points="67,-746.7 67,-768.7 170,-768.7 170,-746.7 67,-746.7"/>
<polygon fill="none" stroke="#000000" points="67,-746.7 67,-768.7 170,-768.7 170,-746.7 67,-746.7"/>
<text text-anchor="start" x="87" y="-753.8" font-family="Helvetica,sans-Serif" font-size="11.00" fill="#000000">level</text>
<polygon fill="#ffffff" stroke="transparent" points="67,-724.7 67,-746.7 170,-746.7 170,-724.7 67,-724.7"/>
<polygon fill="none" stroke="#000000" points="67,-724.7 67,-746.7 170,-746.7 170,-724.7 67,-724.7"/>
<text text-anchor="start" x="87" y="-731.8" font-family="Helvetica,sans-Serif" font-size="11.00" fill="#000000">iso3</text>
<polygon fill="#ffffff" stroke="transparent" points="67,-702.7 67,-724.7 170,-724.7 170,-702.7 67,-702.7"/>
<polygon fill="none" stroke="#000000" points="67,-702.7 67,-724.7 170,-724.7 170,-702.7 67,-702.7"/>
<text text-anchor="start" x="87" y="-709.8" font-family="Helvetica,sans-Serif" font-size="11.00" fill="#000000">ansi_fips</text>
<polygon fill="none" stroke="#000000" points="67,-683.7 67,-702.7 170,-702.7 170,-683.7 67,-683.7"/>
<text text-anchor="start" x="70" y="-689.8" font-family="Helvetica,sans-Serif" font-size="11.00" fill="#000000">...</text>
<polygon fill="#ffffff" stroke="transparent" points="67,-664.7 67,-683.7 84,-683.7 84,-664.7 67,-664.7"/>
<polygon fill="none" stroke="#000000" points="67,-664.7 67,-683.7 84,-683.7 84,-664.7 67,-664.7"/>
<text text-anchor="start" x="70" y="-670.8" font-family="Helvetica,sans-Serif" font-size="11.00" fill="#000000"> &#160;</text>
<polygon fill="#ffffff" stroke="transparent" points="84,-664.7 84,-683.7 146,-683.7 146,-664.7 84,-664.7"/>
<polygon fill="none" stroke="#000000" points="84,-664.7 84,-683.7 146,-683.7 146,-664.7 84,-664.7"/>
<text text-anchor="start" x="89.2089" y="-670.8" font-family="Helvetica,sans-Serif" font-size="11.00" fill="#000000">7,645 rows</text>
<polygon fill="#ffffff" stroke="transparent" points="146,-664.7 146,-683.7 170,-683.7 170,-664.7 146,-664.7"/>
<polygon fill="none" stroke="#000000" points="146,-664.7 146,-683.7 170,-683.7 170,-664.7 146,-664.7"/>
<text text-anchor="start" x="151.4053" y="-670.8" font-family="Helvetica,sans-Serif" font-size="11.00" fill="#000000">7 &gt;</text>
</a>
</g>
</g>
<!-- auth_entity&#45;&gt;place -->
<g id="edge1" class="edge">
<title>auth_entity:w&#45;&gt;place:e</title>
<path fill="none" stroke="#000000" d="M304.599,-617.0201C225.1716,-632.5408 263.2861,-779.7 170,-779.7"/>
<polygon fill="#000000" stroke="#000000" points="311.0334,-616.4303 319.3286,-619.285 315.0167,-616.0652 319,-615.7 319,-615.7 319,-615.7 315.0167,-616.0652 318.6714,-612.115 311.0334,-616.4303 311.0334,-616.4303"/>
<ellipse fill="none" stroke="#000000" cx="307.8468" cy="-616.7225" rx="3.2" ry="3.2"/>
</g>
<!-- auth_entity_to_policy -->
<g id="node3" class="node">
<title>auth_entity_to_policy</title>
<g id="a_node3"><a xlink:href="../../tables/auth_entity_to_policy.html" xlink:title="auth_entity_to_policy" target="_top">
<polygon fill="#ffffff" stroke="transparent" points="510,-396.2 510,-457.2 656,-457.2 656,-396.2 510,-396.2"/>
<polygon fill="#f5f5f5" stroke="transparent" points="510,-433.7 510,-456.7 656,-456.7 656,-433.7 510,-433.7"/>
<polygon fill="none" stroke="#000000" points="510,-433.7 510,-456.7 656,-456.7 656,-433.7 510,-433.7"/>
<text text-anchor="start" x="514.8429" y="-442.8" font-family="Helvetica,sans-Serif" font-weight="bold" font-size="11.00" fill="#000000">auth_entity_to_policy</text>
<text text-anchor="start" x="621.5219" y="-441.8" font-family="Helvetica,sans-Serif" font-size="11.00" fill="#000000">[table]</text>
<polygon fill="none" stroke="#000000" points="510,-414.7 510,-433.7 656,-433.7 656,-414.7 510,-414.7"/>
<text text-anchor="start" x="513" y="-420.8" font-family="Helvetica,sans-Serif" font-size="11.00" fill="#000000">...</text>
<polygon fill="#ffffff" stroke="transparent" points="510,-395.7 510,-414.7 555,-414.7 555,-395.7 510,-395.7"/>
<polygon fill="none" stroke="#000000" points="510,-395.7 510,-414.7 555,-414.7 555,-395.7 510,-395.7"/>
<text text-anchor="start" x="513" y="-401.8" font-family="Helvetica,sans-Serif" font-size="11.00" fill="#000000">&lt; 2</text>
<polygon fill="#ffffff" stroke="transparent" points="555,-395.7 555,-414.7 632,-414.7 632,-395.7 555,-395.7"/>
<polygon fill="none" stroke="#000000" points="555,-395.7 555,-414.7 632,-414.7 632,-395.7 555,-395.7"/>
<text text-anchor="start" x="569.094" y="-401.8" font-family="Helvetica,sans-Serif" font-size="11.00" fill="#000000">41,840 rows</text>
<polygon fill="#ffffff" stroke="transparent" points="632,-395.7 632,-414.7 656,-414.7 656,-395.7 632,-395.7"/>
<polygon fill="none" stroke="#000000" points="632,-395.7 632,-414.7 656,-414.7 656,-395.7 632,-395.7"/>
<text text-anchor="start" x="646.8862" y="-401.8" font-family="Helvetica,sans-Serif" font-size="11.00" fill="#000000"> &#160;</text>
</a>
</g>
</g>
<!-- auth_entity_to_policy&#45;&gt;auth_entity -->
<g id="edge2" class="edge">
<title>auth_entity_to_policy:w&#45;&gt;auth_entity:e</title>
<path fill="none" stroke="#000000" d="M495.5468,-425.4599C449.5256,-438.6805 505.0166,-523.4026 469,-577.7 453.7662,-600.666 447.5591,-615.7 420,-615.7"/>
<polygon fill="#000000" stroke="#000000" points="502.0587,-424.667 510.4352,-427.2736 506.0293,-424.1835 510,-423.7 510,-423.7 510,-423.7 506.0293,-424.1835 509.5648,-420.1264 502.0587,-424.667 502.0587,-424.667"/>
<ellipse fill="none" stroke="#000000" cx="498.8821" cy="-425.0538" rx="3.2" ry="3.2"/>
</g>
<!-- policy -->
<g id="node4" class="node">
<title>policy</title>
<g id="a_node4"><a xlink:href="../../tables/policy.html" xlink:title="policy" target="_top">
<polygon fill="#ffffff" stroke="transparent" points="8,-124.2 8,-251.2 228,-251.2 228,-124.2 8,-124.2"/>
<polygon fill="#f5f5f5" stroke="transparent" points="8,-227.7 8,-250.7 228,-250.7 228,-227.7 8,-227.7"/>
<polygon fill="none" stroke="#000000" points="8,-227.7 8,-250.7 228,-250.7 228,-227.7 8,-227.7"/>
<text text-anchor="start" x="13" y="-236.8" font-family="Helvetica,sans-Serif" font-weight="bold" font-size="11.00" fill="#000000">policy</text>
<text text-anchor="start" x="193.0437" y="-235.8" font-family="Helvetica,sans-Serif" font-size="11.00" fill="#000000">[table]</text>
<polygon fill="none" stroke="#000000" points="8,-205.7 8,-227.7 228,-227.7 228,-205.7 8,-205.7"/>
<image xlink:href="../../images/primaryKeys.png" width="11px" height="12px" preserveAspectRatio="xMinYMin meet" x="13" y="-222.7"/>
<text text-anchor="start" x="28" y="-212.8" font-family="Helvetica,sans-Serif" font-size="11.00" fill="#000000">id</text>
<polygon fill="#ffffff" stroke="transparent" points="8,-183.7 8,-205.7 228,-205.7 228,-183.7 8,-183.7"/>
<polygon fill="none" stroke="#000000" points="8,-183.7 8,-205.7 228,-205.7 228,-183.7 8,-183.7"/>
<text text-anchor="start" x="28" y="-190.8" font-family="Helvetica,sans-Serif" font-size="11.00" fill="#000000">primary_ph_measure</text>
<polygon fill="#ffffff" stroke="transparent" points="8,-161.7 8,-183.7 228,-183.7 228,-161.7 8,-161.7"/>
<polygon fill="none" stroke="#000000" points="8,-161.7 8,-183.7 228,-183.7 228,-161.7 8,-161.7"/>
<text text-anchor="start" x="28" y="-168.8" font-family="Helvetica,sans-Serif" font-size="11.00" fill="#000000">group_number</text>
<polygon fill="none" stroke="#000000" points="8,-142.7 8,-161.7 228,-161.7 228,-142.7 8,-142.7"/>
<text text-anchor="start" x="11" y="-148.8" font-family="Helvetica,sans-Serif" font-size="11.00" fill="#000000">...</text>
<polygon fill="#ffffff" stroke="transparent" points="8,-123.7 8,-142.7 81,-142.7 81,-123.7 8,-123.7"/>
<polygon fill="none" stroke="#000000" points="8,-123.7 8,-142.7 81,-142.7 81,-123.7 8,-123.7"/>
<text text-anchor="start" x="11" y="-129.8" font-family="Helvetica,sans-Serif" font-size="11.00" fill="#000000"> &#160;</text>
<polygon fill="#ffffff" stroke="transparent" points="81,-123.7 81,-142.7 176,-142.7 176,-123.7 81,-123.7"/>
<polygon fill="none" stroke="#000000" points="81,-123.7 81,-142.7 176,-142.7 176,-123.7 81,-123.7"/>
<text text-anchor="start" x="113.094" y="-129.8" font-family="Helvetica,sans-Serif" font-size="11.00" fill="#000000">40,812 rows</text>
<polygon fill="#ffffff" stroke="transparent" points="176,-123.7 176,-142.7 228,-142.7 228,-123.7 176,-123.7"/>
<polygon fill="none" stroke="#000000" points="176,-123.7 176,-142.7 228,-142.7 228,-123.7 176,-123.7"/>
<text text-anchor="start" x="209.4053" y="-129.8" font-family="Helvetica,sans-Serif" font-size="11.00" fill="#000000">8 &gt;</text>
</a>
</g>
</g>
<!-- auth_entity_to_policy&#45;&gt;policy -->
<g id="edge3" class="edge">
<title>auth_entity_to_policy:w&#45;&gt;policy:e</title>
<path fill="none" stroke="#000000" d="M496.296,-418.5782C457.2336,-383.263 513.3452,-176.1414 469,-137.7 435.4171,-108.5881 306.9817,-114.6198 269,-137.7 235.1941,-158.2427 267.5581,-216.7 228,-216.7"/>
<polygon fill="#000000" stroke="#000000" points="502.5063,-420.8992 508.7396,-427.0722 506.2531,-422.2996 510,-423.7 510,-423.7 510,-423.7 506.2531,-422.2996 511.2604,-420.3278 502.5063,-420.8992 502.5063,-420.8992"/>
<ellipse fill="none" stroke="#000000" cx="499.5088" cy="-419.7789" rx="3.2" ry="3.2"/>
</g>
<!-- file_to_policy -->
<g id="node5" class="node">
<title>file_to_policy</title>
<g id="a_node5"><a xlink:href="../../tables/file_to_policy.html" xlink:title="file_to_policy" target="_top">
<polygon fill="#ffffff" stroke="transparent" points="316,-38.2 316,-99.2 422,-99.2 422,-38.2 316,-38.2"/>
<polygon fill="#f5f5f5" stroke="transparent" points="316,-75.7 316,-98.7 422,-98.7 422,-75.7 316,-75.7"/>
<polygon fill="none" stroke="#000000" points="316,-75.7 316,-98.7 422,-98.7 422,-75.7 316,-75.7"/>
<text text-anchor="start" x="320.7166" y="-84.8" font-family="Helvetica,sans-Serif" font-weight="bold" font-size="11.00" fill="#000000">file_to_policy</text>
<text text-anchor="start" x="387.5219" y="-83.8" font-family="Helvetica,sans-Serif" font-size="11.00" fill="#000000">[table]</text>
<polygon fill="none" stroke="#000000" points="316,-56.7 316,-75.7 422,-75.7 422,-56.7 316,-56.7"/>
<text text-anchor="start" x="319" y="-62.8" font-family="Helvetica,sans-Serif" font-size="11.00" fill="#000000">...</text>
<polygon fill="#ffffff" stroke="transparent" points="316,-37.7 316,-56.7 341,-56.7 341,-37.7 316,-37.7"/>
<polygon fill="none" stroke="#000000" points="316,-37.7 316,-56.7 341,-56.7 341,-37.7 316,-37.7"/>
<text text-anchor="start" x="319" y="-43.8" font-family="Helvetica,sans-Serif" font-size="11.00" fill="#000000">&lt; 2</text>
<polygon fill="#ffffff" stroke="transparent" points="341,-37.7 341,-56.7 408,-56.7 408,-37.7 341,-37.7"/>
<polygon fill="none" stroke="#000000" points="341,-37.7 341,-56.7 408,-56.7 408,-37.7 341,-37.7"/>
<text text-anchor="start" x="345.094" y="-43.8" font-family="Helvetica,sans-Serif" font-size="11.00" fill="#000000">41,342 rows</text>
<polygon fill="#ffffff" stroke="transparent" points="408,-37.7 408,-56.7 422,-56.7 422,-37.7 408,-37.7"/>
<polygon fill="none" stroke="#000000" points="408,-37.7 408,-56.7 422,-56.7 422,-37.7 408,-37.7"/>
<text text-anchor="start" x="412.8862" y="-43.8" font-family="Helvetica,sans-Serif" font-size="11.00" fill="#000000"> &#160;</text>
</a>
</g>
</g>
<!-- file_to_policy&#45;&gt;policy -->
<g id="edge4" class="edge">
<title>file_to_policy:w&#45;&gt;policy:e</title>
<path fill="none" stroke="#000000" d="M301.4931,-68.1733C285.2188,-74.7525 282.1034,-93.562 269,-113.7 242.1281,-154.9983 277.2712,-216.7 228,-216.7"/>
<polygon fill="#000000" stroke="#000000" points="308.1138,-67.0446 316.6051,-69.2488 312.0569,-66.3723 316,-65.7 316,-65.7 316,-65.7 312.0569,-66.3723 315.3949,-62.1512 308.1138,-67.0446 308.1138,-67.0446"/>
<ellipse fill="none" stroke="#000000" cx="304.9593" cy="-67.5824" rx="3.2" ry="3.2"/>
</g>
<!-- max_min_policy_count -->
<g id="node6" class="node">
<title>max_min_policy_count</title>
<g id="a_node6"><a xlink:href="../../tables/max_min_policy_count.html" xlink:title="max_min_policy_count" target="_top">
<polygon fill="#ffffff" stroke="transparent" points="292,-862.2 292,-923.2 446,-923.2 446,-862.2 292,-862.2"/>
<polygon fill="#f5f5f5" stroke="transparent" points="292,-899.7 292,-922.7 446,-922.7 446,-899.7 292,-899.7"/>
<polygon fill="none" stroke="#000000" points="292,-899.7 292,-922.7 446,-922.7 446,-899.7 292,-899.7"/>
<text text-anchor="start" x="296.5738" y="-908.8" font-family="Helvetica,sans-Serif" font-weight="bold" font-size="11.00" fill="#000000">max_min_policy_count</text>
<text text-anchor="start" x="411.5219" y="-907.8" font-family="Helvetica,sans-Serif" font-size="11.00" fill="#000000">[table]</text>
<polygon fill="none" stroke="#000000" points="292,-880.7 292,-899.7 446,-899.7 446,-880.7 292,-880.7"/>
<text text-anchor="start" x="295" y="-886.8" font-family="Helvetica,sans-Serif" font-size="11.00" fill="#000000">...</text>
<polygon fill="#ffffff" stroke="transparent" points="292,-861.7 292,-880.7 354,-880.7 354,-861.7 292,-861.7"/>
<polygon fill="none" stroke="#000000" points="292,-861.7 292,-880.7 354,-880.7 354,-861.7 292,-861.7"/>
<text text-anchor="start" x="295" y="-867.8" font-family="Helvetica,sans-Serif" font-size="11.00" fill="#000000">&lt; 2</text>
<polygon fill="#ffffff" stroke="transparent" points="354,-861.7 354,-880.7 413,-880.7 413,-861.7 354,-861.7"/>
<polygon fill="none" stroke="#000000" points="354,-861.7 354,-880.7 413,-880.7 413,-861.7 354,-861.7"/>
<text text-anchor="start" x="377.6105" y="-867.8" font-family="Helvetica,sans-Serif" font-size="11.00" fill="#000000">4 rows</text>
<polygon fill="#ffffff" stroke="transparent" points="413,-861.7 413,-880.7 446,-880.7 446,-861.7 413,-861.7"/>
<polygon fill="none" stroke="#000000" points="413,-861.7 413,-880.7 446,-880.7 446,-861.7 413,-861.7"/>
<text text-anchor="start" x="436.8862" y="-867.8" font-family="Helvetica,sans-Serif" font-size="11.00" fill="#000000"> &#160;</text>
</a>
</g>
</g>
<!-- max_min_policy_count&#45;&gt;place -->
<g id="edge5" class="edge">
<title>max_min_policy_count:w&#45;&gt;place:e</title>
<path fill="none" stroke="#000000" d="M277.6189,-886.8529C221.9563,-868.4074 237.7321,-774.1336 170,-779.7"/>
<polygon fill="#000000" stroke="#000000" points="284.1523,-888.1463 291.3008,-893.2315 288.0762,-888.9231 292,-889.7 292,-889.7 292,-889.7 288.0762,-888.9231 292.6992,-886.1685 284.1523,-888.1463 284.1523,-888.1463"/>
<ellipse fill="none" stroke="#000000" cx="281.0132" cy="-887.5248" rx="3.2" ry="3.2"/>
</g>
<!-- max_min_policy_count&#45;&gt;place -->
<g id="edge6" class="edge">
<title>max_min_policy_count:w&#45;&gt;place:e</title>
<path fill="none" stroke="#000000" d="M277.2683,-889.4151C222.0224,-880.9392 237.5895,-786.1805 170,-779.7"/>
<polygon fill="#000000" stroke="#000000" points="284.0015,-889.5453 291.9304,-893.2993 288.0007,-889.6226 292,-889.7 292,-889.7 292,-889.7 288.0007,-889.6226 292.0696,-886.1007 284.0015,-889.5453 284.0015,-889.5453"/>
<ellipse fill="none" stroke="#000000" cx="280.8021" cy="-889.4834" rx="3.2" ry="3.2"/>
</g>
<!-- observation -->
<g id="node7" class="node">
<title>observation</title>
<g id="a_node7"><a xlink:href="../../tables/observation.html" xlink:title="observation" target="_top">
<polygon fill="#ffffff" stroke="transparent" points="319.5,-752.2 319.5,-813.2 418.5,-813.2 418.5,-752.2 319.5,-752.2"/>
<polygon fill="#f5f5f5" stroke="transparent" points="320,-789.7 320,-812.7 419,-812.7 419,-789.7 320,-789.7"/>
<polygon fill="none" stroke="#000000" points="320,-789.7 320,-812.7 419,-812.7 419,-789.7 320,-789.7"/>
<text text-anchor="start" x="324.5755" y="-798.8" font-family="Helvetica,sans-Serif" font-weight="bold" font-size="11.00" fill="#000000">observation</text>
<text text-anchor="start" x="384.5219" y="-797.8" font-family="Helvetica,sans-Serif" font-size="11.00" fill="#000000">[table]</text>
<polygon fill="none" stroke="#000000" points="320,-770.7 320,-789.7 419,-789.7 419,-770.7 320,-770.7"/>
<text text-anchor="start" x="323" y="-776.8" font-family="Helvetica,sans-Serif" font-size="11.00" fill="#000000">...</text>
<polygon fill="#ffffff" stroke="transparent" points="320,-751.7 320,-770.7 341,-770.7 341,-751.7 320,-751.7"/>
<polygon fill="none" stroke="#000000" points="320,-751.7 320,-770.7 341,-770.7 341,-751.7 320,-751.7"/>
<text text-anchor="start" x="322.7027" y="-757.8" font-family="Helvetica,sans-Serif" font-size="11.00" fill="#000000">&lt; 1</text>
<polygon fill="#ffffff" stroke="transparent" points="341,-751.7 341,-770.7 406,-770.7 406,-751.7 341,-751.7"/>
<polygon fill="none" stroke="#000000" points="341,-751.7 341,-770.7 406,-770.7 406,-751.7 341,-751.7"/>
<text text-anchor="start" x="343.547" y="-757.8" font-family="Helvetica,sans-Serif" font-size="11.00" fill="#000000">62,656 rows</text>
<polygon fill="#ffffff" stroke="transparent" points="406,-751.7 406,-770.7 419,-770.7 419,-751.7 406,-751.7"/>
<polygon fill="none" stroke="#000000" points="406,-751.7 406,-770.7 419,-770.7 419,-751.7 406,-751.7"/>
<text text-anchor="start" x="409.8862" y="-757.8" font-family="Helvetica,sans-Serif" font-size="11.00" fill="#000000"> &#160;</text>
</a>
</g>
</g>
<!-- observation&#45;&gt;place -->
<g id="edge7" class="edge">
<title>observation:w&#45;&gt;place:e</title>
<path fill="none" stroke="#000000" d="M305.5918,-779.7C250.5042,-779.7 231.5885,-779.7 170,-779.7"/>
<polygon fill="#000000" stroke="#000000" points="312,-779.7001 320,-783.3 316,-779.7 320,-779.7 320,-779.7 320,-779.7 316,-779.7 320,-776.1 312,-779.7001 312,-779.7001"/>
<ellipse fill="none" stroke="#000000" cx="308.8" cy="-779.7001" rx="3.2" ry="3.2"/>
</g>
<!-- place_policy_number -->
<g id="node8" class="node">
<title>place_policy_number</title>
<g id="a_node8"><a xlink:href="../../tables/place_policy_number.html" xlink:title="place_policy_number" target="_top">
<polygon fill="#ffffff" stroke="transparent" points="296,-670.2 296,-731.2 442,-731.2 442,-670.2 296,-670.2"/>
<polygon fill="#f5f5f5" stroke="transparent" points="296,-707.7 296,-730.7 442,-730.7 442,-707.7 296,-707.7"/>
<polygon fill="none" stroke="#000000" points="296,-707.7 296,-730.7 442,-730.7 442,-707.7 296,-707.7"/>
<text text-anchor="start" x="300.5448" y="-716.8" font-family="Helvetica,sans-Serif" font-weight="bold" font-size="11.00" fill="#000000">place_policy_number</text>
<text text-anchor="start" x="407.5219" y="-715.8" font-family="Helvetica,sans-Serif" font-size="11.00" fill="#000000">[table]</text>
<polygon fill="none" stroke="#000000" points="296,-688.7 296,-707.7 442,-707.7 442,-688.7 296,-688.7"/>
<text text-anchor="start" x="299" y="-694.8" font-family="Helvetica,sans-Serif" font-size="11.00" fill="#000000">...</text>
<polygon fill="#ffffff" stroke="transparent" points="296,-669.7 296,-688.7 341,-688.7 341,-669.7 296,-669.7"/>
<polygon fill="none" stroke="#000000" points="296,-669.7 296,-688.7 341,-688.7 341,-669.7 296,-669.7"/>
<text text-anchor="start" x="299" y="-675.8" font-family="Helvetica,sans-Serif" font-size="11.00" fill="#000000">&lt; 2</text>
<polygon fill="#ffffff" stroke="transparent" points="341,-669.7 341,-688.7 418,-688.7 418,-669.7 341,-669.7"/>
<polygon fill="none" stroke="#000000" points="341,-669.7 341,-688.7 418,-688.7 418,-669.7 341,-669.7"/>
<text text-anchor="start" x="355.094" y="-675.8" font-family="Helvetica,sans-Serif" font-size="11.00" fill="#000000">32,150 rows</text>
<polygon fill="#ffffff" stroke="transparent" points="418,-669.7 418,-688.7 442,-688.7 442,-669.7 418,-669.7"/>
<polygon fill="none" stroke="#000000" points="418,-669.7 418,-688.7 442,-688.7 442,-669.7 418,-669.7"/>
<text text-anchor="start" x="432.8862" y="-675.8" font-family="Helvetica,sans-Serif" font-size="11.00" fill="#000000"> &#160;</text>
</a>
</g>
</g>
<!-- place_policy_number&#45;&gt;place -->
<g id="edge8" class="edge">
<title>place_policy_number:w&#45;&gt;place:e</title>
<path fill="none" stroke="#000000" d="M281.6324,-699.1233C229.9231,-710.012 231.5948,-779.7 170,-779.7"/>
<polygon fill="#000000" stroke="#000000" points="288.039,-698.4887 296.3549,-701.2825 292.0195,-698.0943 296,-697.7 296,-697.7 296,-697.7 292.0195,-698.0943 295.6451,-694.1175 288.039,-698.4887 288.039,-698.4887"/>
<ellipse fill="none" stroke="#000000" cx="284.8546" cy="-698.8041" rx="3.2" ry="3.2"/>
</g>
<!-- place_to_plan -->
<g id="node9" class="node">
<title>place_to_plan</title>
<g id="a_node9"><a xlink:href="../../tables/place_to_plan.html" xlink:title="place_to_plan" target="_top">
<polygon fill="#ffffff" stroke="transparent" points="527.5,-586.2 527.5,-647.2 638.5,-647.2 638.5,-586.2 527.5,-586.2"/>
<polygon fill="#f5f5f5" stroke="transparent" points="528,-623.7 528,-646.7 639,-646.7 639,-623.7 528,-623.7"/>
<polygon fill="none" stroke="#000000" points="528,-623.7 528,-646.7 639,-646.7 639,-623.7 528,-623.7"/>
<text text-anchor="start" x="532.7636" y="-632.8" font-family="Helvetica,sans-Serif" font-weight="bold" font-size="11.00" fill="#000000">place_to_plan</text>
<text text-anchor="start" x="604.5219" y="-631.8" font-family="Helvetica,sans-Serif" font-size="11.00" fill="#000000">[table]</text>
<polygon fill="none" stroke="#000000" points="528,-604.7 528,-623.7 639,-623.7 639,-604.7 528,-604.7"/>
<text text-anchor="start" x="531" y="-610.8" font-family="Helvetica,sans-Serif" font-size="11.00" fill="#000000">...</text>
<polygon fill="#ffffff" stroke="transparent" points="528,-585.7 528,-604.7 563,-604.7 563,-585.7 528,-585.7"/>
<polygon fill="none" stroke="#000000" points="528,-585.7 528,-604.7 563,-604.7 563,-585.7 528,-585.7"/>
<text text-anchor="start" x="531" y="-591.8" font-family="Helvetica,sans-Serif" font-size="11.00" fill="#000000">&lt; 2</text>
<polygon fill="#ffffff" stroke="transparent" points="563,-585.7 563,-604.7 620,-604.7 620,-585.7 563,-585.7"/>
<polygon fill="none" stroke="#000000" points="563,-585.7 563,-604.7 620,-604.7 620,-585.7 563,-585.7"/>
<text text-anchor="start" x="572.3807" y="-591.8" font-family="Helvetica,sans-Serif" font-size="11.00" fill="#000000">493 rows</text>
<polygon fill="#ffffff" stroke="transparent" points="620,-585.7 620,-604.7 639,-604.7 639,-585.7 620,-585.7"/>
<polygon fill="none" stroke="#000000" points="620,-585.7 620,-604.7 639,-604.7 639,-585.7 620,-585.7"/>
<text text-anchor="start" x="629.8862" y="-591.8" font-family="Helvetica,sans-Serif" font-size="11.00" fill="#000000"> &#160;</text>
</a>
</g>
</g>
<!-- place_to_plan&#45;&gt;place -->
<g id="edge9" class="edge">
<title>place_to_plan:w&#45;&gt;place:e</title>
<path fill="none" stroke="#000000" d="M513.495,-615.1132C443.4873,-630.5582 541.8921,-768.4649 469,-823.7 433.5769,-850.5424 312.4762,-832.9263 269,-823.7 221.8989,-813.7045 218.15,-779.7 170,-779.7"/>
<polygon fill="#000000" stroke="#000000" points="520.0377,-614.4758 528.3491,-617.283 524.0189,-614.0879 528,-613.7 528,-613.7 528,-613.7 524.0189,-614.0879 527.6509,-610.117 520.0377,-614.4758 520.0377,-614.4758"/>
<ellipse fill="none" stroke="#000000" cx="516.8528" cy="-614.7861" rx="3.2" ry="3.2"/>
</g>
<!-- plan -->
<g id="node10" class="node">
<title>plan</title>
<g id="a_node10"><a xlink:href="../../tables/plan.html" xlink:title="plan" target="_top">
<polygon fill="#ffffff" stroke="transparent" points="323,-394.2 323,-455.2 415,-455.2 415,-394.2 323,-394.2"/>
<polygon fill="#f5f5f5" stroke="transparent" points="323,-431.7 323,-454.7 415,-454.7 415,-431.7 323,-431.7"/>
<polygon fill="none" stroke="#000000" points="323,-431.7 323,-454.7 415,-454.7 415,-431.7 323,-431.7"/>
<text text-anchor="start" x="328" y="-440.8" font-family="Helvetica,sans-Serif" font-weight="bold" font-size="11.00" fill="#000000">plan</text>
<text text-anchor="start" x="380.0437" y="-439.8" font-family="Helvetica,sans-Serif" font-size="11.00" fill="#000000">[table]</text>
<polygon fill="none" stroke="#000000" points="323,-412.7 323,-431.7 415,-431.7 415,-412.7 323,-412.7"/>
<text text-anchor="start" x="326" y="-418.8" font-family="Helvetica,sans-Serif" font-size="11.00" fill="#000000">...</text>
<polygon fill="#ffffff" stroke="transparent" points="323,-393.7 323,-412.7 344,-412.7 344,-393.7 323,-393.7"/>
<polygon fill="none" stroke="#000000" points="323,-393.7 323,-412.7 344,-412.7 344,-393.7 323,-393.7"/>
<text text-anchor="start" x="325.7027" y="-399.8" font-family="Helvetica,sans-Serif" font-size="11.00" fill="#000000">&lt; 1</text>
<polygon fill="#ffffff" stroke="transparent" points="344,-393.7 344,-412.7 394,-412.7 394,-393.7 344,-393.7"/>
<polygon fill="none" stroke="#000000" points="344,-393.7 344,-412.7 394,-412.7 394,-393.7 344,-393.7"/>
<text text-anchor="start" x="346.6904" y="-399.8" font-family="Helvetica,sans-Serif" font-size="11.00" fill="#000000">493 rows</text>
<polygon fill="#ffffff" stroke="transparent" points="394,-393.7 394,-412.7 415,-412.7 415,-393.7 394,-393.7"/>
<polygon fill="none" stroke="#000000" points="394,-393.7 394,-412.7 415,-412.7 415,-393.7 394,-393.7"/>
<text text-anchor="start" x="396.7027" y="-399.8" font-family="Helvetica,sans-Serif" font-size="11.00" fill="#000000">3 &gt;</text>
</a>
</g>
</g>
<!-- place_to_plan&#45;&gt;plan -->
<g id="edge10" class="edge">
<title>place_to_plan:w&#45;&gt;plan:e</title>
<path fill="none" stroke="#000000" d="M513.6525,-612.1095C465.2773,-599.829 507.1757,-519.1836 469,-466.7 450.6231,-441.4356 446.241,-421.7 415,-421.7"/>
<polygon fill="#000000" stroke="#000000" points="520.0487,-612.8185 527.6033,-617.2781 524.0244,-613.2593 528,-613.7 528,-613.7 528,-613.7 524.0244,-613.2593 528.3967,-610.1219 520.0487,-612.8185 520.0487,-612.8185"/>
<ellipse fill="none" stroke="#000000" cx="516.8682" cy="-612.4659" rx="3.2" ry="3.2"/>
</g>
<!-- plan&#45;&gt;policy -->
<g id="edge13" class="edge">
<title>plan:w&#45;&gt;policy:e</title>
<path fill="none" stroke="#000000" d="M308.5373,-420.2699C290.3176,-416.17 282.4471,-403.3907 269,-383.7 225.8989,-320.5867 304.4264,-216.7 228,-216.7"/>
<polygon fill="#000000" stroke="#000000" points="315.0388,-420.9127 322.6457,-425.2825 319.0194,-421.3064 323,-421.7 323,-421.7 323,-421.7 319.0194,-421.3064 323.3543,-418.1175 315.0388,-420.9127 315.0388,-420.9127"/>
<ellipse fill="none" stroke="#000000" cx="311.8544" cy="-420.5978" rx="3.2" ry="3.2"/>
</g>
<!-- place_to_policy -->
<g id="node11" class="node">
<title>place_to_policy</title>
<g id="a_node11"><a xlink:href="../../tables/place_to_policy.html" xlink:title="place_to_policy" target="_top">
<polygon fill="#ffffff" stroke="transparent" points="290.5,-476.7 290.5,-566.7 447.5,-566.7 447.5,-476.7 290.5,-476.7"/>
<polygon fill="#f5f5f5" stroke="transparent" points="293,-541.7 293,-564.7 446,-564.7 446,-541.7 293,-541.7"/>
<polygon fill="none" stroke="#000000" points="293,-541.7 293,-564.7 446,-564.7 446,-541.7 293,-541.7"/>
<text text-anchor="start" x="298" y="-550.8" font-family="Helvetica,sans-Serif" font-weight="bold" font-size="11.00" fill="#000000">place_to_policy</text>
<text text-anchor="start" x="411.0437" y="-549.8" font-family="Helvetica,sans-Serif" font-size="11.00" fill="#000000">[table]</text>
<polygon fill="none" stroke="#000000" points="293,-519.7 293,-541.7 404,-541.7 404,-519.7 293,-519.7"/>
<image xlink:href="../../images/primaryKeys.png" width="11px" height="12px" preserveAspectRatio="xMinYMin meet" x="298" y="-536.7"/>
<text text-anchor="start" x="313" y="-526.8" font-family="Helvetica,sans-Serif" font-size="11.00" fill="#000000">place</text>
<polygon fill="none" stroke="#000000" points="404,-519.7 404,-541.7 446,-541.7 446,-519.7 404,-519.7"/>
<text text-anchor="start" x="406.9644" y="-527.4" font-family="Helvetica,sans-Serif" font-size="11.00" fill="#000000">int4[10]</text>
<polygon fill="none" stroke="#000000" points="293,-497.7 293,-519.7 404,-519.7 404,-497.7 293,-497.7"/>
<image xlink:href="../../images/primaryKeys.png" width="11px" height="12px" preserveAspectRatio="xMinYMin meet" x="298" y="-514.7"/>
<text text-anchor="start" x="313" y="-504.8" font-family="Helvetica,sans-Serif" font-size="11.00" fill="#000000">policy</text>
<polygon fill="none" stroke="#000000" points="404,-497.7 404,-519.7 446,-519.7 446,-497.7 404,-497.7"/>
<text text-anchor="start" x="406.9644" y="-505.4" font-family="Helvetica,sans-Serif" font-size="11.00" fill="#000000">int4[10]</text>
<polygon fill="#ffffff" stroke="transparent" points="293,-478.7 293,-497.7 323,-497.7 323,-478.7 293,-478.7"/>
<polygon fill="none" stroke="#000000" points="293,-478.7 293,-497.7 323,-497.7 323,-478.7 293,-478.7"/>
<text text-anchor="start" x="296" y="-484.8" font-family="Helvetica,sans-Serif" font-size="11.00" fill="#000000">&lt; 2</text>
<polygon fill="#ffffff" stroke="transparent" points="323,-478.7 323,-497.7 404,-497.7 404,-478.7 323,-478.7"/>
<polygon fill="none" stroke="#000000" points="323,-478.7 323,-497.7 404,-497.7 404,-478.7 323,-478.7"/>
<text text-anchor="start" x="334.9791" y="-484.8" font-family="Helvetica,sans-Serif" font-size="11.00" fill="#000000">994,786 rows</text>
<polygon fill="#ffffff" stroke="transparent" points="404,-478.7 404,-497.7 446,-497.7 446,-478.7 404,-478.7"/>
<polygon fill="none" stroke="#000000" points="404,-478.7 404,-497.7 446,-497.7 446,-478.7 404,-478.7"/>
<text text-anchor="start" x="427.4053" y="-484.8" font-family="Helvetica,sans-Serif" font-size="11.00" fill="#000000">0 &gt;</text>
<polygon fill="none" stroke="#000000" stroke-width="2" points="291.5,-477.7 291.5,-565.7 446.5,-565.7 446.5,-477.7 291.5,-477.7"/>
</a>
</g>
</g>
<!-- place_to_policy&#45;&gt;place -->
<g id="edge11" class="edge">
<title>place_to_policy:w&#45;&gt;place:e</title>
<path fill="none" stroke="#000000" d="M278.4193,-532.0397C179.7556,-551.6387 288.1287,-779.7 170,-779.7"/>
<polygon fill="#000000" stroke="#000000" points="285.0336,-531.432 293.3294,-534.2849 289.0168,-531.066 293,-530.7 293,-530.7 293,-530.7 289.0168,-531.066 292.6706,-527.1151 285.0336,-531.432 285.0336,-531.432"/>
<ellipse fill="none" stroke="#000000" cx="281.847" cy="-531.7248" rx="3.2" ry="3.2"/>
</g>
<!-- place_to_policy&#45;&gt;policy -->
<g id="edge12" class="edge">
<title>place_to_policy:w&#45;&gt;policy:e</title>
<path fill="none" stroke="#000000" d="M279.478,-503.3825C236.5441,-463.8068 289.1538,-216.7 228,-216.7"/>
<polygon fill="#000000" stroke="#000000" points="285.555,-505.7722 291.6825,-512.0503 289.2775,-507.2361 293,-508.7 293,-508.7 293,-508.7 289.2775,-507.2361 294.3175,-505.3497 285.555,-505.7722 285.555,-505.7722"/>
<ellipse fill="none" stroke="#000000" cx="282.577" cy="-504.6011" rx="3.2" ry="3.2"/>
</g>
<!-- policies_to_court_challenges -->
<g id="node12" class="node">
<title>policies_to_court_challenges</title>
<g id="a_node12"><a xlink:href="../../tables/policies_to_court_challenges.html" xlink:title="policies_to_court_challenges" target="_top">
<polygon fill="#ffffff" stroke="transparent" points="277,-312.2 277,-373.2 461,-373.2 461,-312.2 277,-312.2"/>
<polygon fill="#f5f5f5" stroke="transparent" points="277,-349.7 277,-372.7 461,-372.7 461,-349.7 277,-349.7"/>
<polygon fill="none" stroke="#000000" points="277,-349.7 277,-372.7 461,-372.7 461,-349.7 277,-349.7"/>
<text text-anchor="start" x="281.8982" y="-358.8" font-family="Helvetica,sans-Serif" font-weight="bold" font-size="11.00" fill="#000000">policies_to_court_challenges</text>
<text text-anchor="start" x="426.5219" y="-357.8" font-family="Helvetica,sans-Serif" font-size="11.00" fill="#000000">[table]</text>
<polygon fill="none" stroke="#000000" points="277,-330.7 277,-349.7 461,-349.7 461,-330.7 277,-330.7"/>
<text text-anchor="start" x="280" y="-336.8" font-family="Helvetica,sans-Serif" font-size="11.00" fill="#000000">...</text>
<polygon fill="#ffffff" stroke="transparent" points="277,-311.7 277,-330.7 354,-330.7 354,-311.7 277,-311.7"/>
<polygon fill="none" stroke="#000000" points="277,-311.7 277,-330.7 354,-330.7 354,-311.7 277,-311.7"/>
<text text-anchor="start" x="280" y="-317.8" font-family="Helvetica,sans-Serif" font-size="11.00" fill="#000000">&lt; 2</text>
<polygon fill="#ffffff" stroke="transparent" points="354,-311.7 354,-330.7 420,-330.7 420,-311.7 354,-311.7"/>
<polygon fill="none" stroke="#000000" points="354,-311.7 354,-330.7 420,-330.7 420,-311.7 354,-311.7"/>
<text text-anchor="start" x="384.6105" y="-317.8" font-family="Helvetica,sans-Serif" font-size="11.00" fill="#000000">0 rows</text>
<polygon fill="#ffffff" stroke="transparent" points="420,-311.7 420,-330.7 461,-330.7 461,-311.7 420,-311.7"/>
<polygon fill="none" stroke="#000000" points="420,-311.7 420,-330.7 461,-330.7 461,-311.7 420,-311.7"/>
<text text-anchor="start" x="451.8862" y="-317.8" font-family="Helvetica,sans-Serif" font-size="11.00" fill="#000000"> &#160;</text>
</a>
</g>
</g>
<!-- policies_to_court_challenges&#45;&gt;policy -->
<g id="edge14" class="edge">
<title>policies_to_court_challenges:w&#45;&gt;policy:e</title>
<path fill="none" stroke="#000000" d="M262.75,-336.1515C230.7922,-315.9844 280.8684,-216.7 228,-216.7"/>
<polygon fill="#000000" stroke="#000000" points="269.2371,-337.7668 276.1301,-343.1933 273.1185,-338.7334 277,-339.7 277,-339.7 277,-339.7 273.1185,-338.7334 277.8699,-336.2067 269.2371,-337.7668 269.2371,-337.7668"/>
<ellipse fill="none" stroke="#000000" cx="266.1319" cy="-336.9936" rx="3.2" ry="3.2"/>
</g>
<!-- policy_number_to_policy -->
<g id="node13" class="node">
<title>policy_number_to_policy</title>
<g id="a_node13"><a xlink:href="../../tables/policy_number_to_policy.html" xlink:title="policy_number_to_policy" target="_top">
<polygon fill="#ffffff" stroke="transparent" points="287,-230.2 287,-291.2 451,-291.2 451,-230.2 287,-230.2"/>
<polygon fill="#f5f5f5" stroke="transparent" points="287,-267.7 287,-290.7 451,-290.7 451,-267.7 287,-267.7"/>
<polygon fill="none" stroke="#000000" points="287,-267.7 287,-290.7 451,-290.7 451,-267.7 287,-267.7"/>
<text text-anchor="start" x="291.9885" y="-276.8" font-family="Helvetica,sans-Serif" font-weight="bold" font-size="11.00" fill="#000000">policy_number_to_policy</text>
<text text-anchor="start" x="416.5219" y="-275.8" font-family="Helvetica,sans-Serif" font-size="11.00" fill="#000000">[table]</text>
<polygon fill="none" stroke="#000000" points="287,-248.7 287,-267.7 451,-267.7 451,-248.7 287,-248.7"/>
<text text-anchor="start" x="290" y="-254.8" font-family="Helvetica,sans-Serif" font-size="11.00" fill="#000000">...</text>
<polygon fill="#ffffff" stroke="transparent" points="287,-229.7 287,-248.7 341,-248.7 341,-229.7 287,-229.7"/>
<polygon fill="none" stroke="#000000" points="287,-229.7 287,-248.7 341,-248.7 341,-229.7 287,-229.7"/>
<text text-anchor="start" x="290" y="-235.8" font-family="Helvetica,sans-Serif" font-size="11.00" fill="#000000">&lt; 2</text>
<polygon fill="#ffffff" stroke="transparent" points="341,-229.7 341,-248.7 422,-248.7 422,-229.7 341,-229.7"/>
<polygon fill="none" stroke="#000000" points="341,-229.7 341,-248.7 422,-248.7 422,-229.7 341,-229.7"/>
<text text-anchor="start" x="359.094" y="-235.8" font-family="Helvetica,sans-Serif" font-size="11.00" fill="#000000">40,812 rows</text>
<polygon fill="#ffffff" stroke="transparent" points="422,-229.7 422,-248.7 451,-248.7 451,-229.7 422,-229.7"/>
<polygon fill="none" stroke="#000000" points="422,-229.7 422,-248.7 451,-248.7 451,-229.7 422,-229.7"/>
<text text-anchor="start" x="441.8862" y="-235.8" font-family="Helvetica,sans-Serif" font-size="11.00" fill="#000000"> &#160;</text>
</a>
</g>
</g>
<!-- policy_number_to_policy&#45;&gt;policy -->
<g id="edge15" class="edge">
<title>policy_number_to_policy:w&#45;&gt;policy:e</title>
<path fill="none" stroke="#000000" d="M272.9239,-254.2044C255.6279,-244.2894 254.1942,-216.7 228,-216.7"/>
<polygon fill="#000000" stroke="#000000" points="279.2358,-255.7718 286.1323,-261.1939 283.1179,-256.7359 287,-257.7 287,-257.7 287,-257.7 283.1179,-256.7359 287.8677,-254.2061 279.2358,-255.7718 279.2358,-255.7718"/>
<ellipse fill="none" stroke="#000000" cx="276.1302" cy="-255.0006" rx="3.2" ry="3.2"/>
</g>
<!-- policy_to_prior_policy -->
<g id="node14" class="node">
<title>policy_to_prior_policy</title>
<g id="a_node14"><a xlink:href="../../tables/policy_to_prior_policy.html" xlink:title="policy_to_prior_policy" target="_top">
<polygon fill="#ffffff" stroke="transparent" points="295,-148.2 295,-209.2 443,-209.2 443,-148.2 295,-148.2"/>
<polygon fill="#f5f5f5" stroke="transparent" points="295,-185.7 295,-208.7 443,-208.7 443,-185.7 295,-185.7"/>
<polygon fill="none" stroke="#000000" points="295,-185.7 295,-208.7 443,-208.7 443,-185.7 295,-185.7"/>
<text text-anchor="start" x="299.6329" y="-194.8" font-family="Helvetica,sans-Serif" font-weight="bold" font-size="11.00" fill="#000000">policy_to_prior_policy</text>
<text text-anchor="start" x="408.5219" y="-193.8" font-family="Helvetica,sans-Serif" font-size="11.00" fill="#000000">[table]</text>
<polygon fill="none" stroke="#000000" points="295,-166.7 295,-185.7 443,-185.7 443,-166.7 295,-166.7"/>
<text text-anchor="start" x="298" y="-172.8" font-family="Helvetica,sans-Serif" font-size="11.00" fill="#000000">...</text>
<polygon fill="#ffffff" stroke="transparent" points="295,-147.7 295,-166.7 341,-166.7 341,-147.7 295,-147.7"/>
<polygon fill="none" stroke="#000000" points="295,-147.7 295,-166.7 341,-166.7 341,-147.7 295,-147.7"/>
<text text-anchor="start" x="298" y="-153.8" font-family="Helvetica,sans-Serif" font-size="11.00" fill="#000000">&lt; 2</text>
<polygon fill="#ffffff" stroke="transparent" points="341,-147.7 341,-166.7 418,-166.7 418,-147.7 341,-147.7"/>
<polygon fill="none" stroke="#000000" points="341,-147.7 341,-166.7 418,-166.7 418,-147.7 341,-147.7"/>
<text text-anchor="start" x="355.094" y="-153.8" font-family="Helvetica,sans-Serif" font-size="11.00" fill="#000000">35,976 rows</text>
<polygon fill="#ffffff" stroke="transparent" points="418,-147.7 418,-166.7 443,-166.7 443,-147.7 418,-147.7"/>
<polygon fill="none" stroke="#000000" points="418,-147.7 418,-166.7 443,-166.7 443,-147.7 418,-147.7"/>
<text text-anchor="start" x="433.8862" y="-153.8" font-family="Helvetica,sans-Serif" font-size="11.00" fill="#000000"> &#160;</text>
</a>
</g>
</g>
<!-- policy_to_prior_policy&#45;&gt;policy -->
<g id="edge16" class="edge">
<title>policy_to_prior_policy:w&#45;&gt;policy:e</title>
<path fill="none" stroke="#000000" d="M280.531,-176.18C259.9994,-182.211 257.1833,-211.6844 228,-216.7"/>
<polygon fill="#000000" stroke="#000000" points="287.0044,-175.9653 295.1194,-179.298 291.0022,-175.8326 295,-175.7 295,-175.7 295,-175.7 291.0022,-175.8326 294.8806,-172.102 287.0044,-175.9653 287.0044,-175.9653"/>
<ellipse fill="none" stroke="#000000" cx="283.8062" cy="-176.0714" rx="3.2" ry="3.2"/>
</g>
<!-- policy_to_prior_policy&#45;&gt;policy -->
<g id="edge17" class="edge">
<title>policy_to_prior_policy:w&#45;&gt;policy:e</title>
<path fill="none" stroke="#000000" d="M281.405,-180.9766C260.0732,-194.0782 257.5924,-222.6336 228,-216.7"/>
<polygon fill="#000000" stroke="#000000" points="287.542,-178.5947 296.3026,-179.0561 291.271,-177.1473 295,-175.7 295,-175.7 295,-175.7 291.271,-177.1473 293.6974,-172.3439 287.542,-178.5947 287.542,-178.5947"/>
<ellipse fill="none" stroke="#000000" cx="284.5589" cy="-179.7525" rx="3.2" ry="3.2"/>
</g>
</g>
</svg>
