<?xml version="1.0" encoding="UTF-8" standalone="no"?>
<!DOCTYPE svg PUBLIC "-//W3C//DTD SVG 1.1//EN"
 "http://www.w3.org/Graphics/SVG/1.1/DTD/svg11.dtd">
<!-- Generated by graphviz version 2.40.1 (20161225.0304)
 -->
<!-- Title: oneDegreeRelationshipsDiagram Pages: 1 -->
<svg width="403pt" height="325pt"
 viewBox="0.00 0.00 403.00 325.20" xmlns="http://www.w3.org/2000/svg" xmlns:xlink="http://www.w3.org/1999/xlink">
<g id="graph0" class="graph" transform="scale(1 1) rotate(0) translate(4 321.2)">
<title>oneDegreeRelationshipsDiagram</title>
<polygon fill="#ffffff" stroke="transparent" points="-4,4 -4,-321.2 399,-321.2 399,4 -4,4"/>
<text text-anchor="middle" x="72.4936" y="-7.3" font-family="Helvetica,sans-Serif" font-size="11.00" fill="#000000">Generated by SchemaSpy</text>
<!-- place_to_plan -->
<g id="node1" class="node">
<title>place_to_plan</title>
<g id="a_node1"><a xlink:href="../../tables/place_to_plan.html" xlink:title="place_to_plan" target="_top">
<polygon fill="#ffffff" stroke="transparent" points="240,-150.7 240,-240.7 387,-240.7 387,-150.7 240,-150.7"/>
<polygon fill="#f5f5f5" stroke="transparent" points="242.5,-215.7 242.5,-238.7 385.5,-238.7 385.5,-215.7 242.5,-215.7"/>
<polygon fill="none" stroke="#000000" points="242.5,-215.7 242.5,-238.7 385.5,-238.7 385.5,-215.7 242.5,-215.7"/>
<text text-anchor="start" x="247.5" y="-224.8" font-family="Helvetica,sans-Serif" font-weight="bold" font-size="11.00" fill="#000000">place_to_plan</text>
<text text-anchor="start" x="350.5437" y="-223.8" font-family="Helvetica,sans-Serif" font-size="11.00" fill="#000000">[table]</text>
<polygon fill="none" stroke="#000000" points="242.5,-193.7 242.5,-215.7 343.5,-215.7 343.5,-193.7 242.5,-193.7"/>
<image xlink:href="../../images/primaryKeys.png" width="11px" height="12px" preserveAspectRatio="xMinYMin meet" x="247.5" y="-210.7"/>
<text text-anchor="start" x="262.5" y="-200.8" font-family="Helvetica,sans-Serif" font-size="11.00" fill="#000000">place</text>
<polygon fill="none" stroke="#000000" points="343.5,-193.7 343.5,-215.7 385.5,-215.7 385.5,-193.7 343.5,-193.7"/>
<text text-anchor="start" x="346.4644" y="-201.4" font-family="Helvetica,sans-Serif" font-size="11.00" fill="#000000">int4[10]</text>
<polygon fill="none" stroke="#000000" points="242.5,-171.7 242.5,-193.7 343.5,-193.7 343.5,-171.7 242.5,-171.7"/>
<image xlink:href="../../images/primaryKeys.png" width="11px" height="12px" preserveAspectRatio="xMinYMin meet" x="247.5" y="-188.7"/>
<text text-anchor="start" x="262.5" y="-178.8" font-family="Helvetica,sans-Serif" font-size="11.00" fill="#000000">plan</text>
<polygon fill="none" stroke="#000000" points="343.5,-171.7 343.5,-193.7 385.5,-193.7 385.5,-171.7 343.5,-171.7"/>
<text text-anchor="start" x="346.4644" y="-179.4" font-family="Helvetica,sans-Serif" font-size="11.00" fill="#000000">int4[10]</text>
<polygon fill="#ffffff" stroke="transparent" points="242.5,-152.7 242.5,-171.7 278.5,-171.7 278.5,-152.7 242.5,-152.7"/>
<polygon fill="none" stroke="#000000" points="242.5,-152.7 242.5,-171.7 278.5,-171.7 278.5,-152.7 242.5,-152.7"/>
<text text-anchor="start" x="245.5" y="-158.8" font-family="Helvetica,sans-Serif" font-size="11.00" fill="#000000">&lt; 2</text>
<polygon fill="#ffffff" stroke="transparent" points="278.5,-152.7 278.5,-171.7 343.5,-171.7 343.5,-152.7 278.5,-152.7"/>
<polygon fill="none" stroke="#000000" points="278.5,-152.7 278.5,-171.7 343.5,-171.7 343.5,-152.7 278.5,-152.7"/>
<text text-anchor="start" x="295.8807" y="-158.8" font-family="Helvetica,sans-Serif" font-size="11.00" fill="#000000">493 rows</text>
<polygon fill="#ffffff" stroke="transparent" points="343.5,-152.7 343.5,-171.7 385.5,-171.7 385.5,-152.7 343.5,-152.7"/>
<polygon fill="none" stroke="#000000" points="343.5,-152.7 343.5,-171.7 385.5,-171.7 385.5,-152.7 343.5,-152.7"/>
<text text-anchor="start" x="366.9053" y="-158.8" font-family="Helvetica,sans-Serif" font-size="11.00" fill="#000000">0 &gt;</text>
<polygon fill="none" stroke="#000000" stroke-width="2" points="241,-151.7 241,-239.7 386,-239.7 386,-151.7 241,-151.7"/>
</a>
</g>
</g>
<!-- place -->
<g id="node2" class="node">
<title>place</title>
<g id="a_node2"><a xlink:href="../../tables/place.html" xlink:title="place" target="_top">
<polygon fill="#ffffff" stroke="transparent" points="48,-164.2 48,-313.2 151,-313.2 151,-164.2 48,-164.2"/>
<polygon fill="#f5f5f5" stroke="transparent" points="48.5,-289.7 48.5,-312.7 151.5,-312.7 151.5,-289.7 48.5,-289.7"/>
<polygon fill="none" stroke="#000000" points="48.5,-289.7 48.5,-312.7 151.5,-312.7 151.5,-289.7 48.5,-289.7"/>
<text text-anchor="start" x="53.5" y="-298.8" font-family="Helvetica,sans-Serif" font-weight="bold" font-size="11.00" fill="#000000">place</text>
<text text-anchor="start" x="116.5437" y="-297.8" font-family="Helvetica,sans-Serif" font-size="11.00" fill="#000000">[table]</text>
<polygon fill="none" stroke="#000000" points="48.5,-267.7 48.5,-289.7 151.5,-289.7 151.5,-267.7 48.5,-267.7"/>
<image xlink:href="../../images/primaryKeys.png" width="11px" height="12px" preserveAspectRatio="xMinYMin meet" x="53.5" y="-284.7"/>
<text text-anchor="start" x="68.5" y="-274.8" font-family="Helvetica,sans-Serif" font-size="11.00" fill="#000000">id</text>
<polygon fill="#ffffff" stroke="transparent" points="48.5,-245.7 48.5,-267.7 151.5,-267.7 151.5,-245.7 48.5,-245.7"/>
<polygon fill="none" stroke="#000000" points="48.5,-245.7 48.5,-267.7 151.5,-267.7 151.5,-245.7 48.5,-245.7"/>
<text text-anchor="start" x="68.5" y="-252.8" font-family="Helvetica,sans-Serif" font-size="11.00" fill="#000000">level</text>
<polygon fill="#ffffff" stroke="transparent" points="48.5,-223.7 48.5,-245.7 151.5,-245.7 151.5,-223.7 48.5,-223.7"/>
<polygon fill="none" stroke="#000000" points="48.5,-223.7 48.5,-245.7 151.5,-245.7 151.5,-223.7 48.5,-223.7"/>
<text text-anchor="start" x="68.5" y="-230.8" font-family="Helvetica,sans-Serif" font-size="11.00" fill="#000000">iso3</text>
<polygon fill="#ffffff" stroke="transparent" points="48.5,-201.7 48.5,-223.7 151.5,-223.7 151.5,-201.7 48.5,-201.7"/>
<polygon fill="none" stroke="#000000" points="48.5,-201.7 48.5,-223.7 151.5,-223.7 151.5,-201.7 48.5,-201.7"/>
<text text-anchor="start" x="68.5" y="-208.8" font-family="Helvetica,sans-Serif" font-size="11.00" fill="#000000">ansi_fips</text>
<polygon fill="none" stroke="#000000" points="48.5,-182.7 48.5,-201.7 151.5,-201.7 151.5,-182.7 48.5,-182.7"/>
<text text-anchor="start" x="51.5" y="-188.8" font-family="Helvetica,sans-Serif" font-size="11.00" fill="#000000">...</text>
<polygon fill="#ffffff" stroke="transparent" points="48.5,-163.7 48.5,-182.7 65.5,-182.7 65.5,-163.7 48.5,-163.7"/>
<polygon fill="none" stroke="#000000" points="48.5,-163.7 48.5,-182.7 65.5,-182.7 65.5,-163.7 48.5,-163.7"/>
<text text-anchor="start" x="51.5" y="-169.8" font-family="Helvetica,sans-Serif" font-size="11.00" fill="#000000"> &#160;</text>
<polygon fill="#ffffff" stroke="transparent" points="65.5,-163.7 65.5,-182.7 127.5,-182.7 127.5,-163.7 65.5,-163.7"/>
<polygon fill="none" stroke="#000000" points="65.5,-163.7 65.5,-182.7 127.5,-182.7 127.5,-163.7 65.5,-163.7"/>
<text text-anchor="start" x="70.7089" y="-169.8" font-family="Helvetica,sans-Serif" font-size="11.00" fill="#000000">7,645 rows</text>
<polygon fill="#ffffff" stroke="transparent" points="127.5,-163.7 127.5,-182.7 151.5,-182.7 151.5,-163.7 127.5,-163.7"/>
<polygon fill="none" stroke="#000000" points="127.5,-163.7 127.5,-182.7 151.5,-182.7 151.5,-163.7 127.5,-163.7"/>
<text text-anchor="start" x="132.9053" y="-169.8" font-family="Helvetica,sans-Serif" font-size="11.00" fill="#000000">7 &gt;</text>
</a>
</g>
</g>
<!-- place_to_plan&#45;&gt;place -->
<g id="edge1" class="edge">
<title>place_to_plan:w&#45;&gt;place:e</title>
<path fill="none" stroke="#000000" d="M228.0347,-206.9958C192.4403,-219.4862 198.131,-278.7 151.5,-278.7"/>
<polygon fill="#000000" stroke="#000000" points="234.5989,-205.954 243.0643,-208.2555 238.5494,-205.327 242.5,-204.7 242.5,-204.7 242.5,-204.7 238.5494,-205.327 241.9357,-201.1445 234.5989,-205.954 234.5989,-205.954"/>
<ellipse fill="none" stroke="#000000" cx="231.4384" cy="-206.4557" rx="3.2" ry="3.2"/>
</g>
<!-- plan -->
<g id="node3" class="node">
<title>plan</title>
<g id="a_node3"><a xlink:href="../../tables/plan.html" xlink:title="plan" target="_top">
<polygon fill="#ffffff" stroke="transparent" points="8,-38.2 8,-143.2 191,-143.2 191,-38.2 8,-38.2"/>
<polygon fill="#f5f5f5" stroke="transparent" points="8.5,-119.7 8.5,-142.7 191.5,-142.7 191.5,-119.7 8.5,-119.7"/>
<polygon fill="none" stroke="#000000" points="8.5,-119.7 8.5,-142.7 191.5,-142.7 191.5,-119.7 8.5,-119.7"/>
<text text-anchor="start" x="13.5" y="-128.8" font-family="Helvetica,sans-Serif" font-weight="bold" font-size="11.00" fill="#000000">plan</text>
<text text-anchor="start" x="156.5437" y="-127.8" font-family="Helvetica,sans-Serif" font-size="11.00" fill="#000000">[table]</text>
<polygon fill="none" stroke="#000000" points="8.5,-97.7 8.5,-119.7 191.5,-119.7 191.5,-97.7 8.5,-97.7"/>
<image xlink:href="../../images/primaryKeys.png" width="11px" height="12px" preserveAspectRatio="xMinYMin meet" x="13.5" y="-114.7"/>
<text text-anchor="start" x="28.5" y="-104.8" font-family="Helvetica,sans-Serif" font-size="11.00" fill="#000000">id</text>
<polygon fill="#ffffff" stroke="transparent" points="8.5,-75.7 8.5,-97.7 191.5,-97.7 191.5,-75.7 8.5,-75.7"/>
<polygon fill="none" stroke="#000000" points="8.5,-75.7 8.5,-97.7 191.5,-97.7 191.5,-75.7 8.5,-75.7"/>
<image xlink:href="../../images/foreignKeys.png" width="11px" height="12px" preserveAspectRatio="xMinYMin meet" x="13.5" y="-92.7"/>
<text text-anchor="start" x="28.5" y="-82.8" font-family="Helvetica,sans-Serif" font-size="11.00" fill="#000000">policy</text>
<polygon fill="none" stroke="#000000" points="8.5,-56.7 8.5,-75.7 191.5,-75.7 191.5,-56.7 8.5,-56.7"/>
<text text-anchor="start" x="11.5" y="-62.8" font-family="Helvetica,sans-Serif" font-size="11.00" fill="#000000">...</text>
<polygon fill="#ffffff" stroke="transparent" points="8.5,-37.7 8.5,-56.7 74.5,-56.7 74.5,-37.7 8.5,-37.7"/>
<polygon fill="none" stroke="#000000" points="8.5,-37.7 8.5,-56.7 74.5,-56.7 74.5,-37.7 8.5,-37.7"/>
<text text-anchor="start" x="11.5" y="-43.8" font-family="Helvetica,sans-Serif" font-size="11.00" fill="#000000">&lt; 1</text>
<polygon fill="#ffffff" stroke="transparent" points="74.5,-37.7 74.5,-56.7 147.5,-56.7 147.5,-37.7 74.5,-37.7"/>
<polygon fill="none" stroke="#000000" points="74.5,-37.7 74.5,-56.7 147.5,-56.7 147.5,-37.7 74.5,-37.7"/>
<text text-anchor="start" x="99.8807" y="-43.8" font-family="Helvetica,sans-Serif" font-size="11.00" fill="#000000">493 rows</text>
<polygon fill="#ffffff" stroke="transparent" points="147.5,-37.7 147.5,-56.7 191.5,-56.7 191.5,-37.7 147.5,-37.7"/>
<polygon fill="none" stroke="#000000" points="147.5,-37.7 147.5,-56.7 191.5,-56.7 191.5,-37.7 147.5,-37.7"/>
<text text-anchor="start" x="172.9053" y="-43.8" font-family="Helvetica,sans-Serif" font-size="11.00" fill="#000000">3 &gt;</text>
</a>
</g>
</g>
<!-- place_to_plan&#45;&gt;plan -->
<g id="edge2" class="edge">
<title>place_to_plan:w&#45;&gt;plan:e</title>
<path fill="none" stroke="#000000" d="M228.5503,-178.071C209.7607,-161.8706 225.3581,-108.7 191.5,-108.7"/>
<polygon fill="#000000" stroke="#000000" points="234.9071,-180.1804 241.3662,-186.1168 238.7036,-181.4402 242.5,-182.7 242.5,-182.7 242.5,-182.7 238.7036,-181.4402 243.6338,-179.2832 234.9071,-180.1804 234.9071,-180.1804"/>
<ellipse fill="none" stroke="#000000" cx="231.87" cy="-179.1725" rx="3.2" ry="3.2"/>
</g>
</g>
</svg>
