<?xml version="1.0" encoding="UTF-8" standalone="no"?>
<!DOCTYPE svg PUBLIC "-//W3C//DTD SVG 1.1//EN"
 "http://www.w3.org/Graphics/SVG/1.1/DTD/svg11.dtd">
<!-- Generated by graphviz version 2.40.1 (20161225.0304)
 -->
<!-- Title: oneDegreeRelationshipsDiagram Pages: 1 -->
<svg width="444pt" height="303pt"
 viewBox="0.00 0.00 444.00 303.20" xmlns="http://www.w3.org/2000/svg" xmlns:xlink="http://www.w3.org/1999/xlink">
<g id="graph0" class="graph" transform="scale(1 1) rotate(0) translate(4 299.2)">
<title>oneDegreeRelationshipsDiagram</title>
<polygon fill="#ffffff" stroke="transparent" points="-4,4 -4,-299.2 440,-299.2 440,4 -4,4"/>
<text text-anchor="middle" x="72.4936" y="-7.3" font-family="Helvetica,sans-Serif" font-size="11.00" fill="#000000">Generated by SchemaSpy</text>
<!-- place_policy_number -->
<g id="node1" class="node">
<title>place_policy_number</title>
<g id="a_node1"><a xlink:href="../../tables/place_policy_number.html" xlink:title="place_policy_number" target="_top">
<polygon fill="#ffffff" stroke="transparent" points="239,-128.7 239,-218.7 428,-218.7 428,-128.7 239,-128.7"/>
<polygon fill="#f5f5f5" stroke="transparent" points="241.5,-193.7 241.5,-216.7 426.5,-216.7 426.5,-193.7 241.5,-193.7"/>
<polygon fill="none" stroke="#000000" points="241.5,-193.7 241.5,-216.7 426.5,-216.7 426.5,-193.7 241.5,-193.7"/>
<text text-anchor="start" x="246.5" y="-202.8" font-family="Helvetica,sans-Serif" font-weight="bold" font-size="11.00" fill="#000000">place_policy_number</text>
<text text-anchor="start" x="391.5437" y="-201.8" font-family="Helvetica,sans-Serif" font-size="11.00" fill="#000000">[table]</text>
<polygon fill="none" stroke="#000000" points="241.5,-171.7 241.5,-193.7 384.5,-193.7 384.5,-171.7 241.5,-171.7"/>
<image xlink:href="../../images/primaryKeys.png" width="11px" height="12px" preserveAspectRatio="xMinYMin meet" x="246.5" y="-188.7"/>
<text text-anchor="start" x="261.5" y="-178.8" font-family="Helvetica,sans-Serif" font-size="11.00" fill="#000000">place</text>
<polygon fill="none" stroke="#000000" points="384.5,-171.7 384.5,-193.7 426.5,-193.7 426.5,-171.7 384.5,-171.7"/>
<text text-anchor="start" x="387.4644" y="-179.4" font-family="Helvetica,sans-Serif" font-size="11.00" fill="#000000">int4[10]</text>
<polygon fill="none" stroke="#000000" points="241.5,-149.7 241.5,-171.7 384.5,-171.7 384.5,-149.7 241.5,-149.7"/>
<image xlink:href="../../images/primaryKeys.png" width="11px" height="12px" preserveAspectRatio="xMinYMin meet" x="246.5" y="-166.7"/>
<text text-anchor="start" x="261.5" y="-156.8" font-family="Helvetica,sans-Serif" font-size="11.00" fill="#000000">policy_number</text>
<polygon fill="none" stroke="#000000" points="384.5,-149.7 384.5,-171.7 426.5,-171.7 426.5,-149.7 384.5,-149.7"/>
<text text-anchor="start" x="387.4644" y="-157.4" font-family="Helvetica,sans-Serif" font-size="11.00" fill="#000000">int4[10]</text>
<polygon fill="#ffffff" stroke="transparent" points="241.5,-130.7 241.5,-149.7 290.5,-149.7 290.5,-130.7 241.5,-130.7"/>
<polygon fill="none" stroke="#000000" points="241.5,-130.7 241.5,-149.7 290.5,-149.7 290.5,-130.7 241.5,-130.7"/>
<text text-anchor="start" x="244.5" y="-136.8" font-family="Helvetica,sans-Serif" font-size="11.00" fill="#000000">&lt; 2</text>
<polygon fill="#ffffff" stroke="transparent" points="290.5,-130.7 290.5,-149.7 384.5,-149.7 384.5,-130.7 290.5,-130.7"/>
<polygon fill="none" stroke="#000000" points="290.5,-130.7 290.5,-149.7 384.5,-149.7 384.5,-130.7 290.5,-130.7"/>
<text text-anchor="start" x="321.594" y="-136.8" font-family="Helvetica,sans-Serif" font-size="11.00" fill="#000000">32,150 rows</text>
<polygon fill="#ffffff" stroke="transparent" points="384.5,-130.7 384.5,-149.7 426.5,-149.7 426.5,-130.7 384.5,-130.7"/>
<polygon fill="none" stroke="#000000" points="384.5,-130.7 384.5,-149.7 426.5,-149.7 426.5,-130.7 384.5,-130.7"/>
<text text-anchor="start" x="407.9053" y="-136.8" font-family="Helvetica,sans-Serif" font-size="11.00" fill="#000000">0 &gt;</text>
<polygon fill="none" stroke="#000000" stroke-width="2" points="240,-129.7 240,-217.7 427,-217.7 427,-129.7 240,-129.7"/>
</a>
</g>
</g>
<!-- place -->
<g id="node2" class="node">
<title>place</title>
<g id="a_node2"><a xlink:href="../../tables/place.html" xlink:title="place" target="_top">
<polygon fill="#ffffff" stroke="transparent" points="47.5,-142.2 47.5,-291.2 150.5,-291.2 150.5,-142.2 47.5,-142.2"/>
<polygon fill="#f5f5f5" stroke="transparent" points="48,-267.7 48,-290.7 151,-290.7 151,-267.7 48,-267.7"/>
<polygon fill="none" stroke="#000000" points="48,-267.7 48,-290.7 151,-290.7 151,-267.7 48,-267.7"/>
<text text-anchor="start" x="53" y="-276.8" font-family="Helvetica,sans-Serif" font-weight="bold" font-size="11.00" fill="#000000">place</text>
<text text-anchor="start" x="116.0437" y="-275.8" font-family="Helvetica,sans-Serif" font-size="11.00" fill="#000000">[table]</text>
<polygon fill="none" stroke="#000000" points="48,-245.7 48,-267.7 151,-267.7 151,-245.7 48,-245.7"/>
<image xlink:href="../../images/primaryKeys.png" width="11px" height="12px" preserveAspectRatio="xMinYMin meet" x="53" y="-262.7"/>
<text text-anchor="start" x="68" y="-252.8" font-family="Helvetica,sans-Serif" font-size="11.00" fill="#000000">id</text>
<polygon fill="#ffffff" stroke="transparent" points="48,-223.7 48,-245.7 151,-245.7 151,-223.7 48,-223.7"/>
<polygon fill="none" stroke="#000000" points="48,-223.7 48,-245.7 151,-245.7 151,-223.7 48,-223.7"/>
<text text-anchor="start" x="68" y="-230.8" font-family="Helvetica,sans-Serif" font-size="11.00" fill="#000000">level</text>
<polygon fill="#ffffff" stroke="transparent" points="48,-201.7 48,-223.7 151,-223.7 151,-201.7 48,-201.7"/>
<polygon fill="none" stroke="#000000" points="48,-201.7 48,-223.7 151,-223.7 151,-201.7 48,-201.7"/>
<text text-anchor="start" x="68" y="-208.8" font-family="Helvetica,sans-Serif" font-size="11.00" fill="#000000">iso3</text>
<polygon fill="#ffffff" stroke="transparent" points="48,-179.7 48,-201.7 151,-201.7 151,-179.7 48,-179.7"/>
<polygon fill="none" stroke="#000000" points="48,-179.7 48,-201.7 151,-201.7 151,-179.7 48,-179.7"/>
<text text-anchor="start" x="68" y="-186.8" font-family="Helvetica,sans-Serif" font-size="11.00" fill="#000000">ansi_fips</text>
<polygon fill="none" stroke="#000000" points="48,-160.7 48,-179.7 151,-179.7 151,-160.7 48,-160.7"/>
<text text-anchor="start" x="51" y="-166.8" font-family="Helvetica,sans-Serif" font-size="11.00" fill="#000000">...</text>
<polygon fill="#ffffff" stroke="transparent" points="48,-141.7 48,-160.7 65,-160.7 65,-141.7 48,-141.7"/>
<polygon fill="none" stroke="#000000" points="48,-141.7 48,-160.7 65,-160.7 65,-141.7 48,-141.7"/>
<text text-anchor="start" x="51" y="-147.8" font-family="Helvetica,sans-Serif" font-size="11.00" fill="#000000"> &#160;</text>
<polygon fill="#ffffff" stroke="transparent" points="65,-141.7 65,-160.7 127,-160.7 127,-141.7 65,-141.7"/>
<polygon fill="none" stroke="#000000" points="65,-141.7 65,-160.7 127,-160.7 127,-141.7 65,-141.7"/>
<text text-anchor="start" x="70.2089" y="-147.8" font-family="Helvetica,sans-Serif" font-size="11.00" fill="#000000">7,645 rows</text>
<polygon fill="#ffffff" stroke="transparent" points="127,-141.7 127,-160.7 151,-160.7 151,-141.7 127,-141.7"/>
<polygon fill="none" stroke="#000000" points="127,-141.7 127,-160.7 151,-160.7 151,-141.7 127,-141.7"/>
<text text-anchor="start" x="132.4053" y="-147.8" font-family="Helvetica,sans-Serif" font-size="11.00" fill="#000000">7 &gt;</text>
</a>
</g>
</g>
<!-- place_policy_number&#45;&gt;place -->
<g id="edge1" class="edge">
<title>place_policy_number:w&#45;&gt;place:e</title>
<path fill="none" stroke="#000000" d="M227.0886,-184.9958C191.6455,-197.4862 197.477,-256.7 151,-256.7"/>
<polygon fill="#000000" stroke="#000000" points="233.5996,-183.9586 242.0664,-186.2552 237.5498,-183.3293 241.5,-182.7 241.5,-182.7 241.5,-182.7 237.5498,-183.3293 240.9336,-179.1448 233.5996,-183.9586 233.5996,-183.9586"/>
<ellipse fill="none" stroke="#000000" cx="230.4395" cy="-184.4621" rx="3.2" ry="3.2"/>
</g>
<!-- policy_number -->
<g id="node3" class="node">
<title>policy_number</title>
<g id="a_node3"><a xlink:href="../../tables/policy_number.html" xlink:title="policy_number" target="_top">
<polygon fill="#ffffff" stroke="transparent" points="8,-38.2 8,-121.2 190,-121.2 190,-38.2 8,-38.2"/>
<polygon fill="#f5f5f5" stroke="transparent" points="8,-97.7 8,-120.7 190,-120.7 190,-97.7 8,-97.7"/>
<polygon fill="none" stroke="#000000" points="8,-97.7 8,-120.7 190,-120.7 190,-97.7 8,-97.7"/>
<text text-anchor="start" x="13" y="-106.8" font-family="Helvetica,sans-Serif" font-weight="bold" font-size="11.00" fill="#000000">policy_number</text>
<text text-anchor="start" x="155.0437" y="-105.8" font-family="Helvetica,sans-Serif" font-size="11.00" fill="#000000">[table]</text>
<polygon fill="none" stroke="#000000" points="8,-75.7 8,-97.7 190,-97.7 190,-75.7 8,-75.7"/>
<image xlink:href="../../images/primaryKeys.png" width="11px" height="12px" preserveAspectRatio="xMinYMin meet" x="13" y="-92.7"/>
<text text-anchor="start" x="28" y="-82.8" font-family="Helvetica,sans-Serif" font-size="11.00" fill="#000000">id</text>
<polygon fill="none" stroke="#000000" points="8,-56.7 8,-75.7 190,-75.7 190,-56.7 8,-56.7"/>
<text text-anchor="start" x="11" y="-62.8" font-family="Helvetica,sans-Serif" font-size="11.00" fill="#000000">...</text>
<polygon fill="#ffffff" stroke="transparent" points="8,-37.7 8,-56.7 62,-56.7 62,-37.7 8,-37.7"/>
<polygon fill="none" stroke="#000000" points="8,-37.7 8,-56.7 62,-56.7 62,-37.7 8,-37.7"/>
<text text-anchor="start" x="11" y="-43.8" font-family="Helvetica,sans-Serif" font-size="11.00" fill="#000000"> &#160;</text>
<polygon fill="#ffffff" stroke="transparent" points="62,-37.7 62,-56.7 148,-56.7 148,-37.7 62,-37.7"/>
<polygon fill="none" stroke="#000000" points="62,-37.7 62,-56.7 148,-56.7 148,-37.7 62,-37.7"/>
<text text-anchor="start" x="85.094" y="-43.8" font-family="Helvetica,sans-Serif" font-size="11.00" fill="#000000">17,312 rows</text>
<polygon fill="#ffffff" stroke="transparent" points="148,-37.7 148,-56.7 190,-56.7 190,-37.7 148,-37.7"/>
<polygon fill="none" stroke="#000000" points="148,-37.7 148,-56.7 190,-56.7 190,-37.7 148,-37.7"/>
<text text-anchor="start" x="171.4053" y="-43.8" font-family="Helvetica,sans-Serif" font-size="11.00" fill="#000000">3 &gt;</text>
</a>
</g>
</g>
<!-- place_policy_number&#45;&gt;policy_number -->
<g id="edge2" class="edge">
<title>place_policy_number:w&#45;&gt;policy_number:e</title>
<path fill="none" stroke="#000000" d="M227.7488,-156.2926C208.4187,-140.3617 224.1218,-86.7 190,-86.7"/>
<polygon fill="#000000" stroke="#000000" points="233.8817,-158.2582 240.4012,-164.1282 237.6909,-159.4791 241.5,-160.7 241.5,-160.7 241.5,-160.7 237.6909,-159.4791 242.5988,-157.2718 233.8817,-158.2582 233.8817,-158.2582"/>
<ellipse fill="none" stroke="#000000" cx="230.8344" cy="-157.2815" rx="3.2" ry="3.2"/>
</g>
</g>
</svg>
