<?xml version="1.0" encoding="UTF-8" standalone="no"?>
<!DOCTYPE svg PUBLIC "-//W3C//DTD SVG 1.1//EN"
 "http://www.w3.org/Graphics/SVG/1.1/DTD/svg11.dtd">
<!-- Generated by graphviz version 2.40.1 (20161225.0304)
 -->
<!-- Title: twoDegreesRelationshipsDiagram Pages: 1 -->
<svg width="647pt" height="790pt"
 viewBox="0.00 0.00 647.00 789.55" xmlns="http://www.w3.org/2000/svg" xmlns:xlink="http://www.w3.org/1999/xlink">
<g id="graph0" class="graph" transform="scale(1 1) rotate(0) translate(4 785.5465)">
<title>twoDegreesRelationshipsDiagram</title>
<polygon fill="#ffffff" stroke="transparent" points="-4,4 -4,-785.5465 643,-785.5465 643,4 -4,4"/>
<text text-anchor="middle" x="72.4936" y="-7.3" font-family="Helvetica,sans-Serif" font-size="11.00" fill="#000000">Generated by SchemaSpy</text>
<!-- auth_entity -->
<g id="node1" class="node">
<title>auth_entity</title>
<g id="a_node1"><a xlink:href="../../tables/auth_entity.html" xlink:title="auth_entity" target="_top">
<polygon fill="#ffffff" stroke="transparent" points="280.5,-408.2 280.5,-513.2 381.5,-513.2 381.5,-408.2 280.5,-408.2"/>
<polygon fill="#f5f5f5" stroke="transparent" points="281,-489.7 281,-512.7 382,-512.7 382,-489.7 281,-489.7"/>
<polygon fill="none" stroke="#000000" points="281,-489.7 281,-512.7 382,-512.7 382,-489.7 281,-489.7"/>
<text text-anchor="start" x="286" y="-498.8" font-family="Helvetica,sans-Serif" font-weight="bold" font-size="11.00" fill="#000000">auth_entity</text>
<text text-anchor="start" x="347.0437" y="-497.8" font-family="Helvetica,sans-Serif" font-size="11.00" fill="#000000">[table]</text>
<polygon fill="none" stroke="#000000" points="281,-467.7 281,-489.7 382,-489.7 382,-467.7 281,-467.7"/>
<image xlink:href="../../images/primaryKeys.png" width="11px" height="12px" preserveAspectRatio="xMinYMin meet" x="286" y="-484.7"/>
<text text-anchor="start" x="309" y="-474.8" font-family="Helvetica,sans-Serif" font-size="11.00" fill="#000000">id</text>
<polygon fill="#ffffff" stroke="transparent" points="281,-445.7 281,-467.7 382,-467.7 382,-445.7 281,-445.7"/>
<polygon fill="none" stroke="#000000" points="281,-445.7 281,-467.7 382,-467.7 382,-445.7 281,-445.7"/>
<image xlink:href="../../images/foreignKeys.png" width="11px" height="12px" preserveAspectRatio="xMinYMin meet" x="286" y="-462.7"/>
<text text-anchor="start" x="309" y="-452.8" font-family="Helvetica,sans-Serif" font-size="11.00" fill="#000000">place</text>
<polygon fill="none" stroke="#000000" points="281,-426.7 281,-445.7 382,-445.7 382,-426.7 281,-426.7"/>
<text text-anchor="start" x="284" y="-432.8" font-family="Helvetica,sans-Serif" font-size="11.00" fill="#000000">...</text>
<polygon fill="#ffffff" stroke="transparent" points="281,-407.7 281,-426.7 302,-426.7 302,-407.7 281,-407.7"/>
<polygon fill="none" stroke="#000000" points="281,-407.7 281,-426.7 302,-426.7 302,-407.7 281,-407.7"/>
<text text-anchor="start" x="283.7027" y="-413.8" font-family="Helvetica,sans-Serif" font-size="11.00" fill="#000000">&lt; 1</text>
<polygon fill="#ffffff" stroke="transparent" points="302,-407.7 302,-426.7 361,-426.7 361,-407.7 302,-407.7"/>
<polygon fill="none" stroke="#000000" points="302,-407.7 302,-426.7 361,-426.7 361,-407.7 302,-407.7"/>
<text text-anchor="start" x="304.6045" y="-413.8" font-family="Helvetica,sans-Serif" font-size="11.00" fill="#000000">2,895 rows</text>
<polygon fill="#ffffff" stroke="transparent" points="361,-407.7 361,-426.7 382,-426.7 382,-407.7 361,-407.7"/>
<polygon fill="none" stroke="#000000" points="361,-407.7 361,-426.7 382,-426.7 382,-407.7 361,-407.7"/>
<text text-anchor="start" x="363.7027" y="-413.8" font-family="Helvetica,sans-Serif" font-size="11.00" fill="#000000">3 &gt;</text>
</a>
</g>
</g>
<!-- place -->
<g id="node2" class="node">
<title>place</title>
<g id="a_node2"><a xlink:href="../../tables/place.html" xlink:title="place" target="_top">
<polygon fill="#ffffff" stroke="transparent" points="8,-226.7 8,-492.7 205,-492.7 205,-226.7 8,-226.7"/>
<polygon fill="#f5f5f5" stroke="transparent" points="10.5,-467.7 10.5,-490.7 203.5,-490.7 203.5,-467.7 10.5,-467.7"/>
<polygon fill="none" stroke="#000000" points="10.5,-467.7 10.5,-490.7 203.5,-490.7 203.5,-467.7 10.5,-467.7"/>
<text text-anchor="start" x="15.5" y="-476.8" font-family="Helvetica,sans-Serif" font-weight="bold" font-size="11.00" fill="#000000">place</text>
<text text-anchor="start" x="168.5437" y="-475.8" font-family="Helvetica,sans-Serif" font-size="11.00" fill="#000000">[table]</text>
<polygon fill="none" stroke="#000000" points="10.5,-445.7 10.5,-467.7 113.5,-467.7 113.5,-445.7 10.5,-445.7"/>
<image xlink:href="../../images/primaryKeys.png" width="11px" height="12px" preserveAspectRatio="xMinYMin meet" x="15.5" y="-462.7"/>
<text text-anchor="start" x="30.5" y="-452.8" font-family="Helvetica,sans-Serif" font-size="11.00" fill="#000000">id</text>
<polygon fill="none" stroke="#000000" points="113.5,-445.7 113.5,-467.7 203.5,-467.7 203.5,-445.7 113.5,-445.7"/>
<text text-anchor="start" x="116.5" y="-453.4" font-family="Helvetica,sans-Serif" font-size="11.00" fill="#000000">serial[10]</text>
<polygon fill="#ffffff" stroke="transparent" points="10.5,-423.7 10.5,-445.7 113.5,-445.7 113.5,-423.7 10.5,-423.7"/>
<polygon fill="none" stroke="#000000" points="10.5,-423.7 10.5,-445.7 113.5,-445.7 113.5,-423.7 10.5,-423.7"/>
<text text-anchor="start" x="30.5" y="-430.8" font-family="Helvetica,sans-Serif" font-size="11.00" fill="#000000">level</text>
<polygon fill="none" stroke="#000000" points="113.5,-423.7 113.5,-445.7 203.5,-445.7 203.5,-423.7 113.5,-423.7"/>
<text text-anchor="start" x="116.0042" y="-431.4" font-family="Helvetica,sans-Serif" font-size="11.00" fill="#000000">text[2147483647]</text>
<polygon fill="#ffffff" stroke="transparent" points="10.5,-401.7 10.5,-423.7 113.5,-423.7 113.5,-401.7 10.5,-401.7"/>
<polygon fill="none" stroke="#000000" points="10.5,-401.7 10.5,-423.7 113.5,-423.7 113.5,-401.7 10.5,-401.7"/>
<text text-anchor="start" x="30.5" y="-408.8" font-family="Helvetica,sans-Serif" font-size="11.00" fill="#000000">iso3</text>
<polygon fill="none" stroke="#000000" points="113.5,-401.7 113.5,-423.7 203.5,-423.7 203.5,-401.7 113.5,-401.7"/>
<text text-anchor="start" x="116.0042" y="-409.4" font-family="Helvetica,sans-Serif" font-size="11.00" fill="#000000">text[2147483647]</text>
<polygon fill="none" stroke="#000000" points="10.5,-379.7 10.5,-401.7 113.5,-401.7 113.5,-379.7 10.5,-379.7"/>
<text text-anchor="start" x="30.5" y="-386.8" font-family="Helvetica,sans-Serif" font-size="11.00" fill="#000000">country_name</text>
<polygon fill="none" stroke="#000000" points="113.5,-379.7 113.5,-401.7 203.5,-401.7 203.5,-379.7 113.5,-379.7"/>
<text text-anchor="start" x="116.0042" y="-387.4" font-family="Helvetica,sans-Serif" font-size="11.00" fill="#000000">text[2147483647]</text>
<polygon fill="none" stroke="#000000" points="10.5,-357.7 10.5,-379.7 113.5,-379.7 113.5,-357.7 10.5,-357.7"/>
<text text-anchor="start" x="30.5" y="-364.8" font-family="Helvetica,sans-Serif" font-size="11.00" fill="#000000">area1</text>
<polygon fill="none" stroke="#000000" points="113.5,-357.7 113.5,-379.7 203.5,-379.7 203.5,-357.7 113.5,-357.7"/>
<text text-anchor="start" x="116.0042" y="-365.4" font-family="Helvetica,sans-Serif" font-size="11.00" fill="#000000">text[2147483647]</text>
<polygon fill="none" stroke="#000000" points="10.5,-335.7 10.5,-357.7 113.5,-357.7 113.5,-335.7 10.5,-335.7"/>
<text text-anchor="start" x="30.5" y="-342.8" font-family="Helvetica,sans-Serif" font-size="11.00" fill="#000000">area2</text>
<polygon fill="none" stroke="#000000" points="113.5,-335.7 113.5,-357.7 203.5,-357.7 203.5,-335.7 113.5,-335.7"/>
<text text-anchor="start" x="116.0042" y="-343.4" font-family="Helvetica,sans-Serif" font-size="11.00" fill="#000000">text[2147483647]</text>
<polygon fill="none" stroke="#000000" points="10.5,-313.7 10.5,-335.7 113.5,-335.7 113.5,-313.7 10.5,-313.7"/>
<text text-anchor="start" x="30.5" y="-320.8" font-family="Helvetica,sans-Serif" font-size="11.00" fill="#000000">loc</text>
<polygon fill="none" stroke="#000000" points="113.5,-313.7 113.5,-335.7 203.5,-335.7 203.5,-313.7 113.5,-313.7"/>
<text text-anchor="start" x="116.0042" y="-321.4" font-family="Helvetica,sans-Serif" font-size="11.00" fill="#000000">text[2147483647]</text>
<polygon fill="none" stroke="#000000" points="10.5,-291.7 10.5,-313.7 113.5,-313.7 113.5,-291.7 10.5,-291.7"/>
<text text-anchor="start" x="30.5" y="-298.8" font-family="Helvetica,sans-Serif" font-size="11.00" fill="#000000">home_rule</text>
<polygon fill="none" stroke="#000000" points="113.5,-291.7 113.5,-313.7 203.5,-313.7 203.5,-291.7 113.5,-291.7"/>
<text text-anchor="start" x="116.0042" y="-299.4" font-family="Helvetica,sans-Serif" font-size="11.00" fill="#000000">text[2147483647]</text>
<polygon fill="none" stroke="#000000" points="10.5,-269.7 10.5,-291.7 113.5,-291.7 113.5,-269.7 10.5,-269.7"/>
<text text-anchor="start" x="30.5" y="-276.8" font-family="Helvetica,sans-Serif" font-size="11.00" fill="#000000">dillons_rule</text>
<polygon fill="none" stroke="#000000" points="113.5,-269.7 113.5,-291.7 203.5,-291.7 203.5,-269.7 113.5,-269.7"/>
<text text-anchor="start" x="116.0042" y="-277.4" font-family="Helvetica,sans-Serif" font-size="11.00" fill="#000000">text[2147483647]</text>
<polygon fill="#ffffff" stroke="transparent" points="10.5,-247.7 10.5,-269.7 113.5,-269.7 113.5,-247.7 10.5,-247.7"/>
<polygon fill="none" stroke="#000000" points="10.5,-247.7 10.5,-269.7 113.5,-269.7 113.5,-247.7 10.5,-247.7"/>
<text text-anchor="start" x="30.5" y="-254.8" font-family="Helvetica,sans-Serif" font-size="11.00" fill="#000000">ansi_fips</text>
<polygon fill="none" stroke="#000000" points="113.5,-247.7 113.5,-269.7 203.5,-269.7 203.5,-247.7 113.5,-247.7"/>
<text text-anchor="start" x="116.0042" y="-255.4" font-family="Helvetica,sans-Serif" font-size="11.00" fill="#000000">text[2147483647]</text>
<polygon fill="#ffffff" stroke="transparent" points="10.5,-228.7 10.5,-247.7 42.5,-247.7 42.5,-228.7 10.5,-228.7"/>
<polygon fill="none" stroke="#000000" points="10.5,-228.7 10.5,-247.7 42.5,-247.7 42.5,-228.7 10.5,-228.7"/>
<text text-anchor="start" x="13.5" y="-234.8" font-family="Helvetica,sans-Serif" font-size="11.00" fill="#000000">&lt; 0</text>
<polygon fill="#ffffff" stroke="transparent" points="42.5,-228.7 42.5,-247.7 113.5,-247.7 113.5,-228.7 42.5,-228.7"/>
<polygon fill="none" stroke="#000000" points="42.5,-228.7 42.5,-247.7 113.5,-247.7 113.5,-228.7 42.5,-228.7"/>
<text text-anchor="start" x="56.7089" y="-234.8" font-family="Helvetica,sans-Serif" font-size="11.00" fill="#000000">7,645 rows</text>
<polygon fill="#ffffff" stroke="transparent" points="113.5,-228.7 113.5,-247.7 203.5,-247.7 203.5,-228.7 113.5,-228.7"/>
<polygon fill="none" stroke="#000000" points="113.5,-228.7 113.5,-247.7 203.5,-247.7 203.5,-228.7 113.5,-228.7"/>
<text text-anchor="start" x="184.9053" y="-234.8" font-family="Helvetica,sans-Serif" font-size="11.00" fill="#000000">7 &gt;</text>
<polygon fill="none" stroke="#000000" stroke-width="2" points="9,-227.7 9,-491.7 204,-491.7 204,-227.7 9,-227.7"/>
</a>
</g>
</g>
<!-- auth_entity&#45;&gt;place -->
<g id="edge1" class="edge">
<title>auth_entity:w&#45;&gt;place:e</title>
<path fill="none" stroke="#000000" d="M266.5492,-456.7C243.2339,-456.7 232.5625,-456.7 203.5,-456.7"/>
<polygon fill="#000000" stroke="#000000" points="273,-456.7001 281,-460.3 277,-456.7 281,-456.7 281,-456.7 281,-456.7 277,-456.7 281,-453.1 273,-456.7001 273,-456.7001"/>
<ellipse fill="none" stroke="#000000" cx="269.8" cy="-456.7001" rx="3.2" ry="3.2"/>
</g>
<!-- auth_entity_policy_number -->
<g id="node3" class="node">
<title>auth_entity_policy_number</title>
<g id="a_node3"><a xlink:href="../../tables/auth_entity_policy_number.html" xlink:title="auth_entity_policy_number" target="_top">
<polygon fill="#ffffff" stroke="transparent" points="457,-492.2 457,-553.2 631,-553.2 631,-492.2 457,-492.2"/>
<polygon fill="#f5f5f5" stroke="transparent" points="457,-529.7 457,-552.7 631,-552.7 631,-529.7 457,-529.7"/>
<polygon fill="none" stroke="#000000" points="457,-529.7 457,-552.7 631,-552.7 631,-529.7 457,-529.7"/>
<text text-anchor="start" x="461.7871" y="-538.8" font-family="Helvetica,sans-Serif" font-weight="bold" font-size="11.00" fill="#000000">auth_entity_policy_number</text>
<text text-anchor="start" x="596.5219" y="-537.8" font-family="Helvetica,sans-Serif" font-size="11.00" fill="#000000">[table]</text>
<polygon fill="none" stroke="#000000" points="457,-510.7 457,-529.7 631,-529.7 631,-510.7 457,-510.7"/>
<text text-anchor="start" x="460" y="-516.8" font-family="Helvetica,sans-Serif" font-size="11.00" fill="#000000">...</text>
<polygon fill="#ffffff" stroke="transparent" points="457,-491.7 457,-510.7 516,-510.7 516,-491.7 457,-491.7"/>
<polygon fill="none" stroke="#000000" points="457,-491.7 457,-510.7 516,-510.7 516,-491.7 457,-491.7"/>
<text text-anchor="start" x="460" y="-497.8" font-family="Helvetica,sans-Serif" font-size="11.00" fill="#000000">&lt; 2</text>
<polygon fill="#ffffff" stroke="transparent" points="516,-491.7 516,-510.7 600,-510.7 600,-491.7 516,-491.7"/>
<polygon fill="none" stroke="#000000" points="516,-491.7 516,-510.7 600,-510.7 600,-491.7 516,-491.7"/>
<text text-anchor="start" x="537.094" y="-497.8" font-family="Helvetica,sans-Serif" font-size="11.00" fill="#000000">18,176 rows</text>
<polygon fill="#ffffff" stroke="transparent" points="600,-491.7 600,-510.7 631,-510.7 631,-491.7 600,-491.7"/>
<polygon fill="none" stroke="#000000" points="600,-491.7 600,-510.7 631,-510.7 631,-491.7 600,-491.7"/>
<text text-anchor="start" x="621.8862" y="-497.8" font-family="Helvetica,sans-Serif" font-size="11.00" fill="#000000"> &#160;</text>
</a>
</g>
</g>
<!-- auth_entity_policy_number&#45;&gt;auth_entity -->
<g id="edge2" class="edge">
<title>auth_entity_policy_number:w&#45;&gt;auth_entity:e</title>
<path fill="none" stroke="#000000" d="M442.7349,-517.3782C418.4797,-508.7049 414.4984,-478.7 382,-478.7"/>
<polygon fill="#000000" stroke="#000000" points="449.1039,-518.4148 456.4216,-523.2532 453.052,-519.0574 457,-519.7 457,-519.7 457,-519.7 453.052,-519.0574 457.5784,-516.1468 449.1039,-518.4148 449.1039,-518.4148"/>
<ellipse fill="none" stroke="#000000" cx="445.9455" cy="-517.9007" rx="3.2" ry="3.2"/>
</g>
<!-- policy_number -->
<g id="node4" class="node">
<title>policy_number</title>
<g id="a_node4"><a xlink:href="../../tables/policy_number.html" xlink:title="policy_number" target="_top">
<polygon fill="#ffffff" stroke="transparent" points="274,-534.2 274,-595.2 388,-595.2 388,-534.2 274,-534.2"/>
<polygon fill="#f5f5f5" stroke="transparent" points="274,-571.7 274,-594.7 388,-594.7 388,-571.7 274,-571.7"/>
<polygon fill="none" stroke="#000000" points="274,-571.7 274,-594.7 388,-594.7 388,-571.7 274,-571.7"/>
<text text-anchor="start" x="278.7451" y="-580.8" font-family="Helvetica,sans-Serif" font-weight="bold" font-size="11.00" fill="#000000">policy_number</text>
<text text-anchor="start" x="353.5219" y="-579.8" font-family="Helvetica,sans-Serif" font-size="11.00" fill="#000000">[table]</text>
<polygon fill="none" stroke="#000000" points="274,-552.7 274,-571.7 388,-571.7 388,-552.7 274,-552.7"/>
<text text-anchor="start" x="277" y="-558.8" font-family="Helvetica,sans-Serif" font-size="11.00" fill="#000000">...</text>
<polygon fill="#ffffff" stroke="transparent" points="274,-533.7 274,-552.7 294,-552.7 294,-533.7 274,-533.7"/>
<polygon fill="none" stroke="#000000" points="274,-533.7 274,-552.7 294,-552.7 294,-533.7 274,-533.7"/>
<text text-anchor="start" x="277" y="-539.8" font-family="Helvetica,sans-Serif" font-size="11.00" fill="#000000"> &#160;</text>
<polygon fill="#ffffff" stroke="transparent" points="294,-533.7 294,-552.7 363,-552.7 363,-533.7 294,-533.7"/>
<polygon fill="none" stroke="#000000" points="294,-533.7 294,-552.7 363,-552.7 363,-533.7 294,-533.7"/>
<text text-anchor="start" x="300.094" y="-539.8" font-family="Helvetica,sans-Serif" font-size="11.00" fill="#000000">17,312 rows</text>
<polygon fill="#ffffff" stroke="transparent" points="363,-533.7 363,-552.7 388,-552.7 388,-533.7 363,-533.7"/>
<polygon fill="none" stroke="#000000" points="363,-533.7 363,-552.7 388,-552.7 388,-533.7 363,-533.7"/>
<text text-anchor="start" x="369.4053" y="-539.8" font-family="Helvetica,sans-Serif" font-size="11.00" fill="#000000">3 &gt;</text>
</a>
</g>
</g>
<!-- auth_entity_policy_number&#45;&gt;policy_number -->
<g id="edge3" class="edge">
<title>auth_entity_policy_number:w&#45;&gt;policy_number:e</title>
<path fill="none" stroke="#000000" d="M442.7108,-522.4557C421.0297,-531.7996 418.2916,-561.7 388,-561.7"/>
<polygon fill="#000000" stroke="#000000" points="449.1447,-521.215 457.6817,-523.2349 453.0724,-520.4575 457,-519.7 457,-519.7 457,-519.7 453.0724,-520.4575 456.3183,-516.1651 449.1447,-521.215 449.1447,-521.215"/>
<ellipse fill="none" stroke="#000000" cx="446.0026" cy="-521.821" rx="3.2" ry="3.2"/>
</g>
<!-- auth_entity_to_plan -->
<g id="node5" class="node">
<title>auth_entity_to_plan</title>
<g id="a_node5"><a xlink:href="../../tables/auth_entity_to_plan.html" xlink:title="auth_entity_to_plan" target="_top">
<polygon fill="#ffffff" stroke="transparent" points="475,-274.2 475,-335.2 613,-335.2 613,-274.2 475,-274.2"/>
<polygon fill="#f5f5f5" stroke="transparent" points="475,-311.7 475,-334.7 613,-334.7 613,-311.7 475,-311.7"/>
<polygon fill="none" stroke="#000000" points="475,-311.7 475,-334.7 613,-334.7 613,-311.7 475,-311.7"/>
<text text-anchor="start" x="479.5059" y="-320.8" font-family="Helvetica,sans-Serif" font-weight="bold" font-size="11.00" fill="#000000">auth_entity_to_plan</text>
<text text-anchor="start" x="578.5219" y="-319.8" font-family="Helvetica,sans-Serif" font-size="11.00" fill="#000000">[table]</text>
<polygon fill="none" stroke="#000000" points="475,-292.7 475,-311.7 613,-311.7 613,-292.7 475,-292.7"/>
<text text-anchor="start" x="478" y="-298.8" font-family="Helvetica,sans-Serif" font-size="11.00" fill="#000000">...</text>
<polygon fill="#ffffff" stroke="transparent" points="475,-273.7 475,-292.7 523,-292.7 523,-273.7 475,-273.7"/>
<polygon fill="none" stroke="#000000" points="475,-273.7 475,-292.7 523,-292.7 523,-273.7 475,-273.7"/>
<text text-anchor="start" x="478" y="-279.8" font-family="Helvetica,sans-Serif" font-size="11.00" fill="#000000">&lt; 2</text>
<polygon fill="#ffffff" stroke="transparent" points="523,-273.7 523,-292.7 587,-292.7 587,-273.7 523,-273.7"/>
<polygon fill="none" stroke="#000000" points="523,-273.7 523,-292.7 587,-292.7 587,-273.7 523,-273.7"/>
<text text-anchor="start" x="539.3807" y="-279.8" font-family="Helvetica,sans-Serif" font-size="11.00" fill="#000000">493 rows</text>
<polygon fill="#ffffff" stroke="transparent" points="587,-273.7 587,-292.7 613,-292.7 613,-273.7 587,-273.7"/>
<polygon fill="none" stroke="#000000" points="587,-273.7 587,-292.7 613,-292.7 613,-273.7 587,-273.7"/>
<text text-anchor="start" x="603.8862" y="-279.8" font-family="Helvetica,sans-Serif" font-size="11.00" fill="#000000"> &#160;</text>
</a>
</g>
</g>
<!-- auth_entity_to_plan&#45;&gt;auth_entity -->
<g id="edge4" class="edge">
<title>auth_entity_to_plan:w&#45;&gt;auth_entity:e</title>
<path fill="none" stroke="#000000" d="M460.6907,-303.568C395.7593,-322.4847 465.484,-478.7 382,-478.7"/>
<polygon fill="#000000" stroke="#000000" points="467.0673,-302.7356 475.466,-305.2697 471.0337,-302.2178 475,-301.7 475,-301.7 475,-301.7 471.0337,-302.2178 474.534,-298.1303 467.0673,-302.7356 467.0673,-302.7356"/>
<ellipse fill="none" stroke="#000000" cx="463.8942" cy="-303.1499" rx="3.2" ry="3.2"/>
</g>
<!-- plan -->
<g id="node6" class="node">
<title>plan</title>
<g id="a_node6"><a xlink:href="../../tables/plan.html" xlink:title="plan" target="_top">
<polygon fill="#ffffff" stroke="transparent" points="285,-38.2 285,-99.2 377,-99.2 377,-38.2 285,-38.2"/>
<polygon fill="#f5f5f5" stroke="transparent" points="285,-75.7 285,-98.7 377,-98.7 377,-75.7 285,-75.7"/>
<polygon fill="none" stroke="#000000" points="285,-75.7 285,-98.7 377,-98.7 377,-75.7 285,-75.7"/>
<text text-anchor="start" x="290" y="-84.8" font-family="Helvetica,sans-Serif" font-weight="bold" font-size="11.00" fill="#000000">plan</text>
<text text-anchor="start" x="342.0437" y="-83.8" font-family="Helvetica,sans-Serif" font-size="11.00" fill="#000000">[table]</text>
<polygon fill="none" stroke="#000000" points="285,-56.7 285,-75.7 377,-75.7 377,-56.7 285,-56.7"/>
<text text-anchor="start" x="288" y="-62.8" font-family="Helvetica,sans-Serif" font-size="11.00" fill="#000000">...</text>
<polygon fill="#ffffff" stroke="transparent" points="285,-37.7 285,-56.7 306,-56.7 306,-37.7 285,-37.7"/>
<polygon fill="none" stroke="#000000" points="285,-37.7 285,-56.7 306,-56.7 306,-37.7 285,-37.7"/>
<text text-anchor="start" x="287.7027" y="-43.8" font-family="Helvetica,sans-Serif" font-size="11.00" fill="#000000">&lt; 1</text>
<polygon fill="#ffffff" stroke="transparent" points="306,-37.7 306,-56.7 356,-56.7 356,-37.7 306,-37.7"/>
<polygon fill="none" stroke="#000000" points="306,-37.7 306,-56.7 356,-56.7 356,-37.7 306,-37.7"/>
<text text-anchor="start" x="308.6904" y="-43.8" font-family="Helvetica,sans-Serif" font-size="11.00" fill="#000000">493 rows</text>
<polygon fill="#ffffff" stroke="transparent" points="356,-37.7 356,-56.7 377,-56.7 377,-37.7 356,-37.7"/>
<polygon fill="none" stroke="#000000" points="356,-37.7 356,-56.7 377,-56.7 377,-37.7 356,-37.7"/>
<text text-anchor="start" x="358.7027" y="-43.8" font-family="Helvetica,sans-Serif" font-size="11.00" fill="#000000">3 &gt;</text>
</a>
</g>
</g>
<!-- auth_entity_to_plan&#45;&gt;plan -->
<g id="edge5" class="edge">
<title>auth_entity_to_plan:w&#45;&gt;plan:e</title>
<path fill="none" stroke="#000000" d="M460.5788,-300.193C373.0013,-280.0936 485.249,-65.7 377,-65.7"/>
<polygon fill="#000000" stroke="#000000" points="467.0433,-300.8685 474.6258,-305.2805 471.0217,-301.2842 475,-301.7 475,-301.7 475,-301.7 471.0217,-301.2842 475.3742,-298.1195 467.0433,-300.8685 467.0433,-300.8685"/>
<ellipse fill="none" stroke="#000000" cx="463.8607" cy="-300.5358" rx="3.2" ry="3.2"/>
</g>
<!-- policy -->
<g id="node8" class="node">
<title>policy</title>
<g id="a_node8"><a xlink:href="../../tables/policy.html" xlink:title="policy" target="_top">
<polygon fill="#ffffff" stroke="transparent" points="57.5,-96.2 57.5,-157.2 155.5,-157.2 155.5,-96.2 57.5,-96.2"/>
<polygon fill="#f5f5f5" stroke="transparent" points="57.5,-133.7 57.5,-156.7 155.5,-156.7 155.5,-133.7 57.5,-133.7"/>
<polygon fill="none" stroke="#000000" points="57.5,-133.7 57.5,-156.7 155.5,-156.7 155.5,-133.7 57.5,-133.7"/>
<text text-anchor="start" x="62.5" y="-142.8" font-family="Helvetica,sans-Serif" font-weight="bold" font-size="11.00" fill="#000000">policy</text>
<text text-anchor="start" x="120.5437" y="-141.8" font-family="Helvetica,sans-Serif" font-size="11.00" fill="#000000">[table]</text>
<polygon fill="none" stroke="#000000" points="57.5,-114.7 57.5,-133.7 155.5,-133.7 155.5,-114.7 57.5,-114.7"/>
<text text-anchor="start" x="60.5" y="-120.8" font-family="Helvetica,sans-Serif" font-size="11.00" fill="#000000">...</text>
<polygon fill="#ffffff" stroke="transparent" points="57.5,-95.7 57.5,-114.7 69.5,-114.7 69.5,-95.7 57.5,-95.7"/>
<polygon fill="none" stroke="#000000" points="57.5,-95.7 57.5,-114.7 69.5,-114.7 69.5,-95.7 57.5,-95.7"/>
<text text-anchor="start" x="60.4431" y="-101.8" font-family="Helvetica,sans-Serif" font-size="11.00" fill="#000000"> &#160;</text>
<polygon fill="#ffffff" stroke="transparent" points="69.5,-95.7 69.5,-114.7 134.5,-114.7 134.5,-95.7 69.5,-95.7"/>
<polygon fill="none" stroke="#000000" points="69.5,-95.7 69.5,-114.7 134.5,-114.7 134.5,-95.7 69.5,-95.7"/>
<text text-anchor="start" x="72.047" y="-101.8" font-family="Helvetica,sans-Serif" font-size="11.00" fill="#000000">40,812 rows</text>
<polygon fill="#ffffff" stroke="transparent" points="134.5,-95.7 134.5,-114.7 155.5,-114.7 155.5,-95.7 134.5,-95.7"/>
<polygon fill="none" stroke="#000000" points="134.5,-95.7 134.5,-114.7 155.5,-114.7 155.5,-95.7 134.5,-95.7"/>
<text text-anchor="start" x="137.2027" y="-101.8" font-family="Helvetica,sans-Serif" font-size="11.00" fill="#000000">8 &gt;</text>
</a>
</g>
</g>
<!-- plan&#45;&gt;policy -->
<g id="edge17" class="edge">
<title>plan:w&#45;&gt;policy:e</title>
<path fill="none" stroke="#000000" d="M270.6194,-66.8068C220.9807,-74.8253 213.3913,-123.7 155.5,-123.7"/>
<polygon fill="#000000" stroke="#000000" points="277.0236,-66.314 285.2763,-69.2894 281.0118,-66.007 285,-65.7 285,-65.7 285,-65.7 281.0118,-66.007 284.7237,-62.1106 277.0236,-66.314 277.0236,-66.314"/>
<ellipse fill="none" stroke="#000000" cx="273.833" cy="-66.5596" rx="3.2" ry="3.2"/>
</g>
<!-- auth_entity_to_policy -->
<g id="node7" class="node">
<title>auth_entity_to_policy</title>
<g id="a_node7"><a xlink:href="../../tables/auth_entity_to_policy.html" xlink:title="auth_entity_to_policy" target="_top">
<polygon fill="#ffffff" stroke="transparent" points="471,-392.2 471,-453.2 617,-453.2 617,-392.2 471,-392.2"/>
<polygon fill="#f5f5f5" stroke="transparent" points="471,-429.7 471,-452.7 617,-452.7 617,-429.7 471,-429.7"/>
<polygon fill="none" stroke="#000000" points="471,-429.7 471,-452.7 617,-452.7 617,-429.7 471,-429.7"/>
<text text-anchor="start" x="475.8429" y="-438.8" font-family="Helvetica,sans-Serif" font-weight="bold" font-size="11.00" fill="#000000">auth_entity_to_policy</text>
<text text-anchor="start" x="582.5219" y="-437.8" font-family="Helvetica,sans-Serif" font-size="11.00" fill="#000000">[table]</text>
<polygon fill="none" stroke="#000000" points="471,-410.7 471,-429.7 617,-429.7 617,-410.7 471,-410.7"/>
<text text-anchor="start" x="474" y="-416.8" font-family="Helvetica,sans-Serif" font-size="11.00" fill="#000000">...</text>
<polygon fill="#ffffff" stroke="transparent" points="471,-391.7 471,-410.7 516,-410.7 516,-391.7 471,-391.7"/>
<polygon fill="none" stroke="#000000" points="471,-391.7 471,-410.7 516,-410.7 516,-391.7 471,-391.7"/>
<text text-anchor="start" x="474" y="-397.8" font-family="Helvetica,sans-Serif" font-size="11.00" fill="#000000">&lt; 2</text>
<polygon fill="#ffffff" stroke="transparent" points="516,-391.7 516,-410.7 593,-410.7 593,-391.7 516,-391.7"/>
<polygon fill="none" stroke="#000000" points="516,-391.7 516,-410.7 593,-410.7 593,-391.7 516,-391.7"/>
<text text-anchor="start" x="530.094" y="-397.8" font-family="Helvetica,sans-Serif" font-size="11.00" fill="#000000">41,840 rows</text>
<polygon fill="#ffffff" stroke="transparent" points="593,-391.7 593,-410.7 617,-410.7 617,-391.7 593,-391.7"/>
<polygon fill="none" stroke="#000000" points="593,-391.7 593,-410.7 617,-410.7 617,-391.7 593,-391.7"/>
<text text-anchor="start" x="607.8862" y="-397.8" font-family="Helvetica,sans-Serif" font-size="11.00" fill="#000000"> &#160;</text>
</a>
</g>
</g>
<!-- auth_entity_to_policy&#45;&gt;auth_entity -->
<g id="edge6" class="edge">
<title>auth_entity_to_policy:w&#45;&gt;auth_entity:e</title>
<path fill="none" stroke="#000000" d="M456.3427,-421.9408C424.1957,-432.7179 423.8964,-478.7 382,-478.7"/>
<polygon fill="#000000" stroke="#000000" points="463.0919,-420.9091 471.5441,-423.2587 467.0459,-420.3045 471,-419.7 471,-419.7 471,-419.7 467.0459,-420.3045 470.4559,-416.1413 463.0919,-420.9091 463.0919,-420.9091"/>
<ellipse fill="none" stroke="#000000" cx="459.9286" cy="-421.3927" rx="3.2" ry="3.2"/>
</g>
<!-- auth_entity_to_policy&#45;&gt;policy -->
<g id="edge7" class="edge">
<title>auth_entity_to_policy:w&#45;&gt;policy:e</title>
<path fill="none" stroke="#000000" d="M456.3859,-418.6788C356.5499,-403.3219 507.3044,-218.744 416,-136.7 372.8875,-97.9601 213.4609,-123.7 155.5,-123.7"/>
<polygon fill="#000000" stroke="#000000" points="463.0195,-419.1423 470.749,-423.2912 467.0097,-419.4212 471,-419.7 471,-419.7 471,-419.7 467.0097,-419.4212 471.251,-416.1088 463.0195,-419.1423 463.0195,-419.1423"/>
<ellipse fill="none" stroke="#000000" cx="459.8272" cy="-418.9192" rx="3.2" ry="3.2"/>
</g>
<!-- max_min_policy_count -->
<g id="node9" class="node">
<title>max_min_policy_count</title>
<g id="a_node9"><a xlink:href="../../tables/max_min_policy_count.html" xlink:title="max_min_policy_count" target="_top">
<polygon fill="#ffffff" stroke="transparent" points="254,-616.2 254,-743.2 408,-743.2 408,-616.2 254,-616.2"/>
<polygon fill="#f5f5f5" stroke="transparent" points="254,-719.7 254,-742.7 408,-742.7 408,-719.7 254,-719.7"/>
<polygon fill="none" stroke="#000000" points="254,-719.7 254,-742.7 408,-742.7 408,-719.7 254,-719.7"/>
<text text-anchor="start" x="258.5738" y="-728.8" font-family="Helvetica,sans-Serif" font-weight="bold" font-size="11.00" fill="#000000">max_min_policy_count</text>
<text text-anchor="start" x="373.5219" y="-727.8" font-family="Helvetica,sans-Serif" font-size="11.00" fill="#000000">[table]</text>
<polygon fill="none" stroke="#000000" points="254,-697.7 254,-719.7 408,-719.7 408,-697.7 254,-697.7"/>
<image xlink:href="../../images/primaryKeys.png" width="11px" height="12px" preserveAspectRatio="xMinYMin meet" x="259" y="-714.7"/>
<text text-anchor="start" x="275" y="-704.8" font-family="Helvetica,sans-Serif" font-size="11.00" fill="#000000">max_policy_count_id</text>
<polygon fill="none" stroke="#000000" points="254,-675.7 254,-697.7 408,-697.7 408,-675.7 254,-675.7"/>
<image xlink:href="../../images/foreignKeys.png" width="11px" height="12px" preserveAspectRatio="xMinYMin meet" x="259" y="-692.7"/>
<text text-anchor="start" x="275" y="-682.8" font-family="Helvetica,sans-Serif" font-size="11.00" fill="#000000">fk_place_id_max</text>
<polygon fill="none" stroke="#000000" points="254,-653.7 254,-675.7 408,-675.7 408,-653.7 254,-653.7"/>
<image xlink:href="../../images/foreignKeys.png" width="11px" height="12px" preserveAspectRatio="xMinYMin meet" x="259" y="-670.7"/>
<text text-anchor="start" x="275" y="-660.8" font-family="Helvetica,sans-Serif" font-size="11.00" fill="#000000">fk_place_id_min</text>
<polygon fill="none" stroke="#000000" points="254,-634.7 254,-653.7 408,-653.7 408,-634.7 254,-634.7"/>
<text text-anchor="start" x="257" y="-640.8" font-family="Helvetica,sans-Serif" font-size="11.00" fill="#000000">...</text>
<polygon fill="#ffffff" stroke="transparent" points="254,-615.7 254,-634.7 316,-634.7 316,-615.7 254,-615.7"/>
<polygon fill="none" stroke="#000000" points="254,-615.7 254,-634.7 316,-634.7 316,-615.7 254,-615.7"/>
<text text-anchor="start" x="257" y="-621.8" font-family="Helvetica,sans-Serif" font-size="11.00" fill="#000000">&lt; 2</text>
<polygon fill="#ffffff" stroke="transparent" points="316,-615.7 316,-634.7 375,-634.7 375,-615.7 316,-615.7"/>
<polygon fill="none" stroke="#000000" points="316,-615.7 316,-634.7 375,-634.7 375,-615.7 316,-615.7"/>
<text text-anchor="start" x="339.6105" y="-621.8" font-family="Helvetica,sans-Serif" font-size="11.00" fill="#000000">4 rows</text>
<polygon fill="#ffffff" stroke="transparent" points="375,-615.7 375,-634.7 408,-634.7 408,-615.7 375,-615.7"/>
<polygon fill="none" stroke="#000000" points="375,-615.7 375,-634.7 408,-634.7 408,-615.7 375,-615.7"/>
<text text-anchor="start" x="398.8862" y="-621.8" font-family="Helvetica,sans-Serif" font-size="11.00" fill="#000000"> &#160;</text>
</a>
</g>
</g>
<!-- max_min_policy_count&#45;&gt;place -->
<g id="edge8" class="edge">
<title>max_min_policy_count:w&#45;&gt;place:e</title>
<path fill="none" stroke="#000000" d="M239.5637,-684.8486C165.36,-663.0818 302.6382,-456.7 203.5,-456.7"/>
<polygon fill="#000000" stroke="#000000" points="246.065,-685.6823 253.542,-690.2708 250.0325,-686.1912 254,-686.7 254,-686.7 254,-686.7 250.0325,-686.1912 254.458,-683.1292 246.065,-685.6823 246.065,-685.6823"/>
<ellipse fill="none" stroke="#000000" cx="242.891" cy="-685.2753" rx="3.2" ry="3.2"/>
</g>
<!-- max_min_policy_count&#45;&gt;place -->
<g id="edge9" class="edge">
<title>max_min_policy_count:w&#45;&gt;place:e</title>
<path fill="none" stroke="#000000" d="M239.6027,-662.6414C174.4416,-641.0391 293.056,-456.7 203.5,-456.7"/>
<polygon fill="#000000" stroke="#000000" points="246.0805,-663.5676 253.4904,-668.2638 250.0403,-664.1338 254,-664.7 254,-664.7 254,-664.7 250.0403,-664.1338 254.5096,-661.1362 246.0805,-663.5676 246.0805,-663.5676"/>
<ellipse fill="none" stroke="#000000" cx="242.9128" cy="-663.1146" rx="3.2" ry="3.2"/>
</g>
<!-- observation -->
<g id="node10" class="node">
<title>observation</title>
<g id="a_node10"><a xlink:href="../../tables/observation.html" xlink:title="observation" target="_top">
<polygon fill="#ffffff" stroke="transparent" points="281.5,-282.2 281.5,-387.2 380.5,-387.2 380.5,-282.2 281.5,-282.2"/>
<polygon fill="#f5f5f5" stroke="transparent" points="282,-363.7 282,-386.7 381,-386.7 381,-363.7 282,-363.7"/>
<polygon fill="none" stroke="#000000" points="282,-363.7 282,-386.7 381,-386.7 381,-363.7 282,-363.7"/>
<text text-anchor="start" x="286.5755" y="-372.8" font-family="Helvetica,sans-Serif" font-weight="bold" font-size="11.00" fill="#000000">observation</text>
<text text-anchor="start" x="346.5219" y="-371.8" font-family="Helvetica,sans-Serif" font-size="11.00" fill="#000000">[table]</text>
<polygon fill="none" stroke="#000000" points="282,-341.7 282,-363.7 381,-363.7 381,-341.7 282,-341.7"/>
<image xlink:href="../../images/primaryKeys.png" width="11px" height="12px" preserveAspectRatio="xMinYMin meet" x="287" y="-358.7"/>
<text text-anchor="start" x="307" y="-348.8" font-family="Helvetica,sans-Serif" font-size="11.00" fill="#000000">id</text>
<polygon fill="#ffffff" stroke="transparent" points="282,-319.7 282,-341.7 381,-341.7 381,-319.7 282,-319.7"/>
<polygon fill="none" stroke="#000000" points="282,-319.7 282,-341.7 381,-341.7 381,-319.7 282,-319.7"/>
<image xlink:href="../../images/foreignKeys.png" width="11px" height="12px" preserveAspectRatio="xMinYMin meet" x="287" y="-336.7"/>
<text text-anchor="start" x="307" y="-326.8" font-family="Helvetica,sans-Serif" font-size="11.00" fill="#000000">place</text>
<polygon fill="none" stroke="#000000" points="282,-300.7 282,-319.7 381,-319.7 381,-300.7 282,-300.7"/>
<text text-anchor="start" x="285" y="-306.8" font-family="Helvetica,sans-Serif" font-size="11.00" fill="#000000">...</text>
<polygon fill="#ffffff" stroke="transparent" points="282,-281.7 282,-300.7 303,-300.7 303,-281.7 282,-281.7"/>
<polygon fill="none" stroke="#000000" points="282,-281.7 282,-300.7 303,-300.7 303,-281.7 282,-281.7"/>
<text text-anchor="start" x="284.7027" y="-287.8" font-family="Helvetica,sans-Serif" font-size="11.00" fill="#000000">&lt; 1</text>
<polygon fill="#ffffff" stroke="transparent" points="303,-281.7 303,-300.7 368,-300.7 368,-281.7 303,-281.7"/>
<polygon fill="none" stroke="#000000" points="303,-281.7 303,-300.7 368,-300.7 368,-281.7 303,-281.7"/>
<text text-anchor="start" x="305.547" y="-287.8" font-family="Helvetica,sans-Serif" font-size="11.00" fill="#000000">62,656 rows</text>
<polygon fill="#ffffff" stroke="transparent" points="368,-281.7 368,-300.7 381,-300.7 381,-281.7 368,-281.7"/>
<polygon fill="none" stroke="#000000" points="368,-281.7 368,-300.7 381,-300.7 381,-281.7 368,-281.7"/>
<text text-anchor="start" x="371.8862" y="-287.8" font-family="Helvetica,sans-Serif" font-size="11.00" fill="#000000"> &#160;</text>
</a>
</g>
</g>
<!-- observation&#45;&gt;place -->
<g id="edge10" class="edge">
<title>observation:w&#45;&gt;place:e</title>
<path fill="none" stroke="#000000" d="M267.7622,-333.2169C224.1578,-350.9753 263.9378,-456.7 203.5,-456.7"/>
<polygon fill="#000000" stroke="#000000" points="274.1221,-332.0927 282.6267,-334.245 278.0611,-331.3963 282,-330.7 282,-330.7 282,-330.7 278.0611,-331.3963 281.3733,-327.155 274.1221,-332.0927 274.1221,-332.0927"/>
<ellipse fill="none" stroke="#000000" cx="270.971" cy="-332.6497" rx="3.2" ry="3.2"/>
</g>
<!-- place_policy_number -->
<g id="node11" class="node">
<title>place_policy_number</title>
<g id="a_node11"><a xlink:href="../../tables/place_policy_number.html" xlink:title="place_policy_number" target="_top">
<polygon fill="#ffffff" stroke="transparent" points="471,-665.7 471,-751.7 617,-751.7 617,-665.7 471,-665.7"/>
<polygon fill="#f5f5f5" stroke="transparent" points="471,-728.7 471,-751.7 617,-751.7 617,-728.7 471,-728.7"/>
<polygon fill="none" stroke="#000000" points="471,-728.7 471,-751.7 617,-751.7 617,-728.7 471,-728.7"/>
<text text-anchor="start" x="475.5448" y="-737.8" font-family="Helvetica,sans-Serif" font-weight="bold" font-size="11.00" fill="#000000">place_policy_number</text>
<text text-anchor="start" x="582.5219" y="-736.8" font-family="Helvetica,sans-Serif" font-size="11.00" fill="#000000">[table]</text>
<polygon fill="none" stroke="#000000" points="471,-706.7 471,-728.7 617,-728.7 617,-706.7 471,-706.7"/>
<image xlink:href="../../images/primaryKeys.png" width="11px" height="12px" preserveAspectRatio="xMinYMin meet" x="476" y="-723.7"/>
<text text-anchor="start" x="493" y="-713.8" font-family="Helvetica,sans-Serif" font-size="11.00" fill="#000000">place</text>
<polygon fill="none" stroke="#000000" points="471,-684.7 471,-706.7 617,-706.7 617,-684.7 471,-684.7"/>
<image xlink:href="../../images/primaryKeys.png" width="11px" height="12px" preserveAspectRatio="xMinYMin meet" x="476" y="-701.7"/>
<text text-anchor="start" x="493" y="-691.8" font-family="Helvetica,sans-Serif" font-size="11.00" fill="#000000">policy_number</text>
<polygon fill="#ffffff" stroke="transparent" points="471,-665.7 471,-684.7 516,-684.7 516,-665.7 471,-665.7"/>
<polygon fill="none" stroke="#000000" points="471,-665.7 471,-684.7 516,-684.7 516,-665.7 471,-665.7"/>
<text text-anchor="start" x="474" y="-671.8" font-family="Helvetica,sans-Serif" font-size="11.00" fill="#000000">&lt; 2</text>
<polygon fill="#ffffff" stroke="transparent" points="516,-665.7 516,-684.7 593,-684.7 593,-665.7 516,-665.7"/>
<polygon fill="none" stroke="#000000" points="516,-665.7 516,-684.7 593,-684.7 593,-665.7 516,-665.7"/>
<text text-anchor="start" x="530.094" y="-671.8" font-family="Helvetica,sans-Serif" font-size="11.00" fill="#000000">32,150 rows</text>
<polygon fill="#ffffff" stroke="transparent" points="593,-665.7 593,-684.7 617,-684.7 617,-665.7 593,-665.7"/>
<polygon fill="none" stroke="#000000" points="593,-665.7 593,-684.7 617,-684.7 617,-665.7 593,-665.7"/>
<text text-anchor="start" x="607.8862" y="-671.8" font-family="Helvetica,sans-Serif" font-size="11.00" fill="#000000"> &#160;</text>
</a>
</g>
</g>
<!-- place_policy_number&#45;&gt;place -->
<g id="edge11" class="edge">
<title>place_policy_number:w&#45;&gt;place:e</title>
<path fill="none" stroke="#000000" d="M456.5705,-720.7292C441.4371,-728.1371 438.3102,-747.0476 416,-753.7 343.5946,-775.2895 303.0846,-803.1974 246,-753.7 195.627,-710.0221 270.1723,-456.7 203.5,-456.7"/>
<polygon fill="#000000" stroke="#000000" points="463.1707,-719.3437 471.7396,-721.2232 467.0853,-718.5218 471,-717.7 471,-717.7 471,-717.7 467.0853,-718.5218 470.2604,-714.1768 463.1707,-719.3437 463.1707,-719.3437"/>
<ellipse fill="none" stroke="#000000" cx="460.0389" cy="-720.0011" rx="3.2" ry="3.2"/>
</g>
<!-- place_policy_number&#45;&gt;policy_number -->
<g id="edge12" class="edge">
<title>place_policy_number:w&#45;&gt;policy_number:e</title>
<path fill="none" stroke="#000000" d="M456.7881,-693.3742C409.0925,-675.5804 452.5816,-561.7 388,-561.7"/>
<polygon fill="#000000" stroke="#000000" points="463.105,-694.4079 470.4186,-699.2527 467.0525,-695.054 471,-695.7 471,-695.7 471,-695.7 467.0525,-695.054 471.5814,-692.1473 463.105,-694.4079 463.105,-694.4079"/>
<ellipse fill="none" stroke="#000000" cx="459.947" cy="-693.8911" rx="3.2" ry="3.2"/>
</g>
<!-- place_to_plan -->
<g id="node12" class="node">
<title>place_to_plan</title>
<g id="a_node12"><a xlink:href="../../tables/place_to_plan.html" xlink:title="place_to_plan" target="_top">
<polygon fill="#ffffff" stroke="transparent" points="488.5,-94.7 488.5,-180.7 599.5,-180.7 599.5,-94.7 488.5,-94.7"/>
<polygon fill="#f5f5f5" stroke="transparent" points="489,-157.7 489,-180.7 600,-180.7 600,-157.7 489,-157.7"/>
<polygon fill="none" stroke="#000000" points="489,-157.7 489,-180.7 600,-180.7 600,-157.7 489,-157.7"/>
<text text-anchor="start" x="493.7636" y="-166.8" font-family="Helvetica,sans-Serif" font-weight="bold" font-size="11.00" fill="#000000">place_to_plan</text>
<text text-anchor="start" x="565.5219" y="-165.8" font-family="Helvetica,sans-Serif" font-size="11.00" fill="#000000">[table]</text>
<polygon fill="none" stroke="#000000" points="489,-135.7 489,-157.7 600,-157.7 600,-135.7 489,-135.7"/>
<image xlink:href="../../images/primaryKeys.png" width="11px" height="12px" preserveAspectRatio="xMinYMin meet" x="494" y="-152.7"/>
<text text-anchor="start" x="514" y="-142.8" font-family="Helvetica,sans-Serif" font-size="11.00" fill="#000000">place</text>
<polygon fill="none" stroke="#000000" points="489,-113.7 489,-135.7 600,-135.7 600,-113.7 489,-113.7"/>
<image xlink:href="../../images/primaryKeys.png" width="11px" height="12px" preserveAspectRatio="xMinYMin meet" x="494" y="-130.7"/>
<text text-anchor="start" x="514" y="-120.8" font-family="Helvetica,sans-Serif" font-size="11.00" fill="#000000">plan</text>
<polygon fill="#ffffff" stroke="transparent" points="489,-94.7 489,-113.7 524,-113.7 524,-94.7 489,-94.7"/>
<polygon fill="none" stroke="#000000" points="489,-94.7 489,-113.7 524,-113.7 524,-94.7 489,-94.7"/>
<text text-anchor="start" x="492" y="-100.8" font-family="Helvetica,sans-Serif" font-size="11.00" fill="#000000">&lt; 2</text>
<polygon fill="#ffffff" stroke="transparent" points="524,-94.7 524,-113.7 581,-113.7 581,-94.7 524,-94.7"/>
<polygon fill="none" stroke="#000000" points="524,-94.7 524,-113.7 581,-113.7 581,-94.7 524,-94.7"/>
<text text-anchor="start" x="533.3807" y="-100.8" font-family="Helvetica,sans-Serif" font-size="11.00" fill="#000000">493 rows</text>
<polygon fill="#ffffff" stroke="transparent" points="581,-94.7 581,-113.7 600,-113.7 600,-94.7 581,-94.7"/>
<polygon fill="none" stroke="#000000" points="581,-94.7 581,-113.7 600,-113.7 600,-94.7 581,-94.7"/>
<text text-anchor="start" x="590.8862" y="-100.8" font-family="Helvetica,sans-Serif" font-size="11.00" fill="#000000"> &#160;</text>
</a>
</g>
</g>
<!-- place_to_plan&#45;&gt;place -->
<g id="edge13" class="edge">
<title>place_to_plan:w&#45;&gt;place:e</title>
<path fill="none" stroke="#000000" d="M474.3716,-148.9012C439.7228,-160.9774 457.5691,-219.5535 416,-244.7 350.5425,-284.2974 301.911,-219.4832 246,-271.7 184.3435,-329.2827 287.864,-456.7 203.5,-456.7"/>
<polygon fill="#000000" stroke="#000000" points="481.0891,-147.8905 489.5357,-150.2599 485.0445,-147.2952 489,-146.7 489,-146.7 489,-146.7 485.0445,-147.2952 488.4643,-143.1401 481.0891,-147.8905 481.0891,-147.8905"/>
<ellipse fill="none" stroke="#000000" cx="477.9247" cy="-148.3667" rx="3.2" ry="3.2"/>
</g>
<!-- place_to_plan&#45;&gt;plan -->
<g id="edge14" class="edge">
<title>place_to_plan:w&#45;&gt;plan:e</title>
<path fill="none" stroke="#000000" d="M474.58,-123.2416C432.337,-114.1561 427.9876,-65.7 377,-65.7"/>
<polygon fill="#000000" stroke="#000000" points="481.0406,-123.8949 488.6377,-128.2817 485.0203,-124.2975 489,-124.7 489,-124.7 489,-124.7 485.0203,-124.2975 489.3623,-121.1183 481.0406,-123.8949 481.0406,-123.8949"/>
<ellipse fill="none" stroke="#000000" cx="477.8568" cy="-123.5729" rx="3.2" ry="3.2"/>
</g>
<!-- place_to_policy -->
<g id="node13" class="node">
<title>place_to_policy</title>
<g id="a_node13"><a xlink:href="../../tables/place_to_policy.html" xlink:title="place_to_policy" target="_top">
<polygon fill="#ffffff" stroke="transparent" points="272,-147.7 272,-233.7 390,-233.7 390,-147.7 272,-147.7"/>
<polygon fill="#f5f5f5" stroke="transparent" points="272,-210.7 272,-233.7 390,-233.7 390,-210.7 272,-210.7"/>
<polygon fill="none" stroke="#000000" points="272,-210.7 272,-233.7 390,-233.7 390,-210.7 272,-210.7"/>
<text text-anchor="start" x="276.6006" y="-219.8" font-family="Helvetica,sans-Serif" font-weight="bold" font-size="11.00" fill="#000000">place_to_policy</text>
<text text-anchor="start" x="355.5219" y="-218.8" font-family="Helvetica,sans-Serif" font-size="11.00" fill="#000000">[table]</text>
<polygon fill="none" stroke="#000000" points="272,-188.7 272,-210.7 390,-210.7 390,-188.7 272,-188.7"/>
<image xlink:href="../../images/primaryKeys.png" width="11px" height="12px" preserveAspectRatio="xMinYMin meet" x="277" y="-205.7"/>
<text text-anchor="start" x="296" y="-195.8" font-family="Helvetica,sans-Serif" font-size="11.00" fill="#000000">place</text>
<polygon fill="none" stroke="#000000" points="272,-166.7 272,-188.7 390,-188.7 390,-166.7 272,-166.7"/>
<image xlink:href="../../images/primaryKeys.png" width="11px" height="12px" preserveAspectRatio="xMinYMin meet" x="277" y="-183.7"/>
<text text-anchor="start" x="296" y="-173.8" font-family="Helvetica,sans-Serif" font-size="11.00" fill="#000000">policy</text>
<polygon fill="#ffffff" stroke="transparent" points="272,-147.7 272,-166.7 299,-166.7 299,-147.7 272,-147.7"/>
<polygon fill="none" stroke="#000000" points="272,-147.7 272,-166.7 299,-166.7 299,-147.7 272,-147.7"/>
<text text-anchor="start" x="275" y="-153.8" font-family="Helvetica,sans-Serif" font-size="11.00" fill="#000000">&lt; 2</text>
<polygon fill="#ffffff" stroke="transparent" points="299,-147.7 299,-166.7 374,-166.7 374,-147.7 299,-147.7"/>
<polygon fill="none" stroke="#000000" points="299,-147.7 299,-166.7 374,-166.7 374,-147.7 299,-147.7"/>
<text text-anchor="start" x="304.9791" y="-153.8" font-family="Helvetica,sans-Serif" font-size="11.00" fill="#000000">994,786 rows</text>
<polygon fill="#ffffff" stroke="transparent" points="374,-147.7 374,-166.7 390,-166.7 390,-147.7 374,-147.7"/>
<polygon fill="none" stroke="#000000" points="374,-147.7 374,-166.7 390,-166.7 390,-147.7 374,-147.7"/>
<text text-anchor="start" x="380.8862" y="-153.8" font-family="Helvetica,sans-Serif" font-size="11.00" fill="#000000"> &#160;</text>
</a>
</g>
</g>
<!-- place_to_policy&#45;&gt;place -->
<g id="edge15" class="edge">
<title>place_to_policy:w&#45;&gt;place:e</title>
<path fill="none" stroke="#000000" d="M258.5466,-205.5507C220.949,-243.8052 257.2947,-456.7 203.5,-456.7"/>
<polygon fill="#000000" stroke="#000000" points="264.6637,-202.8905 273.4357,-203.0013 268.3319,-201.2952 272,-199.7 272,-199.7 272,-199.7 268.3319,-201.2952 270.5643,-196.3987 264.6637,-202.8905 264.6637,-202.8905"/>
<ellipse fill="none" stroke="#000000" cx="261.7292" cy="-204.1667" rx="3.2" ry="3.2"/>
</g>
<!-- place_to_policy&#45;&gt;policy -->
<g id="edge16" class="edge">
<title>place_to_policy:w&#45;&gt;policy:e</title>
<path fill="none" stroke="#000000" d="M257.582,-176.4184C214.036,-168.241 207.3308,-123.7 155.5,-123.7"/>
<polygon fill="#000000" stroke="#000000" points="264.0314,-176.9916 271.6812,-181.2859 268.0157,-177.3458 272,-177.7 272,-177.7 272,-177.7 268.0157,-177.3458 272.3188,-174.1141 264.0314,-176.9916 264.0314,-176.9916"/>
<ellipse fill="none" stroke="#000000" cx="260.844" cy="-176.7083" rx="3.2" ry="3.2"/>
</g>
</g>
</svg>
