<?xml version="1.0" encoding="UTF-8" standalone="no"?>
<!DOCTYPE svg PUBLIC "-//W3C//DTD SVG 1.1//EN"
 "http://www.w3.org/Graphics/SVG/1.1/DTD/svg11.dtd">
<!-- Generated by graphviz version 2.40.1 (20161225.0304)
 -->
<!-- Title: oneDegreeRelationshipsDiagram Pages: 1 -->
<svg width="764pt" height="773pt"
 viewBox="0.00 0.00 764.00 773.20" xmlns="http://www.w3.org/2000/svg" xmlns:xlink="http://www.w3.org/1999/xlink">
<g id="graph0" class="graph" transform="scale(1 1) rotate(0) translate(4 769.2)">
<title>oneDegreeRelationshipsDiagram</title>
<polygon fill="#ffffff" stroke="transparent" points="-4,4 -4,-769.2 760,-769.2 760,4 -4,4"/>
<text text-anchor="middle" x="72.4936" y="-7.3" font-family="Helvetica,sans-Serif" font-size="11.00" fill="#000000">Generated by SchemaSpy</text>
<!-- auth_entity_to_plan -->
<g id="node1" class="node">
<title>auth_entity_to_plan</title>
<g id="a_node1"><a xlink:href="../../tables/auth_entity_to_plan.html" xlink:title="auth_entity_to_plan" target="_top">
<polygon fill="#ffffff" stroke="transparent" points="610,-675.2 610,-761.2 748,-761.2 748,-675.2 610,-675.2"/>
<polygon fill="#f5f5f5" stroke="transparent" points="610,-738.2 610,-761.2 748,-761.2 748,-738.2 610,-738.2"/>
<polygon fill="none" stroke="#000000" points="610,-738.2 610,-761.2 748,-761.2 748,-738.2 610,-738.2"/>
<text text-anchor="start" x="614.5059" y="-747.3" font-family="Helvetica,sans-Serif" font-weight="bold" font-size="11.00" fill="#000000">auth_entity_to_plan</text>
<text text-anchor="start" x="713.5219" y="-746.3" font-family="Helvetica,sans-Serif" font-size="11.00" fill="#000000">[table]</text>
<polygon fill="none" stroke="#000000" points="610,-716.2 610,-738.2 748,-738.2 748,-716.2 610,-716.2"/>
<image xlink:href="../../images/primaryKeys.png" width="11px" height="12px" preserveAspectRatio="xMinYMin meet" x="615" y="-733.2"/>
<text text-anchor="start" x="632" y="-723.3" font-family="Helvetica,sans-Serif" font-size="11.00" fill="#000000">auth_entity</text>
<polygon fill="none" stroke="#000000" points="610,-694.2 610,-716.2 748,-716.2 748,-694.2 610,-694.2"/>
<image xlink:href="../../images/primaryKeys.png" width="11px" height="12px" preserveAspectRatio="xMinYMin meet" x="615" y="-711.2"/>
<text text-anchor="start" x="632" y="-701.3" font-family="Helvetica,sans-Serif" font-size="11.00" fill="#000000">plan</text>
<polygon fill="#ffffff" stroke="transparent" points="610,-675.2 610,-694.2 658,-694.2 658,-675.2 610,-675.2"/>
<polygon fill="none" stroke="#000000" points="610,-675.2 610,-694.2 658,-694.2 658,-675.2 610,-675.2"/>
<text text-anchor="start" x="613" y="-681.3" font-family="Helvetica,sans-Serif" font-size="11.00" fill="#000000">&lt; 2</text>
<polygon fill="#ffffff" stroke="transparent" points="658,-675.2 658,-694.2 722,-694.2 722,-675.2 658,-675.2"/>
<polygon fill="none" stroke="#000000" points="658,-675.2 658,-694.2 722,-694.2 722,-675.2 658,-675.2"/>
<text text-anchor="start" x="674.3807" y="-681.3" font-family="Helvetica,sans-Serif" font-size="11.00" fill="#000000">493 rows</text>
<polygon fill="#ffffff" stroke="transparent" points="722,-675.2 722,-694.2 748,-694.2 748,-675.2 722,-675.2"/>
<polygon fill="none" stroke="#000000" points="722,-675.2 722,-694.2 748,-694.2 748,-675.2 722,-675.2"/>
<text text-anchor="start" x="738.8862" y="-681.3" font-family="Helvetica,sans-Serif" font-size="11.00" fill="#000000"> &#160;</text>
</a>
</g>
</g>
<!-- plan -->
<g id="node2" class="node">
<title>plan</title>
<g id="a_node2"><a xlink:href="../../tables/plan.html" xlink:title="plan" target="_top">
<polygon fill="#ffffff" stroke="transparent" points="277,-38.2 277,-634.2 561,-634.2 561,-38.2 277,-38.2"/>
<polygon fill="#f5f5f5" stroke="transparent" points="279,-609.2 279,-632.2 559,-632.2 559,-609.2 279,-609.2"/>
<polygon fill="none" stroke="#000000" points="279,-609.2 279,-632.2 559,-632.2 559,-609.2 279,-609.2"/>
<text text-anchor="start" x="284" y="-618.3" font-family="Helvetica,sans-Serif" font-weight="bold" font-size="11.00" fill="#000000">plan</text>
<text text-anchor="start" x="524.0437" y="-617.3" font-family="Helvetica,sans-Serif" font-size="11.00" fill="#000000">[table]</text>
<polygon fill="none" stroke="#000000" points="279,-587.2 279,-609.2 462,-609.2 462,-587.2 279,-587.2"/>
<image xlink:href="../../images/primaryKeys.png" width="11px" height="12px" preserveAspectRatio="xMinYMin meet" x="284" y="-604.2"/>
<text text-anchor="start" x="299" y="-594.3" font-family="Helvetica,sans-Serif" font-size="11.00" fill="#000000">id</text>
<polygon fill="none" stroke="#000000" points="462,-587.2 462,-609.2 559,-609.2 559,-587.2 462,-587.2"/>
<text text-anchor="start" x="465" y="-594.9" font-family="Helvetica,sans-Serif" font-size="11.00" fill="#000000">serial[10]</text>
<polygon fill="none" stroke="#000000" points="279,-565.2 279,-587.2 462,-587.2 462,-565.2 279,-565.2"/>
<text text-anchor="start" x="299" y="-572.3" font-family="Helvetica,sans-Serif" font-size="11.00" fill="#000000">source_id</text>
<polygon fill="none" stroke="#000000" points="462,-565.2 462,-587.2 559,-587.2 559,-565.2 462,-565.2"/>
<text text-anchor="start" x="465" y="-572.9" font-family="Helvetica,sans-Serif" font-size="11.00" fill="#000000">text[2147483647]</text>
<polygon fill="none" stroke="#000000" points="279,-543.2 279,-565.2 462,-565.2 462,-543.2 279,-543.2"/>
<text text-anchor="start" x="299" y="-550.3" font-family="Helvetica,sans-Serif" font-size="11.00" fill="#000000">desc</text>
<polygon fill="none" stroke="#000000" points="462,-543.2 462,-565.2 559,-565.2 559,-543.2 462,-543.2"/>
<text text-anchor="start" x="465" y="-550.9" font-family="Helvetica,sans-Serif" font-size="11.00" fill="#000000">text[2147483647]</text>
<polygon fill="none" stroke="#000000" points="279,-521.2 279,-543.2 462,-543.2 462,-521.2 279,-521.2"/>
<text text-anchor="start" x="299" y="-528.3" font-family="Helvetica,sans-Serif" font-size="11.00" fill="#000000">org_name</text>
<polygon fill="none" stroke="#000000" points="462,-521.2 462,-543.2 559,-543.2 559,-521.2 462,-521.2"/>
<text text-anchor="start" x="465" y="-528.9" font-family="Helvetica,sans-Serif" font-size="11.00" fill="#000000">text[2147483647]</text>
<polygon fill="none" stroke="#000000" points="279,-499.2 279,-521.2 462,-521.2 462,-499.2 279,-499.2"/>
<text text-anchor="start" x="299" y="-506.3" font-family="Helvetica,sans-Serif" font-size="11.00" fill="#000000">org_type</text>
<polygon fill="none" stroke="#000000" points="462,-499.2 462,-521.2 559,-521.2 559,-499.2 462,-499.2"/>
<text text-anchor="start" x="465" y="-506.9" font-family="Helvetica,sans-Serif" font-size="11.00" fill="#000000">text[2147483647]</text>
<polygon fill="none" stroke="#000000" points="279,-477.2 279,-499.2 462,-499.2 462,-477.2 279,-477.2"/>
<text text-anchor="start" x="299" y="-484.3" font-family="Helvetica,sans-Serif" font-size="11.00" fill="#000000">name</text>
<polygon fill="none" stroke="#000000" points="462,-477.2 462,-499.2 559,-499.2 559,-477.2 462,-477.2"/>
<text text-anchor="start" x="465" y="-484.9" font-family="Helvetica,sans-Serif" font-size="11.00" fill="#000000">text[2147483647]</text>
<polygon fill="none" stroke="#000000" points="279,-455.2 279,-477.2 462,-477.2 462,-455.2 279,-455.2"/>
<text text-anchor="start" x="299" y="-462.3" font-family="Helvetica,sans-Serif" font-size="11.00" fill="#000000">date_issued</text>
<polygon fill="none" stroke="#000000" points="462,-455.2 462,-477.2 559,-477.2 559,-455.2 462,-455.2"/>
<text text-anchor="start" x="465" y="-462.9" font-family="Helvetica,sans-Serif" font-size="11.00" fill="#000000">date[13]</text>
<polygon fill="none" stroke="#000000" points="279,-433.2 279,-455.2 462,-455.2 462,-433.2 279,-433.2"/>
<text text-anchor="start" x="299" y="-440.3" font-family="Helvetica,sans-Serif" font-size="11.00" fill="#000000">date_start_effective</text>
<polygon fill="none" stroke="#000000" points="462,-433.2 462,-455.2 559,-455.2 559,-433.2 462,-433.2"/>
<text text-anchor="start" x="465" y="-440.9" font-family="Helvetica,sans-Serif" font-size="11.00" fill="#000000">date[13]</text>
<polygon fill="none" stroke="#000000" points="279,-411.2 279,-433.2 462,-433.2 462,-411.2 279,-411.2"/>
<text text-anchor="start" x="299" y="-418.3" font-family="Helvetica,sans-Serif" font-size="11.00" fill="#000000">date_end_effective</text>
<polygon fill="none" stroke="#000000" points="462,-411.2 462,-433.2 559,-433.2 559,-411.2 462,-411.2"/>
<text text-anchor="start" x="465" y="-418.9" font-family="Helvetica,sans-Serif" font-size="11.00" fill="#000000">date[13]</text>
<polygon fill="none" stroke="#000000" points="279,-389.2 279,-411.2 462,-411.2 462,-389.2 279,-389.2"/>
<text text-anchor="start" x="299" y="-396.3" font-family="Helvetica,sans-Serif" font-size="11.00" fill="#000000">n_phases</text>
<polygon fill="none" stroke="#000000" points="462,-389.2 462,-411.2 559,-411.2 559,-389.2 462,-389.2"/>
<text text-anchor="start" x="465" y="-396.9" font-family="Helvetica,sans-Serif" font-size="11.00" fill="#000000">int4[10]</text>
<polygon fill="none" stroke="#000000" points="279,-367.2 279,-389.2 462,-389.2 462,-367.2 279,-367.2"/>
<text text-anchor="start" x="299" y="-374.3" font-family="Helvetica,sans-Serif" font-size="11.00" fill="#000000">auth_entity_has_authority</text>
<polygon fill="none" stroke="#000000" points="462,-367.2 462,-389.2 559,-389.2 559,-367.2 462,-367.2"/>
<text text-anchor="start" x="465" y="-374.9" font-family="Helvetica,sans-Serif" font-size="11.00" fill="#000000">text[2147483647]</text>
<polygon fill="none" stroke="#000000" points="279,-345.2 279,-367.2 462,-367.2 462,-345.2 279,-345.2"/>
<text text-anchor="start" x="299" y="-352.3" font-family="Helvetica,sans-Serif" font-size="11.00" fill="#000000">reqs_essential</text>
<polygon fill="none" stroke="#000000" points="462,-345.2 462,-367.2 559,-367.2 559,-345.2 462,-345.2"/>
<text text-anchor="start" x="464.9468" y="-352.9" font-family="Helvetica,sans-Serif" font-size="11.00" fill="#000000">_text[2147483647]</text>
<polygon fill="none" stroke="#000000" points="279,-323.2 279,-345.2 462,-345.2 462,-323.2 279,-323.2"/>
<text text-anchor="start" x="299" y="-330.3" font-family="Helvetica,sans-Serif" font-size="11.00" fill="#000000">reqs_private</text>
<polygon fill="none" stroke="#000000" points="462,-323.2 462,-345.2 559,-345.2 559,-323.2 462,-323.2"/>
<text text-anchor="start" x="464.9468" y="-330.9" font-family="Helvetica,sans-Serif" font-size="11.00" fill="#000000">_text[2147483647]</text>
<polygon fill="none" stroke="#000000" points="279,-301.2 279,-323.2 462,-323.2 462,-301.2 279,-301.2"/>
<text text-anchor="start" x="299" y="-308.3" font-family="Helvetica,sans-Serif" font-size="11.00" fill="#000000">reqs_school</text>
<polygon fill="none" stroke="#000000" points="462,-301.2 462,-323.2 559,-323.2 559,-301.2 462,-301.2"/>
<text text-anchor="start" x="464.9468" y="-308.9" font-family="Helvetica,sans-Serif" font-size="11.00" fill="#000000">_text[2147483647]</text>
<polygon fill="none" stroke="#000000" points="279,-279.2 279,-301.2 462,-301.2 462,-279.2 279,-279.2"/>
<text text-anchor="start" x="299" y="-286.3" font-family="Helvetica,sans-Serif" font-size="11.00" fill="#000000">reqs_social</text>
<polygon fill="none" stroke="#000000" points="462,-279.2 462,-301.2 559,-301.2 559,-279.2 462,-279.2"/>
<text text-anchor="start" x="464.9468" y="-286.9" font-family="Helvetica,sans-Serif" font-size="11.00" fill="#000000">_text[2147483647]</text>
<polygon fill="none" stroke="#000000" points="279,-257.2 279,-279.2 462,-279.2 462,-257.2 279,-257.2"/>
<text text-anchor="start" x="299" y="-264.3" font-family="Helvetica,sans-Serif" font-size="11.00" fill="#000000">reqs_hospital</text>
<polygon fill="none" stroke="#000000" points="462,-257.2 462,-279.2 559,-279.2 559,-257.2 462,-257.2"/>
<text text-anchor="start" x="464.9468" y="-264.9" font-family="Helvetica,sans-Serif" font-size="11.00" fill="#000000">_text[2147483647]</text>
<polygon fill="none" stroke="#000000" points="279,-235.2 279,-257.2 462,-257.2 462,-235.2 279,-235.2"/>
<text text-anchor="start" x="299" y="-242.3" font-family="Helvetica,sans-Serif" font-size="11.00" fill="#000000">reqs_other</text>
<polygon fill="none" stroke="#000000" points="462,-235.2 462,-257.2 559,-257.2 559,-235.2 462,-235.2"/>
<text text-anchor="start" x="464.9468" y="-242.9" font-family="Helvetica,sans-Serif" font-size="11.00" fill="#000000">_text[2147483647]</text>
<polygon fill="none" stroke="#000000" points="279,-213.2 279,-235.2 462,-235.2 462,-213.2 279,-213.2"/>
<text text-anchor="start" x="299" y="-220.3" font-family="Helvetica,sans-Serif" font-size="11.00" fill="#000000">plan_data_source</text>
<polygon fill="none" stroke="#000000" points="462,-213.2 462,-235.2 559,-235.2 559,-213.2 462,-213.2"/>
<text text-anchor="start" x="465" y="-220.9" font-family="Helvetica,sans-Serif" font-size="11.00" fill="#000000">text[2147483647]</text>
<polygon fill="none" stroke="#000000" points="279,-191.2 279,-213.2 462,-213.2 462,-191.2 279,-191.2"/>
<text text-anchor="start" x="299" y="-198.3" font-family="Helvetica,sans-Serif" font-size="11.00" fill="#000000">announcement_data_source</text>
<polygon fill="none" stroke="#000000" points="462,-191.2 462,-213.2 559,-213.2 559,-191.2 462,-191.2"/>
<text text-anchor="start" x="465" y="-198.9" font-family="Helvetica,sans-Serif" font-size="11.00" fill="#000000">text[2147483647]</text>
<polygon fill="#ffffff" stroke="transparent" points="279,-169.2 279,-191.2 462,-191.2 462,-169.2 279,-169.2"/>
<polygon fill="none" stroke="#000000" points="279,-169.2 279,-191.2 462,-191.2 462,-169.2 279,-169.2"/>
<image xlink:href="../../images/foreignKeys.png" width="11px" height="12px" preserveAspectRatio="xMinYMin meet" x="284" y="-186.2"/>
<text text-anchor="start" x="299" y="-176.3" font-family="Helvetica,sans-Serif" font-size="11.00" fill="#000000">policy</text>
<polygon fill="none" stroke="#000000" points="462,-169.2 462,-191.2 559,-191.2 559,-169.2 462,-169.2"/>
<text text-anchor="start" x="465" y="-176.9" font-family="Helvetica,sans-Serif" font-size="11.00" fill="#000000">int4[10]</text>
<polygon fill="none" stroke="#000000" points="279,-147.2 279,-169.2 462,-169.2 462,-147.2 279,-147.2"/>
<text text-anchor="start" x="299" y="-154.3" font-family="Helvetica,sans-Serif" font-size="11.00" fill="#000000">primary_loc</text>
<polygon fill="none" stroke="#000000" points="462,-147.2 462,-169.2 559,-169.2 559,-147.2 462,-147.2"/>
<text text-anchor="start" x="465" y="-154.9" font-family="Helvetica,sans-Serif" font-size="11.00" fill="#000000">text[2147483647]</text>
<polygon fill="none" stroke="#000000" points="279,-125.2 279,-147.2 462,-147.2 462,-125.2 279,-125.2"/>
<text text-anchor="start" x="299" y="-132.3" font-family="Helvetica,sans-Serif" font-size="11.00" fill="#000000">residential</text>
<polygon fill="none" stroke="#000000" points="462,-125.2 462,-147.2 559,-147.2 559,-125.2 462,-125.2"/>
<text text-anchor="start" x="465" y="-132.9" font-family="Helvetica,sans-Serif" font-size="11.00" fill="#000000">bool[1]</text>
<polygon fill="none" stroke="#000000" points="279,-103.2 279,-125.2 462,-125.2 462,-103.2 279,-103.2"/>
<text text-anchor="start" x="299" y="-110.3" font-family="Helvetica,sans-Serif" font-size="11.00" fill="#000000">reqs_public</text>
<polygon fill="none" stroke="#000000" points="462,-103.2 462,-125.2 559,-125.2 559,-103.2 462,-103.2"/>
<text text-anchor="start" x="464.9468" y="-110.9" font-family="Helvetica,sans-Serif" font-size="11.00" fill="#000000">_text[2147483647]</text>
<polygon fill="none" stroke="#000000" points="279,-81.2 279,-103.2 462,-103.2 462,-81.2 279,-81.2"/>
<text text-anchor="start" x="299" y="-88.3" font-family="Helvetica,sans-Serif" font-size="11.00" fill="#000000">search_text</text>
<polygon fill="none" stroke="#000000" points="462,-81.2 462,-103.2 559,-103.2 559,-81.2 462,-81.2"/>
<text text-anchor="start" x="465" y="-88.9" font-family="Helvetica,sans-Serif" font-size="11.00" fill="#000000">text[2147483647]</text>
<polygon fill="none" stroke="#000000" points="279,-59.2 279,-81.2 462,-81.2 462,-59.2 279,-59.2"/>
<text text-anchor="start" x="299" y="-66.3" font-family="Helvetica,sans-Serif" font-size="11.00" fill="#000000">name_and_desc</text>
<polygon fill="none" stroke="#000000" points="462,-59.2 462,-81.2 559,-81.2 559,-59.2 462,-59.2"/>
<text text-anchor="start" x="465" y="-66.9" font-family="Helvetica,sans-Serif" font-size="11.00" fill="#000000">text[2147483647]</text>
<polygon fill="#ffffff" stroke="transparent" points="279,-40.2 279,-59.2 356,-59.2 356,-40.2 279,-40.2"/>
<polygon fill="none" stroke="#000000" points="279,-40.2 279,-59.2 356,-59.2 356,-40.2 279,-40.2"/>
<text text-anchor="start" x="282" y="-46.3" font-family="Helvetica,sans-Serif" font-size="11.00" fill="#000000">&lt; 1</text>
<polygon fill="#ffffff" stroke="transparent" points="356,-40.2 356,-59.2 462,-59.2 462,-40.2 356,-40.2"/>
<polygon fill="none" stroke="#000000" points="356,-40.2 356,-59.2 462,-59.2 462,-40.2 356,-40.2"/>
<text text-anchor="start" x="414.3807" y="-46.3" font-family="Helvetica,sans-Serif" font-size="11.00" fill="#000000">493 rows</text>
<polygon fill="#ffffff" stroke="transparent" points="462,-40.2 462,-59.2 559,-59.2 559,-40.2 462,-40.2"/>
<polygon fill="none" stroke="#000000" points="462,-40.2 462,-59.2 559,-59.2 559,-40.2 462,-40.2"/>
<text text-anchor="start" x="540.4053" y="-46.3" font-family="Helvetica,sans-Serif" font-size="11.00" fill="#000000">3 &gt;</text>
<polygon fill="none" stroke="#000000" stroke-width="2" points="278,-39.2 278,-633.2 560,-633.2 560,-39.2 278,-39.2"/>
</a>
</g>
</g>
<!-- auth_entity_to_plan&#45;&gt;plan -->
<g id="edge1" class="edge">
<title>auth_entity_to_plan:w&#45;&gt;plan:e</title>
<path fill="none" stroke="#000000" d="M595.9064,-701.3918C568.2616,-682.3309 605.7134,-598.2 559,-598.2"/>
<polygon fill="#000000" stroke="#000000" points="602.277,-703.1131 609.0609,-708.6754 606.1385,-704.1566 610,-705.2 610,-705.2 610,-705.2 606.1385,-704.1566 610.9391,-701.7246 602.277,-703.1131 602.277,-703.1131"/>
<ellipse fill="none" stroke="#000000" cx="599.1878" cy="-702.2784" rx="3.2" ry="3.2"/>
</g>
<!-- policy -->
<g id="node5" class="node">
<title>policy</title>
<g id="a_node5"><a xlink:href="../../tables/policy.html" xlink:title="policy" target="_top">
<polygon fill="#ffffff" stroke="transparent" points="8,-87.7 8,-214.7 228,-214.7 228,-87.7 8,-87.7"/>
<polygon fill="#f5f5f5" stroke="transparent" points="8,-191.2 8,-214.2 228,-214.2 228,-191.2 8,-191.2"/>
<polygon fill="none" stroke="#000000" points="8,-191.2 8,-214.2 228,-214.2 228,-191.2 8,-191.2"/>
<text text-anchor="start" x="13" y="-200.3" font-family="Helvetica,sans-Serif" font-weight="bold" font-size="11.00" fill="#000000">policy</text>
<text text-anchor="start" x="193.0437" y="-199.3" font-family="Helvetica,sans-Serif" font-size="11.00" fill="#000000">[table]</text>
<polygon fill="none" stroke="#000000" points="8,-169.2 8,-191.2 228,-191.2 228,-169.2 8,-169.2"/>
<image xlink:href="../../images/primaryKeys.png" width="11px" height="12px" preserveAspectRatio="xMinYMin meet" x="13" y="-186.2"/>
<text text-anchor="start" x="28" y="-176.3" font-family="Helvetica,sans-Serif" font-size="11.00" fill="#000000">id</text>
<polygon fill="#ffffff" stroke="transparent" points="8,-147.2 8,-169.2 228,-169.2 228,-147.2 8,-147.2"/>
<polygon fill="none" stroke="#000000" points="8,-147.2 8,-169.2 228,-169.2 228,-147.2 8,-147.2"/>
<text text-anchor="start" x="28" y="-154.3" font-family="Helvetica,sans-Serif" font-size="11.00" fill="#000000">primary_ph_measure</text>
<polygon fill="#ffffff" stroke="transparent" points="8,-125.2 8,-147.2 228,-147.2 228,-125.2 8,-125.2"/>
<polygon fill="none" stroke="#000000" points="8,-125.2 8,-147.2 228,-147.2 228,-125.2 8,-125.2"/>
<text text-anchor="start" x="28" y="-132.3" font-family="Helvetica,sans-Serif" font-size="11.00" fill="#000000">group_number</text>
<polygon fill="none" stroke="#000000" points="8,-106.2 8,-125.2 228,-125.2 228,-106.2 8,-106.2"/>
<text text-anchor="start" x="11" y="-112.3" font-family="Helvetica,sans-Serif" font-size="11.00" fill="#000000">...</text>
<polygon fill="#ffffff" stroke="transparent" points="8,-87.2 8,-106.2 81,-106.2 81,-87.2 8,-87.2"/>
<polygon fill="none" stroke="#000000" points="8,-87.2 8,-106.2 81,-106.2 81,-87.2 8,-87.2"/>
<text text-anchor="start" x="11" y="-93.3" font-family="Helvetica,sans-Serif" font-size="11.00" fill="#000000"> &#160;</text>
<polygon fill="#ffffff" stroke="transparent" points="81,-87.2 81,-106.2 176,-106.2 176,-87.2 81,-87.2"/>
<polygon fill="none" stroke="#000000" points="81,-87.2 81,-106.2 176,-106.2 176,-87.2 81,-87.2"/>
<text text-anchor="start" x="113.094" y="-93.3" font-family="Helvetica,sans-Serif" font-size="11.00" fill="#000000">40,812 rows</text>
<polygon fill="#ffffff" stroke="transparent" points="176,-87.2 176,-106.2 228,-106.2 228,-87.2 176,-87.2"/>
<polygon fill="none" stroke="#000000" points="176,-87.2 176,-106.2 228,-106.2 228,-87.2 176,-87.2"/>
<text text-anchor="start" x="209.4053" y="-93.3" font-family="Helvetica,sans-Serif" font-size="11.00" fill="#000000">8 &gt;</text>
</a>
</g>
</g>
<!-- plan&#45;&gt;policy -->
<g id="edge4" class="edge">
<title>plan:w&#45;&gt;policy:e</title>
<path fill="none" stroke="#000000" d="M264.276,-180.2C252.2815,-180.2 244.8229,-180.2 228,-180.2"/>
<polygon fill="#000000" stroke="#000000" points="271,-180.2001 279,-183.8 275,-180.2 279,-180.2 279,-180.2 279,-180.2 275,-180.2 279,-176.6 271,-180.2001 271,-180.2001"/>
<ellipse fill="none" stroke="#000000" cx="267.8" cy="-180.2001" rx="3.2" ry="3.2"/>
</g>
<!-- file_to_plan -->
<g id="node3" class="node">
<title>file_to_plan</title>
<g id="a_node3"><a xlink:href="../../tables/file_to_plan.html" xlink:title="file_to_plan" target="_top">
<polygon fill="#ffffff" stroke="transparent" points="629.5,-568.2 629.5,-654.2 728.5,-654.2 728.5,-568.2 629.5,-568.2"/>
<polygon fill="#f5f5f5" stroke="transparent" points="630,-631.2 630,-654.2 729,-654.2 729,-631.2 630,-631.2"/>
<polygon fill="none" stroke="#000000" points="630,-631.2 630,-654.2 729,-654.2 729,-631.2 630,-631.2"/>
<text text-anchor="start" x="634.8796" y="-640.3" font-family="Helvetica,sans-Serif" font-weight="bold" font-size="11.00" fill="#000000">file_to_plan</text>
<text text-anchor="start" x="694.5219" y="-639.3" font-family="Helvetica,sans-Serif" font-size="11.00" fill="#000000">[table]</text>
<polygon fill="none" stroke="#000000" points="630,-609.2 630,-631.2 729,-631.2 729,-609.2 630,-609.2"/>
<image xlink:href="../../images/primaryKeys.png" width="11px" height="12px" preserveAspectRatio="xMinYMin meet" x="635" y="-626.2"/>
<text text-anchor="start" x="656" y="-616.3" font-family="Helvetica,sans-Serif" font-size="11.00" fill="#000000">file</text>
<polygon fill="none" stroke="#000000" points="630,-587.2 630,-609.2 729,-609.2 729,-587.2 630,-587.2"/>
<image xlink:href="../../images/primaryKeys.png" width="11px" height="12px" preserveAspectRatio="xMinYMin meet" x="635" y="-604.2"/>
<text text-anchor="start" x="656" y="-594.3" font-family="Helvetica,sans-Serif" font-size="11.00" fill="#000000">plan</text>
<polygon fill="#ffffff" stroke="transparent" points="630,-568.2 630,-587.2 659,-587.2 659,-568.2 630,-568.2"/>
<polygon fill="none" stroke="#000000" points="630,-568.2 630,-587.2 659,-587.2 659,-568.2 630,-568.2"/>
<text text-anchor="start" x="633" y="-574.3" font-family="Helvetica,sans-Serif" font-size="11.00" fill="#000000">&lt; 2</text>
<polygon fill="#ffffff" stroke="transparent" points="659,-568.2 659,-587.2 713,-587.2 713,-568.2 659,-568.2"/>
<polygon fill="none" stroke="#000000" points="659,-568.2 659,-587.2 713,-587.2 713,-568.2 659,-568.2"/>
<text text-anchor="start" x="665.3807" y="-574.3" font-family="Helvetica,sans-Serif" font-size="11.00" fill="#000000">567 rows</text>
<polygon fill="#ffffff" stroke="transparent" points="713,-568.2 713,-587.2 729,-587.2 729,-568.2 713,-568.2"/>
<polygon fill="none" stroke="#000000" points="713,-568.2 713,-587.2 729,-587.2 729,-568.2 713,-568.2"/>
<text text-anchor="start" x="719.8862" y="-574.3" font-family="Helvetica,sans-Serif" font-size="11.00" fill="#000000"> &#160;</text>
</a>
</g>
</g>
<!-- file_to_plan&#45;&gt;plan -->
<g id="edge2" class="edge">
<title>file_to_plan:w&#45;&gt;plan:e</title>
<path fill="none" stroke="#000000" d="M615.5863,-598.2C595.0335,-598.2 585.1319,-598.2 559,-598.2"/>
<polygon fill="#000000" stroke="#000000" points="622,-598.2001 630,-601.8 626,-598.2 630,-598.2 630,-598.2 630,-598.2 626,-598.2 630,-594.6 622,-598.2001 622,-598.2001"/>
<ellipse fill="none" stroke="#000000" cx="618.8" cy="-598.2001" rx="3.2" ry="3.2"/>
</g>
<!-- place_to_plan -->
<g id="node4" class="node">
<title>place_to_plan</title>
<g id="a_node4"><a xlink:href="../../tables/place_to_plan.html" xlink:title="place_to_plan" target="_top">
<polygon fill="#ffffff" stroke="transparent" points="623.5,-461.2 623.5,-547.2 734.5,-547.2 734.5,-461.2 623.5,-461.2"/>
<polygon fill="#f5f5f5" stroke="transparent" points="624,-524.2 624,-547.2 735,-547.2 735,-524.2 624,-524.2"/>
<polygon fill="none" stroke="#000000" points="624,-524.2 624,-547.2 735,-547.2 735,-524.2 624,-524.2"/>
<text text-anchor="start" x="628.7636" y="-533.3" font-family="Helvetica,sans-Serif" font-weight="bold" font-size="11.00" fill="#000000">place_to_plan</text>
<text text-anchor="start" x="700.5219" y="-532.3" font-family="Helvetica,sans-Serif" font-size="11.00" fill="#000000">[table]</text>
<polygon fill="none" stroke="#000000" points="624,-502.2 624,-524.2 735,-524.2 735,-502.2 624,-502.2"/>
<image xlink:href="../../images/primaryKeys.png" width="11px" height="12px" preserveAspectRatio="xMinYMin meet" x="629" y="-519.2"/>
<text text-anchor="start" x="649" y="-509.3" font-family="Helvetica,sans-Serif" font-size="11.00" fill="#000000">place</text>
<polygon fill="none" stroke="#000000" points="624,-480.2 624,-502.2 735,-502.2 735,-480.2 624,-480.2"/>
<image xlink:href="../../images/primaryKeys.png" width="11px" height="12px" preserveAspectRatio="xMinYMin meet" x="629" y="-497.2"/>
<text text-anchor="start" x="649" y="-487.3" font-family="Helvetica,sans-Serif" font-size="11.00" fill="#000000">plan</text>
<polygon fill="#ffffff" stroke="transparent" points="624,-461.2 624,-480.2 659,-480.2 659,-461.2 624,-461.2"/>
<polygon fill="none" stroke="#000000" points="624,-461.2 624,-480.2 659,-480.2 659,-461.2 624,-461.2"/>
<text text-anchor="start" x="627" y="-467.3" font-family="Helvetica,sans-Serif" font-size="11.00" fill="#000000">&lt; 2</text>
<polygon fill="#ffffff" stroke="transparent" points="659,-461.2 659,-480.2 716,-480.2 716,-461.2 659,-461.2"/>
<polygon fill="none" stroke="#000000" points="659,-461.2 659,-480.2 716,-480.2 716,-461.2 659,-461.2"/>
<text text-anchor="start" x="668.3807" y="-467.3" font-family="Helvetica,sans-Serif" font-size="11.00" fill="#000000">493 rows</text>
<polygon fill="#ffffff" stroke="transparent" points="716,-461.2 716,-480.2 735,-480.2 735,-461.2 716,-461.2"/>
<polygon fill="none" stroke="#000000" points="716,-461.2 716,-480.2 735,-480.2 735,-461.2 716,-461.2"/>
<text text-anchor="start" x="725.8862" y="-467.3" font-family="Helvetica,sans-Serif" font-size="11.00" fill="#000000"> &#160;</text>
</a>
</g>
</g>
<!-- place_to_plan&#45;&gt;plan -->
<g id="edge3" class="edge">
<title>place_to_plan:w&#45;&gt;plan:e</title>
<path fill="none" stroke="#000000" d="M609.5566,-494.5196C576.9869,-512.5801 608.774,-598.2 559,-598.2"/>
<polygon fill="#000000" stroke="#000000" points="616.2033,-492.992 624.8064,-494.7085 620.1016,-492.096 624,-491.2 624,-491.2 624,-491.2 620.1016,-492.096 623.1936,-487.6915 616.2033,-492.992 616.2033,-492.992"/>
<ellipse fill="none" stroke="#000000" cx="613.0846" cy="-493.7088" rx="3.2" ry="3.2"/>
</g>
</g>
</svg>
