<?xml version="1.0" encoding="UTF-8" standalone="no"?>
<!DOCTYPE svg PUBLIC "-//W3C//DTD SVG 1.1//EN"
 "http://www.w3.org/Graphics/SVG/1.1/DTD/svg11.dtd">
<!-- Generated by graphviz version 2.40.1 (20161225.0304)
 -->
<!-- Title: oneDegreeRelationshipsDiagram Pages: 1 -->
<svg width="488pt" height="190pt"
 viewBox="0.00 0.00 488.00 189.70" xmlns="http://www.w3.org/2000/svg" xmlns:xlink="http://www.w3.org/1999/xlink">
<g id="graph0" class="graph" transform="scale(1 1) rotate(0) translate(4 185.7)">
<title>oneDegreeRelationshipsDiagram</title>
<polygon fill="#ffffff" stroke="transparent" points="-4,4 -4,-185.7 484,-185.7 484,4 -4,4"/>
<text text-anchor="middle" x="72.4936" y="-7.3" font-family="Helvetica,sans-Serif" font-size="11.00" fill="#000000">Generated by SchemaSpy</text>
<!-- policy_to_prior_policy -->
<g id="node1" class="node">
<title>policy_to_prior_policy</title>
<g id="a_node1"><a xlink:href="../../tables/policy_to_prior_policy.html" xlink:title="policy_to_prior_policy" target="_top">
<polygon fill="#ffffff" stroke="transparent" points="277,-87.7 277,-177.7 472,-177.7 472,-87.7 277,-87.7"/>
<polygon fill="#f5f5f5" stroke="transparent" points="279.5,-152.7 279.5,-175.7 470.5,-175.7 470.5,-152.7 279.5,-152.7"/>
<polygon fill="none" stroke="#000000" points="279.5,-152.7 279.5,-175.7 470.5,-175.7 470.5,-152.7 279.5,-152.7"/>
<text text-anchor="start" x="284.5" y="-161.8" font-family="Helvetica,sans-Serif" font-weight="bold" font-size="11.00" fill="#000000">policy_to_prior_policy</text>
<text text-anchor="start" x="435.5437" y="-160.8" font-family="Helvetica,sans-Serif" font-size="11.00" fill="#000000">[table]</text>
<polygon fill="none" stroke="#000000" points="279.5,-130.7 279.5,-152.7 428.5,-152.7 428.5,-130.7 279.5,-130.7"/>
<image xlink:href="../../images/primaryKeys.png" width="11px" height="12px" preserveAspectRatio="xMinYMin meet" x="284.5" y="-147.7"/>
<text text-anchor="start" x="299.5" y="-137.8" font-family="Helvetica,sans-Serif" font-size="11.00" fill="#000000">policy</text>
<polygon fill="none" stroke="#000000" points="428.5,-130.7 428.5,-152.7 470.5,-152.7 470.5,-130.7 428.5,-130.7"/>
<text text-anchor="start" x="431.4644" y="-138.4" font-family="Helvetica,sans-Serif" font-size="11.00" fill="#000000">int4[10]</text>
<polygon fill="none" stroke="#000000" points="279.5,-108.7 279.5,-130.7 428.5,-130.7 428.5,-108.7 279.5,-108.7"/>
<image xlink:href="../../images/primaryKeys.png" width="11px" height="12px" preserveAspectRatio="xMinYMin meet" x="284.5" y="-125.7"/>
<text text-anchor="start" x="299.5" y="-115.8" font-family="Helvetica,sans-Serif" font-size="11.00" fill="#000000">policy_2</text>
<polygon fill="none" stroke="#000000" points="428.5,-108.7 428.5,-130.7 470.5,-130.7 470.5,-108.7 428.5,-108.7"/>
<text text-anchor="start" x="431.4644" y="-116.4" font-family="Helvetica,sans-Serif" font-size="11.00" fill="#000000">int4[10]</text>
<polygon fill="#ffffff" stroke="transparent" points="279.5,-89.7 279.5,-108.7 331.5,-108.7 331.5,-89.7 279.5,-89.7"/>
<polygon fill="none" stroke="#000000" points="279.5,-89.7 279.5,-108.7 331.5,-108.7 331.5,-89.7 279.5,-89.7"/>
<text text-anchor="start" x="282.5" y="-95.8" font-family="Helvetica,sans-Serif" font-size="11.00" fill="#000000">&lt; 2</text>
<polygon fill="#ffffff" stroke="transparent" points="331.5,-89.7 331.5,-108.7 428.5,-108.7 428.5,-89.7 331.5,-89.7"/>
<polygon fill="none" stroke="#000000" points="331.5,-89.7 331.5,-108.7 428.5,-108.7 428.5,-89.7 331.5,-89.7"/>
<text text-anchor="start" x="365.594" y="-95.8" font-family="Helvetica,sans-Serif" font-size="11.00" fill="#000000">35,976 rows</text>
<polygon fill="#ffffff" stroke="transparent" points="428.5,-89.7 428.5,-108.7 470.5,-108.7 470.5,-89.7 428.5,-89.7"/>
<polygon fill="none" stroke="#000000" points="428.5,-89.7 428.5,-108.7 470.5,-108.7 470.5,-89.7 428.5,-89.7"/>
<text text-anchor="start" x="451.9053" y="-95.8" font-family="Helvetica,sans-Serif" font-size="11.00" fill="#000000">0 &gt;</text>
<polygon fill="none" stroke="#000000" stroke-width="2" points="278,-88.7 278,-176.7 471,-176.7 471,-88.7 278,-88.7"/>
</a>
</g>
</g>
<!-- policy -->
<g id="node2" class="node">
<title>policy</title>
<g id="a_node2"><a xlink:href="../../tables/policy.html" xlink:title="policy" target="_top">
<polygon fill="#ffffff" stroke="transparent" points="8,-38.2 8,-165.2 228,-165.2 228,-38.2 8,-38.2"/>
<polygon fill="#f5f5f5" stroke="transparent" points="8,-141.7 8,-164.7 228,-164.7 228,-141.7 8,-141.7"/>
<polygon fill="none" stroke="#000000" points="8,-141.7 8,-164.7 228,-164.7 228,-141.7 8,-141.7"/>
<text text-anchor="start" x="13" y="-150.8" font-family="Helvetica,sans-Serif" font-weight="bold" font-size="11.00" fill="#000000">policy</text>
<text text-anchor="start" x="193.0437" y="-149.8" font-family="Helvetica,sans-Serif" font-size="11.00" fill="#000000">[table]</text>
<polygon fill="none" stroke="#000000" points="8,-119.7 8,-141.7 228,-141.7 228,-119.7 8,-119.7"/>
<image xlink:href="../../images/primaryKeys.png" width="11px" height="12px" preserveAspectRatio="xMinYMin meet" x="13" y="-136.7"/>
<text text-anchor="start" x="28" y="-126.8" font-family="Helvetica,sans-Serif" font-size="11.00" fill="#000000">id</text>
<polygon fill="#ffffff" stroke="transparent" points="8,-97.7 8,-119.7 228,-119.7 228,-97.7 8,-97.7"/>
<polygon fill="none" stroke="#000000" points="8,-97.7 8,-119.7 228,-119.7 228,-97.7 8,-97.7"/>
<text text-anchor="start" x="28" y="-104.8" font-family="Helvetica,sans-Serif" font-size="11.00" fill="#000000">primary_ph_measure</text>
<polygon fill="#ffffff" stroke="transparent" points="8,-75.7 8,-97.7 228,-97.7 228,-75.7 8,-75.7"/>
<polygon fill="none" stroke="#000000" points="8,-75.7 8,-97.7 228,-97.7 228,-75.7 8,-75.7"/>
<text text-anchor="start" x="28" y="-82.8" font-family="Helvetica,sans-Serif" font-size="11.00" fill="#000000">group_number</text>
<polygon fill="none" stroke="#000000" points="8,-56.7 8,-75.7 228,-75.7 228,-56.7 8,-56.7"/>
<text text-anchor="start" x="11" y="-62.8" font-family="Helvetica,sans-Serif" font-size="11.00" fill="#000000">...</text>
<polygon fill="#ffffff" stroke="transparent" points="8,-37.7 8,-56.7 81,-56.7 81,-37.7 8,-37.7"/>
<polygon fill="none" stroke="#000000" points="8,-37.7 8,-56.7 81,-56.7 81,-37.7 8,-37.7"/>
<text text-anchor="start" x="11" y="-43.8" font-family="Helvetica,sans-Serif" font-size="11.00" fill="#000000"> &#160;</text>
<polygon fill="#ffffff" stroke="transparent" points="81,-37.7 81,-56.7 176,-56.7 176,-37.7 81,-37.7"/>
<polygon fill="none" stroke="#000000" points="81,-37.7 81,-56.7 176,-56.7 176,-37.7 81,-37.7"/>
<text text-anchor="start" x="113.094" y="-43.8" font-family="Helvetica,sans-Serif" font-size="11.00" fill="#000000">40,812 rows</text>
<polygon fill="#ffffff" stroke="transparent" points="176,-37.7 176,-56.7 228,-56.7 228,-37.7 176,-37.7"/>
<polygon fill="none" stroke="#000000" points="176,-37.7 176,-56.7 228,-56.7 228,-37.7 176,-37.7"/>
<text text-anchor="start" x="209.4053" y="-43.8" font-family="Helvetica,sans-Serif" font-size="11.00" fill="#000000">8 &gt;</text>
</a>
</g>
</g>
<!-- policy_to_prior_policy&#45;&gt;policy -->
<g id="edge1" class="edge">
<title>policy_to_prior_policy:w&#45;&gt;policy:e</title>
<path fill="none" stroke="#000000" d="M264.8704,-139.9813C252.5803,-136.8875 245.5539,-130.7 228,-130.7"/>
<polygon fill="#000000" stroke="#000000" points="271.5546,-140.7665 279.0799,-145.2754 275.5273,-141.2332 279.5,-141.7 279.5,-141.7 279.5,-141.7 275.5273,-141.2332 279.9201,-138.1246 271.5546,-140.7665 271.5546,-140.7665"/>
<ellipse fill="none" stroke="#000000" cx="268.3765" cy="-140.3931" rx="3.2" ry="3.2"/>
</g>
<!-- policy_to_prior_policy&#45;&gt;policy -->
<g id="edge2" class="edge">
<title>policy_to_prior_policy:w&#45;&gt;policy:e</title>
<path fill="none" stroke="#000000" d="M264.8704,-121.4188C252.5803,-124.5125 245.5539,-130.7 228,-130.7"/>
<polygon fill="#000000" stroke="#000000" points="271.5546,-120.6335 279.9201,-123.2754 275.5273,-120.1668 279.5,-119.7 279.5,-119.7 279.5,-119.7 275.5273,-120.1668 279.0799,-116.1246 271.5546,-120.6335 271.5546,-120.6335"/>
<ellipse fill="none" stroke="#000000" cx="268.3765" cy="-121.0069" rx="3.2" ry="3.2"/>
</g>
</g>
</svg>
