<?xml version="1.0" encoding="UTF-8" standalone="no"?>
<!DOCTYPE svg PUBLIC "-//W3C//DTD SVG 1.1//EN"
 "http://www.w3.org/Graphics/SVG/1.1/DTD/svg11.dtd">
<!-- Generated by graphviz version 2.40.1 (20161225.0304)
 -->
<!-- Title: oneDegreeRelationshipsDiagram Pages: 1 -->
<svg width="583pt" height="1029pt"
 viewBox="0.00 0.00 583.00 1029.20" xmlns="http://www.w3.org/2000/svg" xmlns:xlink="http://www.w3.org/1999/xlink">
<g id="graph0" class="graph" transform="scale(1 1) rotate(0) translate(4 1025.2)">
<title>oneDegreeRelationshipsDiagram</title>
<polygon fill="#ffffff" stroke="transparent" points="-4,4 -4,-1025.2 579,-1025.2 579,4 -4,4"/>
<text text-anchor="middle" x="72.4936" y="-7.3" font-family="Helvetica,sans-Serif" font-size="11.00" fill="#000000">Generated by SchemaSpy</text>
<!-- auth_entity_to_policy -->
<g id="node1" class="node">
<title>auth_entity_to_policy</title>
<g id="a_node1"><a xlink:href="../../tables/auth_entity_to_policy.html" xlink:title="auth_entity_to_policy" target="_top">
<polygon fill="#ffffff" stroke="transparent" points="399.5,-931.2 399.5,-1017.2 545.5,-1017.2 545.5,-931.2 399.5,-931.2"/>
<polygon fill="#f5f5f5" stroke="transparent" points="399.5,-994.2 399.5,-1017.2 545.5,-1017.2 545.5,-994.2 399.5,-994.2"/>
<polygon fill="none" stroke="#000000" points="399.5,-994.2 399.5,-1017.2 545.5,-1017.2 545.5,-994.2 399.5,-994.2"/>
<text text-anchor="start" x="404.3429" y="-1003.3" font-family="Helvetica,sans-Serif" font-weight="bold" font-size="11.00" fill="#000000">auth_entity_to_policy</text>
<text text-anchor="start" x="511.0219" y="-1002.3" font-family="Helvetica,sans-Serif" font-size="11.00" fill="#000000">[table]</text>
<polygon fill="none" stroke="#000000" points="399.5,-972.2 399.5,-994.2 545.5,-994.2 545.5,-972.2 399.5,-972.2"/>
<image xlink:href="../../images/primaryKeys.png" width="11px" height="12px" preserveAspectRatio="xMinYMin meet" x="404.5" y="-989.2"/>
<text text-anchor="start" x="420.5" y="-979.3" font-family="Helvetica,sans-Serif" font-size="11.00" fill="#000000">auth_entity</text>
<polygon fill="none" stroke="#000000" points="399.5,-950.2 399.5,-972.2 545.5,-972.2 545.5,-950.2 399.5,-950.2"/>
<image xlink:href="../../images/primaryKeys.png" width="11px" height="12px" preserveAspectRatio="xMinYMin meet" x="404.5" y="-967.2"/>
<text text-anchor="start" x="420.5" y="-957.3" font-family="Helvetica,sans-Serif" font-size="11.00" fill="#000000">policy</text>
<polygon fill="#ffffff" stroke="transparent" points="399.5,-931.2 399.5,-950.2 444.5,-950.2 444.5,-931.2 399.5,-931.2"/>
<polygon fill="none" stroke="#000000" points="399.5,-931.2 399.5,-950.2 444.5,-950.2 444.5,-931.2 399.5,-931.2"/>
<text text-anchor="start" x="402.5" y="-937.3" font-family="Helvetica,sans-Serif" font-size="11.00" fill="#000000">&lt; 2</text>
<polygon fill="#ffffff" stroke="transparent" points="444.5,-931.2 444.5,-950.2 521.5,-950.2 521.5,-931.2 444.5,-931.2"/>
<polygon fill="none" stroke="#000000" points="444.5,-931.2 444.5,-950.2 521.5,-950.2 521.5,-931.2 444.5,-931.2"/>
<text text-anchor="start" x="458.594" y="-937.3" font-family="Helvetica,sans-Serif" font-size="11.00" fill="#000000">41,978 rows</text>
<polygon fill="#ffffff" stroke="transparent" points="521.5,-931.2 521.5,-950.2 545.5,-950.2 545.5,-931.2 521.5,-931.2"/>
<polygon fill="none" stroke="#000000" points="521.5,-931.2 521.5,-950.2 545.5,-950.2 545.5,-931.2 521.5,-931.2"/>
<text text-anchor="start" x="536.3862" y="-937.3" font-family="Helvetica,sans-Serif" font-size="11.00" fill="#000000"> &#160;</text>
</a>
</g>
</g>
<!-- policy -->
<g id="node2" class="node">
<title>policy</title>
<g id="a_node2"><a xlink:href="../../tables/policy.html" xlink:title="policy" target="_top">
<polygon fill="#ffffff" stroke="transparent" points="8,-38.2 8,-612.2 329,-612.2 329,-38.2 8,-38.2"/>
<polygon fill="#f5f5f5" stroke="transparent" points="10.5,-587.2 10.5,-610.2 327.5,-610.2 327.5,-587.2 10.5,-587.2"/>
<polygon fill="none" stroke="#000000" points="10.5,-587.2 10.5,-610.2 327.5,-610.2 327.5,-587.2 10.5,-587.2"/>
<text text-anchor="start" x="15.5" y="-596.3" font-family="Helvetica,sans-Serif" font-weight="bold" font-size="11.00" fill="#000000">policy</text>
<text text-anchor="start" x="292.5437" y="-595.3" font-family="Helvetica,sans-Serif" font-size="11.00" fill="#000000">[table]</text>
<polygon fill="none" stroke="#000000" points="10.5,-565.2 10.5,-587.2 230.5,-587.2 230.5,-565.2 10.5,-565.2"/>
<image xlink:href="../../images/primaryKeys.png" width="11px" height="12px" preserveAspectRatio="xMinYMin meet" x="15.5" y="-582.2"/>
<text text-anchor="start" x="30.5" y="-572.3" font-family="Helvetica,sans-Serif" font-size="11.00" fill="#000000">id</text>
<polygon fill="none" stroke="#000000" points="230.5,-565.2 230.5,-587.2 327.5,-587.2 327.5,-565.2 230.5,-565.2"/>
<text text-anchor="start" x="233.5" y="-572.9" font-family="Helvetica,sans-Serif" font-size="11.00" fill="#000000">serial[10]</text>
<polygon fill="none" stroke="#000000" points="10.5,-543.2 10.5,-565.2 230.5,-565.2 230.5,-543.2 10.5,-543.2"/>
<text text-anchor="start" x="30.5" y="-550.3" font-family="Helvetica,sans-Serif" font-size="11.00" fill="#000000">source_id</text>
<polygon fill="none" stroke="#000000" points="230.5,-543.2 230.5,-565.2 327.5,-565.2 327.5,-543.2 230.5,-543.2"/>
<text text-anchor="start" x="233.5" y="-550.9" font-family="Helvetica,sans-Serif" font-size="11.00" fill="#000000">text[2147483647]</text>
<polygon fill="none" stroke="#000000" points="10.5,-521.2 10.5,-543.2 230.5,-543.2 230.5,-521.2 10.5,-521.2"/>
<text text-anchor="start" x="30.5" y="-528.3" font-family="Helvetica,sans-Serif" font-size="11.00" fill="#000000">policy_name</text>
<polygon fill="none" stroke="#000000" points="230.5,-521.2 230.5,-543.2 327.5,-543.2 327.5,-521.2 230.5,-521.2"/>
<text text-anchor="start" x="233.5" y="-528.9" font-family="Helvetica,sans-Serif" font-size="11.00" fill="#000000">text[2147483647]</text>
<polygon fill="none" stroke="#000000" points="10.5,-499.2 10.5,-521.2 230.5,-521.2 230.5,-499.2 10.5,-499.2"/>
<text text-anchor="start" x="30.5" y="-506.3" font-family="Helvetica,sans-Serif" font-size="11.00" fill="#000000">desc</text>
<polygon fill="none" stroke="#000000" points="230.5,-499.2 230.5,-521.2 327.5,-521.2 327.5,-499.2 230.5,-499.2"/>
<text text-anchor="start" x="233.5" y="-506.9" font-family="Helvetica,sans-Serif" font-size="11.00" fill="#000000">text[2147483647]</text>
<polygon fill="#ffffff" stroke="transparent" points="10.5,-477.2 10.5,-499.2 230.5,-499.2 230.5,-477.2 10.5,-477.2"/>
<polygon fill="none" stroke="#000000" points="10.5,-477.2 10.5,-499.2 230.5,-499.2 230.5,-477.2 10.5,-477.2"/>
<text text-anchor="start" x="30.5" y="-484.3" font-family="Helvetica,sans-Serif" font-size="11.00" fill="#000000">primary_ph_measure</text>
<polygon fill="none" stroke="#000000" points="230.5,-477.2 230.5,-499.2 327.5,-499.2 327.5,-477.2 230.5,-477.2"/>
<text text-anchor="start" x="233.5" y="-484.9" font-family="Helvetica,sans-Serif" font-size="11.00" fill="#000000">text[2147483647]</text>
<polygon fill="none" stroke="#000000" points="10.5,-455.2 10.5,-477.2 230.5,-477.2 230.5,-455.2 10.5,-455.2"/>
<text text-anchor="start" x="30.5" y="-462.3" font-family="Helvetica,sans-Serif" font-size="11.00" fill="#000000">ph_measure_details</text>
<polygon fill="none" stroke="#000000" points="230.5,-455.2 230.5,-477.2 327.5,-477.2 327.5,-455.2 230.5,-455.2"/>
<text text-anchor="start" x="233.5" y="-462.9" font-family="Helvetica,sans-Serif" font-size="11.00" fill="#000000">text[2147483647]</text>
<polygon fill="none" stroke="#000000" points="10.5,-433.2 10.5,-455.2 230.5,-455.2 230.5,-433.2 10.5,-433.2"/>
<text text-anchor="start" x="30.5" y="-440.3" font-family="Helvetica,sans-Serif" font-size="11.00" fill="#000000">policy_type</text>
<polygon fill="none" stroke="#000000" points="230.5,-433.2 230.5,-455.2 327.5,-455.2 327.5,-433.2 230.5,-433.2"/>
<text text-anchor="start" x="233.5" y="-440.9" font-family="Helvetica,sans-Serif" font-size="11.00" fill="#000000">text[2147483647]</text>
<polygon fill="none" stroke="#000000" points="10.5,-411.2 10.5,-433.2 230.5,-433.2 230.5,-411.2 10.5,-411.2"/>
<text text-anchor="start" x="30.5" y="-418.3" font-family="Helvetica,sans-Serif" font-size="11.00" fill="#000000">primary_impact</text>
<polygon fill="none" stroke="#000000" points="230.5,-411.2 230.5,-433.2 327.5,-433.2 327.5,-411.2 230.5,-411.2"/>
<text text-anchor="start" x="233.4468" y="-418.9" font-family="Helvetica,sans-Serif" font-size="11.00" fill="#000000">_text[2147483647]</text>
<polygon fill="none" stroke="#000000" points="10.5,-389.2 10.5,-411.2 230.5,-411.2 230.5,-389.2 10.5,-389.2"/>
<text text-anchor="start" x="30.5" y="-396.3" font-family="Helvetica,sans-Serif" font-size="11.00" fill="#000000">intended_duration</text>
<polygon fill="none" stroke="#000000" points="230.5,-389.2 230.5,-411.2 327.5,-411.2 327.5,-389.2 230.5,-389.2"/>
<text text-anchor="start" x="233.5" y="-396.9" font-family="Helvetica,sans-Serif" font-size="11.00" fill="#000000">text[2147483647]</text>
<polygon fill="none" stroke="#000000" points="10.5,-367.2 10.5,-389.2 230.5,-389.2 230.5,-367.2 10.5,-367.2"/>
<text text-anchor="start" x="30.5" y="-374.3" font-family="Helvetica,sans-Serif" font-size="11.00" fill="#000000">announcement_data_source</text>
<polygon fill="none" stroke="#000000" points="230.5,-367.2 230.5,-389.2 327.5,-389.2 327.5,-367.2 230.5,-367.2"/>
<text text-anchor="start" x="233.5" y="-374.9" font-family="Helvetica,sans-Serif" font-size="11.00" fill="#000000">text[2147483647]</text>
<polygon fill="none" stroke="#000000" points="10.5,-345.2 10.5,-367.2 230.5,-367.2 230.5,-345.2 10.5,-345.2"/>
<text text-anchor="start" x="30.5" y="-352.3" font-family="Helvetica,sans-Serif" font-size="11.00" fill="#000000">policy_data_source</text>
<polygon fill="none" stroke="#000000" points="230.5,-345.2 230.5,-367.2 327.5,-367.2 327.5,-345.2 230.5,-345.2"/>
<text text-anchor="start" x="233.5" y="-352.9" font-family="Helvetica,sans-Serif" font-size="11.00" fill="#000000">text[2147483647]</text>
<polygon fill="none" stroke="#000000" points="10.5,-323.2 10.5,-345.2 230.5,-345.2 230.5,-323.2 10.5,-323.2"/>
<text text-anchor="start" x="30.5" y="-330.3" font-family="Helvetica,sans-Serif" font-size="11.00" fill="#000000">policy_number</text>
<polygon fill="none" stroke="#000000" points="230.5,-323.2 230.5,-345.2 327.5,-345.2 327.5,-323.2 230.5,-323.2"/>
<text text-anchor="start" x="233.5" y="-330.9" font-family="Helvetica,sans-Serif" font-size="11.00" fill="#000000">int4[10]</text>
<polygon fill="none" stroke="#000000" points="10.5,-301.2 10.5,-323.2 230.5,-323.2 230.5,-301.2 10.5,-301.2"/>
<text text-anchor="start" x="30.5" y="-308.3" font-family="Helvetica,sans-Serif" font-size="11.00" fill="#000000">relaxing_or_restricting</text>
<polygon fill="none" stroke="#000000" points="230.5,-301.2 230.5,-323.2 327.5,-323.2 327.5,-301.2 230.5,-301.2"/>
<text text-anchor="start" x="233.5" y="-308.9" font-family="Helvetica,sans-Serif" font-size="11.00" fill="#000000">text[2147483647]</text>
<polygon fill="none" stroke="#000000" points="10.5,-279.2 10.5,-301.2 230.5,-301.2 230.5,-279.2 10.5,-279.2"/>
<text text-anchor="start" x="30.5" y="-286.3" font-family="Helvetica,sans-Serif" font-size="11.00" fill="#000000">auth_entity_has_authority</text>
<polygon fill="none" stroke="#000000" points="230.5,-279.2 230.5,-301.2 327.5,-301.2 327.5,-279.2 230.5,-279.2"/>
<text text-anchor="start" x="233.5" y="-286.9" font-family="Helvetica,sans-Serif" font-size="11.00" fill="#000000">text[2147483647]</text>
<polygon fill="none" stroke="#000000" points="10.5,-257.2 10.5,-279.2 230.5,-279.2 230.5,-257.2 10.5,-257.2"/>
<text text-anchor="start" x="30.5" y="-264.3" font-family="Helvetica,sans-Serif" font-size="11.00" fill="#000000">authority_name</text>
<polygon fill="none" stroke="#000000" points="230.5,-257.2 230.5,-279.2 327.5,-279.2 327.5,-257.2 230.5,-257.2"/>
<text text-anchor="start" x="233.5" y="-264.9" font-family="Helvetica,sans-Serif" font-size="11.00" fill="#000000">text[2147483647]</text>
<polygon fill="none" stroke="#000000" points="10.5,-235.2 10.5,-257.2 230.5,-257.2 230.5,-235.2 10.5,-235.2"/>
<text text-anchor="start" x="30.5" y="-242.3" font-family="Helvetica,sans-Serif" font-size="11.00" fill="#000000">auth_entity_authority_data_source</text>
<polygon fill="none" stroke="#000000" points="230.5,-235.2 230.5,-257.2 327.5,-257.2 327.5,-235.2 230.5,-235.2"/>
<text text-anchor="start" x="233.5" y="-242.9" font-family="Helvetica,sans-Serif" font-size="11.00" fill="#000000">text[2147483647]</text>
<polygon fill="none" stroke="#000000" points="10.5,-213.2 10.5,-235.2 230.5,-235.2 230.5,-213.2 10.5,-213.2"/>
<text text-anchor="start" x="30.5" y="-220.3" font-family="Helvetica,sans-Serif" font-size="11.00" fill="#000000">date_issued</text>
<polygon fill="none" stroke="#000000" points="230.5,-213.2 230.5,-235.2 327.5,-235.2 327.5,-213.2 230.5,-213.2"/>
<text text-anchor="start" x="233.5" y="-220.9" font-family="Helvetica,sans-Serif" font-size="11.00" fill="#000000">date[13]</text>
<polygon fill="none" stroke="#000000" points="10.5,-191.2 10.5,-213.2 230.5,-213.2 230.5,-191.2 10.5,-191.2"/>
<text text-anchor="start" x="30.5" y="-198.3" font-family="Helvetica,sans-Serif" font-size="11.00" fill="#000000">date_start_effective</text>
<polygon fill="none" stroke="#000000" points="230.5,-191.2 230.5,-213.2 327.5,-213.2 327.5,-191.2 230.5,-191.2"/>
<text text-anchor="start" x="233.5" y="-198.9" font-family="Helvetica,sans-Serif" font-size="11.00" fill="#000000">date[13]</text>
<polygon fill="none" stroke="#000000" points="10.5,-169.2 10.5,-191.2 230.5,-191.2 230.5,-169.2 10.5,-169.2"/>
<text text-anchor="start" x="30.5" y="-176.3" font-family="Helvetica,sans-Serif" font-size="11.00" fill="#000000">date_end_anticipated</text>
<polygon fill="none" stroke="#000000" points="230.5,-169.2 230.5,-191.2 327.5,-191.2 327.5,-169.2 230.5,-169.2"/>
<text text-anchor="start" x="233.5" y="-176.9" font-family="Helvetica,sans-Serif" font-size="11.00" fill="#000000">date[13]</text>
<polygon fill="none" stroke="#000000" points="10.5,-147.2 10.5,-169.2 230.5,-169.2 230.5,-147.2 10.5,-147.2"/>
<text text-anchor="start" x="30.5" y="-154.3" font-family="Helvetica,sans-Serif" font-size="11.00" fill="#000000">date_end_actual</text>
<polygon fill="none" stroke="#000000" points="230.5,-147.2 230.5,-169.2 327.5,-169.2 327.5,-147.2 230.5,-147.2"/>
<text text-anchor="start" x="233.5" y="-154.9" font-family="Helvetica,sans-Serif" font-size="11.00" fill="#000000">date[13]</text>
<polygon fill="none" stroke="#000000" points="10.5,-125.2 10.5,-147.2 230.5,-147.2 230.5,-125.2 10.5,-125.2"/>
<text text-anchor="start" x="30.5" y="-132.3" font-family="Helvetica,sans-Serif" font-size="11.00" fill="#000000">search_text</text>
<polygon fill="none" stroke="#000000" points="230.5,-125.2 230.5,-147.2 327.5,-147.2 327.5,-125.2 230.5,-125.2"/>
<text text-anchor="start" x="233.5" y="-132.9" font-family="Helvetica,sans-Serif" font-size="11.00" fill="#000000">text[2147483647]</text>
<polygon fill="none" stroke="#000000" points="10.5,-103.2 10.5,-125.2 230.5,-125.2 230.5,-103.2 10.5,-103.2"/>
<text text-anchor="start" x="30.5" y="-110.3" font-family="Helvetica,sans-Serif" font-size="11.00" fill="#000000">name_and_desc</text>
<polygon fill="none" stroke="#000000" points="230.5,-103.2 230.5,-125.2 327.5,-125.2 327.5,-103.2 230.5,-103.2"/>
<text text-anchor="start" x="233.5" y="-110.9" font-family="Helvetica,sans-Serif" font-size="11.00" fill="#000000">text[2147483647]</text>
<polygon fill="#ffffff" stroke="transparent" points="10.5,-81.2 10.5,-103.2 230.5,-103.2 230.5,-81.2 10.5,-81.2"/>
<polygon fill="none" stroke="#000000" points="10.5,-81.2 10.5,-103.2 230.5,-103.2 230.5,-81.2 10.5,-81.2"/>
<text text-anchor="start" x="30.5" y="-88.3" font-family="Helvetica,sans-Serif" font-size="11.00" fill="#000000">group_number</text>
<polygon fill="none" stroke="#000000" points="230.5,-81.2 230.5,-103.2 327.5,-103.2 327.5,-81.2 230.5,-81.2"/>
<text text-anchor="start" x="233.5" y="-88.9" font-family="Helvetica,sans-Serif" font-size="11.00" fill="#000000">int4[10]</text>
<polygon fill="none" stroke="#000000" points="10.5,-59.2 10.5,-81.2 230.5,-81.2 230.5,-59.2 10.5,-59.2"/>
<text text-anchor="start" x="30.5" y="-66.3" font-family="Helvetica,sans-Serif" font-size="11.00" fill="#000000">subtarget</text>
<polygon fill="none" stroke="#000000" points="230.5,-59.2 230.5,-81.2 327.5,-81.2 327.5,-59.2 230.5,-59.2"/>
<text text-anchor="start" x="233.4468" y="-66.9" font-family="Helvetica,sans-Serif" font-size="11.00" fill="#000000">_text[2147483647]</text>
<polygon fill="#ffffff" stroke="transparent" points="10.5,-40.2 10.5,-59.2 98.5,-59.2 98.5,-40.2 10.5,-40.2"/>
<polygon fill="none" stroke="#000000" points="10.5,-40.2 10.5,-59.2 98.5,-59.2 98.5,-40.2 10.5,-40.2"/>
<text text-anchor="start" x="13.5" y="-46.3" font-family="Helvetica,sans-Serif" font-size="11.00" fill="#000000">&lt; 0</text>
<polygon fill="#ffffff" stroke="transparent" points="98.5,-40.2 98.5,-59.2 230.5,-59.2 230.5,-40.2 98.5,-40.2"/>
<polygon fill="none" stroke="#000000" points="98.5,-40.2 98.5,-59.2 230.5,-59.2 230.5,-40.2 98.5,-40.2"/>
<text text-anchor="start" x="167.594" y="-46.3" font-family="Helvetica,sans-Serif" font-size="11.00" fill="#000000">40,950 rows</text>
<polygon fill="#ffffff" stroke="transparent" points="230.5,-40.2 230.5,-59.2 327.5,-59.2 327.5,-40.2 230.5,-40.2"/>
<polygon fill="none" stroke="#000000" points="230.5,-40.2 230.5,-59.2 327.5,-59.2 327.5,-40.2 230.5,-40.2"/>
<text text-anchor="start" x="308.9053" y="-46.3" font-family="Helvetica,sans-Serif" font-size="11.00" fill="#000000">8 &gt;</text>
<polygon fill="none" stroke="#000000" stroke-width="2" points="9,-39.2 9,-611.2 328,-611.2 328,-39.2 9,-39.2"/>
</a>
</g>
</g>
<!-- auth_entity_to_policy&#45;&gt;policy -->
<g id="edge1" class="edge">
<title>auth_entity_to_policy:w&#45;&gt;policy:e</title>
<path fill="none" stroke="#000000" d="M385.3041,-956.8763C324.4822,-914.5789 409.0989,-576.2 327.5,-576.2"/>
<polygon fill="#000000" stroke="#000000" points="391.8471,-958.8691 398.4511,-964.6438 395.6735,-960.0345 399.5,-961.2 399.5,-961.2 399.5,-961.2 395.6735,-960.0345 400.5489,-957.7562 391.8471,-958.8691 391.8471,-958.8691"/>
<ellipse fill="none" stroke="#000000" cx="388.7859" cy="-957.9367" rx="3.2" ry="3.2"/>
</g>
<!-- file_to_policy -->
<g id="node3" class="node">
<title>file_to_policy</title>
<g id="a_node3"><a xlink:href="../../tables/file_to_policy.html" xlink:title="file_to_policy" target="_top">
<polygon fill="#ffffff" stroke="transparent" points="419.5,-824.2 419.5,-910.2 525.5,-910.2 525.5,-824.2 419.5,-824.2"/>
<polygon fill="#f5f5f5" stroke="transparent" points="419.5,-887.2 419.5,-910.2 525.5,-910.2 525.5,-887.2 419.5,-887.2"/>
<polygon fill="none" stroke="#000000" points="419.5,-887.2 419.5,-910.2 525.5,-910.2 525.5,-887.2 419.5,-887.2"/>
<text text-anchor="start" x="424.2166" y="-896.3" font-family="Helvetica,sans-Serif" font-weight="bold" font-size="11.00" fill="#000000">file_to_policy</text>
<text text-anchor="start" x="491.0219" y="-895.3" font-family="Helvetica,sans-Serif" font-size="11.00" fill="#000000">[table]</text>
<polygon fill="none" stroke="#000000" points="419.5,-865.2 419.5,-887.2 525.5,-887.2 525.5,-865.2 419.5,-865.2"/>
<image xlink:href="../../images/primaryKeys.png" width="11px" height="12px" preserveAspectRatio="xMinYMin meet" x="424.5" y="-882.2"/>
<text text-anchor="start" x="444.5" y="-872.3" font-family="Helvetica,sans-Serif" font-size="11.00" fill="#000000">file</text>
<polygon fill="none" stroke="#000000" points="419.5,-843.2 419.5,-865.2 525.5,-865.2 525.5,-843.2 419.5,-843.2"/>
<image xlink:href="../../images/primaryKeys.png" width="11px" height="12px" preserveAspectRatio="xMinYMin meet" x="424.5" y="-860.2"/>
<text text-anchor="start" x="444.5" y="-850.3" font-family="Helvetica,sans-Serif" font-size="11.00" fill="#000000">policy</text>
<polygon fill="#ffffff" stroke="transparent" points="419.5,-824.2 419.5,-843.2 444.5,-843.2 444.5,-824.2 419.5,-824.2"/>
<polygon fill="none" stroke="#000000" points="419.5,-824.2 419.5,-843.2 444.5,-843.2 444.5,-824.2 419.5,-824.2"/>
<text text-anchor="start" x="422.5" y="-830.3" font-family="Helvetica,sans-Serif" font-size="11.00" fill="#000000">&lt; 2</text>
<polygon fill="#ffffff" stroke="transparent" points="444.5,-824.2 444.5,-843.2 511.5,-843.2 511.5,-824.2 444.5,-824.2"/>
<polygon fill="none" stroke="#000000" points="444.5,-824.2 444.5,-843.2 511.5,-843.2 511.5,-824.2 444.5,-824.2"/>
<text text-anchor="start" x="448.594" y="-830.3" font-family="Helvetica,sans-Serif" font-size="11.00" fill="#000000">41,366 rows</text>
<polygon fill="#ffffff" stroke="transparent" points="511.5,-824.2 511.5,-843.2 525.5,-843.2 525.5,-824.2 511.5,-824.2"/>
<polygon fill="none" stroke="#000000" points="511.5,-824.2 511.5,-843.2 525.5,-843.2 525.5,-824.2 511.5,-824.2"/>
<text text-anchor="start" x="516.3862" y="-830.3" font-family="Helvetica,sans-Serif" font-size="11.00" fill="#000000"> &#160;</text>
</a>
</g>
</g>
<!-- file_to_policy&#45;&gt;policy -->
<g id="edge2" class="edge">
<title>file_to_policy:w&#45;&gt;policy:e</title>
<path fill="none" stroke="#000000" d="M405.1668,-852.4606C388.2618,-847.7543 381.5833,-833.7927 370,-814.2 342.6581,-767.9523 381.2255,-576.2 327.5,-576.2"/>
<polygon fill="#000000" stroke="#000000" points="411.5583,-853.2362 419.0663,-857.7738 415.5291,-853.7181 419.5,-854.2 419.5,-854.2 419.5,-854.2 415.5291,-853.7181 419.9337,-850.6262 411.5583,-853.2362 411.5583,-853.2362"/>
<ellipse fill="none" stroke="#000000" cx="408.3816" cy="-852.8507" rx="3.2" ry="3.2"/>
</g>
<!-- place_to_policy -->
<g id="node4" class="node">
<title>place_to_policy</title>
<g id="a_node4"><a xlink:href="../../tables/place_to_policy.html" xlink:title="place_to_policy" target="_top">
<polygon fill="#ffffff" stroke="transparent" points="413.5,-717.2 413.5,-803.2 531.5,-803.2 531.5,-717.2 413.5,-717.2"/>
<polygon fill="#f5f5f5" stroke="transparent" points="413.5,-780.2 413.5,-803.2 531.5,-803.2 531.5,-780.2 413.5,-780.2"/>
<polygon fill="none" stroke="#000000" points="413.5,-780.2 413.5,-803.2 531.5,-803.2 531.5,-780.2 413.5,-780.2"/>
<text text-anchor="start" x="418.1006" y="-789.3" font-family="Helvetica,sans-Serif" font-weight="bold" font-size="11.00" fill="#000000">place_to_policy</text>
<text text-anchor="start" x="497.0219" y="-788.3" font-family="Helvetica,sans-Serif" font-size="11.00" fill="#000000">[table]</text>
<polygon fill="none" stroke="#000000" points="413.5,-758.2 413.5,-780.2 531.5,-780.2 531.5,-758.2 413.5,-758.2"/>
<image xlink:href="../../images/primaryKeys.png" width="11px" height="12px" preserveAspectRatio="xMinYMin meet" x="418.5" y="-775.2"/>
<text text-anchor="start" x="437.5" y="-765.3" font-family="Helvetica,sans-Serif" font-size="11.00" fill="#000000">place</text>
<polygon fill="none" stroke="#000000" points="413.5,-736.2 413.5,-758.2 531.5,-758.2 531.5,-736.2 413.5,-736.2"/>
<image xlink:href="../../images/primaryKeys.png" width="11px" height="12px" preserveAspectRatio="xMinYMin meet" x="418.5" y="-753.2"/>
<text text-anchor="start" x="437.5" y="-743.3" font-family="Helvetica,sans-Serif" font-size="11.00" fill="#000000">policy</text>
<polygon fill="#ffffff" stroke="transparent" points="413.5,-717.2 413.5,-736.2 440.5,-736.2 440.5,-717.2 413.5,-717.2"/>
<polygon fill="none" stroke="#000000" points="413.5,-717.2 413.5,-736.2 440.5,-736.2 440.5,-717.2 413.5,-717.2"/>
<text text-anchor="start" x="416.5" y="-723.3" font-family="Helvetica,sans-Serif" font-size="11.00" fill="#000000">&lt; 2</text>
<polygon fill="#ffffff" stroke="transparent" points="440.5,-717.2 440.5,-736.2 515.5,-736.2 515.5,-717.2 440.5,-717.2"/>
<polygon fill="none" stroke="#000000" points="440.5,-717.2 440.5,-736.2 515.5,-736.2 515.5,-717.2 440.5,-717.2"/>
<text text-anchor="start" x="446.4791" y="-723.3" font-family="Helvetica,sans-Serif" font-size="11.00" fill="#000000">999,172 rows</text>
<polygon fill="#ffffff" stroke="transparent" points="515.5,-717.2 515.5,-736.2 531.5,-736.2 531.5,-717.2 515.5,-717.2"/>
<polygon fill="none" stroke="#000000" points="515.5,-717.2 515.5,-736.2 531.5,-736.2 531.5,-717.2 515.5,-717.2"/>
<text text-anchor="start" x="522.3862" y="-723.3" font-family="Helvetica,sans-Serif" font-size="11.00" fill="#000000"> &#160;</text>
</a>
</g>
</g>
<!-- place_to_policy&#45;&gt;policy -->
<g id="edge3" class="edge">
<title>place_to_policy:w&#45;&gt;policy:e</title>
<path fill="none" stroke="#000000" d="M399.1212,-744.6884C385.2004,-738.8915 381.1213,-723.7248 370,-706.2 337.4294,-654.8754 388.287,-576.2 327.5,-576.2"/>
<polygon fill="#000000" stroke="#000000" points="405.6193,-745.8234 412.8805,-750.7463 409.5597,-746.5117 413.5,-747.2 413.5,-747.2 413.5,-747.2 409.5597,-746.5117 414.1195,-743.6537 405.6193,-745.8234 405.6193,-745.8234"/>
<ellipse fill="none" stroke="#000000" cx="402.4671" cy="-745.2728" rx="3.2" ry="3.2"/>
</g>
<!-- plan -->
<g id="node5" class="node">
<title>plan</title>
<g id="a_node5"><a xlink:href="../../tables/plan.html" xlink:title="plan" target="_top">
<polygon fill="#ffffff" stroke="transparent" points="381,-590.7 381,-695.7 564,-695.7 564,-590.7 381,-590.7"/>
<polygon fill="#f5f5f5" stroke="transparent" points="381.5,-672.2 381.5,-695.2 564.5,-695.2 564.5,-672.2 381.5,-672.2"/>
<polygon fill="none" stroke="#000000" points="381.5,-672.2 381.5,-695.2 564.5,-695.2 564.5,-672.2 381.5,-672.2"/>
<text text-anchor="start" x="386.5" y="-681.3" font-family="Helvetica,sans-Serif" font-weight="bold" font-size="11.00" fill="#000000">plan</text>
<text text-anchor="start" x="529.5437" y="-680.3" font-family="Helvetica,sans-Serif" font-size="11.00" fill="#000000">[table]</text>
<polygon fill="none" stroke="#000000" points="381.5,-650.2 381.5,-672.2 564.5,-672.2 564.5,-650.2 381.5,-650.2"/>
<image xlink:href="../../images/primaryKeys.png" width="11px" height="12px" preserveAspectRatio="xMinYMin meet" x="386.5" y="-667.2"/>
<text text-anchor="start" x="401.5" y="-657.3" font-family="Helvetica,sans-Serif" font-size="11.00" fill="#000000">id</text>
<polygon fill="#ffffff" stroke="transparent" points="381.5,-628.2 381.5,-650.2 564.5,-650.2 564.5,-628.2 381.5,-628.2"/>
<polygon fill="none" stroke="#000000" points="381.5,-628.2 381.5,-650.2 564.5,-650.2 564.5,-628.2 381.5,-628.2"/>
<image xlink:href="../../images/foreignKeys.png" width="11px" height="12px" preserveAspectRatio="xMinYMin meet" x="386.5" y="-645.2"/>
<text text-anchor="start" x="401.5" y="-635.3" font-family="Helvetica,sans-Serif" font-size="11.00" fill="#000000">policy</text>
<polygon fill="none" stroke="#000000" points="381.5,-609.2 381.5,-628.2 564.5,-628.2 564.5,-609.2 381.5,-609.2"/>
<text text-anchor="start" x="384.5" y="-615.3" font-family="Helvetica,sans-Serif" font-size="11.00" fill="#000000">...</text>
<polygon fill="#ffffff" stroke="transparent" points="381.5,-590.2 381.5,-609.2 447.5,-609.2 447.5,-590.2 381.5,-590.2"/>
<polygon fill="none" stroke="#000000" points="381.5,-590.2 381.5,-609.2 447.5,-609.2 447.5,-590.2 381.5,-590.2"/>
<text text-anchor="start" x="384.5" y="-596.3" font-family="Helvetica,sans-Serif" font-size="11.00" fill="#000000">&lt; 1</text>
<polygon fill="#ffffff" stroke="transparent" points="447.5,-590.2 447.5,-609.2 520.5,-609.2 520.5,-590.2 447.5,-590.2"/>
<polygon fill="none" stroke="#000000" points="447.5,-590.2 447.5,-609.2 520.5,-609.2 520.5,-590.2 447.5,-590.2"/>
<text text-anchor="start" x="472.8807" y="-596.3" font-family="Helvetica,sans-Serif" font-size="11.00" fill="#000000">493 rows</text>
<polygon fill="#ffffff" stroke="transparent" points="520.5,-590.2 520.5,-609.2 564.5,-609.2 564.5,-590.2 520.5,-590.2"/>
<polygon fill="none" stroke="#000000" points="520.5,-590.2 520.5,-609.2 564.5,-609.2 564.5,-590.2 520.5,-590.2"/>
<text text-anchor="start" x="545.9053" y="-596.3" font-family="Helvetica,sans-Serif" font-size="11.00" fill="#000000">3 &gt;</text>
</a>
</g>
</g>
<!-- plan&#45;&gt;policy -->
<g id="edge4" class="edge">
<title>plan:w&#45;&gt;policy:e</title>
<path fill="none" stroke="#000000" d="M367.422,-634.6692C349.58,-620.2239 358.3279,-576.2 327.5,-576.2"/>
<polygon fill="#000000" stroke="#000000" points="373.8847,-636.7491 380.3971,-642.6269 377.6923,-637.9745 381.5,-639.2 381.5,-639.2 381.5,-639.2 377.6923,-637.9745 382.6029,-635.7731 373.8847,-636.7491 373.8847,-636.7491"/>
<ellipse fill="none" stroke="#000000" cx="370.8385" cy="-635.7687" rx="3.2" ry="3.2"/>
</g>
<!-- policies_to_court_challenges -->
<g id="node6" class="node">
<title>policies_to_court_challenges</title>
<g id="a_node6"><a xlink:href="../../tables/policies_to_court_challenges.html" xlink:title="policies_to_court_challenges" target="_top">
<polygon fill="#ffffff" stroke="transparent" points="378,-483.2 378,-569.2 567,-569.2 567,-483.2 378,-483.2"/>
<polygon fill="#f5f5f5" stroke="transparent" points="378.5,-546.2 378.5,-569.2 567.5,-569.2 567.5,-546.2 378.5,-546.2"/>
<polygon fill="none" stroke="#000000" points="378.5,-546.2 378.5,-569.2 567.5,-569.2 567.5,-546.2 378.5,-546.2"/>
<text text-anchor="start" x="383.5" y="-555.3" font-family="Helvetica,sans-Serif" font-weight="bold" font-size="11.00" fill="#000000">policies_to_court_challenges</text>
<text text-anchor="start" x="532.5437" y="-554.3" font-family="Helvetica,sans-Serif" font-size="11.00" fill="#000000">[table]</text>
<polygon fill="none" stroke="#000000" points="378.5,-524.2 378.5,-546.2 567.5,-546.2 567.5,-524.2 378.5,-524.2"/>
<image xlink:href="../../images/primaryKeys.png" width="11px" height="12px" preserveAspectRatio="xMinYMin meet" x="383.5" y="-541.2"/>
<text text-anchor="start" x="398.5" y="-531.3" font-family="Helvetica,sans-Serif" font-size="11.00" fill="#000000">court_challenge</text>
<polygon fill="none" stroke="#000000" points="378.5,-502.2 378.5,-524.2 567.5,-524.2 567.5,-502.2 378.5,-502.2"/>
<image xlink:href="../../images/primaryKeys.png" width="11px" height="12px" preserveAspectRatio="xMinYMin meet" x="383.5" y="-519.2"/>
<text text-anchor="start" x="398.5" y="-509.3" font-family="Helvetica,sans-Serif" font-size="11.00" fill="#000000">policy</text>
<polygon fill="#ffffff" stroke="transparent" points="378.5,-483.2 378.5,-502.2 458.5,-502.2 458.5,-483.2 378.5,-483.2"/>
<polygon fill="none" stroke="#000000" points="378.5,-483.2 378.5,-502.2 458.5,-502.2 458.5,-483.2 378.5,-483.2"/>
<text text-anchor="start" x="381.5" y="-489.3" font-family="Helvetica,sans-Serif" font-size="11.00" fill="#000000">&lt; 2</text>
<polygon fill="#ffffff" stroke="transparent" points="458.5,-483.2 458.5,-502.2 525.5,-502.2 525.5,-483.2 458.5,-483.2"/>
<polygon fill="none" stroke="#000000" points="458.5,-483.2 458.5,-502.2 525.5,-502.2 525.5,-483.2 458.5,-483.2"/>
<text text-anchor="start" x="490.1105" y="-489.3" font-family="Helvetica,sans-Serif" font-size="11.00" fill="#000000">0 rows</text>
<polygon fill="#ffffff" stroke="transparent" points="525.5,-483.2 525.5,-502.2 567.5,-502.2 567.5,-483.2 525.5,-483.2"/>
<polygon fill="none" stroke="#000000" points="525.5,-483.2 525.5,-502.2 567.5,-502.2 567.5,-483.2 525.5,-483.2"/>
<text text-anchor="start" x="558.3862" y="-489.3" font-family="Helvetica,sans-Serif" font-size="11.00" fill="#000000"> &#160;</text>
</a>
</g>
</g>
<!-- policies_to_court_challenges&#45;&gt;policy -->
<g id="edge5" class="edge">
<title>policies_to_court_challenges:w&#45;&gt;policy:e</title>
<path fill="none" stroke="#000000" d="M364.4033,-518.1435C348.025,-532.9952 357.3329,-576.2 327.5,-576.2"/>
<polygon fill="#000000" stroke="#000000" points="370.9507,-515.8474 379.6913,-516.5972 374.7254,-514.5237 378.5,-513.2 378.5,-513.2 378.5,-513.2 374.7254,-514.5237 377.3087,-509.8028 370.9507,-515.8474 370.9507,-515.8474"/>
<ellipse fill="none" stroke="#000000" cx="367.931" cy="-516.9064" rx="3.2" ry="3.2"/>
</g>
<!-- policy_number_to_policy -->
<g id="node7" class="node">
<title>policy_number_to_policy</title>
<g id="a_node7"><a xlink:href="../../tables/policy_number_to_policy.html" xlink:title="policy_number_to_policy" target="_top">
<polygon fill="#ffffff" stroke="transparent" points="390,-376.2 390,-462.2 555,-462.2 555,-376.2 390,-376.2"/>
<polygon fill="#f5f5f5" stroke="transparent" points="390.5,-439.2 390.5,-462.2 555.5,-462.2 555.5,-439.2 390.5,-439.2"/>
<polygon fill="none" stroke="#000000" points="390.5,-439.2 390.5,-462.2 555.5,-462.2 555.5,-439.2 390.5,-439.2"/>
<text text-anchor="start" x="395.5" y="-448.3" font-family="Helvetica,sans-Serif" font-weight="bold" font-size="11.00" fill="#000000">policy_number_to_policy</text>
<text text-anchor="start" x="521.0219" y="-447.3" font-family="Helvetica,sans-Serif" font-size="11.00" fill="#000000">[table]</text>
<polygon fill="none" stroke="#000000" points="390.5,-417.2 390.5,-439.2 555.5,-439.2 555.5,-417.2 390.5,-417.2"/>
<image xlink:href="../../images/primaryKeys.png" width="11px" height="12px" preserveAspectRatio="xMinYMin meet" x="395.5" y="-434.2"/>
<text text-anchor="start" x="410.5" y="-424.3" font-family="Helvetica,sans-Serif" font-size="11.00" fill="#000000">policy</text>
<polygon fill="none" stroke="#000000" points="390.5,-395.2 390.5,-417.2 555.5,-417.2 555.5,-395.2 390.5,-395.2"/>
<image xlink:href="../../images/primaryKeys.png" width="11px" height="12px" preserveAspectRatio="xMinYMin meet" x="395.5" y="-412.2"/>
<text text-anchor="start" x="410.5" y="-402.3" font-family="Helvetica,sans-Serif" font-size="11.00" fill="#000000">policy_number</text>
<polygon fill="#ffffff" stroke="transparent" points="390.5,-376.2 390.5,-395.2 444.5,-395.2 444.5,-376.2 390.5,-376.2"/>
<polygon fill="none" stroke="#000000" points="390.5,-376.2 390.5,-395.2 444.5,-395.2 444.5,-376.2 390.5,-376.2"/>
<text text-anchor="start" x="393.5" y="-382.3" font-family="Helvetica,sans-Serif" font-size="11.00" fill="#000000">&lt; 2</text>
<polygon fill="#ffffff" stroke="transparent" points="444.5,-376.2 444.5,-395.2 526.5,-395.2 526.5,-376.2 444.5,-376.2"/>
<polygon fill="none" stroke="#000000" points="444.5,-376.2 444.5,-395.2 526.5,-395.2 526.5,-376.2 444.5,-376.2"/>
<text text-anchor="start" x="463.594" y="-382.3" font-family="Helvetica,sans-Serif" font-size="11.00" fill="#000000">40,950 rows</text>
<polygon fill="#ffffff" stroke="transparent" points="526.5,-376.2 526.5,-395.2 555.5,-395.2 555.5,-376.2 526.5,-376.2"/>
<polygon fill="none" stroke="#000000" points="526.5,-376.2 526.5,-395.2 555.5,-395.2 555.5,-376.2 526.5,-376.2"/>
<text text-anchor="start" x="546.3862" y="-382.3" font-family="Helvetica,sans-Serif" font-size="11.00" fill="#000000"> &#160;</text>
</a>
</g>
</g>
<!-- policy_number_to_policy&#45;&gt;policy -->
<g id="edge6" class="edge">
<title>policy_number_to_policy:w&#45;&gt;policy:e</title>
<path fill="none" stroke="#000000" d="M376.0841,-430.8952C330.8485,-450.9541 393.2645,-576.2 327.5,-576.2"/>
<polygon fill="#000000" stroke="#000000" points="382.6362,-429.6702 391.1616,-431.7387 386.5681,-428.9351 390.5,-428.2 390.5,-428.2 390.5,-428.2 386.5681,-428.9351 389.8384,-424.6613 382.6362,-429.6702 382.6362,-429.6702"/>
<ellipse fill="none" stroke="#000000" cx="379.4907" cy="-430.2583" rx="3.2" ry="3.2"/>
</g>
<!-- policy_to_prior_policy -->
<g id="node8" class="node">
<title>policy_to_prior_policy</title>
<g id="a_node8"><a xlink:href="../../tables/policy_to_prior_policy.html" xlink:title="policy_to_prior_policy" target="_top">
<polygon fill="#ffffff" stroke="transparent" points="398,-269.2 398,-355.2 547,-355.2 547,-269.2 398,-269.2"/>
<polygon fill="#f5f5f5" stroke="transparent" points="398.5,-332.2 398.5,-355.2 547.5,-355.2 547.5,-332.2 398.5,-332.2"/>
<polygon fill="none" stroke="#000000" points="398.5,-332.2 398.5,-355.2 547.5,-355.2 547.5,-332.2 398.5,-332.2"/>
<text text-anchor="start" x="403.5" y="-341.3" font-family="Helvetica,sans-Serif" font-weight="bold" font-size="11.00" fill="#000000">policy_to_prior_policy</text>
<text text-anchor="start" x="513.0219" y="-340.3" font-family="Helvetica,sans-Serif" font-size="11.00" fill="#000000">[table]</text>
<polygon fill="none" stroke="#000000" points="398.5,-310.2 398.5,-332.2 547.5,-332.2 547.5,-310.2 398.5,-310.2"/>
<image xlink:href="../../images/primaryKeys.png" width="11px" height="12px" preserveAspectRatio="xMinYMin meet" x="403.5" y="-327.2"/>
<text text-anchor="start" x="418.5" y="-317.3" font-family="Helvetica,sans-Serif" font-size="11.00" fill="#000000">policy</text>
<polygon fill="none" stroke="#000000" points="398.5,-288.2 398.5,-310.2 547.5,-310.2 547.5,-288.2 398.5,-288.2"/>
<image xlink:href="../../images/primaryKeys.png" width="11px" height="12px" preserveAspectRatio="xMinYMin meet" x="403.5" y="-305.2"/>
<text text-anchor="start" x="418.5" y="-295.3" font-family="Helvetica,sans-Serif" font-size="11.00" fill="#000000">policy_2</text>
<polygon fill="#ffffff" stroke="transparent" points="398.5,-269.2 398.5,-288.2 444.5,-288.2 444.5,-269.2 398.5,-269.2"/>
<polygon fill="none" stroke="#000000" points="398.5,-269.2 398.5,-288.2 444.5,-288.2 444.5,-269.2 398.5,-269.2"/>
<text text-anchor="start" x="401.5" y="-275.3" font-family="Helvetica,sans-Serif" font-size="11.00" fill="#000000">&lt; 2</text>
<polygon fill="#ffffff" stroke="transparent" points="444.5,-269.2 444.5,-288.2 522.5,-288.2 522.5,-269.2 444.5,-269.2"/>
<polygon fill="none" stroke="#000000" points="444.5,-269.2 444.5,-288.2 522.5,-288.2 522.5,-269.2 444.5,-269.2"/>
<text text-anchor="start" x="459.594" y="-275.3" font-family="Helvetica,sans-Serif" font-size="11.00" fill="#000000">36,085 rows</text>
<polygon fill="#ffffff" stroke="transparent" points="522.5,-269.2 522.5,-288.2 547.5,-288.2 547.5,-269.2 522.5,-269.2"/>
<polygon fill="none" stroke="#000000" points="522.5,-269.2 522.5,-288.2 547.5,-288.2 547.5,-269.2 522.5,-269.2"/>
<text text-anchor="start" x="538.3862" y="-275.3" font-family="Helvetica,sans-Serif" font-size="11.00" fill="#000000"> &#160;</text>
</a>
</g>
</g>
<!-- policy_to_prior_policy&#45;&gt;policy -->
<g id="edge7" class="edge">
<title>policy_to_prior_policy:w&#45;&gt;policy:e</title>
<path fill="none" stroke="#000000" d="M385.0466,-327.0051C347.2079,-364.962 381.0374,-576.2 327.5,-576.2"/>
<polygon fill="#000000" stroke="#000000" points="391.1546,-324.3695 399.9263,-324.5054 394.8273,-322.7848 398.5,-321.2 398.5,-321.2 398.5,-321.2 394.8273,-322.7848 397.0737,-317.8946 391.1546,-324.3695 391.1546,-324.3695"/>
<ellipse fill="none" stroke="#000000" cx="388.2165" cy="-325.6374" rx="3.2" ry="3.2"/>
</g>
<!-- policy_to_prior_policy&#45;&gt;policy -->
<g id="edge8" class="edge">
<title>policy_to_prior_policy:w&#45;&gt;policy:e</title>
<path fill="none" stroke="#000000" d="M384.8793,-304.7332C343.5322,-343.7736 385.7086,-576.2 327.5,-576.2"/>
<polygon fill="#000000" stroke="#000000" points="391.0882,-302.2109 399.8549,-302.5353 394.7941,-300.7055 398.5,-299.2 398.5,-299.2 398.5,-299.2 394.7941,-300.7055 397.1451,-295.8647 391.0882,-302.2109 391.0882,-302.2109"/>
<ellipse fill="none" stroke="#000000" cx="388.1235" cy="-303.4153" rx="3.2" ry="3.2"/>
</g>
</g>
</svg>
