<?xml version="1.0" encoding="UTF-8" standalone="no"?>
<!DOCTYPE svg PUBLIC "-//W3C//DTD SVG 1.1//EN"
 "http://www.w3.org/Graphics/SVG/1.1/DTD/svg11.dtd">
<!-- Generated by graphviz version 2.40.1 (20161225.0304)
 -->
<!-- Title: oneDegreeRelationshipsDiagram Pages: 1 -->
<svg width="504pt" height="281pt"
 viewBox="0.00 0.00 504.00 281.20" xmlns="http://www.w3.org/2000/svg" xmlns:xlink="http://www.w3.org/1999/xlink">
<g id="graph0" class="graph" transform="scale(1 1) rotate(0) translate(4 277.2)">
<title>oneDegreeRelationshipsDiagram</title>
<polygon fill="#ffffff" stroke="transparent" points="-4,4 -4,-277.2 500,-277.2 500,4 -4,4"/>
<text text-anchor="middle" x="72.4936" y="-7.3" font-family="Helvetica,sans-Serif" font-size="11.00" fill="#000000">Generated by SchemaSpy</text>
<!-- policy_number_to_policy -->
<g id="node1" class="node">
<title>policy_number_to_policy</title>
<g id="a_node1"><a xlink:href="../../tables/policy_number_to_policy.html" xlink:title="policy_number_to_policy" target="_top">
<polygon fill="#ffffff" stroke="transparent" points="277,-117.7 277,-207.7 488,-207.7 488,-117.7 277,-117.7"/>
<polygon fill="#f5f5f5" stroke="transparent" points="279.5,-182.7 279.5,-205.7 486.5,-205.7 486.5,-182.7 279.5,-182.7"/>
<polygon fill="none" stroke="#000000" points="279.5,-182.7 279.5,-205.7 486.5,-205.7 486.5,-182.7 279.5,-182.7"/>
<text text-anchor="start" x="284.5" y="-191.8" font-family="Helvetica,sans-Serif" font-weight="bold" font-size="11.00" fill="#000000">policy_number_to_policy</text>
<text text-anchor="start" x="451.5437" y="-190.8" font-family="Helvetica,sans-Serif" font-size="11.00" fill="#000000">[table]</text>
<polygon fill="none" stroke="#000000" points="279.5,-160.7 279.5,-182.7 444.5,-182.7 444.5,-160.7 279.5,-160.7"/>
<image xlink:href="../../images/primaryKeys.png" width="11px" height="12px" preserveAspectRatio="xMinYMin meet" x="284.5" y="-177.7"/>
<text text-anchor="start" x="299.5" y="-167.8" font-family="Helvetica,sans-Serif" font-size="11.00" fill="#000000">policy</text>
<polygon fill="none" stroke="#000000" points="444.5,-160.7 444.5,-182.7 486.5,-182.7 486.5,-160.7 444.5,-160.7"/>
<text text-anchor="start" x="447.4644" y="-168.4" font-family="Helvetica,sans-Serif" font-size="11.00" fill="#000000">int4[10]</text>
<polygon fill="none" stroke="#000000" points="279.5,-138.7 279.5,-160.7 444.5,-160.7 444.5,-138.7 279.5,-138.7"/>
<image xlink:href="../../images/primaryKeys.png" width="11px" height="12px" preserveAspectRatio="xMinYMin meet" x="284.5" y="-155.7"/>
<text text-anchor="start" x="299.5" y="-145.8" font-family="Helvetica,sans-Serif" font-size="11.00" fill="#000000">policy_number</text>
<polygon fill="none" stroke="#000000" points="444.5,-138.7 444.5,-160.7 486.5,-160.7 486.5,-138.7 444.5,-138.7"/>
<text text-anchor="start" x="447.4644" y="-146.4" font-family="Helvetica,sans-Serif" font-size="11.00" fill="#000000">int4[10]</text>
<polygon fill="#ffffff" stroke="transparent" points="279.5,-119.7 279.5,-138.7 339.5,-138.7 339.5,-119.7 279.5,-119.7"/>
<polygon fill="none" stroke="#000000" points="279.5,-119.7 279.5,-138.7 339.5,-138.7 339.5,-119.7 279.5,-119.7"/>
<text text-anchor="start" x="282.5" y="-125.8" font-family="Helvetica,sans-Serif" font-size="11.00" fill="#000000">&lt; 2</text>
<polygon fill="#ffffff" stroke="transparent" points="339.5,-119.7 339.5,-138.7 444.5,-138.7 444.5,-119.7 339.5,-119.7"/>
<polygon fill="none" stroke="#000000" points="339.5,-119.7 339.5,-138.7 444.5,-138.7 444.5,-119.7 339.5,-119.7"/>
<text text-anchor="start" x="381.594" y="-125.8" font-family="Helvetica,sans-Serif" font-size="11.00" fill="#000000">40,812 rows</text>
<polygon fill="#ffffff" stroke="transparent" points="444.5,-119.7 444.5,-138.7 486.5,-138.7 486.5,-119.7 444.5,-119.7"/>
<polygon fill="none" stroke="#000000" points="444.5,-119.7 444.5,-138.7 486.5,-138.7 486.5,-119.7 444.5,-119.7"/>
<text text-anchor="start" x="467.9053" y="-125.8" font-family="Helvetica,sans-Serif" font-size="11.00" fill="#000000">0 &gt;</text>
<polygon fill="none" stroke="#000000" stroke-width="2" points="278,-118.7 278,-206.7 487,-206.7 487,-118.7 278,-118.7"/>
</a>
</g>
</g>
<!-- policy -->
<g id="node2" class="node">
<title>policy</title>
<g id="a_node2"><a xlink:href="../../tables/policy.html" xlink:title="policy" target="_top">
<polygon fill="#ffffff" stroke="transparent" points="8,-142.2 8,-269.2 228,-269.2 228,-142.2 8,-142.2"/>
<polygon fill="#f5f5f5" stroke="transparent" points="8,-245.7 8,-268.7 228,-268.7 228,-245.7 8,-245.7"/>
<polygon fill="none" stroke="#000000" points="8,-245.7 8,-268.7 228,-268.7 228,-245.7 8,-245.7"/>
<text text-anchor="start" x="13" y="-254.8" font-family="Helvetica,sans-Serif" font-weight="bold" font-size="11.00" fill="#000000">policy</text>
<text text-anchor="start" x="193.0437" y="-253.8" font-family="Helvetica,sans-Serif" font-size="11.00" fill="#000000">[table]</text>
<polygon fill="none" stroke="#000000" points="8,-223.7 8,-245.7 228,-245.7 228,-223.7 8,-223.7"/>
<image xlink:href="../../images/primaryKeys.png" width="11px" height="12px" preserveAspectRatio="xMinYMin meet" x="13" y="-240.7"/>
<text text-anchor="start" x="28" y="-230.8" font-family="Helvetica,sans-Serif" font-size="11.00" fill="#000000">id</text>
<polygon fill="#ffffff" stroke="transparent" points="8,-201.7 8,-223.7 228,-223.7 228,-201.7 8,-201.7"/>
<polygon fill="none" stroke="#000000" points="8,-201.7 8,-223.7 228,-223.7 228,-201.7 8,-201.7"/>
<text text-anchor="start" x="28" y="-208.8" font-family="Helvetica,sans-Serif" font-size="11.00" fill="#000000">primary_ph_measure</text>
<polygon fill="#ffffff" stroke="transparent" points="8,-179.7 8,-201.7 228,-201.7 228,-179.7 8,-179.7"/>
<polygon fill="none" stroke="#000000" points="8,-179.7 8,-201.7 228,-201.7 228,-179.7 8,-179.7"/>
<text text-anchor="start" x="28" y="-186.8" font-family="Helvetica,sans-Serif" font-size="11.00" fill="#000000">group_number</text>
<polygon fill="none" stroke="#000000" points="8,-160.7 8,-179.7 228,-179.7 228,-160.7 8,-160.7"/>
<text text-anchor="start" x="11" y="-166.8" font-family="Helvetica,sans-Serif" font-size="11.00" fill="#000000">...</text>
<polygon fill="#ffffff" stroke="transparent" points="8,-141.7 8,-160.7 81,-160.7 81,-141.7 8,-141.7"/>
<polygon fill="none" stroke="#000000" points="8,-141.7 8,-160.7 81,-160.7 81,-141.7 8,-141.7"/>
<text text-anchor="start" x="11" y="-147.8" font-family="Helvetica,sans-Serif" font-size="11.00" fill="#000000"> &#160;</text>
<polygon fill="#ffffff" stroke="transparent" points="81,-141.7 81,-160.7 176,-160.7 176,-141.7 81,-141.7"/>
<polygon fill="none" stroke="#000000" points="81,-141.7 81,-160.7 176,-160.7 176,-141.7 81,-141.7"/>
<text text-anchor="start" x="113.094" y="-147.8" font-family="Helvetica,sans-Serif" font-size="11.00" fill="#000000">40,812 rows</text>
<polygon fill="#ffffff" stroke="transparent" points="176,-141.7 176,-160.7 228,-160.7 228,-141.7 176,-141.7"/>
<polygon fill="none" stroke="#000000" points="176,-141.7 176,-160.7 228,-160.7 228,-141.7 176,-141.7"/>
<text text-anchor="start" x="209.4053" y="-147.8" font-family="Helvetica,sans-Serif" font-size="11.00" fill="#000000">8 &gt;</text>
</a>
</g>
</g>
<!-- policy_number_to_policy&#45;&gt;policy -->
<g id="edge1" class="edge">
<title>policy_number_to_policy:w&#45;&gt;policy:e</title>
<path fill="none" stroke="#000000" d="M265.799,-176.2308C248.6358,-190.6761 258.2316,-234.7 228,-234.7"/>
<polygon fill="#000000" stroke="#000000" points="271.9045,-174.2118 280.6303,-175.118 275.7023,-172.9559 279.5,-171.7 279.5,-171.7 279.5,-171.7 275.7023,-172.9559 278.3697,-168.282 271.9045,-174.2118 271.9045,-174.2118"/>
<ellipse fill="none" stroke="#000000" cx="268.8663" cy="-175.2165" rx="3.2" ry="3.2"/>
</g>
<!-- policy_number -->
<g id="node3" class="node">
<title>policy_number</title>
<g id="a_node3"><a xlink:href="../../tables/policy_number.html" xlink:title="policy_number" target="_top">
<polygon fill="#ffffff" stroke="transparent" points="27,-38.2 27,-121.2 209,-121.2 209,-38.2 27,-38.2"/>
<polygon fill="#f5f5f5" stroke="transparent" points="27,-97.7 27,-120.7 209,-120.7 209,-97.7 27,-97.7"/>
<polygon fill="none" stroke="#000000" points="27,-97.7 27,-120.7 209,-120.7 209,-97.7 27,-97.7"/>
<text text-anchor="start" x="32" y="-106.8" font-family="Helvetica,sans-Serif" font-weight="bold" font-size="11.00" fill="#000000">policy_number</text>
<text text-anchor="start" x="174.0437" y="-105.8" font-family="Helvetica,sans-Serif" font-size="11.00" fill="#000000">[table]</text>
<polygon fill="none" stroke="#000000" points="27,-75.7 27,-97.7 209,-97.7 209,-75.7 27,-75.7"/>
<image xlink:href="../../images/primaryKeys.png" width="11px" height="12px" preserveAspectRatio="xMinYMin meet" x="32" y="-92.7"/>
<text text-anchor="start" x="47" y="-82.8" font-family="Helvetica,sans-Serif" font-size="11.00" fill="#000000">id</text>
<polygon fill="none" stroke="#000000" points="27,-56.7 27,-75.7 209,-75.7 209,-56.7 27,-56.7"/>
<text text-anchor="start" x="30" y="-62.8" font-family="Helvetica,sans-Serif" font-size="11.00" fill="#000000">...</text>
<polygon fill="#ffffff" stroke="transparent" points="27,-37.7 27,-56.7 81,-56.7 81,-37.7 27,-37.7"/>
<polygon fill="none" stroke="#000000" points="27,-37.7 27,-56.7 81,-56.7 81,-37.7 27,-37.7"/>
<text text-anchor="start" x="30" y="-43.8" font-family="Helvetica,sans-Serif" font-size="11.00" fill="#000000"> &#160;</text>
<polygon fill="#ffffff" stroke="transparent" points="81,-37.7 81,-56.7 167,-56.7 167,-37.7 81,-37.7"/>
<polygon fill="none" stroke="#000000" points="81,-37.7 81,-56.7 167,-56.7 167,-37.7 81,-37.7"/>
<text text-anchor="start" x="104.094" y="-43.8" font-family="Helvetica,sans-Serif" font-size="11.00" fill="#000000">17,312 rows</text>
<polygon fill="#ffffff" stroke="transparent" points="167,-37.7 167,-56.7 209,-56.7 209,-37.7 167,-37.7"/>
<polygon fill="none" stroke="#000000" points="167,-37.7 167,-56.7 209,-56.7 209,-37.7 167,-37.7"/>
<text text-anchor="start" x="190.4053" y="-43.8" font-family="Helvetica,sans-Serif" font-size="11.00" fill="#000000">3 &gt;</text>
</a>
</g>
</g>
<!-- policy_number_to_policy&#45;&gt;policy_number -->
<g id="edge2" class="edge">
<title>policy_number_to_policy:w&#45;&gt;policy_number:e</title>
<path fill="none" stroke="#000000" d="M265.0965,-146.4892C240.1432,-133.651 245.2761,-86.7 209,-86.7"/>
<polygon fill="#000000" stroke="#000000" points="271.6917,-147.9593 278.7167,-153.2138 275.5958,-148.8297 279.5,-149.7 279.5,-149.7 279.5,-149.7 275.5958,-148.8297 280.2833,-146.1862 271.6917,-147.9593 271.6917,-147.9593"/>
<ellipse fill="none" stroke="#000000" cx="268.5683" cy="-147.2631" rx="3.2" ry="3.2"/>
</g>
</g>
</svg>
