<?xml version="1.0" encoding="UTF-8" standalone="no"?>
<!DOCTYPE svg PUBLIC "-//W3C//DTD SVG 1.1//EN"
 "http://www.w3.org/Graphics/SVG/1.1/DTD/svg11.dtd">
<!-- Generated by graphviz version 2.40.1 (20161225.0304)
 -->
<!-- Title: twoDegreesRelationshipsDiagram Pages: 1 -->
<svg width="504pt" height="797pt"
 viewBox="0.00 0.00 504.00 797.20" xmlns="http://www.w3.org/2000/svg" xmlns:xlink="http://www.w3.org/1999/xlink">
<g id="graph0" class="graph" transform="scale(1 1) rotate(0) translate(4 793.2)">
<title>twoDegreesRelationshipsDiagram</title>
<polygon fill="#ffffff" stroke="transparent" points="-4,4 -4,-793.2 500,-793.2 500,4 -4,4"/>
<text text-anchor="middle" x="72.4936" y="-7.3" font-family="Helvetica,sans-Serif" font-size="11.00" fill="#000000">Generated by SchemaSpy</text>
<!-- auth_entity_policy_number -->
<g id="node1" class="node">
<title>auth_entity_policy_number</title>
<g id="a_node1"><a xlink:href="../../tables/auth_entity_policy_number.html" xlink:title="auth_entity_policy_number" target="_top">
<polygon fill="#ffffff" stroke="transparent" points="295.5,-642.2 295.5,-703.2 469.5,-703.2 469.5,-642.2 295.5,-642.2"/>
<polygon fill="#f5f5f5" stroke="transparent" points="295.5,-679.7 295.5,-702.7 469.5,-702.7 469.5,-679.7 295.5,-679.7"/>
<polygon fill="none" stroke="#000000" points="295.5,-679.7 295.5,-702.7 469.5,-702.7 469.5,-679.7 295.5,-679.7"/>
<text text-anchor="start" x="300.2871" y="-688.8" font-family="Helvetica,sans-Serif" font-weight="bold" font-size="11.00" fill="#000000">auth_entity_policy_number</text>
<text text-anchor="start" x="435.0219" y="-687.8" font-family="Helvetica,sans-Serif" font-size="11.00" fill="#000000">[table]</text>
<polygon fill="none" stroke="#000000" points="295.5,-660.7 295.5,-679.7 469.5,-679.7 469.5,-660.7 295.5,-660.7"/>
<text text-anchor="start" x="298.5" y="-666.8" font-family="Helvetica,sans-Serif" font-size="11.00" fill="#000000">...</text>
<polygon fill="#ffffff" stroke="transparent" points="295.5,-641.7 295.5,-660.7 354.5,-660.7 354.5,-641.7 295.5,-641.7"/>
<polygon fill="none" stroke="#000000" points="295.5,-641.7 295.5,-660.7 354.5,-660.7 354.5,-641.7 295.5,-641.7"/>
<text text-anchor="start" x="298.5" y="-647.8" font-family="Helvetica,sans-Serif" font-size="11.00" fill="#000000">&lt; 2</text>
<polygon fill="#ffffff" stroke="transparent" points="354.5,-641.7 354.5,-660.7 438.5,-660.7 438.5,-641.7 354.5,-641.7"/>
<polygon fill="none" stroke="#000000" points="354.5,-641.7 354.5,-660.7 438.5,-660.7 438.5,-641.7 354.5,-641.7"/>
<text text-anchor="start" x="375.594" y="-647.8" font-family="Helvetica,sans-Serif" font-size="11.00" fill="#000000">18,176 rows</text>
<polygon fill="#ffffff" stroke="transparent" points="438.5,-641.7 438.5,-660.7 469.5,-660.7 469.5,-641.7 438.5,-641.7"/>
<polygon fill="none" stroke="#000000" points="438.5,-641.7 438.5,-660.7 469.5,-660.7 469.5,-641.7 438.5,-641.7"/>
<text text-anchor="start" x="460.3862" y="-647.8" font-family="Helvetica,sans-Serif" font-size="11.00" fill="#000000"> &#160;</text>
</a>
</g>
</g>
<!-- policy_number -->
<g id="node2" class="node">
<title>policy_number</title>
<g id="a_node2"><a xlink:href="../../tables/policy_number.html" xlink:title="policy_number" target="_top">
<polygon fill="#ffffff" stroke="transparent" points="27,-621.2 27,-704.2 209,-704.2 209,-621.2 27,-621.2"/>
<polygon fill="#f5f5f5" stroke="transparent" points="27,-680.7 27,-703.7 209,-703.7 209,-680.7 27,-680.7"/>
<polygon fill="none" stroke="#000000" points="27,-680.7 27,-703.7 209,-703.7 209,-680.7 27,-680.7"/>
<text text-anchor="start" x="32" y="-689.8" font-family="Helvetica,sans-Serif" font-weight="bold" font-size="11.00" fill="#000000">policy_number</text>
<text text-anchor="start" x="174.0437" y="-688.8" font-family="Helvetica,sans-Serif" font-size="11.00" fill="#000000">[table]</text>
<polygon fill="none" stroke="#000000" points="27,-658.7 27,-680.7 209,-680.7 209,-658.7 27,-658.7"/>
<image xlink:href="../../images/primaryKeys.png" width="11px" height="12px" preserveAspectRatio="xMinYMin meet" x="32" y="-675.7"/>
<text text-anchor="start" x="47" y="-665.8" font-family="Helvetica,sans-Serif" font-size="11.00" fill="#000000">id</text>
<polygon fill="none" stroke="#000000" points="27,-639.7 27,-658.7 209,-658.7 209,-639.7 27,-639.7"/>
<text text-anchor="start" x="30" y="-645.8" font-family="Helvetica,sans-Serif" font-size="11.00" fill="#000000">...</text>
<polygon fill="#ffffff" stroke="transparent" points="27,-620.7 27,-639.7 81,-639.7 81,-620.7 27,-620.7"/>
<polygon fill="none" stroke="#000000" points="27,-620.7 27,-639.7 81,-639.7 81,-620.7 27,-620.7"/>
<text text-anchor="start" x="30" y="-626.8" font-family="Helvetica,sans-Serif" font-size="11.00" fill="#000000"> &#160;</text>
<polygon fill="#ffffff" stroke="transparent" points="81,-620.7 81,-639.7 167,-639.7 167,-620.7 81,-620.7"/>
<polygon fill="none" stroke="#000000" points="81,-620.7 81,-639.7 167,-639.7 167,-620.7 81,-620.7"/>
<text text-anchor="start" x="104.094" y="-626.8" font-family="Helvetica,sans-Serif" font-size="11.00" fill="#000000">17,312 rows</text>
<polygon fill="#ffffff" stroke="transparent" points="167,-620.7 167,-639.7 209,-639.7 209,-620.7 167,-620.7"/>
<polygon fill="none" stroke="#000000" points="167,-620.7 167,-639.7 209,-639.7 209,-620.7 167,-620.7"/>
<text text-anchor="start" x="190.4053" y="-626.8" font-family="Helvetica,sans-Serif" font-size="11.00" fill="#000000">3 &gt;</text>
</a>
</g>
</g>
<!-- auth_entity_policy_number&#45;&gt;policy_number -->
<g id="edge1" class="edge">
<title>auth_entity_policy_number:w&#45;&gt;policy_number:e</title>
<path fill="none" stroke="#000000" d="M280.8315,-669.7C253.7822,-669.7 242.0382,-669.7 209,-669.7"/>
<polygon fill="#000000" stroke="#000000" points="287.5,-669.7001 295.5,-673.3 291.5,-669.7 295.5,-669.7 295.5,-669.7 295.5,-669.7 291.5,-669.7 295.5,-666.1 287.5,-669.7001 287.5,-669.7001"/>
<ellipse fill="none" stroke="#000000" cx="284.3" cy="-669.7001" rx="3.2" ry="3.2"/>
</g>
<!-- auth_entity_to_policy -->
<g id="node3" class="node">
<title>auth_entity_to_policy</title>
<g id="a_node3"><a xlink:href="../../tables/auth_entity_to_policy.html" xlink:title="auth_entity_to_policy" target="_top">
<polygon fill="#ffffff" stroke="transparent" points="309.5,-202.2 309.5,-263.2 455.5,-263.2 455.5,-202.2 309.5,-202.2"/>
<polygon fill="#f5f5f5" stroke="transparent" points="309.5,-239.7 309.5,-262.7 455.5,-262.7 455.5,-239.7 309.5,-239.7"/>
<polygon fill="none" stroke="#000000" points="309.5,-239.7 309.5,-262.7 455.5,-262.7 455.5,-239.7 309.5,-239.7"/>
<text text-anchor="start" x="314.3429" y="-248.8" font-family="Helvetica,sans-Serif" font-weight="bold" font-size="11.00" fill="#000000">auth_entity_to_policy</text>
<text text-anchor="start" x="421.0219" y="-247.8" font-family="Helvetica,sans-Serif" font-size="11.00" fill="#000000">[table]</text>
<polygon fill="none" stroke="#000000" points="309.5,-220.7 309.5,-239.7 455.5,-239.7 455.5,-220.7 309.5,-220.7"/>
<text text-anchor="start" x="312.5" y="-226.8" font-family="Helvetica,sans-Serif" font-size="11.00" fill="#000000">...</text>
<polygon fill="#ffffff" stroke="transparent" points="309.5,-201.7 309.5,-220.7 354.5,-220.7 354.5,-201.7 309.5,-201.7"/>
<polygon fill="none" stroke="#000000" points="309.5,-201.7 309.5,-220.7 354.5,-220.7 354.5,-201.7 309.5,-201.7"/>
<text text-anchor="start" x="312.5" y="-207.8" font-family="Helvetica,sans-Serif" font-size="11.00" fill="#000000">&lt; 2</text>
<polygon fill="#ffffff" stroke="transparent" points="354.5,-201.7 354.5,-220.7 431.5,-220.7 431.5,-201.7 354.5,-201.7"/>
<polygon fill="none" stroke="#000000" points="354.5,-201.7 354.5,-220.7 431.5,-220.7 431.5,-201.7 354.5,-201.7"/>
<text text-anchor="start" x="368.594" y="-207.8" font-family="Helvetica,sans-Serif" font-size="11.00" fill="#000000">41,840 rows</text>
<polygon fill="#ffffff" stroke="transparent" points="431.5,-201.7 431.5,-220.7 455.5,-220.7 455.5,-201.7 431.5,-201.7"/>
<polygon fill="none" stroke="#000000" points="431.5,-201.7 431.5,-220.7 455.5,-220.7 455.5,-201.7 431.5,-201.7"/>
<text text-anchor="start" x="446.3862" y="-207.8" font-family="Helvetica,sans-Serif" font-size="11.00" fill="#000000"> &#160;</text>
</a>
</g>
</g>
<!-- policy -->
<g id="node4" class="node">
<title>policy</title>
<g id="a_node4"><a xlink:href="../../tables/policy.html" xlink:title="policy" target="_top">
<polygon fill="#ffffff" stroke="transparent" points="8,-219.2 8,-346.2 228,-346.2 228,-219.2 8,-219.2"/>
<polygon fill="#f5f5f5" stroke="transparent" points="8,-322.7 8,-345.7 228,-345.7 228,-322.7 8,-322.7"/>
<polygon fill="none" stroke="#000000" points="8,-322.7 8,-345.7 228,-345.7 228,-322.7 8,-322.7"/>
<text text-anchor="start" x="13" y="-331.8" font-family="Helvetica,sans-Serif" font-weight="bold" font-size="11.00" fill="#000000">policy</text>
<text text-anchor="start" x="193.0437" y="-330.8" font-family="Helvetica,sans-Serif" font-size="11.00" fill="#000000">[table]</text>
<polygon fill="none" stroke="#000000" points="8,-300.7 8,-322.7 228,-322.7 228,-300.7 8,-300.7"/>
<image xlink:href="../../images/primaryKeys.png" width="11px" height="12px" preserveAspectRatio="xMinYMin meet" x="13" y="-317.7"/>
<text text-anchor="start" x="28" y="-307.8" font-family="Helvetica,sans-Serif" font-size="11.00" fill="#000000">id</text>
<polygon fill="#ffffff" stroke="transparent" points="8,-278.7 8,-300.7 228,-300.7 228,-278.7 8,-278.7"/>
<polygon fill="none" stroke="#000000" points="8,-278.7 8,-300.7 228,-300.7 228,-278.7 8,-278.7"/>
<text text-anchor="start" x="28" y="-285.8" font-family="Helvetica,sans-Serif" font-size="11.00" fill="#000000">primary_ph_measure</text>
<polygon fill="#ffffff" stroke="transparent" points="8,-256.7 8,-278.7 228,-278.7 228,-256.7 8,-256.7"/>
<polygon fill="none" stroke="#000000" points="8,-256.7 8,-278.7 228,-278.7 228,-256.7 8,-256.7"/>
<text text-anchor="start" x="28" y="-263.8" font-family="Helvetica,sans-Serif" font-size="11.00" fill="#000000">group_number</text>
<polygon fill="none" stroke="#000000" points="8,-237.7 8,-256.7 228,-256.7 228,-237.7 8,-237.7"/>
<text text-anchor="start" x="11" y="-243.8" font-family="Helvetica,sans-Serif" font-size="11.00" fill="#000000">...</text>
<polygon fill="#ffffff" stroke="transparent" points="8,-218.7 8,-237.7 81,-237.7 81,-218.7 8,-218.7"/>
<polygon fill="none" stroke="#000000" points="8,-218.7 8,-237.7 81,-237.7 81,-218.7 8,-218.7"/>
<text text-anchor="start" x="11" y="-224.8" font-family="Helvetica,sans-Serif" font-size="11.00" fill="#000000"> &#160;</text>
<polygon fill="#ffffff" stroke="transparent" points="81,-218.7 81,-237.7 176,-237.7 176,-218.7 81,-218.7"/>
<polygon fill="none" stroke="#000000" points="81,-218.7 81,-237.7 176,-237.7 176,-218.7 81,-218.7"/>
<text text-anchor="start" x="113.094" y="-224.8" font-family="Helvetica,sans-Serif" font-size="11.00" fill="#000000">40,812 rows</text>
<polygon fill="#ffffff" stroke="transparent" points="176,-218.7 176,-237.7 228,-237.7 228,-218.7 176,-218.7"/>
<polygon fill="none" stroke="#000000" points="176,-218.7 176,-237.7 228,-237.7 228,-218.7 176,-218.7"/>
<text text-anchor="start" x="209.4053" y="-224.8" font-family="Helvetica,sans-Serif" font-size="11.00" fill="#000000">8 &gt;</text>
</a>
</g>
</g>
<!-- auth_entity_to_policy&#45;&gt;policy -->
<g id="edge2" class="edge">
<title>auth_entity_to_policy:w&#45;&gt;policy:e</title>
<path fill="none" stroke="#000000" d="M295.057,-232.4283C261.8996,-246.6565 273.7633,-311.7 228,-311.7"/>
<polygon fill="#000000" stroke="#000000" points="301.639,-231.185 310.1682,-233.2374 305.5695,-230.4425 309.5,-229.7 309.5,-229.7 309.5,-229.7 305.5695,-230.4425 308.8318,-226.1626 301.639,-231.185 301.639,-231.185"/>
<ellipse fill="none" stroke="#000000" cx="298.4946" cy="-231.779" rx="3.2" ry="3.2"/>
</g>
<!-- file_to_policy -->
<g id="node5" class="node">
<title>file_to_policy</title>
<g id="a_node5"><a xlink:href="../../tables/file_to_policy.html" xlink:title="file_to_policy" target="_top">
<polygon fill="#ffffff" stroke="transparent" points="329.5,-120.2 329.5,-181.2 435.5,-181.2 435.5,-120.2 329.5,-120.2"/>
<polygon fill="#f5f5f5" stroke="transparent" points="329.5,-157.7 329.5,-180.7 435.5,-180.7 435.5,-157.7 329.5,-157.7"/>
<polygon fill="none" stroke="#000000" points="329.5,-157.7 329.5,-180.7 435.5,-180.7 435.5,-157.7 329.5,-157.7"/>
<text text-anchor="start" x="334.2166" y="-166.8" font-family="Helvetica,sans-Serif" font-weight="bold" font-size="11.00" fill="#000000">file_to_policy</text>
<text text-anchor="start" x="401.0219" y="-165.8" font-family="Helvetica,sans-Serif" font-size="11.00" fill="#000000">[table]</text>
<polygon fill="none" stroke="#000000" points="329.5,-138.7 329.5,-157.7 435.5,-157.7 435.5,-138.7 329.5,-138.7"/>
<text text-anchor="start" x="332.5" y="-144.8" font-family="Helvetica,sans-Serif" font-size="11.00" fill="#000000">...</text>
<polygon fill="#ffffff" stroke="transparent" points="329.5,-119.7 329.5,-138.7 354.5,-138.7 354.5,-119.7 329.5,-119.7"/>
<polygon fill="none" stroke="#000000" points="329.5,-119.7 329.5,-138.7 354.5,-138.7 354.5,-119.7 329.5,-119.7"/>
<text text-anchor="start" x="332.5" y="-125.8" font-family="Helvetica,sans-Serif" font-size="11.00" fill="#000000">&lt; 2</text>
<polygon fill="#ffffff" stroke="transparent" points="354.5,-119.7 354.5,-138.7 421.5,-138.7 421.5,-119.7 354.5,-119.7"/>
<polygon fill="none" stroke="#000000" points="354.5,-119.7 354.5,-138.7 421.5,-138.7 421.5,-119.7 354.5,-119.7"/>
<text text-anchor="start" x="358.594" y="-125.8" font-family="Helvetica,sans-Serif" font-size="11.00" fill="#000000">41,342 rows</text>
<polygon fill="#ffffff" stroke="transparent" points="421.5,-119.7 421.5,-138.7 435.5,-138.7 435.5,-119.7 421.5,-119.7"/>
<polygon fill="none" stroke="#000000" points="421.5,-119.7 421.5,-138.7 435.5,-138.7 435.5,-119.7 421.5,-119.7"/>
<text text-anchor="start" x="426.3862" y="-125.8" font-family="Helvetica,sans-Serif" font-size="11.00" fill="#000000"> &#160;</text>
</a>
</g>
</g>
<!-- file_to_policy&#45;&gt;policy -->
<g id="edge3" class="edge">
<title>file_to_policy:w&#45;&gt;policy:e</title>
<path fill="none" stroke="#000000" d="M315.0462,-149.0584C293.4575,-153.6145 285.5001,-169.3346 269,-191.7 235.5403,-237.0536 284.3604,-311.7 228,-311.7"/>
<polygon fill="#000000" stroke="#000000" points="321.5351,-148.4486 329.8369,-151.2842 325.5175,-148.0743 329.5,-147.7 329.5,-147.7 329.5,-147.7 325.5175,-148.0743 329.1631,-144.1158 321.5351,-148.4486 321.5351,-148.4486"/>
<ellipse fill="none" stroke="#000000" cx="318.3491" cy="-148.748" rx="3.2" ry="3.2"/>
</g>
<!-- place_policy_number -->
<g id="node6" class="node">
<title>place_policy_number</title>
<g id="a_node6"><a xlink:href="../../tables/place_policy_number.html" xlink:title="place_policy_number" target="_top">
<polygon fill="#ffffff" stroke="transparent" points="309.5,-724.2 309.5,-785.2 455.5,-785.2 455.5,-724.2 309.5,-724.2"/>
<polygon fill="#f5f5f5" stroke="transparent" points="309.5,-761.7 309.5,-784.7 455.5,-784.7 455.5,-761.7 309.5,-761.7"/>
<polygon fill="none" stroke="#000000" points="309.5,-761.7 309.5,-784.7 455.5,-784.7 455.5,-761.7 309.5,-761.7"/>
<text text-anchor="start" x="314.0448" y="-770.8" font-family="Helvetica,sans-Serif" font-weight="bold" font-size="11.00" fill="#000000">place_policy_number</text>
<text text-anchor="start" x="421.0219" y="-769.8" font-family="Helvetica,sans-Serif" font-size="11.00" fill="#000000">[table]</text>
<polygon fill="none" stroke="#000000" points="309.5,-742.7 309.5,-761.7 455.5,-761.7 455.5,-742.7 309.5,-742.7"/>
<text text-anchor="start" x="312.5" y="-748.8" font-family="Helvetica,sans-Serif" font-size="11.00" fill="#000000">...</text>
<polygon fill="#ffffff" stroke="transparent" points="309.5,-723.7 309.5,-742.7 354.5,-742.7 354.5,-723.7 309.5,-723.7"/>
<polygon fill="none" stroke="#000000" points="309.5,-723.7 309.5,-742.7 354.5,-742.7 354.5,-723.7 309.5,-723.7"/>
<text text-anchor="start" x="312.5" y="-729.8" font-family="Helvetica,sans-Serif" font-size="11.00" fill="#000000">&lt; 2</text>
<polygon fill="#ffffff" stroke="transparent" points="354.5,-723.7 354.5,-742.7 431.5,-742.7 431.5,-723.7 354.5,-723.7"/>
<polygon fill="none" stroke="#000000" points="354.5,-723.7 354.5,-742.7 431.5,-742.7 431.5,-723.7 354.5,-723.7"/>
<text text-anchor="start" x="368.594" y="-729.8" font-family="Helvetica,sans-Serif" font-size="11.00" fill="#000000">32,150 rows</text>
<polygon fill="#ffffff" stroke="transparent" points="431.5,-723.7 431.5,-742.7 455.5,-742.7 455.5,-723.7 431.5,-723.7"/>
<polygon fill="none" stroke="#000000" points="431.5,-723.7 431.5,-742.7 455.5,-742.7 455.5,-723.7 431.5,-723.7"/>
<text text-anchor="start" x="446.3862" y="-729.8" font-family="Helvetica,sans-Serif" font-size="11.00" fill="#000000"> &#160;</text>
</a>
</g>
</g>
<!-- place_policy_number&#45;&gt;policy_number -->
<g id="edge4" class="edge">
<title>place_policy_number:w&#45;&gt;policy_number:e</title>
<path fill="none" stroke="#000000" d="M295.0772,-749.673C253.9894,-737.0457 261.2436,-669.7 209,-669.7"/>
<polygon fill="#000000" stroke="#000000" points="301.5779,-750.5866 308.999,-755.265 305.5389,-751.1433 309.5,-751.7 309.5,-751.7 309.5,-751.7 305.5389,-751.1433 310.001,-748.135 301.5779,-750.5866 301.5779,-750.5866"/>
<ellipse fill="none" stroke="#000000" cx="298.409" cy="-750.1412" rx="3.2" ry="3.2"/>
</g>
<!-- place_to_policy -->
<g id="node7" class="node">
<title>place_to_policy</title>
<g id="a_node7"><a xlink:href="../../tables/place_to_policy.html" xlink:title="place_to_policy" target="_top">
<polygon fill="#ffffff" stroke="transparent" points="323.5,-38.2 323.5,-99.2 441.5,-99.2 441.5,-38.2 323.5,-38.2"/>
<polygon fill="#f5f5f5" stroke="transparent" points="323.5,-75.7 323.5,-98.7 441.5,-98.7 441.5,-75.7 323.5,-75.7"/>
<polygon fill="none" stroke="#000000" points="323.5,-75.7 323.5,-98.7 441.5,-98.7 441.5,-75.7 323.5,-75.7"/>
<text text-anchor="start" x="328.1006" y="-84.8" font-family="Helvetica,sans-Serif" font-weight="bold" font-size="11.00" fill="#000000">place_to_policy</text>
<text text-anchor="start" x="407.0219" y="-83.8" font-family="Helvetica,sans-Serif" font-size="11.00" fill="#000000">[table]</text>
<polygon fill="none" stroke="#000000" points="323.5,-56.7 323.5,-75.7 441.5,-75.7 441.5,-56.7 323.5,-56.7"/>
<text text-anchor="start" x="326.5" y="-62.8" font-family="Helvetica,sans-Serif" font-size="11.00" fill="#000000">...</text>
<polygon fill="#ffffff" stroke="transparent" points="323.5,-37.7 323.5,-56.7 350.5,-56.7 350.5,-37.7 323.5,-37.7"/>
<polygon fill="none" stroke="#000000" points="323.5,-37.7 323.5,-56.7 350.5,-56.7 350.5,-37.7 323.5,-37.7"/>
<text text-anchor="start" x="326.5" y="-43.8" font-family="Helvetica,sans-Serif" font-size="11.00" fill="#000000">&lt; 2</text>
<polygon fill="#ffffff" stroke="transparent" points="350.5,-37.7 350.5,-56.7 425.5,-56.7 425.5,-37.7 350.5,-37.7"/>
<polygon fill="none" stroke="#000000" points="350.5,-37.7 350.5,-56.7 425.5,-56.7 425.5,-37.7 350.5,-37.7"/>
<text text-anchor="start" x="356.4791" y="-43.8" font-family="Helvetica,sans-Serif" font-size="11.00" fill="#000000">994,786 rows</text>
<polygon fill="#ffffff" stroke="transparent" points="425.5,-37.7 425.5,-56.7 441.5,-56.7 441.5,-37.7 425.5,-37.7"/>
<polygon fill="none" stroke="#000000" points="425.5,-37.7 425.5,-56.7 441.5,-56.7 441.5,-37.7 425.5,-37.7"/>
<text text-anchor="start" x="432.3862" y="-43.8" font-family="Helvetica,sans-Serif" font-size="11.00" fill="#000000"> &#160;</text>
</a>
</g>
</g>
<!-- place_to_policy&#45;&gt;policy -->
<g id="edge5" class="edge">
<title>place_to_policy:w&#45;&gt;policy:e</title>
<path fill="none" stroke="#000000" d="M309.1225,-67.2679C289.559,-72.0997 282.3222,-87.7708 269,-109.7 221.4363,-187.993 319.6084,-311.7 228,-311.7"/>
<polygon fill="#000000" stroke="#000000" points="315.5472,-66.5673 323.8903,-69.2788 319.5236,-66.1337 323.5,-65.7 323.5,-65.7 323.5,-65.7 319.5236,-66.1337 323.1097,-62.1212 315.5472,-66.5673 315.5472,-66.5673"/>
<ellipse fill="none" stroke="#000000" cx="312.366" cy="-66.9143" rx="3.2" ry="3.2"/>
</g>
<!-- plan -->
<g id="node8" class="node">
<title>plan</title>
<g id="a_node8"><a xlink:href="../../tables/plan.html" xlink:title="plan" target="_top">
<polygon fill="#ffffff" stroke="transparent" points="336.5,-448.2 336.5,-509.2 428.5,-509.2 428.5,-448.2 336.5,-448.2"/>
<polygon fill="#f5f5f5" stroke="transparent" points="336.5,-485.7 336.5,-508.7 428.5,-508.7 428.5,-485.7 336.5,-485.7"/>
<polygon fill="none" stroke="#000000" points="336.5,-485.7 336.5,-508.7 428.5,-508.7 428.5,-485.7 336.5,-485.7"/>
<text text-anchor="start" x="341.5" y="-494.8" font-family="Helvetica,sans-Serif" font-weight="bold" font-size="11.00" fill="#000000">plan</text>
<text text-anchor="start" x="393.5437" y="-493.8" font-family="Helvetica,sans-Serif" font-size="11.00" fill="#000000">[table]</text>
<polygon fill="none" stroke="#000000" points="336.5,-466.7 336.5,-485.7 428.5,-485.7 428.5,-466.7 336.5,-466.7"/>
<text text-anchor="start" x="339.5" y="-472.8" font-family="Helvetica,sans-Serif" font-size="11.00" fill="#000000">...</text>
<polygon fill="#ffffff" stroke="transparent" points="336.5,-447.7 336.5,-466.7 357.5,-466.7 357.5,-447.7 336.5,-447.7"/>
<polygon fill="none" stroke="#000000" points="336.5,-447.7 336.5,-466.7 357.5,-466.7 357.5,-447.7 336.5,-447.7"/>
<text text-anchor="start" x="339.2027" y="-453.8" font-family="Helvetica,sans-Serif" font-size="11.00" fill="#000000">&lt; 1</text>
<polygon fill="#ffffff" stroke="transparent" points="357.5,-447.7 357.5,-466.7 407.5,-466.7 407.5,-447.7 357.5,-447.7"/>
<polygon fill="none" stroke="#000000" points="357.5,-447.7 357.5,-466.7 407.5,-466.7 407.5,-447.7 357.5,-447.7"/>
<text text-anchor="start" x="360.1904" y="-453.8" font-family="Helvetica,sans-Serif" font-size="11.00" fill="#000000">493 rows</text>
<polygon fill="#ffffff" stroke="transparent" points="407.5,-447.7 407.5,-466.7 428.5,-466.7 428.5,-447.7 407.5,-447.7"/>
<polygon fill="none" stroke="#000000" points="407.5,-447.7 407.5,-466.7 428.5,-466.7 428.5,-447.7 407.5,-447.7"/>
<text text-anchor="start" x="410.2027" y="-453.8" font-family="Helvetica,sans-Serif" font-size="11.00" fill="#000000">3 &gt;</text>
</a>
</g>
</g>
<!-- plan&#45;&gt;policy -->
<g id="edge6" class="edge">
<title>plan:w&#45;&gt;policy:e</title>
<path fill="none" stroke="#000000" d="M321.9306,-474.8525C298.2973,-471.7749 287.4076,-460.171 269,-437.7 231.6815,-392.1437 286.8901,-311.7 228,-311.7"/>
<polygon fill="#000000" stroke="#000000" points="328.5135,-475.2354 336.2909,-479.2939 332.5067,-475.4677 336.5,-475.7 336.5,-475.7 336.5,-475.7 332.5067,-475.4677 336.7091,-472.1061 328.5135,-475.2354 328.5135,-475.2354"/>
<ellipse fill="none" stroke="#000000" cx="325.3189" cy="-475.0496" rx="3.2" ry="3.2"/>
</g>
<!-- policies_to_court_challenges -->
<g id="node9" class="node">
<title>policies_to_court_challenges</title>
<g id="a_node9"><a xlink:href="../../tables/policies_to_court_challenges.html" xlink:title="policies_to_court_challenges" target="_top">
<polygon fill="#ffffff" stroke="transparent" points="290.5,-366.2 290.5,-427.2 474.5,-427.2 474.5,-366.2 290.5,-366.2"/>
<polygon fill="#f5f5f5" stroke="transparent" points="290.5,-403.7 290.5,-426.7 474.5,-426.7 474.5,-403.7 290.5,-403.7"/>
<polygon fill="none" stroke="#000000" points="290.5,-403.7 290.5,-426.7 474.5,-426.7 474.5,-403.7 290.5,-403.7"/>
<text text-anchor="start" x="295.3982" y="-412.8" font-family="Helvetica,sans-Serif" font-weight="bold" font-size="11.00" fill="#000000">policies_to_court_challenges</text>
<text text-anchor="start" x="440.0219" y="-411.8" font-family="Helvetica,sans-Serif" font-size="11.00" fill="#000000">[table]</text>
<polygon fill="none" stroke="#000000" points="290.5,-384.7 290.5,-403.7 474.5,-403.7 474.5,-384.7 290.5,-384.7"/>
<text text-anchor="start" x="293.5" y="-390.8" font-family="Helvetica,sans-Serif" font-size="11.00" fill="#000000">...</text>
<polygon fill="#ffffff" stroke="transparent" points="290.5,-365.7 290.5,-384.7 367.5,-384.7 367.5,-365.7 290.5,-365.7"/>
<polygon fill="none" stroke="#000000" points="290.5,-365.7 290.5,-384.7 367.5,-384.7 367.5,-365.7 290.5,-365.7"/>
<text text-anchor="start" x="293.5" y="-371.8" font-family="Helvetica,sans-Serif" font-size="11.00" fill="#000000">&lt; 2</text>
<polygon fill="#ffffff" stroke="transparent" points="367.5,-365.7 367.5,-384.7 433.5,-384.7 433.5,-365.7 367.5,-365.7"/>
<polygon fill="none" stroke="#000000" points="367.5,-365.7 367.5,-384.7 433.5,-384.7 433.5,-365.7 367.5,-365.7"/>
<text text-anchor="start" x="398.1105" y="-371.8" font-family="Helvetica,sans-Serif" font-size="11.00" fill="#000000">0 rows</text>
<polygon fill="#ffffff" stroke="transparent" points="433.5,-365.7 433.5,-384.7 474.5,-384.7 474.5,-365.7 433.5,-365.7"/>
<polygon fill="none" stroke="#000000" points="433.5,-365.7 433.5,-384.7 474.5,-384.7 474.5,-365.7 433.5,-365.7"/>
<text text-anchor="start" x="465.3862" y="-371.8" font-family="Helvetica,sans-Serif" font-size="11.00" fill="#000000"> &#160;</text>
</a>
</g>
</g>
<!-- policies_to_court_challenges&#45;&gt;policy -->
<g id="edge7" class="edge">
<title>policies_to_court_challenges:w&#45;&gt;policy:e</title>
<path fill="none" stroke="#000000" d="M276.5376,-390.1766C250.7918,-374.4813 268.0957,-311.7 228,-311.7"/>
<polygon fill="#000000" stroke="#000000" points="282.7432,-391.7425 289.6191,-397.1906 286.6216,-392.7213 290.5,-393.7 290.5,-393.7 290.5,-393.7 286.6216,-392.7213 291.3809,-390.2094 282.7432,-391.7425 282.7432,-391.7425"/>
<ellipse fill="none" stroke="#000000" cx="279.6404" cy="-390.9595" rx="3.2" ry="3.2"/>
</g>
<!-- policy_number_to_policy -->
<g id="node10" class="node">
<title>policy_number_to_policy</title>
<g id="a_node10"><a xlink:href="../../tables/policy_number_to_policy.html" xlink:title="policy_number_to_policy" target="_top">
<polygon fill="#ffffff" stroke="transparent" points="277,-530.7 277,-620.7 488,-620.7 488,-530.7 277,-530.7"/>
<polygon fill="#f5f5f5" stroke="transparent" points="279.5,-595.7 279.5,-618.7 486.5,-618.7 486.5,-595.7 279.5,-595.7"/>
<polygon fill="none" stroke="#000000" points="279.5,-595.7 279.5,-618.7 486.5,-618.7 486.5,-595.7 279.5,-595.7"/>
<text text-anchor="start" x="284.5" y="-604.8" font-family="Helvetica,sans-Serif" font-weight="bold" font-size="11.00" fill="#000000">policy_number_to_policy</text>
<text text-anchor="start" x="451.5437" y="-603.8" font-family="Helvetica,sans-Serif" font-size="11.00" fill="#000000">[table]</text>
<polygon fill="none" stroke="#000000" points="279.5,-573.7 279.5,-595.7 444.5,-595.7 444.5,-573.7 279.5,-573.7"/>
<image xlink:href="../../images/primaryKeys.png" width="11px" height="12px" preserveAspectRatio="xMinYMin meet" x="284.5" y="-590.7"/>
<text text-anchor="start" x="299.5" y="-580.8" font-family="Helvetica,sans-Serif" font-size="11.00" fill="#000000">policy</text>
<polygon fill="none" stroke="#000000" points="444.5,-573.7 444.5,-595.7 486.5,-595.7 486.5,-573.7 444.5,-573.7"/>
<text text-anchor="start" x="447.4644" y="-581.4" font-family="Helvetica,sans-Serif" font-size="11.00" fill="#000000">int4[10]</text>
<polygon fill="none" stroke="#000000" points="279.5,-551.7 279.5,-573.7 444.5,-573.7 444.5,-551.7 279.5,-551.7"/>
<image xlink:href="../../images/primaryKeys.png" width="11px" height="12px" preserveAspectRatio="xMinYMin meet" x="284.5" y="-568.7"/>
<text text-anchor="start" x="299.5" y="-558.8" font-family="Helvetica,sans-Serif" font-size="11.00" fill="#000000">policy_number</text>
<polygon fill="none" stroke="#000000" points="444.5,-551.7 444.5,-573.7 486.5,-573.7 486.5,-551.7 444.5,-551.7"/>
<text text-anchor="start" x="447.4644" y="-559.4" font-family="Helvetica,sans-Serif" font-size="11.00" fill="#000000">int4[10]</text>
<polygon fill="#ffffff" stroke="transparent" points="279.5,-532.7 279.5,-551.7 339.5,-551.7 339.5,-532.7 279.5,-532.7"/>
<polygon fill="none" stroke="#000000" points="279.5,-532.7 279.5,-551.7 339.5,-551.7 339.5,-532.7 279.5,-532.7"/>
<text text-anchor="start" x="282.5" y="-538.8" font-family="Helvetica,sans-Serif" font-size="11.00" fill="#000000">&lt; 2</text>
<polygon fill="#ffffff" stroke="transparent" points="339.5,-532.7 339.5,-551.7 444.5,-551.7 444.5,-532.7 339.5,-532.7"/>
<polygon fill="none" stroke="#000000" points="339.5,-532.7 339.5,-551.7 444.5,-551.7 444.5,-532.7 339.5,-532.7"/>
<text text-anchor="start" x="381.594" y="-538.8" font-family="Helvetica,sans-Serif" font-size="11.00" fill="#000000">40,812 rows</text>
<polygon fill="#ffffff" stroke="transparent" points="444.5,-532.7 444.5,-551.7 486.5,-551.7 486.5,-532.7 444.5,-532.7"/>
<polygon fill="none" stroke="#000000" points="444.5,-532.7 444.5,-551.7 486.5,-551.7 486.5,-532.7 444.5,-532.7"/>
<text text-anchor="start" x="467.9053" y="-538.8" font-family="Helvetica,sans-Serif" font-size="11.00" fill="#000000">0 &gt;</text>
<polygon fill="none" stroke="#000000" stroke-width="2" points="278,-531.7 278,-619.7 487,-619.7 487,-531.7 278,-531.7"/>
</a>
</g>
</g>
<!-- policy_number_to_policy&#45;&gt;policy_number -->
<g id="edge9" class="edge">
<title>policy_number_to_policy:w&#45;&gt;policy_number:e</title>
<path fill="none" stroke="#000000" d="M265.0431,-565.7869C230.3305,-583.3307 260.1661,-669.7 209,-669.7"/>
<polygon fill="#000000" stroke="#000000" points="271.6764,-564.3706 280.2518,-566.2206 275.5882,-563.5353 279.5,-562.7 279.5,-562.7 279.5,-562.7 275.5882,-563.5353 278.7482,-559.1794 271.6764,-564.3706 271.6764,-564.3706"/>
<ellipse fill="none" stroke="#000000" cx="268.5469" cy="-565.0388" rx="3.2" ry="3.2"/>
</g>
<!-- policy_number_to_policy&#45;&gt;policy -->
<g id="edge8" class="edge">
<title>policy_number_to_policy:w&#45;&gt;policy:e</title>
<path fill="none" stroke="#000000" d="M266.1388,-578.7441C229.382,-538.8206 284.3106,-311.7 228,-311.7"/>
<polygon fill="#000000" stroke="#000000" points="272.1931,-581.4428 278.0343,-587.9881 275.8465,-583.0714 279.5,-584.7 279.5,-584.7 279.5,-584.7 275.8465,-583.0714 280.9657,-581.4119 272.1931,-581.4428 272.1931,-581.4428"/>
<ellipse fill="none" stroke="#000000" cx="269.2703" cy="-580.14" rx="3.2" ry="3.2"/>
</g>
<!-- policy_to_prior_policy -->
<g id="node11" class="node">
<title>policy_to_prior_policy</title>
<g id="a_node11"><a xlink:href="../../tables/policy_to_prior_policy.html" xlink:title="policy_to_prior_policy" target="_top">
<polygon fill="#ffffff" stroke="transparent" points="308.5,-284.2 308.5,-345.2 456.5,-345.2 456.5,-284.2 308.5,-284.2"/>
<polygon fill="#f5f5f5" stroke="transparent" points="308.5,-321.7 308.5,-344.7 456.5,-344.7 456.5,-321.7 308.5,-321.7"/>
<polygon fill="none" stroke="#000000" points="308.5,-321.7 308.5,-344.7 456.5,-344.7 456.5,-321.7 308.5,-321.7"/>
<text text-anchor="start" x="313.1329" y="-330.8" font-family="Helvetica,sans-Serif" font-weight="bold" font-size="11.00" fill="#000000">policy_to_prior_policy</text>
<text text-anchor="start" x="422.0219" y="-329.8" font-family="Helvetica,sans-Serif" font-size="11.00" fill="#000000">[table]</text>
<polygon fill="none" stroke="#000000" points="308.5,-302.7 308.5,-321.7 456.5,-321.7 456.5,-302.7 308.5,-302.7"/>
<text text-anchor="start" x="311.5" y="-308.8" font-family="Helvetica,sans-Serif" font-size="11.00" fill="#000000">...</text>
<polygon fill="#ffffff" stroke="transparent" points="308.5,-283.7 308.5,-302.7 354.5,-302.7 354.5,-283.7 308.5,-283.7"/>
<polygon fill="none" stroke="#000000" points="308.5,-283.7 308.5,-302.7 354.5,-302.7 354.5,-283.7 308.5,-283.7"/>
<text text-anchor="start" x="311.5" y="-289.8" font-family="Helvetica,sans-Serif" font-size="11.00" fill="#000000">&lt; 2</text>
<polygon fill="#ffffff" stroke="transparent" points="354.5,-283.7 354.5,-302.7 431.5,-302.7 431.5,-283.7 354.5,-283.7"/>
<polygon fill="none" stroke="#000000" points="354.5,-283.7 354.5,-302.7 431.5,-302.7 431.5,-283.7 354.5,-283.7"/>
<text text-anchor="start" x="368.594" y="-289.8" font-family="Helvetica,sans-Serif" font-size="11.00" fill="#000000">35,976 rows</text>
<polygon fill="#ffffff" stroke="transparent" points="431.5,-283.7 431.5,-302.7 456.5,-302.7 456.5,-283.7 431.5,-283.7"/>
<polygon fill="none" stroke="#000000" points="431.5,-283.7 431.5,-302.7 456.5,-302.7 456.5,-283.7 431.5,-283.7"/>
<text text-anchor="start" x="447.3862" y="-289.8" font-family="Helvetica,sans-Serif" font-size="11.00" fill="#000000"> &#160;</text>
</a>
</g>
</g>
<!-- policy_to_prior_policy&#45;&gt;policy -->
<g id="edge10" class="edge">
<title>policy_to_prior_policy:w&#45;&gt;policy:e</title>
<path fill="none" stroke="#000000" d="M294.1659,-309.4247C269.4756,-305.8322 258.467,-306.5906 228,-311.7"/>
<polygon fill="#000000" stroke="#000000" points="300.5989,-310.4458 307.9356,-315.2555 304.5495,-311.0729 308.5,-311.7 308.5,-311.7 308.5,-311.7 304.5495,-311.0729 309.0644,-308.1445 300.5989,-310.4458 300.5989,-310.4458"/>
<ellipse fill="none" stroke="#000000" cx="297.4385" cy="-309.9441" rx="3.2" ry="3.2"/>
</g>
<!-- policy_to_prior_policy&#45;&gt;policy -->
<g id="edge11" class="edge">
<title>policy_to_prior_policy:w&#45;&gt;policy:e</title>
<path fill="none" stroke="#000000" d="M294.1659,-314.3545C269.4756,-318.5458 258.467,-317.6609 228,-311.7"/>
<polygon fill="#000000" stroke="#000000" points="300.6337,-313.1568 309.1555,-315.2398 304.5669,-312.4284 308.5,-311.7 308.5,-311.7 308.5,-311.7 304.5669,-312.4284 307.8445,-308.1602 300.6337,-313.1568 300.6337,-313.1568"/>
<ellipse fill="none" stroke="#000000" cx="297.4872" cy="-313.7395" rx="3.2" ry="3.2"/>
</g>
</g>
</svg>
