<?xml version="1.0" encoding="UTF-8" standalone="no"?>
<!DOCTYPE svg PUBLIC "-//W3C//DTD SVG 1.1//EN"
 "http://www.w3.org/Graphics/SVG/1.1/DTD/svg11.dtd">
<!-- Generated by graphviz version 2.40.1 (20161225.0304)
 -->
<!-- Title: twoDegreesRelationshipsDiagram Pages: 1 -->
<svg width="488pt" height="633pt"
 viewBox="0.00 0.00 488.00 632.70" xmlns="http://www.w3.org/2000/svg" xmlns:xlink="http://www.w3.org/1999/xlink">
<g id="graph0" class="graph" transform="scale(1 1) rotate(0) translate(4 628.7)">
<title>twoDegreesRelationshipsDiagram</title>
<polygon fill="#ffffff" stroke="transparent" points="-4,4 -4,-628.7 484,-628.7 484,4 -4,4"/>
<text text-anchor="middle" x="72.4936" y="-7.3" font-family="Helvetica,sans-Serif" font-size="11.00" fill="#000000">Generated by SchemaSpy</text>
<!-- auth_entity_to_policy -->
<g id="node1" class="node">
<title>auth_entity_to_policy</title>
<g id="a_node1"><a xlink:href="../../tables/auth_entity_to_policy.html" xlink:title="auth_entity_to_policy" target="_top">
<polygon fill="#ffffff" stroke="transparent" points="301.5,-559.7 301.5,-620.7 447.5,-620.7 447.5,-559.7 301.5,-559.7"/>
<polygon fill="#f5f5f5" stroke="transparent" points="301.5,-597.2 301.5,-620.2 447.5,-620.2 447.5,-597.2 301.5,-597.2"/>
<polygon fill="none" stroke="#000000" points="301.5,-597.2 301.5,-620.2 447.5,-620.2 447.5,-597.2 301.5,-597.2"/>
<text text-anchor="start" x="306.3429" y="-606.3" font-family="Helvetica,sans-Serif" font-weight="bold" font-size="11.00" fill="#000000">auth_entity_to_policy</text>
<text text-anchor="start" x="413.0219" y="-605.3" font-family="Helvetica,sans-Serif" font-size="11.00" fill="#000000">[table]</text>
<polygon fill="none" stroke="#000000" points="301.5,-578.2 301.5,-597.2 447.5,-597.2 447.5,-578.2 301.5,-578.2"/>
<text text-anchor="start" x="304.5" y="-584.3" font-family="Helvetica,sans-Serif" font-size="11.00" fill="#000000">...</text>
<polygon fill="#ffffff" stroke="transparent" points="301.5,-559.2 301.5,-578.2 346.5,-578.2 346.5,-559.2 301.5,-559.2"/>
<polygon fill="none" stroke="#000000" points="301.5,-559.2 301.5,-578.2 346.5,-578.2 346.5,-559.2 301.5,-559.2"/>
<text text-anchor="start" x="304.5" y="-565.3" font-family="Helvetica,sans-Serif" font-size="11.00" fill="#000000">&lt; 2</text>
<polygon fill="#ffffff" stroke="transparent" points="346.5,-559.2 346.5,-578.2 423.5,-578.2 423.5,-559.2 346.5,-559.2"/>
<polygon fill="none" stroke="#000000" points="346.5,-559.2 346.5,-578.2 423.5,-578.2 423.5,-559.2 346.5,-559.2"/>
<text text-anchor="start" x="360.594" y="-565.3" font-family="Helvetica,sans-Serif" font-size="11.00" fill="#000000">41,978 rows</text>
<polygon fill="#ffffff" stroke="transparent" points="423.5,-559.2 423.5,-578.2 447.5,-578.2 447.5,-559.2 423.5,-559.2"/>
<polygon fill="none" stroke="#000000" points="423.5,-559.2 423.5,-578.2 447.5,-578.2 447.5,-559.2 423.5,-559.2"/>
<text text-anchor="start" x="438.3862" y="-565.3" font-family="Helvetica,sans-Serif" font-size="11.00" fill="#000000"> &#160;</text>
</a>
</g>
</g>
<!-- policy -->
<g id="node2" class="node">
<title>policy</title>
<g id="a_node2"><a xlink:href="../../tables/policy.html" xlink:title="policy" target="_top">
<polygon fill="#ffffff" stroke="transparent" points="8,-207.7 8,-334.7 228,-334.7 228,-207.7 8,-207.7"/>
<polygon fill="#f5f5f5" stroke="transparent" points="8,-311.2 8,-334.2 228,-334.2 228,-311.2 8,-311.2"/>
<polygon fill="none" stroke="#000000" points="8,-311.2 8,-334.2 228,-334.2 228,-311.2 8,-311.2"/>
<text text-anchor="start" x="13" y="-320.3" font-family="Helvetica,sans-Serif" font-weight="bold" font-size="11.00" fill="#000000">policy</text>
<text text-anchor="start" x="193.0437" y="-319.3" font-family="Helvetica,sans-Serif" font-size="11.00" fill="#000000">[table]</text>
<polygon fill="none" stroke="#000000" points="8,-289.2 8,-311.2 228,-311.2 228,-289.2 8,-289.2"/>
<image xlink:href="../../images/primaryKeys.png" width="11px" height="12px" preserveAspectRatio="xMinYMin meet" x="13" y="-306.2"/>
<text text-anchor="start" x="28" y="-296.3" font-family="Helvetica,sans-Serif" font-size="11.00" fill="#000000">id</text>
<polygon fill="#ffffff" stroke="transparent" points="8,-267.2 8,-289.2 228,-289.2 228,-267.2 8,-267.2"/>
<polygon fill="none" stroke="#000000" points="8,-267.2 8,-289.2 228,-289.2 228,-267.2 8,-267.2"/>
<text text-anchor="start" x="28" y="-274.3" font-family="Helvetica,sans-Serif" font-size="11.00" fill="#000000">primary_ph_measure</text>
<polygon fill="#ffffff" stroke="transparent" points="8,-245.2 8,-267.2 228,-267.2 228,-245.2 8,-245.2"/>
<polygon fill="none" stroke="#000000" points="8,-245.2 8,-267.2 228,-267.2 228,-245.2 8,-245.2"/>
<text text-anchor="start" x="28" y="-252.3" font-family="Helvetica,sans-Serif" font-size="11.00" fill="#000000">group_number</text>
<polygon fill="none" stroke="#000000" points="8,-226.2 8,-245.2 228,-245.2 228,-226.2 8,-226.2"/>
<text text-anchor="start" x="11" y="-232.3" font-family="Helvetica,sans-Serif" font-size="11.00" fill="#000000">...</text>
<polygon fill="#ffffff" stroke="transparent" points="8,-207.2 8,-226.2 81,-226.2 81,-207.2 8,-207.2"/>
<polygon fill="none" stroke="#000000" points="8,-207.2 8,-226.2 81,-226.2 81,-207.2 8,-207.2"/>
<text text-anchor="start" x="11" y="-213.3" font-family="Helvetica,sans-Serif" font-size="11.00" fill="#000000"> &#160;</text>
<polygon fill="#ffffff" stroke="transparent" points="81,-207.2 81,-226.2 176,-226.2 176,-207.2 81,-207.2"/>
<polygon fill="none" stroke="#000000" points="81,-207.2 81,-226.2 176,-226.2 176,-207.2 81,-207.2"/>
<text text-anchor="start" x="113.094" y="-213.3" font-family="Helvetica,sans-Serif" font-size="11.00" fill="#000000">40,950 rows</text>
<polygon fill="#ffffff" stroke="transparent" points="176,-207.2 176,-226.2 228,-226.2 228,-207.2 176,-207.2"/>
<polygon fill="none" stroke="#000000" points="176,-207.2 176,-226.2 228,-226.2 228,-207.2 176,-207.2"/>
<text text-anchor="start" x="209.4053" y="-213.3" font-family="Helvetica,sans-Serif" font-size="11.00" fill="#000000">8 &gt;</text>
</a>
</g>
</g>
<!-- auth_entity_to_policy&#45;&gt;policy -->
<g id="edge1" class="edge">
<title>auth_entity_to_policy:w&#45;&gt;policy:e</title>
<path fill="none" stroke="#000000" d="M287.4429,-583.5141C278.1491,-577.2664 275.8098,-563.8404 269,-549.2 245.3493,-498.3529 284.0784,-300.2 228,-300.2"/>
<polygon fill="#000000" stroke="#000000" points="293.7616,-585.1709 300.5869,-590.6823 297.6308,-586.1854 301.5,-587.2 301.5,-587.2 301.5,-587.2 297.6308,-586.1854 302.4131,-583.7177 293.7616,-585.1709 293.7616,-585.1709"/>
<ellipse fill="none" stroke="#000000" cx="290.6662" cy="-584.3592" rx="3.2" ry="3.2"/>
</g>
<!-- file_to_policy -->
<g id="node3" class="node">
<title>file_to_policy</title>
<g id="a_node3"><a xlink:href="../../tables/file_to_policy.html" xlink:title="file_to_policy" target="_top">
<polygon fill="#ffffff" stroke="transparent" points="321.5,-477.7 321.5,-538.7 427.5,-538.7 427.5,-477.7 321.5,-477.7"/>
<polygon fill="#f5f5f5" stroke="transparent" points="321.5,-515.2 321.5,-538.2 427.5,-538.2 427.5,-515.2 321.5,-515.2"/>
<polygon fill="none" stroke="#000000" points="321.5,-515.2 321.5,-538.2 427.5,-538.2 427.5,-515.2 321.5,-515.2"/>
<text text-anchor="start" x="326.2166" y="-524.3" font-family="Helvetica,sans-Serif" font-weight="bold" font-size="11.00" fill="#000000">file_to_policy</text>
<text text-anchor="start" x="393.0219" y="-523.3" font-family="Helvetica,sans-Serif" font-size="11.00" fill="#000000">[table]</text>
<polygon fill="none" stroke="#000000" points="321.5,-496.2 321.5,-515.2 427.5,-515.2 427.5,-496.2 321.5,-496.2"/>
<text text-anchor="start" x="324.5" y="-502.3" font-family="Helvetica,sans-Serif" font-size="11.00" fill="#000000">...</text>
<polygon fill="#ffffff" stroke="transparent" points="321.5,-477.2 321.5,-496.2 346.5,-496.2 346.5,-477.2 321.5,-477.2"/>
<polygon fill="none" stroke="#000000" points="321.5,-477.2 321.5,-496.2 346.5,-496.2 346.5,-477.2 321.5,-477.2"/>
<text text-anchor="start" x="324.5" y="-483.3" font-family="Helvetica,sans-Serif" font-size="11.00" fill="#000000">&lt; 2</text>
<polygon fill="#ffffff" stroke="transparent" points="346.5,-477.2 346.5,-496.2 413.5,-496.2 413.5,-477.2 346.5,-477.2"/>
<polygon fill="none" stroke="#000000" points="346.5,-477.2 346.5,-496.2 413.5,-496.2 413.5,-477.2 346.5,-477.2"/>
<text text-anchor="start" x="350.594" y="-483.3" font-family="Helvetica,sans-Serif" font-size="11.00" fill="#000000">41,366 rows</text>
<polygon fill="#ffffff" stroke="transparent" points="413.5,-477.2 413.5,-496.2 427.5,-496.2 427.5,-477.2 413.5,-477.2"/>
<polygon fill="none" stroke="#000000" points="413.5,-477.2 413.5,-496.2 427.5,-496.2 427.5,-477.2 413.5,-477.2"/>
<text text-anchor="start" x="418.3862" y="-483.3" font-family="Helvetica,sans-Serif" font-size="11.00" fill="#000000"> &#160;</text>
</a>
</g>
</g>
<!-- file_to_policy&#45;&gt;policy -->
<g id="edge2" class="edge">
<title>file_to_policy:w&#45;&gt;policy:e</title>
<path fill="none" stroke="#000000" d="M307.0815,-503.6799C289.472,-499.4415 282.0066,-486.5208 269,-467.2 226.3202,-403.8011 304.4264,-300.2 228,-300.2"/>
<polygon fill="#000000" stroke="#000000" points="313.5441,-504.3612 321.1225,-508.7802 317.522,-504.7806 321.5,-505.2 321.5,-505.2 321.5,-505.2 317.522,-504.7806 321.8775,-501.6198 313.5441,-504.3612 313.5441,-504.3612"/>
<ellipse fill="none" stroke="#000000" cx="310.3617" cy="-504.0257" rx="3.2" ry="3.2"/>
</g>
<!-- place_to_policy -->
<g id="node4" class="node">
<title>place_to_policy</title>
<g id="a_node4"><a xlink:href="../../tables/place_to_policy.html" xlink:title="place_to_policy" target="_top">
<polygon fill="#ffffff" stroke="transparent" points="315.5,-395.7 315.5,-456.7 433.5,-456.7 433.5,-395.7 315.5,-395.7"/>
<polygon fill="#f5f5f5" stroke="transparent" points="315.5,-433.2 315.5,-456.2 433.5,-456.2 433.5,-433.2 315.5,-433.2"/>
<polygon fill="none" stroke="#000000" points="315.5,-433.2 315.5,-456.2 433.5,-456.2 433.5,-433.2 315.5,-433.2"/>
<text text-anchor="start" x="320.1006" y="-442.3" font-family="Helvetica,sans-Serif" font-weight="bold" font-size="11.00" fill="#000000">place_to_policy</text>
<text text-anchor="start" x="399.0219" y="-441.3" font-family="Helvetica,sans-Serif" font-size="11.00" fill="#000000">[table]</text>
<polygon fill="none" stroke="#000000" points="315.5,-414.2 315.5,-433.2 433.5,-433.2 433.5,-414.2 315.5,-414.2"/>
<text text-anchor="start" x="318.5" y="-420.3" font-family="Helvetica,sans-Serif" font-size="11.00" fill="#000000">...</text>
<polygon fill="#ffffff" stroke="transparent" points="315.5,-395.2 315.5,-414.2 342.5,-414.2 342.5,-395.2 315.5,-395.2"/>
<polygon fill="none" stroke="#000000" points="315.5,-395.2 315.5,-414.2 342.5,-414.2 342.5,-395.2 315.5,-395.2"/>
<text text-anchor="start" x="318.5" y="-401.3" font-family="Helvetica,sans-Serif" font-size="11.00" fill="#000000">&lt; 2</text>
<polygon fill="#ffffff" stroke="transparent" points="342.5,-395.2 342.5,-414.2 417.5,-414.2 417.5,-395.2 342.5,-395.2"/>
<polygon fill="none" stroke="#000000" points="342.5,-395.2 342.5,-414.2 417.5,-414.2 417.5,-395.2 342.5,-395.2"/>
<text text-anchor="start" x="348.4791" y="-401.3" font-family="Helvetica,sans-Serif" font-size="11.00" fill="#000000">999,172 rows</text>
<polygon fill="#ffffff" stroke="transparent" points="417.5,-395.2 417.5,-414.2 433.5,-414.2 433.5,-395.2 417.5,-395.2"/>
<polygon fill="none" stroke="#000000" points="417.5,-395.2 417.5,-414.2 433.5,-414.2 433.5,-395.2 417.5,-395.2"/>
<text text-anchor="start" x="424.3862" y="-401.3" font-family="Helvetica,sans-Serif" font-size="11.00" fill="#000000"> &#160;</text>
</a>
</g>
</g>
<!-- place_to_policy&#45;&gt;policy -->
<g id="edge3" class="edge">
<title>place_to_policy:w&#45;&gt;policy:e</title>
<path fill="none" stroke="#000000" d="M300.9608,-420.8912C286.7385,-415.5577 281.9082,-401.5756 269,-385.2 243.0349,-352.2603 269.9429,-300.2 228,-300.2"/>
<polygon fill="#000000" stroke="#000000" points="307.599,-421.9453 314.9354,-426.7555 311.5495,-422.5727 315.5,-423.2 315.5,-423.2 315.5,-423.2 311.5495,-422.5727 316.0646,-419.6445 307.599,-421.9453 307.599,-421.9453"/>
<ellipse fill="none" stroke="#000000" cx="304.4386" cy="-421.4434" rx="3.2" ry="3.2"/>
</g>
<!-- plan -->
<g id="node5" class="node">
<title>plan</title>
<g id="a_node5"><a xlink:href="../../tables/plan.html" xlink:title="plan" target="_top">
<polygon fill="#ffffff" stroke="transparent" points="328.5,-313.7 328.5,-374.7 420.5,-374.7 420.5,-313.7 328.5,-313.7"/>
<polygon fill="#f5f5f5" stroke="transparent" points="328.5,-351.2 328.5,-374.2 420.5,-374.2 420.5,-351.2 328.5,-351.2"/>
<polygon fill="none" stroke="#000000" points="328.5,-351.2 328.5,-374.2 420.5,-374.2 420.5,-351.2 328.5,-351.2"/>
<text text-anchor="start" x="333.5" y="-360.3" font-family="Helvetica,sans-Serif" font-weight="bold" font-size="11.00" fill="#000000">plan</text>
<text text-anchor="start" x="385.5437" y="-359.3" font-family="Helvetica,sans-Serif" font-size="11.00" fill="#000000">[table]</text>
<polygon fill="none" stroke="#000000" points="328.5,-332.2 328.5,-351.2 420.5,-351.2 420.5,-332.2 328.5,-332.2"/>
<text text-anchor="start" x="331.5" y="-338.3" font-family="Helvetica,sans-Serif" font-size="11.00" fill="#000000">...</text>
<polygon fill="#ffffff" stroke="transparent" points="328.5,-313.2 328.5,-332.2 349.5,-332.2 349.5,-313.2 328.5,-313.2"/>
<polygon fill="none" stroke="#000000" points="328.5,-313.2 328.5,-332.2 349.5,-332.2 349.5,-313.2 328.5,-313.2"/>
<text text-anchor="start" x="331.2027" y="-319.3" font-family="Helvetica,sans-Serif" font-size="11.00" fill="#000000">&lt; 1</text>
<polygon fill="#ffffff" stroke="transparent" points="349.5,-313.2 349.5,-332.2 399.5,-332.2 399.5,-313.2 349.5,-313.2"/>
<polygon fill="none" stroke="#000000" points="349.5,-313.2 349.5,-332.2 399.5,-332.2 399.5,-313.2 349.5,-313.2"/>
<text text-anchor="start" x="352.1904" y="-319.3" font-family="Helvetica,sans-Serif" font-size="11.00" fill="#000000">493 rows</text>
<polygon fill="#ffffff" stroke="transparent" points="399.5,-313.2 399.5,-332.2 420.5,-332.2 420.5,-313.2 399.5,-313.2"/>
<polygon fill="none" stroke="#000000" points="399.5,-313.2 399.5,-332.2 420.5,-332.2 420.5,-313.2 399.5,-313.2"/>
<text text-anchor="start" x="402.2027" y="-319.3" font-family="Helvetica,sans-Serif" font-size="11.00" fill="#000000">3 &gt;</text>
</a>
</g>
</g>
<!-- plan&#45;&gt;policy -->
<g id="edge4" class="edge">
<title>plan:w&#45;&gt;policy:e</title>
<path fill="none" stroke="#000000" d="M314.1424,-339.8359C278.8512,-332.7217 270.9643,-300.2 228,-300.2"/>
<polygon fill="#000000" stroke="#000000" points="320.5359,-340.4433 328.1595,-344.7839 324.5179,-340.8216 328.5,-341.2 328.5,-341.2 328.5,-341.2 324.5179,-340.8216 328.8405,-337.6161 320.5359,-340.4433 320.5359,-340.4433"/>
<ellipse fill="none" stroke="#000000" cx="317.3502" cy="-340.1406" rx="3.2" ry="3.2"/>
</g>
<!-- policies_to_court_challenges -->
<g id="node6" class="node">
<title>policies_to_court_challenges</title>
<g id="a_node6"><a xlink:href="../../tables/policies_to_court_challenges.html" xlink:title="policies_to_court_challenges" target="_top">
<polygon fill="#ffffff" stroke="transparent" points="282.5,-231.7 282.5,-292.7 466.5,-292.7 466.5,-231.7 282.5,-231.7"/>
<polygon fill="#f5f5f5" stroke="transparent" points="282.5,-269.2 282.5,-292.2 466.5,-292.2 466.5,-269.2 282.5,-269.2"/>
<polygon fill="none" stroke="#000000" points="282.5,-269.2 282.5,-292.2 466.5,-292.2 466.5,-269.2 282.5,-269.2"/>
<text text-anchor="start" x="287.3982" y="-278.3" font-family="Helvetica,sans-Serif" font-weight="bold" font-size="11.00" fill="#000000">policies_to_court_challenges</text>
<text text-anchor="start" x="432.0219" y="-277.3" font-family="Helvetica,sans-Serif" font-size="11.00" fill="#000000">[table]</text>
<polygon fill="none" stroke="#000000" points="282.5,-250.2 282.5,-269.2 466.5,-269.2 466.5,-250.2 282.5,-250.2"/>
<text text-anchor="start" x="285.5" y="-256.3" font-family="Helvetica,sans-Serif" font-size="11.00" fill="#000000">...</text>
<polygon fill="#ffffff" stroke="transparent" points="282.5,-231.2 282.5,-250.2 359.5,-250.2 359.5,-231.2 282.5,-231.2"/>
<polygon fill="none" stroke="#000000" points="282.5,-231.2 282.5,-250.2 359.5,-250.2 359.5,-231.2 282.5,-231.2"/>
<text text-anchor="start" x="285.5" y="-237.3" font-family="Helvetica,sans-Serif" font-size="11.00" fill="#000000">&lt; 2</text>
<polygon fill="#ffffff" stroke="transparent" points="359.5,-231.2 359.5,-250.2 425.5,-250.2 425.5,-231.2 359.5,-231.2"/>
<polygon fill="none" stroke="#000000" points="359.5,-231.2 359.5,-250.2 425.5,-250.2 425.5,-231.2 359.5,-231.2"/>
<text text-anchor="start" x="390.1105" y="-237.3" font-family="Helvetica,sans-Serif" font-size="11.00" fill="#000000">0 rows</text>
<polygon fill="#ffffff" stroke="transparent" points="425.5,-231.2 425.5,-250.2 466.5,-250.2 466.5,-231.2 425.5,-231.2"/>
<polygon fill="none" stroke="#000000" points="425.5,-231.2 425.5,-250.2 466.5,-250.2 466.5,-231.2 425.5,-231.2"/>
<text text-anchor="start" x="457.3862" y="-237.3" font-family="Helvetica,sans-Serif" font-size="11.00" fill="#000000"> &#160;</text>
</a>
</g>
</g>
<!-- policies_to_court_challenges&#45;&gt;policy -->
<g id="edge5" class="edge">
<title>policies_to_court_challenges:w&#45;&gt;policy:e</title>
<path fill="none" stroke="#000000" d="M268.3661,-263.2811C253.1905,-273.6516 252.391,-300.2 228,-300.2"/>
<polygon fill="#000000" stroke="#000000" points="274.814,-261.4194 283.4987,-262.6587 278.657,-260.3097 282.5,-259.2 282.5,-259.2 282.5,-259.2 278.657,-260.3097 281.5013,-255.7413 274.814,-261.4194 274.814,-261.4194"/>
<ellipse fill="none" stroke="#000000" cx="271.7396" cy="-262.3071" rx="3.2" ry="3.2"/>
</g>
<!-- policy_number_to_policy -->
<g id="node7" class="node">
<title>policy_number_to_policy</title>
<g id="a_node7"><a xlink:href="../../tables/policy_number_to_policy.html" xlink:title="policy_number_to_policy" target="_top">
<polygon fill="#ffffff" stroke="transparent" points="292.5,-149.7 292.5,-210.7 456.5,-210.7 456.5,-149.7 292.5,-149.7"/>
<polygon fill="#f5f5f5" stroke="transparent" points="292.5,-187.2 292.5,-210.2 456.5,-210.2 456.5,-187.2 292.5,-187.2"/>
<polygon fill="none" stroke="#000000" points="292.5,-187.2 292.5,-210.2 456.5,-210.2 456.5,-187.2 292.5,-187.2"/>
<text text-anchor="start" x="297.4885" y="-196.3" font-family="Helvetica,sans-Serif" font-weight="bold" font-size="11.00" fill="#000000">policy_number_to_policy</text>
<text text-anchor="start" x="422.0219" y="-195.3" font-family="Helvetica,sans-Serif" font-size="11.00" fill="#000000">[table]</text>
<polygon fill="none" stroke="#000000" points="292.5,-168.2 292.5,-187.2 456.5,-187.2 456.5,-168.2 292.5,-168.2"/>
<text text-anchor="start" x="295.5" y="-174.3" font-family="Helvetica,sans-Serif" font-size="11.00" fill="#000000">...</text>
<polygon fill="#ffffff" stroke="transparent" points="292.5,-149.2 292.5,-168.2 346.5,-168.2 346.5,-149.2 292.5,-149.2"/>
<polygon fill="none" stroke="#000000" points="292.5,-149.2 292.5,-168.2 346.5,-168.2 346.5,-149.2 292.5,-149.2"/>
<text text-anchor="start" x="295.5" y="-155.3" font-family="Helvetica,sans-Serif" font-size="11.00" fill="#000000">&lt; 2</text>
<polygon fill="#ffffff" stroke="transparent" points="346.5,-149.2 346.5,-168.2 427.5,-168.2 427.5,-149.2 346.5,-149.2"/>
<polygon fill="none" stroke="#000000" points="346.5,-149.2 346.5,-168.2 427.5,-168.2 427.5,-149.2 346.5,-149.2"/>
<text text-anchor="start" x="364.594" y="-155.3" font-family="Helvetica,sans-Serif" font-size="11.00" fill="#000000">40,950 rows</text>
<polygon fill="#ffffff" stroke="transparent" points="427.5,-149.2 427.5,-168.2 456.5,-168.2 456.5,-149.2 427.5,-149.2"/>
<polygon fill="none" stroke="#000000" points="427.5,-149.2 427.5,-168.2 456.5,-168.2 456.5,-149.2 427.5,-149.2"/>
<text text-anchor="start" x="447.3862" y="-155.3" font-family="Helvetica,sans-Serif" font-size="11.00" fill="#000000"> &#160;</text>
</a>
</g>
</g>
<!-- policy_number_to_policy&#45;&gt;policy -->
<g id="edge6" class="edge">
<title>policy_number_to_policy:w&#45;&gt;policy:e</title>
<path fill="none" stroke="#000000" d="M278.1224,-180.2405C240.7662,-199.1814 283.9401,-300.2 228,-300.2"/>
<polygon fill="#000000" stroke="#000000" points="284.6731,-178.8552 293.2448,-180.7221 288.5865,-178.0276 292.5,-177.2 292.5,-177.2 292.5,-177.2 288.5865,-178.0276 291.7552,-173.6779 284.6731,-178.8552 284.6731,-178.8552"/>
<ellipse fill="none" stroke="#000000" cx="281.5423" cy="-179.5173" rx="3.2" ry="3.2"/>
</g>
<!-- policy_to_prior_policy -->
<g id="node8" class="node">
<title>policy_to_prior_policy</title>
<g id="a_node8"><a xlink:href="../../tables/policy_to_prior_policy.html" xlink:title="policy_to_prior_policy" target="_top">
<polygon fill="#ffffff" stroke="transparent" points="277,-38.2 277,-128.2 472,-128.2 472,-38.2 277,-38.2"/>
<polygon fill="#f5f5f5" stroke="transparent" points="279.5,-103.2 279.5,-126.2 470.5,-126.2 470.5,-103.2 279.5,-103.2"/>
<polygon fill="none" stroke="#000000" points="279.5,-103.2 279.5,-126.2 470.5,-126.2 470.5,-103.2 279.5,-103.2"/>
<text text-anchor="start" x="284.5" y="-112.3" font-family="Helvetica,sans-Serif" font-weight="bold" font-size="11.00" fill="#000000">policy_to_prior_policy</text>
<text text-anchor="start" x="435.5437" y="-111.3" font-family="Helvetica,sans-Serif" font-size="11.00" fill="#000000">[table]</text>
<polygon fill="none" stroke="#000000" points="279.5,-81.2 279.5,-103.2 428.5,-103.2 428.5,-81.2 279.5,-81.2"/>
<image xlink:href="../../images/primaryKeys.png" width="11px" height="12px" preserveAspectRatio="xMinYMin meet" x="284.5" y="-98.2"/>
<text text-anchor="start" x="299.5" y="-88.3" font-family="Helvetica,sans-Serif" font-size="11.00" fill="#000000">policy</text>
<polygon fill="none" stroke="#000000" points="428.5,-81.2 428.5,-103.2 470.5,-103.2 470.5,-81.2 428.5,-81.2"/>
<text text-anchor="start" x="431.4644" y="-88.9" font-family="Helvetica,sans-Serif" font-size="11.00" fill="#000000">int4[10]</text>
<polygon fill="none" stroke="#000000" points="279.5,-59.2 279.5,-81.2 428.5,-81.2 428.5,-59.2 279.5,-59.2"/>
<image xlink:href="../../images/primaryKeys.png" width="11px" height="12px" preserveAspectRatio="xMinYMin meet" x="284.5" y="-76.2"/>
<text text-anchor="start" x="299.5" y="-66.3" font-family="Helvetica,sans-Serif" font-size="11.00" fill="#000000">policy_2</text>
<polygon fill="none" stroke="#000000" points="428.5,-59.2 428.5,-81.2 470.5,-81.2 470.5,-59.2 428.5,-59.2"/>
<text text-anchor="start" x="431.4644" y="-66.9" font-family="Helvetica,sans-Serif" font-size="11.00" fill="#000000">int4[10]</text>
<polygon fill="#ffffff" stroke="transparent" points="279.5,-40.2 279.5,-59.2 331.5,-59.2 331.5,-40.2 279.5,-40.2"/>
<polygon fill="none" stroke="#000000" points="279.5,-40.2 279.5,-59.2 331.5,-59.2 331.5,-40.2 279.5,-40.2"/>
<text text-anchor="start" x="282.5" y="-46.3" font-family="Helvetica,sans-Serif" font-size="11.00" fill="#000000">&lt; 2</text>
<polygon fill="#ffffff" stroke="transparent" points="331.5,-40.2 331.5,-59.2 428.5,-59.2 428.5,-40.2 331.5,-40.2"/>
<polygon fill="none" stroke="#000000" points="331.5,-40.2 331.5,-59.2 428.5,-59.2 428.5,-40.2 331.5,-40.2"/>
<text text-anchor="start" x="365.594" y="-46.3" font-family="Helvetica,sans-Serif" font-size="11.00" fill="#000000">36,085 rows</text>
<polygon fill="#ffffff" stroke="transparent" points="428.5,-40.2 428.5,-59.2 470.5,-59.2 470.5,-40.2 428.5,-40.2"/>
<polygon fill="none" stroke="#000000" points="428.5,-40.2 428.5,-59.2 470.5,-59.2 470.5,-40.2 428.5,-40.2"/>
<text text-anchor="start" x="451.9053" y="-46.3" font-family="Helvetica,sans-Serif" font-size="11.00" fill="#000000">0 &gt;</text>
<polygon fill="none" stroke="#000000" stroke-width="2" points="278,-39.2 278,-127.2 471,-127.2 471,-39.2 278,-39.2"/>
</a>
</g>
</g>
<!-- policy_to_prior_policy&#45;&gt;policy -->
<g id="edge7" class="edge">
<title>policy_to_prior_policy:w&#45;&gt;policy:e</title>
<path fill="none" stroke="#000000" d="M265.0774,-94.2586C199.7458,-115.8609 317.6557,-300.2 228,-300.2"/>
<polygon fill="#000000" stroke="#000000" points="271.5803,-93.3305 280.0087,-95.7639 275.5401,-92.7652 279.5,-92.2 279.5,-92.2 279.5,-92.2 275.5401,-92.7652 278.9913,-88.6361 271.5803,-93.3305 271.5803,-93.3305"/>
<ellipse fill="none" stroke="#000000" cx="268.4124" cy="-93.7827" rx="3.2" ry="3.2"/>
</g>
<!-- policy_to_prior_policy&#45;&gt;policy -->
<g id="edge8" class="edge">
<title>policy_to_prior_policy:w&#45;&gt;policy:e</title>
<path fill="none" stroke="#000000" d="M265.0428,-72.0514C190.6806,-93.8182 327.2293,-300.2 228,-300.2"/>
<polygon fill="#000000" stroke="#000000" points="271.5648,-71.2162 279.9573,-73.7708 275.5324,-70.7081 279.5,-70.2 279.5,-70.2 279.5,-70.2 275.5324,-70.7081 279.0427,-66.6292 271.5648,-71.2162 271.5648,-71.2162"/>
<ellipse fill="none" stroke="#000000" cx="268.3907" cy="-71.6227" rx="3.2" ry="3.2"/>
</g>
</g>
</svg>
