<?xml version="1.0" encoding="UTF-8" standalone="no"?>
<!DOCTYPE svg PUBLIC "-//W3C//DTD SVG 1.1//EN"
 "http://www.w3.org/Graphics/SVG/1.1/DTD/svg11.dtd">
<!-- Generated by graphviz version 2.40.1 (20161225.0304)
 -->
<!-- Title: oneDegreeRelationshipsDiagram Pages: 1 -->
<svg width="533pt" height="350pt"
 viewBox="0.00 0.00 533.00 350.20" xmlns="http://www.w3.org/2000/svg" xmlns:xlink="http://www.w3.org/1999/xlink">
<g id="graph0" class="graph" transform="scale(1 1) rotate(0) translate(4 346.2)">
<title>oneDegreeRelationshipsDiagram</title>
<polygon fill="#ffffff" stroke="transparent" points="-4,4 -4,-346.2 529,-346.2 529,4 -4,4"/>
<text text-anchor="middle" x="72.4936" y="-7.3" font-family="Helvetica,sans-Serif" font-size="11.00" fill="#000000">Generated by SchemaSpy</text>
<!-- auth_entity_policy_number -->
<g id="node1" class="node">
<title>auth_entity_policy_number</title>
<g id="a_node1"><a xlink:href="../../tables/auth_entity_policy_number.html" xlink:title="auth_entity_policy_number" target="_top">
<polygon fill="#ffffff" stroke="transparent" points="340,-252.2 340,-338.2 517,-338.2 517,-252.2 340,-252.2"/>
<polygon fill="#f5f5f5" stroke="transparent" points="340.5,-315.2 340.5,-338.2 517.5,-338.2 517.5,-315.2 340.5,-315.2"/>
<polygon fill="none" stroke="#000000" points="340.5,-315.2 340.5,-338.2 517.5,-338.2 517.5,-315.2 340.5,-315.2"/>
<text text-anchor="start" x="345.5" y="-324.3" font-family="Helvetica,sans-Serif" font-weight="bold" font-size="11.00" fill="#000000">auth_entity_policy_number</text>
<text text-anchor="start" x="482.5437" y="-323.3" font-family="Helvetica,sans-Serif" font-size="11.00" fill="#000000">[table]</text>
<polygon fill="none" stroke="#000000" points="340.5,-293.2 340.5,-315.2 517.5,-315.2 517.5,-293.2 340.5,-293.2"/>
<image xlink:href="../../images/primaryKeys.png" width="11px" height="12px" preserveAspectRatio="xMinYMin meet" x="345.5" y="-310.2"/>
<text text-anchor="start" x="360.5" y="-300.3" font-family="Helvetica,sans-Serif" font-size="11.00" fill="#000000">auth_entity</text>
<polygon fill="none" stroke="#000000" points="340.5,-271.2 340.5,-293.2 517.5,-293.2 517.5,-271.2 340.5,-271.2"/>
<image xlink:href="../../images/primaryKeys.png" width="11px" height="12px" preserveAspectRatio="xMinYMin meet" x="345.5" y="-288.2"/>
<text text-anchor="start" x="360.5" y="-278.3" font-family="Helvetica,sans-Serif" font-size="11.00" fill="#000000">policy_number</text>
<polygon fill="#ffffff" stroke="transparent" points="340.5,-252.2 340.5,-271.2 400.5,-271.2 400.5,-252.2 340.5,-252.2"/>
<polygon fill="none" stroke="#000000" points="340.5,-252.2 340.5,-271.2 400.5,-271.2 400.5,-252.2 340.5,-252.2"/>
<text text-anchor="start" x="343.5" y="-258.3" font-family="Helvetica,sans-Serif" font-size="11.00" fill="#000000">&lt; 2</text>
<polygon fill="#ffffff" stroke="transparent" points="400.5,-252.2 400.5,-271.2 485.5,-271.2 485.5,-252.2 400.5,-252.2"/>
<polygon fill="none" stroke="#000000" points="400.5,-252.2 400.5,-271.2 485.5,-271.2 485.5,-252.2 400.5,-252.2"/>
<text text-anchor="start" x="422.594" y="-258.3" font-family="Helvetica,sans-Serif" font-size="11.00" fill="#000000">18,291 rows</text>
<polygon fill="#ffffff" stroke="transparent" points="485.5,-252.2 485.5,-271.2 517.5,-271.2 517.5,-252.2 485.5,-252.2"/>
<polygon fill="none" stroke="#000000" points="485.5,-252.2 485.5,-271.2 517.5,-271.2 517.5,-252.2 485.5,-252.2"/>
<text text-anchor="start" x="508.3862" y="-258.3" font-family="Helvetica,sans-Serif" font-size="11.00" fill="#000000"> &#160;</text>
</a>
</g>
</g>
<!-- policy_number -->
<g id="node2" class="node">
<title>policy_number</title>
<g id="a_node2"><a xlink:href="../../tables/policy_number.html" xlink:title="policy_number" target="_top">
<polygon fill="#ffffff" stroke="transparent" points="8,-77.2 8,-211.2 291,-211.2 291,-77.2 8,-77.2"/>
<polygon fill="#f5f5f5" stroke="transparent" points="10.5,-186.2 10.5,-209.2 289.5,-209.2 289.5,-186.2 10.5,-186.2"/>
<polygon fill="none" stroke="#000000" points="10.5,-186.2 10.5,-209.2 289.5,-209.2 289.5,-186.2 10.5,-186.2"/>
<text text-anchor="start" x="15.5" y="-195.3" font-family="Helvetica,sans-Serif" font-weight="bold" font-size="11.00" fill="#000000">policy_number</text>
<text text-anchor="start" x="254.5437" y="-194.3" font-family="Helvetica,sans-Serif" font-size="11.00" fill="#000000">[table]</text>
<polygon fill="none" stroke="#000000" points="10.5,-164.2 10.5,-186.2 192.5,-186.2 192.5,-164.2 10.5,-164.2"/>
<image xlink:href="../../images/primaryKeys.png" width="11px" height="12px" preserveAspectRatio="xMinYMin meet" x="15.5" y="-181.2"/>
<text text-anchor="start" x="30.5" y="-171.3" font-family="Helvetica,sans-Serif" font-size="11.00" fill="#000000">id</text>
<polygon fill="none" stroke="#000000" points="192.5,-164.2 192.5,-186.2 289.5,-186.2 289.5,-164.2 192.5,-164.2"/>
<text text-anchor="start" x="195.5" y="-171.9" font-family="Helvetica,sans-Serif" font-size="11.00" fill="#000000">int4[10]</text>
<polygon fill="none" stroke="#000000" points="10.5,-142.2 10.5,-164.2 192.5,-164.2 192.5,-142.2 10.5,-142.2"/>
<text text-anchor="start" x="30.5" y="-149.3" font-family="Helvetica,sans-Serif" font-size="11.00" fill="#000000">names</text>
<polygon fill="none" stroke="#000000" points="192.5,-142.2 192.5,-164.2 289.5,-164.2 289.5,-142.2 192.5,-142.2"/>
<text text-anchor="start" x="195.4468" y="-149.9" font-family="Helvetica,sans-Serif" font-size="11.00" fill="#000000">_text[2147483647]</text>
<polygon fill="none" stroke="#000000" points="10.5,-120.2 10.5,-142.2 192.5,-142.2 192.5,-120.2 10.5,-120.2"/>
<text text-anchor="start" x="30.5" y="-127.3" font-family="Helvetica,sans-Serif" font-size="11.00" fill="#000000">earliest_date_start_effective</text>
<polygon fill="none" stroke="#000000" points="192.5,-120.2 192.5,-142.2 289.5,-142.2 289.5,-120.2 192.5,-120.2"/>
<text text-anchor="start" x="195.5" y="-127.9" font-family="Helvetica,sans-Serif" font-size="11.00" fill="#000000">date[13]</text>
<polygon fill="none" stroke="#000000" points="10.5,-98.2 10.5,-120.2 192.5,-120.2 192.5,-98.2 10.5,-98.2"/>
<text text-anchor="start" x="30.5" y="-105.3" font-family="Helvetica,sans-Serif" font-size="11.00" fill="#000000">search_text</text>
<polygon fill="none" stroke="#000000" points="192.5,-98.2 192.5,-120.2 289.5,-120.2 289.5,-98.2 192.5,-98.2"/>
<text text-anchor="start" x="195.5" y="-105.9" font-family="Helvetica,sans-Serif" font-size="11.00" fill="#000000">text[2147483647]</text>
<polygon fill="#ffffff" stroke="transparent" points="10.5,-79.2 10.5,-98.2 79.5,-98.2 79.5,-79.2 10.5,-79.2"/>
<polygon fill="none" stroke="#000000" points="10.5,-79.2 10.5,-98.2 79.5,-98.2 79.5,-79.2 10.5,-79.2"/>
<text text-anchor="start" x="13.5" y="-85.3" font-family="Helvetica,sans-Serif" font-size="11.00" fill="#000000">&lt; 0</text>
<polygon fill="#ffffff" stroke="transparent" points="79.5,-79.2 79.5,-98.2 192.5,-98.2 192.5,-79.2 79.5,-79.2"/>
<polygon fill="none" stroke="#000000" points="79.5,-79.2 79.5,-98.2 192.5,-98.2 192.5,-79.2 79.5,-79.2"/>
<text text-anchor="start" x="129.594" y="-85.3" font-family="Helvetica,sans-Serif" font-size="11.00" fill="#000000">17,427 rows</text>
<polygon fill="#ffffff" stroke="transparent" points="192.5,-79.2 192.5,-98.2 289.5,-98.2 289.5,-79.2 192.5,-79.2"/>
<polygon fill="none" stroke="#000000" points="192.5,-79.2 192.5,-98.2 289.5,-98.2 289.5,-79.2 192.5,-79.2"/>
<text text-anchor="start" x="270.9053" y="-85.3" font-family="Helvetica,sans-Serif" font-size="11.00" fill="#000000">3 &gt;</text>
<polygon fill="none" stroke="#000000" stroke-width="2" points="9,-78.2 9,-210.2 290,-210.2 290,-78.2 9,-78.2"/>
</a>
</g>
</g>
<!-- auth_entity_policy_number&#45;&gt;policy_number -->
<g id="edge1" class="edge">
<title>auth_entity_policy_number:w&#45;&gt;policy_number:e</title>
<path fill="none" stroke="#000000" d="M326.4064,-278.3918C298.7616,-259.3309 336.2134,-175.2 289.5,-175.2"/>
<polygon fill="#000000" stroke="#000000" points="332.777,-280.1131 339.5609,-285.6754 336.6385,-281.1566 340.5,-282.2 340.5,-282.2 340.5,-282.2 336.6385,-281.1566 341.4391,-278.7246 332.777,-280.1131 332.777,-280.1131"/>
<ellipse fill="none" stroke="#000000" cx="329.6878" cy="-279.2784" rx="3.2" ry="3.2"/>
</g>
<!-- place_policy_number -->
<g id="node3" class="node">
<title>place_policy_number</title>
<g id="a_node3"><a xlink:href="../../tables/place_policy_number.html" xlink:title="place_policy_number" target="_top">
<polygon fill="#ffffff" stroke="transparent" points="355.5,-145.2 355.5,-231.2 501.5,-231.2 501.5,-145.2 355.5,-145.2"/>
<polygon fill="#f5f5f5" stroke="transparent" points="355.5,-208.2 355.5,-231.2 501.5,-231.2 501.5,-208.2 355.5,-208.2"/>
<polygon fill="none" stroke="#000000" points="355.5,-208.2 355.5,-231.2 501.5,-231.2 501.5,-208.2 355.5,-208.2"/>
<text text-anchor="start" x="360.0448" y="-217.3" font-family="Helvetica,sans-Serif" font-weight="bold" font-size="11.00" fill="#000000">place_policy_number</text>
<text text-anchor="start" x="467.0219" y="-216.3" font-family="Helvetica,sans-Serif" font-size="11.00" fill="#000000">[table]</text>
<polygon fill="none" stroke="#000000" points="355.5,-186.2 355.5,-208.2 501.5,-208.2 501.5,-186.2 355.5,-186.2"/>
<image xlink:href="../../images/primaryKeys.png" width="11px" height="12px" preserveAspectRatio="xMinYMin meet" x="360.5" y="-203.2"/>
<text text-anchor="start" x="377.5" y="-193.3" font-family="Helvetica,sans-Serif" font-size="11.00" fill="#000000">place</text>
<polygon fill="none" stroke="#000000" points="355.5,-164.2 355.5,-186.2 501.5,-186.2 501.5,-164.2 355.5,-164.2"/>
<image xlink:href="../../images/primaryKeys.png" width="11px" height="12px" preserveAspectRatio="xMinYMin meet" x="360.5" y="-181.2"/>
<text text-anchor="start" x="377.5" y="-171.3" font-family="Helvetica,sans-Serif" font-size="11.00" fill="#000000">policy_number</text>
<polygon fill="#ffffff" stroke="transparent" points="355.5,-145.2 355.5,-164.2 400.5,-164.2 400.5,-145.2 355.5,-145.2"/>
<polygon fill="none" stroke="#000000" points="355.5,-145.2 355.5,-164.2 400.5,-164.2 400.5,-145.2 355.5,-145.2"/>
<text text-anchor="start" x="358.5" y="-151.3" font-family="Helvetica,sans-Serif" font-size="11.00" fill="#000000">&lt; 2</text>
<polygon fill="#ffffff" stroke="transparent" points="400.5,-145.2 400.5,-164.2 477.5,-164.2 477.5,-145.2 400.5,-145.2"/>
<polygon fill="none" stroke="#000000" points="400.5,-145.2 400.5,-164.2 477.5,-164.2 477.5,-145.2 400.5,-145.2"/>
<text text-anchor="start" x="414.594" y="-151.3" font-family="Helvetica,sans-Serif" font-size="11.00" fill="#000000">32,265 rows</text>
<polygon fill="#ffffff" stroke="transparent" points="477.5,-145.2 477.5,-164.2 501.5,-164.2 501.5,-145.2 477.5,-145.2"/>
<polygon fill="none" stroke="#000000" points="477.5,-145.2 477.5,-164.2 501.5,-164.2 501.5,-145.2 477.5,-145.2"/>
<text text-anchor="start" x="492.3862" y="-151.3" font-family="Helvetica,sans-Serif" font-size="11.00" fill="#000000"> &#160;</text>
</a>
</g>
</g>
<!-- place_policy_number&#45;&gt;policy_number -->
<g id="edge2" class="edge">
<title>place_policy_number:w&#45;&gt;policy_number:e</title>
<path fill="none" stroke="#000000" d="M341.0303,-175.2C322.6432,-175.2 313.3333,-175.2 289.5,-175.2"/>
<polygon fill="#000000" stroke="#000000" points="347.5,-175.2001 355.5,-178.8 351.5,-175.2 355.5,-175.2 355.5,-175.2 355.5,-175.2 351.5,-175.2 355.5,-171.6 347.5,-175.2001 347.5,-175.2001"/>
<ellipse fill="none" stroke="#000000" cx="344.3" cy="-175.2001" rx="3.2" ry="3.2"/>
</g>
<!-- policy_number_to_policy -->
<g id="node4" class="node">
<title>policy_number_to_policy</title>
<g id="a_node4"><a xlink:href="../../tables/policy_number_to_policy.html" xlink:title="policy_number_to_policy" target="_top">
<polygon fill="#ffffff" stroke="transparent" points="346,-38.2 346,-124.2 511,-124.2 511,-38.2 346,-38.2"/>
<polygon fill="#f5f5f5" stroke="transparent" points="346.5,-101.2 346.5,-124.2 511.5,-124.2 511.5,-101.2 346.5,-101.2"/>
<polygon fill="none" stroke="#000000" points="346.5,-101.2 346.5,-124.2 511.5,-124.2 511.5,-101.2 346.5,-101.2"/>
<text text-anchor="start" x="351.5" y="-110.3" font-family="Helvetica,sans-Serif" font-weight="bold" font-size="11.00" fill="#000000">policy_number_to_policy</text>
<text text-anchor="start" x="477.0219" y="-109.3" font-family="Helvetica,sans-Serif" font-size="11.00" fill="#000000">[table]</text>
<polygon fill="none" stroke="#000000" points="346.5,-79.2 346.5,-101.2 511.5,-101.2 511.5,-79.2 346.5,-79.2"/>
<image xlink:href="../../images/primaryKeys.png" width="11px" height="12px" preserveAspectRatio="xMinYMin meet" x="351.5" y="-96.2"/>
<text text-anchor="start" x="366.5" y="-86.3" font-family="Helvetica,sans-Serif" font-size="11.00" fill="#000000">policy</text>
<polygon fill="none" stroke="#000000" points="346.5,-57.2 346.5,-79.2 511.5,-79.2 511.5,-57.2 346.5,-57.2"/>
<image xlink:href="../../images/primaryKeys.png" width="11px" height="12px" preserveAspectRatio="xMinYMin meet" x="351.5" y="-74.2"/>
<text text-anchor="start" x="366.5" y="-64.3" font-family="Helvetica,sans-Serif" font-size="11.00" fill="#000000">policy_number</text>
<polygon fill="#ffffff" stroke="transparent" points="346.5,-38.2 346.5,-57.2 400.5,-57.2 400.5,-38.2 346.5,-38.2"/>
<polygon fill="none" stroke="#000000" points="346.5,-38.2 346.5,-57.2 400.5,-57.2 400.5,-38.2 346.5,-38.2"/>
<text text-anchor="start" x="349.5" y="-44.3" font-family="Helvetica,sans-Serif" font-size="11.00" fill="#000000">&lt; 2</text>
<polygon fill="#ffffff" stroke="transparent" points="400.5,-38.2 400.5,-57.2 482.5,-57.2 482.5,-38.2 400.5,-38.2"/>
<polygon fill="none" stroke="#000000" points="400.5,-38.2 400.5,-57.2 482.5,-57.2 482.5,-38.2 400.5,-38.2"/>
<text text-anchor="start" x="419.594" y="-44.3" font-family="Helvetica,sans-Serif" font-size="11.00" fill="#000000">40,950 rows</text>
<polygon fill="#ffffff" stroke="transparent" points="482.5,-38.2 482.5,-57.2 511.5,-57.2 511.5,-38.2 482.5,-38.2"/>
<polygon fill="none" stroke="#000000" points="482.5,-38.2 482.5,-57.2 511.5,-57.2 511.5,-38.2 482.5,-38.2"/>
<text text-anchor="start" x="502.3862" y="-44.3" font-family="Helvetica,sans-Serif" font-size="11.00" fill="#000000"> &#160;</text>
</a>
</g>
</g>
<!-- policy_number_to_policy&#45;&gt;policy_number -->
<g id="edge3" class="edge">
<title>policy_number_to_policy:w&#45;&gt;policy_number:e</title>
<path fill="none" stroke="#000000" d="M332.3016,-71.7601C302.4705,-90.3262 337.489,-175.2 289.5,-175.2"/>
<polygon fill="#000000" stroke="#000000" points="338.7402,-70.1457 347.3756,-71.6919 342.6201,-69.1729 346.5,-68.2 346.5,-68.2 346.5,-68.2 342.6201,-69.1729 345.6244,-64.7081 338.7402,-70.1457 338.7402,-70.1457"/>
<ellipse fill="none" stroke="#000000" cx="335.6363" cy="-70.924" rx="3.2" ry="3.2"/>
</g>
</g>
</svg>
