<?xml version="1.0" encoding="UTF-8" standalone="no"?>
<!DOCTYPE svg PUBLIC "-//W3C//DTD SVG 1.1//EN"
 "http://www.w3.org/Graphics/SVG/1.1/DTD/svg11.dtd">
<!-- Generated by graphviz version 2.40.1 (20161225.0304)
 -->
<!-- Title: twoDegreesRelationshipsDiagram Pages: 1 -->
<svg width="584pt" height="633pt"
 viewBox="0.00 0.00 584.00 632.70" xmlns="http://www.w3.org/2000/svg" xmlns:xlink="http://www.w3.org/1999/xlink">
<g id="graph0" class="graph" transform="scale(1 1) rotate(0) translate(4 628.7)">
<title>twoDegreesRelationshipsDiagram</title>
<polygon fill="#ffffff" stroke="transparent" points="-4,4 -4,-628.7 580,-628.7 580,4 -4,4"/>
<text text-anchor="middle" x="72.4936" y="-7.3" font-family="Helvetica,sans-Serif" font-size="11.00" fill="#000000">Generated by SchemaSpy</text>
<!-- auth_entity_to_policy -->
<g id="node1" class="node">
<title>auth_entity_to_policy</title>
<g id="a_node1"><a xlink:href="../../tables/auth_entity_to_policy.html" xlink:title="auth_entity_to_policy" target="_top">
<polygon fill="#ffffff" stroke="transparent" points="377.5,-313.7 377.5,-374.7 523.5,-374.7 523.5,-313.7 377.5,-313.7"/>
<polygon fill="#f5f5f5" stroke="transparent" points="377.5,-351.2 377.5,-374.2 523.5,-374.2 523.5,-351.2 377.5,-351.2"/>
<polygon fill="none" stroke="#000000" points="377.5,-351.2 377.5,-374.2 523.5,-374.2 523.5,-351.2 377.5,-351.2"/>
<text text-anchor="start" x="382.3429" y="-360.3" font-family="Helvetica,sans-Serif" font-weight="bold" font-size="11.00" fill="#000000">auth_entity_to_policy</text>
<text text-anchor="start" x="489.0219" y="-359.3" font-family="Helvetica,sans-Serif" font-size="11.00" fill="#000000">[table]</text>
<polygon fill="none" stroke="#000000" points="377.5,-332.2 377.5,-351.2 523.5,-351.2 523.5,-332.2 377.5,-332.2"/>
<text text-anchor="start" x="380.5" y="-338.3" font-family="Helvetica,sans-Serif" font-size="11.00" fill="#000000">...</text>
<polygon fill="#ffffff" stroke="transparent" points="377.5,-313.2 377.5,-332.2 422.5,-332.2 422.5,-313.2 377.5,-313.2"/>
<polygon fill="none" stroke="#000000" points="377.5,-313.2 377.5,-332.2 422.5,-332.2 422.5,-313.2 377.5,-313.2"/>
<text text-anchor="start" x="380.5" y="-319.3" font-family="Helvetica,sans-Serif" font-size="11.00" fill="#000000">&lt; 2</text>
<polygon fill="#ffffff" stroke="transparent" points="422.5,-313.2 422.5,-332.2 499.5,-332.2 499.5,-313.2 422.5,-313.2"/>
<polygon fill="none" stroke="#000000" points="422.5,-313.2 422.5,-332.2 499.5,-332.2 499.5,-313.2 422.5,-313.2"/>
<text text-anchor="start" x="436.594" y="-319.3" font-family="Helvetica,sans-Serif" font-size="11.00" fill="#000000">41,978 rows</text>
<polygon fill="#ffffff" stroke="transparent" points="499.5,-313.2 499.5,-332.2 523.5,-332.2 523.5,-313.2 499.5,-313.2"/>
<polygon fill="none" stroke="#000000" points="499.5,-313.2 499.5,-332.2 523.5,-332.2 523.5,-313.2 499.5,-313.2"/>
<text text-anchor="start" x="514.3862" y="-319.3" font-family="Helvetica,sans-Serif" font-size="11.00" fill="#000000"> &#160;</text>
</a>
</g>
</g>
<!-- policy -->
<g id="node2" class="node">
<title>policy</title>
<g id="a_node2"><a xlink:href="../../tables/policy.html" xlink:title="policy" target="_top">
<polygon fill="#ffffff" stroke="transparent" points="36,-289.7 36,-416.7 256,-416.7 256,-289.7 36,-289.7"/>
<polygon fill="#f5f5f5" stroke="transparent" points="36,-393.2 36,-416.2 256,-416.2 256,-393.2 36,-393.2"/>
<polygon fill="none" stroke="#000000" points="36,-393.2 36,-416.2 256,-416.2 256,-393.2 36,-393.2"/>
<text text-anchor="start" x="41" y="-402.3" font-family="Helvetica,sans-Serif" font-weight="bold" font-size="11.00" fill="#000000">policy</text>
<text text-anchor="start" x="221.0437" y="-401.3" font-family="Helvetica,sans-Serif" font-size="11.00" fill="#000000">[table]</text>
<polygon fill="none" stroke="#000000" points="36,-371.2 36,-393.2 256,-393.2 256,-371.2 36,-371.2"/>
<image xlink:href="../../images/primaryKeys.png" width="11px" height="12px" preserveAspectRatio="xMinYMin meet" x="41" y="-388.2"/>
<text text-anchor="start" x="56" y="-378.3" font-family="Helvetica,sans-Serif" font-size="11.00" fill="#000000">id</text>
<polygon fill="#ffffff" stroke="transparent" points="36,-349.2 36,-371.2 256,-371.2 256,-349.2 36,-349.2"/>
<polygon fill="none" stroke="#000000" points="36,-349.2 36,-371.2 256,-371.2 256,-349.2 36,-349.2"/>
<text text-anchor="start" x="56" y="-356.3" font-family="Helvetica,sans-Serif" font-size="11.00" fill="#000000">primary_ph_measure</text>
<polygon fill="#ffffff" stroke="transparent" points="36,-327.2 36,-349.2 256,-349.2 256,-327.2 36,-327.2"/>
<polygon fill="none" stroke="#000000" points="36,-327.2 36,-349.2 256,-349.2 256,-327.2 36,-327.2"/>
<text text-anchor="start" x="56" y="-334.3" font-family="Helvetica,sans-Serif" font-size="11.00" fill="#000000">group_number</text>
<polygon fill="none" stroke="#000000" points="36,-308.2 36,-327.2 256,-327.2 256,-308.2 36,-308.2"/>
<text text-anchor="start" x="39" y="-314.3" font-family="Helvetica,sans-Serif" font-size="11.00" fill="#000000">...</text>
<polygon fill="#ffffff" stroke="transparent" points="36,-289.2 36,-308.2 109,-308.2 109,-289.2 36,-289.2"/>
<polygon fill="none" stroke="#000000" points="36,-289.2 36,-308.2 109,-308.2 109,-289.2 36,-289.2"/>
<text text-anchor="start" x="39" y="-295.3" font-family="Helvetica,sans-Serif" font-size="11.00" fill="#000000"> &#160;</text>
<polygon fill="#ffffff" stroke="transparent" points="109,-289.2 109,-308.2 204,-308.2 204,-289.2 109,-289.2"/>
<polygon fill="none" stroke="#000000" points="109,-289.2 109,-308.2 204,-308.2 204,-289.2 109,-289.2"/>
<text text-anchor="start" x="141.094" y="-295.3" font-family="Helvetica,sans-Serif" font-size="11.00" fill="#000000">40,950 rows</text>
<polygon fill="#ffffff" stroke="transparent" points="204,-289.2 204,-308.2 256,-308.2 256,-289.2 204,-289.2"/>
<polygon fill="none" stroke="#000000" points="204,-289.2 204,-308.2 256,-308.2 256,-289.2 204,-289.2"/>
<text text-anchor="start" x="237.4053" y="-295.3" font-family="Helvetica,sans-Serif" font-size="11.00" fill="#000000">8 &gt;</text>
</a>
</g>
</g>
<!-- auth_entity_to_policy&#45;&gt;policy -->
<g id="edge1" class="edge">
<title>auth_entity_to_policy:w&#45;&gt;policy:e</title>
<path fill="none" stroke="#000000" d="M362.9792,-342.173C318.7114,-348.3819 307.76,-382.2 256,-382.2"/>
<polygon fill="#000000" stroke="#000000" points="369.5179,-341.7349 377.7407,-344.7919 373.509,-341.4675 377.5,-341.2 377.5,-341.2 377.5,-341.2 373.509,-341.4675 377.2593,-337.6081 369.5179,-341.7349 369.5179,-341.7349"/>
<ellipse fill="none" stroke="#000000" cx="366.3251" cy="-341.9489" rx="3.2" ry="3.2"/>
</g>
<!-- file_to_policy -->
<g id="node3" class="node">
<title>file_to_policy</title>
<g id="a_node3"><a xlink:href="../../tables/file_to_policy.html" xlink:title="file_to_policy" target="_top">
<polygon fill="#ffffff" stroke="transparent" points="397.5,-231.7 397.5,-292.7 503.5,-292.7 503.5,-231.7 397.5,-231.7"/>
<polygon fill="#f5f5f5" stroke="transparent" points="397.5,-269.2 397.5,-292.2 503.5,-292.2 503.5,-269.2 397.5,-269.2"/>
<polygon fill="none" stroke="#000000" points="397.5,-269.2 397.5,-292.2 503.5,-292.2 503.5,-269.2 397.5,-269.2"/>
<text text-anchor="start" x="402.2166" y="-278.3" font-family="Helvetica,sans-Serif" font-weight="bold" font-size="11.00" fill="#000000">file_to_policy</text>
<text text-anchor="start" x="469.0219" y="-277.3" font-family="Helvetica,sans-Serif" font-size="11.00" fill="#000000">[table]</text>
<polygon fill="none" stroke="#000000" points="397.5,-250.2 397.5,-269.2 503.5,-269.2 503.5,-250.2 397.5,-250.2"/>
<text text-anchor="start" x="400.5" y="-256.3" font-family="Helvetica,sans-Serif" font-size="11.00" fill="#000000">...</text>
<polygon fill="#ffffff" stroke="transparent" points="397.5,-231.2 397.5,-250.2 422.5,-250.2 422.5,-231.2 397.5,-231.2"/>
<polygon fill="none" stroke="#000000" points="397.5,-231.2 397.5,-250.2 422.5,-250.2 422.5,-231.2 397.5,-231.2"/>
<text text-anchor="start" x="400.5" y="-237.3" font-family="Helvetica,sans-Serif" font-size="11.00" fill="#000000">&lt; 2</text>
<polygon fill="#ffffff" stroke="transparent" points="422.5,-231.2 422.5,-250.2 489.5,-250.2 489.5,-231.2 422.5,-231.2"/>
<polygon fill="none" stroke="#000000" points="422.5,-231.2 422.5,-250.2 489.5,-250.2 489.5,-231.2 422.5,-231.2"/>
<text text-anchor="start" x="426.594" y="-237.3" font-family="Helvetica,sans-Serif" font-size="11.00" fill="#000000">41,366 rows</text>
<polygon fill="#ffffff" stroke="transparent" points="489.5,-231.2 489.5,-250.2 503.5,-250.2 503.5,-231.2 489.5,-231.2"/>
<polygon fill="none" stroke="#000000" points="489.5,-231.2 489.5,-250.2 503.5,-250.2 503.5,-231.2 489.5,-231.2"/>
<text text-anchor="start" x="494.3862" y="-237.3" font-family="Helvetica,sans-Serif" font-size="11.00" fill="#000000"> &#160;</text>
</a>
</g>
</g>
<!-- file_to_policy&#45;&gt;policy -->
<g id="edge2" class="edge">
<title>file_to_policy:w&#45;&gt;policy:e</title>
<path fill="none" stroke="#000000" d="M382.9807,-260.3912C357.6072,-265.001 349.6791,-282.4481 325,-303.2 289.3197,-333.2025 302.618,-382.2 256,-382.2"/>
<polygon fill="#000000" stroke="#000000" points="389.5268,-259.8542 397.7944,-262.7879 393.5134,-259.5271 397.5,-259.2 397.5,-259.2 397.5,-259.2 393.5134,-259.5271 397.2056,-255.6121 389.5268,-259.8542 389.5268,-259.8542"/>
<ellipse fill="none" stroke="#000000" cx="386.3375" cy="-260.1159" rx="3.2" ry="3.2"/>
</g>
<!-- place_to_policy -->
<g id="node4" class="node">
<title>place_to_policy</title>
<g id="a_node4"><a xlink:href="../../tables/place_to_policy.html" xlink:title="place_to_policy" target="_top">
<polygon fill="#ffffff" stroke="transparent" points="391.5,-149.7 391.5,-210.7 509.5,-210.7 509.5,-149.7 391.5,-149.7"/>
<polygon fill="#f5f5f5" stroke="transparent" points="391.5,-187.2 391.5,-210.2 509.5,-210.2 509.5,-187.2 391.5,-187.2"/>
<polygon fill="none" stroke="#000000" points="391.5,-187.2 391.5,-210.2 509.5,-210.2 509.5,-187.2 391.5,-187.2"/>
<text text-anchor="start" x="396.1006" y="-196.3" font-family="Helvetica,sans-Serif" font-weight="bold" font-size="11.00" fill="#000000">place_to_policy</text>
<text text-anchor="start" x="475.0219" y="-195.3" font-family="Helvetica,sans-Serif" font-size="11.00" fill="#000000">[table]</text>
<polygon fill="none" stroke="#000000" points="391.5,-168.2 391.5,-187.2 509.5,-187.2 509.5,-168.2 391.5,-168.2"/>
<text text-anchor="start" x="394.5" y="-174.3" font-family="Helvetica,sans-Serif" font-size="11.00" fill="#000000">...</text>
<polygon fill="#ffffff" stroke="transparent" points="391.5,-149.2 391.5,-168.2 418.5,-168.2 418.5,-149.2 391.5,-149.2"/>
<polygon fill="none" stroke="#000000" points="391.5,-149.2 391.5,-168.2 418.5,-168.2 418.5,-149.2 391.5,-149.2"/>
<text text-anchor="start" x="394.5" y="-155.3" font-family="Helvetica,sans-Serif" font-size="11.00" fill="#000000">&lt; 2</text>
<polygon fill="#ffffff" stroke="transparent" points="418.5,-149.2 418.5,-168.2 493.5,-168.2 493.5,-149.2 418.5,-149.2"/>
<polygon fill="none" stroke="#000000" points="418.5,-149.2 418.5,-168.2 493.5,-168.2 493.5,-149.2 418.5,-149.2"/>
<text text-anchor="start" x="424.4791" y="-155.3" font-family="Helvetica,sans-Serif" font-size="11.00" fill="#000000">999,172 rows</text>
<polygon fill="#ffffff" stroke="transparent" points="493.5,-149.2 493.5,-168.2 509.5,-168.2 509.5,-149.2 493.5,-149.2"/>
<polygon fill="none" stroke="#000000" points="493.5,-149.2 493.5,-168.2 509.5,-168.2 509.5,-149.2 493.5,-149.2"/>
<text text-anchor="start" x="500.3862" y="-155.3" font-family="Helvetica,sans-Serif" font-size="11.00" fill="#000000"> &#160;</text>
</a>
</g>
</g>
<!-- place_to_policy&#45;&gt;policy -->
<g id="edge3" class="edge">
<title>place_to_policy:w&#45;&gt;policy:e</title>
<path fill="none" stroke="#000000" d="M377.0427,-178.3467C353.1832,-182.5585 344.2509,-198.1385 325,-221.2 275.1111,-280.9641 333.8501,-382.2 256,-382.2"/>
<polygon fill="#000000" stroke="#000000" points="383.525,-177.8326 391.7847,-180.7887 387.5125,-177.5163 391.5,-177.2 391.5,-177.2 391.5,-177.2 387.5125,-177.5163 391.2153,-173.6113 383.525,-177.8326 383.525,-177.8326"/>
<ellipse fill="none" stroke="#000000" cx="380.3351" cy="-178.0856" rx="3.2" ry="3.2"/>
</g>
<!-- plan -->
<g id="node5" class="node">
<title>plan</title>
<g id="a_node5"><a xlink:href="../../tables/plan.html" xlink:title="plan" target="_top">
<polygon fill="#ffffff" stroke="transparent" points="404.5,-559.7 404.5,-620.7 496.5,-620.7 496.5,-559.7 404.5,-559.7"/>
<polygon fill="#f5f5f5" stroke="transparent" points="404.5,-597.2 404.5,-620.2 496.5,-620.2 496.5,-597.2 404.5,-597.2"/>
<polygon fill="none" stroke="#000000" points="404.5,-597.2 404.5,-620.2 496.5,-620.2 496.5,-597.2 404.5,-597.2"/>
<text text-anchor="start" x="409.5" y="-606.3" font-family="Helvetica,sans-Serif" font-weight="bold" font-size="11.00" fill="#000000">plan</text>
<text text-anchor="start" x="461.5437" y="-605.3" font-family="Helvetica,sans-Serif" font-size="11.00" fill="#000000">[table]</text>
<polygon fill="none" stroke="#000000" points="404.5,-578.2 404.5,-597.2 496.5,-597.2 496.5,-578.2 404.5,-578.2"/>
<text text-anchor="start" x="407.5" y="-584.3" font-family="Helvetica,sans-Serif" font-size="11.00" fill="#000000">...</text>
<polygon fill="#ffffff" stroke="transparent" points="404.5,-559.2 404.5,-578.2 425.5,-578.2 425.5,-559.2 404.5,-559.2"/>
<polygon fill="none" stroke="#000000" points="404.5,-559.2 404.5,-578.2 425.5,-578.2 425.5,-559.2 404.5,-559.2"/>
<text text-anchor="start" x="407.2027" y="-565.3" font-family="Helvetica,sans-Serif" font-size="11.00" fill="#000000">&lt; 1</text>
<polygon fill="#ffffff" stroke="transparent" points="425.5,-559.2 425.5,-578.2 475.5,-578.2 475.5,-559.2 425.5,-559.2"/>
<polygon fill="none" stroke="#000000" points="425.5,-559.2 425.5,-578.2 475.5,-578.2 475.5,-559.2 425.5,-559.2"/>
<text text-anchor="start" x="428.1904" y="-565.3" font-family="Helvetica,sans-Serif" font-size="11.00" fill="#000000">493 rows</text>
<polygon fill="#ffffff" stroke="transparent" points="475.5,-559.2 475.5,-578.2 496.5,-578.2 496.5,-559.2 475.5,-559.2"/>
<polygon fill="none" stroke="#000000" points="475.5,-559.2 475.5,-578.2 496.5,-578.2 496.5,-559.2 475.5,-559.2"/>
<text text-anchor="start" x="478.2027" y="-565.3" font-family="Helvetica,sans-Serif" font-size="11.00" fill="#000000">3 &gt;</text>
</a>
</g>
</g>
<!-- plan&#45;&gt;policy -->
<g id="edge4" class="edge">
<title>plan:w&#45;&gt;policy:e</title>
<path fill="none" stroke="#000000" d="M389.7814,-586.6396C361.4196,-584.2307 348.2509,-573.7434 325,-549.2 269.7695,-490.8993 336.308,-382.2 256,-382.2"/>
<polygon fill="#000000" stroke="#000000" points="396.5058,-586.8956 404.363,-590.7974 400.5029,-587.0478 404.5,-587.2 404.5,-587.2 404.5,-587.2 400.5029,-587.0478 404.637,-583.6026 396.5058,-586.8956 396.5058,-586.8956"/>
<ellipse fill="none" stroke="#000000" cx="393.3081" cy="-586.7738" rx="3.2" ry="3.2"/>
</g>
<!-- policies_to_court_challenges -->
<g id="node6" class="node">
<title>policies_to_court_challenges</title>
<g id="a_node6"><a xlink:href="../../tables/policies_to_court_challenges.html" xlink:title="policies_to_court_challenges" target="_top">
<polygon fill="#ffffff" stroke="transparent" points="333,-38.2 333,-128.2 568,-128.2 568,-38.2 333,-38.2"/>
<polygon fill="#f5f5f5" stroke="transparent" points="335.5,-103.2 335.5,-126.2 566.5,-126.2 566.5,-103.2 335.5,-103.2"/>
<polygon fill="none" stroke="#000000" points="335.5,-103.2 335.5,-126.2 566.5,-126.2 566.5,-103.2 335.5,-103.2"/>
<text text-anchor="start" x="340.5" y="-112.3" font-family="Helvetica,sans-Serif" font-weight="bold" font-size="11.00" fill="#000000">policies_to_court_challenges</text>
<text text-anchor="start" x="531.5437" y="-111.3" font-family="Helvetica,sans-Serif" font-size="11.00" fill="#000000">[table]</text>
<polygon fill="none" stroke="#000000" points="335.5,-81.2 335.5,-103.2 524.5,-103.2 524.5,-81.2 335.5,-81.2"/>
<image xlink:href="../../images/primaryKeys.png" width="11px" height="12px" preserveAspectRatio="xMinYMin meet" x="340.5" y="-98.2"/>
<text text-anchor="start" x="355.5" y="-88.3" font-family="Helvetica,sans-Serif" font-size="11.00" fill="#000000">court_challenge</text>
<polygon fill="none" stroke="#000000" points="524.5,-81.2 524.5,-103.2 566.5,-103.2 566.5,-81.2 524.5,-81.2"/>
<text text-anchor="start" x="527.4644" y="-88.9" font-family="Helvetica,sans-Serif" font-size="11.00" fill="#000000">int4[10]</text>
<polygon fill="none" stroke="#000000" points="335.5,-59.2 335.5,-81.2 524.5,-81.2 524.5,-59.2 335.5,-59.2"/>
<image xlink:href="../../images/primaryKeys.png" width="11px" height="12px" preserveAspectRatio="xMinYMin meet" x="340.5" y="-76.2"/>
<text text-anchor="start" x="355.5" y="-66.3" font-family="Helvetica,sans-Serif" font-size="11.00" fill="#000000">policy</text>
<polygon fill="none" stroke="#000000" points="524.5,-59.2 524.5,-81.2 566.5,-81.2 566.5,-59.2 524.5,-59.2"/>
<text text-anchor="start" x="527.4644" y="-66.9" font-family="Helvetica,sans-Serif" font-size="11.00" fill="#000000">int4[10]</text>
<polygon fill="#ffffff" stroke="transparent" points="335.5,-40.2 335.5,-59.2 421.5,-59.2 421.5,-40.2 335.5,-40.2"/>
<polygon fill="none" stroke="#000000" points="335.5,-40.2 335.5,-59.2 421.5,-59.2 421.5,-40.2 335.5,-40.2"/>
<text text-anchor="start" x="338.5" y="-46.3" font-family="Helvetica,sans-Serif" font-size="11.00" fill="#000000">&lt; 2</text>
<polygon fill="#ffffff" stroke="transparent" points="421.5,-40.2 421.5,-59.2 524.5,-59.2 524.5,-40.2 421.5,-40.2"/>
<polygon fill="none" stroke="#000000" points="421.5,-40.2 421.5,-59.2 524.5,-59.2 524.5,-40.2 421.5,-40.2"/>
<text text-anchor="start" x="489.1105" y="-46.3" font-family="Helvetica,sans-Serif" font-size="11.00" fill="#000000">0 rows</text>
<polygon fill="#ffffff" stroke="transparent" points="524.5,-40.2 524.5,-59.2 566.5,-59.2 566.5,-40.2 524.5,-40.2"/>
<polygon fill="none" stroke="#000000" points="524.5,-40.2 524.5,-59.2 566.5,-59.2 566.5,-40.2 524.5,-40.2"/>
<text text-anchor="start" x="547.9053" y="-46.3" font-family="Helvetica,sans-Serif" font-size="11.00" fill="#000000">0 &gt;</text>
<polygon fill="none" stroke="#000000" stroke-width="2" points="334,-39.2 334,-127.2 567,-127.2 567,-39.2 334,-39.2"/>
</a>
</g>
</g>
<!-- policies_to_court_challenges&#45;&gt;policy -->
<g id="edge6" class="edge">
<title>policies_to_court_challenges:w&#45;&gt;policy:e</title>
<path fill="none" stroke="#000000" d="M321.6921,-75.1008C272.6471,-114.7939 322.2385,-382.2 256,-382.2"/>
<polygon fill="#000000" stroke="#000000" points="327.9608,-72.8759 336.7041,-73.5926 331.7304,-71.5379 335.5,-70.2 335.5,-70.2 335.5,-70.2 331.7304,-71.5379 334.2959,-66.8074 327.9608,-72.8759 327.9608,-72.8759"/>
<ellipse fill="none" stroke="#000000" cx="324.9451" cy="-73.9462" rx="3.2" ry="3.2"/>
</g>
<!-- court_challenge -->
<g id="node7" class="node">
<title>court_challenge</title>
<g id="a_node7"><a xlink:href="../../tables/court_challenge.html" xlink:title="court_challenge" target="_top">
<polygon fill="#ffffff" stroke="transparent" points="8,-43.7 8,-126.7 284,-126.7 284,-43.7 8,-43.7"/>
<polygon fill="#f5f5f5" stroke="transparent" points="8,-103.2 8,-126.2 284,-126.2 284,-103.2 8,-103.2"/>
<polygon fill="none" stroke="#000000" points="8,-103.2 8,-126.2 284,-126.2 284,-103.2 8,-103.2"/>
<text text-anchor="start" x="13" y="-112.3" font-family="Helvetica,sans-Serif" font-weight="bold" font-size="11.00" fill="#000000">court_challenge</text>
<text text-anchor="start" x="249.0437" y="-111.3" font-family="Helvetica,sans-Serif" font-size="11.00" fill="#000000">[table]</text>
<polygon fill="none" stroke="#000000" points="8,-81.2 8,-103.2 284,-103.2 284,-81.2 8,-81.2"/>
<image xlink:href="../../images/primaryKeys.png" width="11px" height="12px" preserveAspectRatio="xMinYMin meet" x="13" y="-98.2"/>
<text text-anchor="start" x="28" y="-88.3" font-family="Helvetica,sans-Serif" font-size="11.00" fill="#000000">id</text>
<polygon fill="none" stroke="#000000" points="8,-62.2 8,-81.2 284,-81.2 284,-62.2 8,-62.2"/>
<text text-anchor="start" x="11" y="-68.3" font-family="Helvetica,sans-Serif" font-size="11.00" fill="#000000">...</text>
<polygon fill="#ffffff" stroke="transparent" points="8,-43.2 8,-62.2 122,-62.2 122,-43.2 8,-43.2"/>
<polygon fill="none" stroke="#000000" points="8,-43.2 8,-62.2 122,-62.2 122,-43.2 8,-43.2"/>
<text text-anchor="start" x="11" y="-49.3" font-family="Helvetica,sans-Serif" font-size="11.00" fill="#000000"> &#160;</text>
<polygon fill="#ffffff" stroke="transparent" points="122,-43.2 122,-62.2 211,-62.2 211,-43.2 122,-43.2"/>
<polygon fill="none" stroke="#000000" points="122,-43.2 122,-62.2 211,-62.2 211,-43.2 122,-43.2"/>
<text text-anchor="start" x="175.6105" y="-49.3" font-family="Helvetica,sans-Serif" font-size="11.00" fill="#000000">0 rows</text>
<polygon fill="#ffffff" stroke="transparent" points="211,-43.2 211,-62.2 284,-62.2 284,-43.2 211,-43.2"/>
<polygon fill="none" stroke="#000000" points="211,-43.2 211,-62.2 284,-62.2 284,-43.2 211,-43.2"/>
<text text-anchor="start" x="265.4053" y="-49.3" font-family="Helvetica,sans-Serif" font-size="11.00" fill="#000000">1 &gt;</text>
</a>
</g>
</g>
<!-- policies_to_court_challenges&#45;&gt;court_challenge -->
<g id="edge5" class="edge">
<title>policies_to_court_challenges:w&#45;&gt;court_challenge:e</title>
<path fill="none" stroke="#000000" d="M321.0156,-92.2C308.6771,-92.2 301.1667,-92.2 284,-92.2"/>
<polygon fill="#000000" stroke="#000000" points="327.5,-92.2001 335.5,-95.8 331.5,-92.2 335.5,-92.2 335.5,-92.2 335.5,-92.2 331.5,-92.2 335.5,-88.6 327.5,-92.2001 327.5,-92.2001"/>
<ellipse fill="none" stroke="#000000" cx="324.3" cy="-92.2001" rx="3.2" ry="3.2"/>
</g>
<!-- policy_number_to_policy -->
<g id="node8" class="node">
<title>policy_number_to_policy</title>
<g id="a_node8"><a xlink:href="../../tables/policy_number_to_policy.html" xlink:title="policy_number_to_policy" target="_top">
<polygon fill="#ffffff" stroke="transparent" points="368.5,-477.7 368.5,-538.7 532.5,-538.7 532.5,-477.7 368.5,-477.7"/>
<polygon fill="#f5f5f5" stroke="transparent" points="368.5,-515.2 368.5,-538.2 532.5,-538.2 532.5,-515.2 368.5,-515.2"/>
<polygon fill="none" stroke="#000000" points="368.5,-515.2 368.5,-538.2 532.5,-538.2 532.5,-515.2 368.5,-515.2"/>
<text text-anchor="start" x="373.4885" y="-524.3" font-family="Helvetica,sans-Serif" font-weight="bold" font-size="11.00" fill="#000000">policy_number_to_policy</text>
<text text-anchor="start" x="498.0219" y="-523.3" font-family="Helvetica,sans-Serif" font-size="11.00" fill="#000000">[table]</text>
<polygon fill="none" stroke="#000000" points="368.5,-496.2 368.5,-515.2 532.5,-515.2 532.5,-496.2 368.5,-496.2"/>
<text text-anchor="start" x="371.5" y="-502.3" font-family="Helvetica,sans-Serif" font-size="11.00" fill="#000000">...</text>
<polygon fill="#ffffff" stroke="transparent" points="368.5,-477.2 368.5,-496.2 422.5,-496.2 422.5,-477.2 368.5,-477.2"/>
<polygon fill="none" stroke="#000000" points="368.5,-477.2 368.5,-496.2 422.5,-496.2 422.5,-477.2 368.5,-477.2"/>
<text text-anchor="start" x="371.5" y="-483.3" font-family="Helvetica,sans-Serif" font-size="11.00" fill="#000000">&lt; 2</text>
<polygon fill="#ffffff" stroke="transparent" points="422.5,-477.2 422.5,-496.2 503.5,-496.2 503.5,-477.2 422.5,-477.2"/>
<polygon fill="none" stroke="#000000" points="422.5,-477.2 422.5,-496.2 503.5,-496.2 503.5,-477.2 422.5,-477.2"/>
<text text-anchor="start" x="440.594" y="-483.3" font-family="Helvetica,sans-Serif" font-size="11.00" fill="#000000">40,950 rows</text>
<polygon fill="#ffffff" stroke="transparent" points="503.5,-477.2 503.5,-496.2 532.5,-496.2 532.5,-477.2 503.5,-477.2"/>
<polygon fill="none" stroke="#000000" points="503.5,-477.2 503.5,-496.2 532.5,-496.2 532.5,-477.2 503.5,-477.2"/>
<text text-anchor="start" x="523.3862" y="-483.3" font-family="Helvetica,sans-Serif" font-size="11.00" fill="#000000"> &#160;</text>
</a>
</g>
</g>
<!-- policy_number_to_policy&#45;&gt;policy -->
<g id="edge7" class="edge">
<title>policy_number_to_policy:w&#45;&gt;policy:e</title>
<path fill="none" stroke="#000000" d="M354.0755,-503.3658C298.998,-488.065 324.7303,-382.2 256,-382.2"/>
<polygon fill="#000000" stroke="#000000" points="360.5639,-504.1908 368.0459,-508.7712 364.532,-504.6954 368.5,-505.2 368.5,-505.2 368.5,-505.2 364.532,-504.6954 368.9541,-501.6288 360.5639,-504.1908 360.5639,-504.1908"/>
<ellipse fill="none" stroke="#000000" cx="357.3895" cy="-503.7871" rx="3.2" ry="3.2"/>
</g>
<!-- policy_to_prior_policy -->
<g id="node9" class="node">
<title>policy_to_prior_policy</title>
<g id="a_node9"><a xlink:href="../../tables/policy_to_prior_policy.html" xlink:title="policy_to_prior_policy" target="_top">
<polygon fill="#ffffff" stroke="transparent" points="376.5,-395.7 376.5,-456.7 524.5,-456.7 524.5,-395.7 376.5,-395.7"/>
<polygon fill="#f5f5f5" stroke="transparent" points="376.5,-433.2 376.5,-456.2 524.5,-456.2 524.5,-433.2 376.5,-433.2"/>
<polygon fill="none" stroke="#000000" points="376.5,-433.2 376.5,-456.2 524.5,-456.2 524.5,-433.2 376.5,-433.2"/>
<text text-anchor="start" x="381.1329" y="-442.3" font-family="Helvetica,sans-Serif" font-weight="bold" font-size="11.00" fill="#000000">policy_to_prior_policy</text>
<text text-anchor="start" x="490.0219" y="-441.3" font-family="Helvetica,sans-Serif" font-size="11.00" fill="#000000">[table]</text>
<polygon fill="none" stroke="#000000" points="376.5,-414.2 376.5,-433.2 524.5,-433.2 524.5,-414.2 376.5,-414.2"/>
<text text-anchor="start" x="379.5" y="-420.3" font-family="Helvetica,sans-Serif" font-size="11.00" fill="#000000">...</text>
<polygon fill="#ffffff" stroke="transparent" points="376.5,-395.2 376.5,-414.2 422.5,-414.2 422.5,-395.2 376.5,-395.2"/>
<polygon fill="none" stroke="#000000" points="376.5,-395.2 376.5,-414.2 422.5,-414.2 422.5,-395.2 376.5,-395.2"/>
<text text-anchor="start" x="379.5" y="-401.3" font-family="Helvetica,sans-Serif" font-size="11.00" fill="#000000">&lt; 2</text>
<polygon fill="#ffffff" stroke="transparent" points="422.5,-395.2 422.5,-414.2 499.5,-414.2 499.5,-395.2 422.5,-395.2"/>
<polygon fill="none" stroke="#000000" points="422.5,-395.2 422.5,-414.2 499.5,-414.2 499.5,-395.2 422.5,-395.2"/>
<text text-anchor="start" x="436.594" y="-401.3" font-family="Helvetica,sans-Serif" font-size="11.00" fill="#000000">36,085 rows</text>
<polygon fill="#ffffff" stroke="transparent" points="499.5,-395.2 499.5,-414.2 524.5,-414.2 524.5,-395.2 499.5,-395.2"/>
<polygon fill="none" stroke="#000000" points="499.5,-395.2 499.5,-414.2 524.5,-414.2 524.5,-395.2 499.5,-395.2"/>
<text text-anchor="start" x="515.3862" y="-401.3" font-family="Helvetica,sans-Serif" font-size="11.00" fill="#000000"> &#160;</text>
</a>
</g>
</g>
<!-- policy_to_prior_policy&#45;&gt;policy -->
<g id="edge8" class="edge">
<title>policy_to_prior_policy:w&#45;&gt;policy:e</title>
<path fill="none" stroke="#000000" d="M362.0889,-420.7263C318.1636,-410.0687 307.3777,-376.7508 256,-382.2"/>
<polygon fill="#000000" stroke="#000000" points="368.6153,-421.8465 375.8909,-426.7481 372.5577,-422.5233 376.5,-423.2 376.5,-423.2 376.5,-423.2 372.5577,-422.5233 377.1091,-419.6519 368.6153,-421.8465 368.6153,-421.8465"/>
<ellipse fill="none" stroke="#000000" cx="365.4614" cy="-421.3051" rx="3.2" ry="3.2"/>
</g>
<!-- policy_to_prior_policy&#45;&gt;policy -->
<g id="edge9" class="edge">
<title>policy_to_prior_policy:w&#45;&gt;policy:e</title>
<path fill="none" stroke="#000000" d="M362.0889,-423.9777C318.1636,-422.9592 307.3777,-388.5574 256,-382.2"/>
<polygon fill="#000000" stroke="#000000" points="368.5116,-423.6312 376.694,-426.7948 372.5058,-423.4156 376.5,-423.2 376.5,-423.2 376.5,-423.2 372.5058,-423.4156 376.306,-419.6052 368.5116,-423.6312 368.5116,-423.6312"/>
<ellipse fill="none" stroke="#000000" cx="365.3163" cy="-423.8036" rx="3.2" ry="3.2"/>
</g>
</g>
</svg>
