<?xml version="1.0" encoding="UTF-8" standalone="no"?>
<!DOCTYPE svg PUBLIC "-//W3C//DTD SVG 1.1//EN"
 "http://www.w3.org/Graphics/SVG/1.1/DTD/svg11.dtd">
<!-- Generated by graphviz version 2.40.1 (20161225.0304)
 -->
<!-- Title: twoDegreesRelationshipsDiagram Pages: 1 -->
<svg width="674pt" height="391pt"
 viewBox="0.00 0.00 674.00 390.70" xmlns="http://www.w3.org/2000/svg" xmlns:xlink="http://www.w3.org/1999/xlink">
<g id="graph0" class="graph" transform="scale(1 1) rotate(0) translate(4 386.7)">
<title>twoDegreesRelationshipsDiagram</title>
<polygon fill="#ffffff" stroke="transparent" points="-4,4 -4,-386.7 670,-386.7 670,4 -4,4"/>
<text text-anchor="middle" x="72.4936" y="-7.3" font-family="Helvetica,sans-Serif" font-size="11.00" fill="#000000">Generated by SchemaSpy</text>
<!-- auth_entity -->
<g id="node1" class="node">
<title>auth_entity</title>
<g id="a_node1"><a xlink:href="../../tables/auth_entity.html" xlink:title="auth_entity" target="_top">
<polygon fill="#ffffff" stroke="transparent" points="240,-315.2 240,-376.2 341,-376.2 341,-315.2 240,-315.2"/>
<polygon fill="#f5f5f5" stroke="transparent" points="240.5,-352.7 240.5,-375.7 341.5,-375.7 341.5,-352.7 240.5,-352.7"/>
<polygon fill="none" stroke="#000000" points="240.5,-352.7 240.5,-375.7 341.5,-375.7 341.5,-352.7 240.5,-352.7"/>
<text text-anchor="start" x="245.5" y="-361.8" font-family="Helvetica,sans-Serif" font-weight="bold" font-size="11.00" fill="#000000">auth_entity</text>
<text text-anchor="start" x="306.5437" y="-360.8" font-family="Helvetica,sans-Serif" font-size="11.00" fill="#000000">[table]</text>
<polygon fill="none" stroke="#000000" points="240.5,-333.7 240.5,-352.7 341.5,-352.7 341.5,-333.7 240.5,-333.7"/>
<text text-anchor="start" x="243.5" y="-339.8" font-family="Helvetica,sans-Serif" font-size="11.00" fill="#000000">...</text>
<polygon fill="#ffffff" stroke="transparent" points="240.5,-314.7 240.5,-333.7 261.5,-333.7 261.5,-314.7 240.5,-314.7"/>
<polygon fill="none" stroke="#000000" points="240.5,-314.7 240.5,-333.7 261.5,-333.7 261.5,-314.7 240.5,-314.7"/>
<text text-anchor="start" x="243.2027" y="-320.8" font-family="Helvetica,sans-Serif" font-size="11.00" fill="#000000">&lt; 1</text>
<polygon fill="#ffffff" stroke="transparent" points="261.5,-314.7 261.5,-333.7 320.5,-333.7 320.5,-314.7 261.5,-314.7"/>
<polygon fill="none" stroke="#000000" points="261.5,-314.7 261.5,-333.7 320.5,-333.7 320.5,-314.7 261.5,-314.7"/>
<text text-anchor="start" x="264.1045" y="-320.8" font-family="Helvetica,sans-Serif" font-size="11.00" fill="#000000">2,901 rows</text>
<polygon fill="#ffffff" stroke="transparent" points="320.5,-314.7 320.5,-333.7 341.5,-333.7 341.5,-314.7 320.5,-314.7"/>
<polygon fill="none" stroke="#000000" points="320.5,-314.7 320.5,-333.7 341.5,-333.7 341.5,-314.7 320.5,-314.7"/>
<text text-anchor="start" x="323.2027" y="-320.8" font-family="Helvetica,sans-Serif" font-size="11.00" fill="#000000">3 &gt;</text>
</a>
</g>
</g>
<!-- place -->
<g id="node2" class="node">
<title>place</title>
<g id="a_node2"><a xlink:href="../../tables/place.html" xlink:title="place" target="_top">
<polygon fill="#ffffff" stroke="transparent" points="8,-287.2 8,-348.2 100,-348.2 100,-287.2 8,-287.2"/>
<polygon fill="#f5f5f5" stroke="transparent" points="8,-324.7 8,-347.7 100,-347.7 100,-324.7 8,-324.7"/>
<polygon fill="none" stroke="#000000" points="8,-324.7 8,-347.7 100,-347.7 100,-324.7 8,-324.7"/>
<text text-anchor="start" x="13" y="-333.8" font-family="Helvetica,sans-Serif" font-weight="bold" font-size="11.00" fill="#000000">place</text>
<text text-anchor="start" x="65.0437" y="-332.8" font-family="Helvetica,sans-Serif" font-size="11.00" fill="#000000">[table]</text>
<polygon fill="none" stroke="#000000" points="8,-305.7 8,-324.7 100,-324.7 100,-305.7 8,-305.7"/>
<text text-anchor="start" x="11" y="-311.8" font-family="Helvetica,sans-Serif" font-size="11.00" fill="#000000">...</text>
<polygon fill="#ffffff" stroke="transparent" points="8,-286.7 8,-305.7 20,-305.7 20,-286.7 8,-286.7"/>
<polygon fill="none" stroke="#000000" points="8,-286.7 8,-305.7 20,-305.7 20,-286.7 8,-286.7"/>
<text text-anchor="start" x="10.9431" y="-292.8" font-family="Helvetica,sans-Serif" font-size="11.00" fill="#000000"> &#160;</text>
<polygon fill="#ffffff" stroke="transparent" points="20,-286.7 20,-305.7 79,-305.7 79,-286.7 20,-286.7"/>
<polygon fill="none" stroke="#000000" points="20,-286.7 20,-305.7 79,-305.7 79,-286.7 20,-286.7"/>
<text text-anchor="start" x="22.6045" y="-292.8" font-family="Helvetica,sans-Serif" font-size="11.00" fill="#000000">7,645 rows</text>
<polygon fill="#ffffff" stroke="transparent" points="79,-286.7 79,-305.7 100,-305.7 100,-286.7 79,-286.7"/>
<polygon fill="none" stroke="#000000" points="79,-286.7 79,-305.7 100,-305.7 100,-286.7 79,-286.7"/>
<text text-anchor="start" x="81.7027" y="-292.8" font-family="Helvetica,sans-Serif" font-size="11.00" fill="#000000">7 &gt;</text>
</a>
</g>
</g>
<!-- auth_entity&#45;&gt;place -->
<g id="edge1" class="edge">
<title>auth_entity:w&#45;&gt;place:e</title>
<path fill="none" stroke="#000000" d="M225.7947,-342.1657C174.3294,-338.2947 158.4493,-314.7 100,-314.7"/>
<polygon fill="#000000" stroke="#000000" points="232.5053,-342.4095 240.3693,-346.2976 236.5026,-342.5547 240.5,-342.7 240.5,-342.7 240.5,-342.7 236.5026,-342.5547 240.6307,-339.1024 232.5053,-342.4095 232.5053,-342.4095"/>
<ellipse fill="none" stroke="#000000" cx="229.3074" cy="-342.2932" rx="3.2" ry="3.2"/>
</g>
<!-- auth_entity_policy_number -->
<g id="node3" class="node">
<title>auth_entity_policy_number</title>
<g id="a_node3"><a xlink:href="../../tables/auth_entity_policy_number.html" xlink:title="auth_entity_policy_number" target="_top">
<polygon fill="#ffffff" stroke="transparent" points="481,-292.7 481,-378.7 658,-378.7 658,-292.7 481,-292.7"/>
<polygon fill="#f5f5f5" stroke="transparent" points="481.5,-355.7 481.5,-378.7 658.5,-378.7 658.5,-355.7 481.5,-355.7"/>
<polygon fill="none" stroke="#000000" points="481.5,-355.7 481.5,-378.7 658.5,-378.7 658.5,-355.7 481.5,-355.7"/>
<text text-anchor="start" x="486.5" y="-364.8" font-family="Helvetica,sans-Serif" font-weight="bold" font-size="11.00" fill="#000000">auth_entity_policy_number</text>
<text text-anchor="start" x="623.5437" y="-363.8" font-family="Helvetica,sans-Serif" font-size="11.00" fill="#000000">[table]</text>
<polygon fill="none" stroke="#000000" points="481.5,-333.7 481.5,-355.7 658.5,-355.7 658.5,-333.7 481.5,-333.7"/>
<image xlink:href="../../images/primaryKeys.png" width="11px" height="12px" preserveAspectRatio="xMinYMin meet" x="486.5" y="-350.7"/>
<text text-anchor="start" x="501.5" y="-340.8" font-family="Helvetica,sans-Serif" font-size="11.00" fill="#000000">auth_entity</text>
<polygon fill="none" stroke="#000000" points="481.5,-311.7 481.5,-333.7 658.5,-333.7 658.5,-311.7 481.5,-311.7"/>
<image xlink:href="../../images/primaryKeys.png" width="11px" height="12px" preserveAspectRatio="xMinYMin meet" x="486.5" y="-328.7"/>
<text text-anchor="start" x="501.5" y="-318.8" font-family="Helvetica,sans-Serif" font-size="11.00" fill="#000000">policy_number</text>
<polygon fill="#ffffff" stroke="transparent" points="481.5,-292.7 481.5,-311.7 541.5,-311.7 541.5,-292.7 481.5,-292.7"/>
<polygon fill="none" stroke="#000000" points="481.5,-292.7 481.5,-311.7 541.5,-311.7 541.5,-292.7 481.5,-292.7"/>
<text text-anchor="start" x="484.5" y="-298.8" font-family="Helvetica,sans-Serif" font-size="11.00" fill="#000000">&lt; 2</text>
<polygon fill="#ffffff" stroke="transparent" points="541.5,-292.7 541.5,-311.7 626.5,-311.7 626.5,-292.7 541.5,-292.7"/>
<polygon fill="none" stroke="#000000" points="541.5,-292.7 541.5,-311.7 626.5,-311.7 626.5,-292.7 541.5,-292.7"/>
<text text-anchor="start" x="563.594" y="-298.8" font-family="Helvetica,sans-Serif" font-size="11.00" fill="#000000">18,291 rows</text>
<polygon fill="#ffffff" stroke="transparent" points="626.5,-292.7 626.5,-311.7 658.5,-311.7 658.5,-292.7 626.5,-292.7"/>
<polygon fill="none" stroke="#000000" points="626.5,-292.7 626.5,-311.7 658.5,-311.7 658.5,-292.7 626.5,-292.7"/>
<text text-anchor="start" x="649.3862" y="-298.8" font-family="Helvetica,sans-Serif" font-size="11.00" fill="#000000"> &#160;</text>
</a>
</g>
</g>
<!-- auth_entity_policy_number&#45;&gt;auth_entity -->
<g id="edge2" class="edge">
<title>auth_entity_policy_number:w&#45;&gt;auth_entity:e</title>
<path fill="none" stroke="#000000" d="M467.0769,-344.6618C416.4073,-344.3853 398.6239,-342.7 341.5,-342.7"/>
<polygon fill="#000000" stroke="#000000" points="473.5,-344.6788 481.4904,-348.3 477.5,-344.6894 481.5,-344.7 481.5,-344.7 481.5,-344.7 477.5,-344.6894 481.5096,-341.1 473.5,-344.6788 473.5,-344.6788"/>
<ellipse fill="none" stroke="#000000" cx="470.3" cy="-344.6703" rx="3.2" ry="3.2"/>
</g>
<!-- policy_number -->
<g id="node4" class="node">
<title>policy_number</title>
<g id="a_node4"><a xlink:href="../../tables/policy_number.html" xlink:title="policy_number" target="_top">
<polygon fill="#ffffff" stroke="transparent" points="149,-120.7 149,-254.7 432,-254.7 432,-120.7 149,-120.7"/>
<polygon fill="#f5f5f5" stroke="transparent" points="151.5,-229.7 151.5,-252.7 430.5,-252.7 430.5,-229.7 151.5,-229.7"/>
<polygon fill="none" stroke="#000000" points="151.5,-229.7 151.5,-252.7 430.5,-252.7 430.5,-229.7 151.5,-229.7"/>
<text text-anchor="start" x="156.5" y="-238.8" font-family="Helvetica,sans-Serif" font-weight="bold" font-size="11.00" fill="#000000">policy_number</text>
<text text-anchor="start" x="395.5437" y="-237.8" font-family="Helvetica,sans-Serif" font-size="11.00" fill="#000000">[table]</text>
<polygon fill="none" stroke="#000000" points="151.5,-207.7 151.5,-229.7 333.5,-229.7 333.5,-207.7 151.5,-207.7"/>
<image xlink:href="../../images/primaryKeys.png" width="11px" height="12px" preserveAspectRatio="xMinYMin meet" x="156.5" y="-224.7"/>
<text text-anchor="start" x="171.5" y="-214.8" font-family="Helvetica,sans-Serif" font-size="11.00" fill="#000000">id</text>
<polygon fill="none" stroke="#000000" points="333.5,-207.7 333.5,-229.7 430.5,-229.7 430.5,-207.7 333.5,-207.7"/>
<text text-anchor="start" x="336.5" y="-215.4" font-family="Helvetica,sans-Serif" font-size="11.00" fill="#000000">int4[10]</text>
<polygon fill="none" stroke="#000000" points="151.5,-185.7 151.5,-207.7 333.5,-207.7 333.5,-185.7 151.5,-185.7"/>
<text text-anchor="start" x="171.5" y="-192.8" font-family="Helvetica,sans-Serif" font-size="11.00" fill="#000000">names</text>
<polygon fill="none" stroke="#000000" points="333.5,-185.7 333.5,-207.7 430.5,-207.7 430.5,-185.7 333.5,-185.7"/>
<text text-anchor="start" x="336.4468" y="-193.4" font-family="Helvetica,sans-Serif" font-size="11.00" fill="#000000">_text[2147483647]</text>
<polygon fill="none" stroke="#000000" points="151.5,-163.7 151.5,-185.7 333.5,-185.7 333.5,-163.7 151.5,-163.7"/>
<text text-anchor="start" x="171.5" y="-170.8" font-family="Helvetica,sans-Serif" font-size="11.00" fill="#000000">earliest_date_start_effective</text>
<polygon fill="none" stroke="#000000" points="333.5,-163.7 333.5,-185.7 430.5,-185.7 430.5,-163.7 333.5,-163.7"/>
<text text-anchor="start" x="336.5" y="-171.4" font-family="Helvetica,sans-Serif" font-size="11.00" fill="#000000">date[13]</text>
<polygon fill="none" stroke="#000000" points="151.5,-141.7 151.5,-163.7 333.5,-163.7 333.5,-141.7 151.5,-141.7"/>
<text text-anchor="start" x="171.5" y="-148.8" font-family="Helvetica,sans-Serif" font-size="11.00" fill="#000000">search_text</text>
<polygon fill="none" stroke="#000000" points="333.5,-141.7 333.5,-163.7 430.5,-163.7 430.5,-141.7 333.5,-141.7"/>
<text text-anchor="start" x="336.5" y="-149.4" font-family="Helvetica,sans-Serif" font-size="11.00" fill="#000000">text[2147483647]</text>
<polygon fill="#ffffff" stroke="transparent" points="151.5,-122.7 151.5,-141.7 220.5,-141.7 220.5,-122.7 151.5,-122.7"/>
<polygon fill="none" stroke="#000000" points="151.5,-122.7 151.5,-141.7 220.5,-141.7 220.5,-122.7 151.5,-122.7"/>
<text text-anchor="start" x="154.5" y="-128.8" font-family="Helvetica,sans-Serif" font-size="11.00" fill="#000000">&lt; 0</text>
<polygon fill="#ffffff" stroke="transparent" points="220.5,-122.7 220.5,-141.7 333.5,-141.7 333.5,-122.7 220.5,-122.7"/>
<polygon fill="none" stroke="#000000" points="220.5,-122.7 220.5,-141.7 333.5,-141.7 333.5,-122.7 220.5,-122.7"/>
<text text-anchor="start" x="270.594" y="-128.8" font-family="Helvetica,sans-Serif" font-size="11.00" fill="#000000">17,427 rows</text>
<polygon fill="#ffffff" stroke="transparent" points="333.5,-122.7 333.5,-141.7 430.5,-141.7 430.5,-122.7 333.5,-122.7"/>
<polygon fill="none" stroke="#000000" points="333.5,-122.7 333.5,-141.7 430.5,-141.7 430.5,-122.7 333.5,-122.7"/>
<text text-anchor="start" x="411.9053" y="-128.8" font-family="Helvetica,sans-Serif" font-size="11.00" fill="#000000">3 &gt;</text>
<polygon fill="none" stroke="#000000" stroke-width="2" points="150,-121.7 150,-253.7 431,-253.7 431,-121.7 150,-121.7"/>
</a>
</g>
</g>
<!-- auth_entity_policy_number&#45;&gt;policy_number -->
<g id="edge3" class="edge">
<title>auth_entity_policy_number:w&#45;&gt;policy_number:e</title>
<path fill="none" stroke="#000000" d="M467.33,-318.7501C440.7771,-299.7532 475.9479,-218.7 430.5,-218.7"/>
<polygon fill="#000000" stroke="#000000" points="473.7938,-320.5518 480.5333,-326.1678 477.6469,-321.6259 481.5,-322.7 481.5,-322.7 481.5,-322.7 477.6469,-321.6259 482.4667,-319.2322 473.7938,-320.5518 473.7938,-320.5518"/>
<ellipse fill="none" stroke="#000000" cx="470.7113" cy="-319.6926" rx="3.2" ry="3.2"/>
</g>
<!-- place_policy_number -->
<g id="node5" class="node">
<title>place_policy_number</title>
<g id="a_node5"><a xlink:href="../../tables/place_policy_number.html" xlink:title="place_policy_number" target="_top">
<polygon fill="#ffffff" stroke="transparent" points="496.5,-185.7 496.5,-271.7 642.5,-271.7 642.5,-185.7 496.5,-185.7"/>
<polygon fill="#f5f5f5" stroke="transparent" points="496.5,-248.7 496.5,-271.7 642.5,-271.7 642.5,-248.7 496.5,-248.7"/>
<polygon fill="none" stroke="#000000" points="496.5,-248.7 496.5,-271.7 642.5,-271.7 642.5,-248.7 496.5,-248.7"/>
<text text-anchor="start" x="501.0448" y="-257.8" font-family="Helvetica,sans-Serif" font-weight="bold" font-size="11.00" fill="#000000">place_policy_number</text>
<text text-anchor="start" x="608.0219" y="-256.8" font-family="Helvetica,sans-Serif" font-size="11.00" fill="#000000">[table]</text>
<polygon fill="none" stroke="#000000" points="496.5,-226.7 496.5,-248.7 642.5,-248.7 642.5,-226.7 496.5,-226.7"/>
<image xlink:href="../../images/primaryKeys.png" width="11px" height="12px" preserveAspectRatio="xMinYMin meet" x="501.5" y="-243.7"/>
<text text-anchor="start" x="518.5" y="-233.8" font-family="Helvetica,sans-Serif" font-size="11.00" fill="#000000">place</text>
<polygon fill="none" stroke="#000000" points="496.5,-204.7 496.5,-226.7 642.5,-226.7 642.5,-204.7 496.5,-204.7"/>
<image xlink:href="../../images/primaryKeys.png" width="11px" height="12px" preserveAspectRatio="xMinYMin meet" x="501.5" y="-221.7"/>
<text text-anchor="start" x="518.5" y="-211.8" font-family="Helvetica,sans-Serif" font-size="11.00" fill="#000000">policy_number</text>
<polygon fill="#ffffff" stroke="transparent" points="496.5,-185.7 496.5,-204.7 541.5,-204.7 541.5,-185.7 496.5,-185.7"/>
<polygon fill="none" stroke="#000000" points="496.5,-185.7 496.5,-204.7 541.5,-204.7 541.5,-185.7 496.5,-185.7"/>
<text text-anchor="start" x="499.5" y="-191.8" font-family="Helvetica,sans-Serif" font-size="11.00" fill="#000000">&lt; 2</text>
<polygon fill="#ffffff" stroke="transparent" points="541.5,-185.7 541.5,-204.7 618.5,-204.7 618.5,-185.7 541.5,-185.7"/>
<polygon fill="none" stroke="#000000" points="541.5,-185.7 541.5,-204.7 618.5,-204.7 618.5,-185.7 541.5,-185.7"/>
<text text-anchor="start" x="555.594" y="-191.8" font-family="Helvetica,sans-Serif" font-size="11.00" fill="#000000">32,265 rows</text>
<polygon fill="#ffffff" stroke="transparent" points="618.5,-185.7 618.5,-204.7 642.5,-204.7 642.5,-185.7 618.5,-185.7"/>
<polygon fill="none" stroke="#000000" points="618.5,-185.7 618.5,-204.7 642.5,-204.7 642.5,-185.7 618.5,-185.7"/>
<text text-anchor="start" x="633.3862" y="-191.8" font-family="Helvetica,sans-Serif" font-size="11.00" fill="#000000"> &#160;</text>
</a>
</g>
</g>
<!-- place_policy_number&#45;&gt;place -->
<g id="edge4" class="edge">
<title>place_policy_number:w&#45;&gt;place:e</title>
<path fill="none" stroke="#000000" d="M482.2538,-239.893C466.7626,-245.2828 461.3688,-259.209 440,-265.7 311.7708,-304.6508 272.7409,-280.1187 141,-304.7 122.5618,-308.1403 118.7564,-314.7 100,-314.7"/>
<polygon fill="#000000" stroke="#000000" points="488.5931,-238.9172 497.0477,-241.2581 492.5466,-238.3086 496.5,-237.7 496.5,-237.7 496.5,-237.7 492.5466,-238.3086 495.9523,-234.1419 488.5931,-238.9172 488.5931,-238.9172"/>
<ellipse fill="none" stroke="#000000" cx="485.4304" cy="-239.4041" rx="3.2" ry="3.2"/>
</g>
<!-- place_policy_number&#45;&gt;policy_number -->
<g id="edge5" class="edge">
<title>place_policy_number:w&#45;&gt;policy_number:e</title>
<path fill="none" stroke="#000000" d="M482.0216,-215.9769C463.6325,-216.7195 454.3579,-218.7 430.5,-218.7"/>
<polygon fill="#000000" stroke="#000000" points="488.5015,-215.853 496.5689,-219.2993 492.5007,-215.7765 496.5,-215.7 496.5,-215.7 496.5,-215.7 492.5007,-215.7765 496.4311,-212.1007 488.5015,-215.853 488.5015,-215.853"/>
<ellipse fill="none" stroke="#000000" cx="485.302" cy="-215.9142" rx="3.2" ry="3.2"/>
</g>
<!-- policy_number_to_policy -->
<g id="node6" class="node">
<title>policy_number_to_policy</title>
<g id="a_node6"><a xlink:href="../../tables/policy_number_to_policy.html" xlink:title="policy_number_to_policy" target="_top">
<polygon fill="#ffffff" stroke="transparent" points="487,-47.7 487,-133.7 652,-133.7 652,-47.7 487,-47.7"/>
<polygon fill="#f5f5f5" stroke="transparent" points="487.5,-110.7 487.5,-133.7 652.5,-133.7 652.5,-110.7 487.5,-110.7"/>
<polygon fill="none" stroke="#000000" points="487.5,-110.7 487.5,-133.7 652.5,-133.7 652.5,-110.7 487.5,-110.7"/>
<text text-anchor="start" x="492.5" y="-119.8" font-family="Helvetica,sans-Serif" font-weight="bold" font-size="11.00" fill="#000000">policy_number_to_policy</text>
<text text-anchor="start" x="618.0219" y="-118.8" font-family="Helvetica,sans-Serif" font-size="11.00" fill="#000000">[table]</text>
<polygon fill="none" stroke="#000000" points="487.5,-88.7 487.5,-110.7 652.5,-110.7 652.5,-88.7 487.5,-88.7"/>
<image xlink:href="../../images/primaryKeys.png" width="11px" height="12px" preserveAspectRatio="xMinYMin meet" x="492.5" y="-105.7"/>
<text text-anchor="start" x="507.5" y="-95.8" font-family="Helvetica,sans-Serif" font-size="11.00" fill="#000000">policy</text>
<polygon fill="none" stroke="#000000" points="487.5,-66.7 487.5,-88.7 652.5,-88.7 652.5,-66.7 487.5,-66.7"/>
<image xlink:href="../../images/primaryKeys.png" width="11px" height="12px" preserveAspectRatio="xMinYMin meet" x="492.5" y="-83.7"/>
<text text-anchor="start" x="507.5" y="-73.8" font-family="Helvetica,sans-Serif" font-size="11.00" fill="#000000">policy_number</text>
<polygon fill="#ffffff" stroke="transparent" points="487.5,-47.7 487.5,-66.7 541.5,-66.7 541.5,-47.7 487.5,-47.7"/>
<polygon fill="none" stroke="#000000" points="487.5,-47.7 487.5,-66.7 541.5,-66.7 541.5,-47.7 487.5,-47.7"/>
<text text-anchor="start" x="490.5" y="-53.8" font-family="Helvetica,sans-Serif" font-size="11.00" fill="#000000">&lt; 2</text>
<polygon fill="#ffffff" stroke="transparent" points="541.5,-47.7 541.5,-66.7 623.5,-66.7 623.5,-47.7 541.5,-47.7"/>
<polygon fill="none" stroke="#000000" points="541.5,-47.7 541.5,-66.7 623.5,-66.7 623.5,-47.7 541.5,-47.7"/>
<text text-anchor="start" x="560.594" y="-53.8" font-family="Helvetica,sans-Serif" font-size="11.00" fill="#000000">40,950 rows</text>
<polygon fill="#ffffff" stroke="transparent" points="623.5,-47.7 623.5,-66.7 652.5,-66.7 652.5,-47.7 623.5,-47.7"/>
<polygon fill="none" stroke="#000000" points="623.5,-47.7 623.5,-66.7 652.5,-66.7 652.5,-47.7 623.5,-47.7"/>
<text text-anchor="start" x="643.3862" y="-53.8" font-family="Helvetica,sans-Serif" font-size="11.00" fill="#000000"> &#160;</text>
</a>
</g>
</g>
<!-- policy_number_to_policy&#45;&gt;policy_number -->
<g id="edge7" class="edge">
<title>policy_number_to_policy:w&#45;&gt;policy_number:e</title>
<path fill="none" stroke="#000000" d="M473.1184,-80.645C432.2682,-100.8931 492.2847,-218.7 430.5,-218.7"/>
<polygon fill="#000000" stroke="#000000" points="479.6626,-79.3049 488.2222,-81.2268 483.5813,-78.5025 487.5,-77.7 487.5,-77.7 487.5,-77.7 483.5813,-78.5025 486.7778,-74.1732 479.6626,-79.3049 479.6626,-79.3049"/>
<ellipse fill="none" stroke="#000000" cx="476.5277" cy="-79.9469" rx="3.2" ry="3.2"/>
</g>
<!-- policy -->
<g id="node7" class="node">
<title>policy</title>
<g id="a_node7"><a xlink:href="../../tables/policy.html" xlink:title="policy" target="_top">
<polygon fill="#ffffff" stroke="transparent" points="241.5,-38.2 241.5,-99.2 339.5,-99.2 339.5,-38.2 241.5,-38.2"/>
<polygon fill="#f5f5f5" stroke="transparent" points="241.5,-75.7 241.5,-98.7 339.5,-98.7 339.5,-75.7 241.5,-75.7"/>
<polygon fill="none" stroke="#000000" points="241.5,-75.7 241.5,-98.7 339.5,-98.7 339.5,-75.7 241.5,-75.7"/>
<text text-anchor="start" x="246.5" y="-84.8" font-family="Helvetica,sans-Serif" font-weight="bold" font-size="11.00" fill="#000000">policy</text>
<text text-anchor="start" x="304.5437" y="-83.8" font-family="Helvetica,sans-Serif" font-size="11.00" fill="#000000">[table]</text>
<polygon fill="none" stroke="#000000" points="241.5,-56.7 241.5,-75.7 339.5,-75.7 339.5,-56.7 241.5,-56.7"/>
<text text-anchor="start" x="244.5" y="-62.8" font-family="Helvetica,sans-Serif" font-size="11.00" fill="#000000">...</text>
<polygon fill="#ffffff" stroke="transparent" points="241.5,-37.7 241.5,-56.7 253.5,-56.7 253.5,-37.7 241.5,-37.7"/>
<polygon fill="none" stroke="#000000" points="241.5,-37.7 241.5,-56.7 253.5,-56.7 253.5,-37.7 241.5,-37.7"/>
<text text-anchor="start" x="244.4431" y="-43.8" font-family="Helvetica,sans-Serif" font-size="11.00" fill="#000000"> &#160;</text>
<polygon fill="#ffffff" stroke="transparent" points="253.5,-37.7 253.5,-56.7 318.5,-56.7 318.5,-37.7 253.5,-37.7"/>
<polygon fill="none" stroke="#000000" points="253.5,-37.7 253.5,-56.7 318.5,-56.7 318.5,-37.7 253.5,-37.7"/>
<text text-anchor="start" x="256.047" y="-43.8" font-family="Helvetica,sans-Serif" font-size="11.00" fill="#000000">40,950 rows</text>
<polygon fill="#ffffff" stroke="transparent" points="318.5,-37.7 318.5,-56.7 339.5,-56.7 339.5,-37.7 318.5,-37.7"/>
<polygon fill="none" stroke="#000000" points="318.5,-37.7 318.5,-56.7 339.5,-56.7 339.5,-37.7 318.5,-37.7"/>
<text text-anchor="start" x="321.2027" y="-43.8" font-family="Helvetica,sans-Serif" font-size="11.00" fill="#000000">8 &gt;</text>
</a>
</g>
</g>
<!-- policy_number_to_policy&#45;&gt;policy -->
<g id="edge6" class="edge">
<title>policy_number_to_policy:w&#45;&gt;policy:e</title>
<path fill="none" stroke="#000000" d="M472.9772,-99.1382C417.7096,-94.7176 401.8503,-65.7 339.5,-65.7"/>
<polygon fill="#000000" stroke="#000000" points="479.506,-99.3907 487.3608,-103.2973 483.503,-99.5454 487.5,-99.7 487.5,-99.7 487.5,-99.7 483.503,-99.5454 487.6392,-96.1027 479.506,-99.3907 479.506,-99.3907"/>
<ellipse fill="none" stroke="#000000" cx="476.3084" cy="-99.267" rx="3.2" ry="3.2"/>
</g>
</g>
</svg>
