<?xml version="1.0" encoding="UTF-8" standalone="no"?>
<!DOCTYPE svg PUBLIC "-//W3C//DTD SVG 1.1//EN"
 "http://www.w3.org/Graphics/SVG/1.1/DTD/svg11.dtd">
<!-- Generated by graphviz version 2.40.1 (20161225.0304)
 -->
<!-- Title: oneDegreeRelationshipsDiagramImplied Pages: 1 -->
<svg width="335pt" height="139pt"
 viewBox="0.00 0.00 335.00 138.70" xmlns="http://www.w3.org/2000/svg" xmlns:xlink="http://www.w3.org/1999/xlink">
<g id="graph0" class="graph" transform="scale(1 1) rotate(0) translate(4 134.7)">
<title>oneDegreeRelationshipsDiagramImplied</title>
<polygon fill="#ffffff" stroke="transparent" points="-4,4 -4,-134.7 331,-134.7 331,4 -4,4"/>
<text text-anchor="middle" x="72.4936" y="-7.3" font-family="Helvetica,sans-Serif" font-size="11.00" fill="#000000">Generated by SchemaSpy</text>
<!-- policy_day_dates -->
<g id="node1" class="node">
<title>policy_day_dates</title>
<g id="a_node1"><a xlink:href="../../tables/policy_day_dates.html" xlink:title="policy_day_dates" target="_top">
<polygon fill="#ffffff" stroke="transparent" points="149,-55.7 149,-126.7 319,-126.7 319,-55.7 149,-55.7"/>
<polygon fill="#f5f5f5" stroke="transparent" points="151,-101.2 151,-124.2 317,-124.2 317,-101.2 151,-101.2"/>
<polygon fill="none" stroke="#000000" points="151,-101.2 151,-124.2 317,-124.2 317,-101.2 151,-101.2"/>
<text text-anchor="start" x="156" y="-110.3" font-family="Helvetica,sans-Serif" font-weight="bold" font-size="11.00" fill="#000000">policy_day_dates</text>
<text text-anchor="start" x="283.8895" y="-109.3" font-family="Helvetica,sans-Serif" font-size="11.00" fill="#000000">[view]</text>
<polygon fill="none" stroke="#000000" points="151,-79.2 151,-101.2 272,-101.2 272,-79.2 151,-79.2"/>
<text text-anchor="start" x="171" y="-86.3" font-family="Helvetica,sans-Serif" font-size="11.00" fill="#000000">fk_policy_id</text>
<polygon fill="none" stroke="#000000" points="272,-79.2 272,-101.2 317,-101.2 317,-79.2 272,-79.2"/>
<text text-anchor="start" x="275" y="-86.9" font-family="Helvetica,sans-Serif" font-size="11.00" fill="#000000">int4[10]</text>
<polygon fill="none" stroke="#000000" points="151,-57.2 151,-79.2 272,-79.2 272,-57.2 151,-57.2"/>
<image xlink:href="../../images/foreignKeys.png" width="11px" height="12px" preserveAspectRatio="xMinYMin meet" x="156" y="-74.2"/>
<text text-anchor="start" x="171" y="-64.3" font-family="Helvetica,sans-Serif" font-size="11.00" fill="#000000">day_date</text>
<polygon fill="none" stroke="#000000" points="272,-57.2 272,-79.2 317,-79.2 317,-57.2 272,-57.2"/>
<text text-anchor="start" x="274.6274" y="-64.9" font-family="Helvetica,sans-Serif" font-size="11.00" fill="#000000">date[13]</text>
<polygon fill="none" stroke="#000000" stroke-width="2" points="150,-56.7 150,-125.7 318,-125.7 318,-56.7 150,-56.7"/>
</a>
</g>
</g>
<!-- day_date -->
<g id="node2" class="node">
<title>day_date</title>
<g id="a_node2"><a xlink:href="../../tables/day_date.html" xlink:title="day_date" target="_top">
<polygon fill="#ffffff" stroke="transparent" points="8,-38.2 8,-102.2 100,-102.2 100,-38.2 8,-38.2"/>
<polygon fill="#f5f5f5" stroke="transparent" points="8,-79.2 8,-102.2 100,-102.2 100,-79.2 8,-79.2"/>
<polygon fill="none" stroke="#000000" points="8,-79.2 8,-102.2 100,-102.2 100,-79.2 8,-79.2"/>
<text text-anchor="start" x="13" y="-88.3" font-family="Helvetica,sans-Serif" font-weight="bold" font-size="11.00" fill="#000000">day_date</text>
<text text-anchor="start" x="65.0437" y="-87.3" font-family="Helvetica,sans-Serif" font-size="11.00" fill="#000000">[table]</text>
<polygon fill="none" stroke="#000000" points="8,-57.2 8,-79.2 100,-79.2 100,-57.2 8,-57.2"/>
<image xlink:href="../../images/primaryKeys.png" width="11px" height="12px" preserveAspectRatio="xMinYMin meet" x="13" y="-74.2"/>
<text text-anchor="start" x="38" y="-64.3" font-family="Helvetica,sans-Serif" font-size="11.00" fill="#000000">day_date</text>
<polygon fill="#ffffff" stroke="transparent" points="8,-38.2 8,-57.2 20,-57.2 20,-38.2 8,-38.2"/>
<polygon fill="none" stroke="#000000" points="8,-38.2 8,-57.2 20,-57.2 20,-38.2 8,-38.2"/>
<text text-anchor="start" x="10.9431" y="-44.3" font-family="Helvetica,sans-Serif" font-size="11.00" fill="#000000"> &#160;</text>
<polygon fill="#ffffff" stroke="transparent" points="20,-38.2 20,-57.2 79,-57.2 79,-38.2 20,-38.2"/>
<polygon fill="none" stroke="#000000" points="20,-38.2 20,-57.2 79,-57.2 79,-38.2 20,-38.2"/>
<text text-anchor="start" x="22.6045" y="-44.3" font-family="Helvetica,sans-Serif" font-size="11.00" fill="#000000">2,193 rows</text>
<polygon fill="#ffffff" stroke="transparent" points="79,-38.2 79,-57.2 100,-57.2 100,-38.2 79,-38.2"/>
<polygon fill="none" stroke="#000000" points="79,-38.2 79,-57.2 100,-57.2 100,-38.2 79,-38.2"/>
<text text-anchor="start" x="81.7027" y="-44.3" font-family="Helvetica,sans-Serif" font-size="11.00" fill="#000000">1 &gt;</text>
</a>
</g>
</g>
<!-- policy_day_dates&#45;&gt;day_date -->
<g id="edge1" class="edge">
<title>policy_day_dates:w&#45;&gt;day_date:e</title>
<path fill="none" stroke="#000000" stroke-dasharray="5,2" d="M136.276,-68.2C124.2815,-68.2 116.8229,-68.2 100,-68.2"/>
<polygon fill="#000000" stroke="#000000" points="143,-68.2001 151,-71.8 147,-68.2 151,-68.2 151,-68.2 151,-68.2 147,-68.2 151,-64.6 143,-68.2001 143,-68.2001"/>
<ellipse fill="none" stroke="#000000" cx="139.8" cy="-68.2001" rx="3.2" ry="3.2"/>
</g>
</g>
</svg>
