<?xml version="1.0" encoding="UTF-8" standalone="no"?>
<!DOCTYPE svg PUBLIC "-//W3C//DTD SVG 1.1//EN"
 "http://www.w3.org/Graphics/SVG/1.1/DTD/svg11.dtd">
<!-- Generated by graphviz version 2.40.1 (20161225.0304)
 -->
<!-- Title: oneDegreeRelationshipsDiagram Pages: 1 -->
<svg width="584pt" height="281pt"
 viewBox="0.00 0.00 584.00 281.20" xmlns="http://www.w3.org/2000/svg" xmlns:xlink="http://www.w3.org/1999/xlink">
<g id="graph0" class="graph" transform="scale(1 1) rotate(0) translate(4 277.2)">
<title>oneDegreeRelationshipsDiagram</title>
<polygon fill="#ffffff" stroke="transparent" points="-4,4 -4,-277.2 580,-277.2 580,4 -4,4"/>
<text text-anchor="middle" x="72.4936" y="-7.3" font-family="Helvetica,sans-Serif" font-size="11.00" fill="#000000">Generated by SchemaSpy</text>
<!-- policies_to_court_challenges -->
<g id="node1" class="node">
<title>policies_to_court_challenges</title>
<g id="a_node1"><a xlink:href="../../tables/policies_to_court_challenges.html" xlink:title="policies_to_court_challenges" target="_top">
<polygon fill="#ffffff" stroke="transparent" points="333,-139.7 333,-229.7 568,-229.7 568,-139.7 333,-139.7"/>
<polygon fill="#f5f5f5" stroke="transparent" points="335.5,-204.7 335.5,-227.7 566.5,-227.7 566.5,-204.7 335.5,-204.7"/>
<polygon fill="none" stroke="#000000" points="335.5,-204.7 335.5,-227.7 566.5,-227.7 566.5,-204.7 335.5,-204.7"/>
<text text-anchor="start" x="340.5" y="-213.8" font-family="Helvetica,sans-Serif" font-weight="bold" font-size="11.00" fill="#000000">policies_to_court_challenges</text>
<text text-anchor="start" x="531.5437" y="-212.8" font-family="Helvetica,sans-Serif" font-size="11.00" fill="#000000">[table]</text>
<polygon fill="none" stroke="#000000" points="335.5,-182.7 335.5,-204.7 524.5,-204.7 524.5,-182.7 335.5,-182.7"/>
<image xlink:href="../../images/primaryKeys.png" width="11px" height="12px" preserveAspectRatio="xMinYMin meet" x="340.5" y="-199.7"/>
<text text-anchor="start" x="355.5" y="-189.8" font-family="Helvetica,sans-Serif" font-size="11.00" fill="#000000">court_challenge</text>
<polygon fill="none" stroke="#000000" points="524.5,-182.7 524.5,-204.7 566.5,-204.7 566.5,-182.7 524.5,-182.7"/>
<text text-anchor="start" x="527.4644" y="-190.4" font-family="Helvetica,sans-Serif" font-size="11.00" fill="#000000">int4[10]</text>
<polygon fill="none" stroke="#000000" points="335.5,-160.7 335.5,-182.7 524.5,-182.7 524.5,-160.7 335.5,-160.7"/>
<image xlink:href="../../images/primaryKeys.png" width="11px" height="12px" preserveAspectRatio="xMinYMin meet" x="340.5" y="-177.7"/>
<text text-anchor="start" x="355.5" y="-167.8" font-family="Helvetica,sans-Serif" font-size="11.00" fill="#000000">policy</text>
<polygon fill="none" stroke="#000000" points="524.5,-160.7 524.5,-182.7 566.5,-182.7 566.5,-160.7 524.5,-160.7"/>
<text text-anchor="start" x="527.4644" y="-168.4" font-family="Helvetica,sans-Serif" font-size="11.00" fill="#000000">int4[10]</text>
<polygon fill="#ffffff" stroke="transparent" points="335.5,-141.7 335.5,-160.7 421.5,-160.7 421.5,-141.7 335.5,-141.7"/>
<polygon fill="none" stroke="#000000" points="335.5,-141.7 335.5,-160.7 421.5,-160.7 421.5,-141.7 335.5,-141.7"/>
<text text-anchor="start" x="338.5" y="-147.8" font-family="Helvetica,sans-Serif" font-size="11.00" fill="#000000">&lt; 2</text>
<polygon fill="#ffffff" stroke="transparent" points="421.5,-141.7 421.5,-160.7 524.5,-160.7 524.5,-141.7 421.5,-141.7"/>
<polygon fill="none" stroke="#000000" points="421.5,-141.7 421.5,-160.7 524.5,-160.7 524.5,-141.7 421.5,-141.7"/>
<text text-anchor="start" x="489.1105" y="-147.8" font-family="Helvetica,sans-Serif" font-size="11.00" fill="#000000">0 rows</text>
<polygon fill="#ffffff" stroke="transparent" points="524.5,-141.7 524.5,-160.7 566.5,-160.7 566.5,-141.7 524.5,-141.7"/>
<polygon fill="none" stroke="#000000" points="524.5,-141.7 524.5,-160.7 566.5,-160.7 566.5,-141.7 524.5,-141.7"/>
<text text-anchor="start" x="547.9053" y="-147.8" font-family="Helvetica,sans-Serif" font-size="11.00" fill="#000000">0 &gt;</text>
<polygon fill="none" stroke="#000000" stroke-width="2" points="334,-140.7 334,-228.7 567,-228.7 567,-140.7 334,-140.7"/>
</a>
</g>
</g>
<!-- court_challenge -->
<g id="node2" class="node">
<title>court_challenge</title>
<g id="a_node2"><a xlink:href="../../tables/court_challenge.html" xlink:title="court_challenge" target="_top">
<polygon fill="#ffffff" stroke="transparent" points="8,-186.2 8,-269.2 284,-269.2 284,-186.2 8,-186.2"/>
<polygon fill="#f5f5f5" stroke="transparent" points="8,-245.7 8,-268.7 284,-268.7 284,-245.7 8,-245.7"/>
<polygon fill="none" stroke="#000000" points="8,-245.7 8,-268.7 284,-268.7 284,-245.7 8,-245.7"/>
<text text-anchor="start" x="13" y="-254.8" font-family="Helvetica,sans-Serif" font-weight="bold" font-size="11.00" fill="#000000">court_challenge</text>
<text text-anchor="start" x="249.0437" y="-253.8" font-family="Helvetica,sans-Serif" font-size="11.00" fill="#000000">[table]</text>
<polygon fill="none" stroke="#000000" points="8,-223.7 8,-245.7 284,-245.7 284,-223.7 8,-223.7"/>
<image xlink:href="../../images/primaryKeys.png" width="11px" height="12px" preserveAspectRatio="xMinYMin meet" x="13" y="-240.7"/>
<text text-anchor="start" x="28" y="-230.8" font-family="Helvetica,sans-Serif" font-size="11.00" fill="#000000">id</text>
<polygon fill="none" stroke="#000000" points="8,-204.7 8,-223.7 284,-223.7 284,-204.7 8,-204.7"/>
<text text-anchor="start" x="11" y="-210.8" font-family="Helvetica,sans-Serif" font-size="11.00" fill="#000000">...</text>
<polygon fill="#ffffff" stroke="transparent" points="8,-185.7 8,-204.7 122,-204.7 122,-185.7 8,-185.7"/>
<polygon fill="none" stroke="#000000" points="8,-185.7 8,-204.7 122,-204.7 122,-185.7 8,-185.7"/>
<text text-anchor="start" x="11" y="-191.8" font-family="Helvetica,sans-Serif" font-size="11.00" fill="#000000"> &#160;</text>
<polygon fill="#ffffff" stroke="transparent" points="122,-185.7 122,-204.7 211,-204.7 211,-185.7 122,-185.7"/>
<polygon fill="none" stroke="#000000" points="122,-185.7 122,-204.7 211,-204.7 211,-185.7 122,-185.7"/>
<text text-anchor="start" x="175.6105" y="-191.8" font-family="Helvetica,sans-Serif" font-size="11.00" fill="#000000">0 rows</text>
<polygon fill="#ffffff" stroke="transparent" points="211,-185.7 211,-204.7 284,-204.7 284,-185.7 211,-185.7"/>
<polygon fill="none" stroke="#000000" points="211,-185.7 211,-204.7 284,-204.7 284,-185.7 211,-185.7"/>
<text text-anchor="start" x="265.4053" y="-191.8" font-family="Helvetica,sans-Serif" font-size="11.00" fill="#000000">1 &gt;</text>
</a>
</g>
</g>
<!-- policies_to_court_challenges&#45;&gt;court_challenge -->
<g id="edge1" class="edge">
<title>policies_to_court_challenges:w&#45;&gt;court_challenge:e</title>
<path fill="none" stroke="#000000" d="M321.5533,-198.0877C307.596,-208.6646 307.3139,-234.7 284,-234.7"/>
<polygon fill="#000000" stroke="#000000" points="327.8687,-196.1009 336.5804,-197.1341 331.6844,-194.9004 335.5,-193.7 335.5,-193.7 335.5,-193.7 331.6844,-194.9004 334.4196,-190.2659 327.8687,-196.1009 327.8687,-196.1009"/>
<ellipse fill="none" stroke="#000000" cx="324.8162" cy="-197.0612" rx="3.2" ry="3.2"/>
</g>
<!-- policy -->
<g id="node3" class="node">
<title>policy</title>
<g id="a_node3"><a xlink:href="../../tables/policy.html" xlink:title="policy" target="_top">
<polygon fill="#ffffff" stroke="transparent" points="36,-38.2 36,-165.2 256,-165.2 256,-38.2 36,-38.2"/>
<polygon fill="#f5f5f5" stroke="transparent" points="36,-141.7 36,-164.7 256,-164.7 256,-141.7 36,-141.7"/>
<polygon fill="none" stroke="#000000" points="36,-141.7 36,-164.7 256,-164.7 256,-141.7 36,-141.7"/>
<text text-anchor="start" x="41" y="-150.8" font-family="Helvetica,sans-Serif" font-weight="bold" font-size="11.00" fill="#000000">policy</text>
<text text-anchor="start" x="221.0437" y="-149.8" font-family="Helvetica,sans-Serif" font-size="11.00" fill="#000000">[table]</text>
<polygon fill="none" stroke="#000000" points="36,-119.7 36,-141.7 256,-141.7 256,-119.7 36,-119.7"/>
<image xlink:href="../../images/primaryKeys.png" width="11px" height="12px" preserveAspectRatio="xMinYMin meet" x="41" y="-136.7"/>
<text text-anchor="start" x="56" y="-126.8" font-family="Helvetica,sans-Serif" font-size="11.00" fill="#000000">id</text>
<polygon fill="#ffffff" stroke="transparent" points="36,-97.7 36,-119.7 256,-119.7 256,-97.7 36,-97.7"/>
<polygon fill="none" stroke="#000000" points="36,-97.7 36,-119.7 256,-119.7 256,-97.7 36,-97.7"/>
<text text-anchor="start" x="56" y="-104.8" font-family="Helvetica,sans-Serif" font-size="11.00" fill="#000000">primary_ph_measure</text>
<polygon fill="#ffffff" stroke="transparent" points="36,-75.7 36,-97.7 256,-97.7 256,-75.7 36,-75.7"/>
<polygon fill="none" stroke="#000000" points="36,-75.7 36,-97.7 256,-97.7 256,-75.7 36,-75.7"/>
<text text-anchor="start" x="56" y="-82.8" font-family="Helvetica,sans-Serif" font-size="11.00" fill="#000000">group_number</text>
<polygon fill="none" stroke="#000000" points="36,-56.7 36,-75.7 256,-75.7 256,-56.7 36,-56.7"/>
<text text-anchor="start" x="39" y="-62.8" font-family="Helvetica,sans-Serif" font-size="11.00" fill="#000000">...</text>
<polygon fill="#ffffff" stroke="transparent" points="36,-37.7 36,-56.7 109,-56.7 109,-37.7 36,-37.7"/>
<polygon fill="none" stroke="#000000" points="36,-37.7 36,-56.7 109,-56.7 109,-37.7 36,-37.7"/>
<text text-anchor="start" x="39" y="-43.8" font-family="Helvetica,sans-Serif" font-size="11.00" fill="#000000"> &#160;</text>
<polygon fill="#ffffff" stroke="transparent" points="109,-37.7 109,-56.7 204,-56.7 204,-37.7 109,-37.7"/>
<polygon fill="none" stroke="#000000" points="109,-37.7 109,-56.7 204,-56.7 204,-37.7 109,-37.7"/>
<text text-anchor="start" x="141.094" y="-43.8" font-family="Helvetica,sans-Serif" font-size="11.00" fill="#000000">40,950 rows</text>
<polygon fill="#ffffff" stroke="transparent" points="204,-37.7 204,-56.7 256,-56.7 256,-37.7 204,-37.7"/>
<polygon fill="none" stroke="#000000" points="204,-37.7 204,-56.7 256,-56.7 256,-37.7 204,-37.7"/>
<text text-anchor="start" x="237.4053" y="-43.8" font-family="Helvetica,sans-Serif" font-size="11.00" fill="#000000">8 &gt;</text>
</a>
</g>
</g>
<!-- policies_to_court_challenges&#45;&gt;policy -->
<g id="edge2" class="edge">
<title>policies_to_court_challenges:w&#45;&gt;policy:e</title>
<path fill="none" stroke="#000000" d="M321.2208,-169.6104C295.0042,-161.2554 290.3201,-130.7 256,-130.7"/>
<polygon fill="#000000" stroke="#000000" points="327.5843,-170.5416 334.9787,-175.2621 331.5422,-171.1208 335.5,-171.7 335.5,-171.7 335.5,-171.7 331.5422,-171.1208 336.0213,-168.1379 327.5843,-170.5416 327.5843,-170.5416"/>
<ellipse fill="none" stroke="#000000" cx="324.418" cy="-170.0782" rx="3.2" ry="3.2"/>
</g>
</g>
</svg>
